%FSLAX45Y45*%
G04 Gerber Fmt 4.5, Leading zero omitted, Abs format (unit mm)*
G04 Created by KiCad (PCBNEW (5.1.0)-1) date 2019-08-13 11:23:55*
%MOMM*%
%LPD*%
G04 APERTURE LIST*
%ADD10C,0.050000*%
%ADD11C,0.200000*%
%ADD12C,0.300000*%
G04 APERTURE END LIST*
D10*
X9525000Y-5969000D02*
X19458000Y-5969000D01*
X9525000Y-15875000D02*
X9525000Y-5969000D01*
X19458000Y-15875000D02*
X19458000Y-5969000D01*
X9525000Y-15875000D02*
X19458000Y-15875000D01*
D11*
X10673400Y-11765600D02*
X10713400Y-11805600D01*
X10713400Y-11765600D02*
X10673400Y-11805600D01*
X10978200Y-9911400D02*
X11018200Y-9951400D01*
X11018200Y-9911400D02*
X10978200Y-9951400D01*
X15550200Y-12959400D02*
X15590200Y-12999400D01*
X15590200Y-12959400D02*
X15550200Y-12999400D01*
X10144200Y-12446000D02*
G75*
G03X10144200Y-12446000I-35000J0D01*
G01*
X10906200Y-12446000D02*
G75*
G03X10906200Y-12446000I-35000J0D01*
G01*
X10144200Y-12954000D02*
G75*
G03X10144200Y-12954000I-35000J0D01*
G01*
X10906200Y-12954000D02*
G75*
G03X10906200Y-12954000I-35000J0D01*
G01*
X10144200Y-12192000D02*
G75*
G03X10144200Y-12192000I-35000J0D01*
G01*
X10906200Y-12192000D02*
G75*
G03X10906200Y-12192000I-35000J0D01*
G01*
X10144200Y-11938000D02*
G75*
G03X10144200Y-11938000I-35000J0D01*
G01*
X10906200Y-11938000D02*
G75*
G03X10906200Y-11938000I-35000J0D01*
G01*
X10144200Y-14224000D02*
G75*
G03X10144200Y-14224000I-35000J0D01*
G01*
X10906200Y-14224000D02*
G75*
G03X10906200Y-14224000I-35000J0D01*
G01*
X10144200Y-13970000D02*
G75*
G03X10144200Y-13970000I-35000J0D01*
G01*
X10906200Y-13970000D02*
G75*
G03X10906200Y-13970000I-35000J0D01*
G01*
X10144200Y-12700000D02*
G75*
G03X10144200Y-12700000I-35000J0D01*
G01*
X10906200Y-12700000D02*
G75*
G03X10906200Y-12700000I-35000J0D01*
G01*
X10144200Y-13716000D02*
G75*
G03X10144200Y-13716000I-35000J0D01*
G01*
X10906200Y-13716000D02*
G75*
G03X10906200Y-13716000I-35000J0D01*
G01*
X10144200Y-13208000D02*
G75*
G03X10144200Y-13208000I-35000J0D01*
G01*
X10906200Y-13208000D02*
G75*
G03X10906200Y-13208000I-35000J0D01*
G01*
X10144200Y-13462000D02*
G75*
G03X10144200Y-13462000I-35000J0D01*
G01*
X10906200Y-13462000D02*
G75*
G03X10906200Y-13462000I-35000J0D01*
G01*
X11684000Y-8597900D02*
X11684000Y-8674100D01*
X11645900Y-8636000D02*
X11722100Y-8636000D01*
X11938000Y-8597900D02*
X11938000Y-8674100D01*
X11899900Y-8636000D02*
X11976100Y-8636000D01*
X11938000Y-9613900D02*
X11938000Y-9690100D01*
X11899900Y-9652000D02*
X11976100Y-9652000D01*
X12192000Y-8597900D02*
X12192000Y-8674100D01*
X12153900Y-8636000D02*
X12230100Y-8636000D01*
X12192000Y-9613900D02*
X12192000Y-9690100D01*
X12153900Y-9652000D02*
X12230100Y-9652000D01*
X12446000Y-8597900D02*
X12446000Y-8674100D01*
X12407900Y-8636000D02*
X12484100Y-8636000D01*
X12446000Y-9613900D02*
X12446000Y-9690100D01*
X12407900Y-9652000D02*
X12484100Y-9652000D01*
X12700000Y-8597900D02*
X12700000Y-8674100D01*
X12661900Y-8636000D02*
X12738100Y-8636000D01*
X12700000Y-9613900D02*
X12700000Y-9690100D01*
X12661900Y-9652000D02*
X12738100Y-9652000D01*
X12954000Y-8597900D02*
X12954000Y-8674100D01*
X12915900Y-8636000D02*
X12992100Y-8636000D01*
X12954000Y-9613900D02*
X12954000Y-9690100D01*
X12915900Y-9652000D02*
X12992100Y-9652000D01*
X13208000Y-8597900D02*
X13208000Y-8674100D01*
X13169900Y-8636000D02*
X13246100Y-8636000D01*
X13208000Y-9613900D02*
X13208000Y-9690100D01*
X13169900Y-9652000D02*
X13246100Y-9652000D01*
X13462000Y-8597900D02*
X13462000Y-8674100D01*
X13423900Y-8636000D02*
X13500100Y-8636000D01*
X13462000Y-9613900D02*
X13462000Y-9690100D01*
X13423900Y-9652000D02*
X13500100Y-9652000D01*
X11648784Y-11458284D02*
X11648784Y-11401715D01*
X11592215Y-11401715D01*
X11592215Y-11458284D01*
X11648784Y-11458284D01*
X11648784Y-11712284D02*
X11648784Y-11655715D01*
X11592215Y-11655715D01*
X11592215Y-11712284D01*
X11648784Y-11712284D01*
X11648784Y-11966284D02*
X11648784Y-11909715D01*
X11592215Y-11909715D01*
X11592215Y-11966284D01*
X11648784Y-11966284D01*
X11648784Y-12220284D02*
X11648784Y-12163715D01*
X11592215Y-12163715D01*
X11592215Y-12220284D01*
X11648784Y-12220284D01*
X11648784Y-12474284D02*
X11648784Y-12417715D01*
X11592215Y-12417715D01*
X11592215Y-12474284D01*
X11648784Y-12474284D01*
X11648784Y-12728284D02*
X11648784Y-12671715D01*
X11592215Y-12671715D01*
X11592215Y-12728284D01*
X11648784Y-12728284D01*
X11648784Y-12982284D02*
X11648784Y-12925715D01*
X11592215Y-12925715D01*
X11592215Y-12982284D01*
X11648784Y-12982284D01*
X11648784Y-13236284D02*
X11648784Y-13179715D01*
X11592215Y-13179715D01*
X11592215Y-13236284D01*
X11648784Y-13236284D01*
X11648784Y-13490284D02*
X11648784Y-13433715D01*
X11592215Y-13433715D01*
X11592215Y-13490284D01*
X11648784Y-13490284D01*
X11648784Y-13744284D02*
X11648784Y-13687715D01*
X11592215Y-13687715D01*
X11592215Y-13744284D01*
X11648784Y-13744284D01*
X11648784Y-13998284D02*
X11648784Y-13941715D01*
X11592215Y-13941715D01*
X11592215Y-13998284D01*
X11648784Y-13998284D01*
X11648784Y-14252284D02*
X11648784Y-14195715D01*
X11592215Y-14195715D01*
X11592215Y-14252284D01*
X11648784Y-14252284D01*
X11648784Y-14506284D02*
X11648784Y-14449715D01*
X11592215Y-14449715D01*
X11592215Y-14506284D01*
X11648784Y-14506284D01*
X11648784Y-14760284D02*
X11648784Y-14703715D01*
X11592215Y-14703715D01*
X11592215Y-14760284D01*
X11648784Y-14760284D01*
X11648784Y-15014284D02*
X11648784Y-14957715D01*
X11592215Y-14957715D01*
X11592215Y-15014284D01*
X11648784Y-15014284D01*
X13172784Y-11458284D02*
X13172784Y-11401715D01*
X13116215Y-11401715D01*
X13116215Y-11458284D01*
X13172784Y-11458284D01*
X13172784Y-11712284D02*
X13172784Y-11655715D01*
X13116215Y-11655715D01*
X13116215Y-11712284D01*
X13172784Y-11712284D01*
X13172784Y-11966284D02*
X13172784Y-11909715D01*
X13116215Y-11909715D01*
X13116215Y-11966284D01*
X13172784Y-11966284D01*
X13172784Y-12220284D02*
X13172784Y-12163715D01*
X13116215Y-12163715D01*
X13116215Y-12220284D01*
X13172784Y-12220284D01*
X13172784Y-12474284D02*
X13172784Y-12417715D01*
X13116215Y-12417715D01*
X13116215Y-12474284D01*
X13172784Y-12474284D01*
X13172784Y-12728284D02*
X13172784Y-12671715D01*
X13116215Y-12671715D01*
X13116215Y-12728284D01*
X13172784Y-12728284D01*
X13172784Y-12982284D02*
X13172784Y-12925715D01*
X13116215Y-12925715D01*
X13116215Y-12982284D01*
X13172784Y-12982284D01*
X13172784Y-13236284D02*
X13172784Y-13179715D01*
X13116215Y-13179715D01*
X13116215Y-13236284D01*
X13172784Y-13236284D01*
X13172784Y-13490284D02*
X13172784Y-13433715D01*
X13116215Y-13433715D01*
X13116215Y-13490284D01*
X13172784Y-13490284D01*
X13172784Y-13744284D02*
X13172784Y-13687715D01*
X13116215Y-13687715D01*
X13116215Y-13744284D01*
X13172784Y-13744284D01*
X13172784Y-13998284D02*
X13172784Y-13941715D01*
X13116215Y-13941715D01*
X13116215Y-13998284D01*
X13172784Y-13998284D01*
X13172784Y-14252284D02*
X13172784Y-14195715D01*
X13116215Y-14195715D01*
X13116215Y-14252284D01*
X13172784Y-14252284D01*
X13172784Y-14506284D02*
X13172784Y-14449715D01*
X13116215Y-14449715D01*
X13116215Y-14506284D01*
X13172784Y-14506284D01*
X13172784Y-14760284D02*
X13172784Y-14703715D01*
X13116215Y-14703715D01*
X13116215Y-14760284D01*
X13172784Y-14760284D01*
X13172784Y-15014284D02*
X13172784Y-14957715D01*
X13116215Y-14957715D01*
X13116215Y-15014284D01*
X13172784Y-15014284D01*
X9934285Y-8537285D02*
X9934285Y-8480716D01*
X9877716Y-8480716D01*
X9877716Y-8537285D01*
X9934285Y-8537285D01*
X9934285Y-8791285D02*
X9934285Y-8734716D01*
X9877716Y-8734716D01*
X9877716Y-8791285D01*
X9934285Y-8791285D01*
X9934285Y-9045285D02*
X9934285Y-8988716D01*
X9877716Y-8988716D01*
X9877716Y-9045285D01*
X9934285Y-9045285D01*
X9934285Y-9299285D02*
X9934285Y-9242716D01*
X9877716Y-9242716D01*
X9877716Y-9299285D01*
X9934285Y-9299285D01*
X9934285Y-9553285D02*
X9934285Y-9496716D01*
X9877716Y-9496716D01*
X9877716Y-9553285D01*
X9934285Y-9553285D01*
X9934285Y-9807285D02*
X9934285Y-9750716D01*
X9877716Y-9750716D01*
X9877716Y-9807285D01*
X9934285Y-9807285D01*
X9934285Y-10061285D02*
X9934285Y-10004716D01*
X9877716Y-10004716D01*
X9877716Y-10061285D01*
X9934285Y-10061285D01*
X9934285Y-10315285D02*
X9934285Y-10258716D01*
X9877716Y-10258716D01*
X9877716Y-10315285D01*
X9934285Y-10315285D01*
X9934285Y-10569285D02*
X9934285Y-10512716D01*
X9877716Y-10512716D01*
X9877716Y-10569285D01*
X9934285Y-10569285D01*
X9934285Y-10823285D02*
X9934285Y-10766716D01*
X9877716Y-10766716D01*
X9877716Y-10823285D01*
X9934285Y-10823285D01*
X9934285Y-11077285D02*
X9934285Y-11020716D01*
X9877716Y-11020716D01*
X9877716Y-11077285D01*
X9934285Y-11077285D01*
X9934285Y-11331284D02*
X9934285Y-11274715D01*
X9877716Y-11274715D01*
X9877716Y-11331284D01*
X9934285Y-11331284D01*
X10696285Y-8537285D02*
X10696285Y-8480716D01*
X10639716Y-8480716D01*
X10639716Y-8537285D01*
X10696285Y-8537285D01*
X10696285Y-8791285D02*
X10696285Y-8734716D01*
X10639716Y-8734716D01*
X10639716Y-8791285D01*
X10696285Y-8791285D01*
X10696285Y-9045285D02*
X10696285Y-8988716D01*
X10639716Y-8988716D01*
X10639716Y-9045285D01*
X10696285Y-9045285D01*
X10696285Y-9299285D02*
X10696285Y-9242716D01*
X10639716Y-9242716D01*
X10639716Y-9299285D01*
X10696285Y-9299285D01*
X10696285Y-9553285D02*
X10696285Y-9496716D01*
X10639716Y-9496716D01*
X10639716Y-9553285D01*
X10696285Y-9553285D01*
X10696285Y-9807285D02*
X10696285Y-9750716D01*
X10639716Y-9750716D01*
X10639716Y-9807285D01*
X10696285Y-9807285D01*
X10696285Y-10061285D02*
X10696285Y-10004716D01*
X10639716Y-10004716D01*
X10639716Y-10061285D01*
X10696285Y-10061285D01*
X10696285Y-10315285D02*
X10696285Y-10258716D01*
X10639716Y-10258716D01*
X10639716Y-10315285D01*
X10696285Y-10315285D01*
X10696285Y-10569285D02*
X10696285Y-10512716D01*
X10639716Y-10512716D01*
X10639716Y-10569285D01*
X10696285Y-10569285D01*
X10696285Y-10823285D02*
X10696285Y-10766716D01*
X10639716Y-10766716D01*
X10639716Y-10823285D01*
X10696285Y-10823285D01*
X10696285Y-11077285D02*
X10696285Y-11020716D01*
X10639716Y-11020716D01*
X10639716Y-11077285D01*
X10696285Y-11077285D01*
X10696285Y-11331284D02*
X10696285Y-11274715D01*
X10639716Y-11274715D01*
X10639716Y-11331284D01*
X10696285Y-11331284D01*
X11176000Y-7284000D02*
X11221000Y-7239000D01*
X11176000Y-7194000D01*
X11131000Y-7239000D01*
X11176000Y-7284000D01*
X11430000Y-7284000D02*
X11475000Y-7239000D01*
X11430000Y-7194000D01*
X11385000Y-7239000D01*
X11430000Y-7284000D01*
X11176000Y-6649000D02*
X11221000Y-6604000D01*
X11176000Y-6559000D01*
X11131000Y-6604000D01*
X11176000Y-6649000D01*
X11430000Y-6649000D02*
X11475000Y-6604000D01*
X11430000Y-6559000D01*
X11385000Y-6604000D01*
X11430000Y-6649000D01*
X11176000Y-7919000D02*
X11221000Y-7874000D01*
X11176000Y-7829000D01*
X11131000Y-7874000D01*
X11176000Y-7919000D01*
X11430000Y-7919000D02*
X11475000Y-7874000D01*
X11430000Y-7829000D01*
X11385000Y-7874000D01*
X11430000Y-7919000D01*
X13843000Y-7284000D02*
X13888000Y-7239000D01*
X13843000Y-7194000D01*
X13798000Y-7239000D01*
X13843000Y-7284000D01*
X14097000Y-7284000D02*
X14142000Y-7239000D01*
X14097000Y-7194000D01*
X14052000Y-7239000D01*
X14097000Y-7284000D01*
X13843000Y-7944400D02*
X13888000Y-7899400D01*
X13843000Y-7854400D01*
X13798000Y-7899400D01*
X13843000Y-7944400D01*
X14097000Y-7944400D02*
X14142000Y-7899400D01*
X14097000Y-7854400D01*
X14052000Y-7899400D01*
X14097000Y-7944400D01*
X13843000Y-6649000D02*
X13888000Y-6604000D01*
X13843000Y-6559000D01*
X13798000Y-6604000D01*
X13843000Y-6649000D01*
X14097000Y-6649000D02*
X14142000Y-6604000D01*
X14097000Y-6559000D01*
X14052000Y-6604000D01*
X14097000Y-6649000D01*
X17257000Y-14682000D02*
X17357000Y-14782000D01*
X17357000Y-14682000D02*
X17257000Y-14782000D01*
X17357000Y-14732000D02*
G75*
G03X17357000Y-14732000I-50000J0D01*
G01*
X17395500Y-14966000D02*
X17495500Y-15066000D01*
X17495500Y-14966000D02*
X17395500Y-15066000D01*
X17495500Y-15016000D02*
G75*
G03X17495500Y-15016000I-50000J0D01*
G01*
X17534000Y-14682000D02*
X17634000Y-14782000D01*
X17634000Y-14682000D02*
X17534000Y-14782000D01*
X17634000Y-14732000D02*
G75*
G03X17634000Y-14732000I-50000J0D01*
G01*
X17672500Y-14966000D02*
X17772500Y-15066000D01*
X17772500Y-14966000D02*
X17672500Y-15066000D01*
X17772500Y-15016000D02*
G75*
G03X17772500Y-15016000I-50000J0D01*
G01*
X17811000Y-14682000D02*
X17911000Y-14782000D01*
X17911000Y-14682000D02*
X17811000Y-14782000D01*
X17911000Y-14732000D02*
G75*
G03X17911000Y-14732000I-50000J0D01*
G01*
X17949500Y-14966000D02*
X18049500Y-15066000D01*
X18049500Y-14966000D02*
X17949500Y-15066000D01*
X18049500Y-15016000D02*
G75*
G03X18049500Y-15016000I-50000J0D01*
G01*
X18088000Y-14682000D02*
X18188000Y-14782000D01*
X18188000Y-14682000D02*
X18088000Y-14782000D01*
X18188000Y-14732000D02*
G75*
G03X18188000Y-14732000I-50000J0D01*
G01*
X18226500Y-14966000D02*
X18326500Y-15066000D01*
X18326500Y-14966000D02*
X18226500Y-15066000D01*
X18326500Y-15016000D02*
G75*
G03X18326500Y-15016000I-50000J0D01*
G01*
X18365000Y-14682000D02*
X18465000Y-14782000D01*
X18465000Y-14682000D02*
X18365000Y-14782000D01*
X18465000Y-14732000D02*
G75*
G03X18465000Y-14732000I-50000J0D01*
G01*
X9848850Y-6292850D02*
X9963150Y-6407150D01*
X9963150Y-6292850D02*
X9848850Y-6407150D01*
X9906000Y-6292850D02*
X9906000Y-6407150D01*
X9848850Y-6350000D02*
X9963150Y-6350000D01*
X9848850Y-7054850D02*
X9963150Y-7169150D01*
X9963150Y-7054850D02*
X9848850Y-7169150D01*
X9906000Y-7054850D02*
X9906000Y-7169150D01*
X9848850Y-7112000D02*
X9963150Y-7112000D01*
X10102850Y-7054850D02*
X10217150Y-7169150D01*
X10217150Y-7054850D02*
X10102850Y-7169150D01*
X10160000Y-7054850D02*
X10160000Y-7169150D01*
X10102850Y-7112000D02*
X10217150Y-7112000D01*
X10356850Y-6292850D02*
X10471150Y-6407150D01*
X10471150Y-6292850D02*
X10356850Y-6407150D01*
X10414000Y-6292850D02*
X10414000Y-6407150D01*
X10356850Y-6350000D02*
X10471150Y-6350000D01*
X10356850Y-7054850D02*
X10471150Y-7169150D01*
X10471150Y-7054850D02*
X10356850Y-7169150D01*
X10414000Y-7054850D02*
X10414000Y-7169150D01*
X10356850Y-7112000D02*
X10471150Y-7112000D01*
X17100400Y-6287000D02*
X17220400Y-6407000D01*
X17220400Y-6287000D02*
X17100400Y-6407000D01*
X17202827Y-6389427D02*
X17202827Y-6304573D01*
X17117973Y-6304573D01*
X17117973Y-6389427D01*
X17202827Y-6389427D01*
X18380400Y-6287000D02*
X18500400Y-6407000D01*
X18500400Y-6287000D02*
X18380400Y-6407000D01*
X18482827Y-6389427D02*
X18482827Y-6304573D01*
X18397973Y-6304573D01*
X18397973Y-6389427D01*
X18482827Y-6389427D01*
X18211800Y-12623800D02*
X18364200Y-12776200D01*
X18364200Y-12623800D02*
X18211800Y-12776200D01*
X18288000Y-12776200D02*
X18364200Y-12700000D01*
X18288000Y-12623800D01*
X18211800Y-12700000D01*
X18288000Y-12776200D01*
X18846800Y-12496800D02*
X18999200Y-12649200D01*
X18999200Y-12496800D02*
X18846800Y-12649200D01*
X18923000Y-12649200D02*
X18999200Y-12573000D01*
X18923000Y-12496800D01*
X18846800Y-12573000D01*
X18923000Y-12649200D01*
X14147800Y-12623800D02*
X14300200Y-12776200D01*
X14300200Y-12623800D02*
X14147800Y-12776200D01*
X14224000Y-12776200D02*
X14300200Y-12700000D01*
X14224000Y-12623800D01*
X14147800Y-12700000D01*
X14224000Y-12776200D01*
X14782800Y-12496800D02*
X14935200Y-12649200D01*
X14935200Y-12496800D02*
X14782800Y-12649200D01*
X14859000Y-12649200D02*
X14935200Y-12573000D01*
X14859000Y-12496800D01*
X14782800Y-12573000D01*
X14859000Y-12649200D01*
X16179800Y-12623800D02*
X16332200Y-12776200D01*
X16332200Y-12623800D02*
X16179800Y-12776200D01*
X16256000Y-12776200D02*
X16332200Y-12700000D01*
X16256000Y-12623800D01*
X16179800Y-12700000D01*
X16256000Y-12776200D01*
X16814800Y-12496800D02*
X16967200Y-12649200D01*
X16967200Y-12496800D02*
X16814800Y-12649200D01*
X16891000Y-12649200D02*
X16967200Y-12573000D01*
X16891000Y-12496800D01*
X16814800Y-12573000D01*
X16891000Y-12649200D01*
X16611000Y-14714000D02*
X16611000Y-15034000D01*
X16451000Y-14874000D02*
X16771000Y-14874000D01*
X16771000Y-14874000D02*
G75*
G03X16771000Y-14874000I-160000J0D01*
G01*
X19111000Y-14714000D02*
X19111000Y-15034000D01*
X18951000Y-14874000D02*
X19271000Y-14874000D01*
X19271000Y-14874000D02*
G75*
G03X19271000Y-14874000I-160000J0D01*
G01*
X10431958Y-15461158D02*
X10431958Y-15171242D01*
X10142042Y-15171242D01*
X10142042Y-15461158D01*
X10431958Y-15461158D01*
X10492000Y-15316200D02*
G75*
G03X10492000Y-15316200I-205000J0D01*
G01*
X15207158Y-15105558D02*
X15207158Y-14815642D01*
X14917242Y-14815642D01*
X14917242Y-15105558D01*
X15207158Y-15105558D01*
X15267200Y-14960600D02*
G75*
G03X15267200Y-14960600I-205000J0D01*
G01*
D12*
X9808928Y-16343214D02*
X9808928Y-16043214D01*
X9880357Y-16043214D01*
X9923214Y-16057500D01*
X9951786Y-16086071D01*
X9966071Y-16114643D01*
X9980357Y-16171786D01*
X9980357Y-16214643D01*
X9966071Y-16271786D01*
X9951786Y-16300357D01*
X9923214Y-16328929D01*
X9880357Y-16343214D01*
X9808928Y-16343214D01*
X10108928Y-16343214D02*
X10108928Y-16143214D01*
X10108928Y-16200357D02*
X10123214Y-16171786D01*
X10137500Y-16157500D01*
X10166071Y-16143214D01*
X10194643Y-16143214D01*
X10294643Y-16343214D02*
X10294643Y-16143214D01*
X10294643Y-16043214D02*
X10280357Y-16057500D01*
X10294643Y-16071786D01*
X10308928Y-16057500D01*
X10294643Y-16043214D01*
X10294643Y-16071786D01*
X10480357Y-16343214D02*
X10451786Y-16328929D01*
X10437500Y-16300357D01*
X10437500Y-16043214D01*
X10637500Y-16343214D02*
X10608928Y-16328929D01*
X10594643Y-16300357D01*
X10594643Y-16043214D01*
X10980357Y-16343214D02*
X10980357Y-16043214D01*
X11080357Y-16257500D01*
X11180357Y-16043214D01*
X11180357Y-16343214D01*
X11451786Y-16343214D02*
X11451786Y-16186071D01*
X11437500Y-16157500D01*
X11408928Y-16143214D01*
X11351786Y-16143214D01*
X11323214Y-16157500D01*
X11451786Y-16328929D02*
X11423214Y-16343214D01*
X11351786Y-16343214D01*
X11323214Y-16328929D01*
X11308928Y-16300357D01*
X11308928Y-16271786D01*
X11323214Y-16243214D01*
X11351786Y-16228929D01*
X11423214Y-16228929D01*
X11451786Y-16214643D01*
X11594643Y-16143214D02*
X11594643Y-16443214D01*
X11594643Y-16157500D02*
X11623214Y-16143214D01*
X11680357Y-16143214D01*
X11708928Y-16157500D01*
X11723214Y-16171786D01*
X11737500Y-16200357D01*
X11737500Y-16286071D01*
X11723214Y-16314643D01*
X11708928Y-16328929D01*
X11680357Y-16343214D01*
X11623214Y-16343214D01*
X11594643Y-16328929D01*
X11866071Y-16314643D02*
X11880357Y-16328929D01*
X11866071Y-16343214D01*
X11851786Y-16328929D01*
X11866071Y-16314643D01*
X11866071Y-16343214D01*
X11866071Y-16157500D02*
X11880357Y-16171786D01*
X11866071Y-16186071D01*
X11851786Y-16171786D01*
X11866071Y-16157500D01*
X11866071Y-16186071D01*
X9482500Y-16817500D02*
X9522500Y-16857500D01*
X9522500Y-16817500D02*
X9482500Y-16857500D01*
X9866071Y-16673214D02*
X9894643Y-16673214D01*
X9923214Y-16687500D01*
X9937500Y-16701786D01*
X9951786Y-16730357D01*
X9966071Y-16787500D01*
X9966071Y-16858929D01*
X9951786Y-16916072D01*
X9937500Y-16944643D01*
X9923214Y-16958929D01*
X9894643Y-16973214D01*
X9866071Y-16973214D01*
X9837500Y-16958929D01*
X9823214Y-16944643D01*
X9808928Y-16916072D01*
X9794643Y-16858929D01*
X9794643Y-16787500D01*
X9808928Y-16730357D01*
X9823214Y-16701786D01*
X9837500Y-16687500D01*
X9866071Y-16673214D01*
X10094643Y-16944643D02*
X10108928Y-16958929D01*
X10094643Y-16973214D01*
X10080357Y-16958929D01*
X10094643Y-16944643D01*
X10094643Y-16973214D01*
X10366071Y-16773214D02*
X10366071Y-16973214D01*
X10294643Y-16658929D02*
X10223214Y-16873214D01*
X10408928Y-16873214D01*
X10580357Y-16673214D02*
X10608928Y-16673214D01*
X10637500Y-16687500D01*
X10651786Y-16701786D01*
X10666071Y-16730357D01*
X10680357Y-16787500D01*
X10680357Y-16858929D01*
X10666071Y-16916072D01*
X10651786Y-16944643D01*
X10637500Y-16958929D01*
X10608928Y-16973214D01*
X10580357Y-16973214D01*
X10551786Y-16958929D01*
X10537500Y-16944643D01*
X10523214Y-16916072D01*
X10508928Y-16858929D01*
X10508928Y-16787500D01*
X10523214Y-16730357D01*
X10537500Y-16701786D01*
X10551786Y-16687500D01*
X10580357Y-16673214D01*
X10808928Y-16973214D02*
X10808928Y-16773214D01*
X10808928Y-16801786D02*
X10823214Y-16787500D01*
X10851786Y-16773214D01*
X10894643Y-16773214D01*
X10923214Y-16787500D01*
X10937500Y-16816072D01*
X10937500Y-16973214D01*
X10937500Y-16816072D02*
X10951786Y-16787500D01*
X10980357Y-16773214D01*
X11023214Y-16773214D01*
X11051786Y-16787500D01*
X11066071Y-16816072D01*
X11066071Y-16973214D01*
X11208928Y-16973214D02*
X11208928Y-16773214D01*
X11208928Y-16801786D02*
X11223214Y-16787500D01*
X11251786Y-16773214D01*
X11294643Y-16773214D01*
X11323214Y-16787500D01*
X11337500Y-16816072D01*
X11337500Y-16973214D01*
X11337500Y-16816072D02*
X11351786Y-16787500D01*
X11380357Y-16773214D01*
X11423214Y-16773214D01*
X11451786Y-16787500D01*
X11466071Y-16816072D01*
X11466071Y-16973214D01*
X12051786Y-16658929D02*
X11794643Y-17044643D01*
X12437500Y-16673214D02*
X12466071Y-16673214D01*
X12494643Y-16687500D01*
X12508928Y-16701786D01*
X12523214Y-16730357D01*
X12537500Y-16787500D01*
X12537500Y-16858929D01*
X12523214Y-16916072D01*
X12508928Y-16944643D01*
X12494643Y-16958929D01*
X12466071Y-16973214D01*
X12437500Y-16973214D01*
X12408928Y-16958929D01*
X12394643Y-16944643D01*
X12380357Y-16916072D01*
X12366071Y-16858929D01*
X12366071Y-16787500D01*
X12380357Y-16730357D01*
X12394643Y-16701786D01*
X12408928Y-16687500D01*
X12437500Y-16673214D01*
X12666071Y-16944643D02*
X12680357Y-16958929D01*
X12666071Y-16973214D01*
X12651786Y-16958929D01*
X12666071Y-16944643D01*
X12666071Y-16973214D01*
X12866071Y-16673214D02*
X12894643Y-16673214D01*
X12923214Y-16687500D01*
X12937500Y-16701786D01*
X12951786Y-16730357D01*
X12966071Y-16787500D01*
X12966071Y-16858929D01*
X12951786Y-16916072D01*
X12937500Y-16944643D01*
X12923214Y-16958929D01*
X12894643Y-16973214D01*
X12866071Y-16973214D01*
X12837500Y-16958929D01*
X12823214Y-16944643D01*
X12808928Y-16916072D01*
X12794643Y-16858929D01*
X12794643Y-16787500D01*
X12808928Y-16730357D01*
X12823214Y-16701786D01*
X12837500Y-16687500D01*
X12866071Y-16673214D01*
X13251786Y-16973214D02*
X13080357Y-16973214D01*
X13166071Y-16973214D02*
X13166071Y-16673214D01*
X13137500Y-16716071D01*
X13108928Y-16744643D01*
X13080357Y-16758929D01*
X13508928Y-16673214D02*
X13451786Y-16673214D01*
X13423214Y-16687500D01*
X13408928Y-16701786D01*
X13380357Y-16744643D01*
X13366071Y-16801786D01*
X13366071Y-16916072D01*
X13380357Y-16944643D01*
X13394643Y-16958929D01*
X13423214Y-16973214D01*
X13480357Y-16973214D01*
X13508928Y-16958929D01*
X13523214Y-16944643D01*
X13537500Y-16916072D01*
X13537500Y-16844643D01*
X13523214Y-16816072D01*
X13508928Y-16801786D01*
X13480357Y-16787500D01*
X13423214Y-16787500D01*
X13394643Y-16801786D01*
X13380357Y-16816072D01*
X13366071Y-16844643D01*
X13651786Y-16673214D02*
X13651786Y-16730357D01*
X13766071Y-16673214D02*
X13766071Y-16730357D01*
X14208928Y-17087500D02*
X14194643Y-17073214D01*
X14166071Y-17030357D01*
X14151786Y-17001786D01*
X14137500Y-16958929D01*
X14123214Y-16887500D01*
X14123214Y-16830357D01*
X14137500Y-16758929D01*
X14151786Y-16716071D01*
X14166071Y-16687500D01*
X14194643Y-16644643D01*
X14208928Y-16630357D01*
X14294643Y-16673214D02*
X14480357Y-16673214D01*
X14380357Y-16787500D01*
X14423214Y-16787500D01*
X14451786Y-16801786D01*
X14466071Y-16816072D01*
X14480357Y-16844643D01*
X14480357Y-16916072D01*
X14466071Y-16944643D01*
X14451786Y-16958929D01*
X14423214Y-16973214D01*
X14337500Y-16973214D01*
X14308928Y-16958929D01*
X14294643Y-16944643D01*
X14837500Y-16973214D02*
X14837500Y-16673214D01*
X14966071Y-16973214D02*
X14966071Y-16816072D01*
X14951786Y-16787500D01*
X14923214Y-16773214D01*
X14880357Y-16773214D01*
X14851786Y-16787500D01*
X14837500Y-16801786D01*
X15151786Y-16973214D02*
X15123214Y-16958929D01*
X15108928Y-16944643D01*
X15094643Y-16916072D01*
X15094643Y-16830357D01*
X15108928Y-16801786D01*
X15123214Y-16787500D01*
X15151786Y-16773214D01*
X15194643Y-16773214D01*
X15223214Y-16787500D01*
X15237500Y-16801786D01*
X15251786Y-16830357D01*
X15251786Y-16916072D01*
X15237500Y-16944643D01*
X15223214Y-16958929D01*
X15194643Y-16973214D01*
X15151786Y-16973214D01*
X15423214Y-16973214D02*
X15394643Y-16958929D01*
X15380357Y-16930357D01*
X15380357Y-16673214D01*
X15651786Y-16958929D02*
X15623214Y-16973214D01*
X15566071Y-16973214D01*
X15537500Y-16958929D01*
X15523214Y-16930357D01*
X15523214Y-16816072D01*
X15537500Y-16787500D01*
X15566071Y-16773214D01*
X15623214Y-16773214D01*
X15651786Y-16787500D01*
X15666071Y-16816072D01*
X15666071Y-16844643D01*
X15523214Y-16873214D01*
X15780357Y-16958929D02*
X15808928Y-16973214D01*
X15866071Y-16973214D01*
X15894643Y-16958929D01*
X15908928Y-16930357D01*
X15908928Y-16916072D01*
X15894643Y-16887500D01*
X15866071Y-16873214D01*
X15823214Y-16873214D01*
X15794643Y-16858929D01*
X15780357Y-16830357D01*
X15780357Y-16816072D01*
X15794643Y-16787500D01*
X15823214Y-16773214D01*
X15866071Y-16773214D01*
X15894643Y-16787500D01*
X16008928Y-17087500D02*
X16023214Y-17073214D01*
X16051786Y-17030357D01*
X16066071Y-17001786D01*
X16080357Y-16958929D01*
X16094643Y-16887500D01*
X16094643Y-16830357D01*
X16080357Y-16758929D01*
X16066071Y-16716071D01*
X16051786Y-16687500D01*
X16023214Y-16644643D01*
X16008928Y-16630357D01*
X9522500Y-17233500D02*
G75*
G03X9522500Y-17233500I-35000J0D01*
G01*
X9866071Y-17069214D02*
X9894643Y-17069214D01*
X9923214Y-17083500D01*
X9937500Y-17097786D01*
X9951786Y-17126357D01*
X9966071Y-17183500D01*
X9966071Y-17254929D01*
X9951786Y-17312072D01*
X9937500Y-17340643D01*
X9923214Y-17354929D01*
X9894643Y-17369214D01*
X9866071Y-17369214D01*
X9837500Y-17354929D01*
X9823214Y-17340643D01*
X9808928Y-17312072D01*
X9794643Y-17254929D01*
X9794643Y-17183500D01*
X9808928Y-17126357D01*
X9823214Y-17097786D01*
X9837500Y-17083500D01*
X9866071Y-17069214D01*
X10094643Y-17340643D02*
X10108928Y-17354929D01*
X10094643Y-17369214D01*
X10080357Y-17354929D01*
X10094643Y-17340643D01*
X10094643Y-17369214D01*
X10208928Y-17069214D02*
X10408928Y-17069214D01*
X10280357Y-17369214D01*
X10580357Y-17069214D02*
X10608928Y-17069214D01*
X10637500Y-17083500D01*
X10651786Y-17097786D01*
X10666071Y-17126357D01*
X10680357Y-17183500D01*
X10680357Y-17254929D01*
X10666071Y-17312072D01*
X10651786Y-17340643D01*
X10637500Y-17354929D01*
X10608928Y-17369214D01*
X10580357Y-17369214D01*
X10551786Y-17354929D01*
X10537500Y-17340643D01*
X10523214Y-17312072D01*
X10508928Y-17254929D01*
X10508928Y-17183500D01*
X10523214Y-17126357D01*
X10537500Y-17097786D01*
X10551786Y-17083500D01*
X10580357Y-17069214D01*
X10808928Y-17369214D02*
X10808928Y-17169214D01*
X10808928Y-17197786D02*
X10823214Y-17183500D01*
X10851786Y-17169214D01*
X10894643Y-17169214D01*
X10923214Y-17183500D01*
X10937500Y-17212072D01*
X10937500Y-17369214D01*
X10937500Y-17212072D02*
X10951786Y-17183500D01*
X10980357Y-17169214D01*
X11023214Y-17169214D01*
X11051786Y-17183500D01*
X11066071Y-17212072D01*
X11066071Y-17369214D01*
X11208928Y-17369214D02*
X11208928Y-17169214D01*
X11208928Y-17197786D02*
X11223214Y-17183500D01*
X11251786Y-17169214D01*
X11294643Y-17169214D01*
X11323214Y-17183500D01*
X11337500Y-17212072D01*
X11337500Y-17369214D01*
X11337500Y-17212072D02*
X11351786Y-17183500D01*
X11380357Y-17169214D01*
X11423214Y-17169214D01*
X11451786Y-17183500D01*
X11466071Y-17212072D01*
X11466071Y-17369214D01*
X12051786Y-17054929D02*
X11794643Y-17440643D01*
X12437500Y-17069214D02*
X12466071Y-17069214D01*
X12494643Y-17083500D01*
X12508928Y-17097786D01*
X12523214Y-17126357D01*
X12537500Y-17183500D01*
X12537500Y-17254929D01*
X12523214Y-17312072D01*
X12508928Y-17340643D01*
X12494643Y-17354929D01*
X12466071Y-17369214D01*
X12437500Y-17369214D01*
X12408928Y-17354929D01*
X12394643Y-17340643D01*
X12380357Y-17312072D01*
X12366071Y-17254929D01*
X12366071Y-17183500D01*
X12380357Y-17126357D01*
X12394643Y-17097786D01*
X12408928Y-17083500D01*
X12437500Y-17069214D01*
X12666071Y-17340643D02*
X12680357Y-17354929D01*
X12666071Y-17369214D01*
X12651786Y-17354929D01*
X12666071Y-17340643D01*
X12666071Y-17369214D01*
X12866071Y-17069214D02*
X12894643Y-17069214D01*
X12923214Y-17083500D01*
X12937500Y-17097786D01*
X12951786Y-17126357D01*
X12966071Y-17183500D01*
X12966071Y-17254929D01*
X12951786Y-17312072D01*
X12937500Y-17340643D01*
X12923214Y-17354929D01*
X12894643Y-17369214D01*
X12866071Y-17369214D01*
X12837500Y-17354929D01*
X12823214Y-17340643D01*
X12808928Y-17312072D01*
X12794643Y-17254929D01*
X12794643Y-17183500D01*
X12808928Y-17126357D01*
X12823214Y-17097786D01*
X12837500Y-17083500D01*
X12866071Y-17069214D01*
X13080357Y-17097786D02*
X13094643Y-17083500D01*
X13123214Y-17069214D01*
X13194643Y-17069214D01*
X13223214Y-17083500D01*
X13237500Y-17097786D01*
X13251786Y-17126357D01*
X13251786Y-17154929D01*
X13237500Y-17197786D01*
X13066071Y-17369214D01*
X13251786Y-17369214D01*
X13423214Y-17197786D02*
X13394643Y-17183500D01*
X13380357Y-17169214D01*
X13366071Y-17140643D01*
X13366071Y-17126357D01*
X13380357Y-17097786D01*
X13394643Y-17083500D01*
X13423214Y-17069214D01*
X13480357Y-17069214D01*
X13508928Y-17083500D01*
X13523214Y-17097786D01*
X13537500Y-17126357D01*
X13537500Y-17140643D01*
X13523214Y-17169214D01*
X13508928Y-17183500D01*
X13480357Y-17197786D01*
X13423214Y-17197786D01*
X13394643Y-17212072D01*
X13380357Y-17226357D01*
X13366071Y-17254929D01*
X13366071Y-17312072D01*
X13380357Y-17340643D01*
X13394643Y-17354929D01*
X13423214Y-17369214D01*
X13480357Y-17369214D01*
X13508928Y-17354929D01*
X13523214Y-17340643D01*
X13537500Y-17312072D01*
X13537500Y-17254929D01*
X13523214Y-17226357D01*
X13508928Y-17212072D01*
X13480357Y-17197786D01*
X13651786Y-17069214D02*
X13651786Y-17126357D01*
X13766071Y-17069214D02*
X13766071Y-17126357D01*
X14208928Y-17483500D02*
X14194643Y-17469214D01*
X14166071Y-17426357D01*
X14151786Y-17397786D01*
X14137500Y-17354929D01*
X14123214Y-17283500D01*
X14123214Y-17226357D01*
X14137500Y-17154929D01*
X14151786Y-17112072D01*
X14166071Y-17083500D01*
X14194643Y-17040643D01*
X14208928Y-17026357D01*
X14308928Y-17097786D02*
X14323214Y-17083500D01*
X14351786Y-17069214D01*
X14423214Y-17069214D01*
X14451786Y-17083500D01*
X14466071Y-17097786D01*
X14480357Y-17126357D01*
X14480357Y-17154929D01*
X14466071Y-17197786D01*
X14294643Y-17369214D01*
X14480357Y-17369214D01*
X14666071Y-17069214D02*
X14694643Y-17069214D01*
X14723214Y-17083500D01*
X14737500Y-17097786D01*
X14751786Y-17126357D01*
X14766071Y-17183500D01*
X14766071Y-17254929D01*
X14751786Y-17312072D01*
X14737500Y-17340643D01*
X14723214Y-17354929D01*
X14694643Y-17369214D01*
X14666071Y-17369214D01*
X14637500Y-17354929D01*
X14623214Y-17340643D01*
X14608928Y-17312072D01*
X14594643Y-17254929D01*
X14594643Y-17183500D01*
X14608928Y-17126357D01*
X14623214Y-17097786D01*
X14637500Y-17083500D01*
X14666071Y-17069214D01*
X15123214Y-17369214D02*
X15123214Y-17069214D01*
X15251786Y-17369214D02*
X15251786Y-17212072D01*
X15237500Y-17183500D01*
X15208928Y-17169214D01*
X15166071Y-17169214D01*
X15137500Y-17183500D01*
X15123214Y-17197786D01*
X15437500Y-17369214D02*
X15408928Y-17354929D01*
X15394643Y-17340643D01*
X15380357Y-17312072D01*
X15380357Y-17226357D01*
X15394643Y-17197786D01*
X15408928Y-17183500D01*
X15437500Y-17169214D01*
X15480357Y-17169214D01*
X15508928Y-17183500D01*
X15523214Y-17197786D01*
X15537500Y-17226357D01*
X15537500Y-17312072D01*
X15523214Y-17340643D01*
X15508928Y-17354929D01*
X15480357Y-17369214D01*
X15437500Y-17369214D01*
X15708928Y-17369214D02*
X15680357Y-17354929D01*
X15666071Y-17326357D01*
X15666071Y-17069214D01*
X15937500Y-17354929D02*
X15908928Y-17369214D01*
X15851786Y-17369214D01*
X15823214Y-17354929D01*
X15808928Y-17326357D01*
X15808928Y-17212072D01*
X15823214Y-17183500D01*
X15851786Y-17169214D01*
X15908928Y-17169214D01*
X15937500Y-17183500D01*
X15951786Y-17212072D01*
X15951786Y-17240643D01*
X15808928Y-17269214D01*
X16066071Y-17354929D02*
X16094643Y-17369214D01*
X16151786Y-17369214D01*
X16180357Y-17354929D01*
X16194643Y-17326357D01*
X16194643Y-17312072D01*
X16180357Y-17283500D01*
X16151786Y-17269214D01*
X16108928Y-17269214D01*
X16080357Y-17254929D01*
X16066071Y-17226357D01*
X16066071Y-17212072D01*
X16080357Y-17183500D01*
X16108928Y-17169214D01*
X16151786Y-17169214D01*
X16180357Y-17183500D01*
X16294643Y-17483500D02*
X16308928Y-17469214D01*
X16337500Y-17426357D01*
X16351786Y-17397786D01*
X16366071Y-17354929D01*
X16380357Y-17283500D01*
X16380357Y-17226357D01*
X16366071Y-17154929D01*
X16351786Y-17112072D01*
X16337500Y-17083500D01*
X16308928Y-17040643D01*
X16294643Y-17026357D01*
X9484400Y-17591400D02*
X9484400Y-17667600D01*
X9446300Y-17629500D02*
X9522500Y-17629500D01*
X9866071Y-17465214D02*
X9894643Y-17465214D01*
X9923214Y-17479500D01*
X9937500Y-17493786D01*
X9951786Y-17522357D01*
X9966071Y-17579500D01*
X9966071Y-17650929D01*
X9951786Y-17708072D01*
X9937500Y-17736643D01*
X9923214Y-17750929D01*
X9894643Y-17765214D01*
X9866071Y-17765214D01*
X9837500Y-17750929D01*
X9823214Y-17736643D01*
X9808928Y-17708072D01*
X9794643Y-17650929D01*
X9794643Y-17579500D01*
X9808928Y-17522357D01*
X9823214Y-17493786D01*
X9837500Y-17479500D01*
X9866071Y-17465214D01*
X10094643Y-17736643D02*
X10108928Y-17750929D01*
X10094643Y-17765214D01*
X10080357Y-17750929D01*
X10094643Y-17736643D01*
X10094643Y-17765214D01*
X10208928Y-17465214D02*
X10408928Y-17465214D01*
X10280357Y-17765214D01*
X10651786Y-17465214D02*
X10594643Y-17465214D01*
X10566071Y-17479500D01*
X10551786Y-17493786D01*
X10523214Y-17536643D01*
X10508928Y-17593786D01*
X10508928Y-17708072D01*
X10523214Y-17736643D01*
X10537500Y-17750929D01*
X10566071Y-17765214D01*
X10623214Y-17765214D01*
X10651786Y-17750929D01*
X10666071Y-17736643D01*
X10680357Y-17708072D01*
X10680357Y-17636643D01*
X10666071Y-17608072D01*
X10651786Y-17593786D01*
X10623214Y-17579500D01*
X10566071Y-17579500D01*
X10537500Y-17593786D01*
X10523214Y-17608072D01*
X10508928Y-17636643D01*
X10808928Y-17765214D02*
X10808928Y-17565214D01*
X10808928Y-17593786D02*
X10823214Y-17579500D01*
X10851786Y-17565214D01*
X10894643Y-17565214D01*
X10923214Y-17579500D01*
X10937500Y-17608072D01*
X10937500Y-17765214D01*
X10937500Y-17608072D02*
X10951786Y-17579500D01*
X10980357Y-17565214D01*
X11023214Y-17565214D01*
X11051786Y-17579500D01*
X11066071Y-17608072D01*
X11066071Y-17765214D01*
X11208928Y-17765214D02*
X11208928Y-17565214D01*
X11208928Y-17593786D02*
X11223214Y-17579500D01*
X11251786Y-17565214D01*
X11294643Y-17565214D01*
X11323214Y-17579500D01*
X11337500Y-17608072D01*
X11337500Y-17765214D01*
X11337500Y-17608072D02*
X11351786Y-17579500D01*
X11380357Y-17565214D01*
X11423214Y-17565214D01*
X11451786Y-17579500D01*
X11466071Y-17608072D01*
X11466071Y-17765214D01*
X12051786Y-17450929D02*
X11794643Y-17836643D01*
X12437500Y-17465214D02*
X12466071Y-17465214D01*
X12494643Y-17479500D01*
X12508928Y-17493786D01*
X12523214Y-17522357D01*
X12537500Y-17579500D01*
X12537500Y-17650929D01*
X12523214Y-17708072D01*
X12508928Y-17736643D01*
X12494643Y-17750929D01*
X12466071Y-17765214D01*
X12437500Y-17765214D01*
X12408928Y-17750929D01*
X12394643Y-17736643D01*
X12380357Y-17708072D01*
X12366071Y-17650929D01*
X12366071Y-17579500D01*
X12380357Y-17522357D01*
X12394643Y-17493786D01*
X12408928Y-17479500D01*
X12437500Y-17465214D01*
X12666071Y-17736643D02*
X12680357Y-17750929D01*
X12666071Y-17765214D01*
X12651786Y-17750929D01*
X12666071Y-17736643D01*
X12666071Y-17765214D01*
X12866071Y-17465214D02*
X12894643Y-17465214D01*
X12923214Y-17479500D01*
X12937500Y-17493786D01*
X12951786Y-17522357D01*
X12966071Y-17579500D01*
X12966071Y-17650929D01*
X12951786Y-17708072D01*
X12937500Y-17736643D01*
X12923214Y-17750929D01*
X12894643Y-17765214D01*
X12866071Y-17765214D01*
X12837500Y-17750929D01*
X12823214Y-17736643D01*
X12808928Y-17708072D01*
X12794643Y-17650929D01*
X12794643Y-17579500D01*
X12808928Y-17522357D01*
X12823214Y-17493786D01*
X12837500Y-17479500D01*
X12866071Y-17465214D01*
X13066071Y-17465214D02*
X13251786Y-17465214D01*
X13151786Y-17579500D01*
X13194643Y-17579500D01*
X13223214Y-17593786D01*
X13237500Y-17608072D01*
X13251786Y-17636643D01*
X13251786Y-17708072D01*
X13237500Y-17736643D01*
X13223214Y-17750929D01*
X13194643Y-17765214D01*
X13108928Y-17765214D01*
X13080357Y-17750929D01*
X13066071Y-17736643D01*
X13437500Y-17465214D02*
X13466071Y-17465214D01*
X13494643Y-17479500D01*
X13508928Y-17493786D01*
X13523214Y-17522357D01*
X13537500Y-17579500D01*
X13537500Y-17650929D01*
X13523214Y-17708072D01*
X13508928Y-17736643D01*
X13494643Y-17750929D01*
X13466071Y-17765214D01*
X13437500Y-17765214D01*
X13408928Y-17750929D01*
X13394643Y-17736643D01*
X13380357Y-17708072D01*
X13366071Y-17650929D01*
X13366071Y-17579500D01*
X13380357Y-17522357D01*
X13394643Y-17493786D01*
X13408928Y-17479500D01*
X13437500Y-17465214D01*
X13651786Y-17465214D02*
X13651786Y-17522357D01*
X13766071Y-17465214D02*
X13766071Y-17522357D01*
X14208928Y-17879500D02*
X14194643Y-17865214D01*
X14166071Y-17822357D01*
X14151786Y-17793786D01*
X14137500Y-17750929D01*
X14123214Y-17679500D01*
X14123214Y-17622357D01*
X14137500Y-17550929D01*
X14151786Y-17508072D01*
X14166071Y-17479500D01*
X14194643Y-17436643D01*
X14208928Y-17422357D01*
X14480357Y-17765214D02*
X14308928Y-17765214D01*
X14394643Y-17765214D02*
X14394643Y-17465214D01*
X14366071Y-17508072D01*
X14337500Y-17536643D01*
X14308928Y-17550929D01*
X14751786Y-17465214D02*
X14608928Y-17465214D01*
X14594643Y-17608072D01*
X14608928Y-17593786D01*
X14637500Y-17579500D01*
X14708928Y-17579500D01*
X14737500Y-17593786D01*
X14751786Y-17608072D01*
X14766071Y-17636643D01*
X14766071Y-17708072D01*
X14751786Y-17736643D01*
X14737500Y-17750929D01*
X14708928Y-17765214D01*
X14637500Y-17765214D01*
X14608928Y-17750929D01*
X14594643Y-17736643D01*
X15123214Y-17765214D02*
X15123214Y-17465214D01*
X15251786Y-17765214D02*
X15251786Y-17608072D01*
X15237500Y-17579500D01*
X15208928Y-17565214D01*
X15166071Y-17565214D01*
X15137500Y-17579500D01*
X15123214Y-17593786D01*
X15437500Y-17765214D02*
X15408928Y-17750929D01*
X15394643Y-17736643D01*
X15380357Y-17708072D01*
X15380357Y-17622357D01*
X15394643Y-17593786D01*
X15408928Y-17579500D01*
X15437500Y-17565214D01*
X15480357Y-17565214D01*
X15508928Y-17579500D01*
X15523214Y-17593786D01*
X15537500Y-17622357D01*
X15537500Y-17708072D01*
X15523214Y-17736643D01*
X15508928Y-17750929D01*
X15480357Y-17765214D01*
X15437500Y-17765214D01*
X15708928Y-17765214D02*
X15680357Y-17750929D01*
X15666071Y-17722357D01*
X15666071Y-17465214D01*
X15937500Y-17750929D02*
X15908928Y-17765214D01*
X15851786Y-17765214D01*
X15823214Y-17750929D01*
X15808928Y-17722357D01*
X15808928Y-17608072D01*
X15823214Y-17579500D01*
X15851786Y-17565214D01*
X15908928Y-17565214D01*
X15937500Y-17579500D01*
X15951786Y-17608072D01*
X15951786Y-17636643D01*
X15808928Y-17665214D01*
X16066071Y-17750929D02*
X16094643Y-17765214D01*
X16151786Y-17765214D01*
X16180357Y-17750929D01*
X16194643Y-17722357D01*
X16194643Y-17708072D01*
X16180357Y-17679500D01*
X16151786Y-17665214D01*
X16108928Y-17665214D01*
X16080357Y-17650929D01*
X16066071Y-17622357D01*
X16066071Y-17608072D01*
X16080357Y-17579500D01*
X16108928Y-17565214D01*
X16151786Y-17565214D01*
X16180357Y-17579500D01*
X16294643Y-17879500D02*
X16308928Y-17865214D01*
X16337500Y-17822357D01*
X16351786Y-17793786D01*
X16366071Y-17750929D01*
X16380357Y-17679500D01*
X16380357Y-17622357D01*
X16366071Y-17550929D01*
X16351786Y-17508072D01*
X16337500Y-17479500D01*
X16308928Y-17436643D01*
X16294643Y-17422357D01*
X9510784Y-18053785D02*
X9510784Y-17997216D01*
X9454215Y-17997216D01*
X9454215Y-18053785D01*
X9510784Y-18053785D01*
X9866071Y-17861214D02*
X9894643Y-17861214D01*
X9923214Y-17875500D01*
X9937500Y-17889786D01*
X9951786Y-17918357D01*
X9966071Y-17975500D01*
X9966071Y-18046929D01*
X9951786Y-18104072D01*
X9937500Y-18132643D01*
X9923214Y-18146929D01*
X9894643Y-18161214D01*
X9866071Y-18161214D01*
X9837500Y-18146929D01*
X9823214Y-18132643D01*
X9808928Y-18104072D01*
X9794643Y-18046929D01*
X9794643Y-17975500D01*
X9808928Y-17918357D01*
X9823214Y-17889786D01*
X9837500Y-17875500D01*
X9866071Y-17861214D01*
X10094643Y-18132643D02*
X10108928Y-18146929D01*
X10094643Y-18161214D01*
X10080357Y-18146929D01*
X10094643Y-18132643D01*
X10094643Y-18161214D01*
X10280357Y-17989786D02*
X10251786Y-17975500D01*
X10237500Y-17961214D01*
X10223214Y-17932643D01*
X10223214Y-17918357D01*
X10237500Y-17889786D01*
X10251786Y-17875500D01*
X10280357Y-17861214D01*
X10337500Y-17861214D01*
X10366071Y-17875500D01*
X10380357Y-17889786D01*
X10394643Y-17918357D01*
X10394643Y-17932643D01*
X10380357Y-17961214D01*
X10366071Y-17975500D01*
X10337500Y-17989786D01*
X10280357Y-17989786D01*
X10251786Y-18004072D01*
X10237500Y-18018357D01*
X10223214Y-18046929D01*
X10223214Y-18104072D01*
X10237500Y-18132643D01*
X10251786Y-18146929D01*
X10280357Y-18161214D01*
X10337500Y-18161214D01*
X10366071Y-18146929D01*
X10380357Y-18132643D01*
X10394643Y-18104072D01*
X10394643Y-18046929D01*
X10380357Y-18018357D01*
X10366071Y-18004072D01*
X10337500Y-17989786D01*
X10580357Y-17861214D02*
X10608928Y-17861214D01*
X10637500Y-17875500D01*
X10651786Y-17889786D01*
X10666071Y-17918357D01*
X10680357Y-17975500D01*
X10680357Y-18046929D01*
X10666071Y-18104072D01*
X10651786Y-18132643D01*
X10637500Y-18146929D01*
X10608928Y-18161214D01*
X10580357Y-18161214D01*
X10551786Y-18146929D01*
X10537500Y-18132643D01*
X10523214Y-18104072D01*
X10508928Y-18046929D01*
X10508928Y-17975500D01*
X10523214Y-17918357D01*
X10537500Y-17889786D01*
X10551786Y-17875500D01*
X10580357Y-17861214D01*
X10808928Y-18161214D02*
X10808928Y-17961214D01*
X10808928Y-17989786D02*
X10823214Y-17975500D01*
X10851786Y-17961214D01*
X10894643Y-17961214D01*
X10923214Y-17975500D01*
X10937500Y-18004072D01*
X10937500Y-18161214D01*
X10937500Y-18004072D02*
X10951786Y-17975500D01*
X10980357Y-17961214D01*
X11023214Y-17961214D01*
X11051786Y-17975500D01*
X11066071Y-18004072D01*
X11066071Y-18161214D01*
X11208928Y-18161214D02*
X11208928Y-17961214D01*
X11208928Y-17989786D02*
X11223214Y-17975500D01*
X11251786Y-17961214D01*
X11294643Y-17961214D01*
X11323214Y-17975500D01*
X11337500Y-18004072D01*
X11337500Y-18161214D01*
X11337500Y-18004072D02*
X11351786Y-17975500D01*
X11380357Y-17961214D01*
X11423214Y-17961214D01*
X11451786Y-17975500D01*
X11466071Y-18004072D01*
X11466071Y-18161214D01*
X12051786Y-17846929D02*
X11794643Y-18232643D01*
X12437500Y-17861214D02*
X12466071Y-17861214D01*
X12494643Y-17875500D01*
X12508928Y-17889786D01*
X12523214Y-17918357D01*
X12537500Y-17975500D01*
X12537500Y-18046929D01*
X12523214Y-18104072D01*
X12508928Y-18132643D01*
X12494643Y-18146929D01*
X12466071Y-18161214D01*
X12437500Y-18161214D01*
X12408928Y-18146929D01*
X12394643Y-18132643D01*
X12380357Y-18104072D01*
X12366071Y-18046929D01*
X12366071Y-17975500D01*
X12380357Y-17918357D01*
X12394643Y-17889786D01*
X12408928Y-17875500D01*
X12437500Y-17861214D01*
X12666071Y-18132643D02*
X12680357Y-18146929D01*
X12666071Y-18161214D01*
X12651786Y-18146929D01*
X12666071Y-18132643D01*
X12666071Y-18161214D01*
X12866071Y-17861214D02*
X12894643Y-17861214D01*
X12923214Y-17875500D01*
X12937500Y-17889786D01*
X12951786Y-17918357D01*
X12966071Y-17975500D01*
X12966071Y-18046929D01*
X12951786Y-18104072D01*
X12937500Y-18132643D01*
X12923214Y-18146929D01*
X12894643Y-18161214D01*
X12866071Y-18161214D01*
X12837500Y-18146929D01*
X12823214Y-18132643D01*
X12808928Y-18104072D01*
X12794643Y-18046929D01*
X12794643Y-17975500D01*
X12808928Y-17918357D01*
X12823214Y-17889786D01*
X12837500Y-17875500D01*
X12866071Y-17861214D01*
X13066071Y-17861214D02*
X13251786Y-17861214D01*
X13151786Y-17975500D01*
X13194643Y-17975500D01*
X13223214Y-17989786D01*
X13237500Y-18004072D01*
X13251786Y-18032643D01*
X13251786Y-18104072D01*
X13237500Y-18132643D01*
X13223214Y-18146929D01*
X13194643Y-18161214D01*
X13108928Y-18161214D01*
X13080357Y-18146929D01*
X13066071Y-18132643D01*
X13537500Y-18161214D02*
X13366071Y-18161214D01*
X13451786Y-18161214D02*
X13451786Y-17861214D01*
X13423214Y-17904072D01*
X13394643Y-17932643D01*
X13366071Y-17946929D01*
X13651786Y-17861214D02*
X13651786Y-17918357D01*
X13766071Y-17861214D02*
X13766071Y-17918357D01*
X14208928Y-18275500D02*
X14194643Y-18261214D01*
X14166071Y-18218357D01*
X14151786Y-18189786D01*
X14137500Y-18146929D01*
X14123214Y-18075500D01*
X14123214Y-18018357D01*
X14137500Y-17946929D01*
X14151786Y-17904072D01*
X14166071Y-17875500D01*
X14194643Y-17832643D01*
X14208928Y-17818357D01*
X14466071Y-17861214D02*
X14323214Y-17861214D01*
X14308928Y-18004072D01*
X14323214Y-17989786D01*
X14351786Y-17975500D01*
X14423214Y-17975500D01*
X14451786Y-17989786D01*
X14466071Y-18004072D01*
X14480357Y-18032643D01*
X14480357Y-18104072D01*
X14466071Y-18132643D01*
X14451786Y-18146929D01*
X14423214Y-18161214D01*
X14351786Y-18161214D01*
X14323214Y-18146929D01*
X14308928Y-18132643D01*
X14737500Y-17961214D02*
X14737500Y-18161214D01*
X14666071Y-17846929D02*
X14594643Y-18061214D01*
X14780357Y-18061214D01*
X15123214Y-18161214D02*
X15123214Y-17861214D01*
X15251786Y-18161214D02*
X15251786Y-18004072D01*
X15237500Y-17975500D01*
X15208928Y-17961214D01*
X15166071Y-17961214D01*
X15137500Y-17975500D01*
X15123214Y-17989786D01*
X15437500Y-18161214D02*
X15408928Y-18146929D01*
X15394643Y-18132643D01*
X15380357Y-18104072D01*
X15380357Y-18018357D01*
X15394643Y-17989786D01*
X15408928Y-17975500D01*
X15437500Y-17961214D01*
X15480357Y-17961214D01*
X15508928Y-17975500D01*
X15523214Y-17989786D01*
X15537500Y-18018357D01*
X15537500Y-18104072D01*
X15523214Y-18132643D01*
X15508928Y-18146929D01*
X15480357Y-18161214D01*
X15437500Y-18161214D01*
X15708928Y-18161214D02*
X15680357Y-18146929D01*
X15666071Y-18118357D01*
X15666071Y-17861214D01*
X15937500Y-18146929D02*
X15908928Y-18161214D01*
X15851786Y-18161214D01*
X15823214Y-18146929D01*
X15808928Y-18118357D01*
X15808928Y-18004072D01*
X15823214Y-17975500D01*
X15851786Y-17961214D01*
X15908928Y-17961214D01*
X15937500Y-17975500D01*
X15951786Y-18004072D01*
X15951786Y-18032643D01*
X15808928Y-18061214D01*
X16066071Y-18146929D02*
X16094643Y-18161214D01*
X16151786Y-18161214D01*
X16180357Y-18146929D01*
X16194643Y-18118357D01*
X16194643Y-18104072D01*
X16180357Y-18075500D01*
X16151786Y-18061214D01*
X16108928Y-18061214D01*
X16080357Y-18046929D01*
X16066071Y-18018357D01*
X16066071Y-18004072D01*
X16080357Y-17975500D01*
X16108928Y-17961214D01*
X16151786Y-17961214D01*
X16180357Y-17975500D01*
X16294643Y-18275500D02*
X16308928Y-18261214D01*
X16337500Y-18218357D01*
X16351786Y-18189786D01*
X16366071Y-18146929D01*
X16380357Y-18075500D01*
X16380357Y-18018357D01*
X16366071Y-17946929D01*
X16351786Y-17904072D01*
X16337500Y-17875500D01*
X16308928Y-17832643D01*
X16294643Y-17818357D01*
X9477500Y-18466500D02*
X9522500Y-18421500D01*
X9477500Y-18376500D01*
X9432500Y-18421500D01*
X9477500Y-18466500D01*
X9866071Y-18257214D02*
X9894643Y-18257214D01*
X9923214Y-18271500D01*
X9937500Y-18285786D01*
X9951786Y-18314357D01*
X9966071Y-18371500D01*
X9966071Y-18442929D01*
X9951786Y-18500072D01*
X9937500Y-18528643D01*
X9923214Y-18542929D01*
X9894643Y-18557214D01*
X9866071Y-18557214D01*
X9837500Y-18542929D01*
X9823214Y-18528643D01*
X9808928Y-18500072D01*
X9794643Y-18442929D01*
X9794643Y-18371500D01*
X9808928Y-18314357D01*
X9823214Y-18285786D01*
X9837500Y-18271500D01*
X9866071Y-18257214D01*
X10094643Y-18528643D02*
X10108928Y-18542929D01*
X10094643Y-18557214D01*
X10080357Y-18542929D01*
X10094643Y-18528643D01*
X10094643Y-18557214D01*
X10251786Y-18557214D02*
X10308928Y-18557214D01*
X10337500Y-18542929D01*
X10351786Y-18528643D01*
X10380357Y-18485786D01*
X10394643Y-18428643D01*
X10394643Y-18314357D01*
X10380357Y-18285786D01*
X10366071Y-18271500D01*
X10337500Y-18257214D01*
X10280357Y-18257214D01*
X10251786Y-18271500D01*
X10237500Y-18285786D01*
X10223214Y-18314357D01*
X10223214Y-18385786D01*
X10237500Y-18414357D01*
X10251786Y-18428643D01*
X10280357Y-18442929D01*
X10337500Y-18442929D01*
X10366071Y-18428643D01*
X10380357Y-18414357D01*
X10394643Y-18385786D01*
X10580357Y-18257214D02*
X10608928Y-18257214D01*
X10637500Y-18271500D01*
X10651786Y-18285786D01*
X10666071Y-18314357D01*
X10680357Y-18371500D01*
X10680357Y-18442929D01*
X10666071Y-18500072D01*
X10651786Y-18528643D01*
X10637500Y-18542929D01*
X10608928Y-18557214D01*
X10580357Y-18557214D01*
X10551786Y-18542929D01*
X10537500Y-18528643D01*
X10523214Y-18500072D01*
X10508928Y-18442929D01*
X10508928Y-18371500D01*
X10523214Y-18314357D01*
X10537500Y-18285786D01*
X10551786Y-18271500D01*
X10580357Y-18257214D01*
X10808928Y-18557214D02*
X10808928Y-18357214D01*
X10808928Y-18385786D02*
X10823214Y-18371500D01*
X10851786Y-18357214D01*
X10894643Y-18357214D01*
X10923214Y-18371500D01*
X10937500Y-18400072D01*
X10937500Y-18557214D01*
X10937500Y-18400072D02*
X10951786Y-18371500D01*
X10980357Y-18357214D01*
X11023214Y-18357214D01*
X11051786Y-18371500D01*
X11066071Y-18400072D01*
X11066071Y-18557214D01*
X11208928Y-18557214D02*
X11208928Y-18357214D01*
X11208928Y-18385786D02*
X11223214Y-18371500D01*
X11251786Y-18357214D01*
X11294643Y-18357214D01*
X11323214Y-18371500D01*
X11337500Y-18400072D01*
X11337500Y-18557214D01*
X11337500Y-18400072D02*
X11351786Y-18371500D01*
X11380357Y-18357214D01*
X11423214Y-18357214D01*
X11451786Y-18371500D01*
X11466071Y-18400072D01*
X11466071Y-18557214D01*
X12051786Y-18242929D02*
X11794643Y-18628643D01*
X12437500Y-18257214D02*
X12466071Y-18257214D01*
X12494643Y-18271500D01*
X12508928Y-18285786D01*
X12523214Y-18314357D01*
X12537500Y-18371500D01*
X12537500Y-18442929D01*
X12523214Y-18500072D01*
X12508928Y-18528643D01*
X12494643Y-18542929D01*
X12466071Y-18557214D01*
X12437500Y-18557214D01*
X12408928Y-18542929D01*
X12394643Y-18528643D01*
X12380357Y-18500072D01*
X12366071Y-18442929D01*
X12366071Y-18371500D01*
X12380357Y-18314357D01*
X12394643Y-18285786D01*
X12408928Y-18271500D01*
X12437500Y-18257214D01*
X12666071Y-18528643D02*
X12680357Y-18542929D01*
X12666071Y-18557214D01*
X12651786Y-18542929D01*
X12666071Y-18528643D01*
X12666071Y-18557214D01*
X12866071Y-18257214D02*
X12894643Y-18257214D01*
X12923214Y-18271500D01*
X12937500Y-18285786D01*
X12951786Y-18314357D01*
X12966071Y-18371500D01*
X12966071Y-18442929D01*
X12951786Y-18500072D01*
X12937500Y-18528643D01*
X12923214Y-18542929D01*
X12894643Y-18557214D01*
X12866071Y-18557214D01*
X12837500Y-18542929D01*
X12823214Y-18528643D01*
X12808928Y-18500072D01*
X12794643Y-18442929D01*
X12794643Y-18371500D01*
X12808928Y-18314357D01*
X12823214Y-18285786D01*
X12837500Y-18271500D01*
X12866071Y-18257214D01*
X13066071Y-18257214D02*
X13251786Y-18257214D01*
X13151786Y-18371500D01*
X13194643Y-18371500D01*
X13223214Y-18385786D01*
X13237500Y-18400072D01*
X13251786Y-18428643D01*
X13251786Y-18500072D01*
X13237500Y-18528643D01*
X13223214Y-18542929D01*
X13194643Y-18557214D01*
X13108928Y-18557214D01*
X13080357Y-18542929D01*
X13066071Y-18528643D01*
X13523214Y-18257214D02*
X13380357Y-18257214D01*
X13366071Y-18400072D01*
X13380357Y-18385786D01*
X13408928Y-18371500D01*
X13480357Y-18371500D01*
X13508928Y-18385786D01*
X13523214Y-18400072D01*
X13537500Y-18428643D01*
X13537500Y-18500072D01*
X13523214Y-18528643D01*
X13508928Y-18542929D01*
X13480357Y-18557214D01*
X13408928Y-18557214D01*
X13380357Y-18542929D01*
X13366071Y-18528643D01*
X13651786Y-18257214D02*
X13651786Y-18314357D01*
X13766071Y-18257214D02*
X13766071Y-18314357D01*
X14208928Y-18671500D02*
X14194643Y-18657214D01*
X14166071Y-18614357D01*
X14151786Y-18585786D01*
X14137500Y-18542929D01*
X14123214Y-18471500D01*
X14123214Y-18414357D01*
X14137500Y-18342929D01*
X14151786Y-18300072D01*
X14166071Y-18271500D01*
X14194643Y-18228643D01*
X14208928Y-18214357D01*
X14480357Y-18557214D02*
X14308928Y-18557214D01*
X14394643Y-18557214D02*
X14394643Y-18257214D01*
X14366071Y-18300072D01*
X14337500Y-18328643D01*
X14308928Y-18342929D01*
X14594643Y-18285786D02*
X14608928Y-18271500D01*
X14637500Y-18257214D01*
X14708928Y-18257214D01*
X14737500Y-18271500D01*
X14751786Y-18285786D01*
X14766071Y-18314357D01*
X14766071Y-18342929D01*
X14751786Y-18385786D01*
X14580357Y-18557214D01*
X14766071Y-18557214D01*
X15123214Y-18557214D02*
X15123214Y-18257214D01*
X15251786Y-18557214D02*
X15251786Y-18400072D01*
X15237500Y-18371500D01*
X15208928Y-18357214D01*
X15166071Y-18357214D01*
X15137500Y-18371500D01*
X15123214Y-18385786D01*
X15437500Y-18557214D02*
X15408928Y-18542929D01*
X15394643Y-18528643D01*
X15380357Y-18500072D01*
X15380357Y-18414357D01*
X15394643Y-18385786D01*
X15408928Y-18371500D01*
X15437500Y-18357214D01*
X15480357Y-18357214D01*
X15508928Y-18371500D01*
X15523214Y-18385786D01*
X15537500Y-18414357D01*
X15537500Y-18500072D01*
X15523214Y-18528643D01*
X15508928Y-18542929D01*
X15480357Y-18557214D01*
X15437500Y-18557214D01*
X15708928Y-18557214D02*
X15680357Y-18542929D01*
X15666071Y-18514357D01*
X15666071Y-18257214D01*
X15937500Y-18542929D02*
X15908928Y-18557214D01*
X15851786Y-18557214D01*
X15823214Y-18542929D01*
X15808928Y-18514357D01*
X15808928Y-18400072D01*
X15823214Y-18371500D01*
X15851786Y-18357214D01*
X15908928Y-18357214D01*
X15937500Y-18371500D01*
X15951786Y-18400072D01*
X15951786Y-18428643D01*
X15808928Y-18457214D01*
X16066071Y-18542929D02*
X16094643Y-18557214D01*
X16151786Y-18557214D01*
X16180357Y-18542929D01*
X16194643Y-18514357D01*
X16194643Y-18500072D01*
X16180357Y-18471500D01*
X16151786Y-18457214D01*
X16108928Y-18457214D01*
X16080357Y-18442929D01*
X16066071Y-18414357D01*
X16066071Y-18400072D01*
X16080357Y-18371500D01*
X16108928Y-18357214D01*
X16151786Y-18357214D01*
X16180357Y-18371500D01*
X16294643Y-18671500D02*
X16308928Y-18657214D01*
X16337500Y-18614357D01*
X16351786Y-18585786D01*
X16366071Y-18542929D01*
X16380357Y-18471500D01*
X16380357Y-18414357D01*
X16366071Y-18342929D01*
X16351786Y-18300072D01*
X16337500Y-18271500D01*
X16308928Y-18228643D01*
X16294643Y-18214357D01*
X9422500Y-18767500D02*
X9522500Y-18867500D01*
X9522500Y-18767500D02*
X9422500Y-18867500D01*
X9522500Y-18817500D02*
G75*
G03X9522500Y-18817500I-50000J0D01*
G01*
X9966071Y-18953214D02*
X9794643Y-18953214D01*
X9880357Y-18953214D02*
X9880357Y-18653214D01*
X9851786Y-18696072D01*
X9823214Y-18724643D01*
X9794643Y-18738929D01*
X10094643Y-18924643D02*
X10108928Y-18938929D01*
X10094643Y-18953214D01*
X10080357Y-18938929D01*
X10094643Y-18924643D01*
X10094643Y-18953214D01*
X10294643Y-18653214D02*
X10323214Y-18653214D01*
X10351786Y-18667500D01*
X10366071Y-18681786D01*
X10380357Y-18710357D01*
X10394643Y-18767500D01*
X10394643Y-18838929D01*
X10380357Y-18896072D01*
X10366071Y-18924643D01*
X10351786Y-18938929D01*
X10323214Y-18953214D01*
X10294643Y-18953214D01*
X10266071Y-18938929D01*
X10251786Y-18924643D01*
X10237500Y-18896072D01*
X10223214Y-18838929D01*
X10223214Y-18767500D01*
X10237500Y-18710357D01*
X10251786Y-18681786D01*
X10266071Y-18667500D01*
X10294643Y-18653214D01*
X10580357Y-18653214D02*
X10608928Y-18653214D01*
X10637500Y-18667500D01*
X10651786Y-18681786D01*
X10666071Y-18710357D01*
X10680357Y-18767500D01*
X10680357Y-18838929D01*
X10666071Y-18896072D01*
X10651786Y-18924643D01*
X10637500Y-18938929D01*
X10608928Y-18953214D01*
X10580357Y-18953214D01*
X10551786Y-18938929D01*
X10537500Y-18924643D01*
X10523214Y-18896072D01*
X10508928Y-18838929D01*
X10508928Y-18767500D01*
X10523214Y-18710357D01*
X10537500Y-18681786D01*
X10551786Y-18667500D01*
X10580357Y-18653214D01*
X10808928Y-18953214D02*
X10808928Y-18753214D01*
X10808928Y-18781786D02*
X10823214Y-18767500D01*
X10851786Y-18753214D01*
X10894643Y-18753214D01*
X10923214Y-18767500D01*
X10937500Y-18796072D01*
X10937500Y-18953214D01*
X10937500Y-18796072D02*
X10951786Y-18767500D01*
X10980357Y-18753214D01*
X11023214Y-18753214D01*
X11051786Y-18767500D01*
X11066071Y-18796072D01*
X11066071Y-18953214D01*
X11208928Y-18953214D02*
X11208928Y-18753214D01*
X11208928Y-18781786D02*
X11223214Y-18767500D01*
X11251786Y-18753214D01*
X11294643Y-18753214D01*
X11323214Y-18767500D01*
X11337500Y-18796072D01*
X11337500Y-18953214D01*
X11337500Y-18796072D02*
X11351786Y-18767500D01*
X11380357Y-18753214D01*
X11423214Y-18753214D01*
X11451786Y-18767500D01*
X11466071Y-18796072D01*
X11466071Y-18953214D01*
X12051786Y-18638929D02*
X11794643Y-19024643D01*
X12437500Y-18653214D02*
X12466071Y-18653214D01*
X12494643Y-18667500D01*
X12508928Y-18681786D01*
X12523214Y-18710357D01*
X12537500Y-18767500D01*
X12537500Y-18838929D01*
X12523214Y-18896072D01*
X12508928Y-18924643D01*
X12494643Y-18938929D01*
X12466071Y-18953214D01*
X12437500Y-18953214D01*
X12408928Y-18938929D01*
X12394643Y-18924643D01*
X12380357Y-18896072D01*
X12366071Y-18838929D01*
X12366071Y-18767500D01*
X12380357Y-18710357D01*
X12394643Y-18681786D01*
X12408928Y-18667500D01*
X12437500Y-18653214D01*
X12666071Y-18924643D02*
X12680357Y-18938929D01*
X12666071Y-18953214D01*
X12651786Y-18938929D01*
X12666071Y-18924643D01*
X12666071Y-18953214D01*
X12866071Y-18653214D02*
X12894643Y-18653214D01*
X12923214Y-18667500D01*
X12937500Y-18681786D01*
X12951786Y-18710357D01*
X12966071Y-18767500D01*
X12966071Y-18838929D01*
X12951786Y-18896072D01*
X12937500Y-18924643D01*
X12923214Y-18938929D01*
X12894643Y-18953214D01*
X12866071Y-18953214D01*
X12837500Y-18938929D01*
X12823214Y-18924643D01*
X12808928Y-18896072D01*
X12794643Y-18838929D01*
X12794643Y-18767500D01*
X12808928Y-18710357D01*
X12823214Y-18681786D01*
X12837500Y-18667500D01*
X12866071Y-18653214D01*
X13066071Y-18653214D02*
X13251786Y-18653214D01*
X13151786Y-18767500D01*
X13194643Y-18767500D01*
X13223214Y-18781786D01*
X13237500Y-18796072D01*
X13251786Y-18824643D01*
X13251786Y-18896072D01*
X13237500Y-18924643D01*
X13223214Y-18938929D01*
X13194643Y-18953214D01*
X13108928Y-18953214D01*
X13080357Y-18938929D01*
X13066071Y-18924643D01*
X13394643Y-18953214D02*
X13451786Y-18953214D01*
X13480357Y-18938929D01*
X13494643Y-18924643D01*
X13523214Y-18881786D01*
X13537500Y-18824643D01*
X13537500Y-18710357D01*
X13523214Y-18681786D01*
X13508928Y-18667500D01*
X13480357Y-18653214D01*
X13423214Y-18653214D01*
X13394643Y-18667500D01*
X13380357Y-18681786D01*
X13366071Y-18710357D01*
X13366071Y-18781786D01*
X13380357Y-18810357D01*
X13394643Y-18824643D01*
X13423214Y-18838929D01*
X13480357Y-18838929D01*
X13508928Y-18824643D01*
X13523214Y-18810357D01*
X13537500Y-18781786D01*
X13651786Y-18653214D02*
X13651786Y-18710357D01*
X13766071Y-18653214D02*
X13766071Y-18710357D01*
X14208928Y-19067500D02*
X14194643Y-19053214D01*
X14166071Y-19010357D01*
X14151786Y-18981786D01*
X14137500Y-18938929D01*
X14123214Y-18867500D01*
X14123214Y-18810357D01*
X14137500Y-18738929D01*
X14151786Y-18696072D01*
X14166071Y-18667500D01*
X14194643Y-18624643D01*
X14208928Y-18610357D01*
X14337500Y-18953214D02*
X14394643Y-18953214D01*
X14423214Y-18938929D01*
X14437500Y-18924643D01*
X14466071Y-18881786D01*
X14480357Y-18824643D01*
X14480357Y-18710357D01*
X14466071Y-18681786D01*
X14451786Y-18667500D01*
X14423214Y-18653214D01*
X14366071Y-18653214D01*
X14337500Y-18667500D01*
X14323214Y-18681786D01*
X14308928Y-18710357D01*
X14308928Y-18781786D01*
X14323214Y-18810357D01*
X14337500Y-18824643D01*
X14366071Y-18838929D01*
X14423214Y-18838929D01*
X14451786Y-18824643D01*
X14466071Y-18810357D01*
X14480357Y-18781786D01*
X14837500Y-18953214D02*
X14837500Y-18653214D01*
X14966071Y-18953214D02*
X14966071Y-18796072D01*
X14951786Y-18767500D01*
X14923214Y-18753214D01*
X14880357Y-18753214D01*
X14851786Y-18767500D01*
X14837500Y-18781786D01*
X15151786Y-18953214D02*
X15123214Y-18938929D01*
X15108928Y-18924643D01*
X15094643Y-18896072D01*
X15094643Y-18810357D01*
X15108928Y-18781786D01*
X15123214Y-18767500D01*
X15151786Y-18753214D01*
X15194643Y-18753214D01*
X15223214Y-18767500D01*
X15237500Y-18781786D01*
X15251786Y-18810357D01*
X15251786Y-18896072D01*
X15237500Y-18924643D01*
X15223214Y-18938929D01*
X15194643Y-18953214D01*
X15151786Y-18953214D01*
X15423214Y-18953214D02*
X15394643Y-18938929D01*
X15380357Y-18910357D01*
X15380357Y-18653214D01*
X15651786Y-18938929D02*
X15623214Y-18953214D01*
X15566071Y-18953214D01*
X15537500Y-18938929D01*
X15523214Y-18910357D01*
X15523214Y-18796072D01*
X15537500Y-18767500D01*
X15566071Y-18753214D01*
X15623214Y-18753214D01*
X15651786Y-18767500D01*
X15666071Y-18796072D01*
X15666071Y-18824643D01*
X15523214Y-18853214D01*
X15780357Y-18938929D02*
X15808928Y-18953214D01*
X15866071Y-18953214D01*
X15894643Y-18938929D01*
X15908928Y-18910357D01*
X15908928Y-18896072D01*
X15894643Y-18867500D01*
X15866071Y-18853214D01*
X15823214Y-18853214D01*
X15794643Y-18838929D01*
X15780357Y-18810357D01*
X15780357Y-18796072D01*
X15794643Y-18767500D01*
X15823214Y-18753214D01*
X15866071Y-18753214D01*
X15894643Y-18767500D01*
X16008928Y-19067500D02*
X16023214Y-19053214D01*
X16051786Y-19010357D01*
X16066071Y-18981786D01*
X16080357Y-18938929D01*
X16094643Y-18867500D01*
X16094643Y-18810357D01*
X16080357Y-18738929D01*
X16066071Y-18696072D01*
X16051786Y-18667500D01*
X16023214Y-18624643D01*
X16008928Y-18610357D01*
X9408200Y-19156350D02*
X9522500Y-19270650D01*
X9522500Y-19156350D02*
X9408200Y-19270650D01*
X9465350Y-19156350D02*
X9465350Y-19270650D01*
X9408200Y-19213500D02*
X9522500Y-19213500D01*
X9966071Y-19349214D02*
X9794643Y-19349214D01*
X9880357Y-19349214D02*
X9880357Y-19049214D01*
X9851786Y-19092072D01*
X9823214Y-19120643D01*
X9794643Y-19134929D01*
X10094643Y-19320643D02*
X10108928Y-19334929D01*
X10094643Y-19349214D01*
X10080357Y-19334929D01*
X10094643Y-19320643D01*
X10094643Y-19349214D01*
X10394643Y-19349214D02*
X10223214Y-19349214D01*
X10308928Y-19349214D02*
X10308928Y-19049214D01*
X10280357Y-19092072D01*
X10251786Y-19120643D01*
X10223214Y-19134929D01*
X10651786Y-19149214D02*
X10651786Y-19349214D01*
X10580357Y-19034929D02*
X10508928Y-19249214D01*
X10694643Y-19249214D01*
X10808928Y-19349214D02*
X10808928Y-19149214D01*
X10808928Y-19177786D02*
X10823214Y-19163500D01*
X10851786Y-19149214D01*
X10894643Y-19149214D01*
X10923214Y-19163500D01*
X10937500Y-19192072D01*
X10937500Y-19349214D01*
X10937500Y-19192072D02*
X10951786Y-19163500D01*
X10980357Y-19149214D01*
X11023214Y-19149214D01*
X11051786Y-19163500D01*
X11066071Y-19192072D01*
X11066071Y-19349214D01*
X11208928Y-19349214D02*
X11208928Y-19149214D01*
X11208928Y-19177786D02*
X11223214Y-19163500D01*
X11251786Y-19149214D01*
X11294643Y-19149214D01*
X11323214Y-19163500D01*
X11337500Y-19192072D01*
X11337500Y-19349214D01*
X11337500Y-19192072D02*
X11351786Y-19163500D01*
X11380357Y-19149214D01*
X11423214Y-19149214D01*
X11451786Y-19163500D01*
X11466071Y-19192072D01*
X11466071Y-19349214D01*
X12051786Y-19034929D02*
X11794643Y-19420643D01*
X12437500Y-19049214D02*
X12466071Y-19049214D01*
X12494643Y-19063500D01*
X12508928Y-19077786D01*
X12523214Y-19106357D01*
X12537500Y-19163500D01*
X12537500Y-19234929D01*
X12523214Y-19292072D01*
X12508928Y-19320643D01*
X12494643Y-19334929D01*
X12466071Y-19349214D01*
X12437500Y-19349214D01*
X12408928Y-19334929D01*
X12394643Y-19320643D01*
X12380357Y-19292072D01*
X12366071Y-19234929D01*
X12366071Y-19163500D01*
X12380357Y-19106357D01*
X12394643Y-19077786D01*
X12408928Y-19063500D01*
X12437500Y-19049214D01*
X12666071Y-19320643D02*
X12680357Y-19334929D01*
X12666071Y-19349214D01*
X12651786Y-19334929D01*
X12666071Y-19320643D01*
X12666071Y-19349214D01*
X12866071Y-19049214D02*
X12894643Y-19049214D01*
X12923214Y-19063500D01*
X12937500Y-19077786D01*
X12951786Y-19106357D01*
X12966071Y-19163500D01*
X12966071Y-19234929D01*
X12951786Y-19292072D01*
X12937500Y-19320643D01*
X12923214Y-19334929D01*
X12894643Y-19349214D01*
X12866071Y-19349214D01*
X12837500Y-19334929D01*
X12823214Y-19320643D01*
X12808928Y-19292072D01*
X12794643Y-19234929D01*
X12794643Y-19163500D01*
X12808928Y-19106357D01*
X12823214Y-19077786D01*
X12837500Y-19063500D01*
X12866071Y-19049214D01*
X13223214Y-19149214D02*
X13223214Y-19349214D01*
X13151786Y-19034929D02*
X13080357Y-19249214D01*
X13266071Y-19249214D01*
X13523214Y-19049214D02*
X13380357Y-19049214D01*
X13366071Y-19192072D01*
X13380357Y-19177786D01*
X13408928Y-19163500D01*
X13480357Y-19163500D01*
X13508928Y-19177786D01*
X13523214Y-19192072D01*
X13537500Y-19220643D01*
X13537500Y-19292072D01*
X13523214Y-19320643D01*
X13508928Y-19334929D01*
X13480357Y-19349214D01*
X13408928Y-19349214D01*
X13380357Y-19334929D01*
X13366071Y-19320643D01*
X13651786Y-19049214D02*
X13651786Y-19106357D01*
X13766071Y-19049214D02*
X13766071Y-19106357D01*
X14208928Y-19463500D02*
X14194643Y-19449214D01*
X14166071Y-19406357D01*
X14151786Y-19377786D01*
X14137500Y-19334929D01*
X14123214Y-19263500D01*
X14123214Y-19206357D01*
X14137500Y-19134929D01*
X14151786Y-19092072D01*
X14166071Y-19063500D01*
X14194643Y-19020643D01*
X14208928Y-19006357D01*
X14466071Y-19049214D02*
X14323214Y-19049214D01*
X14308928Y-19192072D01*
X14323214Y-19177786D01*
X14351786Y-19163500D01*
X14423214Y-19163500D01*
X14451786Y-19177786D01*
X14466071Y-19192072D01*
X14480357Y-19220643D01*
X14480357Y-19292072D01*
X14466071Y-19320643D01*
X14451786Y-19334929D01*
X14423214Y-19349214D01*
X14351786Y-19349214D01*
X14323214Y-19334929D01*
X14308928Y-19320643D01*
X14837500Y-19349214D02*
X14837500Y-19049214D01*
X14966071Y-19349214D02*
X14966071Y-19192072D01*
X14951786Y-19163500D01*
X14923214Y-19149214D01*
X14880357Y-19149214D01*
X14851786Y-19163500D01*
X14837500Y-19177786D01*
X15151786Y-19349214D02*
X15123214Y-19334929D01*
X15108928Y-19320643D01*
X15094643Y-19292072D01*
X15094643Y-19206357D01*
X15108928Y-19177786D01*
X15123214Y-19163500D01*
X15151786Y-19149214D01*
X15194643Y-19149214D01*
X15223214Y-19163500D01*
X15237500Y-19177786D01*
X15251786Y-19206357D01*
X15251786Y-19292072D01*
X15237500Y-19320643D01*
X15223214Y-19334929D01*
X15194643Y-19349214D01*
X15151786Y-19349214D01*
X15423214Y-19349214D02*
X15394643Y-19334929D01*
X15380357Y-19306357D01*
X15380357Y-19049214D01*
X15651786Y-19334929D02*
X15623214Y-19349214D01*
X15566071Y-19349214D01*
X15537500Y-19334929D01*
X15523214Y-19306357D01*
X15523214Y-19192072D01*
X15537500Y-19163500D01*
X15566071Y-19149214D01*
X15623214Y-19149214D01*
X15651786Y-19163500D01*
X15666071Y-19192072D01*
X15666071Y-19220643D01*
X15523214Y-19249214D01*
X15780357Y-19334929D02*
X15808928Y-19349214D01*
X15866071Y-19349214D01*
X15894643Y-19334929D01*
X15908928Y-19306357D01*
X15908928Y-19292072D01*
X15894643Y-19263500D01*
X15866071Y-19249214D01*
X15823214Y-19249214D01*
X15794643Y-19234929D01*
X15780357Y-19206357D01*
X15780357Y-19192072D01*
X15794643Y-19163500D01*
X15823214Y-19149214D01*
X15866071Y-19149214D01*
X15894643Y-19163500D01*
X16008928Y-19463500D02*
X16023214Y-19449214D01*
X16051786Y-19406357D01*
X16066071Y-19377786D01*
X16080357Y-19334929D01*
X16094643Y-19263500D01*
X16094643Y-19206357D01*
X16080357Y-19134929D01*
X16066071Y-19092072D01*
X16051786Y-19063500D01*
X16023214Y-19020643D01*
X16008928Y-19006357D01*
X9402500Y-19549500D02*
X9522500Y-19669500D01*
X9522500Y-19549500D02*
X9402500Y-19669500D01*
X9504927Y-19651927D02*
X9504927Y-19567073D01*
X9420073Y-19567073D01*
X9420073Y-19651927D01*
X9504927Y-19651927D01*
X9966071Y-19745214D02*
X9794643Y-19745214D01*
X9880357Y-19745214D02*
X9880357Y-19445214D01*
X9851786Y-19488072D01*
X9823214Y-19516643D01*
X9794643Y-19530929D01*
X10094643Y-19716643D02*
X10108928Y-19730929D01*
X10094643Y-19745214D01*
X10080357Y-19730929D01*
X10094643Y-19716643D01*
X10094643Y-19745214D01*
X10223214Y-19473786D02*
X10237500Y-19459500D01*
X10266071Y-19445214D01*
X10337500Y-19445214D01*
X10366071Y-19459500D01*
X10380357Y-19473786D01*
X10394643Y-19502357D01*
X10394643Y-19530929D01*
X10380357Y-19573786D01*
X10208928Y-19745214D01*
X10394643Y-19745214D01*
X10580357Y-19445214D02*
X10608928Y-19445214D01*
X10637500Y-19459500D01*
X10651786Y-19473786D01*
X10666071Y-19502357D01*
X10680357Y-19559500D01*
X10680357Y-19630929D01*
X10666071Y-19688072D01*
X10651786Y-19716643D01*
X10637500Y-19730929D01*
X10608928Y-19745214D01*
X10580357Y-19745214D01*
X10551786Y-19730929D01*
X10537500Y-19716643D01*
X10523214Y-19688072D01*
X10508928Y-19630929D01*
X10508928Y-19559500D01*
X10523214Y-19502357D01*
X10537500Y-19473786D01*
X10551786Y-19459500D01*
X10580357Y-19445214D01*
X10808928Y-19745214D02*
X10808928Y-19545214D01*
X10808928Y-19573786D02*
X10823214Y-19559500D01*
X10851786Y-19545214D01*
X10894643Y-19545214D01*
X10923214Y-19559500D01*
X10937500Y-19588072D01*
X10937500Y-19745214D01*
X10937500Y-19588072D02*
X10951786Y-19559500D01*
X10980357Y-19545214D01*
X11023214Y-19545214D01*
X11051786Y-19559500D01*
X11066071Y-19588072D01*
X11066071Y-19745214D01*
X11208928Y-19745214D02*
X11208928Y-19545214D01*
X11208928Y-19573786D02*
X11223214Y-19559500D01*
X11251786Y-19545214D01*
X11294643Y-19545214D01*
X11323214Y-19559500D01*
X11337500Y-19588072D01*
X11337500Y-19745214D01*
X11337500Y-19588072D02*
X11351786Y-19559500D01*
X11380357Y-19545214D01*
X11423214Y-19545214D01*
X11451786Y-19559500D01*
X11466071Y-19588072D01*
X11466071Y-19745214D01*
X12051786Y-19430929D02*
X11794643Y-19816643D01*
X12437500Y-19445214D02*
X12466071Y-19445214D01*
X12494643Y-19459500D01*
X12508928Y-19473786D01*
X12523214Y-19502357D01*
X12537500Y-19559500D01*
X12537500Y-19630929D01*
X12523214Y-19688072D01*
X12508928Y-19716643D01*
X12494643Y-19730929D01*
X12466071Y-19745214D01*
X12437500Y-19745214D01*
X12408928Y-19730929D01*
X12394643Y-19716643D01*
X12380357Y-19688072D01*
X12366071Y-19630929D01*
X12366071Y-19559500D01*
X12380357Y-19502357D01*
X12394643Y-19473786D01*
X12408928Y-19459500D01*
X12437500Y-19445214D01*
X12666071Y-19716643D02*
X12680357Y-19730929D01*
X12666071Y-19745214D01*
X12651786Y-19730929D01*
X12666071Y-19716643D01*
X12666071Y-19745214D01*
X12866071Y-19445214D02*
X12894643Y-19445214D01*
X12923214Y-19459500D01*
X12937500Y-19473786D01*
X12951786Y-19502357D01*
X12966071Y-19559500D01*
X12966071Y-19630929D01*
X12951786Y-19688072D01*
X12937500Y-19716643D01*
X12923214Y-19730929D01*
X12894643Y-19745214D01*
X12866071Y-19745214D01*
X12837500Y-19730929D01*
X12823214Y-19716643D01*
X12808928Y-19688072D01*
X12794643Y-19630929D01*
X12794643Y-19559500D01*
X12808928Y-19502357D01*
X12823214Y-19473786D01*
X12837500Y-19459500D01*
X12866071Y-19445214D01*
X13223214Y-19545214D02*
X13223214Y-19745214D01*
X13151786Y-19430929D02*
X13080357Y-19645214D01*
X13266071Y-19645214D01*
X13351786Y-19445214D02*
X13551786Y-19445214D01*
X13423214Y-19745214D01*
X13651786Y-19445214D02*
X13651786Y-19502357D01*
X13766071Y-19445214D02*
X13766071Y-19502357D01*
X14208928Y-19859500D02*
X14194643Y-19845214D01*
X14166071Y-19802357D01*
X14151786Y-19773786D01*
X14137500Y-19730929D01*
X14123214Y-19659500D01*
X14123214Y-19602357D01*
X14137500Y-19530929D01*
X14151786Y-19488072D01*
X14166071Y-19459500D01*
X14194643Y-19416643D01*
X14208928Y-19402357D01*
X14308928Y-19473786D02*
X14323214Y-19459500D01*
X14351786Y-19445214D01*
X14423214Y-19445214D01*
X14451786Y-19459500D01*
X14466071Y-19473786D01*
X14480357Y-19502357D01*
X14480357Y-19530929D01*
X14466071Y-19573786D01*
X14294643Y-19745214D01*
X14480357Y-19745214D01*
X14837500Y-19745214D02*
X14837500Y-19445214D01*
X14966071Y-19745214D02*
X14966071Y-19588072D01*
X14951786Y-19559500D01*
X14923214Y-19545214D01*
X14880357Y-19545214D01*
X14851786Y-19559500D01*
X14837500Y-19573786D01*
X15151786Y-19745214D02*
X15123214Y-19730929D01*
X15108928Y-19716643D01*
X15094643Y-19688072D01*
X15094643Y-19602357D01*
X15108928Y-19573786D01*
X15123214Y-19559500D01*
X15151786Y-19545214D01*
X15194643Y-19545214D01*
X15223214Y-19559500D01*
X15237500Y-19573786D01*
X15251786Y-19602357D01*
X15251786Y-19688072D01*
X15237500Y-19716643D01*
X15223214Y-19730929D01*
X15194643Y-19745214D01*
X15151786Y-19745214D01*
X15423214Y-19745214D02*
X15394643Y-19730929D01*
X15380357Y-19702357D01*
X15380357Y-19445214D01*
X15651786Y-19730929D02*
X15623214Y-19745214D01*
X15566071Y-19745214D01*
X15537500Y-19730929D01*
X15523214Y-19702357D01*
X15523214Y-19588072D01*
X15537500Y-19559500D01*
X15566071Y-19545214D01*
X15623214Y-19545214D01*
X15651786Y-19559500D01*
X15666071Y-19588072D01*
X15666071Y-19616643D01*
X15523214Y-19645214D01*
X15780357Y-19730929D02*
X15808928Y-19745214D01*
X15866071Y-19745214D01*
X15894643Y-19730929D01*
X15908928Y-19702357D01*
X15908928Y-19688072D01*
X15894643Y-19659500D01*
X15866071Y-19645214D01*
X15823214Y-19645214D01*
X15794643Y-19630929D01*
X15780357Y-19602357D01*
X15780357Y-19588072D01*
X15794643Y-19559500D01*
X15823214Y-19545214D01*
X15866071Y-19545214D01*
X15894643Y-19559500D01*
X16008928Y-19859500D02*
X16023214Y-19845214D01*
X16051786Y-19802357D01*
X16066071Y-19773786D01*
X16080357Y-19730929D01*
X16094643Y-19659500D01*
X16094643Y-19602357D01*
X16080357Y-19530929D01*
X16066071Y-19488072D01*
X16051786Y-19459500D01*
X16023214Y-19416643D01*
X16008928Y-19402357D01*
X9370100Y-19929300D02*
X9522500Y-20081700D01*
X9522500Y-19929300D02*
X9370100Y-20081700D01*
X9446300Y-20081700D02*
X9522500Y-20005500D01*
X9446300Y-19929300D01*
X9370100Y-20005500D01*
X9446300Y-20081700D01*
X9966071Y-20141214D02*
X9794643Y-20141214D01*
X9880357Y-20141214D02*
X9880357Y-19841214D01*
X9851786Y-19884072D01*
X9823214Y-19912643D01*
X9794643Y-19926929D01*
X10094643Y-20112643D02*
X10108928Y-20126929D01*
X10094643Y-20141214D01*
X10080357Y-20126929D01*
X10094643Y-20112643D01*
X10094643Y-20141214D01*
X10380357Y-19841214D02*
X10237500Y-19841214D01*
X10223214Y-19984072D01*
X10237500Y-19969786D01*
X10266071Y-19955500D01*
X10337500Y-19955500D01*
X10366071Y-19969786D01*
X10380357Y-19984072D01*
X10394643Y-20012643D01*
X10394643Y-20084072D01*
X10380357Y-20112643D01*
X10366071Y-20126929D01*
X10337500Y-20141214D01*
X10266071Y-20141214D01*
X10237500Y-20126929D01*
X10223214Y-20112643D01*
X10508928Y-19869786D02*
X10523214Y-19855500D01*
X10551786Y-19841214D01*
X10623214Y-19841214D01*
X10651786Y-19855500D01*
X10666071Y-19869786D01*
X10680357Y-19898357D01*
X10680357Y-19926929D01*
X10666071Y-19969786D01*
X10494643Y-20141214D01*
X10680357Y-20141214D01*
X10808928Y-20141214D02*
X10808928Y-19941214D01*
X10808928Y-19969786D02*
X10823214Y-19955500D01*
X10851786Y-19941214D01*
X10894643Y-19941214D01*
X10923214Y-19955500D01*
X10937500Y-19984072D01*
X10937500Y-20141214D01*
X10937500Y-19984072D02*
X10951786Y-19955500D01*
X10980357Y-19941214D01*
X11023214Y-19941214D01*
X11051786Y-19955500D01*
X11066071Y-19984072D01*
X11066071Y-20141214D01*
X11208928Y-20141214D02*
X11208928Y-19941214D01*
X11208928Y-19969786D02*
X11223214Y-19955500D01*
X11251786Y-19941214D01*
X11294643Y-19941214D01*
X11323214Y-19955500D01*
X11337500Y-19984072D01*
X11337500Y-20141214D01*
X11337500Y-19984072D02*
X11351786Y-19955500D01*
X11380357Y-19941214D01*
X11423214Y-19941214D01*
X11451786Y-19955500D01*
X11466071Y-19984072D01*
X11466071Y-20141214D01*
X12051786Y-19826929D02*
X11794643Y-20212643D01*
X12437500Y-19841214D02*
X12466071Y-19841214D01*
X12494643Y-19855500D01*
X12508928Y-19869786D01*
X12523214Y-19898357D01*
X12537500Y-19955500D01*
X12537500Y-20026929D01*
X12523214Y-20084072D01*
X12508928Y-20112643D01*
X12494643Y-20126929D01*
X12466071Y-20141214D01*
X12437500Y-20141214D01*
X12408928Y-20126929D01*
X12394643Y-20112643D01*
X12380357Y-20084072D01*
X12366071Y-20026929D01*
X12366071Y-19955500D01*
X12380357Y-19898357D01*
X12394643Y-19869786D01*
X12408928Y-19855500D01*
X12437500Y-19841214D01*
X12666071Y-20112643D02*
X12680357Y-20126929D01*
X12666071Y-20141214D01*
X12651786Y-20126929D01*
X12666071Y-20112643D01*
X12666071Y-20141214D01*
X12866071Y-19841214D02*
X12894643Y-19841214D01*
X12923214Y-19855500D01*
X12937500Y-19869786D01*
X12951786Y-19898357D01*
X12966071Y-19955500D01*
X12966071Y-20026929D01*
X12951786Y-20084072D01*
X12937500Y-20112643D01*
X12923214Y-20126929D01*
X12894643Y-20141214D01*
X12866071Y-20141214D01*
X12837500Y-20126929D01*
X12823214Y-20112643D01*
X12808928Y-20084072D01*
X12794643Y-20026929D01*
X12794643Y-19955500D01*
X12808928Y-19898357D01*
X12823214Y-19869786D01*
X12837500Y-19855500D01*
X12866071Y-19841214D01*
X13223214Y-19841214D02*
X13166071Y-19841214D01*
X13137500Y-19855500D01*
X13123214Y-19869786D01*
X13094643Y-19912643D01*
X13080357Y-19969786D01*
X13080357Y-20084072D01*
X13094643Y-20112643D01*
X13108928Y-20126929D01*
X13137500Y-20141214D01*
X13194643Y-20141214D01*
X13223214Y-20126929D01*
X13237500Y-20112643D01*
X13251786Y-20084072D01*
X13251786Y-20012643D01*
X13237500Y-19984072D01*
X13223214Y-19969786D01*
X13194643Y-19955500D01*
X13137500Y-19955500D01*
X13108928Y-19969786D01*
X13094643Y-19984072D01*
X13080357Y-20012643D01*
X13437500Y-19841214D02*
X13466071Y-19841214D01*
X13494643Y-19855500D01*
X13508928Y-19869786D01*
X13523214Y-19898357D01*
X13537500Y-19955500D01*
X13537500Y-20026929D01*
X13523214Y-20084072D01*
X13508928Y-20112643D01*
X13494643Y-20126929D01*
X13466071Y-20141214D01*
X13437500Y-20141214D01*
X13408928Y-20126929D01*
X13394643Y-20112643D01*
X13380357Y-20084072D01*
X13366071Y-20026929D01*
X13366071Y-19955500D01*
X13380357Y-19898357D01*
X13394643Y-19869786D01*
X13408928Y-19855500D01*
X13437500Y-19841214D01*
X13651786Y-19841214D02*
X13651786Y-19898357D01*
X13766071Y-19841214D02*
X13766071Y-19898357D01*
X14208928Y-20255500D02*
X14194643Y-20241214D01*
X14166071Y-20198357D01*
X14151786Y-20169786D01*
X14137500Y-20126929D01*
X14123214Y-20055500D01*
X14123214Y-19998357D01*
X14137500Y-19926929D01*
X14151786Y-19884072D01*
X14166071Y-19855500D01*
X14194643Y-19812643D01*
X14208928Y-19798357D01*
X14451786Y-19841214D02*
X14394643Y-19841214D01*
X14366071Y-19855500D01*
X14351786Y-19869786D01*
X14323214Y-19912643D01*
X14308928Y-19969786D01*
X14308928Y-20084072D01*
X14323214Y-20112643D01*
X14337500Y-20126929D01*
X14366071Y-20141214D01*
X14423214Y-20141214D01*
X14451786Y-20126929D01*
X14466071Y-20112643D01*
X14480357Y-20084072D01*
X14480357Y-20012643D01*
X14466071Y-19984072D01*
X14451786Y-19969786D01*
X14423214Y-19955500D01*
X14366071Y-19955500D01*
X14337500Y-19969786D01*
X14323214Y-19984072D01*
X14308928Y-20012643D01*
X14837500Y-20141214D02*
X14837500Y-19841214D01*
X14966071Y-20141214D02*
X14966071Y-19984072D01*
X14951786Y-19955500D01*
X14923214Y-19941214D01*
X14880357Y-19941214D01*
X14851786Y-19955500D01*
X14837500Y-19969786D01*
X15151786Y-20141214D02*
X15123214Y-20126929D01*
X15108928Y-20112643D01*
X15094643Y-20084072D01*
X15094643Y-19998357D01*
X15108928Y-19969786D01*
X15123214Y-19955500D01*
X15151786Y-19941214D01*
X15194643Y-19941214D01*
X15223214Y-19955500D01*
X15237500Y-19969786D01*
X15251786Y-19998357D01*
X15251786Y-20084072D01*
X15237500Y-20112643D01*
X15223214Y-20126929D01*
X15194643Y-20141214D01*
X15151786Y-20141214D01*
X15423214Y-20141214D02*
X15394643Y-20126929D01*
X15380357Y-20098357D01*
X15380357Y-19841214D01*
X15651786Y-20126929D02*
X15623214Y-20141214D01*
X15566071Y-20141214D01*
X15537500Y-20126929D01*
X15523214Y-20098357D01*
X15523214Y-19984072D01*
X15537500Y-19955500D01*
X15566071Y-19941214D01*
X15623214Y-19941214D01*
X15651786Y-19955500D01*
X15666071Y-19984072D01*
X15666071Y-20012643D01*
X15523214Y-20041214D01*
X15780357Y-20126929D02*
X15808928Y-20141214D01*
X15866071Y-20141214D01*
X15894643Y-20126929D01*
X15908928Y-20098357D01*
X15908928Y-20084072D01*
X15894643Y-20055500D01*
X15866071Y-20041214D01*
X15823214Y-20041214D01*
X15794643Y-20026929D01*
X15780357Y-19998357D01*
X15780357Y-19984072D01*
X15794643Y-19955500D01*
X15823214Y-19941214D01*
X15866071Y-19941214D01*
X15894643Y-19955500D01*
X16008928Y-20255500D02*
X16023214Y-20241214D01*
X16051786Y-20198357D01*
X16066071Y-20169786D01*
X16080357Y-20126929D01*
X16094643Y-20055500D01*
X16094643Y-19998357D01*
X16080357Y-19926929D01*
X16066071Y-19884072D01*
X16051786Y-19855500D01*
X16023214Y-19812643D01*
X16008928Y-19798357D01*
X9362500Y-20241500D02*
X9362500Y-20561500D01*
X9202500Y-20401500D02*
X9522500Y-20401500D01*
X9522500Y-20401500D02*
G75*
G03X9522500Y-20401500I-160000J0D01*
G01*
X9780357Y-20237214D02*
X9966071Y-20237214D01*
X9866071Y-20351500D01*
X9908928Y-20351500D01*
X9937500Y-20365786D01*
X9951786Y-20380072D01*
X9966071Y-20408643D01*
X9966071Y-20480072D01*
X9951786Y-20508643D01*
X9937500Y-20522929D01*
X9908928Y-20537214D01*
X9823214Y-20537214D01*
X9794643Y-20522929D01*
X9780357Y-20508643D01*
X10094643Y-20508643D02*
X10108928Y-20522929D01*
X10094643Y-20537214D01*
X10080357Y-20522929D01*
X10094643Y-20508643D01*
X10094643Y-20537214D01*
X10223214Y-20265786D02*
X10237500Y-20251500D01*
X10266071Y-20237214D01*
X10337500Y-20237214D01*
X10366071Y-20251500D01*
X10380357Y-20265786D01*
X10394643Y-20294357D01*
X10394643Y-20322929D01*
X10380357Y-20365786D01*
X10208928Y-20537214D01*
X10394643Y-20537214D01*
X10580357Y-20237214D02*
X10608928Y-20237214D01*
X10637500Y-20251500D01*
X10651786Y-20265786D01*
X10666071Y-20294357D01*
X10680357Y-20351500D01*
X10680357Y-20422929D01*
X10666071Y-20480072D01*
X10651786Y-20508643D01*
X10637500Y-20522929D01*
X10608928Y-20537214D01*
X10580357Y-20537214D01*
X10551786Y-20522929D01*
X10537500Y-20508643D01*
X10523214Y-20480072D01*
X10508928Y-20422929D01*
X10508928Y-20351500D01*
X10523214Y-20294357D01*
X10537500Y-20265786D01*
X10551786Y-20251500D01*
X10580357Y-20237214D01*
X10808928Y-20537214D02*
X10808928Y-20337214D01*
X10808928Y-20365786D02*
X10823214Y-20351500D01*
X10851786Y-20337214D01*
X10894643Y-20337214D01*
X10923214Y-20351500D01*
X10937500Y-20380072D01*
X10937500Y-20537214D01*
X10937500Y-20380072D02*
X10951786Y-20351500D01*
X10980357Y-20337214D01*
X11023214Y-20337214D01*
X11051786Y-20351500D01*
X11066071Y-20380072D01*
X11066071Y-20537214D01*
X11208928Y-20537214D02*
X11208928Y-20337214D01*
X11208928Y-20365786D02*
X11223214Y-20351500D01*
X11251786Y-20337214D01*
X11294643Y-20337214D01*
X11323214Y-20351500D01*
X11337500Y-20380072D01*
X11337500Y-20537214D01*
X11337500Y-20380072D02*
X11351786Y-20351500D01*
X11380357Y-20337214D01*
X11423214Y-20337214D01*
X11451786Y-20351500D01*
X11466071Y-20380072D01*
X11466071Y-20537214D01*
X12051786Y-20222929D02*
X11794643Y-20608643D01*
X12437500Y-20237214D02*
X12466071Y-20237214D01*
X12494643Y-20251500D01*
X12508928Y-20265786D01*
X12523214Y-20294357D01*
X12537500Y-20351500D01*
X12537500Y-20422929D01*
X12523214Y-20480072D01*
X12508928Y-20508643D01*
X12494643Y-20522929D01*
X12466071Y-20537214D01*
X12437500Y-20537214D01*
X12408928Y-20522929D01*
X12394643Y-20508643D01*
X12380357Y-20480072D01*
X12366071Y-20422929D01*
X12366071Y-20351500D01*
X12380357Y-20294357D01*
X12394643Y-20265786D01*
X12408928Y-20251500D01*
X12437500Y-20237214D01*
X12666071Y-20508643D02*
X12680357Y-20522929D01*
X12666071Y-20537214D01*
X12651786Y-20522929D01*
X12666071Y-20508643D01*
X12666071Y-20537214D01*
X12966071Y-20537214D02*
X12794643Y-20537214D01*
X12880357Y-20537214D02*
X12880357Y-20237214D01*
X12851786Y-20280072D01*
X12823214Y-20308643D01*
X12794643Y-20322929D01*
X13080357Y-20265786D02*
X13094643Y-20251500D01*
X13123214Y-20237214D01*
X13194643Y-20237214D01*
X13223214Y-20251500D01*
X13237500Y-20265786D01*
X13251786Y-20294357D01*
X13251786Y-20322929D01*
X13237500Y-20365786D01*
X13066071Y-20537214D01*
X13251786Y-20537214D01*
X13508928Y-20237214D02*
X13451786Y-20237214D01*
X13423214Y-20251500D01*
X13408928Y-20265786D01*
X13380357Y-20308643D01*
X13366071Y-20365786D01*
X13366071Y-20480072D01*
X13380357Y-20508643D01*
X13394643Y-20522929D01*
X13423214Y-20537214D01*
X13480357Y-20537214D01*
X13508928Y-20522929D01*
X13523214Y-20508643D01*
X13537500Y-20480072D01*
X13537500Y-20408643D01*
X13523214Y-20380072D01*
X13508928Y-20365786D01*
X13480357Y-20351500D01*
X13423214Y-20351500D01*
X13394643Y-20365786D01*
X13380357Y-20380072D01*
X13366071Y-20408643D01*
X13651786Y-20237214D02*
X13651786Y-20294357D01*
X13766071Y-20237214D02*
X13766071Y-20294357D01*
X14208928Y-20651500D02*
X14194643Y-20637214D01*
X14166071Y-20594357D01*
X14151786Y-20565786D01*
X14137500Y-20522929D01*
X14123214Y-20451500D01*
X14123214Y-20394357D01*
X14137500Y-20322929D01*
X14151786Y-20280072D01*
X14166071Y-20251500D01*
X14194643Y-20208643D01*
X14208928Y-20194357D01*
X14308928Y-20265786D02*
X14323214Y-20251500D01*
X14351786Y-20237214D01*
X14423214Y-20237214D01*
X14451786Y-20251500D01*
X14466071Y-20265786D01*
X14480357Y-20294357D01*
X14480357Y-20322929D01*
X14466071Y-20365786D01*
X14294643Y-20537214D01*
X14480357Y-20537214D01*
X14837500Y-20537214D02*
X14837500Y-20237214D01*
X14966071Y-20537214D02*
X14966071Y-20380072D01*
X14951786Y-20351500D01*
X14923214Y-20337214D01*
X14880357Y-20337214D01*
X14851786Y-20351500D01*
X14837500Y-20365786D01*
X15151786Y-20537214D02*
X15123214Y-20522929D01*
X15108928Y-20508643D01*
X15094643Y-20480072D01*
X15094643Y-20394357D01*
X15108928Y-20365786D01*
X15123214Y-20351500D01*
X15151786Y-20337214D01*
X15194643Y-20337214D01*
X15223214Y-20351500D01*
X15237500Y-20365786D01*
X15251786Y-20394357D01*
X15251786Y-20480072D01*
X15237500Y-20508643D01*
X15223214Y-20522929D01*
X15194643Y-20537214D01*
X15151786Y-20537214D01*
X15423214Y-20537214D02*
X15394643Y-20522929D01*
X15380357Y-20494357D01*
X15380357Y-20237214D01*
X15651786Y-20522929D02*
X15623214Y-20537214D01*
X15566071Y-20537214D01*
X15537500Y-20522929D01*
X15523214Y-20494357D01*
X15523214Y-20380072D01*
X15537500Y-20351500D01*
X15566071Y-20337214D01*
X15623214Y-20337214D01*
X15651786Y-20351500D01*
X15666071Y-20380072D01*
X15666071Y-20408643D01*
X15523214Y-20437214D01*
X15780357Y-20522929D02*
X15808928Y-20537214D01*
X15866071Y-20537214D01*
X15894643Y-20522929D01*
X15908928Y-20494357D01*
X15908928Y-20480072D01*
X15894643Y-20451500D01*
X15866071Y-20437214D01*
X15823214Y-20437214D01*
X15794643Y-20422929D01*
X15780357Y-20394357D01*
X15780357Y-20380072D01*
X15794643Y-20351500D01*
X15823214Y-20337214D01*
X15866071Y-20337214D01*
X15894643Y-20351500D01*
X16008928Y-20651500D02*
X16023214Y-20637214D01*
X16051786Y-20594357D01*
X16066071Y-20565786D01*
X16080357Y-20522929D01*
X16094643Y-20451500D01*
X16094643Y-20394357D01*
X16080357Y-20322929D01*
X16066071Y-20280072D01*
X16051786Y-20251500D01*
X16023214Y-20208643D01*
X16008928Y-20194357D01*
X9462458Y-20996458D02*
X9462458Y-20706542D01*
X9172542Y-20706542D01*
X9172542Y-20996458D01*
X9462458Y-20996458D01*
X9522500Y-20851500D02*
G75*
G03X9522500Y-20851500I-205000J0D01*
G01*
X9937500Y-20787214D02*
X9937500Y-20987214D01*
X9866071Y-20672929D02*
X9794643Y-20887214D01*
X9980357Y-20887214D01*
X10094643Y-20958643D02*
X10108928Y-20972929D01*
X10094643Y-20987214D01*
X10080357Y-20972929D01*
X10094643Y-20958643D01*
X10094643Y-20987214D01*
X10394643Y-20987214D02*
X10223214Y-20987214D01*
X10308928Y-20987214D02*
X10308928Y-20687214D01*
X10280357Y-20730072D01*
X10251786Y-20758643D01*
X10223214Y-20772929D01*
X10580357Y-20687214D02*
X10608928Y-20687214D01*
X10637500Y-20701500D01*
X10651786Y-20715786D01*
X10666071Y-20744357D01*
X10680357Y-20801500D01*
X10680357Y-20872929D01*
X10666071Y-20930072D01*
X10651786Y-20958643D01*
X10637500Y-20972929D01*
X10608928Y-20987214D01*
X10580357Y-20987214D01*
X10551786Y-20972929D01*
X10537500Y-20958643D01*
X10523214Y-20930072D01*
X10508928Y-20872929D01*
X10508928Y-20801500D01*
X10523214Y-20744357D01*
X10537500Y-20715786D01*
X10551786Y-20701500D01*
X10580357Y-20687214D01*
X10808928Y-20987214D02*
X10808928Y-20787214D01*
X10808928Y-20815786D02*
X10823214Y-20801500D01*
X10851786Y-20787214D01*
X10894643Y-20787214D01*
X10923214Y-20801500D01*
X10937500Y-20830072D01*
X10937500Y-20987214D01*
X10937500Y-20830072D02*
X10951786Y-20801500D01*
X10980357Y-20787214D01*
X11023214Y-20787214D01*
X11051786Y-20801500D01*
X11066071Y-20830072D01*
X11066071Y-20987214D01*
X11208928Y-20987214D02*
X11208928Y-20787214D01*
X11208928Y-20815786D02*
X11223214Y-20801500D01*
X11251786Y-20787214D01*
X11294643Y-20787214D01*
X11323214Y-20801500D01*
X11337500Y-20830072D01*
X11337500Y-20987214D01*
X11337500Y-20830072D02*
X11351786Y-20801500D01*
X11380357Y-20787214D01*
X11423214Y-20787214D01*
X11451786Y-20801500D01*
X11466071Y-20830072D01*
X11466071Y-20987214D01*
X12051786Y-20672929D02*
X11794643Y-21058643D01*
X12437500Y-20687214D02*
X12466071Y-20687214D01*
X12494643Y-20701500D01*
X12508928Y-20715786D01*
X12523214Y-20744357D01*
X12537500Y-20801500D01*
X12537500Y-20872929D01*
X12523214Y-20930072D01*
X12508928Y-20958643D01*
X12494643Y-20972929D01*
X12466071Y-20987214D01*
X12437500Y-20987214D01*
X12408928Y-20972929D01*
X12394643Y-20958643D01*
X12380357Y-20930072D01*
X12366071Y-20872929D01*
X12366071Y-20801500D01*
X12380357Y-20744357D01*
X12394643Y-20715786D01*
X12408928Y-20701500D01*
X12437500Y-20687214D01*
X12666071Y-20958643D02*
X12680357Y-20972929D01*
X12666071Y-20987214D01*
X12651786Y-20972929D01*
X12666071Y-20958643D01*
X12666071Y-20987214D01*
X12966071Y-20987214D02*
X12794643Y-20987214D01*
X12880357Y-20987214D02*
X12880357Y-20687214D01*
X12851786Y-20730072D01*
X12823214Y-20758643D01*
X12794643Y-20772929D01*
X13223214Y-20687214D02*
X13166071Y-20687214D01*
X13137500Y-20701500D01*
X13123214Y-20715786D01*
X13094643Y-20758643D01*
X13080357Y-20815786D01*
X13080357Y-20930072D01*
X13094643Y-20958643D01*
X13108928Y-20972929D01*
X13137500Y-20987214D01*
X13194643Y-20987214D01*
X13223214Y-20972929D01*
X13237500Y-20958643D01*
X13251786Y-20930072D01*
X13251786Y-20858643D01*
X13237500Y-20830072D01*
X13223214Y-20815786D01*
X13194643Y-20801500D01*
X13137500Y-20801500D01*
X13108928Y-20815786D01*
X13094643Y-20830072D01*
X13080357Y-20858643D01*
X13537500Y-20987214D02*
X13366071Y-20987214D01*
X13451786Y-20987214D02*
X13451786Y-20687214D01*
X13423214Y-20730072D01*
X13394643Y-20758643D01*
X13366071Y-20772929D01*
X13651786Y-20687214D02*
X13651786Y-20744357D01*
X13766071Y-20687214D02*
X13766071Y-20744357D01*
X14208928Y-21101500D02*
X14194643Y-21087214D01*
X14166071Y-21044357D01*
X14151786Y-21015786D01*
X14137500Y-20972929D01*
X14123214Y-20901500D01*
X14123214Y-20844357D01*
X14137500Y-20772929D01*
X14151786Y-20730072D01*
X14166071Y-20701500D01*
X14194643Y-20658643D01*
X14208928Y-20644357D01*
X14308928Y-20715786D02*
X14323214Y-20701500D01*
X14351786Y-20687214D01*
X14423214Y-20687214D01*
X14451786Y-20701500D01*
X14466071Y-20715786D01*
X14480357Y-20744357D01*
X14480357Y-20772929D01*
X14466071Y-20815786D01*
X14294643Y-20987214D01*
X14480357Y-20987214D01*
X14837500Y-20987214D02*
X14837500Y-20687214D01*
X14966071Y-20987214D02*
X14966071Y-20830072D01*
X14951786Y-20801500D01*
X14923214Y-20787214D01*
X14880357Y-20787214D01*
X14851786Y-20801500D01*
X14837500Y-20815786D01*
X15151786Y-20987214D02*
X15123214Y-20972929D01*
X15108928Y-20958643D01*
X15094643Y-20930072D01*
X15094643Y-20844357D01*
X15108928Y-20815786D01*
X15123214Y-20801500D01*
X15151786Y-20787214D01*
X15194643Y-20787214D01*
X15223214Y-20801500D01*
X15237500Y-20815786D01*
X15251786Y-20844357D01*
X15251786Y-20930072D01*
X15237500Y-20958643D01*
X15223214Y-20972929D01*
X15194643Y-20987214D01*
X15151786Y-20987214D01*
X15423214Y-20987214D02*
X15394643Y-20972929D01*
X15380357Y-20944357D01*
X15380357Y-20687214D01*
X15651786Y-20972929D02*
X15623214Y-20987214D01*
X15566071Y-20987214D01*
X15537500Y-20972929D01*
X15523214Y-20944357D01*
X15523214Y-20830072D01*
X15537500Y-20801500D01*
X15566071Y-20787214D01*
X15623214Y-20787214D01*
X15651786Y-20801500D01*
X15666071Y-20830072D01*
X15666071Y-20858643D01*
X15523214Y-20887214D01*
X15780357Y-20972929D02*
X15808928Y-20987214D01*
X15866071Y-20987214D01*
X15894643Y-20972929D01*
X15908928Y-20944357D01*
X15908928Y-20930072D01*
X15894643Y-20901500D01*
X15866071Y-20887214D01*
X15823214Y-20887214D01*
X15794643Y-20872929D01*
X15780357Y-20844357D01*
X15780357Y-20830072D01*
X15794643Y-20801500D01*
X15823214Y-20787214D01*
X15866071Y-20787214D01*
X15894643Y-20801500D01*
X16008928Y-21101500D02*
X16023214Y-21087214D01*
X16051786Y-21044357D01*
X16066071Y-21015786D01*
X16080357Y-20972929D01*
X16094643Y-20901500D01*
X16094643Y-20844357D01*
X16080357Y-20772929D01*
X16066071Y-20730072D01*
X16051786Y-20701500D01*
X16023214Y-20658643D01*
X16008928Y-20644357D01*
M02*
