%FSLAX45Y45*%
G04 Gerber Fmt 4.5, Leading zero omitted, Abs format (unit mm)*
G04 Created by KiCad (PCBNEW (5.1.0)-1) date 2019-08-13 11:23:55*
%MOMM*%
%LPD*%
G04 APERTURE LIST*
%ADD10C,0.050000*%
%ADD11C,0.200000*%
%ADD12C,0.300000*%
G04 APERTURE END LIST*
D10*
X9525000Y-5969000D02*
X19458000Y-5969000D01*
X9525000Y-15875000D02*
X9525000Y-5969000D01*
X19458000Y-15875000D02*
X19458000Y-5969000D01*
X9525000Y-15875000D02*
X19458000Y-15875000D01*
D11*
X18075910Y-12995910D02*
X18246090Y-13166090D01*
X18246090Y-12995910D02*
X18075910Y-13166090D01*
X19091910Y-12995910D02*
X19262090Y-13166090D01*
X19262090Y-12995910D02*
X19091910Y-13166090D01*
X14011910Y-12995910D02*
X14182090Y-13166090D01*
X14182090Y-12995910D02*
X14011910Y-13166090D01*
X15027910Y-12995910D02*
X15198090Y-13166090D01*
X15198090Y-12995910D02*
X15027910Y-13166090D01*
X16043910Y-12995910D02*
X16214090Y-13166090D01*
X16214090Y-12995910D02*
X16043910Y-13166090D01*
X17059910Y-12995910D02*
X17230090Y-13166090D01*
X17230090Y-12995910D02*
X17059910Y-13166090D01*
X18868390Y-13081000D02*
G75*
G03X18868390Y-13081000I-199390J0D01*
G01*
X14804390Y-13081000D02*
G75*
G03X14804390Y-13081000I-199390J0D01*
G01*
X16836390Y-13081000D02*
G75*
G03X16836390Y-13081000I-199390J0D01*
G01*
X15440400Y-8817000D02*
X15440400Y-9217000D01*
X15240400Y-9017000D02*
X15640400Y-9017000D01*
X18440400Y-8817000D02*
X18440400Y-9217000D01*
X18240400Y-9017000D02*
X18640400Y-9017000D01*
D12*
X9808928Y-16343214D02*
X9808928Y-16043214D01*
X9880357Y-16043214D01*
X9923214Y-16057500D01*
X9951786Y-16086071D01*
X9966071Y-16114643D01*
X9980357Y-16171786D01*
X9980357Y-16214643D01*
X9966071Y-16271786D01*
X9951786Y-16300357D01*
X9923214Y-16328929D01*
X9880357Y-16343214D01*
X9808928Y-16343214D01*
X10108928Y-16343214D02*
X10108928Y-16143214D01*
X10108928Y-16200357D02*
X10123214Y-16171786D01*
X10137500Y-16157500D01*
X10166071Y-16143214D01*
X10194643Y-16143214D01*
X10294643Y-16343214D02*
X10294643Y-16143214D01*
X10294643Y-16043214D02*
X10280357Y-16057500D01*
X10294643Y-16071786D01*
X10308928Y-16057500D01*
X10294643Y-16043214D01*
X10294643Y-16071786D01*
X10480357Y-16343214D02*
X10451786Y-16328929D01*
X10437500Y-16300357D01*
X10437500Y-16043214D01*
X10637500Y-16343214D02*
X10608928Y-16328929D01*
X10594643Y-16300357D01*
X10594643Y-16043214D01*
X10980357Y-16343214D02*
X10980357Y-16043214D01*
X11080357Y-16257500D01*
X11180357Y-16043214D01*
X11180357Y-16343214D01*
X11451786Y-16343214D02*
X11451786Y-16186071D01*
X11437500Y-16157500D01*
X11408928Y-16143214D01*
X11351786Y-16143214D01*
X11323214Y-16157500D01*
X11451786Y-16328929D02*
X11423214Y-16343214D01*
X11351786Y-16343214D01*
X11323214Y-16328929D01*
X11308928Y-16300357D01*
X11308928Y-16271786D01*
X11323214Y-16243214D01*
X11351786Y-16228929D01*
X11423214Y-16228929D01*
X11451786Y-16214643D01*
X11594643Y-16143214D02*
X11594643Y-16443214D01*
X11594643Y-16157500D02*
X11623214Y-16143214D01*
X11680357Y-16143214D01*
X11708928Y-16157500D01*
X11723214Y-16171786D01*
X11737500Y-16200357D01*
X11737500Y-16286071D01*
X11723214Y-16314643D01*
X11708928Y-16328929D01*
X11680357Y-16343214D01*
X11623214Y-16343214D01*
X11594643Y-16328929D01*
X11866071Y-16314643D02*
X11880357Y-16328929D01*
X11866071Y-16343214D01*
X11851786Y-16328929D01*
X11866071Y-16314643D01*
X11866071Y-16343214D01*
X11866071Y-16157500D02*
X11880357Y-16171786D01*
X11866071Y-16186071D01*
X11851786Y-16171786D01*
X11866071Y-16157500D01*
X11866071Y-16186071D01*
X9352320Y-16752410D02*
X9522500Y-16922590D01*
X9522500Y-16752410D02*
X9352320Y-16922590D01*
X9966071Y-16973214D02*
X9794643Y-16973214D01*
X9880357Y-16973214D02*
X9880357Y-16673214D01*
X9851786Y-16716071D01*
X9823214Y-16744643D01*
X9794643Y-16758929D01*
X10094643Y-16944643D02*
X10108928Y-16958929D01*
X10094643Y-16973214D01*
X10080357Y-16958929D01*
X10094643Y-16944643D01*
X10094643Y-16973214D01*
X10208928Y-16673214D02*
X10408928Y-16673214D01*
X10280357Y-16973214D01*
X10580357Y-16673214D02*
X10608928Y-16673214D01*
X10637500Y-16687500D01*
X10651786Y-16701786D01*
X10666071Y-16730357D01*
X10680357Y-16787500D01*
X10680357Y-16858929D01*
X10666071Y-16916072D01*
X10651786Y-16944643D01*
X10637500Y-16958929D01*
X10608928Y-16973214D01*
X10580357Y-16973214D01*
X10551786Y-16958929D01*
X10537500Y-16944643D01*
X10523214Y-16916072D01*
X10508928Y-16858929D01*
X10508928Y-16787500D01*
X10523214Y-16730357D01*
X10537500Y-16701786D01*
X10551786Y-16687500D01*
X10580357Y-16673214D01*
X10808928Y-16973214D02*
X10808928Y-16773214D01*
X10808928Y-16801786D02*
X10823214Y-16787500D01*
X10851786Y-16773214D01*
X10894643Y-16773214D01*
X10923214Y-16787500D01*
X10937500Y-16816072D01*
X10937500Y-16973214D01*
X10937500Y-16816072D02*
X10951786Y-16787500D01*
X10980357Y-16773214D01*
X11023214Y-16773214D01*
X11051786Y-16787500D01*
X11066071Y-16816072D01*
X11066071Y-16973214D01*
X11208928Y-16973214D02*
X11208928Y-16773214D01*
X11208928Y-16801786D02*
X11223214Y-16787500D01*
X11251786Y-16773214D01*
X11294643Y-16773214D01*
X11323214Y-16787500D01*
X11337500Y-16816072D01*
X11337500Y-16973214D01*
X11337500Y-16816072D02*
X11351786Y-16787500D01*
X11380357Y-16773214D01*
X11423214Y-16773214D01*
X11451786Y-16787500D01*
X11466071Y-16816072D01*
X11466071Y-16973214D01*
X12051786Y-16658929D02*
X11794643Y-17044643D01*
X12437500Y-16673214D02*
X12466071Y-16673214D01*
X12494643Y-16687500D01*
X12508928Y-16701786D01*
X12523214Y-16730357D01*
X12537500Y-16787500D01*
X12537500Y-16858929D01*
X12523214Y-16916072D01*
X12508928Y-16944643D01*
X12494643Y-16958929D01*
X12466071Y-16973214D01*
X12437500Y-16973214D01*
X12408928Y-16958929D01*
X12394643Y-16944643D01*
X12380357Y-16916072D01*
X12366071Y-16858929D01*
X12366071Y-16787500D01*
X12380357Y-16730357D01*
X12394643Y-16701786D01*
X12408928Y-16687500D01*
X12437500Y-16673214D01*
X12666071Y-16944643D02*
X12680357Y-16958929D01*
X12666071Y-16973214D01*
X12651786Y-16958929D01*
X12666071Y-16944643D01*
X12666071Y-16973214D01*
X12866071Y-16673214D02*
X12894643Y-16673214D01*
X12923214Y-16687500D01*
X12937500Y-16701786D01*
X12951786Y-16730357D01*
X12966071Y-16787500D01*
X12966071Y-16858929D01*
X12951786Y-16916072D01*
X12937500Y-16944643D01*
X12923214Y-16958929D01*
X12894643Y-16973214D01*
X12866071Y-16973214D01*
X12837500Y-16958929D01*
X12823214Y-16944643D01*
X12808928Y-16916072D01*
X12794643Y-16858929D01*
X12794643Y-16787500D01*
X12808928Y-16730357D01*
X12823214Y-16701786D01*
X12837500Y-16687500D01*
X12866071Y-16673214D01*
X13223214Y-16673214D02*
X13166071Y-16673214D01*
X13137500Y-16687500D01*
X13123214Y-16701786D01*
X13094643Y-16744643D01*
X13080357Y-16801786D01*
X13080357Y-16916072D01*
X13094643Y-16944643D01*
X13108928Y-16958929D01*
X13137500Y-16973214D01*
X13194643Y-16973214D01*
X13223214Y-16958929D01*
X13237500Y-16944643D01*
X13251786Y-16916072D01*
X13251786Y-16844643D01*
X13237500Y-16816072D01*
X13223214Y-16801786D01*
X13194643Y-16787500D01*
X13137500Y-16787500D01*
X13108928Y-16801786D01*
X13094643Y-16816072D01*
X13080357Y-16844643D01*
X13351786Y-16673214D02*
X13551786Y-16673214D01*
X13423214Y-16973214D01*
X13651786Y-16673214D02*
X13651786Y-16730357D01*
X13766071Y-16673214D02*
X13766071Y-16730357D01*
X14208928Y-17087500D02*
X14194643Y-17073214D01*
X14166071Y-17030357D01*
X14151786Y-17001786D01*
X14137500Y-16958929D01*
X14123214Y-16887500D01*
X14123214Y-16830357D01*
X14137500Y-16758929D01*
X14151786Y-16716071D01*
X14166071Y-16687500D01*
X14194643Y-16644643D01*
X14208928Y-16630357D01*
X14451786Y-16673214D02*
X14394643Y-16673214D01*
X14366071Y-16687500D01*
X14351786Y-16701786D01*
X14323214Y-16744643D01*
X14308928Y-16801786D01*
X14308928Y-16916072D01*
X14323214Y-16944643D01*
X14337500Y-16958929D01*
X14366071Y-16973214D01*
X14423214Y-16973214D01*
X14451786Y-16958929D01*
X14466071Y-16944643D01*
X14480357Y-16916072D01*
X14480357Y-16844643D01*
X14466071Y-16816072D01*
X14451786Y-16801786D01*
X14423214Y-16787500D01*
X14366071Y-16787500D01*
X14337500Y-16801786D01*
X14323214Y-16816072D01*
X14308928Y-16844643D01*
X14837500Y-16973214D02*
X14837500Y-16673214D01*
X14966071Y-16973214D02*
X14966071Y-16816072D01*
X14951786Y-16787500D01*
X14923214Y-16773214D01*
X14880357Y-16773214D01*
X14851786Y-16787500D01*
X14837500Y-16801786D01*
X15151786Y-16973214D02*
X15123214Y-16958929D01*
X15108928Y-16944643D01*
X15094643Y-16916072D01*
X15094643Y-16830357D01*
X15108928Y-16801786D01*
X15123214Y-16787500D01*
X15151786Y-16773214D01*
X15194643Y-16773214D01*
X15223214Y-16787500D01*
X15237500Y-16801786D01*
X15251786Y-16830357D01*
X15251786Y-16916072D01*
X15237500Y-16944643D01*
X15223214Y-16958929D01*
X15194643Y-16973214D01*
X15151786Y-16973214D01*
X15423214Y-16973214D02*
X15394643Y-16958929D01*
X15380357Y-16930357D01*
X15380357Y-16673214D01*
X15651786Y-16958929D02*
X15623214Y-16973214D01*
X15566071Y-16973214D01*
X15537500Y-16958929D01*
X15523214Y-16930357D01*
X15523214Y-16816072D01*
X15537500Y-16787500D01*
X15566071Y-16773214D01*
X15623214Y-16773214D01*
X15651786Y-16787500D01*
X15666071Y-16816072D01*
X15666071Y-16844643D01*
X15523214Y-16873214D01*
X15780357Y-16958929D02*
X15808928Y-16973214D01*
X15866071Y-16973214D01*
X15894643Y-16958929D01*
X15908928Y-16930357D01*
X15908928Y-16916072D01*
X15894643Y-16887500D01*
X15866071Y-16873214D01*
X15823214Y-16873214D01*
X15794643Y-16858929D01*
X15780357Y-16830357D01*
X15780357Y-16816072D01*
X15794643Y-16787500D01*
X15823214Y-16773214D01*
X15866071Y-16773214D01*
X15894643Y-16787500D01*
X16008928Y-17087500D02*
X16023214Y-17073214D01*
X16051786Y-17030357D01*
X16066071Y-17001786D01*
X16080357Y-16958929D01*
X16094643Y-16887500D01*
X16094643Y-16830357D01*
X16080357Y-16758929D01*
X16066071Y-16716071D01*
X16051786Y-16687500D01*
X16023214Y-16644643D01*
X16008928Y-16630357D01*
X16551786Y-17087500D02*
X16537500Y-17073214D01*
X16508928Y-17030357D01*
X16494643Y-17001786D01*
X16480357Y-16958929D01*
X16466071Y-16887500D01*
X16466071Y-16830357D01*
X16480357Y-16758929D01*
X16494643Y-16716071D01*
X16508928Y-16687500D01*
X16537500Y-16644643D01*
X16551786Y-16630357D01*
X16666071Y-16773214D02*
X16666071Y-16973214D01*
X16666071Y-16801786D02*
X16680357Y-16787500D01*
X16708928Y-16773214D01*
X16751786Y-16773214D01*
X16780357Y-16787500D01*
X16794643Y-16816072D01*
X16794643Y-16973214D01*
X16980357Y-16973214D02*
X16951786Y-16958929D01*
X16937500Y-16944643D01*
X16923214Y-16916072D01*
X16923214Y-16830357D01*
X16937500Y-16801786D01*
X16951786Y-16787500D01*
X16980357Y-16773214D01*
X17023214Y-16773214D01*
X17051786Y-16787500D01*
X17066071Y-16801786D01*
X17080357Y-16830357D01*
X17080357Y-16916072D01*
X17066071Y-16944643D01*
X17051786Y-16958929D01*
X17023214Y-16973214D01*
X16980357Y-16973214D01*
X17166071Y-16773214D02*
X17280357Y-16773214D01*
X17208928Y-16673214D02*
X17208928Y-16930357D01*
X17223214Y-16958929D01*
X17251786Y-16973214D01*
X17280357Y-16973214D01*
X17608928Y-16773214D02*
X17608928Y-17073214D01*
X17608928Y-16787500D02*
X17637500Y-16773214D01*
X17694643Y-16773214D01*
X17723214Y-16787500D01*
X17737500Y-16801786D01*
X17751786Y-16830357D01*
X17751786Y-16916072D01*
X17737500Y-16944643D01*
X17723214Y-16958929D01*
X17694643Y-16973214D01*
X17637500Y-16973214D01*
X17608928Y-16958929D01*
X17923214Y-16973214D02*
X17894643Y-16958929D01*
X17880357Y-16930357D01*
X17880357Y-16673214D01*
X18166071Y-16973214D02*
X18166071Y-16816072D01*
X18151786Y-16787500D01*
X18123214Y-16773214D01*
X18066071Y-16773214D01*
X18037500Y-16787500D01*
X18166071Y-16958929D02*
X18137500Y-16973214D01*
X18066071Y-16973214D01*
X18037500Y-16958929D01*
X18023214Y-16930357D01*
X18023214Y-16901786D01*
X18037500Y-16873214D01*
X18066071Y-16858929D01*
X18137500Y-16858929D01*
X18166071Y-16844643D01*
X18266071Y-16773214D02*
X18380357Y-16773214D01*
X18308928Y-16673214D02*
X18308928Y-16930357D01*
X18323214Y-16958929D01*
X18351786Y-16973214D01*
X18380357Y-16973214D01*
X18594643Y-16958929D02*
X18566071Y-16973214D01*
X18508928Y-16973214D01*
X18480357Y-16958929D01*
X18466071Y-16930357D01*
X18466071Y-16816072D01*
X18480357Y-16787500D01*
X18508928Y-16773214D01*
X18566071Y-16773214D01*
X18594643Y-16787500D01*
X18608928Y-16816072D01*
X18608928Y-16844643D01*
X18466071Y-16873214D01*
X18866071Y-16973214D02*
X18866071Y-16673214D01*
X18866071Y-16958929D02*
X18837500Y-16973214D01*
X18780357Y-16973214D01*
X18751786Y-16958929D01*
X18737500Y-16944643D01*
X18723214Y-16916072D01*
X18723214Y-16830357D01*
X18737500Y-16801786D01*
X18751786Y-16787500D01*
X18780357Y-16773214D01*
X18837500Y-16773214D01*
X18866071Y-16787500D01*
X18980357Y-17087500D02*
X18994643Y-17073214D01*
X19023214Y-17030357D01*
X19037500Y-17001786D01*
X19051786Y-16958929D01*
X19066071Y-16887500D01*
X19066071Y-16830357D01*
X19051786Y-16758929D01*
X19037500Y-16716071D01*
X19023214Y-16687500D01*
X18994643Y-16644643D01*
X18980357Y-16630357D01*
X9522500Y-17233500D02*
G75*
G03X9522500Y-17233500I-199390J0D01*
G01*
X9780357Y-17069214D02*
X9966071Y-17069214D01*
X9866071Y-17183500D01*
X9908928Y-17183500D01*
X9937500Y-17197786D01*
X9951786Y-17212072D01*
X9966071Y-17240643D01*
X9966071Y-17312072D01*
X9951786Y-17340643D01*
X9937500Y-17354929D01*
X9908928Y-17369214D01*
X9823214Y-17369214D01*
X9794643Y-17354929D01*
X9780357Y-17340643D01*
X10094643Y-17340643D02*
X10108928Y-17354929D01*
X10094643Y-17369214D01*
X10080357Y-17354929D01*
X10094643Y-17340643D01*
X10094643Y-17369214D01*
X10251786Y-17369214D02*
X10308928Y-17369214D01*
X10337500Y-17354929D01*
X10351786Y-17340643D01*
X10380357Y-17297786D01*
X10394643Y-17240643D01*
X10394643Y-17126357D01*
X10380357Y-17097786D01*
X10366071Y-17083500D01*
X10337500Y-17069214D01*
X10280357Y-17069214D01*
X10251786Y-17083500D01*
X10237500Y-17097786D01*
X10223214Y-17126357D01*
X10223214Y-17197786D01*
X10237500Y-17226357D01*
X10251786Y-17240643D01*
X10280357Y-17254929D01*
X10337500Y-17254929D01*
X10366071Y-17240643D01*
X10380357Y-17226357D01*
X10394643Y-17197786D01*
X10537500Y-17369214D02*
X10594643Y-17369214D01*
X10623214Y-17354929D01*
X10637500Y-17340643D01*
X10666071Y-17297786D01*
X10680357Y-17240643D01*
X10680357Y-17126357D01*
X10666071Y-17097786D01*
X10651786Y-17083500D01*
X10623214Y-17069214D01*
X10566071Y-17069214D01*
X10537500Y-17083500D01*
X10523214Y-17097786D01*
X10508928Y-17126357D01*
X10508928Y-17197786D01*
X10523214Y-17226357D01*
X10537500Y-17240643D01*
X10566071Y-17254929D01*
X10623214Y-17254929D01*
X10651786Y-17240643D01*
X10666071Y-17226357D01*
X10680357Y-17197786D01*
X10808928Y-17369214D02*
X10808928Y-17169214D01*
X10808928Y-17197786D02*
X10823214Y-17183500D01*
X10851786Y-17169214D01*
X10894643Y-17169214D01*
X10923214Y-17183500D01*
X10937500Y-17212072D01*
X10937500Y-17369214D01*
X10937500Y-17212072D02*
X10951786Y-17183500D01*
X10980357Y-17169214D01*
X11023214Y-17169214D01*
X11051786Y-17183500D01*
X11066071Y-17212072D01*
X11066071Y-17369214D01*
X11208928Y-17369214D02*
X11208928Y-17169214D01*
X11208928Y-17197786D02*
X11223214Y-17183500D01*
X11251786Y-17169214D01*
X11294643Y-17169214D01*
X11323214Y-17183500D01*
X11337500Y-17212072D01*
X11337500Y-17369214D01*
X11337500Y-17212072D02*
X11351786Y-17183500D01*
X11380357Y-17169214D01*
X11423214Y-17169214D01*
X11451786Y-17183500D01*
X11466071Y-17212072D01*
X11466071Y-17369214D01*
X12051786Y-17054929D02*
X11794643Y-17440643D01*
X12437500Y-17069214D02*
X12466071Y-17069214D01*
X12494643Y-17083500D01*
X12508928Y-17097786D01*
X12523214Y-17126357D01*
X12537500Y-17183500D01*
X12537500Y-17254929D01*
X12523214Y-17312072D01*
X12508928Y-17340643D01*
X12494643Y-17354929D01*
X12466071Y-17369214D01*
X12437500Y-17369214D01*
X12408928Y-17354929D01*
X12394643Y-17340643D01*
X12380357Y-17312072D01*
X12366071Y-17254929D01*
X12366071Y-17183500D01*
X12380357Y-17126357D01*
X12394643Y-17097786D01*
X12408928Y-17083500D01*
X12437500Y-17069214D01*
X12666071Y-17340643D02*
X12680357Y-17354929D01*
X12666071Y-17369214D01*
X12651786Y-17354929D01*
X12666071Y-17340643D01*
X12666071Y-17369214D01*
X12966071Y-17369214D02*
X12794643Y-17369214D01*
X12880357Y-17369214D02*
X12880357Y-17069214D01*
X12851786Y-17112072D01*
X12823214Y-17140643D01*
X12794643Y-17154929D01*
X13237500Y-17069214D02*
X13094643Y-17069214D01*
X13080357Y-17212072D01*
X13094643Y-17197786D01*
X13123214Y-17183500D01*
X13194643Y-17183500D01*
X13223214Y-17197786D01*
X13237500Y-17212072D01*
X13251786Y-17240643D01*
X13251786Y-17312072D01*
X13237500Y-17340643D01*
X13223214Y-17354929D01*
X13194643Y-17369214D01*
X13123214Y-17369214D01*
X13094643Y-17354929D01*
X13080357Y-17340643D01*
X13351786Y-17069214D02*
X13551786Y-17069214D01*
X13423214Y-17369214D01*
X13651786Y-17069214D02*
X13651786Y-17126357D01*
X13766071Y-17069214D02*
X13766071Y-17126357D01*
X14208928Y-17483500D02*
X14194643Y-17469214D01*
X14166071Y-17426357D01*
X14151786Y-17397786D01*
X14137500Y-17354929D01*
X14123214Y-17283500D01*
X14123214Y-17226357D01*
X14137500Y-17154929D01*
X14151786Y-17112072D01*
X14166071Y-17083500D01*
X14194643Y-17040643D01*
X14208928Y-17026357D01*
X14294643Y-17069214D02*
X14480357Y-17069214D01*
X14380357Y-17183500D01*
X14423214Y-17183500D01*
X14451786Y-17197786D01*
X14466071Y-17212072D01*
X14480357Y-17240643D01*
X14480357Y-17312072D01*
X14466071Y-17340643D01*
X14451786Y-17354929D01*
X14423214Y-17369214D01*
X14337500Y-17369214D01*
X14308928Y-17354929D01*
X14294643Y-17340643D01*
X14837500Y-17369214D02*
X14837500Y-17069214D01*
X14966071Y-17369214D02*
X14966071Y-17212072D01*
X14951786Y-17183500D01*
X14923214Y-17169214D01*
X14880357Y-17169214D01*
X14851786Y-17183500D01*
X14837500Y-17197786D01*
X15151786Y-17369214D02*
X15123214Y-17354929D01*
X15108928Y-17340643D01*
X15094643Y-17312072D01*
X15094643Y-17226357D01*
X15108928Y-17197786D01*
X15123214Y-17183500D01*
X15151786Y-17169214D01*
X15194643Y-17169214D01*
X15223214Y-17183500D01*
X15237500Y-17197786D01*
X15251786Y-17226357D01*
X15251786Y-17312072D01*
X15237500Y-17340643D01*
X15223214Y-17354929D01*
X15194643Y-17369214D01*
X15151786Y-17369214D01*
X15423214Y-17369214D02*
X15394643Y-17354929D01*
X15380357Y-17326357D01*
X15380357Y-17069214D01*
X15651786Y-17354929D02*
X15623214Y-17369214D01*
X15566071Y-17369214D01*
X15537500Y-17354929D01*
X15523214Y-17326357D01*
X15523214Y-17212072D01*
X15537500Y-17183500D01*
X15566071Y-17169214D01*
X15623214Y-17169214D01*
X15651786Y-17183500D01*
X15666071Y-17212072D01*
X15666071Y-17240643D01*
X15523214Y-17269214D01*
X15780357Y-17354929D02*
X15808928Y-17369214D01*
X15866071Y-17369214D01*
X15894643Y-17354929D01*
X15908928Y-17326357D01*
X15908928Y-17312072D01*
X15894643Y-17283500D01*
X15866071Y-17269214D01*
X15823214Y-17269214D01*
X15794643Y-17254929D01*
X15780357Y-17226357D01*
X15780357Y-17212072D01*
X15794643Y-17183500D01*
X15823214Y-17169214D01*
X15866071Y-17169214D01*
X15894643Y-17183500D01*
X16008928Y-17483500D02*
X16023214Y-17469214D01*
X16051786Y-17426357D01*
X16066071Y-17397786D01*
X16080357Y-17354929D01*
X16094643Y-17283500D01*
X16094643Y-17226357D01*
X16080357Y-17154929D01*
X16066071Y-17112072D01*
X16051786Y-17083500D01*
X16023214Y-17040643D01*
X16008928Y-17026357D01*
X16551786Y-17483500D02*
X16537500Y-17469214D01*
X16508928Y-17426357D01*
X16494643Y-17397786D01*
X16480357Y-17354929D01*
X16466071Y-17283500D01*
X16466071Y-17226357D01*
X16480357Y-17154929D01*
X16494643Y-17112072D01*
X16508928Y-17083500D01*
X16537500Y-17040643D01*
X16551786Y-17026357D01*
X16666071Y-17169214D02*
X16666071Y-17369214D01*
X16666071Y-17197786D02*
X16680357Y-17183500D01*
X16708928Y-17169214D01*
X16751786Y-17169214D01*
X16780357Y-17183500D01*
X16794643Y-17212072D01*
X16794643Y-17369214D01*
X16980357Y-17369214D02*
X16951786Y-17354929D01*
X16937500Y-17340643D01*
X16923214Y-17312072D01*
X16923214Y-17226357D01*
X16937500Y-17197786D01*
X16951786Y-17183500D01*
X16980357Y-17169214D01*
X17023214Y-17169214D01*
X17051786Y-17183500D01*
X17066071Y-17197786D01*
X17080357Y-17226357D01*
X17080357Y-17312072D01*
X17066071Y-17340643D01*
X17051786Y-17354929D01*
X17023214Y-17369214D01*
X16980357Y-17369214D01*
X17166071Y-17169214D02*
X17280357Y-17169214D01*
X17208928Y-17069214D02*
X17208928Y-17326357D01*
X17223214Y-17354929D01*
X17251786Y-17369214D01*
X17280357Y-17369214D01*
X17608928Y-17169214D02*
X17608928Y-17469214D01*
X17608928Y-17183500D02*
X17637500Y-17169214D01*
X17694643Y-17169214D01*
X17723214Y-17183500D01*
X17737500Y-17197786D01*
X17751786Y-17226357D01*
X17751786Y-17312072D01*
X17737500Y-17340643D01*
X17723214Y-17354929D01*
X17694643Y-17369214D01*
X17637500Y-17369214D01*
X17608928Y-17354929D01*
X17923214Y-17369214D02*
X17894643Y-17354929D01*
X17880357Y-17326357D01*
X17880357Y-17069214D01*
X18166071Y-17369214D02*
X18166071Y-17212072D01*
X18151786Y-17183500D01*
X18123214Y-17169214D01*
X18066071Y-17169214D01*
X18037500Y-17183500D01*
X18166071Y-17354929D02*
X18137500Y-17369214D01*
X18066071Y-17369214D01*
X18037500Y-17354929D01*
X18023214Y-17326357D01*
X18023214Y-17297786D01*
X18037500Y-17269214D01*
X18066071Y-17254929D01*
X18137500Y-17254929D01*
X18166071Y-17240643D01*
X18266071Y-17169214D02*
X18380357Y-17169214D01*
X18308928Y-17069214D02*
X18308928Y-17326357D01*
X18323214Y-17354929D01*
X18351786Y-17369214D01*
X18380357Y-17369214D01*
X18594643Y-17354929D02*
X18566071Y-17369214D01*
X18508928Y-17369214D01*
X18480357Y-17354929D01*
X18466071Y-17326357D01*
X18466071Y-17212072D01*
X18480357Y-17183500D01*
X18508928Y-17169214D01*
X18566071Y-17169214D01*
X18594643Y-17183500D01*
X18608928Y-17212072D01*
X18608928Y-17240643D01*
X18466071Y-17269214D01*
X18866071Y-17369214D02*
X18866071Y-17069214D01*
X18866071Y-17354929D02*
X18837500Y-17369214D01*
X18780357Y-17369214D01*
X18751786Y-17354929D01*
X18737500Y-17340643D01*
X18723214Y-17312072D01*
X18723214Y-17226357D01*
X18737500Y-17197786D01*
X18751786Y-17183500D01*
X18780357Y-17169214D01*
X18837500Y-17169214D01*
X18866071Y-17183500D01*
X18980357Y-17483500D02*
X18994643Y-17469214D01*
X19023214Y-17426357D01*
X19037500Y-17397786D01*
X19051786Y-17354929D01*
X19066071Y-17283500D01*
X19066071Y-17226357D01*
X19051786Y-17154929D01*
X19037500Y-17112072D01*
X19023214Y-17083500D01*
X18994643Y-17040643D01*
X18980357Y-17026357D01*
X9322500Y-17562280D02*
X9322500Y-17962280D01*
X9122500Y-17762280D02*
X9522500Y-17762280D01*
X9937500Y-17697994D02*
X9937500Y-17897994D01*
X9866071Y-17583709D02*
X9794643Y-17797994D01*
X9980357Y-17797994D01*
X10094643Y-17869423D02*
X10108928Y-17883709D01*
X10094643Y-17897994D01*
X10080357Y-17883709D01*
X10094643Y-17869423D01*
X10094643Y-17897994D01*
X10294643Y-17597994D02*
X10323214Y-17597994D01*
X10351786Y-17612280D01*
X10366071Y-17626566D01*
X10380357Y-17655137D01*
X10394643Y-17712280D01*
X10394643Y-17783709D01*
X10380357Y-17840852D01*
X10366071Y-17869423D01*
X10351786Y-17883709D01*
X10323214Y-17897994D01*
X10294643Y-17897994D01*
X10266071Y-17883709D01*
X10251786Y-17869423D01*
X10237500Y-17840852D01*
X10223214Y-17783709D01*
X10223214Y-17712280D01*
X10237500Y-17655137D01*
X10251786Y-17626566D01*
X10266071Y-17612280D01*
X10294643Y-17597994D01*
X10580357Y-17597994D02*
X10608928Y-17597994D01*
X10637500Y-17612280D01*
X10651786Y-17626566D01*
X10666071Y-17655137D01*
X10680357Y-17712280D01*
X10680357Y-17783709D01*
X10666071Y-17840852D01*
X10651786Y-17869423D01*
X10637500Y-17883709D01*
X10608928Y-17897994D01*
X10580357Y-17897994D01*
X10551786Y-17883709D01*
X10537500Y-17869423D01*
X10523214Y-17840852D01*
X10508928Y-17783709D01*
X10508928Y-17712280D01*
X10523214Y-17655137D01*
X10537500Y-17626566D01*
X10551786Y-17612280D01*
X10580357Y-17597994D01*
X10808928Y-17897994D02*
X10808928Y-17697994D01*
X10808928Y-17726566D02*
X10823214Y-17712280D01*
X10851786Y-17697994D01*
X10894643Y-17697994D01*
X10923214Y-17712280D01*
X10937500Y-17740852D01*
X10937500Y-17897994D01*
X10937500Y-17740852D02*
X10951786Y-17712280D01*
X10980357Y-17697994D01*
X11023214Y-17697994D01*
X11051786Y-17712280D01*
X11066071Y-17740852D01*
X11066071Y-17897994D01*
X11208928Y-17897994D02*
X11208928Y-17697994D01*
X11208928Y-17726566D02*
X11223214Y-17712280D01*
X11251786Y-17697994D01*
X11294643Y-17697994D01*
X11323214Y-17712280D01*
X11337500Y-17740852D01*
X11337500Y-17897994D01*
X11337500Y-17740852D02*
X11351786Y-17712280D01*
X11380357Y-17697994D01*
X11423214Y-17697994D01*
X11451786Y-17712280D01*
X11466071Y-17740852D01*
X11466071Y-17897994D01*
X12051786Y-17583709D02*
X11794643Y-17969423D01*
X12437500Y-17597994D02*
X12466071Y-17597994D01*
X12494643Y-17612280D01*
X12508928Y-17626566D01*
X12523214Y-17655137D01*
X12537500Y-17712280D01*
X12537500Y-17783709D01*
X12523214Y-17840852D01*
X12508928Y-17869423D01*
X12494643Y-17883709D01*
X12466071Y-17897994D01*
X12437500Y-17897994D01*
X12408928Y-17883709D01*
X12394643Y-17869423D01*
X12380357Y-17840852D01*
X12366071Y-17783709D01*
X12366071Y-17712280D01*
X12380357Y-17655137D01*
X12394643Y-17626566D01*
X12408928Y-17612280D01*
X12437500Y-17597994D01*
X12666071Y-17869423D02*
X12680357Y-17883709D01*
X12666071Y-17897994D01*
X12651786Y-17883709D01*
X12666071Y-17869423D01*
X12666071Y-17897994D01*
X12966071Y-17897994D02*
X12794643Y-17897994D01*
X12880357Y-17897994D02*
X12880357Y-17597994D01*
X12851786Y-17640852D01*
X12823214Y-17669423D01*
X12794643Y-17683709D01*
X13237500Y-17597994D02*
X13094643Y-17597994D01*
X13080357Y-17740852D01*
X13094643Y-17726566D01*
X13123214Y-17712280D01*
X13194643Y-17712280D01*
X13223214Y-17726566D01*
X13237500Y-17740852D01*
X13251786Y-17769423D01*
X13251786Y-17840852D01*
X13237500Y-17869423D01*
X13223214Y-17883709D01*
X13194643Y-17897994D01*
X13123214Y-17897994D01*
X13094643Y-17883709D01*
X13080357Y-17869423D01*
X13351786Y-17597994D02*
X13551786Y-17597994D01*
X13423214Y-17897994D01*
X13651786Y-17597994D02*
X13651786Y-17655137D01*
X13766071Y-17597994D02*
X13766071Y-17655137D01*
X14208928Y-18012280D02*
X14194643Y-17997994D01*
X14166071Y-17955137D01*
X14151786Y-17926566D01*
X14137500Y-17883709D01*
X14123214Y-17812280D01*
X14123214Y-17755137D01*
X14137500Y-17683709D01*
X14151786Y-17640852D01*
X14166071Y-17612280D01*
X14194643Y-17569423D01*
X14208928Y-17555137D01*
X14308928Y-17626566D02*
X14323214Y-17612280D01*
X14351786Y-17597994D01*
X14423214Y-17597994D01*
X14451786Y-17612280D01*
X14466071Y-17626566D01*
X14480357Y-17655137D01*
X14480357Y-17683709D01*
X14466071Y-17726566D01*
X14294643Y-17897994D01*
X14480357Y-17897994D01*
X14837500Y-17897994D02*
X14837500Y-17597994D01*
X14966071Y-17897994D02*
X14966071Y-17740852D01*
X14951786Y-17712280D01*
X14923214Y-17697994D01*
X14880357Y-17697994D01*
X14851786Y-17712280D01*
X14837500Y-17726566D01*
X15151786Y-17897994D02*
X15123214Y-17883709D01*
X15108928Y-17869423D01*
X15094643Y-17840852D01*
X15094643Y-17755137D01*
X15108928Y-17726566D01*
X15123214Y-17712280D01*
X15151786Y-17697994D01*
X15194643Y-17697994D01*
X15223214Y-17712280D01*
X15237500Y-17726566D01*
X15251786Y-17755137D01*
X15251786Y-17840852D01*
X15237500Y-17869423D01*
X15223214Y-17883709D01*
X15194643Y-17897994D01*
X15151786Y-17897994D01*
X15423214Y-17897994D02*
X15394643Y-17883709D01*
X15380357Y-17855137D01*
X15380357Y-17597994D01*
X15651786Y-17883709D02*
X15623214Y-17897994D01*
X15566071Y-17897994D01*
X15537500Y-17883709D01*
X15523214Y-17855137D01*
X15523214Y-17740852D01*
X15537500Y-17712280D01*
X15566071Y-17697994D01*
X15623214Y-17697994D01*
X15651786Y-17712280D01*
X15666071Y-17740852D01*
X15666071Y-17769423D01*
X15523214Y-17797994D01*
X15780357Y-17883709D02*
X15808928Y-17897994D01*
X15866071Y-17897994D01*
X15894643Y-17883709D01*
X15908928Y-17855137D01*
X15908928Y-17840852D01*
X15894643Y-17812280D01*
X15866071Y-17797994D01*
X15823214Y-17797994D01*
X15794643Y-17783709D01*
X15780357Y-17755137D01*
X15780357Y-17740852D01*
X15794643Y-17712280D01*
X15823214Y-17697994D01*
X15866071Y-17697994D01*
X15894643Y-17712280D01*
X16008928Y-18012280D02*
X16023214Y-17997994D01*
X16051786Y-17955137D01*
X16066071Y-17926566D01*
X16080357Y-17883709D01*
X16094643Y-17812280D01*
X16094643Y-17755137D01*
X16080357Y-17683709D01*
X16066071Y-17640852D01*
X16051786Y-17612280D01*
X16023214Y-17569423D01*
X16008928Y-17555137D01*
X16551786Y-18012280D02*
X16537500Y-17997994D01*
X16508928Y-17955137D01*
X16494643Y-17926566D01*
X16480357Y-17883709D01*
X16466071Y-17812280D01*
X16466071Y-17755137D01*
X16480357Y-17683709D01*
X16494643Y-17640852D01*
X16508928Y-17612280D01*
X16537500Y-17569423D01*
X16551786Y-17555137D01*
X16666071Y-17697994D02*
X16666071Y-17897994D01*
X16666071Y-17726566D02*
X16680357Y-17712280D01*
X16708928Y-17697994D01*
X16751786Y-17697994D01*
X16780357Y-17712280D01*
X16794643Y-17740852D01*
X16794643Y-17897994D01*
X16980357Y-17897994D02*
X16951786Y-17883709D01*
X16937500Y-17869423D01*
X16923214Y-17840852D01*
X16923214Y-17755137D01*
X16937500Y-17726566D01*
X16951786Y-17712280D01*
X16980357Y-17697994D01*
X17023214Y-17697994D01*
X17051786Y-17712280D01*
X17066071Y-17726566D01*
X17080357Y-17755137D01*
X17080357Y-17840852D01*
X17066071Y-17869423D01*
X17051786Y-17883709D01*
X17023214Y-17897994D01*
X16980357Y-17897994D01*
X17166071Y-17697994D02*
X17280357Y-17697994D01*
X17208928Y-17597994D02*
X17208928Y-17855137D01*
X17223214Y-17883709D01*
X17251786Y-17897994D01*
X17280357Y-17897994D01*
X17608928Y-17697994D02*
X17608928Y-17997994D01*
X17608928Y-17712280D02*
X17637500Y-17697994D01*
X17694643Y-17697994D01*
X17723214Y-17712280D01*
X17737500Y-17726566D01*
X17751786Y-17755137D01*
X17751786Y-17840852D01*
X17737500Y-17869423D01*
X17723214Y-17883709D01*
X17694643Y-17897994D01*
X17637500Y-17897994D01*
X17608928Y-17883709D01*
X17923214Y-17897994D02*
X17894643Y-17883709D01*
X17880357Y-17855137D01*
X17880357Y-17597994D01*
X18166071Y-17897994D02*
X18166071Y-17740852D01*
X18151786Y-17712280D01*
X18123214Y-17697994D01*
X18066071Y-17697994D01*
X18037500Y-17712280D01*
X18166071Y-17883709D02*
X18137500Y-17897994D01*
X18066071Y-17897994D01*
X18037500Y-17883709D01*
X18023214Y-17855137D01*
X18023214Y-17826566D01*
X18037500Y-17797994D01*
X18066071Y-17783709D01*
X18137500Y-17783709D01*
X18166071Y-17769423D01*
X18266071Y-17697994D02*
X18380357Y-17697994D01*
X18308928Y-17597994D02*
X18308928Y-17855137D01*
X18323214Y-17883709D01*
X18351786Y-17897994D01*
X18380357Y-17897994D01*
X18594643Y-17883709D02*
X18566071Y-17897994D01*
X18508928Y-17897994D01*
X18480357Y-17883709D01*
X18466071Y-17855137D01*
X18466071Y-17740852D01*
X18480357Y-17712280D01*
X18508928Y-17697994D01*
X18566071Y-17697994D01*
X18594643Y-17712280D01*
X18608928Y-17740852D01*
X18608928Y-17769423D01*
X18466071Y-17797994D01*
X18866071Y-17897994D02*
X18866071Y-17597994D01*
X18866071Y-17883709D02*
X18837500Y-17897994D01*
X18780357Y-17897994D01*
X18751786Y-17883709D01*
X18737500Y-17869423D01*
X18723214Y-17840852D01*
X18723214Y-17755137D01*
X18737500Y-17726566D01*
X18751786Y-17712280D01*
X18780357Y-17697994D01*
X18837500Y-17697994D01*
X18866071Y-17712280D01*
X18980357Y-18012280D02*
X18994643Y-17997994D01*
X19023214Y-17955137D01*
X19037500Y-17926566D01*
X19051786Y-17883709D01*
X19066071Y-17812280D01*
X19066071Y-17755137D01*
X19051786Y-17683709D01*
X19037500Y-17640852D01*
X19023214Y-17612280D01*
X18994643Y-17569423D01*
X18980357Y-17555137D01*
M02*
