G04 #@! TF.GenerationSoftware,KiCad,Pcbnew,(5.1.0)-1*
G04 #@! TF.CreationDate,2019-08-13T11:23:49+02:00*
G04 #@! TF.ProjectId,AirSensorModule,41697253-656e-4736-9f72-4d6f64756c65,rev?*
G04 #@! TF.SameCoordinates,Original*
G04 #@! TF.FileFunction,Copper,L2,Bot*
G04 #@! TF.FilePolarity,Positive*
%FSLAX46Y46*%
G04 Gerber Fmt 4.6, Leading zero omitted, Abs format (unit mm)*
G04 Created by KiCad (PCBNEW (5.1.0)-1) date 2019-08-13 11:23:49*
%MOMM*%
%LPD*%
G04 APERTURE LIST*
%ADD10C,0.300000*%
%ADD11R,1.600000X1.600000*%
%ADD12O,1.600000X1.600000*%
%ADD13C,2.000000*%
%ADD14R,1.800000X1.800000*%
%ADD15C,1.800000*%
%ADD16C,1.524000*%
%ADD17C,1.600000*%
%ADD18C,4.000000*%
%ADD19C,1.400000*%
%ADD20O,1.400000X1.400000*%
%ADD21C,4.318000*%
%ADD22C,2.540000*%
%ADD23C,1.778000*%
%ADD24R,2.400000X1.600000*%
%ADD25O,2.400000X1.600000*%
%ADD26C,5.000000*%
%ADD27C,0.800000*%
%ADD28C,0.250000*%
%ADD29C,0.254000*%
G04 APERTURE END LIST*
D10*
X102135428Y-157650571D02*
X102135428Y-156150571D01*
X101778285Y-156150571D01*
X101564000Y-156222000D01*
X101421142Y-156364857D01*
X101349714Y-156507714D01*
X101278285Y-156793428D01*
X101278285Y-157007714D01*
X101349714Y-157293428D01*
X101421142Y-157436285D01*
X101564000Y-157579142D01*
X101778285Y-157650571D01*
X102135428Y-157650571D01*
X100349714Y-156150571D02*
X100064000Y-156150571D01*
X99921142Y-156222000D01*
X99778285Y-156364857D01*
X99706857Y-156650571D01*
X99706857Y-157150571D01*
X99778285Y-157436285D01*
X99921142Y-157579142D01*
X100064000Y-157650571D01*
X100349714Y-157650571D01*
X100492571Y-157579142D01*
X100635428Y-157436285D01*
X100706857Y-157150571D01*
X100706857Y-156650571D01*
X100635428Y-156364857D01*
X100492571Y-156222000D01*
X100349714Y-156150571D01*
X99206857Y-156150571D02*
X98849714Y-157650571D01*
X98564000Y-156579142D01*
X98278285Y-157650571D01*
X97921142Y-156150571D01*
X97349714Y-157650571D02*
X97349714Y-156150571D01*
X96492571Y-157650571D01*
X96492571Y-156150571D01*
D11*
X116205000Y-114300000D03*
D12*
X131445000Y-147320000D03*
X116205000Y-116840000D03*
X131445000Y-144780000D03*
X116205000Y-119380000D03*
X131445000Y-142240000D03*
X116205000Y-121920000D03*
X131445000Y-139700000D03*
X116205000Y-124460000D03*
X131445000Y-137160000D03*
X116205000Y-127000000D03*
X131445000Y-134620000D03*
X116205000Y-129540000D03*
X131445000Y-132080000D03*
X116205000Y-132080000D03*
X131445000Y-129540000D03*
X116205000Y-134620000D03*
X131445000Y-127000000D03*
X116205000Y-137160000D03*
X131445000Y-124460000D03*
X116205000Y-139700000D03*
X131445000Y-121920000D03*
X116205000Y-142240000D03*
X131445000Y-119380000D03*
X116205000Y-144780000D03*
X131445000Y-116840000D03*
X116205000Y-147320000D03*
X131445000Y-114300000D03*
X116205000Y-149860000D03*
X131445000Y-149860000D03*
D13*
X184404000Y-63470000D03*
X171604000Y-63470000D03*
D14*
X138430000Y-66040000D03*
D15*
X140970000Y-66040000D03*
X140970000Y-72390000D03*
D14*
X138430000Y-72390000D03*
X138430000Y-78994000D03*
D15*
X140970000Y-78994000D03*
X114300000Y-66040000D03*
D14*
X111760000Y-66040000D03*
X111760000Y-72390000D03*
D15*
X114300000Y-72390000D03*
X114300000Y-78740000D03*
D14*
X111760000Y-78740000D03*
D16*
X119380000Y-96520000D03*
X121920000Y-96520000D03*
X124460000Y-96520000D03*
X127000000Y-96520000D03*
X129540000Y-96520000D03*
X132080000Y-96520000D03*
X134620000Y-96520000D03*
X134620000Y-86360000D03*
X132080000Y-86360000D03*
X129540000Y-86360000D03*
X127000000Y-86360000D03*
X124460000Y-86360000D03*
X121920000Y-86360000D03*
X119380000Y-86360000D03*
X116840000Y-86360000D03*
D11*
X184150000Y-147320000D03*
D17*
X181380000Y-147320000D03*
X178610000Y-147320000D03*
X175840000Y-147320000D03*
X173070000Y-147320000D03*
X182765000Y-150160000D03*
X179995000Y-150160000D03*
X177225000Y-150160000D03*
X174455000Y-150160000D03*
D18*
X166110000Y-148740000D03*
X191110000Y-148740000D03*
D19*
X108712000Y-119380000D03*
D20*
X101092000Y-119380000D03*
D19*
X108712000Y-124460000D03*
D20*
X101092000Y-124460000D03*
X101092000Y-127000000D03*
D19*
X108712000Y-127000000D03*
X108712000Y-129540000D03*
D20*
X101092000Y-129540000D03*
X101092000Y-137160000D03*
D19*
X108712000Y-137160000D03*
X108712000Y-139700000D03*
D20*
X101092000Y-139700000D03*
X101092000Y-142240000D03*
D19*
X108712000Y-142240000D03*
D20*
X101092000Y-121920000D03*
D19*
X108712000Y-121920000D03*
X108712000Y-132080000D03*
D20*
X101092000Y-132080000D03*
X101092000Y-134620000D03*
D19*
X108712000Y-134620000D03*
D21*
X186690000Y-130810000D03*
D22*
X189230000Y-125730000D03*
X182880000Y-127000000D03*
D23*
X191770000Y-130810000D03*
X181610000Y-130810000D03*
X140970000Y-130810000D03*
X151130000Y-130810000D03*
D22*
X142240000Y-127000000D03*
X148590000Y-125730000D03*
D21*
X146050000Y-130810000D03*
X166370000Y-130810000D03*
D22*
X168910000Y-125730000D03*
X162560000Y-127000000D03*
D23*
X171450000Y-130810000D03*
X161290000Y-130810000D03*
X99060000Y-63500000D03*
X104140000Y-63500000D03*
X104140000Y-71120000D03*
X101600000Y-71120000D03*
X99060000Y-71120000D03*
D24*
X99060000Y-85090000D03*
D25*
X106680000Y-113030000D03*
X99060000Y-87630000D03*
X106680000Y-110490000D03*
X99060000Y-90170000D03*
X106680000Y-107950000D03*
X99060000Y-92710000D03*
X106680000Y-105410000D03*
X99060000Y-95250000D03*
X106680000Y-102870000D03*
X99060000Y-97790000D03*
X106680000Y-100330000D03*
X99060000Y-100330000D03*
X106680000Y-97790000D03*
X99060000Y-102870000D03*
X106680000Y-95250000D03*
X99060000Y-105410000D03*
X106680000Y-92710000D03*
X99060000Y-107950000D03*
X106680000Y-90170000D03*
X99060000Y-110490000D03*
X106680000Y-87630000D03*
X99060000Y-113030000D03*
X106680000Y-85090000D03*
D26*
X102870000Y-153162000D03*
X150622000Y-149606000D03*
D27*
X109982000Y-99314000D03*
X155702000Y-129794000D03*
X106934000Y-117856000D03*
D28*
X184150000Y-146270000D02*
X184150000Y-147320000D01*
X180120000Y-142240000D02*
X184150000Y-146270000D01*
X131445000Y-142240000D02*
X180120000Y-142240000D01*
X177714999Y-143654999D02*
X129938999Y-143654999D01*
X181380000Y-147320000D02*
X177714999Y-143654999D01*
X129938999Y-143654999D02*
X129032000Y-142748000D01*
X129032000Y-142748000D02*
X129032000Y-140208000D01*
X129540000Y-139700000D02*
X131445000Y-139700000D01*
X129032000Y-140208000D02*
X129540000Y-139700000D01*
X116205000Y-137160000D02*
X114690001Y-135645001D01*
X100599999Y-135645001D02*
X99764010Y-134809012D01*
X114690001Y-135645001D02*
X100599999Y-135645001D01*
X99060000Y-114080000D02*
X99060000Y-113030000D01*
X99764010Y-114784010D02*
X99060000Y-114080000D01*
X99764010Y-134809012D02*
X99764010Y-114784010D01*
X116205000Y-139700000D02*
X119634000Y-143129000D01*
X119634000Y-143129000D02*
X119634000Y-150622000D01*
X119634000Y-150622000D02*
X122936000Y-153924000D01*
X170691000Y-153924000D02*
X174455000Y-150160000D01*
X122936000Y-153924000D02*
X170691000Y-153924000D01*
X147320001Y-124460001D02*
X144526001Y-124460001D01*
X148590000Y-125730000D02*
X147320001Y-124460001D01*
X141986000Y-121920000D02*
X131445000Y-121920000D01*
X144526001Y-124460001D02*
X141986000Y-121920000D01*
X109982000Y-120650000D02*
X108712000Y-119380000D01*
X131445000Y-121920000D02*
X130175000Y-120650000D01*
X130175000Y-120650000D02*
X109982000Y-120650000D01*
X108712000Y-119380000D02*
X108712000Y-100584000D01*
X108712000Y-100584000D02*
X109982000Y-99314000D01*
X109982000Y-99314000D02*
X109982000Y-99314000D01*
X97610000Y-85090000D02*
X97028000Y-85672000D01*
X99060000Y-85090000D02*
X97610000Y-85090000D01*
X97028000Y-112989004D02*
X99314000Y-115275004D01*
X97028000Y-85672000D02*
X97028000Y-112989004D01*
X99314000Y-115275004D02*
X99314000Y-145796000D01*
X100838000Y-147320000D02*
X116205000Y-147320000D01*
X99314000Y-145796000D02*
X100838000Y-147320000D01*
X135890000Y-96181238D02*
X135890000Y-109855000D01*
X133093762Y-93385000D02*
X135890000Y-96181238D01*
X102814001Y-79232997D02*
X109728000Y-86146996D01*
X109728000Y-86146996D02*
X109728000Y-91948000D01*
X109728000Y-91948000D02*
X111165000Y-93385000D01*
X111165000Y-93385000D02*
X133093762Y-93385000D01*
X102814001Y-72334001D02*
X101600000Y-71120000D01*
X102814001Y-79232997D02*
X102814001Y-72334001D01*
X140208000Y-114300000D02*
X135826500Y-109918500D01*
X155702000Y-129794000D02*
X140208000Y-114300000D01*
X135890000Y-109855000D02*
X135826500Y-109918500D01*
X135826500Y-109918500D02*
X131445000Y-114300000D01*
X106934000Y-113284000D02*
X106680000Y-113030000D01*
X106934000Y-117856000D02*
X106934000Y-113284000D01*
X183078999Y-62144999D02*
X110829001Y-62144999D01*
X184404000Y-63470000D02*
X183078999Y-62144999D01*
X110829001Y-62144999D02*
X104140000Y-68834000D01*
X100088765Y-68834000D02*
X104140000Y-68834000D01*
X99060000Y-69862765D02*
X100088765Y-68834000D01*
X99060000Y-71120000D02*
X99060000Y-69862765D01*
X119380000Y-96520000D02*
X102108000Y-96520000D01*
X100838000Y-97790000D02*
X99060000Y-97790000D01*
X102108000Y-96520000D02*
X100838000Y-97790000D01*
X100585010Y-109364990D02*
X99460000Y-110490000D01*
X101709010Y-99204990D02*
X100585010Y-100328990D01*
X99460000Y-110490000D02*
X99060000Y-110490000D01*
X129540000Y-96520000D02*
X128452999Y-97607001D01*
X117673001Y-97607001D02*
X117036010Y-96970010D01*
X100585010Y-100328990D02*
X100585010Y-109364990D01*
X128452999Y-97607001D02*
X117673001Y-97607001D01*
X117036010Y-96970010D02*
X109490994Y-96970010D01*
X109490994Y-96970010D02*
X107256014Y-99204990D01*
X107256014Y-99204990D02*
X101709010Y-99204990D01*
X131935010Y-93835010D02*
X102979010Y-93835010D01*
X134620000Y-96520000D02*
X131935010Y-93835010D01*
X102979010Y-93835010D02*
X101346000Y-92202000D01*
X99460000Y-87630000D02*
X99060000Y-87630000D01*
X101346000Y-89516000D02*
X99460000Y-87630000D01*
X101346000Y-92202000D02*
X101346000Y-89516000D01*
X105230000Y-100330000D02*
X102616000Y-102944000D01*
X106680000Y-100330000D02*
X105230000Y-100330000D01*
X102616000Y-117856000D02*
X101092000Y-119380000D01*
X102616000Y-102944000D02*
X102616000Y-117856000D01*
D29*
G36*
X193920000Y-158090000D02*
G01*
X103277572Y-158090000D01*
X103277572Y-155182000D01*
X95910000Y-155182000D01*
X95910000Y-85672000D01*
X96264324Y-85672000D01*
X96268000Y-85709322D01*
X96268001Y-112951671D01*
X96264324Y-112989004D01*
X96268001Y-113026337D01*
X96278998Y-113137990D01*
X96292180Y-113181446D01*
X96322454Y-113281250D01*
X96393026Y-113413280D01*
X96464196Y-113500000D01*
X96488000Y-113529005D01*
X96516998Y-113552803D01*
X98554000Y-115589806D01*
X98554001Y-145758667D01*
X98550324Y-145796000D01*
X98564998Y-145944985D01*
X98608454Y-146088246D01*
X98679026Y-146220276D01*
X98744776Y-146300392D01*
X98774000Y-146336001D01*
X98802998Y-146359799D01*
X100274205Y-147831008D01*
X100297999Y-147860001D01*
X100326992Y-147883795D01*
X100326996Y-147883799D01*
X100390960Y-147936292D01*
X100413724Y-147954974D01*
X100545753Y-148025546D01*
X100689014Y-148069003D01*
X100800667Y-148080000D01*
X100800676Y-148080000D01*
X100837999Y-148083676D01*
X100875322Y-148080000D01*
X114984099Y-148080000D01*
X115006068Y-148121101D01*
X115185392Y-148339608D01*
X115403899Y-148518932D01*
X115536858Y-148590000D01*
X115403899Y-148661068D01*
X115185392Y-148840392D01*
X115006068Y-149058899D01*
X114872818Y-149308192D01*
X114790764Y-149578691D01*
X114763057Y-149860000D01*
X114790764Y-150141309D01*
X114872818Y-150411808D01*
X115006068Y-150661101D01*
X115185392Y-150879608D01*
X115403899Y-151058932D01*
X115653192Y-151192182D01*
X115923691Y-151274236D01*
X116134508Y-151295000D01*
X116275492Y-151295000D01*
X116486309Y-151274236D01*
X116756808Y-151192182D01*
X117006101Y-151058932D01*
X117224608Y-150879608D01*
X117403932Y-150661101D01*
X117537182Y-150411808D01*
X117619236Y-150141309D01*
X117646943Y-149860000D01*
X117619236Y-149578691D01*
X117537182Y-149308192D01*
X117403932Y-149058899D01*
X117224608Y-148840392D01*
X117006101Y-148661068D01*
X116873142Y-148590000D01*
X117006101Y-148518932D01*
X117224608Y-148339608D01*
X117403932Y-148121101D01*
X117537182Y-147871808D01*
X117619236Y-147601309D01*
X117646943Y-147320000D01*
X117619236Y-147038691D01*
X117537182Y-146768192D01*
X117403932Y-146518899D01*
X117224608Y-146300392D01*
X117006101Y-146121068D01*
X116873142Y-146050000D01*
X117006101Y-145978932D01*
X117224608Y-145799608D01*
X117403932Y-145581101D01*
X117537182Y-145331808D01*
X117619236Y-145061309D01*
X117646943Y-144780000D01*
X117619236Y-144498691D01*
X117537182Y-144228192D01*
X117403932Y-143978899D01*
X117224608Y-143760392D01*
X117006101Y-143581068D01*
X116873142Y-143510000D01*
X117006101Y-143438932D01*
X117224608Y-143259608D01*
X117403932Y-143041101D01*
X117537182Y-142791808D01*
X117619236Y-142521309D01*
X117646943Y-142240000D01*
X117644402Y-142214204D01*
X118874000Y-143443802D01*
X118874001Y-150584668D01*
X118870324Y-150622000D01*
X118884998Y-150770985D01*
X118928454Y-150914246D01*
X118999026Y-151046276D01*
X119070201Y-151133002D01*
X119094000Y-151162001D01*
X119122998Y-151185799D01*
X122372201Y-154435003D01*
X122395999Y-154464001D01*
X122511724Y-154558974D01*
X122643753Y-154629546D01*
X122787014Y-154673003D01*
X122898667Y-154684000D01*
X122898676Y-154684000D01*
X122935999Y-154687676D01*
X122973322Y-154684000D01*
X170653678Y-154684000D01*
X170691000Y-154687676D01*
X170728322Y-154684000D01*
X170728333Y-154684000D01*
X170839986Y-154673003D01*
X170983247Y-154629546D01*
X171115276Y-154558974D01*
X171231001Y-154464001D01*
X171254804Y-154434997D01*
X174131114Y-151558688D01*
X174313665Y-151595000D01*
X174596335Y-151595000D01*
X174873574Y-151539853D01*
X175134727Y-151431680D01*
X175369759Y-151274637D01*
X175491694Y-151152702D01*
X176411903Y-151152702D01*
X176483486Y-151396671D01*
X176738996Y-151517571D01*
X177013184Y-151586300D01*
X177295512Y-151600217D01*
X177575130Y-151558787D01*
X177841292Y-151463603D01*
X177966514Y-151396671D01*
X178038097Y-151152702D01*
X177225000Y-150339605D01*
X176411903Y-151152702D01*
X175491694Y-151152702D01*
X175569637Y-151074759D01*
X175726680Y-150839727D01*
X175834853Y-150578574D01*
X175840513Y-150550118D01*
X175921397Y-150776292D01*
X175988329Y-150901514D01*
X176232298Y-150973097D01*
X177045395Y-150160000D01*
X177404605Y-150160000D01*
X178217702Y-150973097D01*
X178461671Y-150901514D01*
X178582571Y-150646004D01*
X178608212Y-150543711D01*
X178615147Y-150578574D01*
X178723320Y-150839727D01*
X178880363Y-151074759D01*
X179080241Y-151274637D01*
X179315273Y-151431680D01*
X179576426Y-151539853D01*
X179853665Y-151595000D01*
X180136335Y-151595000D01*
X180413574Y-151539853D01*
X180674727Y-151431680D01*
X180909759Y-151274637D01*
X181109637Y-151074759D01*
X181266680Y-150839727D01*
X181374853Y-150578574D01*
X181380000Y-150552699D01*
X181385147Y-150578574D01*
X181493320Y-150839727D01*
X181650363Y-151074759D01*
X181850241Y-151274637D01*
X182085273Y-151431680D01*
X182346426Y-151539853D01*
X182623665Y-151595000D01*
X182906335Y-151595000D01*
X183183574Y-151539853D01*
X183444727Y-151431680D01*
X183679759Y-151274637D01*
X183879637Y-151074759D01*
X184036680Y-150839727D01*
X184144853Y-150578574D01*
X184200000Y-150301335D01*
X184200000Y-150018665D01*
X184144853Y-149741426D01*
X184036680Y-149480273D01*
X183879637Y-149245241D01*
X183679759Y-149045363D01*
X183444727Y-148888320D01*
X183183574Y-148780147D01*
X182906335Y-148725000D01*
X182623665Y-148725000D01*
X182346426Y-148780147D01*
X182085273Y-148888320D01*
X181850241Y-149045363D01*
X181650363Y-149245241D01*
X181493320Y-149480273D01*
X181385147Y-149741426D01*
X181380000Y-149767301D01*
X181374853Y-149741426D01*
X181266680Y-149480273D01*
X181109637Y-149245241D01*
X180909759Y-149045363D01*
X180674727Y-148888320D01*
X180413574Y-148780147D01*
X180136335Y-148725000D01*
X179853665Y-148725000D01*
X179576426Y-148780147D01*
X179315273Y-148888320D01*
X179080241Y-149045363D01*
X178880363Y-149245241D01*
X178723320Y-149480273D01*
X178615147Y-149741426D01*
X178609487Y-149769882D01*
X178528603Y-149543708D01*
X178461671Y-149418486D01*
X178217702Y-149346903D01*
X177404605Y-150160000D01*
X177045395Y-150160000D01*
X176232298Y-149346903D01*
X175988329Y-149418486D01*
X175867429Y-149673996D01*
X175841788Y-149776289D01*
X175834853Y-149741426D01*
X175726680Y-149480273D01*
X175569637Y-149245241D01*
X175491694Y-149167298D01*
X176411903Y-149167298D01*
X177225000Y-149980395D01*
X178038097Y-149167298D01*
X177966514Y-148923329D01*
X177711004Y-148802429D01*
X177436816Y-148733700D01*
X177154488Y-148719783D01*
X176874870Y-148761213D01*
X176608708Y-148856397D01*
X176483486Y-148923329D01*
X176411903Y-149167298D01*
X175491694Y-149167298D01*
X175369759Y-149045363D01*
X175134727Y-148888320D01*
X174873574Y-148780147D01*
X174596335Y-148725000D01*
X174313665Y-148725000D01*
X174036426Y-148780147D01*
X173775273Y-148888320D01*
X173540241Y-149045363D01*
X173340363Y-149245241D01*
X173183320Y-149480273D01*
X173075147Y-149741426D01*
X173020000Y-150018665D01*
X173020000Y-150301335D01*
X173056312Y-150483886D01*
X170376199Y-153164000D01*
X123250802Y-153164000D01*
X120394000Y-150307199D01*
X120394000Y-143166322D01*
X120397676Y-143128999D01*
X120394000Y-143091676D01*
X120394000Y-143091667D01*
X120383003Y-142980014D01*
X120339546Y-142836753D01*
X120268974Y-142704724D01*
X120174001Y-142588999D01*
X120145004Y-142565202D01*
X117605708Y-140025906D01*
X117619236Y-139981309D01*
X117646943Y-139700000D01*
X117619236Y-139418691D01*
X117537182Y-139148192D01*
X117403932Y-138898899D01*
X117224608Y-138680392D01*
X117006101Y-138501068D01*
X116873142Y-138430000D01*
X117006101Y-138358932D01*
X117224608Y-138179608D01*
X117403932Y-137961101D01*
X117537182Y-137711808D01*
X117619236Y-137441309D01*
X117646943Y-137160000D01*
X117619236Y-136878691D01*
X117537182Y-136608192D01*
X117403932Y-136358899D01*
X117224608Y-136140392D01*
X117006101Y-135961068D01*
X116873142Y-135890000D01*
X117006101Y-135818932D01*
X117224608Y-135639608D01*
X117403932Y-135421101D01*
X117537182Y-135171808D01*
X117619236Y-134901309D01*
X117646943Y-134620000D01*
X117619236Y-134338691D01*
X117537182Y-134068192D01*
X117403932Y-133818899D01*
X117224608Y-133600392D01*
X117006101Y-133421068D01*
X116873142Y-133350000D01*
X117006101Y-133278932D01*
X117224608Y-133099608D01*
X117403932Y-132881101D01*
X117537182Y-132631808D01*
X117619236Y-132361309D01*
X117646943Y-132080000D01*
X117619236Y-131798691D01*
X117537182Y-131528192D01*
X117403932Y-131278899D01*
X117224608Y-131060392D01*
X117006101Y-130881068D01*
X116873142Y-130810000D01*
X117006101Y-130738932D01*
X117224608Y-130559608D01*
X117403932Y-130341101D01*
X117537182Y-130091808D01*
X117619236Y-129821309D01*
X117646943Y-129540000D01*
X117619236Y-129258691D01*
X117537182Y-128988192D01*
X117403932Y-128738899D01*
X117224608Y-128520392D01*
X117006101Y-128341068D01*
X116873142Y-128270000D01*
X117006101Y-128198932D01*
X117224608Y-128019608D01*
X117403932Y-127801101D01*
X117537182Y-127551808D01*
X117619236Y-127281309D01*
X117646943Y-127000000D01*
X117619236Y-126718691D01*
X117537182Y-126448192D01*
X117403932Y-126198899D01*
X117224608Y-125980392D01*
X117006101Y-125801068D01*
X116873142Y-125730000D01*
X117006101Y-125658932D01*
X117224608Y-125479608D01*
X117403932Y-125261101D01*
X117537182Y-125011808D01*
X117619236Y-124741309D01*
X117646943Y-124460000D01*
X117619236Y-124178691D01*
X117537182Y-123908192D01*
X117403932Y-123658899D01*
X117224608Y-123440392D01*
X117006101Y-123261068D01*
X116868318Y-123187421D01*
X117060131Y-123072385D01*
X117268519Y-122883414D01*
X117436037Y-122657420D01*
X117556246Y-122403087D01*
X117596904Y-122269039D01*
X117474915Y-122047000D01*
X116332000Y-122047000D01*
X116332000Y-122067000D01*
X116078000Y-122067000D01*
X116078000Y-122047000D01*
X114935085Y-122047000D01*
X114813096Y-122269039D01*
X114853754Y-122403087D01*
X114973963Y-122657420D01*
X115141481Y-122883414D01*
X115349869Y-123072385D01*
X115541682Y-123187421D01*
X115403899Y-123261068D01*
X115185392Y-123440392D01*
X115006068Y-123658899D01*
X114872818Y-123908192D01*
X114790764Y-124178691D01*
X114763057Y-124460000D01*
X114790764Y-124741309D01*
X114872818Y-125011808D01*
X115006068Y-125261101D01*
X115185392Y-125479608D01*
X115403899Y-125658932D01*
X115536858Y-125730000D01*
X115403899Y-125801068D01*
X115185392Y-125980392D01*
X115006068Y-126198899D01*
X114872818Y-126448192D01*
X114790764Y-126718691D01*
X114763057Y-127000000D01*
X114790764Y-127281309D01*
X114872818Y-127551808D01*
X115006068Y-127801101D01*
X115185392Y-128019608D01*
X115403899Y-128198932D01*
X115536858Y-128270000D01*
X115403899Y-128341068D01*
X115185392Y-128520392D01*
X115006068Y-128738899D01*
X114872818Y-128988192D01*
X114790764Y-129258691D01*
X114763057Y-129540000D01*
X114790764Y-129821309D01*
X114872818Y-130091808D01*
X115006068Y-130341101D01*
X115185392Y-130559608D01*
X115403899Y-130738932D01*
X115536858Y-130810000D01*
X115403899Y-130881068D01*
X115185392Y-131060392D01*
X115006068Y-131278899D01*
X114872818Y-131528192D01*
X114790764Y-131798691D01*
X114763057Y-132080000D01*
X114790764Y-132361309D01*
X114872818Y-132631808D01*
X115006068Y-132881101D01*
X115185392Y-133099608D01*
X115403899Y-133278932D01*
X115536858Y-133350000D01*
X115403899Y-133421068D01*
X115185392Y-133600392D01*
X115006068Y-133818899D01*
X114872818Y-134068192D01*
X114790764Y-134338691D01*
X114763057Y-134620000D01*
X114789763Y-134891150D01*
X114727334Y-134885001D01*
X114727323Y-134885001D01*
X114690001Y-134881325D01*
X114652679Y-134885001D01*
X110020442Y-134885001D01*
X110047000Y-134751486D01*
X110047000Y-134488514D01*
X109995696Y-134230595D01*
X109895061Y-133987641D01*
X109748962Y-133768987D01*
X109563013Y-133583038D01*
X109344359Y-133436939D01*
X109134470Y-133350000D01*
X109344359Y-133263061D01*
X109563013Y-133116962D01*
X109748962Y-132931013D01*
X109895061Y-132712359D01*
X109995696Y-132469405D01*
X110047000Y-132211486D01*
X110047000Y-131948514D01*
X109995696Y-131690595D01*
X109895061Y-131447641D01*
X109748962Y-131228987D01*
X109563013Y-131043038D01*
X109344359Y-130896939D01*
X109134470Y-130810000D01*
X109344359Y-130723061D01*
X109563013Y-130576962D01*
X109748962Y-130391013D01*
X109895061Y-130172359D01*
X109995696Y-129929405D01*
X110047000Y-129671486D01*
X110047000Y-129408514D01*
X109995696Y-129150595D01*
X109895061Y-128907641D01*
X109748962Y-128688987D01*
X109563013Y-128503038D01*
X109344359Y-128356939D01*
X109134470Y-128270000D01*
X109344359Y-128183061D01*
X109563013Y-128036962D01*
X109748962Y-127851013D01*
X109895061Y-127632359D01*
X109995696Y-127389405D01*
X110047000Y-127131486D01*
X110047000Y-126868514D01*
X109995696Y-126610595D01*
X109895061Y-126367641D01*
X109748962Y-126148987D01*
X109563013Y-125963038D01*
X109344359Y-125816939D01*
X109134470Y-125730000D01*
X109344359Y-125643061D01*
X109563013Y-125496962D01*
X109748962Y-125311013D01*
X109895061Y-125092359D01*
X109995696Y-124849405D01*
X110047000Y-124591486D01*
X110047000Y-124328514D01*
X109995696Y-124070595D01*
X109895061Y-123827641D01*
X109748962Y-123608987D01*
X109563013Y-123423038D01*
X109344359Y-123276939D01*
X109134470Y-123190000D01*
X109344359Y-123103061D01*
X109563013Y-122956962D01*
X109748962Y-122771013D01*
X109895061Y-122552359D01*
X109995696Y-122309405D01*
X110047000Y-122051486D01*
X110047000Y-121788514D01*
X109995696Y-121530595D01*
X109945789Y-121410110D01*
X109981999Y-121413676D01*
X110019322Y-121410000D01*
X114866474Y-121410000D01*
X114853754Y-121436913D01*
X114813096Y-121570961D01*
X114935085Y-121793000D01*
X116078000Y-121793000D01*
X116078000Y-121773000D01*
X116332000Y-121773000D01*
X116332000Y-121793000D01*
X117474915Y-121793000D01*
X117596904Y-121570961D01*
X117556246Y-121436913D01*
X117543526Y-121410000D01*
X129860199Y-121410000D01*
X130044292Y-121594094D01*
X130030764Y-121638691D01*
X130003057Y-121920000D01*
X130030764Y-122201309D01*
X130112818Y-122471808D01*
X130246068Y-122721101D01*
X130425392Y-122939608D01*
X130643899Y-123118932D01*
X130776858Y-123190000D01*
X130643899Y-123261068D01*
X130425392Y-123440392D01*
X130246068Y-123658899D01*
X130112818Y-123908192D01*
X130030764Y-124178691D01*
X130003057Y-124460000D01*
X130030764Y-124741309D01*
X130112818Y-125011808D01*
X130246068Y-125261101D01*
X130425392Y-125479608D01*
X130643899Y-125658932D01*
X130776858Y-125730000D01*
X130643899Y-125801068D01*
X130425392Y-125980392D01*
X130246068Y-126198899D01*
X130112818Y-126448192D01*
X130030764Y-126718691D01*
X130003057Y-127000000D01*
X130030764Y-127281309D01*
X130112818Y-127551808D01*
X130246068Y-127801101D01*
X130425392Y-128019608D01*
X130643899Y-128198932D01*
X130776858Y-128270000D01*
X130643899Y-128341068D01*
X130425392Y-128520392D01*
X130246068Y-128738899D01*
X130112818Y-128988192D01*
X130030764Y-129258691D01*
X130003057Y-129540000D01*
X130030764Y-129821309D01*
X130112818Y-130091808D01*
X130246068Y-130341101D01*
X130425392Y-130559608D01*
X130643899Y-130738932D01*
X130776858Y-130810000D01*
X130643899Y-130881068D01*
X130425392Y-131060392D01*
X130246068Y-131278899D01*
X130112818Y-131528192D01*
X130030764Y-131798691D01*
X130003057Y-132080000D01*
X130030764Y-132361309D01*
X130112818Y-132631808D01*
X130246068Y-132881101D01*
X130425392Y-133099608D01*
X130643899Y-133278932D01*
X130776858Y-133350000D01*
X130643899Y-133421068D01*
X130425392Y-133600392D01*
X130246068Y-133818899D01*
X130112818Y-134068192D01*
X130030764Y-134338691D01*
X130003057Y-134620000D01*
X130030764Y-134901309D01*
X130112818Y-135171808D01*
X130246068Y-135421101D01*
X130425392Y-135639608D01*
X130643899Y-135818932D01*
X130776858Y-135890000D01*
X130643899Y-135961068D01*
X130425392Y-136140392D01*
X130246068Y-136358899D01*
X130112818Y-136608192D01*
X130030764Y-136878691D01*
X130003057Y-137160000D01*
X130030764Y-137441309D01*
X130112818Y-137711808D01*
X130246068Y-137961101D01*
X130425392Y-138179608D01*
X130643899Y-138358932D01*
X130776858Y-138430000D01*
X130643899Y-138501068D01*
X130425392Y-138680392D01*
X130246068Y-138898899D01*
X130224099Y-138940000D01*
X129577322Y-138940000D01*
X129539999Y-138936324D01*
X129502676Y-138940000D01*
X129502667Y-138940000D01*
X129391014Y-138950997D01*
X129247753Y-138994454D01*
X129115724Y-139065026D01*
X128999999Y-139159999D01*
X128976200Y-139188998D01*
X128520998Y-139644201D01*
X128492000Y-139667999D01*
X128468202Y-139696997D01*
X128468201Y-139696998D01*
X128397026Y-139783724D01*
X128326454Y-139915754D01*
X128282998Y-140059015D01*
X128268324Y-140208000D01*
X128272001Y-140245332D01*
X128272000Y-142710677D01*
X128268324Y-142748000D01*
X128272000Y-142785322D01*
X128272000Y-142785332D01*
X128282997Y-142896985D01*
X128309779Y-142985275D01*
X128326454Y-143040246D01*
X128397026Y-143172276D01*
X128436871Y-143220826D01*
X128491999Y-143288001D01*
X128521002Y-143311803D01*
X129375199Y-144166001D01*
X129398998Y-144195000D01*
X129514723Y-144289973D01*
X129646752Y-144360545D01*
X129790013Y-144404002D01*
X129901666Y-144414999D01*
X129901675Y-144414999D01*
X129938998Y-144418675D01*
X129976321Y-144414999D01*
X130056151Y-144414999D01*
X130030764Y-144498691D01*
X130003057Y-144780000D01*
X130030764Y-145061309D01*
X130112818Y-145331808D01*
X130246068Y-145581101D01*
X130425392Y-145799608D01*
X130643899Y-145978932D01*
X130776858Y-146050000D01*
X130643899Y-146121068D01*
X130425392Y-146300392D01*
X130246068Y-146518899D01*
X130112818Y-146768192D01*
X130030764Y-147038691D01*
X130003057Y-147320000D01*
X130030764Y-147601309D01*
X130112818Y-147871808D01*
X130246068Y-148121101D01*
X130425392Y-148339608D01*
X130643899Y-148518932D01*
X130776858Y-148590000D01*
X130643899Y-148661068D01*
X130425392Y-148840392D01*
X130246068Y-149058899D01*
X130112818Y-149308192D01*
X130030764Y-149578691D01*
X130003057Y-149860000D01*
X130030764Y-150141309D01*
X130112818Y-150411808D01*
X130246068Y-150661101D01*
X130425392Y-150879608D01*
X130643899Y-151058932D01*
X130893192Y-151192182D01*
X131163691Y-151274236D01*
X131374508Y-151295000D01*
X131515492Y-151295000D01*
X131726309Y-151274236D01*
X131996808Y-151192182D01*
X132246101Y-151058932D01*
X132464608Y-150879608D01*
X132643932Y-150661101D01*
X132777182Y-150411808D01*
X132859236Y-150141309D01*
X132886943Y-149860000D01*
X132859236Y-149578691D01*
X132777182Y-149308192D01*
X132643932Y-149058899D01*
X132464608Y-148840392D01*
X132246101Y-148661068D01*
X132113142Y-148590000D01*
X132246101Y-148518932D01*
X132292961Y-148480475D01*
X163475000Y-148480475D01*
X163475000Y-148999525D01*
X163576261Y-149508601D01*
X163774893Y-149988141D01*
X164063262Y-150419715D01*
X164430285Y-150786738D01*
X164861859Y-151075107D01*
X165341399Y-151273739D01*
X165850475Y-151375000D01*
X166369525Y-151375000D01*
X166878601Y-151273739D01*
X167358141Y-151075107D01*
X167789715Y-150786738D01*
X168156738Y-150419715D01*
X168445107Y-149988141D01*
X168643739Y-149508601D01*
X168745000Y-148999525D01*
X168745000Y-148480475D01*
X168643739Y-147971399D01*
X168445107Y-147491859D01*
X168235838Y-147178665D01*
X171635000Y-147178665D01*
X171635000Y-147461335D01*
X171690147Y-147738574D01*
X171798320Y-147999727D01*
X171955363Y-148234759D01*
X172155241Y-148434637D01*
X172390273Y-148591680D01*
X172651426Y-148699853D01*
X172928665Y-148755000D01*
X173211335Y-148755000D01*
X173488574Y-148699853D01*
X173749727Y-148591680D01*
X173984759Y-148434637D01*
X174106694Y-148312702D01*
X175026903Y-148312702D01*
X175098486Y-148556671D01*
X175353996Y-148677571D01*
X175628184Y-148746300D01*
X175910512Y-148760217D01*
X176190130Y-148718787D01*
X176456292Y-148623603D01*
X176581514Y-148556671D01*
X176653097Y-148312702D01*
X175840000Y-147499605D01*
X175026903Y-148312702D01*
X174106694Y-148312702D01*
X174184637Y-148234759D01*
X174341680Y-147999727D01*
X174449853Y-147738574D01*
X174455513Y-147710118D01*
X174536397Y-147936292D01*
X174603329Y-148061514D01*
X174847298Y-148133097D01*
X175660395Y-147320000D01*
X174847298Y-146506903D01*
X174603329Y-146578486D01*
X174482429Y-146833996D01*
X174456788Y-146936289D01*
X174449853Y-146901426D01*
X174341680Y-146640273D01*
X174184637Y-146405241D01*
X174106694Y-146327298D01*
X175026903Y-146327298D01*
X175840000Y-147140395D01*
X176653097Y-146327298D01*
X176581514Y-146083329D01*
X176326004Y-145962429D01*
X176051816Y-145893700D01*
X175769488Y-145879783D01*
X175489870Y-145921213D01*
X175223708Y-146016397D01*
X175098486Y-146083329D01*
X175026903Y-146327298D01*
X174106694Y-146327298D01*
X173984759Y-146205363D01*
X173749727Y-146048320D01*
X173488574Y-145940147D01*
X173211335Y-145885000D01*
X172928665Y-145885000D01*
X172651426Y-145940147D01*
X172390273Y-146048320D01*
X172155241Y-146205363D01*
X171955363Y-146405241D01*
X171798320Y-146640273D01*
X171690147Y-146901426D01*
X171635000Y-147178665D01*
X168235838Y-147178665D01*
X168156738Y-147060285D01*
X167789715Y-146693262D01*
X167358141Y-146404893D01*
X166878601Y-146206261D01*
X166369525Y-146105000D01*
X165850475Y-146105000D01*
X165341399Y-146206261D01*
X164861859Y-146404893D01*
X164430285Y-146693262D01*
X164063262Y-147060285D01*
X163774893Y-147491859D01*
X163576261Y-147971399D01*
X163475000Y-148480475D01*
X132292961Y-148480475D01*
X132464608Y-148339608D01*
X132643932Y-148121101D01*
X132777182Y-147871808D01*
X132859236Y-147601309D01*
X132886943Y-147320000D01*
X132859236Y-147038691D01*
X132777182Y-146768192D01*
X132643932Y-146518899D01*
X132464608Y-146300392D01*
X132246101Y-146121068D01*
X132113142Y-146050000D01*
X132246101Y-145978932D01*
X132464608Y-145799608D01*
X132643932Y-145581101D01*
X132777182Y-145331808D01*
X132859236Y-145061309D01*
X132886943Y-144780000D01*
X132859236Y-144498691D01*
X132833849Y-144414999D01*
X177400198Y-144414999D01*
X178899713Y-145914515D01*
X178751335Y-145885000D01*
X178468665Y-145885000D01*
X178191426Y-145940147D01*
X177930273Y-146048320D01*
X177695241Y-146205363D01*
X177495363Y-146405241D01*
X177338320Y-146640273D01*
X177230147Y-146901426D01*
X177224487Y-146929882D01*
X177143603Y-146703708D01*
X177076671Y-146578486D01*
X176832702Y-146506903D01*
X176019605Y-147320000D01*
X176832702Y-148133097D01*
X177076671Y-148061514D01*
X177197571Y-147806004D01*
X177223212Y-147703711D01*
X177230147Y-147738574D01*
X177338320Y-147999727D01*
X177495363Y-148234759D01*
X177695241Y-148434637D01*
X177930273Y-148591680D01*
X178191426Y-148699853D01*
X178468665Y-148755000D01*
X178751335Y-148755000D01*
X179028574Y-148699853D01*
X179289727Y-148591680D01*
X179524759Y-148434637D01*
X179724637Y-148234759D01*
X179881680Y-147999727D01*
X179989853Y-147738574D01*
X179995000Y-147712699D01*
X180000147Y-147738574D01*
X180108320Y-147999727D01*
X180265363Y-148234759D01*
X180465241Y-148434637D01*
X180700273Y-148591680D01*
X180961426Y-148699853D01*
X181238665Y-148755000D01*
X181521335Y-148755000D01*
X181798574Y-148699853D01*
X182059727Y-148591680D01*
X182294759Y-148434637D01*
X182494637Y-148234759D01*
X182651680Y-147999727D01*
X182711928Y-147854275D01*
X182711928Y-148120000D01*
X182724188Y-148244482D01*
X182760498Y-148364180D01*
X182819463Y-148474494D01*
X182898815Y-148571185D01*
X182995506Y-148650537D01*
X183105820Y-148709502D01*
X183225518Y-148745812D01*
X183350000Y-148758072D01*
X184950000Y-148758072D01*
X185074482Y-148745812D01*
X185194180Y-148709502D01*
X185304494Y-148650537D01*
X185401185Y-148571185D01*
X185475628Y-148480475D01*
X188475000Y-148480475D01*
X188475000Y-148999525D01*
X188576261Y-149508601D01*
X188774893Y-149988141D01*
X189063262Y-150419715D01*
X189430285Y-150786738D01*
X189861859Y-151075107D01*
X190341399Y-151273739D01*
X190850475Y-151375000D01*
X191369525Y-151375000D01*
X191878601Y-151273739D01*
X192358141Y-151075107D01*
X192789715Y-150786738D01*
X193156738Y-150419715D01*
X193445107Y-149988141D01*
X193643739Y-149508601D01*
X193745000Y-148999525D01*
X193745000Y-148480475D01*
X193643739Y-147971399D01*
X193445107Y-147491859D01*
X193156738Y-147060285D01*
X192789715Y-146693262D01*
X192358141Y-146404893D01*
X191878601Y-146206261D01*
X191369525Y-146105000D01*
X190850475Y-146105000D01*
X190341399Y-146206261D01*
X189861859Y-146404893D01*
X189430285Y-146693262D01*
X189063262Y-147060285D01*
X188774893Y-147491859D01*
X188576261Y-147971399D01*
X188475000Y-148480475D01*
X185475628Y-148480475D01*
X185480537Y-148474494D01*
X185539502Y-148364180D01*
X185575812Y-148244482D01*
X185588072Y-148120000D01*
X185588072Y-146520000D01*
X185575812Y-146395518D01*
X185539502Y-146275820D01*
X185480537Y-146165506D01*
X185401185Y-146068815D01*
X185304494Y-145989463D01*
X185194180Y-145930498D01*
X185074482Y-145894188D01*
X184950000Y-145881928D01*
X184804326Y-145881928D01*
X184784974Y-145845724D01*
X184690001Y-145729999D01*
X184661004Y-145706202D01*
X180683804Y-141729003D01*
X180660001Y-141699999D01*
X180544276Y-141605026D01*
X180412247Y-141534454D01*
X180268986Y-141490997D01*
X180157333Y-141480000D01*
X180157322Y-141480000D01*
X180120000Y-141476324D01*
X180082678Y-141480000D01*
X132665901Y-141480000D01*
X132643932Y-141438899D01*
X132464608Y-141220392D01*
X132246101Y-141041068D01*
X132113142Y-140970000D01*
X132246101Y-140898932D01*
X132464608Y-140719608D01*
X132643932Y-140501101D01*
X132777182Y-140251808D01*
X132859236Y-139981309D01*
X132886943Y-139700000D01*
X132859236Y-139418691D01*
X132777182Y-139148192D01*
X132643932Y-138898899D01*
X132464608Y-138680392D01*
X132246101Y-138501068D01*
X132113142Y-138430000D01*
X132246101Y-138358932D01*
X132464608Y-138179608D01*
X132643932Y-137961101D01*
X132777182Y-137711808D01*
X132859236Y-137441309D01*
X132886943Y-137160000D01*
X132859236Y-136878691D01*
X132777182Y-136608192D01*
X132643932Y-136358899D01*
X132464608Y-136140392D01*
X132246101Y-135961068D01*
X132113142Y-135890000D01*
X132246101Y-135818932D01*
X132464608Y-135639608D01*
X132643932Y-135421101D01*
X132777182Y-135171808D01*
X132859236Y-134901309D01*
X132886943Y-134620000D01*
X132859236Y-134338691D01*
X132777182Y-134068192D01*
X132643932Y-133818899D01*
X132464608Y-133600392D01*
X132246101Y-133421068D01*
X132113142Y-133350000D01*
X132246101Y-133278932D01*
X132464608Y-133099608D01*
X132643932Y-132881101D01*
X132777182Y-132631808D01*
X132859236Y-132361309D01*
X132886943Y-132080000D01*
X132859236Y-131798691D01*
X132777182Y-131528192D01*
X132643932Y-131278899D01*
X132464608Y-131060392D01*
X132246101Y-130881068D01*
X132113142Y-130810000D01*
X132246101Y-130738932D01*
X132342403Y-130659899D01*
X139446000Y-130659899D01*
X139446000Y-130960101D01*
X139504566Y-131254534D01*
X139619449Y-131531885D01*
X139786232Y-131781493D01*
X139998507Y-131993768D01*
X140248115Y-132160551D01*
X140525466Y-132275434D01*
X140819899Y-132334000D01*
X141120101Y-132334000D01*
X141414534Y-132275434D01*
X141691885Y-132160551D01*
X141941493Y-131993768D01*
X142153768Y-131781493D01*
X142320551Y-131531885D01*
X142435434Y-131254534D01*
X142494000Y-130960101D01*
X142494000Y-130659899D01*
X142469120Y-130534815D01*
X143256000Y-130534815D01*
X143256000Y-131085185D01*
X143363372Y-131624980D01*
X143573989Y-132133455D01*
X143879758Y-132591071D01*
X144268929Y-132980242D01*
X144726545Y-133286011D01*
X145235020Y-133496628D01*
X145774815Y-133604000D01*
X146325185Y-133604000D01*
X146864980Y-133496628D01*
X147373455Y-133286011D01*
X147831071Y-132980242D01*
X148220242Y-132591071D01*
X148526011Y-132133455D01*
X148736628Y-131624980D01*
X148844000Y-131085185D01*
X148844000Y-130659899D01*
X149606000Y-130659899D01*
X149606000Y-130960101D01*
X149664566Y-131254534D01*
X149779449Y-131531885D01*
X149946232Y-131781493D01*
X150158507Y-131993768D01*
X150408115Y-132160551D01*
X150685466Y-132275434D01*
X150979899Y-132334000D01*
X151280101Y-132334000D01*
X151574534Y-132275434D01*
X151851885Y-132160551D01*
X152101493Y-131993768D01*
X152313768Y-131781493D01*
X152480551Y-131531885D01*
X152595434Y-131254534D01*
X152654000Y-130960101D01*
X152654000Y-130659899D01*
X152595434Y-130365466D01*
X152480551Y-130088115D01*
X152313768Y-129838507D01*
X152101493Y-129626232D01*
X151851885Y-129459449D01*
X151574534Y-129344566D01*
X151280101Y-129286000D01*
X150979899Y-129286000D01*
X150685466Y-129344566D01*
X150408115Y-129459449D01*
X150158507Y-129626232D01*
X149946232Y-129838507D01*
X149779449Y-130088115D01*
X149664566Y-130365466D01*
X149606000Y-130659899D01*
X148844000Y-130659899D01*
X148844000Y-130534815D01*
X148736628Y-129995020D01*
X148526011Y-129486545D01*
X148220242Y-129028929D01*
X147831071Y-128639758D01*
X147373455Y-128333989D01*
X146864980Y-128123372D01*
X146325185Y-128016000D01*
X145774815Y-128016000D01*
X145235020Y-128123372D01*
X144726545Y-128333989D01*
X144268929Y-128639758D01*
X143879758Y-129028929D01*
X143573989Y-129486545D01*
X143363372Y-129995020D01*
X143256000Y-130534815D01*
X142469120Y-130534815D01*
X142435434Y-130365466D01*
X142320551Y-130088115D01*
X142153768Y-129838507D01*
X141941493Y-129626232D01*
X141691885Y-129459449D01*
X141414534Y-129344566D01*
X141120101Y-129286000D01*
X140819899Y-129286000D01*
X140525466Y-129344566D01*
X140248115Y-129459449D01*
X139998507Y-129626232D01*
X139786232Y-129838507D01*
X139619449Y-130088115D01*
X139504566Y-130365466D01*
X139446000Y-130659899D01*
X132342403Y-130659899D01*
X132464608Y-130559608D01*
X132643932Y-130341101D01*
X132777182Y-130091808D01*
X132859236Y-129821309D01*
X132886943Y-129540000D01*
X132859236Y-129258691D01*
X132777182Y-128988192D01*
X132643932Y-128738899D01*
X132464608Y-128520392D01*
X132246101Y-128341068D01*
X132113142Y-128270000D01*
X132246101Y-128198932D01*
X132464608Y-128019608D01*
X132643932Y-127801101D01*
X132777182Y-127551808D01*
X132859236Y-127281309D01*
X132886943Y-127000000D01*
X132868464Y-126812374D01*
X140335000Y-126812374D01*
X140335000Y-127187626D01*
X140408209Y-127555668D01*
X140551811Y-127902356D01*
X140760290Y-128214366D01*
X141025634Y-128479710D01*
X141337644Y-128688189D01*
X141684332Y-128831791D01*
X142052374Y-128905000D01*
X142427626Y-128905000D01*
X142795668Y-128831791D01*
X143142356Y-128688189D01*
X143454366Y-128479710D01*
X143719710Y-128214366D01*
X143928189Y-127902356D01*
X144071791Y-127555668D01*
X144145000Y-127187626D01*
X144145000Y-126812374D01*
X144071791Y-126444332D01*
X143928189Y-126097644D01*
X143719710Y-125785634D01*
X143454366Y-125520290D01*
X143142356Y-125311811D01*
X142795668Y-125168209D01*
X142427626Y-125095000D01*
X142052374Y-125095000D01*
X141684332Y-125168209D01*
X141337644Y-125311811D01*
X141025634Y-125520290D01*
X140760290Y-125785634D01*
X140551811Y-126097644D01*
X140408209Y-126444332D01*
X140335000Y-126812374D01*
X132868464Y-126812374D01*
X132859236Y-126718691D01*
X132777182Y-126448192D01*
X132643932Y-126198899D01*
X132464608Y-125980392D01*
X132246101Y-125801068D01*
X132113142Y-125730000D01*
X132246101Y-125658932D01*
X132464608Y-125479608D01*
X132643932Y-125261101D01*
X132777182Y-125011808D01*
X132859236Y-124741309D01*
X132886943Y-124460000D01*
X132859236Y-124178691D01*
X132777182Y-123908192D01*
X132643932Y-123658899D01*
X132464608Y-123440392D01*
X132246101Y-123261068D01*
X132113142Y-123190000D01*
X132246101Y-123118932D01*
X132464608Y-122939608D01*
X132643932Y-122721101D01*
X132665901Y-122680000D01*
X141671199Y-122680000D01*
X143962201Y-124971003D01*
X143986000Y-125000002D01*
X144101725Y-125094975D01*
X144233754Y-125165547D01*
X144377015Y-125209004D01*
X144488668Y-125220001D01*
X144488678Y-125220001D01*
X144526001Y-125223677D01*
X144563324Y-125220001D01*
X146749125Y-125220001D01*
X146685000Y-125542374D01*
X146685000Y-125917626D01*
X146758209Y-126285668D01*
X146901811Y-126632356D01*
X147110290Y-126944366D01*
X147375634Y-127209710D01*
X147687644Y-127418189D01*
X148034332Y-127561791D01*
X148402374Y-127635000D01*
X148777626Y-127635000D01*
X149145668Y-127561791D01*
X149492356Y-127418189D01*
X149804366Y-127209710D01*
X150069710Y-126944366D01*
X150278189Y-126632356D01*
X150421791Y-126285668D01*
X150495000Y-125917626D01*
X150495000Y-125661802D01*
X154667000Y-129833802D01*
X154667000Y-129895939D01*
X154706774Y-130095898D01*
X154784795Y-130284256D01*
X154898063Y-130453774D01*
X155042226Y-130597937D01*
X155211744Y-130711205D01*
X155400102Y-130789226D01*
X155600061Y-130829000D01*
X155803939Y-130829000D01*
X156003898Y-130789226D01*
X156192256Y-130711205D01*
X156269041Y-130659899D01*
X159766000Y-130659899D01*
X159766000Y-130960101D01*
X159824566Y-131254534D01*
X159939449Y-131531885D01*
X160106232Y-131781493D01*
X160318507Y-131993768D01*
X160568115Y-132160551D01*
X160845466Y-132275434D01*
X161139899Y-132334000D01*
X161440101Y-132334000D01*
X161734534Y-132275434D01*
X162011885Y-132160551D01*
X162261493Y-131993768D01*
X162473768Y-131781493D01*
X162640551Y-131531885D01*
X162755434Y-131254534D01*
X162814000Y-130960101D01*
X162814000Y-130659899D01*
X162789120Y-130534815D01*
X163576000Y-130534815D01*
X163576000Y-131085185D01*
X163683372Y-131624980D01*
X163893989Y-132133455D01*
X164199758Y-132591071D01*
X164588929Y-132980242D01*
X165046545Y-133286011D01*
X165555020Y-133496628D01*
X166094815Y-133604000D01*
X166645185Y-133604000D01*
X167184980Y-133496628D01*
X167693455Y-133286011D01*
X168151071Y-132980242D01*
X168540242Y-132591071D01*
X168846011Y-132133455D01*
X169056628Y-131624980D01*
X169164000Y-131085185D01*
X169164000Y-130659899D01*
X169926000Y-130659899D01*
X169926000Y-130960101D01*
X169984566Y-131254534D01*
X170099449Y-131531885D01*
X170266232Y-131781493D01*
X170478507Y-131993768D01*
X170728115Y-132160551D01*
X171005466Y-132275434D01*
X171299899Y-132334000D01*
X171600101Y-132334000D01*
X171894534Y-132275434D01*
X172171885Y-132160551D01*
X172421493Y-131993768D01*
X172633768Y-131781493D01*
X172800551Y-131531885D01*
X172915434Y-131254534D01*
X172974000Y-130960101D01*
X172974000Y-130659899D01*
X180086000Y-130659899D01*
X180086000Y-130960101D01*
X180144566Y-131254534D01*
X180259449Y-131531885D01*
X180426232Y-131781493D01*
X180638507Y-131993768D01*
X180888115Y-132160551D01*
X181165466Y-132275434D01*
X181459899Y-132334000D01*
X181760101Y-132334000D01*
X182054534Y-132275434D01*
X182331885Y-132160551D01*
X182581493Y-131993768D01*
X182793768Y-131781493D01*
X182960551Y-131531885D01*
X183075434Y-131254534D01*
X183134000Y-130960101D01*
X183134000Y-130659899D01*
X183109120Y-130534815D01*
X183896000Y-130534815D01*
X183896000Y-131085185D01*
X184003372Y-131624980D01*
X184213989Y-132133455D01*
X184519758Y-132591071D01*
X184908929Y-132980242D01*
X185366545Y-133286011D01*
X185875020Y-133496628D01*
X186414815Y-133604000D01*
X186965185Y-133604000D01*
X187504980Y-133496628D01*
X188013455Y-133286011D01*
X188471071Y-132980242D01*
X188860242Y-132591071D01*
X189166011Y-132133455D01*
X189376628Y-131624980D01*
X189484000Y-131085185D01*
X189484000Y-130659899D01*
X190246000Y-130659899D01*
X190246000Y-130960101D01*
X190304566Y-131254534D01*
X190419449Y-131531885D01*
X190586232Y-131781493D01*
X190798507Y-131993768D01*
X191048115Y-132160551D01*
X191325466Y-132275434D01*
X191619899Y-132334000D01*
X191920101Y-132334000D01*
X192214534Y-132275434D01*
X192491885Y-132160551D01*
X192741493Y-131993768D01*
X192953768Y-131781493D01*
X193120551Y-131531885D01*
X193235434Y-131254534D01*
X193294000Y-130960101D01*
X193294000Y-130659899D01*
X193235434Y-130365466D01*
X193120551Y-130088115D01*
X192953768Y-129838507D01*
X192741493Y-129626232D01*
X192491885Y-129459449D01*
X192214534Y-129344566D01*
X191920101Y-129286000D01*
X191619899Y-129286000D01*
X191325466Y-129344566D01*
X191048115Y-129459449D01*
X190798507Y-129626232D01*
X190586232Y-129838507D01*
X190419449Y-130088115D01*
X190304566Y-130365466D01*
X190246000Y-130659899D01*
X189484000Y-130659899D01*
X189484000Y-130534815D01*
X189376628Y-129995020D01*
X189166011Y-129486545D01*
X188860242Y-129028929D01*
X188471071Y-128639758D01*
X188013455Y-128333989D01*
X187504980Y-128123372D01*
X186965185Y-128016000D01*
X186414815Y-128016000D01*
X185875020Y-128123372D01*
X185366545Y-128333989D01*
X184908929Y-128639758D01*
X184519758Y-129028929D01*
X184213989Y-129486545D01*
X184003372Y-129995020D01*
X183896000Y-130534815D01*
X183109120Y-130534815D01*
X183075434Y-130365466D01*
X182960551Y-130088115D01*
X182793768Y-129838507D01*
X182581493Y-129626232D01*
X182331885Y-129459449D01*
X182054534Y-129344566D01*
X181760101Y-129286000D01*
X181459899Y-129286000D01*
X181165466Y-129344566D01*
X180888115Y-129459449D01*
X180638507Y-129626232D01*
X180426232Y-129838507D01*
X180259449Y-130088115D01*
X180144566Y-130365466D01*
X180086000Y-130659899D01*
X172974000Y-130659899D01*
X172915434Y-130365466D01*
X172800551Y-130088115D01*
X172633768Y-129838507D01*
X172421493Y-129626232D01*
X172171885Y-129459449D01*
X171894534Y-129344566D01*
X171600101Y-129286000D01*
X171299899Y-129286000D01*
X171005466Y-129344566D01*
X170728115Y-129459449D01*
X170478507Y-129626232D01*
X170266232Y-129838507D01*
X170099449Y-130088115D01*
X169984566Y-130365466D01*
X169926000Y-130659899D01*
X169164000Y-130659899D01*
X169164000Y-130534815D01*
X169056628Y-129995020D01*
X168846011Y-129486545D01*
X168540242Y-129028929D01*
X168151071Y-128639758D01*
X167693455Y-128333989D01*
X167184980Y-128123372D01*
X166645185Y-128016000D01*
X166094815Y-128016000D01*
X165555020Y-128123372D01*
X165046545Y-128333989D01*
X164588929Y-128639758D01*
X164199758Y-129028929D01*
X163893989Y-129486545D01*
X163683372Y-129995020D01*
X163576000Y-130534815D01*
X162789120Y-130534815D01*
X162755434Y-130365466D01*
X162640551Y-130088115D01*
X162473768Y-129838507D01*
X162261493Y-129626232D01*
X162011885Y-129459449D01*
X161734534Y-129344566D01*
X161440101Y-129286000D01*
X161139899Y-129286000D01*
X160845466Y-129344566D01*
X160568115Y-129459449D01*
X160318507Y-129626232D01*
X160106232Y-129838507D01*
X159939449Y-130088115D01*
X159824566Y-130365466D01*
X159766000Y-130659899D01*
X156269041Y-130659899D01*
X156361774Y-130597937D01*
X156505937Y-130453774D01*
X156619205Y-130284256D01*
X156697226Y-130095898D01*
X156737000Y-129895939D01*
X156737000Y-129692061D01*
X156697226Y-129492102D01*
X156619205Y-129303744D01*
X156505937Y-129134226D01*
X156361774Y-128990063D01*
X156192256Y-128876795D01*
X156003898Y-128798774D01*
X155803939Y-128759000D01*
X155741802Y-128759000D01*
X153795176Y-126812374D01*
X160655000Y-126812374D01*
X160655000Y-127187626D01*
X160728209Y-127555668D01*
X160871811Y-127902356D01*
X161080290Y-128214366D01*
X161345634Y-128479710D01*
X161657644Y-128688189D01*
X162004332Y-128831791D01*
X162372374Y-128905000D01*
X162747626Y-128905000D01*
X163115668Y-128831791D01*
X163462356Y-128688189D01*
X163774366Y-128479710D01*
X164039710Y-128214366D01*
X164248189Y-127902356D01*
X164391791Y-127555668D01*
X164465000Y-127187626D01*
X164465000Y-126812374D01*
X164391791Y-126444332D01*
X164248189Y-126097644D01*
X164039710Y-125785634D01*
X163796450Y-125542374D01*
X167005000Y-125542374D01*
X167005000Y-125917626D01*
X167078209Y-126285668D01*
X167221811Y-126632356D01*
X167430290Y-126944366D01*
X167695634Y-127209710D01*
X168007644Y-127418189D01*
X168354332Y-127561791D01*
X168722374Y-127635000D01*
X169097626Y-127635000D01*
X169465668Y-127561791D01*
X169812356Y-127418189D01*
X170124366Y-127209710D01*
X170389710Y-126944366D01*
X170477904Y-126812374D01*
X180975000Y-126812374D01*
X180975000Y-127187626D01*
X181048209Y-127555668D01*
X181191811Y-127902356D01*
X181400290Y-128214366D01*
X181665634Y-128479710D01*
X181977644Y-128688189D01*
X182324332Y-128831791D01*
X182692374Y-128905000D01*
X183067626Y-128905000D01*
X183435668Y-128831791D01*
X183782356Y-128688189D01*
X184094366Y-128479710D01*
X184359710Y-128214366D01*
X184568189Y-127902356D01*
X184711791Y-127555668D01*
X184785000Y-127187626D01*
X184785000Y-126812374D01*
X184711791Y-126444332D01*
X184568189Y-126097644D01*
X184359710Y-125785634D01*
X184116450Y-125542374D01*
X187325000Y-125542374D01*
X187325000Y-125917626D01*
X187398209Y-126285668D01*
X187541811Y-126632356D01*
X187750290Y-126944366D01*
X188015634Y-127209710D01*
X188327644Y-127418189D01*
X188674332Y-127561791D01*
X189042374Y-127635000D01*
X189417626Y-127635000D01*
X189785668Y-127561791D01*
X190132356Y-127418189D01*
X190444366Y-127209710D01*
X190709710Y-126944366D01*
X190918189Y-126632356D01*
X191061791Y-126285668D01*
X191135000Y-125917626D01*
X191135000Y-125542374D01*
X191061791Y-125174332D01*
X190918189Y-124827644D01*
X190709710Y-124515634D01*
X190444366Y-124250290D01*
X190132356Y-124041811D01*
X189785668Y-123898209D01*
X189417626Y-123825000D01*
X189042374Y-123825000D01*
X188674332Y-123898209D01*
X188327644Y-124041811D01*
X188015634Y-124250290D01*
X187750290Y-124515634D01*
X187541811Y-124827644D01*
X187398209Y-125174332D01*
X187325000Y-125542374D01*
X184116450Y-125542374D01*
X184094366Y-125520290D01*
X183782356Y-125311811D01*
X183435668Y-125168209D01*
X183067626Y-125095000D01*
X182692374Y-125095000D01*
X182324332Y-125168209D01*
X181977644Y-125311811D01*
X181665634Y-125520290D01*
X181400290Y-125785634D01*
X181191811Y-126097644D01*
X181048209Y-126444332D01*
X180975000Y-126812374D01*
X170477904Y-126812374D01*
X170598189Y-126632356D01*
X170741791Y-126285668D01*
X170815000Y-125917626D01*
X170815000Y-125542374D01*
X170741791Y-125174332D01*
X170598189Y-124827644D01*
X170389710Y-124515634D01*
X170124366Y-124250290D01*
X169812356Y-124041811D01*
X169465668Y-123898209D01*
X169097626Y-123825000D01*
X168722374Y-123825000D01*
X168354332Y-123898209D01*
X168007644Y-124041811D01*
X167695634Y-124250290D01*
X167430290Y-124515634D01*
X167221811Y-124827644D01*
X167078209Y-125174332D01*
X167005000Y-125542374D01*
X163796450Y-125542374D01*
X163774366Y-125520290D01*
X163462356Y-125311811D01*
X163115668Y-125168209D01*
X162747626Y-125095000D01*
X162372374Y-125095000D01*
X162004332Y-125168209D01*
X161657644Y-125311811D01*
X161345634Y-125520290D01*
X161080290Y-125785634D01*
X160871811Y-126097644D01*
X160728209Y-126444332D01*
X160655000Y-126812374D01*
X153795176Y-126812374D01*
X140771804Y-113789003D01*
X140771799Y-113788997D01*
X136650000Y-109667199D01*
X136650000Y-96218563D01*
X136653676Y-96181238D01*
X136650000Y-96143913D01*
X136650000Y-96143905D01*
X136639003Y-96032252D01*
X136595546Y-95888991D01*
X136524974Y-95756962D01*
X136430001Y-95641237D01*
X136401004Y-95617440D01*
X133657566Y-92874003D01*
X133633763Y-92844999D01*
X133518038Y-92750026D01*
X133386009Y-92679454D01*
X133242748Y-92635997D01*
X133131095Y-92625000D01*
X133131084Y-92625000D01*
X133093762Y-92621324D01*
X133056440Y-92625000D01*
X111479802Y-92625000D01*
X110488000Y-91633199D01*
X110488000Y-89910475D01*
X151769000Y-89910475D01*
X151769000Y-90429525D01*
X151870261Y-90938601D01*
X152068893Y-91418141D01*
X152357262Y-91849715D01*
X152724285Y-92216738D01*
X153155859Y-92505107D01*
X153635399Y-92703739D01*
X154144475Y-92805000D01*
X154663525Y-92805000D01*
X155172601Y-92703739D01*
X155652141Y-92505107D01*
X156083715Y-92216738D01*
X156450738Y-91849715D01*
X156739107Y-91418141D01*
X156937739Y-90938601D01*
X157039000Y-90429525D01*
X157039000Y-89910475D01*
X181769000Y-89910475D01*
X181769000Y-90429525D01*
X181870261Y-90938601D01*
X182068893Y-91418141D01*
X182357262Y-91849715D01*
X182724285Y-92216738D01*
X183155859Y-92505107D01*
X183635399Y-92703739D01*
X184144475Y-92805000D01*
X184663525Y-92805000D01*
X185172601Y-92703739D01*
X185652141Y-92505107D01*
X186083715Y-92216738D01*
X186450738Y-91849715D01*
X186739107Y-91418141D01*
X186937739Y-90938601D01*
X187039000Y-90429525D01*
X187039000Y-89910475D01*
X186937739Y-89401399D01*
X186739107Y-88921859D01*
X186450738Y-88490285D01*
X186083715Y-88123262D01*
X185652141Y-87834893D01*
X185172601Y-87636261D01*
X184663525Y-87535000D01*
X184144475Y-87535000D01*
X183635399Y-87636261D01*
X183155859Y-87834893D01*
X182724285Y-88123262D01*
X182357262Y-88490285D01*
X182068893Y-88921859D01*
X181870261Y-89401399D01*
X181769000Y-89910475D01*
X157039000Y-89910475D01*
X156937739Y-89401399D01*
X156739107Y-88921859D01*
X156450738Y-88490285D01*
X156083715Y-88123262D01*
X155652141Y-87834893D01*
X155172601Y-87636261D01*
X154663525Y-87535000D01*
X154144475Y-87535000D01*
X153635399Y-87636261D01*
X153155859Y-87834893D01*
X152724285Y-88123262D01*
X152357262Y-88490285D01*
X152068893Y-88921859D01*
X151870261Y-89401399D01*
X151769000Y-89910475D01*
X110488000Y-89910475D01*
X110488000Y-86222408D01*
X115443000Y-86222408D01*
X115443000Y-86497592D01*
X115496686Y-86767490D01*
X115601995Y-87021727D01*
X115754880Y-87250535D01*
X115949465Y-87445120D01*
X116178273Y-87598005D01*
X116432510Y-87703314D01*
X116702408Y-87757000D01*
X116977592Y-87757000D01*
X117247490Y-87703314D01*
X117501727Y-87598005D01*
X117730535Y-87445120D01*
X117925120Y-87250535D01*
X118078005Y-87021727D01*
X118110000Y-86944485D01*
X118141995Y-87021727D01*
X118294880Y-87250535D01*
X118489465Y-87445120D01*
X118718273Y-87598005D01*
X118972510Y-87703314D01*
X119242408Y-87757000D01*
X119517592Y-87757000D01*
X119787490Y-87703314D01*
X120041727Y-87598005D01*
X120270535Y-87445120D01*
X120465120Y-87250535D01*
X120618005Y-87021727D01*
X120650000Y-86944485D01*
X120681995Y-87021727D01*
X120834880Y-87250535D01*
X121029465Y-87445120D01*
X121258273Y-87598005D01*
X121512510Y-87703314D01*
X121782408Y-87757000D01*
X122057592Y-87757000D01*
X122327490Y-87703314D01*
X122581727Y-87598005D01*
X122810535Y-87445120D01*
X123005120Y-87250535D01*
X123158005Y-87021727D01*
X123190000Y-86944485D01*
X123221995Y-87021727D01*
X123374880Y-87250535D01*
X123569465Y-87445120D01*
X123798273Y-87598005D01*
X124052510Y-87703314D01*
X124322408Y-87757000D01*
X124597592Y-87757000D01*
X124867490Y-87703314D01*
X125121727Y-87598005D01*
X125350535Y-87445120D01*
X125545120Y-87250535D01*
X125698005Y-87021727D01*
X125730000Y-86944485D01*
X125761995Y-87021727D01*
X125914880Y-87250535D01*
X126109465Y-87445120D01*
X126338273Y-87598005D01*
X126592510Y-87703314D01*
X126862408Y-87757000D01*
X127137592Y-87757000D01*
X127407490Y-87703314D01*
X127661727Y-87598005D01*
X127890535Y-87445120D01*
X128085120Y-87250535D01*
X128238005Y-87021727D01*
X128270000Y-86944485D01*
X128301995Y-87021727D01*
X128454880Y-87250535D01*
X128649465Y-87445120D01*
X128878273Y-87598005D01*
X129132510Y-87703314D01*
X129402408Y-87757000D01*
X129677592Y-87757000D01*
X129947490Y-87703314D01*
X130201727Y-87598005D01*
X130430535Y-87445120D01*
X130625120Y-87250535D01*
X130778005Y-87021727D01*
X130810000Y-86944485D01*
X130841995Y-87021727D01*
X130994880Y-87250535D01*
X131189465Y-87445120D01*
X131418273Y-87598005D01*
X131672510Y-87703314D01*
X131942408Y-87757000D01*
X132217592Y-87757000D01*
X132487490Y-87703314D01*
X132741727Y-87598005D01*
X132970535Y-87445120D01*
X133165120Y-87250535D01*
X133318005Y-87021727D01*
X133350000Y-86944485D01*
X133381995Y-87021727D01*
X133534880Y-87250535D01*
X133729465Y-87445120D01*
X133958273Y-87598005D01*
X134212510Y-87703314D01*
X134482408Y-87757000D01*
X134757592Y-87757000D01*
X135027490Y-87703314D01*
X135281727Y-87598005D01*
X135510535Y-87445120D01*
X135705120Y-87250535D01*
X135858005Y-87021727D01*
X135963314Y-86767490D01*
X136017000Y-86497592D01*
X136017000Y-86222408D01*
X135963314Y-85952510D01*
X135858005Y-85698273D01*
X135705120Y-85469465D01*
X135510535Y-85274880D01*
X135281727Y-85121995D01*
X135027490Y-85016686D01*
X134757592Y-84963000D01*
X134482408Y-84963000D01*
X134212510Y-85016686D01*
X133958273Y-85121995D01*
X133729465Y-85274880D01*
X133534880Y-85469465D01*
X133381995Y-85698273D01*
X133350000Y-85775515D01*
X133318005Y-85698273D01*
X133165120Y-85469465D01*
X132970535Y-85274880D01*
X132741727Y-85121995D01*
X132487490Y-85016686D01*
X132217592Y-84963000D01*
X131942408Y-84963000D01*
X131672510Y-85016686D01*
X131418273Y-85121995D01*
X131189465Y-85274880D01*
X130994880Y-85469465D01*
X130841995Y-85698273D01*
X130810000Y-85775515D01*
X130778005Y-85698273D01*
X130625120Y-85469465D01*
X130430535Y-85274880D01*
X130201727Y-85121995D01*
X129947490Y-85016686D01*
X129677592Y-84963000D01*
X129402408Y-84963000D01*
X129132510Y-85016686D01*
X128878273Y-85121995D01*
X128649465Y-85274880D01*
X128454880Y-85469465D01*
X128301995Y-85698273D01*
X128270000Y-85775515D01*
X128238005Y-85698273D01*
X128085120Y-85469465D01*
X127890535Y-85274880D01*
X127661727Y-85121995D01*
X127407490Y-85016686D01*
X127137592Y-84963000D01*
X126862408Y-84963000D01*
X126592510Y-85016686D01*
X126338273Y-85121995D01*
X126109465Y-85274880D01*
X125914880Y-85469465D01*
X125761995Y-85698273D01*
X125730000Y-85775515D01*
X125698005Y-85698273D01*
X125545120Y-85469465D01*
X125350535Y-85274880D01*
X125121727Y-85121995D01*
X124867490Y-85016686D01*
X124597592Y-84963000D01*
X124322408Y-84963000D01*
X124052510Y-85016686D01*
X123798273Y-85121995D01*
X123569465Y-85274880D01*
X123374880Y-85469465D01*
X123221995Y-85698273D01*
X123190000Y-85775515D01*
X123158005Y-85698273D01*
X123005120Y-85469465D01*
X122810535Y-85274880D01*
X122581727Y-85121995D01*
X122327490Y-85016686D01*
X122057592Y-84963000D01*
X121782408Y-84963000D01*
X121512510Y-85016686D01*
X121258273Y-85121995D01*
X121029465Y-85274880D01*
X120834880Y-85469465D01*
X120681995Y-85698273D01*
X120650000Y-85775515D01*
X120618005Y-85698273D01*
X120465120Y-85469465D01*
X120270535Y-85274880D01*
X120041727Y-85121995D01*
X119787490Y-85016686D01*
X119517592Y-84963000D01*
X119242408Y-84963000D01*
X118972510Y-85016686D01*
X118718273Y-85121995D01*
X118489465Y-85274880D01*
X118294880Y-85469465D01*
X118141995Y-85698273D01*
X118110000Y-85775515D01*
X118078005Y-85698273D01*
X117925120Y-85469465D01*
X117730535Y-85274880D01*
X117501727Y-85121995D01*
X117247490Y-85016686D01*
X116977592Y-84963000D01*
X116702408Y-84963000D01*
X116432510Y-85016686D01*
X116178273Y-85121995D01*
X115949465Y-85274880D01*
X115754880Y-85469465D01*
X115601995Y-85698273D01*
X115496686Y-85952510D01*
X115443000Y-86222408D01*
X110488000Y-86222408D01*
X110488000Y-86184318D01*
X110491676Y-86146995D01*
X110488000Y-86109672D01*
X110488000Y-86109663D01*
X110477003Y-85998010D01*
X110433546Y-85854749D01*
X110431008Y-85850000D01*
X110362974Y-85722719D01*
X110291799Y-85635993D01*
X110268001Y-85606995D01*
X110239004Y-85583198D01*
X104295806Y-79640000D01*
X110221928Y-79640000D01*
X110234188Y-79764482D01*
X110270498Y-79884180D01*
X110329463Y-79994494D01*
X110408815Y-80091185D01*
X110505506Y-80170537D01*
X110615820Y-80229502D01*
X110735518Y-80265812D01*
X110860000Y-80278072D01*
X111474250Y-80275000D01*
X111633000Y-80116250D01*
X111633000Y-78867000D01*
X110383750Y-78867000D01*
X110225000Y-79025750D01*
X110221928Y-79640000D01*
X104295806Y-79640000D01*
X103574001Y-78918196D01*
X103574001Y-77840000D01*
X110221928Y-77840000D01*
X110225000Y-78454250D01*
X110383750Y-78613000D01*
X111633000Y-78613000D01*
X111633000Y-77363750D01*
X111887000Y-77363750D01*
X111887000Y-78613000D01*
X111907000Y-78613000D01*
X111907000Y-78867000D01*
X111887000Y-78867000D01*
X111887000Y-80116250D01*
X112045750Y-80275000D01*
X112660000Y-80278072D01*
X112784482Y-80265812D01*
X112904180Y-80229502D01*
X113014494Y-80170537D01*
X113111185Y-80091185D01*
X113190537Y-79994494D01*
X113249502Y-79884180D01*
X113255056Y-79865873D01*
X113321495Y-79932312D01*
X113572905Y-80100299D01*
X113852257Y-80216011D01*
X114148816Y-80275000D01*
X114451184Y-80275000D01*
X114747743Y-80216011D01*
X115027095Y-80100299D01*
X115278505Y-79932312D01*
X115316817Y-79894000D01*
X136891928Y-79894000D01*
X136904188Y-80018482D01*
X136940498Y-80138180D01*
X136999463Y-80248494D01*
X137078815Y-80345185D01*
X137175506Y-80424537D01*
X137285820Y-80483502D01*
X137405518Y-80519812D01*
X137530000Y-80532072D01*
X138144250Y-80529000D01*
X138303000Y-80370250D01*
X138303000Y-79121000D01*
X137053750Y-79121000D01*
X136895000Y-79279750D01*
X136891928Y-79894000D01*
X115316817Y-79894000D01*
X115492312Y-79718505D01*
X115660299Y-79467095D01*
X115776011Y-79187743D01*
X115835000Y-78891184D01*
X115835000Y-78588816D01*
X115776011Y-78292257D01*
X115693890Y-78094000D01*
X136891928Y-78094000D01*
X136895000Y-78708250D01*
X137053750Y-78867000D01*
X138303000Y-78867000D01*
X138303000Y-77617750D01*
X138557000Y-77617750D01*
X138557000Y-78867000D01*
X138577000Y-78867000D01*
X138577000Y-79121000D01*
X138557000Y-79121000D01*
X138557000Y-80370250D01*
X138715750Y-80529000D01*
X139330000Y-80532072D01*
X139454482Y-80519812D01*
X139574180Y-80483502D01*
X139684494Y-80424537D01*
X139781185Y-80345185D01*
X139860537Y-80248494D01*
X139919502Y-80138180D01*
X139925056Y-80119873D01*
X139991495Y-80186312D01*
X140242905Y-80354299D01*
X140522257Y-80470011D01*
X140818816Y-80529000D01*
X141121184Y-80529000D01*
X141417743Y-80470011D01*
X141697095Y-80354299D01*
X141948505Y-80186312D01*
X142162312Y-79972505D01*
X142330299Y-79721095D01*
X142446011Y-79441743D01*
X142505000Y-79145184D01*
X142505000Y-78842816D01*
X142446011Y-78546257D01*
X142330299Y-78266905D01*
X142162312Y-78015495D01*
X141948505Y-77801688D01*
X141697095Y-77633701D01*
X141417743Y-77517989D01*
X141121184Y-77459000D01*
X140818816Y-77459000D01*
X140522257Y-77517989D01*
X140242905Y-77633701D01*
X139991495Y-77801688D01*
X139925056Y-77868127D01*
X139919502Y-77849820D01*
X139860537Y-77739506D01*
X139781185Y-77642815D01*
X139684494Y-77563463D01*
X139574180Y-77504498D01*
X139454482Y-77468188D01*
X139330000Y-77455928D01*
X138715750Y-77459000D01*
X138557000Y-77617750D01*
X138303000Y-77617750D01*
X138144250Y-77459000D01*
X137530000Y-77455928D01*
X137405518Y-77468188D01*
X137285820Y-77504498D01*
X137175506Y-77563463D01*
X137078815Y-77642815D01*
X136999463Y-77739506D01*
X136940498Y-77849820D01*
X136904188Y-77969518D01*
X136891928Y-78094000D01*
X115693890Y-78094000D01*
X115660299Y-78012905D01*
X115492312Y-77761495D01*
X115278505Y-77547688D01*
X115027095Y-77379701D01*
X114747743Y-77263989D01*
X114451184Y-77205000D01*
X114148816Y-77205000D01*
X113852257Y-77263989D01*
X113572905Y-77379701D01*
X113321495Y-77547688D01*
X113255056Y-77614127D01*
X113249502Y-77595820D01*
X113190537Y-77485506D01*
X113111185Y-77388815D01*
X113014494Y-77309463D01*
X112904180Y-77250498D01*
X112784482Y-77214188D01*
X112660000Y-77201928D01*
X112045750Y-77205000D01*
X111887000Y-77363750D01*
X111633000Y-77363750D01*
X111474250Y-77205000D01*
X110860000Y-77201928D01*
X110735518Y-77214188D01*
X110615820Y-77250498D01*
X110505506Y-77309463D01*
X110408815Y-77388815D01*
X110329463Y-77485506D01*
X110270498Y-77595820D01*
X110234188Y-77715518D01*
X110221928Y-77840000D01*
X103574001Y-77840000D01*
X103574001Y-73290000D01*
X110221928Y-73290000D01*
X110234188Y-73414482D01*
X110270498Y-73534180D01*
X110329463Y-73644494D01*
X110408815Y-73741185D01*
X110505506Y-73820537D01*
X110615820Y-73879502D01*
X110735518Y-73915812D01*
X110860000Y-73928072D01*
X111474250Y-73925000D01*
X111633000Y-73766250D01*
X111633000Y-72517000D01*
X110383750Y-72517000D01*
X110225000Y-72675750D01*
X110221928Y-73290000D01*
X103574001Y-73290000D01*
X103574001Y-72535121D01*
X103695466Y-72585434D01*
X103989899Y-72644000D01*
X104290101Y-72644000D01*
X104584534Y-72585434D01*
X104861885Y-72470551D01*
X105111493Y-72303768D01*
X105323768Y-72091493D01*
X105490551Y-71841885D01*
X105605434Y-71564534D01*
X105620259Y-71490000D01*
X110221928Y-71490000D01*
X110225000Y-72104250D01*
X110383750Y-72263000D01*
X111633000Y-72263000D01*
X111633000Y-71013750D01*
X111887000Y-71013750D01*
X111887000Y-72263000D01*
X111907000Y-72263000D01*
X111907000Y-72517000D01*
X111887000Y-72517000D01*
X111887000Y-73766250D01*
X112045750Y-73925000D01*
X112660000Y-73928072D01*
X112784482Y-73915812D01*
X112904180Y-73879502D01*
X113014494Y-73820537D01*
X113111185Y-73741185D01*
X113190537Y-73644494D01*
X113249502Y-73534180D01*
X113255056Y-73515873D01*
X113321495Y-73582312D01*
X113572905Y-73750299D01*
X113852257Y-73866011D01*
X114148816Y-73925000D01*
X114451184Y-73925000D01*
X114747743Y-73866011D01*
X115027095Y-73750299D01*
X115278505Y-73582312D01*
X115492312Y-73368505D01*
X115544767Y-73290000D01*
X136891928Y-73290000D01*
X136904188Y-73414482D01*
X136940498Y-73534180D01*
X136999463Y-73644494D01*
X137078815Y-73741185D01*
X137175506Y-73820537D01*
X137285820Y-73879502D01*
X137405518Y-73915812D01*
X137530000Y-73928072D01*
X138144250Y-73925000D01*
X138303000Y-73766250D01*
X138303000Y-72517000D01*
X137053750Y-72517000D01*
X136895000Y-72675750D01*
X136891928Y-73290000D01*
X115544767Y-73290000D01*
X115660299Y-73117095D01*
X115776011Y-72837743D01*
X115835000Y-72541184D01*
X115835000Y-72238816D01*
X115776011Y-71942257D01*
X115660299Y-71662905D01*
X115544768Y-71490000D01*
X136891928Y-71490000D01*
X136895000Y-72104250D01*
X137053750Y-72263000D01*
X138303000Y-72263000D01*
X138303000Y-71013750D01*
X138557000Y-71013750D01*
X138557000Y-72263000D01*
X138577000Y-72263000D01*
X138577000Y-72517000D01*
X138557000Y-72517000D01*
X138557000Y-73766250D01*
X138715750Y-73925000D01*
X139330000Y-73928072D01*
X139454482Y-73915812D01*
X139574180Y-73879502D01*
X139684494Y-73820537D01*
X139781185Y-73741185D01*
X139860537Y-73644494D01*
X139919502Y-73534180D01*
X139925056Y-73515873D01*
X139991495Y-73582312D01*
X140242905Y-73750299D01*
X140522257Y-73866011D01*
X140818816Y-73925000D01*
X141121184Y-73925000D01*
X141417743Y-73866011D01*
X141697095Y-73750299D01*
X141948505Y-73582312D01*
X142162312Y-73368505D01*
X142330299Y-73117095D01*
X142446011Y-72837743D01*
X142505000Y-72541184D01*
X142505000Y-72238816D01*
X142446011Y-71942257D01*
X142330299Y-71662905D01*
X142162312Y-71411495D01*
X141948505Y-71197688D01*
X141697095Y-71029701D01*
X141417743Y-70913989D01*
X141121184Y-70855000D01*
X140818816Y-70855000D01*
X140522257Y-70913989D01*
X140242905Y-71029701D01*
X139991495Y-71197688D01*
X139925056Y-71264127D01*
X139919502Y-71245820D01*
X139860537Y-71135506D01*
X139781185Y-71038815D01*
X139684494Y-70959463D01*
X139574180Y-70900498D01*
X139454482Y-70864188D01*
X139330000Y-70851928D01*
X138715750Y-70855000D01*
X138557000Y-71013750D01*
X138303000Y-71013750D01*
X138144250Y-70855000D01*
X137530000Y-70851928D01*
X137405518Y-70864188D01*
X137285820Y-70900498D01*
X137175506Y-70959463D01*
X137078815Y-71038815D01*
X136999463Y-71135506D01*
X136940498Y-71245820D01*
X136904188Y-71365518D01*
X136891928Y-71490000D01*
X115544768Y-71490000D01*
X115492312Y-71411495D01*
X115278505Y-71197688D01*
X115027095Y-71029701D01*
X114747743Y-70913989D01*
X114451184Y-70855000D01*
X114148816Y-70855000D01*
X113852257Y-70913989D01*
X113572905Y-71029701D01*
X113321495Y-71197688D01*
X113255056Y-71264127D01*
X113249502Y-71245820D01*
X113190537Y-71135506D01*
X113111185Y-71038815D01*
X113014494Y-70959463D01*
X112904180Y-70900498D01*
X112784482Y-70864188D01*
X112660000Y-70851928D01*
X112045750Y-70855000D01*
X111887000Y-71013750D01*
X111633000Y-71013750D01*
X111474250Y-70855000D01*
X110860000Y-70851928D01*
X110735518Y-70864188D01*
X110615820Y-70900498D01*
X110505506Y-70959463D01*
X110408815Y-71038815D01*
X110329463Y-71135506D01*
X110270498Y-71245820D01*
X110234188Y-71365518D01*
X110221928Y-71490000D01*
X105620259Y-71490000D01*
X105664000Y-71270101D01*
X105664000Y-70969899D01*
X105605434Y-70675466D01*
X105490551Y-70398115D01*
X105323768Y-70148507D01*
X105111493Y-69936232D01*
X104861885Y-69769449D01*
X104584534Y-69654566D01*
X104290101Y-69596000D01*
X104157016Y-69596000D01*
X104177322Y-69594000D01*
X104177333Y-69594000D01*
X104288986Y-69583003D01*
X104432247Y-69539546D01*
X104564276Y-69468974D01*
X104680001Y-69374001D01*
X104703804Y-69344997D01*
X107108801Y-66940000D01*
X110221928Y-66940000D01*
X110234188Y-67064482D01*
X110270498Y-67184180D01*
X110329463Y-67294494D01*
X110408815Y-67391185D01*
X110505506Y-67470537D01*
X110615820Y-67529502D01*
X110735518Y-67565812D01*
X110860000Y-67578072D01*
X111474250Y-67575000D01*
X111633000Y-67416250D01*
X111633000Y-66167000D01*
X110383750Y-66167000D01*
X110225000Y-66325750D01*
X110221928Y-66940000D01*
X107108801Y-66940000D01*
X108908801Y-65140000D01*
X110221928Y-65140000D01*
X110225000Y-65754250D01*
X110383750Y-65913000D01*
X111633000Y-65913000D01*
X111633000Y-64663750D01*
X111887000Y-64663750D01*
X111887000Y-65913000D01*
X111907000Y-65913000D01*
X111907000Y-66167000D01*
X111887000Y-66167000D01*
X111887000Y-67416250D01*
X112045750Y-67575000D01*
X112660000Y-67578072D01*
X112784482Y-67565812D01*
X112904180Y-67529502D01*
X113014494Y-67470537D01*
X113111185Y-67391185D01*
X113190537Y-67294494D01*
X113249502Y-67184180D01*
X113255056Y-67165873D01*
X113321495Y-67232312D01*
X113572905Y-67400299D01*
X113852257Y-67516011D01*
X114148816Y-67575000D01*
X114451184Y-67575000D01*
X114747743Y-67516011D01*
X115027095Y-67400299D01*
X115278505Y-67232312D01*
X115492312Y-67018505D01*
X115544767Y-66940000D01*
X136891928Y-66940000D01*
X136904188Y-67064482D01*
X136940498Y-67184180D01*
X136999463Y-67294494D01*
X137078815Y-67391185D01*
X137175506Y-67470537D01*
X137285820Y-67529502D01*
X137405518Y-67565812D01*
X137530000Y-67578072D01*
X138144250Y-67575000D01*
X138303000Y-67416250D01*
X138303000Y-66167000D01*
X137053750Y-66167000D01*
X136895000Y-66325750D01*
X136891928Y-66940000D01*
X115544767Y-66940000D01*
X115660299Y-66767095D01*
X115776011Y-66487743D01*
X115835000Y-66191184D01*
X115835000Y-65888816D01*
X115776011Y-65592257D01*
X115660299Y-65312905D01*
X115544768Y-65140000D01*
X136891928Y-65140000D01*
X136895000Y-65754250D01*
X137053750Y-65913000D01*
X138303000Y-65913000D01*
X138303000Y-64663750D01*
X138557000Y-64663750D01*
X138557000Y-65913000D01*
X138577000Y-65913000D01*
X138577000Y-66167000D01*
X138557000Y-66167000D01*
X138557000Y-67416250D01*
X138715750Y-67575000D01*
X139330000Y-67578072D01*
X139454482Y-67565812D01*
X139574180Y-67529502D01*
X139684494Y-67470537D01*
X139781185Y-67391185D01*
X139860537Y-67294494D01*
X139919502Y-67184180D01*
X139925056Y-67165873D01*
X139991495Y-67232312D01*
X140242905Y-67400299D01*
X140522257Y-67516011D01*
X140818816Y-67575000D01*
X141121184Y-67575000D01*
X141417743Y-67516011D01*
X141697095Y-67400299D01*
X141948505Y-67232312D01*
X142162312Y-67018505D01*
X142330299Y-66767095D01*
X142446011Y-66487743D01*
X142505000Y-66191184D01*
X142505000Y-65888816D01*
X142446011Y-65592257D01*
X142330299Y-65312905D01*
X142162312Y-65061495D01*
X141948505Y-64847688D01*
X141697095Y-64679701D01*
X141517749Y-64605413D01*
X170648192Y-64605413D01*
X170743956Y-64869814D01*
X171033571Y-65010704D01*
X171345108Y-65092384D01*
X171666595Y-65111718D01*
X171985675Y-65067961D01*
X172290088Y-64962795D01*
X172464044Y-64869814D01*
X172559808Y-64605413D01*
X171604000Y-63649605D01*
X170648192Y-64605413D01*
X141517749Y-64605413D01*
X141417743Y-64563989D01*
X141121184Y-64505000D01*
X140818816Y-64505000D01*
X140522257Y-64563989D01*
X140242905Y-64679701D01*
X139991495Y-64847688D01*
X139925056Y-64914127D01*
X139919502Y-64895820D01*
X139860537Y-64785506D01*
X139781185Y-64688815D01*
X139684494Y-64609463D01*
X139574180Y-64550498D01*
X139454482Y-64514188D01*
X139330000Y-64501928D01*
X138715750Y-64505000D01*
X138557000Y-64663750D01*
X138303000Y-64663750D01*
X138144250Y-64505000D01*
X137530000Y-64501928D01*
X137405518Y-64514188D01*
X137285820Y-64550498D01*
X137175506Y-64609463D01*
X137078815Y-64688815D01*
X136999463Y-64785506D01*
X136940498Y-64895820D01*
X136904188Y-65015518D01*
X136891928Y-65140000D01*
X115544768Y-65140000D01*
X115492312Y-65061495D01*
X115278505Y-64847688D01*
X115027095Y-64679701D01*
X114747743Y-64563989D01*
X114451184Y-64505000D01*
X114148816Y-64505000D01*
X113852257Y-64563989D01*
X113572905Y-64679701D01*
X113321495Y-64847688D01*
X113255056Y-64914127D01*
X113249502Y-64895820D01*
X113190537Y-64785506D01*
X113111185Y-64688815D01*
X113014494Y-64609463D01*
X112904180Y-64550498D01*
X112784482Y-64514188D01*
X112660000Y-64501928D01*
X112045750Y-64505000D01*
X111887000Y-64663750D01*
X111633000Y-64663750D01*
X111474250Y-64505000D01*
X110860000Y-64501928D01*
X110735518Y-64514188D01*
X110615820Y-64550498D01*
X110505506Y-64609463D01*
X110408815Y-64688815D01*
X110329463Y-64785506D01*
X110270498Y-64895820D01*
X110234188Y-65015518D01*
X110221928Y-65140000D01*
X108908801Y-65140000D01*
X111143803Y-62904999D01*
X170061873Y-62904999D01*
X169981616Y-63211108D01*
X169962282Y-63532595D01*
X170006039Y-63851675D01*
X170111205Y-64156088D01*
X170204186Y-64330044D01*
X170468587Y-64425808D01*
X171424395Y-63470000D01*
X171410253Y-63455858D01*
X171589858Y-63276253D01*
X171604000Y-63290395D01*
X171618143Y-63276253D01*
X171797748Y-63455858D01*
X171783605Y-63470000D01*
X172739413Y-64425808D01*
X173003814Y-64330044D01*
X173144704Y-64040429D01*
X173226384Y-63728892D01*
X173245718Y-63407405D01*
X173201961Y-63088325D01*
X173138627Y-62904999D01*
X182764198Y-62904999D01*
X182837823Y-62978624D01*
X182831832Y-62993088D01*
X182769000Y-63308967D01*
X182769000Y-63631033D01*
X182831832Y-63946912D01*
X182955082Y-64244463D01*
X183134013Y-64512252D01*
X183361748Y-64739987D01*
X183629537Y-64918918D01*
X183927088Y-65042168D01*
X184242967Y-65105000D01*
X184565033Y-65105000D01*
X184880912Y-65042168D01*
X185178463Y-64918918D01*
X185446252Y-64739987D01*
X185673987Y-64512252D01*
X185852918Y-64244463D01*
X185976168Y-63946912D01*
X186039000Y-63631033D01*
X186039000Y-63308967D01*
X185976168Y-62993088D01*
X185852918Y-62695537D01*
X185673987Y-62427748D01*
X185446252Y-62200013D01*
X185178463Y-62021082D01*
X184880912Y-61897832D01*
X184565033Y-61835000D01*
X184242967Y-61835000D01*
X183927088Y-61897832D01*
X183912624Y-61903823D01*
X183642802Y-61634001D01*
X183619000Y-61604998D01*
X183503275Y-61510025D01*
X183371246Y-61439453D01*
X183227985Y-61395996D01*
X183116332Y-61384999D01*
X183116321Y-61384999D01*
X183078999Y-61381323D01*
X183041677Y-61384999D01*
X110866324Y-61384999D01*
X110829001Y-61381323D01*
X110791678Y-61384999D01*
X110791668Y-61384999D01*
X110680015Y-61395996D01*
X110536754Y-61439453D01*
X110404724Y-61510025D01*
X110321084Y-61578667D01*
X110289000Y-61604998D01*
X110265202Y-61633996D01*
X103825199Y-68074000D01*
X100126087Y-68074000D01*
X100088764Y-68070324D01*
X100051441Y-68074000D01*
X100051432Y-68074000D01*
X99939779Y-68084997D01*
X99796518Y-68128454D01*
X99664489Y-68199026D01*
X99664487Y-68199027D01*
X99664488Y-68199027D01*
X99577761Y-68270201D01*
X99577757Y-68270205D01*
X99548764Y-68293999D01*
X99524970Y-68322992D01*
X98548998Y-69298966D01*
X98520000Y-69322764D01*
X98496202Y-69351762D01*
X98496201Y-69351763D01*
X98425026Y-69438489D01*
X98354454Y-69570519D01*
X98310998Y-69713780D01*
X98303218Y-69792766D01*
X98088507Y-69936232D01*
X97876232Y-70148507D01*
X97709449Y-70398115D01*
X97594566Y-70675466D01*
X97536000Y-70969899D01*
X97536000Y-71270101D01*
X97594566Y-71564534D01*
X97709449Y-71841885D01*
X97876232Y-72091493D01*
X98088507Y-72303768D01*
X98338115Y-72470551D01*
X98615466Y-72585434D01*
X98909899Y-72644000D01*
X99210101Y-72644000D01*
X99504534Y-72585434D01*
X99781885Y-72470551D01*
X100031493Y-72303768D01*
X100243768Y-72091493D01*
X100330000Y-71962438D01*
X100416232Y-72091493D01*
X100628507Y-72303768D01*
X100878115Y-72470551D01*
X101155466Y-72585434D01*
X101449899Y-72644000D01*
X101750101Y-72644000D01*
X101999575Y-72594377D01*
X102054002Y-72648804D01*
X102054001Y-79195674D01*
X102050325Y-79232997D01*
X102054001Y-79270319D01*
X102054001Y-79270329D01*
X102064998Y-79381982D01*
X102108455Y-79525243D01*
X102179027Y-79657273D01*
X102218872Y-79705823D01*
X102274000Y-79772998D01*
X102303004Y-79796801D01*
X106165534Y-83659331D01*
X105998691Y-83675764D01*
X105728192Y-83757818D01*
X105478899Y-83891068D01*
X105260392Y-84070392D01*
X105081068Y-84288899D01*
X104947818Y-84538192D01*
X104865764Y-84808691D01*
X104838057Y-85090000D01*
X104865764Y-85371309D01*
X104947818Y-85641808D01*
X105081068Y-85891101D01*
X105260392Y-86109608D01*
X105478899Y-86288932D01*
X105611858Y-86360000D01*
X105478899Y-86431068D01*
X105260392Y-86610392D01*
X105081068Y-86828899D01*
X104947818Y-87078192D01*
X104865764Y-87348691D01*
X104838057Y-87630000D01*
X104865764Y-87911309D01*
X104947818Y-88181808D01*
X105081068Y-88431101D01*
X105260392Y-88649608D01*
X105478899Y-88828932D01*
X105611858Y-88900000D01*
X105478899Y-88971068D01*
X105260392Y-89150392D01*
X105081068Y-89368899D01*
X104947818Y-89618192D01*
X104865764Y-89888691D01*
X104838057Y-90170000D01*
X104865764Y-90451309D01*
X104947818Y-90721808D01*
X105081068Y-90971101D01*
X105260392Y-91189608D01*
X105478899Y-91368932D01*
X105611858Y-91440000D01*
X105478899Y-91511068D01*
X105260392Y-91690392D01*
X105081068Y-91908899D01*
X104947818Y-92158192D01*
X104865764Y-92428691D01*
X104838057Y-92710000D01*
X104865764Y-92991309D01*
X104891154Y-93075010D01*
X103293812Y-93075010D01*
X102106000Y-91887199D01*
X102106000Y-89553325D01*
X102109676Y-89516000D01*
X102106000Y-89478675D01*
X102106000Y-89478667D01*
X102095003Y-89367014D01*
X102051546Y-89223753D01*
X101980974Y-89091724D01*
X101886001Y-88975999D01*
X101857003Y-88952201D01*
X100860708Y-87955906D01*
X100874236Y-87911309D01*
X100901943Y-87630000D01*
X100874236Y-87348691D01*
X100792182Y-87078192D01*
X100658932Y-86828899D01*
X100479608Y-86610392D01*
X100366518Y-86517581D01*
X100384482Y-86515812D01*
X100504180Y-86479502D01*
X100614494Y-86420537D01*
X100711185Y-86341185D01*
X100790537Y-86244494D01*
X100849502Y-86134180D01*
X100885812Y-86014482D01*
X100898072Y-85890000D01*
X100898072Y-84290000D01*
X100885812Y-84165518D01*
X100849502Y-84045820D01*
X100790537Y-83935506D01*
X100711185Y-83838815D01*
X100614494Y-83759463D01*
X100504180Y-83700498D01*
X100384482Y-83664188D01*
X100260000Y-83651928D01*
X97860000Y-83651928D01*
X97735518Y-83664188D01*
X97615820Y-83700498D01*
X97505506Y-83759463D01*
X97408815Y-83838815D01*
X97329463Y-83935506D01*
X97270498Y-84045820D01*
X97234188Y-84165518D01*
X97221928Y-84290000D01*
X97221928Y-84435674D01*
X97185724Y-84455026D01*
X97069999Y-84549999D01*
X97046200Y-84578998D01*
X96517002Y-85108197D01*
X96487999Y-85131999D01*
X96432871Y-85199174D01*
X96393026Y-85247724D01*
X96378511Y-85274880D01*
X96322454Y-85379754D01*
X96278997Y-85523015D01*
X96268000Y-85634668D01*
X96268000Y-85634678D01*
X96264324Y-85672000D01*
X95910000Y-85672000D01*
X95910000Y-63349899D01*
X97536000Y-63349899D01*
X97536000Y-63650101D01*
X97594566Y-63944534D01*
X97709449Y-64221885D01*
X97876232Y-64471493D01*
X98088507Y-64683768D01*
X98338115Y-64850551D01*
X98615466Y-64965434D01*
X98909899Y-65024000D01*
X99210101Y-65024000D01*
X99504534Y-64965434D01*
X99781885Y-64850551D01*
X100031493Y-64683768D01*
X100243768Y-64471493D01*
X100410551Y-64221885D01*
X100525434Y-63944534D01*
X100584000Y-63650101D01*
X100584000Y-63349899D01*
X102616000Y-63349899D01*
X102616000Y-63650101D01*
X102674566Y-63944534D01*
X102789449Y-64221885D01*
X102956232Y-64471493D01*
X103168507Y-64683768D01*
X103418115Y-64850551D01*
X103695466Y-64965434D01*
X103989899Y-65024000D01*
X104290101Y-65024000D01*
X104584534Y-64965434D01*
X104861885Y-64850551D01*
X105111493Y-64683768D01*
X105323768Y-64471493D01*
X105490551Y-64221885D01*
X105605434Y-63944534D01*
X105664000Y-63650101D01*
X105664000Y-63349899D01*
X105605434Y-63055466D01*
X105490551Y-62778115D01*
X105323768Y-62528507D01*
X105111493Y-62316232D01*
X104861885Y-62149449D01*
X104584534Y-62034566D01*
X104290101Y-61976000D01*
X103989899Y-61976000D01*
X103695466Y-62034566D01*
X103418115Y-62149449D01*
X103168507Y-62316232D01*
X102956232Y-62528507D01*
X102789449Y-62778115D01*
X102674566Y-63055466D01*
X102616000Y-63349899D01*
X100584000Y-63349899D01*
X100525434Y-63055466D01*
X100410551Y-62778115D01*
X100243768Y-62528507D01*
X100031493Y-62316232D01*
X99781885Y-62149449D01*
X99504534Y-62034566D01*
X99210101Y-61976000D01*
X98909899Y-61976000D01*
X98615466Y-62034566D01*
X98338115Y-62149449D01*
X98088507Y-62316232D01*
X97876232Y-62528507D01*
X97709449Y-62778115D01*
X97594566Y-63055466D01*
X97536000Y-63349899D01*
X95910000Y-63349899D01*
X95910000Y-60350000D01*
X193920001Y-60350000D01*
X193920000Y-158090000D01*
X193920000Y-158090000D01*
G37*
X193920000Y-158090000D02*
X103277572Y-158090000D01*
X103277572Y-155182000D01*
X95910000Y-155182000D01*
X95910000Y-85672000D01*
X96264324Y-85672000D01*
X96268000Y-85709322D01*
X96268001Y-112951671D01*
X96264324Y-112989004D01*
X96268001Y-113026337D01*
X96278998Y-113137990D01*
X96292180Y-113181446D01*
X96322454Y-113281250D01*
X96393026Y-113413280D01*
X96464196Y-113500000D01*
X96488000Y-113529005D01*
X96516998Y-113552803D01*
X98554000Y-115589806D01*
X98554001Y-145758667D01*
X98550324Y-145796000D01*
X98564998Y-145944985D01*
X98608454Y-146088246D01*
X98679026Y-146220276D01*
X98744776Y-146300392D01*
X98774000Y-146336001D01*
X98802998Y-146359799D01*
X100274205Y-147831008D01*
X100297999Y-147860001D01*
X100326992Y-147883795D01*
X100326996Y-147883799D01*
X100390960Y-147936292D01*
X100413724Y-147954974D01*
X100545753Y-148025546D01*
X100689014Y-148069003D01*
X100800667Y-148080000D01*
X100800676Y-148080000D01*
X100837999Y-148083676D01*
X100875322Y-148080000D01*
X114984099Y-148080000D01*
X115006068Y-148121101D01*
X115185392Y-148339608D01*
X115403899Y-148518932D01*
X115536858Y-148590000D01*
X115403899Y-148661068D01*
X115185392Y-148840392D01*
X115006068Y-149058899D01*
X114872818Y-149308192D01*
X114790764Y-149578691D01*
X114763057Y-149860000D01*
X114790764Y-150141309D01*
X114872818Y-150411808D01*
X115006068Y-150661101D01*
X115185392Y-150879608D01*
X115403899Y-151058932D01*
X115653192Y-151192182D01*
X115923691Y-151274236D01*
X116134508Y-151295000D01*
X116275492Y-151295000D01*
X116486309Y-151274236D01*
X116756808Y-151192182D01*
X117006101Y-151058932D01*
X117224608Y-150879608D01*
X117403932Y-150661101D01*
X117537182Y-150411808D01*
X117619236Y-150141309D01*
X117646943Y-149860000D01*
X117619236Y-149578691D01*
X117537182Y-149308192D01*
X117403932Y-149058899D01*
X117224608Y-148840392D01*
X117006101Y-148661068D01*
X116873142Y-148590000D01*
X117006101Y-148518932D01*
X117224608Y-148339608D01*
X117403932Y-148121101D01*
X117537182Y-147871808D01*
X117619236Y-147601309D01*
X117646943Y-147320000D01*
X117619236Y-147038691D01*
X117537182Y-146768192D01*
X117403932Y-146518899D01*
X117224608Y-146300392D01*
X117006101Y-146121068D01*
X116873142Y-146050000D01*
X117006101Y-145978932D01*
X117224608Y-145799608D01*
X117403932Y-145581101D01*
X117537182Y-145331808D01*
X117619236Y-145061309D01*
X117646943Y-144780000D01*
X117619236Y-144498691D01*
X117537182Y-144228192D01*
X117403932Y-143978899D01*
X117224608Y-143760392D01*
X117006101Y-143581068D01*
X116873142Y-143510000D01*
X117006101Y-143438932D01*
X117224608Y-143259608D01*
X117403932Y-143041101D01*
X117537182Y-142791808D01*
X117619236Y-142521309D01*
X117646943Y-142240000D01*
X117644402Y-142214204D01*
X118874000Y-143443802D01*
X118874001Y-150584668D01*
X118870324Y-150622000D01*
X118884998Y-150770985D01*
X118928454Y-150914246D01*
X118999026Y-151046276D01*
X119070201Y-151133002D01*
X119094000Y-151162001D01*
X119122998Y-151185799D01*
X122372201Y-154435003D01*
X122395999Y-154464001D01*
X122511724Y-154558974D01*
X122643753Y-154629546D01*
X122787014Y-154673003D01*
X122898667Y-154684000D01*
X122898676Y-154684000D01*
X122935999Y-154687676D01*
X122973322Y-154684000D01*
X170653678Y-154684000D01*
X170691000Y-154687676D01*
X170728322Y-154684000D01*
X170728333Y-154684000D01*
X170839986Y-154673003D01*
X170983247Y-154629546D01*
X171115276Y-154558974D01*
X171231001Y-154464001D01*
X171254804Y-154434997D01*
X174131114Y-151558688D01*
X174313665Y-151595000D01*
X174596335Y-151595000D01*
X174873574Y-151539853D01*
X175134727Y-151431680D01*
X175369759Y-151274637D01*
X175491694Y-151152702D01*
X176411903Y-151152702D01*
X176483486Y-151396671D01*
X176738996Y-151517571D01*
X177013184Y-151586300D01*
X177295512Y-151600217D01*
X177575130Y-151558787D01*
X177841292Y-151463603D01*
X177966514Y-151396671D01*
X178038097Y-151152702D01*
X177225000Y-150339605D01*
X176411903Y-151152702D01*
X175491694Y-151152702D01*
X175569637Y-151074759D01*
X175726680Y-150839727D01*
X175834853Y-150578574D01*
X175840513Y-150550118D01*
X175921397Y-150776292D01*
X175988329Y-150901514D01*
X176232298Y-150973097D01*
X177045395Y-150160000D01*
X177404605Y-150160000D01*
X178217702Y-150973097D01*
X178461671Y-150901514D01*
X178582571Y-150646004D01*
X178608212Y-150543711D01*
X178615147Y-150578574D01*
X178723320Y-150839727D01*
X178880363Y-151074759D01*
X179080241Y-151274637D01*
X179315273Y-151431680D01*
X179576426Y-151539853D01*
X179853665Y-151595000D01*
X180136335Y-151595000D01*
X180413574Y-151539853D01*
X180674727Y-151431680D01*
X180909759Y-151274637D01*
X181109637Y-151074759D01*
X181266680Y-150839727D01*
X181374853Y-150578574D01*
X181380000Y-150552699D01*
X181385147Y-150578574D01*
X181493320Y-150839727D01*
X181650363Y-151074759D01*
X181850241Y-151274637D01*
X182085273Y-151431680D01*
X182346426Y-151539853D01*
X182623665Y-151595000D01*
X182906335Y-151595000D01*
X183183574Y-151539853D01*
X183444727Y-151431680D01*
X183679759Y-151274637D01*
X183879637Y-151074759D01*
X184036680Y-150839727D01*
X184144853Y-150578574D01*
X184200000Y-150301335D01*
X184200000Y-150018665D01*
X184144853Y-149741426D01*
X184036680Y-149480273D01*
X183879637Y-149245241D01*
X183679759Y-149045363D01*
X183444727Y-148888320D01*
X183183574Y-148780147D01*
X182906335Y-148725000D01*
X182623665Y-148725000D01*
X182346426Y-148780147D01*
X182085273Y-148888320D01*
X181850241Y-149045363D01*
X181650363Y-149245241D01*
X181493320Y-149480273D01*
X181385147Y-149741426D01*
X181380000Y-149767301D01*
X181374853Y-149741426D01*
X181266680Y-149480273D01*
X181109637Y-149245241D01*
X180909759Y-149045363D01*
X180674727Y-148888320D01*
X180413574Y-148780147D01*
X180136335Y-148725000D01*
X179853665Y-148725000D01*
X179576426Y-148780147D01*
X179315273Y-148888320D01*
X179080241Y-149045363D01*
X178880363Y-149245241D01*
X178723320Y-149480273D01*
X178615147Y-149741426D01*
X178609487Y-149769882D01*
X178528603Y-149543708D01*
X178461671Y-149418486D01*
X178217702Y-149346903D01*
X177404605Y-150160000D01*
X177045395Y-150160000D01*
X176232298Y-149346903D01*
X175988329Y-149418486D01*
X175867429Y-149673996D01*
X175841788Y-149776289D01*
X175834853Y-149741426D01*
X175726680Y-149480273D01*
X175569637Y-149245241D01*
X175491694Y-149167298D01*
X176411903Y-149167298D01*
X177225000Y-149980395D01*
X178038097Y-149167298D01*
X177966514Y-148923329D01*
X177711004Y-148802429D01*
X177436816Y-148733700D01*
X177154488Y-148719783D01*
X176874870Y-148761213D01*
X176608708Y-148856397D01*
X176483486Y-148923329D01*
X176411903Y-149167298D01*
X175491694Y-149167298D01*
X175369759Y-149045363D01*
X175134727Y-148888320D01*
X174873574Y-148780147D01*
X174596335Y-148725000D01*
X174313665Y-148725000D01*
X174036426Y-148780147D01*
X173775273Y-148888320D01*
X173540241Y-149045363D01*
X173340363Y-149245241D01*
X173183320Y-149480273D01*
X173075147Y-149741426D01*
X173020000Y-150018665D01*
X173020000Y-150301335D01*
X173056312Y-150483886D01*
X170376199Y-153164000D01*
X123250802Y-153164000D01*
X120394000Y-150307199D01*
X120394000Y-143166322D01*
X120397676Y-143128999D01*
X120394000Y-143091676D01*
X120394000Y-143091667D01*
X120383003Y-142980014D01*
X120339546Y-142836753D01*
X120268974Y-142704724D01*
X120174001Y-142588999D01*
X120145004Y-142565202D01*
X117605708Y-140025906D01*
X117619236Y-139981309D01*
X117646943Y-139700000D01*
X117619236Y-139418691D01*
X117537182Y-139148192D01*
X117403932Y-138898899D01*
X117224608Y-138680392D01*
X117006101Y-138501068D01*
X116873142Y-138430000D01*
X117006101Y-138358932D01*
X117224608Y-138179608D01*
X117403932Y-137961101D01*
X117537182Y-137711808D01*
X117619236Y-137441309D01*
X117646943Y-137160000D01*
X117619236Y-136878691D01*
X117537182Y-136608192D01*
X117403932Y-136358899D01*
X117224608Y-136140392D01*
X117006101Y-135961068D01*
X116873142Y-135890000D01*
X117006101Y-135818932D01*
X117224608Y-135639608D01*
X117403932Y-135421101D01*
X117537182Y-135171808D01*
X117619236Y-134901309D01*
X117646943Y-134620000D01*
X117619236Y-134338691D01*
X117537182Y-134068192D01*
X117403932Y-133818899D01*
X117224608Y-133600392D01*
X117006101Y-133421068D01*
X116873142Y-133350000D01*
X117006101Y-133278932D01*
X117224608Y-133099608D01*
X117403932Y-132881101D01*
X117537182Y-132631808D01*
X117619236Y-132361309D01*
X117646943Y-132080000D01*
X117619236Y-131798691D01*
X117537182Y-131528192D01*
X117403932Y-131278899D01*
X117224608Y-131060392D01*
X117006101Y-130881068D01*
X116873142Y-130810000D01*
X117006101Y-130738932D01*
X117224608Y-130559608D01*
X117403932Y-130341101D01*
X117537182Y-130091808D01*
X117619236Y-129821309D01*
X117646943Y-129540000D01*
X117619236Y-129258691D01*
X117537182Y-128988192D01*
X117403932Y-128738899D01*
X117224608Y-128520392D01*
X117006101Y-128341068D01*
X116873142Y-128270000D01*
X117006101Y-128198932D01*
X117224608Y-128019608D01*
X117403932Y-127801101D01*
X117537182Y-127551808D01*
X117619236Y-127281309D01*
X117646943Y-127000000D01*
X117619236Y-126718691D01*
X117537182Y-126448192D01*
X117403932Y-126198899D01*
X117224608Y-125980392D01*
X117006101Y-125801068D01*
X116873142Y-125730000D01*
X117006101Y-125658932D01*
X117224608Y-125479608D01*
X117403932Y-125261101D01*
X117537182Y-125011808D01*
X117619236Y-124741309D01*
X117646943Y-124460000D01*
X117619236Y-124178691D01*
X117537182Y-123908192D01*
X117403932Y-123658899D01*
X117224608Y-123440392D01*
X117006101Y-123261068D01*
X116868318Y-123187421D01*
X117060131Y-123072385D01*
X117268519Y-122883414D01*
X117436037Y-122657420D01*
X117556246Y-122403087D01*
X117596904Y-122269039D01*
X117474915Y-122047000D01*
X116332000Y-122047000D01*
X116332000Y-122067000D01*
X116078000Y-122067000D01*
X116078000Y-122047000D01*
X114935085Y-122047000D01*
X114813096Y-122269039D01*
X114853754Y-122403087D01*
X114973963Y-122657420D01*
X115141481Y-122883414D01*
X115349869Y-123072385D01*
X115541682Y-123187421D01*
X115403899Y-123261068D01*
X115185392Y-123440392D01*
X115006068Y-123658899D01*
X114872818Y-123908192D01*
X114790764Y-124178691D01*
X114763057Y-124460000D01*
X114790764Y-124741309D01*
X114872818Y-125011808D01*
X115006068Y-125261101D01*
X115185392Y-125479608D01*
X115403899Y-125658932D01*
X115536858Y-125730000D01*
X115403899Y-125801068D01*
X115185392Y-125980392D01*
X115006068Y-126198899D01*
X114872818Y-126448192D01*
X114790764Y-126718691D01*
X114763057Y-127000000D01*
X114790764Y-127281309D01*
X114872818Y-127551808D01*
X115006068Y-127801101D01*
X115185392Y-128019608D01*
X115403899Y-128198932D01*
X115536858Y-128270000D01*
X115403899Y-128341068D01*
X115185392Y-128520392D01*
X115006068Y-128738899D01*
X114872818Y-128988192D01*
X114790764Y-129258691D01*
X114763057Y-129540000D01*
X114790764Y-129821309D01*
X114872818Y-130091808D01*
X115006068Y-130341101D01*
X115185392Y-130559608D01*
X115403899Y-130738932D01*
X115536858Y-130810000D01*
X115403899Y-130881068D01*
X115185392Y-131060392D01*
X115006068Y-131278899D01*
X114872818Y-131528192D01*
X114790764Y-131798691D01*
X114763057Y-132080000D01*
X114790764Y-132361309D01*
X114872818Y-132631808D01*
X115006068Y-132881101D01*
X115185392Y-133099608D01*
X115403899Y-133278932D01*
X115536858Y-133350000D01*
X115403899Y-133421068D01*
X115185392Y-133600392D01*
X115006068Y-133818899D01*
X114872818Y-134068192D01*
X114790764Y-134338691D01*
X114763057Y-134620000D01*
X114789763Y-134891150D01*
X114727334Y-134885001D01*
X114727323Y-134885001D01*
X114690001Y-134881325D01*
X114652679Y-134885001D01*
X110020442Y-134885001D01*
X110047000Y-134751486D01*
X110047000Y-134488514D01*
X109995696Y-134230595D01*
X109895061Y-133987641D01*
X109748962Y-133768987D01*
X109563013Y-133583038D01*
X109344359Y-133436939D01*
X109134470Y-133350000D01*
X109344359Y-133263061D01*
X109563013Y-133116962D01*
X109748962Y-132931013D01*
X109895061Y-132712359D01*
X109995696Y-132469405D01*
X110047000Y-132211486D01*
X110047000Y-131948514D01*
X109995696Y-131690595D01*
X109895061Y-131447641D01*
X109748962Y-131228987D01*
X109563013Y-131043038D01*
X109344359Y-130896939D01*
X109134470Y-130810000D01*
X109344359Y-130723061D01*
X109563013Y-130576962D01*
X109748962Y-130391013D01*
X109895061Y-130172359D01*
X109995696Y-129929405D01*
X110047000Y-129671486D01*
X110047000Y-129408514D01*
X109995696Y-129150595D01*
X109895061Y-128907641D01*
X109748962Y-128688987D01*
X109563013Y-128503038D01*
X109344359Y-128356939D01*
X109134470Y-128270000D01*
X109344359Y-128183061D01*
X109563013Y-128036962D01*
X109748962Y-127851013D01*
X109895061Y-127632359D01*
X109995696Y-127389405D01*
X110047000Y-127131486D01*
X110047000Y-126868514D01*
X109995696Y-126610595D01*
X109895061Y-126367641D01*
X109748962Y-126148987D01*
X109563013Y-125963038D01*
X109344359Y-125816939D01*
X109134470Y-125730000D01*
X109344359Y-125643061D01*
X109563013Y-125496962D01*
X109748962Y-125311013D01*
X109895061Y-125092359D01*
X109995696Y-124849405D01*
X110047000Y-124591486D01*
X110047000Y-124328514D01*
X109995696Y-124070595D01*
X109895061Y-123827641D01*
X109748962Y-123608987D01*
X109563013Y-123423038D01*
X109344359Y-123276939D01*
X109134470Y-123190000D01*
X109344359Y-123103061D01*
X109563013Y-122956962D01*
X109748962Y-122771013D01*
X109895061Y-122552359D01*
X109995696Y-122309405D01*
X110047000Y-122051486D01*
X110047000Y-121788514D01*
X109995696Y-121530595D01*
X109945789Y-121410110D01*
X109981999Y-121413676D01*
X110019322Y-121410000D01*
X114866474Y-121410000D01*
X114853754Y-121436913D01*
X114813096Y-121570961D01*
X114935085Y-121793000D01*
X116078000Y-121793000D01*
X116078000Y-121773000D01*
X116332000Y-121773000D01*
X116332000Y-121793000D01*
X117474915Y-121793000D01*
X117596904Y-121570961D01*
X117556246Y-121436913D01*
X117543526Y-121410000D01*
X129860199Y-121410000D01*
X130044292Y-121594094D01*
X130030764Y-121638691D01*
X130003057Y-121920000D01*
X130030764Y-122201309D01*
X130112818Y-122471808D01*
X130246068Y-122721101D01*
X130425392Y-122939608D01*
X130643899Y-123118932D01*
X130776858Y-123190000D01*
X130643899Y-123261068D01*
X130425392Y-123440392D01*
X130246068Y-123658899D01*
X130112818Y-123908192D01*
X130030764Y-124178691D01*
X130003057Y-124460000D01*
X130030764Y-124741309D01*
X130112818Y-125011808D01*
X130246068Y-125261101D01*
X130425392Y-125479608D01*
X130643899Y-125658932D01*
X130776858Y-125730000D01*
X130643899Y-125801068D01*
X130425392Y-125980392D01*
X130246068Y-126198899D01*
X130112818Y-126448192D01*
X130030764Y-126718691D01*
X130003057Y-127000000D01*
X130030764Y-127281309D01*
X130112818Y-127551808D01*
X130246068Y-127801101D01*
X130425392Y-128019608D01*
X130643899Y-128198932D01*
X130776858Y-128270000D01*
X130643899Y-128341068D01*
X130425392Y-128520392D01*
X130246068Y-128738899D01*
X130112818Y-128988192D01*
X130030764Y-129258691D01*
X130003057Y-129540000D01*
X130030764Y-129821309D01*
X130112818Y-130091808D01*
X130246068Y-130341101D01*
X130425392Y-130559608D01*
X130643899Y-130738932D01*
X130776858Y-130810000D01*
X130643899Y-130881068D01*
X130425392Y-131060392D01*
X130246068Y-131278899D01*
X130112818Y-131528192D01*
X130030764Y-131798691D01*
X130003057Y-132080000D01*
X130030764Y-132361309D01*
X130112818Y-132631808D01*
X130246068Y-132881101D01*
X130425392Y-133099608D01*
X130643899Y-133278932D01*
X130776858Y-133350000D01*
X130643899Y-133421068D01*
X130425392Y-133600392D01*
X130246068Y-133818899D01*
X130112818Y-134068192D01*
X130030764Y-134338691D01*
X130003057Y-134620000D01*
X130030764Y-134901309D01*
X130112818Y-135171808D01*
X130246068Y-135421101D01*
X130425392Y-135639608D01*
X130643899Y-135818932D01*
X130776858Y-135890000D01*
X130643899Y-135961068D01*
X130425392Y-136140392D01*
X130246068Y-136358899D01*
X130112818Y-136608192D01*
X130030764Y-136878691D01*
X130003057Y-137160000D01*
X130030764Y-137441309D01*
X130112818Y-137711808D01*
X130246068Y-137961101D01*
X130425392Y-138179608D01*
X130643899Y-138358932D01*
X130776858Y-138430000D01*
X130643899Y-138501068D01*
X130425392Y-138680392D01*
X130246068Y-138898899D01*
X130224099Y-138940000D01*
X129577322Y-138940000D01*
X129539999Y-138936324D01*
X129502676Y-138940000D01*
X129502667Y-138940000D01*
X129391014Y-138950997D01*
X129247753Y-138994454D01*
X129115724Y-139065026D01*
X128999999Y-139159999D01*
X128976200Y-139188998D01*
X128520998Y-139644201D01*
X128492000Y-139667999D01*
X128468202Y-139696997D01*
X128468201Y-139696998D01*
X128397026Y-139783724D01*
X128326454Y-139915754D01*
X128282998Y-140059015D01*
X128268324Y-140208000D01*
X128272001Y-140245332D01*
X128272000Y-142710677D01*
X128268324Y-142748000D01*
X128272000Y-142785322D01*
X128272000Y-142785332D01*
X128282997Y-142896985D01*
X128309779Y-142985275D01*
X128326454Y-143040246D01*
X128397026Y-143172276D01*
X128436871Y-143220826D01*
X128491999Y-143288001D01*
X128521002Y-143311803D01*
X129375199Y-144166001D01*
X129398998Y-144195000D01*
X129514723Y-144289973D01*
X129646752Y-144360545D01*
X129790013Y-144404002D01*
X129901666Y-144414999D01*
X129901675Y-144414999D01*
X129938998Y-144418675D01*
X129976321Y-144414999D01*
X130056151Y-144414999D01*
X130030764Y-144498691D01*
X130003057Y-144780000D01*
X130030764Y-145061309D01*
X130112818Y-145331808D01*
X130246068Y-145581101D01*
X130425392Y-145799608D01*
X130643899Y-145978932D01*
X130776858Y-146050000D01*
X130643899Y-146121068D01*
X130425392Y-146300392D01*
X130246068Y-146518899D01*
X130112818Y-146768192D01*
X130030764Y-147038691D01*
X130003057Y-147320000D01*
X130030764Y-147601309D01*
X130112818Y-147871808D01*
X130246068Y-148121101D01*
X130425392Y-148339608D01*
X130643899Y-148518932D01*
X130776858Y-148590000D01*
X130643899Y-148661068D01*
X130425392Y-148840392D01*
X130246068Y-149058899D01*
X130112818Y-149308192D01*
X130030764Y-149578691D01*
X130003057Y-149860000D01*
X130030764Y-150141309D01*
X130112818Y-150411808D01*
X130246068Y-150661101D01*
X130425392Y-150879608D01*
X130643899Y-151058932D01*
X130893192Y-151192182D01*
X131163691Y-151274236D01*
X131374508Y-151295000D01*
X131515492Y-151295000D01*
X131726309Y-151274236D01*
X131996808Y-151192182D01*
X132246101Y-151058932D01*
X132464608Y-150879608D01*
X132643932Y-150661101D01*
X132777182Y-150411808D01*
X132859236Y-150141309D01*
X132886943Y-149860000D01*
X132859236Y-149578691D01*
X132777182Y-149308192D01*
X132643932Y-149058899D01*
X132464608Y-148840392D01*
X132246101Y-148661068D01*
X132113142Y-148590000D01*
X132246101Y-148518932D01*
X132292961Y-148480475D01*
X163475000Y-148480475D01*
X163475000Y-148999525D01*
X163576261Y-149508601D01*
X163774893Y-149988141D01*
X164063262Y-150419715D01*
X164430285Y-150786738D01*
X164861859Y-151075107D01*
X165341399Y-151273739D01*
X165850475Y-151375000D01*
X166369525Y-151375000D01*
X166878601Y-151273739D01*
X167358141Y-151075107D01*
X167789715Y-150786738D01*
X168156738Y-150419715D01*
X168445107Y-149988141D01*
X168643739Y-149508601D01*
X168745000Y-148999525D01*
X168745000Y-148480475D01*
X168643739Y-147971399D01*
X168445107Y-147491859D01*
X168235838Y-147178665D01*
X171635000Y-147178665D01*
X171635000Y-147461335D01*
X171690147Y-147738574D01*
X171798320Y-147999727D01*
X171955363Y-148234759D01*
X172155241Y-148434637D01*
X172390273Y-148591680D01*
X172651426Y-148699853D01*
X172928665Y-148755000D01*
X173211335Y-148755000D01*
X173488574Y-148699853D01*
X173749727Y-148591680D01*
X173984759Y-148434637D01*
X174106694Y-148312702D01*
X175026903Y-148312702D01*
X175098486Y-148556671D01*
X175353996Y-148677571D01*
X175628184Y-148746300D01*
X175910512Y-148760217D01*
X176190130Y-148718787D01*
X176456292Y-148623603D01*
X176581514Y-148556671D01*
X176653097Y-148312702D01*
X175840000Y-147499605D01*
X175026903Y-148312702D01*
X174106694Y-148312702D01*
X174184637Y-148234759D01*
X174341680Y-147999727D01*
X174449853Y-147738574D01*
X174455513Y-147710118D01*
X174536397Y-147936292D01*
X174603329Y-148061514D01*
X174847298Y-148133097D01*
X175660395Y-147320000D01*
X174847298Y-146506903D01*
X174603329Y-146578486D01*
X174482429Y-146833996D01*
X174456788Y-146936289D01*
X174449853Y-146901426D01*
X174341680Y-146640273D01*
X174184637Y-146405241D01*
X174106694Y-146327298D01*
X175026903Y-146327298D01*
X175840000Y-147140395D01*
X176653097Y-146327298D01*
X176581514Y-146083329D01*
X176326004Y-145962429D01*
X176051816Y-145893700D01*
X175769488Y-145879783D01*
X175489870Y-145921213D01*
X175223708Y-146016397D01*
X175098486Y-146083329D01*
X175026903Y-146327298D01*
X174106694Y-146327298D01*
X173984759Y-146205363D01*
X173749727Y-146048320D01*
X173488574Y-145940147D01*
X173211335Y-145885000D01*
X172928665Y-145885000D01*
X172651426Y-145940147D01*
X172390273Y-146048320D01*
X172155241Y-146205363D01*
X171955363Y-146405241D01*
X171798320Y-146640273D01*
X171690147Y-146901426D01*
X171635000Y-147178665D01*
X168235838Y-147178665D01*
X168156738Y-147060285D01*
X167789715Y-146693262D01*
X167358141Y-146404893D01*
X166878601Y-146206261D01*
X166369525Y-146105000D01*
X165850475Y-146105000D01*
X165341399Y-146206261D01*
X164861859Y-146404893D01*
X164430285Y-146693262D01*
X164063262Y-147060285D01*
X163774893Y-147491859D01*
X163576261Y-147971399D01*
X163475000Y-148480475D01*
X132292961Y-148480475D01*
X132464608Y-148339608D01*
X132643932Y-148121101D01*
X132777182Y-147871808D01*
X132859236Y-147601309D01*
X132886943Y-147320000D01*
X132859236Y-147038691D01*
X132777182Y-146768192D01*
X132643932Y-146518899D01*
X132464608Y-146300392D01*
X132246101Y-146121068D01*
X132113142Y-146050000D01*
X132246101Y-145978932D01*
X132464608Y-145799608D01*
X132643932Y-145581101D01*
X132777182Y-145331808D01*
X132859236Y-145061309D01*
X132886943Y-144780000D01*
X132859236Y-144498691D01*
X132833849Y-144414999D01*
X177400198Y-144414999D01*
X178899713Y-145914515D01*
X178751335Y-145885000D01*
X178468665Y-145885000D01*
X178191426Y-145940147D01*
X177930273Y-146048320D01*
X177695241Y-146205363D01*
X177495363Y-146405241D01*
X177338320Y-146640273D01*
X177230147Y-146901426D01*
X177224487Y-146929882D01*
X177143603Y-146703708D01*
X177076671Y-146578486D01*
X176832702Y-146506903D01*
X176019605Y-147320000D01*
X176832702Y-148133097D01*
X177076671Y-148061514D01*
X177197571Y-147806004D01*
X177223212Y-147703711D01*
X177230147Y-147738574D01*
X177338320Y-147999727D01*
X177495363Y-148234759D01*
X177695241Y-148434637D01*
X177930273Y-148591680D01*
X178191426Y-148699853D01*
X178468665Y-148755000D01*
X178751335Y-148755000D01*
X179028574Y-148699853D01*
X179289727Y-148591680D01*
X179524759Y-148434637D01*
X179724637Y-148234759D01*
X179881680Y-147999727D01*
X179989853Y-147738574D01*
X179995000Y-147712699D01*
X180000147Y-147738574D01*
X180108320Y-147999727D01*
X180265363Y-148234759D01*
X180465241Y-148434637D01*
X180700273Y-148591680D01*
X180961426Y-148699853D01*
X181238665Y-148755000D01*
X181521335Y-148755000D01*
X181798574Y-148699853D01*
X182059727Y-148591680D01*
X182294759Y-148434637D01*
X182494637Y-148234759D01*
X182651680Y-147999727D01*
X182711928Y-147854275D01*
X182711928Y-148120000D01*
X182724188Y-148244482D01*
X182760498Y-148364180D01*
X182819463Y-148474494D01*
X182898815Y-148571185D01*
X182995506Y-148650537D01*
X183105820Y-148709502D01*
X183225518Y-148745812D01*
X183350000Y-148758072D01*
X184950000Y-148758072D01*
X185074482Y-148745812D01*
X185194180Y-148709502D01*
X185304494Y-148650537D01*
X185401185Y-148571185D01*
X185475628Y-148480475D01*
X188475000Y-148480475D01*
X188475000Y-148999525D01*
X188576261Y-149508601D01*
X188774893Y-149988141D01*
X189063262Y-150419715D01*
X189430285Y-150786738D01*
X189861859Y-151075107D01*
X190341399Y-151273739D01*
X190850475Y-151375000D01*
X191369525Y-151375000D01*
X191878601Y-151273739D01*
X192358141Y-151075107D01*
X192789715Y-150786738D01*
X193156738Y-150419715D01*
X193445107Y-149988141D01*
X193643739Y-149508601D01*
X193745000Y-148999525D01*
X193745000Y-148480475D01*
X193643739Y-147971399D01*
X193445107Y-147491859D01*
X193156738Y-147060285D01*
X192789715Y-146693262D01*
X192358141Y-146404893D01*
X191878601Y-146206261D01*
X191369525Y-146105000D01*
X190850475Y-146105000D01*
X190341399Y-146206261D01*
X189861859Y-146404893D01*
X189430285Y-146693262D01*
X189063262Y-147060285D01*
X188774893Y-147491859D01*
X188576261Y-147971399D01*
X188475000Y-148480475D01*
X185475628Y-148480475D01*
X185480537Y-148474494D01*
X185539502Y-148364180D01*
X185575812Y-148244482D01*
X185588072Y-148120000D01*
X185588072Y-146520000D01*
X185575812Y-146395518D01*
X185539502Y-146275820D01*
X185480537Y-146165506D01*
X185401185Y-146068815D01*
X185304494Y-145989463D01*
X185194180Y-145930498D01*
X185074482Y-145894188D01*
X184950000Y-145881928D01*
X184804326Y-145881928D01*
X184784974Y-145845724D01*
X184690001Y-145729999D01*
X184661004Y-145706202D01*
X180683804Y-141729003D01*
X180660001Y-141699999D01*
X180544276Y-141605026D01*
X180412247Y-141534454D01*
X180268986Y-141490997D01*
X180157333Y-141480000D01*
X180157322Y-141480000D01*
X180120000Y-141476324D01*
X180082678Y-141480000D01*
X132665901Y-141480000D01*
X132643932Y-141438899D01*
X132464608Y-141220392D01*
X132246101Y-141041068D01*
X132113142Y-140970000D01*
X132246101Y-140898932D01*
X132464608Y-140719608D01*
X132643932Y-140501101D01*
X132777182Y-140251808D01*
X132859236Y-139981309D01*
X132886943Y-139700000D01*
X132859236Y-139418691D01*
X132777182Y-139148192D01*
X132643932Y-138898899D01*
X132464608Y-138680392D01*
X132246101Y-138501068D01*
X132113142Y-138430000D01*
X132246101Y-138358932D01*
X132464608Y-138179608D01*
X132643932Y-137961101D01*
X132777182Y-137711808D01*
X132859236Y-137441309D01*
X132886943Y-137160000D01*
X132859236Y-136878691D01*
X132777182Y-136608192D01*
X132643932Y-136358899D01*
X132464608Y-136140392D01*
X132246101Y-135961068D01*
X132113142Y-135890000D01*
X132246101Y-135818932D01*
X132464608Y-135639608D01*
X132643932Y-135421101D01*
X132777182Y-135171808D01*
X132859236Y-134901309D01*
X132886943Y-134620000D01*
X132859236Y-134338691D01*
X132777182Y-134068192D01*
X132643932Y-133818899D01*
X132464608Y-133600392D01*
X132246101Y-133421068D01*
X132113142Y-133350000D01*
X132246101Y-133278932D01*
X132464608Y-133099608D01*
X132643932Y-132881101D01*
X132777182Y-132631808D01*
X132859236Y-132361309D01*
X132886943Y-132080000D01*
X132859236Y-131798691D01*
X132777182Y-131528192D01*
X132643932Y-131278899D01*
X132464608Y-131060392D01*
X132246101Y-130881068D01*
X132113142Y-130810000D01*
X132246101Y-130738932D01*
X132342403Y-130659899D01*
X139446000Y-130659899D01*
X139446000Y-130960101D01*
X139504566Y-131254534D01*
X139619449Y-131531885D01*
X139786232Y-131781493D01*
X139998507Y-131993768D01*
X140248115Y-132160551D01*
X140525466Y-132275434D01*
X140819899Y-132334000D01*
X141120101Y-132334000D01*
X141414534Y-132275434D01*
X141691885Y-132160551D01*
X141941493Y-131993768D01*
X142153768Y-131781493D01*
X142320551Y-131531885D01*
X142435434Y-131254534D01*
X142494000Y-130960101D01*
X142494000Y-130659899D01*
X142469120Y-130534815D01*
X143256000Y-130534815D01*
X143256000Y-131085185D01*
X143363372Y-131624980D01*
X143573989Y-132133455D01*
X143879758Y-132591071D01*
X144268929Y-132980242D01*
X144726545Y-133286011D01*
X145235020Y-133496628D01*
X145774815Y-133604000D01*
X146325185Y-133604000D01*
X146864980Y-133496628D01*
X147373455Y-133286011D01*
X147831071Y-132980242D01*
X148220242Y-132591071D01*
X148526011Y-132133455D01*
X148736628Y-131624980D01*
X148844000Y-131085185D01*
X148844000Y-130659899D01*
X149606000Y-130659899D01*
X149606000Y-130960101D01*
X149664566Y-131254534D01*
X149779449Y-131531885D01*
X149946232Y-131781493D01*
X150158507Y-131993768D01*
X150408115Y-132160551D01*
X150685466Y-132275434D01*
X150979899Y-132334000D01*
X151280101Y-132334000D01*
X151574534Y-132275434D01*
X151851885Y-132160551D01*
X152101493Y-131993768D01*
X152313768Y-131781493D01*
X152480551Y-131531885D01*
X152595434Y-131254534D01*
X152654000Y-130960101D01*
X152654000Y-130659899D01*
X152595434Y-130365466D01*
X152480551Y-130088115D01*
X152313768Y-129838507D01*
X152101493Y-129626232D01*
X151851885Y-129459449D01*
X151574534Y-129344566D01*
X151280101Y-129286000D01*
X150979899Y-129286000D01*
X150685466Y-129344566D01*
X150408115Y-129459449D01*
X150158507Y-129626232D01*
X149946232Y-129838507D01*
X149779449Y-130088115D01*
X149664566Y-130365466D01*
X149606000Y-130659899D01*
X148844000Y-130659899D01*
X148844000Y-130534815D01*
X148736628Y-129995020D01*
X148526011Y-129486545D01*
X148220242Y-129028929D01*
X147831071Y-128639758D01*
X147373455Y-128333989D01*
X146864980Y-128123372D01*
X146325185Y-128016000D01*
X145774815Y-128016000D01*
X145235020Y-128123372D01*
X144726545Y-128333989D01*
X144268929Y-128639758D01*
X143879758Y-129028929D01*
X143573989Y-129486545D01*
X143363372Y-129995020D01*
X143256000Y-130534815D01*
X142469120Y-130534815D01*
X142435434Y-130365466D01*
X142320551Y-130088115D01*
X142153768Y-129838507D01*
X141941493Y-129626232D01*
X141691885Y-129459449D01*
X141414534Y-129344566D01*
X141120101Y-129286000D01*
X140819899Y-129286000D01*
X140525466Y-129344566D01*
X140248115Y-129459449D01*
X139998507Y-129626232D01*
X139786232Y-129838507D01*
X139619449Y-130088115D01*
X139504566Y-130365466D01*
X139446000Y-130659899D01*
X132342403Y-130659899D01*
X132464608Y-130559608D01*
X132643932Y-130341101D01*
X132777182Y-130091808D01*
X132859236Y-129821309D01*
X132886943Y-129540000D01*
X132859236Y-129258691D01*
X132777182Y-128988192D01*
X132643932Y-128738899D01*
X132464608Y-128520392D01*
X132246101Y-128341068D01*
X132113142Y-128270000D01*
X132246101Y-128198932D01*
X132464608Y-128019608D01*
X132643932Y-127801101D01*
X132777182Y-127551808D01*
X132859236Y-127281309D01*
X132886943Y-127000000D01*
X132868464Y-126812374D01*
X140335000Y-126812374D01*
X140335000Y-127187626D01*
X140408209Y-127555668D01*
X140551811Y-127902356D01*
X140760290Y-128214366D01*
X141025634Y-128479710D01*
X141337644Y-128688189D01*
X141684332Y-128831791D01*
X142052374Y-128905000D01*
X142427626Y-128905000D01*
X142795668Y-128831791D01*
X143142356Y-128688189D01*
X143454366Y-128479710D01*
X143719710Y-128214366D01*
X143928189Y-127902356D01*
X144071791Y-127555668D01*
X144145000Y-127187626D01*
X144145000Y-126812374D01*
X144071791Y-126444332D01*
X143928189Y-126097644D01*
X143719710Y-125785634D01*
X143454366Y-125520290D01*
X143142356Y-125311811D01*
X142795668Y-125168209D01*
X142427626Y-125095000D01*
X142052374Y-125095000D01*
X141684332Y-125168209D01*
X141337644Y-125311811D01*
X141025634Y-125520290D01*
X140760290Y-125785634D01*
X140551811Y-126097644D01*
X140408209Y-126444332D01*
X140335000Y-126812374D01*
X132868464Y-126812374D01*
X132859236Y-126718691D01*
X132777182Y-126448192D01*
X132643932Y-126198899D01*
X132464608Y-125980392D01*
X132246101Y-125801068D01*
X132113142Y-125730000D01*
X132246101Y-125658932D01*
X132464608Y-125479608D01*
X132643932Y-125261101D01*
X132777182Y-125011808D01*
X132859236Y-124741309D01*
X132886943Y-124460000D01*
X132859236Y-124178691D01*
X132777182Y-123908192D01*
X132643932Y-123658899D01*
X132464608Y-123440392D01*
X132246101Y-123261068D01*
X132113142Y-123190000D01*
X132246101Y-123118932D01*
X132464608Y-122939608D01*
X132643932Y-122721101D01*
X132665901Y-122680000D01*
X141671199Y-122680000D01*
X143962201Y-124971003D01*
X143986000Y-125000002D01*
X144101725Y-125094975D01*
X144233754Y-125165547D01*
X144377015Y-125209004D01*
X144488668Y-125220001D01*
X144488678Y-125220001D01*
X144526001Y-125223677D01*
X144563324Y-125220001D01*
X146749125Y-125220001D01*
X146685000Y-125542374D01*
X146685000Y-125917626D01*
X146758209Y-126285668D01*
X146901811Y-126632356D01*
X147110290Y-126944366D01*
X147375634Y-127209710D01*
X147687644Y-127418189D01*
X148034332Y-127561791D01*
X148402374Y-127635000D01*
X148777626Y-127635000D01*
X149145668Y-127561791D01*
X149492356Y-127418189D01*
X149804366Y-127209710D01*
X150069710Y-126944366D01*
X150278189Y-126632356D01*
X150421791Y-126285668D01*
X150495000Y-125917626D01*
X150495000Y-125661802D01*
X154667000Y-129833802D01*
X154667000Y-129895939D01*
X154706774Y-130095898D01*
X154784795Y-130284256D01*
X154898063Y-130453774D01*
X155042226Y-130597937D01*
X155211744Y-130711205D01*
X155400102Y-130789226D01*
X155600061Y-130829000D01*
X155803939Y-130829000D01*
X156003898Y-130789226D01*
X156192256Y-130711205D01*
X156269041Y-130659899D01*
X159766000Y-130659899D01*
X159766000Y-130960101D01*
X159824566Y-131254534D01*
X159939449Y-131531885D01*
X160106232Y-131781493D01*
X160318507Y-131993768D01*
X160568115Y-132160551D01*
X160845466Y-132275434D01*
X161139899Y-132334000D01*
X161440101Y-132334000D01*
X161734534Y-132275434D01*
X162011885Y-132160551D01*
X162261493Y-131993768D01*
X162473768Y-131781493D01*
X162640551Y-131531885D01*
X162755434Y-131254534D01*
X162814000Y-130960101D01*
X162814000Y-130659899D01*
X162789120Y-130534815D01*
X163576000Y-130534815D01*
X163576000Y-131085185D01*
X163683372Y-131624980D01*
X163893989Y-132133455D01*
X164199758Y-132591071D01*
X164588929Y-132980242D01*
X165046545Y-133286011D01*
X165555020Y-133496628D01*
X166094815Y-133604000D01*
X166645185Y-133604000D01*
X167184980Y-133496628D01*
X167693455Y-133286011D01*
X168151071Y-132980242D01*
X168540242Y-132591071D01*
X168846011Y-132133455D01*
X169056628Y-131624980D01*
X169164000Y-131085185D01*
X169164000Y-130659899D01*
X169926000Y-130659899D01*
X169926000Y-130960101D01*
X169984566Y-131254534D01*
X170099449Y-131531885D01*
X170266232Y-131781493D01*
X170478507Y-131993768D01*
X170728115Y-132160551D01*
X171005466Y-132275434D01*
X171299899Y-132334000D01*
X171600101Y-132334000D01*
X171894534Y-132275434D01*
X172171885Y-132160551D01*
X172421493Y-131993768D01*
X172633768Y-131781493D01*
X172800551Y-131531885D01*
X172915434Y-131254534D01*
X172974000Y-130960101D01*
X172974000Y-130659899D01*
X180086000Y-130659899D01*
X180086000Y-130960101D01*
X180144566Y-131254534D01*
X180259449Y-131531885D01*
X180426232Y-131781493D01*
X180638507Y-131993768D01*
X180888115Y-132160551D01*
X181165466Y-132275434D01*
X181459899Y-132334000D01*
X181760101Y-132334000D01*
X182054534Y-132275434D01*
X182331885Y-132160551D01*
X182581493Y-131993768D01*
X182793768Y-131781493D01*
X182960551Y-131531885D01*
X183075434Y-131254534D01*
X183134000Y-130960101D01*
X183134000Y-130659899D01*
X183109120Y-130534815D01*
X183896000Y-130534815D01*
X183896000Y-131085185D01*
X184003372Y-131624980D01*
X184213989Y-132133455D01*
X184519758Y-132591071D01*
X184908929Y-132980242D01*
X185366545Y-133286011D01*
X185875020Y-133496628D01*
X186414815Y-133604000D01*
X186965185Y-133604000D01*
X187504980Y-133496628D01*
X188013455Y-133286011D01*
X188471071Y-132980242D01*
X188860242Y-132591071D01*
X189166011Y-132133455D01*
X189376628Y-131624980D01*
X189484000Y-131085185D01*
X189484000Y-130659899D01*
X190246000Y-130659899D01*
X190246000Y-130960101D01*
X190304566Y-131254534D01*
X190419449Y-131531885D01*
X190586232Y-131781493D01*
X190798507Y-131993768D01*
X191048115Y-132160551D01*
X191325466Y-132275434D01*
X191619899Y-132334000D01*
X191920101Y-132334000D01*
X192214534Y-132275434D01*
X192491885Y-132160551D01*
X192741493Y-131993768D01*
X192953768Y-131781493D01*
X193120551Y-131531885D01*
X193235434Y-131254534D01*
X193294000Y-130960101D01*
X193294000Y-130659899D01*
X193235434Y-130365466D01*
X193120551Y-130088115D01*
X192953768Y-129838507D01*
X192741493Y-129626232D01*
X192491885Y-129459449D01*
X192214534Y-129344566D01*
X191920101Y-129286000D01*
X191619899Y-129286000D01*
X191325466Y-129344566D01*
X191048115Y-129459449D01*
X190798507Y-129626232D01*
X190586232Y-129838507D01*
X190419449Y-130088115D01*
X190304566Y-130365466D01*
X190246000Y-130659899D01*
X189484000Y-130659899D01*
X189484000Y-130534815D01*
X189376628Y-129995020D01*
X189166011Y-129486545D01*
X188860242Y-129028929D01*
X188471071Y-128639758D01*
X188013455Y-128333989D01*
X187504980Y-128123372D01*
X186965185Y-128016000D01*
X186414815Y-128016000D01*
X185875020Y-128123372D01*
X185366545Y-128333989D01*
X184908929Y-128639758D01*
X184519758Y-129028929D01*
X184213989Y-129486545D01*
X184003372Y-129995020D01*
X183896000Y-130534815D01*
X183109120Y-130534815D01*
X183075434Y-130365466D01*
X182960551Y-130088115D01*
X182793768Y-129838507D01*
X182581493Y-129626232D01*
X182331885Y-129459449D01*
X182054534Y-129344566D01*
X181760101Y-129286000D01*
X181459899Y-129286000D01*
X181165466Y-129344566D01*
X180888115Y-129459449D01*
X180638507Y-129626232D01*
X180426232Y-129838507D01*
X180259449Y-130088115D01*
X180144566Y-130365466D01*
X180086000Y-130659899D01*
X172974000Y-130659899D01*
X172915434Y-130365466D01*
X172800551Y-130088115D01*
X172633768Y-129838507D01*
X172421493Y-129626232D01*
X172171885Y-129459449D01*
X171894534Y-129344566D01*
X171600101Y-129286000D01*
X171299899Y-129286000D01*
X171005466Y-129344566D01*
X170728115Y-129459449D01*
X170478507Y-129626232D01*
X170266232Y-129838507D01*
X170099449Y-130088115D01*
X169984566Y-130365466D01*
X169926000Y-130659899D01*
X169164000Y-130659899D01*
X169164000Y-130534815D01*
X169056628Y-129995020D01*
X168846011Y-129486545D01*
X168540242Y-129028929D01*
X168151071Y-128639758D01*
X167693455Y-128333989D01*
X167184980Y-128123372D01*
X166645185Y-128016000D01*
X166094815Y-128016000D01*
X165555020Y-128123372D01*
X165046545Y-128333989D01*
X164588929Y-128639758D01*
X164199758Y-129028929D01*
X163893989Y-129486545D01*
X163683372Y-129995020D01*
X163576000Y-130534815D01*
X162789120Y-130534815D01*
X162755434Y-130365466D01*
X162640551Y-130088115D01*
X162473768Y-129838507D01*
X162261493Y-129626232D01*
X162011885Y-129459449D01*
X161734534Y-129344566D01*
X161440101Y-129286000D01*
X161139899Y-129286000D01*
X160845466Y-129344566D01*
X160568115Y-129459449D01*
X160318507Y-129626232D01*
X160106232Y-129838507D01*
X159939449Y-130088115D01*
X159824566Y-130365466D01*
X159766000Y-130659899D01*
X156269041Y-130659899D01*
X156361774Y-130597937D01*
X156505937Y-130453774D01*
X156619205Y-130284256D01*
X156697226Y-130095898D01*
X156737000Y-129895939D01*
X156737000Y-129692061D01*
X156697226Y-129492102D01*
X156619205Y-129303744D01*
X156505937Y-129134226D01*
X156361774Y-128990063D01*
X156192256Y-128876795D01*
X156003898Y-128798774D01*
X155803939Y-128759000D01*
X155741802Y-128759000D01*
X153795176Y-126812374D01*
X160655000Y-126812374D01*
X160655000Y-127187626D01*
X160728209Y-127555668D01*
X160871811Y-127902356D01*
X161080290Y-128214366D01*
X161345634Y-128479710D01*
X161657644Y-128688189D01*
X162004332Y-128831791D01*
X162372374Y-128905000D01*
X162747626Y-128905000D01*
X163115668Y-128831791D01*
X163462356Y-128688189D01*
X163774366Y-128479710D01*
X164039710Y-128214366D01*
X164248189Y-127902356D01*
X164391791Y-127555668D01*
X164465000Y-127187626D01*
X164465000Y-126812374D01*
X164391791Y-126444332D01*
X164248189Y-126097644D01*
X164039710Y-125785634D01*
X163796450Y-125542374D01*
X167005000Y-125542374D01*
X167005000Y-125917626D01*
X167078209Y-126285668D01*
X167221811Y-126632356D01*
X167430290Y-126944366D01*
X167695634Y-127209710D01*
X168007644Y-127418189D01*
X168354332Y-127561791D01*
X168722374Y-127635000D01*
X169097626Y-127635000D01*
X169465668Y-127561791D01*
X169812356Y-127418189D01*
X170124366Y-127209710D01*
X170389710Y-126944366D01*
X170477904Y-126812374D01*
X180975000Y-126812374D01*
X180975000Y-127187626D01*
X181048209Y-127555668D01*
X181191811Y-127902356D01*
X181400290Y-128214366D01*
X181665634Y-128479710D01*
X181977644Y-128688189D01*
X182324332Y-128831791D01*
X182692374Y-128905000D01*
X183067626Y-128905000D01*
X183435668Y-128831791D01*
X183782356Y-128688189D01*
X184094366Y-128479710D01*
X184359710Y-128214366D01*
X184568189Y-127902356D01*
X184711791Y-127555668D01*
X184785000Y-127187626D01*
X184785000Y-126812374D01*
X184711791Y-126444332D01*
X184568189Y-126097644D01*
X184359710Y-125785634D01*
X184116450Y-125542374D01*
X187325000Y-125542374D01*
X187325000Y-125917626D01*
X187398209Y-126285668D01*
X187541811Y-126632356D01*
X187750290Y-126944366D01*
X188015634Y-127209710D01*
X188327644Y-127418189D01*
X188674332Y-127561791D01*
X189042374Y-127635000D01*
X189417626Y-127635000D01*
X189785668Y-127561791D01*
X190132356Y-127418189D01*
X190444366Y-127209710D01*
X190709710Y-126944366D01*
X190918189Y-126632356D01*
X191061791Y-126285668D01*
X191135000Y-125917626D01*
X191135000Y-125542374D01*
X191061791Y-125174332D01*
X190918189Y-124827644D01*
X190709710Y-124515634D01*
X190444366Y-124250290D01*
X190132356Y-124041811D01*
X189785668Y-123898209D01*
X189417626Y-123825000D01*
X189042374Y-123825000D01*
X188674332Y-123898209D01*
X188327644Y-124041811D01*
X188015634Y-124250290D01*
X187750290Y-124515634D01*
X187541811Y-124827644D01*
X187398209Y-125174332D01*
X187325000Y-125542374D01*
X184116450Y-125542374D01*
X184094366Y-125520290D01*
X183782356Y-125311811D01*
X183435668Y-125168209D01*
X183067626Y-125095000D01*
X182692374Y-125095000D01*
X182324332Y-125168209D01*
X181977644Y-125311811D01*
X181665634Y-125520290D01*
X181400290Y-125785634D01*
X181191811Y-126097644D01*
X181048209Y-126444332D01*
X180975000Y-126812374D01*
X170477904Y-126812374D01*
X170598189Y-126632356D01*
X170741791Y-126285668D01*
X170815000Y-125917626D01*
X170815000Y-125542374D01*
X170741791Y-125174332D01*
X170598189Y-124827644D01*
X170389710Y-124515634D01*
X170124366Y-124250290D01*
X169812356Y-124041811D01*
X169465668Y-123898209D01*
X169097626Y-123825000D01*
X168722374Y-123825000D01*
X168354332Y-123898209D01*
X168007644Y-124041811D01*
X167695634Y-124250290D01*
X167430290Y-124515634D01*
X167221811Y-124827644D01*
X167078209Y-125174332D01*
X167005000Y-125542374D01*
X163796450Y-125542374D01*
X163774366Y-125520290D01*
X163462356Y-125311811D01*
X163115668Y-125168209D01*
X162747626Y-125095000D01*
X162372374Y-125095000D01*
X162004332Y-125168209D01*
X161657644Y-125311811D01*
X161345634Y-125520290D01*
X161080290Y-125785634D01*
X160871811Y-126097644D01*
X160728209Y-126444332D01*
X160655000Y-126812374D01*
X153795176Y-126812374D01*
X140771804Y-113789003D01*
X140771799Y-113788997D01*
X136650000Y-109667199D01*
X136650000Y-96218563D01*
X136653676Y-96181238D01*
X136650000Y-96143913D01*
X136650000Y-96143905D01*
X136639003Y-96032252D01*
X136595546Y-95888991D01*
X136524974Y-95756962D01*
X136430001Y-95641237D01*
X136401004Y-95617440D01*
X133657566Y-92874003D01*
X133633763Y-92844999D01*
X133518038Y-92750026D01*
X133386009Y-92679454D01*
X133242748Y-92635997D01*
X133131095Y-92625000D01*
X133131084Y-92625000D01*
X133093762Y-92621324D01*
X133056440Y-92625000D01*
X111479802Y-92625000D01*
X110488000Y-91633199D01*
X110488000Y-89910475D01*
X151769000Y-89910475D01*
X151769000Y-90429525D01*
X151870261Y-90938601D01*
X152068893Y-91418141D01*
X152357262Y-91849715D01*
X152724285Y-92216738D01*
X153155859Y-92505107D01*
X153635399Y-92703739D01*
X154144475Y-92805000D01*
X154663525Y-92805000D01*
X155172601Y-92703739D01*
X155652141Y-92505107D01*
X156083715Y-92216738D01*
X156450738Y-91849715D01*
X156739107Y-91418141D01*
X156937739Y-90938601D01*
X157039000Y-90429525D01*
X157039000Y-89910475D01*
X181769000Y-89910475D01*
X181769000Y-90429525D01*
X181870261Y-90938601D01*
X182068893Y-91418141D01*
X182357262Y-91849715D01*
X182724285Y-92216738D01*
X183155859Y-92505107D01*
X183635399Y-92703739D01*
X184144475Y-92805000D01*
X184663525Y-92805000D01*
X185172601Y-92703739D01*
X185652141Y-92505107D01*
X186083715Y-92216738D01*
X186450738Y-91849715D01*
X186739107Y-91418141D01*
X186937739Y-90938601D01*
X187039000Y-90429525D01*
X187039000Y-89910475D01*
X186937739Y-89401399D01*
X186739107Y-88921859D01*
X186450738Y-88490285D01*
X186083715Y-88123262D01*
X185652141Y-87834893D01*
X185172601Y-87636261D01*
X184663525Y-87535000D01*
X184144475Y-87535000D01*
X183635399Y-87636261D01*
X183155859Y-87834893D01*
X182724285Y-88123262D01*
X182357262Y-88490285D01*
X182068893Y-88921859D01*
X181870261Y-89401399D01*
X181769000Y-89910475D01*
X157039000Y-89910475D01*
X156937739Y-89401399D01*
X156739107Y-88921859D01*
X156450738Y-88490285D01*
X156083715Y-88123262D01*
X155652141Y-87834893D01*
X155172601Y-87636261D01*
X154663525Y-87535000D01*
X154144475Y-87535000D01*
X153635399Y-87636261D01*
X153155859Y-87834893D01*
X152724285Y-88123262D01*
X152357262Y-88490285D01*
X152068893Y-88921859D01*
X151870261Y-89401399D01*
X151769000Y-89910475D01*
X110488000Y-89910475D01*
X110488000Y-86222408D01*
X115443000Y-86222408D01*
X115443000Y-86497592D01*
X115496686Y-86767490D01*
X115601995Y-87021727D01*
X115754880Y-87250535D01*
X115949465Y-87445120D01*
X116178273Y-87598005D01*
X116432510Y-87703314D01*
X116702408Y-87757000D01*
X116977592Y-87757000D01*
X117247490Y-87703314D01*
X117501727Y-87598005D01*
X117730535Y-87445120D01*
X117925120Y-87250535D01*
X118078005Y-87021727D01*
X118110000Y-86944485D01*
X118141995Y-87021727D01*
X118294880Y-87250535D01*
X118489465Y-87445120D01*
X118718273Y-87598005D01*
X118972510Y-87703314D01*
X119242408Y-87757000D01*
X119517592Y-87757000D01*
X119787490Y-87703314D01*
X120041727Y-87598005D01*
X120270535Y-87445120D01*
X120465120Y-87250535D01*
X120618005Y-87021727D01*
X120650000Y-86944485D01*
X120681995Y-87021727D01*
X120834880Y-87250535D01*
X121029465Y-87445120D01*
X121258273Y-87598005D01*
X121512510Y-87703314D01*
X121782408Y-87757000D01*
X122057592Y-87757000D01*
X122327490Y-87703314D01*
X122581727Y-87598005D01*
X122810535Y-87445120D01*
X123005120Y-87250535D01*
X123158005Y-87021727D01*
X123190000Y-86944485D01*
X123221995Y-87021727D01*
X123374880Y-87250535D01*
X123569465Y-87445120D01*
X123798273Y-87598005D01*
X124052510Y-87703314D01*
X124322408Y-87757000D01*
X124597592Y-87757000D01*
X124867490Y-87703314D01*
X125121727Y-87598005D01*
X125350535Y-87445120D01*
X125545120Y-87250535D01*
X125698005Y-87021727D01*
X125730000Y-86944485D01*
X125761995Y-87021727D01*
X125914880Y-87250535D01*
X126109465Y-87445120D01*
X126338273Y-87598005D01*
X126592510Y-87703314D01*
X126862408Y-87757000D01*
X127137592Y-87757000D01*
X127407490Y-87703314D01*
X127661727Y-87598005D01*
X127890535Y-87445120D01*
X128085120Y-87250535D01*
X128238005Y-87021727D01*
X128270000Y-86944485D01*
X128301995Y-87021727D01*
X128454880Y-87250535D01*
X128649465Y-87445120D01*
X128878273Y-87598005D01*
X129132510Y-87703314D01*
X129402408Y-87757000D01*
X129677592Y-87757000D01*
X129947490Y-87703314D01*
X130201727Y-87598005D01*
X130430535Y-87445120D01*
X130625120Y-87250535D01*
X130778005Y-87021727D01*
X130810000Y-86944485D01*
X130841995Y-87021727D01*
X130994880Y-87250535D01*
X131189465Y-87445120D01*
X131418273Y-87598005D01*
X131672510Y-87703314D01*
X131942408Y-87757000D01*
X132217592Y-87757000D01*
X132487490Y-87703314D01*
X132741727Y-87598005D01*
X132970535Y-87445120D01*
X133165120Y-87250535D01*
X133318005Y-87021727D01*
X133350000Y-86944485D01*
X133381995Y-87021727D01*
X133534880Y-87250535D01*
X133729465Y-87445120D01*
X133958273Y-87598005D01*
X134212510Y-87703314D01*
X134482408Y-87757000D01*
X134757592Y-87757000D01*
X135027490Y-87703314D01*
X135281727Y-87598005D01*
X135510535Y-87445120D01*
X135705120Y-87250535D01*
X135858005Y-87021727D01*
X135963314Y-86767490D01*
X136017000Y-86497592D01*
X136017000Y-86222408D01*
X135963314Y-85952510D01*
X135858005Y-85698273D01*
X135705120Y-85469465D01*
X135510535Y-85274880D01*
X135281727Y-85121995D01*
X135027490Y-85016686D01*
X134757592Y-84963000D01*
X134482408Y-84963000D01*
X134212510Y-85016686D01*
X133958273Y-85121995D01*
X133729465Y-85274880D01*
X133534880Y-85469465D01*
X133381995Y-85698273D01*
X133350000Y-85775515D01*
X133318005Y-85698273D01*
X133165120Y-85469465D01*
X132970535Y-85274880D01*
X132741727Y-85121995D01*
X132487490Y-85016686D01*
X132217592Y-84963000D01*
X131942408Y-84963000D01*
X131672510Y-85016686D01*
X131418273Y-85121995D01*
X131189465Y-85274880D01*
X130994880Y-85469465D01*
X130841995Y-85698273D01*
X130810000Y-85775515D01*
X130778005Y-85698273D01*
X130625120Y-85469465D01*
X130430535Y-85274880D01*
X130201727Y-85121995D01*
X129947490Y-85016686D01*
X129677592Y-84963000D01*
X129402408Y-84963000D01*
X129132510Y-85016686D01*
X128878273Y-85121995D01*
X128649465Y-85274880D01*
X128454880Y-85469465D01*
X128301995Y-85698273D01*
X128270000Y-85775515D01*
X128238005Y-85698273D01*
X128085120Y-85469465D01*
X127890535Y-85274880D01*
X127661727Y-85121995D01*
X127407490Y-85016686D01*
X127137592Y-84963000D01*
X126862408Y-84963000D01*
X126592510Y-85016686D01*
X126338273Y-85121995D01*
X126109465Y-85274880D01*
X125914880Y-85469465D01*
X125761995Y-85698273D01*
X125730000Y-85775515D01*
X125698005Y-85698273D01*
X125545120Y-85469465D01*
X125350535Y-85274880D01*
X125121727Y-85121995D01*
X124867490Y-85016686D01*
X124597592Y-84963000D01*
X124322408Y-84963000D01*
X124052510Y-85016686D01*
X123798273Y-85121995D01*
X123569465Y-85274880D01*
X123374880Y-85469465D01*
X123221995Y-85698273D01*
X123190000Y-85775515D01*
X123158005Y-85698273D01*
X123005120Y-85469465D01*
X122810535Y-85274880D01*
X122581727Y-85121995D01*
X122327490Y-85016686D01*
X122057592Y-84963000D01*
X121782408Y-84963000D01*
X121512510Y-85016686D01*
X121258273Y-85121995D01*
X121029465Y-85274880D01*
X120834880Y-85469465D01*
X120681995Y-85698273D01*
X120650000Y-85775515D01*
X120618005Y-85698273D01*
X120465120Y-85469465D01*
X120270535Y-85274880D01*
X120041727Y-85121995D01*
X119787490Y-85016686D01*
X119517592Y-84963000D01*
X119242408Y-84963000D01*
X118972510Y-85016686D01*
X118718273Y-85121995D01*
X118489465Y-85274880D01*
X118294880Y-85469465D01*
X118141995Y-85698273D01*
X118110000Y-85775515D01*
X118078005Y-85698273D01*
X117925120Y-85469465D01*
X117730535Y-85274880D01*
X117501727Y-85121995D01*
X117247490Y-85016686D01*
X116977592Y-84963000D01*
X116702408Y-84963000D01*
X116432510Y-85016686D01*
X116178273Y-85121995D01*
X115949465Y-85274880D01*
X115754880Y-85469465D01*
X115601995Y-85698273D01*
X115496686Y-85952510D01*
X115443000Y-86222408D01*
X110488000Y-86222408D01*
X110488000Y-86184318D01*
X110491676Y-86146995D01*
X110488000Y-86109672D01*
X110488000Y-86109663D01*
X110477003Y-85998010D01*
X110433546Y-85854749D01*
X110431008Y-85850000D01*
X110362974Y-85722719D01*
X110291799Y-85635993D01*
X110268001Y-85606995D01*
X110239004Y-85583198D01*
X104295806Y-79640000D01*
X110221928Y-79640000D01*
X110234188Y-79764482D01*
X110270498Y-79884180D01*
X110329463Y-79994494D01*
X110408815Y-80091185D01*
X110505506Y-80170537D01*
X110615820Y-80229502D01*
X110735518Y-80265812D01*
X110860000Y-80278072D01*
X111474250Y-80275000D01*
X111633000Y-80116250D01*
X111633000Y-78867000D01*
X110383750Y-78867000D01*
X110225000Y-79025750D01*
X110221928Y-79640000D01*
X104295806Y-79640000D01*
X103574001Y-78918196D01*
X103574001Y-77840000D01*
X110221928Y-77840000D01*
X110225000Y-78454250D01*
X110383750Y-78613000D01*
X111633000Y-78613000D01*
X111633000Y-77363750D01*
X111887000Y-77363750D01*
X111887000Y-78613000D01*
X111907000Y-78613000D01*
X111907000Y-78867000D01*
X111887000Y-78867000D01*
X111887000Y-80116250D01*
X112045750Y-80275000D01*
X112660000Y-80278072D01*
X112784482Y-80265812D01*
X112904180Y-80229502D01*
X113014494Y-80170537D01*
X113111185Y-80091185D01*
X113190537Y-79994494D01*
X113249502Y-79884180D01*
X113255056Y-79865873D01*
X113321495Y-79932312D01*
X113572905Y-80100299D01*
X113852257Y-80216011D01*
X114148816Y-80275000D01*
X114451184Y-80275000D01*
X114747743Y-80216011D01*
X115027095Y-80100299D01*
X115278505Y-79932312D01*
X115316817Y-79894000D01*
X136891928Y-79894000D01*
X136904188Y-80018482D01*
X136940498Y-80138180D01*
X136999463Y-80248494D01*
X137078815Y-80345185D01*
X137175506Y-80424537D01*
X137285820Y-80483502D01*
X137405518Y-80519812D01*
X137530000Y-80532072D01*
X138144250Y-80529000D01*
X138303000Y-80370250D01*
X138303000Y-79121000D01*
X137053750Y-79121000D01*
X136895000Y-79279750D01*
X136891928Y-79894000D01*
X115316817Y-79894000D01*
X115492312Y-79718505D01*
X115660299Y-79467095D01*
X115776011Y-79187743D01*
X115835000Y-78891184D01*
X115835000Y-78588816D01*
X115776011Y-78292257D01*
X115693890Y-78094000D01*
X136891928Y-78094000D01*
X136895000Y-78708250D01*
X137053750Y-78867000D01*
X138303000Y-78867000D01*
X138303000Y-77617750D01*
X138557000Y-77617750D01*
X138557000Y-78867000D01*
X138577000Y-78867000D01*
X138577000Y-79121000D01*
X138557000Y-79121000D01*
X138557000Y-80370250D01*
X138715750Y-80529000D01*
X139330000Y-80532072D01*
X139454482Y-80519812D01*
X139574180Y-80483502D01*
X139684494Y-80424537D01*
X139781185Y-80345185D01*
X139860537Y-80248494D01*
X139919502Y-80138180D01*
X139925056Y-80119873D01*
X139991495Y-80186312D01*
X140242905Y-80354299D01*
X140522257Y-80470011D01*
X140818816Y-80529000D01*
X141121184Y-80529000D01*
X141417743Y-80470011D01*
X141697095Y-80354299D01*
X141948505Y-80186312D01*
X142162312Y-79972505D01*
X142330299Y-79721095D01*
X142446011Y-79441743D01*
X142505000Y-79145184D01*
X142505000Y-78842816D01*
X142446011Y-78546257D01*
X142330299Y-78266905D01*
X142162312Y-78015495D01*
X141948505Y-77801688D01*
X141697095Y-77633701D01*
X141417743Y-77517989D01*
X141121184Y-77459000D01*
X140818816Y-77459000D01*
X140522257Y-77517989D01*
X140242905Y-77633701D01*
X139991495Y-77801688D01*
X139925056Y-77868127D01*
X139919502Y-77849820D01*
X139860537Y-77739506D01*
X139781185Y-77642815D01*
X139684494Y-77563463D01*
X139574180Y-77504498D01*
X139454482Y-77468188D01*
X139330000Y-77455928D01*
X138715750Y-77459000D01*
X138557000Y-77617750D01*
X138303000Y-77617750D01*
X138144250Y-77459000D01*
X137530000Y-77455928D01*
X137405518Y-77468188D01*
X137285820Y-77504498D01*
X137175506Y-77563463D01*
X137078815Y-77642815D01*
X136999463Y-77739506D01*
X136940498Y-77849820D01*
X136904188Y-77969518D01*
X136891928Y-78094000D01*
X115693890Y-78094000D01*
X115660299Y-78012905D01*
X115492312Y-77761495D01*
X115278505Y-77547688D01*
X115027095Y-77379701D01*
X114747743Y-77263989D01*
X114451184Y-77205000D01*
X114148816Y-77205000D01*
X113852257Y-77263989D01*
X113572905Y-77379701D01*
X113321495Y-77547688D01*
X113255056Y-77614127D01*
X113249502Y-77595820D01*
X113190537Y-77485506D01*
X113111185Y-77388815D01*
X113014494Y-77309463D01*
X112904180Y-77250498D01*
X112784482Y-77214188D01*
X112660000Y-77201928D01*
X112045750Y-77205000D01*
X111887000Y-77363750D01*
X111633000Y-77363750D01*
X111474250Y-77205000D01*
X110860000Y-77201928D01*
X110735518Y-77214188D01*
X110615820Y-77250498D01*
X110505506Y-77309463D01*
X110408815Y-77388815D01*
X110329463Y-77485506D01*
X110270498Y-77595820D01*
X110234188Y-77715518D01*
X110221928Y-77840000D01*
X103574001Y-77840000D01*
X103574001Y-73290000D01*
X110221928Y-73290000D01*
X110234188Y-73414482D01*
X110270498Y-73534180D01*
X110329463Y-73644494D01*
X110408815Y-73741185D01*
X110505506Y-73820537D01*
X110615820Y-73879502D01*
X110735518Y-73915812D01*
X110860000Y-73928072D01*
X111474250Y-73925000D01*
X111633000Y-73766250D01*
X111633000Y-72517000D01*
X110383750Y-72517000D01*
X110225000Y-72675750D01*
X110221928Y-73290000D01*
X103574001Y-73290000D01*
X103574001Y-72535121D01*
X103695466Y-72585434D01*
X103989899Y-72644000D01*
X104290101Y-72644000D01*
X104584534Y-72585434D01*
X104861885Y-72470551D01*
X105111493Y-72303768D01*
X105323768Y-72091493D01*
X105490551Y-71841885D01*
X105605434Y-71564534D01*
X105620259Y-71490000D01*
X110221928Y-71490000D01*
X110225000Y-72104250D01*
X110383750Y-72263000D01*
X111633000Y-72263000D01*
X111633000Y-71013750D01*
X111887000Y-71013750D01*
X111887000Y-72263000D01*
X111907000Y-72263000D01*
X111907000Y-72517000D01*
X111887000Y-72517000D01*
X111887000Y-73766250D01*
X112045750Y-73925000D01*
X112660000Y-73928072D01*
X112784482Y-73915812D01*
X112904180Y-73879502D01*
X113014494Y-73820537D01*
X113111185Y-73741185D01*
X113190537Y-73644494D01*
X113249502Y-73534180D01*
X113255056Y-73515873D01*
X113321495Y-73582312D01*
X113572905Y-73750299D01*
X113852257Y-73866011D01*
X114148816Y-73925000D01*
X114451184Y-73925000D01*
X114747743Y-73866011D01*
X115027095Y-73750299D01*
X115278505Y-73582312D01*
X115492312Y-73368505D01*
X115544767Y-73290000D01*
X136891928Y-73290000D01*
X136904188Y-73414482D01*
X136940498Y-73534180D01*
X136999463Y-73644494D01*
X137078815Y-73741185D01*
X137175506Y-73820537D01*
X137285820Y-73879502D01*
X137405518Y-73915812D01*
X137530000Y-73928072D01*
X138144250Y-73925000D01*
X138303000Y-73766250D01*
X138303000Y-72517000D01*
X137053750Y-72517000D01*
X136895000Y-72675750D01*
X136891928Y-73290000D01*
X115544767Y-73290000D01*
X115660299Y-73117095D01*
X115776011Y-72837743D01*
X115835000Y-72541184D01*
X115835000Y-72238816D01*
X115776011Y-71942257D01*
X115660299Y-71662905D01*
X115544768Y-71490000D01*
X136891928Y-71490000D01*
X136895000Y-72104250D01*
X137053750Y-72263000D01*
X138303000Y-72263000D01*
X138303000Y-71013750D01*
X138557000Y-71013750D01*
X138557000Y-72263000D01*
X138577000Y-72263000D01*
X138577000Y-72517000D01*
X138557000Y-72517000D01*
X138557000Y-73766250D01*
X138715750Y-73925000D01*
X139330000Y-73928072D01*
X139454482Y-73915812D01*
X139574180Y-73879502D01*
X139684494Y-73820537D01*
X139781185Y-73741185D01*
X139860537Y-73644494D01*
X139919502Y-73534180D01*
X139925056Y-73515873D01*
X139991495Y-73582312D01*
X140242905Y-73750299D01*
X140522257Y-73866011D01*
X140818816Y-73925000D01*
X141121184Y-73925000D01*
X141417743Y-73866011D01*
X141697095Y-73750299D01*
X141948505Y-73582312D01*
X142162312Y-73368505D01*
X142330299Y-73117095D01*
X142446011Y-72837743D01*
X142505000Y-72541184D01*
X142505000Y-72238816D01*
X142446011Y-71942257D01*
X142330299Y-71662905D01*
X142162312Y-71411495D01*
X141948505Y-71197688D01*
X141697095Y-71029701D01*
X141417743Y-70913989D01*
X141121184Y-70855000D01*
X140818816Y-70855000D01*
X140522257Y-70913989D01*
X140242905Y-71029701D01*
X139991495Y-71197688D01*
X139925056Y-71264127D01*
X139919502Y-71245820D01*
X139860537Y-71135506D01*
X139781185Y-71038815D01*
X139684494Y-70959463D01*
X139574180Y-70900498D01*
X139454482Y-70864188D01*
X139330000Y-70851928D01*
X138715750Y-70855000D01*
X138557000Y-71013750D01*
X138303000Y-71013750D01*
X138144250Y-70855000D01*
X137530000Y-70851928D01*
X137405518Y-70864188D01*
X137285820Y-70900498D01*
X137175506Y-70959463D01*
X137078815Y-71038815D01*
X136999463Y-71135506D01*
X136940498Y-71245820D01*
X136904188Y-71365518D01*
X136891928Y-71490000D01*
X115544768Y-71490000D01*
X115492312Y-71411495D01*
X115278505Y-71197688D01*
X115027095Y-71029701D01*
X114747743Y-70913989D01*
X114451184Y-70855000D01*
X114148816Y-70855000D01*
X113852257Y-70913989D01*
X113572905Y-71029701D01*
X113321495Y-71197688D01*
X113255056Y-71264127D01*
X113249502Y-71245820D01*
X113190537Y-71135506D01*
X113111185Y-71038815D01*
X113014494Y-70959463D01*
X112904180Y-70900498D01*
X112784482Y-70864188D01*
X112660000Y-70851928D01*
X112045750Y-70855000D01*
X111887000Y-71013750D01*
X111633000Y-71013750D01*
X111474250Y-70855000D01*
X110860000Y-70851928D01*
X110735518Y-70864188D01*
X110615820Y-70900498D01*
X110505506Y-70959463D01*
X110408815Y-71038815D01*
X110329463Y-71135506D01*
X110270498Y-71245820D01*
X110234188Y-71365518D01*
X110221928Y-71490000D01*
X105620259Y-71490000D01*
X105664000Y-71270101D01*
X105664000Y-70969899D01*
X105605434Y-70675466D01*
X105490551Y-70398115D01*
X105323768Y-70148507D01*
X105111493Y-69936232D01*
X104861885Y-69769449D01*
X104584534Y-69654566D01*
X104290101Y-69596000D01*
X104157016Y-69596000D01*
X104177322Y-69594000D01*
X104177333Y-69594000D01*
X104288986Y-69583003D01*
X104432247Y-69539546D01*
X104564276Y-69468974D01*
X104680001Y-69374001D01*
X104703804Y-69344997D01*
X107108801Y-66940000D01*
X110221928Y-66940000D01*
X110234188Y-67064482D01*
X110270498Y-67184180D01*
X110329463Y-67294494D01*
X110408815Y-67391185D01*
X110505506Y-67470537D01*
X110615820Y-67529502D01*
X110735518Y-67565812D01*
X110860000Y-67578072D01*
X111474250Y-67575000D01*
X111633000Y-67416250D01*
X111633000Y-66167000D01*
X110383750Y-66167000D01*
X110225000Y-66325750D01*
X110221928Y-66940000D01*
X107108801Y-66940000D01*
X108908801Y-65140000D01*
X110221928Y-65140000D01*
X110225000Y-65754250D01*
X110383750Y-65913000D01*
X111633000Y-65913000D01*
X111633000Y-64663750D01*
X111887000Y-64663750D01*
X111887000Y-65913000D01*
X111907000Y-65913000D01*
X111907000Y-66167000D01*
X111887000Y-66167000D01*
X111887000Y-67416250D01*
X112045750Y-67575000D01*
X112660000Y-67578072D01*
X112784482Y-67565812D01*
X112904180Y-67529502D01*
X113014494Y-67470537D01*
X113111185Y-67391185D01*
X113190537Y-67294494D01*
X113249502Y-67184180D01*
X113255056Y-67165873D01*
X113321495Y-67232312D01*
X113572905Y-67400299D01*
X113852257Y-67516011D01*
X114148816Y-67575000D01*
X114451184Y-67575000D01*
X114747743Y-67516011D01*
X115027095Y-67400299D01*
X115278505Y-67232312D01*
X115492312Y-67018505D01*
X115544767Y-66940000D01*
X136891928Y-66940000D01*
X136904188Y-67064482D01*
X136940498Y-67184180D01*
X136999463Y-67294494D01*
X137078815Y-67391185D01*
X137175506Y-67470537D01*
X137285820Y-67529502D01*
X137405518Y-67565812D01*
X137530000Y-67578072D01*
X138144250Y-67575000D01*
X138303000Y-67416250D01*
X138303000Y-66167000D01*
X137053750Y-66167000D01*
X136895000Y-66325750D01*
X136891928Y-66940000D01*
X115544767Y-66940000D01*
X115660299Y-66767095D01*
X115776011Y-66487743D01*
X115835000Y-66191184D01*
X115835000Y-65888816D01*
X115776011Y-65592257D01*
X115660299Y-65312905D01*
X115544768Y-65140000D01*
X136891928Y-65140000D01*
X136895000Y-65754250D01*
X137053750Y-65913000D01*
X138303000Y-65913000D01*
X138303000Y-64663750D01*
X138557000Y-64663750D01*
X138557000Y-65913000D01*
X138577000Y-65913000D01*
X138577000Y-66167000D01*
X138557000Y-66167000D01*
X138557000Y-67416250D01*
X138715750Y-67575000D01*
X139330000Y-67578072D01*
X139454482Y-67565812D01*
X139574180Y-67529502D01*
X139684494Y-67470537D01*
X139781185Y-67391185D01*
X139860537Y-67294494D01*
X139919502Y-67184180D01*
X139925056Y-67165873D01*
X139991495Y-67232312D01*
X140242905Y-67400299D01*
X140522257Y-67516011D01*
X140818816Y-67575000D01*
X141121184Y-67575000D01*
X141417743Y-67516011D01*
X141697095Y-67400299D01*
X141948505Y-67232312D01*
X142162312Y-67018505D01*
X142330299Y-66767095D01*
X142446011Y-66487743D01*
X142505000Y-66191184D01*
X142505000Y-65888816D01*
X142446011Y-65592257D01*
X142330299Y-65312905D01*
X142162312Y-65061495D01*
X141948505Y-64847688D01*
X141697095Y-64679701D01*
X141517749Y-64605413D01*
X170648192Y-64605413D01*
X170743956Y-64869814D01*
X171033571Y-65010704D01*
X171345108Y-65092384D01*
X171666595Y-65111718D01*
X171985675Y-65067961D01*
X172290088Y-64962795D01*
X172464044Y-64869814D01*
X172559808Y-64605413D01*
X171604000Y-63649605D01*
X170648192Y-64605413D01*
X141517749Y-64605413D01*
X141417743Y-64563989D01*
X141121184Y-64505000D01*
X140818816Y-64505000D01*
X140522257Y-64563989D01*
X140242905Y-64679701D01*
X139991495Y-64847688D01*
X139925056Y-64914127D01*
X139919502Y-64895820D01*
X139860537Y-64785506D01*
X139781185Y-64688815D01*
X139684494Y-64609463D01*
X139574180Y-64550498D01*
X139454482Y-64514188D01*
X139330000Y-64501928D01*
X138715750Y-64505000D01*
X138557000Y-64663750D01*
X138303000Y-64663750D01*
X138144250Y-64505000D01*
X137530000Y-64501928D01*
X137405518Y-64514188D01*
X137285820Y-64550498D01*
X137175506Y-64609463D01*
X137078815Y-64688815D01*
X136999463Y-64785506D01*
X136940498Y-64895820D01*
X136904188Y-65015518D01*
X136891928Y-65140000D01*
X115544768Y-65140000D01*
X115492312Y-65061495D01*
X115278505Y-64847688D01*
X115027095Y-64679701D01*
X114747743Y-64563989D01*
X114451184Y-64505000D01*
X114148816Y-64505000D01*
X113852257Y-64563989D01*
X113572905Y-64679701D01*
X113321495Y-64847688D01*
X113255056Y-64914127D01*
X113249502Y-64895820D01*
X113190537Y-64785506D01*
X113111185Y-64688815D01*
X113014494Y-64609463D01*
X112904180Y-64550498D01*
X112784482Y-64514188D01*
X112660000Y-64501928D01*
X112045750Y-64505000D01*
X111887000Y-64663750D01*
X111633000Y-64663750D01*
X111474250Y-64505000D01*
X110860000Y-64501928D01*
X110735518Y-64514188D01*
X110615820Y-64550498D01*
X110505506Y-64609463D01*
X110408815Y-64688815D01*
X110329463Y-64785506D01*
X110270498Y-64895820D01*
X110234188Y-65015518D01*
X110221928Y-65140000D01*
X108908801Y-65140000D01*
X111143803Y-62904999D01*
X170061873Y-62904999D01*
X169981616Y-63211108D01*
X169962282Y-63532595D01*
X170006039Y-63851675D01*
X170111205Y-64156088D01*
X170204186Y-64330044D01*
X170468587Y-64425808D01*
X171424395Y-63470000D01*
X171410253Y-63455858D01*
X171589858Y-63276253D01*
X171604000Y-63290395D01*
X171618143Y-63276253D01*
X171797748Y-63455858D01*
X171783605Y-63470000D01*
X172739413Y-64425808D01*
X173003814Y-64330044D01*
X173144704Y-64040429D01*
X173226384Y-63728892D01*
X173245718Y-63407405D01*
X173201961Y-63088325D01*
X173138627Y-62904999D01*
X182764198Y-62904999D01*
X182837823Y-62978624D01*
X182831832Y-62993088D01*
X182769000Y-63308967D01*
X182769000Y-63631033D01*
X182831832Y-63946912D01*
X182955082Y-64244463D01*
X183134013Y-64512252D01*
X183361748Y-64739987D01*
X183629537Y-64918918D01*
X183927088Y-65042168D01*
X184242967Y-65105000D01*
X184565033Y-65105000D01*
X184880912Y-65042168D01*
X185178463Y-64918918D01*
X185446252Y-64739987D01*
X185673987Y-64512252D01*
X185852918Y-64244463D01*
X185976168Y-63946912D01*
X186039000Y-63631033D01*
X186039000Y-63308967D01*
X185976168Y-62993088D01*
X185852918Y-62695537D01*
X185673987Y-62427748D01*
X185446252Y-62200013D01*
X185178463Y-62021082D01*
X184880912Y-61897832D01*
X184565033Y-61835000D01*
X184242967Y-61835000D01*
X183927088Y-61897832D01*
X183912624Y-61903823D01*
X183642802Y-61634001D01*
X183619000Y-61604998D01*
X183503275Y-61510025D01*
X183371246Y-61439453D01*
X183227985Y-61395996D01*
X183116332Y-61384999D01*
X183116321Y-61384999D01*
X183078999Y-61381323D01*
X183041677Y-61384999D01*
X110866324Y-61384999D01*
X110829001Y-61381323D01*
X110791678Y-61384999D01*
X110791668Y-61384999D01*
X110680015Y-61395996D01*
X110536754Y-61439453D01*
X110404724Y-61510025D01*
X110321084Y-61578667D01*
X110289000Y-61604998D01*
X110265202Y-61633996D01*
X103825199Y-68074000D01*
X100126087Y-68074000D01*
X100088764Y-68070324D01*
X100051441Y-68074000D01*
X100051432Y-68074000D01*
X99939779Y-68084997D01*
X99796518Y-68128454D01*
X99664489Y-68199026D01*
X99664487Y-68199027D01*
X99664488Y-68199027D01*
X99577761Y-68270201D01*
X99577757Y-68270205D01*
X99548764Y-68293999D01*
X99524970Y-68322992D01*
X98548998Y-69298966D01*
X98520000Y-69322764D01*
X98496202Y-69351762D01*
X98496201Y-69351763D01*
X98425026Y-69438489D01*
X98354454Y-69570519D01*
X98310998Y-69713780D01*
X98303218Y-69792766D01*
X98088507Y-69936232D01*
X97876232Y-70148507D01*
X97709449Y-70398115D01*
X97594566Y-70675466D01*
X97536000Y-70969899D01*
X97536000Y-71270101D01*
X97594566Y-71564534D01*
X97709449Y-71841885D01*
X97876232Y-72091493D01*
X98088507Y-72303768D01*
X98338115Y-72470551D01*
X98615466Y-72585434D01*
X98909899Y-72644000D01*
X99210101Y-72644000D01*
X99504534Y-72585434D01*
X99781885Y-72470551D01*
X100031493Y-72303768D01*
X100243768Y-72091493D01*
X100330000Y-71962438D01*
X100416232Y-72091493D01*
X100628507Y-72303768D01*
X100878115Y-72470551D01*
X101155466Y-72585434D01*
X101449899Y-72644000D01*
X101750101Y-72644000D01*
X101999575Y-72594377D01*
X102054002Y-72648804D01*
X102054001Y-79195674D01*
X102050325Y-79232997D01*
X102054001Y-79270319D01*
X102054001Y-79270329D01*
X102064998Y-79381982D01*
X102108455Y-79525243D01*
X102179027Y-79657273D01*
X102218872Y-79705823D01*
X102274000Y-79772998D01*
X102303004Y-79796801D01*
X106165534Y-83659331D01*
X105998691Y-83675764D01*
X105728192Y-83757818D01*
X105478899Y-83891068D01*
X105260392Y-84070392D01*
X105081068Y-84288899D01*
X104947818Y-84538192D01*
X104865764Y-84808691D01*
X104838057Y-85090000D01*
X104865764Y-85371309D01*
X104947818Y-85641808D01*
X105081068Y-85891101D01*
X105260392Y-86109608D01*
X105478899Y-86288932D01*
X105611858Y-86360000D01*
X105478899Y-86431068D01*
X105260392Y-86610392D01*
X105081068Y-86828899D01*
X104947818Y-87078192D01*
X104865764Y-87348691D01*
X104838057Y-87630000D01*
X104865764Y-87911309D01*
X104947818Y-88181808D01*
X105081068Y-88431101D01*
X105260392Y-88649608D01*
X105478899Y-88828932D01*
X105611858Y-88900000D01*
X105478899Y-88971068D01*
X105260392Y-89150392D01*
X105081068Y-89368899D01*
X104947818Y-89618192D01*
X104865764Y-89888691D01*
X104838057Y-90170000D01*
X104865764Y-90451309D01*
X104947818Y-90721808D01*
X105081068Y-90971101D01*
X105260392Y-91189608D01*
X105478899Y-91368932D01*
X105611858Y-91440000D01*
X105478899Y-91511068D01*
X105260392Y-91690392D01*
X105081068Y-91908899D01*
X104947818Y-92158192D01*
X104865764Y-92428691D01*
X104838057Y-92710000D01*
X104865764Y-92991309D01*
X104891154Y-93075010D01*
X103293812Y-93075010D01*
X102106000Y-91887199D01*
X102106000Y-89553325D01*
X102109676Y-89516000D01*
X102106000Y-89478675D01*
X102106000Y-89478667D01*
X102095003Y-89367014D01*
X102051546Y-89223753D01*
X101980974Y-89091724D01*
X101886001Y-88975999D01*
X101857003Y-88952201D01*
X100860708Y-87955906D01*
X100874236Y-87911309D01*
X100901943Y-87630000D01*
X100874236Y-87348691D01*
X100792182Y-87078192D01*
X100658932Y-86828899D01*
X100479608Y-86610392D01*
X100366518Y-86517581D01*
X100384482Y-86515812D01*
X100504180Y-86479502D01*
X100614494Y-86420537D01*
X100711185Y-86341185D01*
X100790537Y-86244494D01*
X100849502Y-86134180D01*
X100885812Y-86014482D01*
X100898072Y-85890000D01*
X100898072Y-84290000D01*
X100885812Y-84165518D01*
X100849502Y-84045820D01*
X100790537Y-83935506D01*
X100711185Y-83838815D01*
X100614494Y-83759463D01*
X100504180Y-83700498D01*
X100384482Y-83664188D01*
X100260000Y-83651928D01*
X97860000Y-83651928D01*
X97735518Y-83664188D01*
X97615820Y-83700498D01*
X97505506Y-83759463D01*
X97408815Y-83838815D01*
X97329463Y-83935506D01*
X97270498Y-84045820D01*
X97234188Y-84165518D01*
X97221928Y-84290000D01*
X97221928Y-84435674D01*
X97185724Y-84455026D01*
X97069999Y-84549999D01*
X97046200Y-84578998D01*
X96517002Y-85108197D01*
X96487999Y-85131999D01*
X96432871Y-85199174D01*
X96393026Y-85247724D01*
X96378511Y-85274880D01*
X96322454Y-85379754D01*
X96278997Y-85523015D01*
X96268000Y-85634668D01*
X96268000Y-85634678D01*
X96264324Y-85672000D01*
X95910000Y-85672000D01*
X95910000Y-63349899D01*
X97536000Y-63349899D01*
X97536000Y-63650101D01*
X97594566Y-63944534D01*
X97709449Y-64221885D01*
X97876232Y-64471493D01*
X98088507Y-64683768D01*
X98338115Y-64850551D01*
X98615466Y-64965434D01*
X98909899Y-65024000D01*
X99210101Y-65024000D01*
X99504534Y-64965434D01*
X99781885Y-64850551D01*
X100031493Y-64683768D01*
X100243768Y-64471493D01*
X100410551Y-64221885D01*
X100525434Y-63944534D01*
X100584000Y-63650101D01*
X100584000Y-63349899D01*
X102616000Y-63349899D01*
X102616000Y-63650101D01*
X102674566Y-63944534D01*
X102789449Y-64221885D01*
X102956232Y-64471493D01*
X103168507Y-64683768D01*
X103418115Y-64850551D01*
X103695466Y-64965434D01*
X103989899Y-65024000D01*
X104290101Y-65024000D01*
X104584534Y-64965434D01*
X104861885Y-64850551D01*
X105111493Y-64683768D01*
X105323768Y-64471493D01*
X105490551Y-64221885D01*
X105605434Y-63944534D01*
X105664000Y-63650101D01*
X105664000Y-63349899D01*
X105605434Y-63055466D01*
X105490551Y-62778115D01*
X105323768Y-62528507D01*
X105111493Y-62316232D01*
X104861885Y-62149449D01*
X104584534Y-62034566D01*
X104290101Y-61976000D01*
X103989899Y-61976000D01*
X103695466Y-62034566D01*
X103418115Y-62149449D01*
X103168507Y-62316232D01*
X102956232Y-62528507D01*
X102789449Y-62778115D01*
X102674566Y-63055466D01*
X102616000Y-63349899D01*
X100584000Y-63349899D01*
X100525434Y-63055466D01*
X100410551Y-62778115D01*
X100243768Y-62528507D01*
X100031493Y-62316232D01*
X99781885Y-62149449D01*
X99504534Y-62034566D01*
X99210101Y-61976000D01*
X98909899Y-61976000D01*
X98615466Y-62034566D01*
X98338115Y-62149449D01*
X98088507Y-62316232D01*
X97876232Y-62528507D01*
X97709449Y-62778115D01*
X97594566Y-63055466D01*
X97536000Y-63349899D01*
X95910000Y-63349899D01*
X95910000Y-60350000D01*
X193920001Y-60350000D01*
X193920000Y-158090000D01*
G36*
X105478899Y-101528932D02*
G01*
X105611858Y-101600000D01*
X105478899Y-101671068D01*
X105260392Y-101850392D01*
X105081068Y-102068899D01*
X104947818Y-102318192D01*
X104865764Y-102588691D01*
X104838057Y-102870000D01*
X104865764Y-103151309D01*
X104947818Y-103421808D01*
X105081068Y-103671101D01*
X105260392Y-103889608D01*
X105478899Y-104068932D01*
X105611858Y-104140000D01*
X105478899Y-104211068D01*
X105260392Y-104390392D01*
X105081068Y-104608899D01*
X104947818Y-104858192D01*
X104865764Y-105128691D01*
X104838057Y-105410000D01*
X104865764Y-105691309D01*
X104947818Y-105961808D01*
X105081068Y-106211101D01*
X105260392Y-106429608D01*
X105478899Y-106608932D01*
X105611858Y-106680000D01*
X105478899Y-106751068D01*
X105260392Y-106930392D01*
X105081068Y-107148899D01*
X104947818Y-107398192D01*
X104865764Y-107668691D01*
X104838057Y-107950000D01*
X104865764Y-108231309D01*
X104947818Y-108501808D01*
X105081068Y-108751101D01*
X105260392Y-108969608D01*
X105478899Y-109148932D01*
X105611858Y-109220000D01*
X105478899Y-109291068D01*
X105260392Y-109470392D01*
X105081068Y-109688899D01*
X104947818Y-109938192D01*
X104865764Y-110208691D01*
X104838057Y-110490000D01*
X104865764Y-110771309D01*
X104947818Y-111041808D01*
X105081068Y-111291101D01*
X105260392Y-111509608D01*
X105478899Y-111688932D01*
X105611858Y-111760000D01*
X105478899Y-111831068D01*
X105260392Y-112010392D01*
X105081068Y-112228899D01*
X104947818Y-112478192D01*
X104865764Y-112748691D01*
X104838057Y-113030000D01*
X104865764Y-113311309D01*
X104947818Y-113581808D01*
X105081068Y-113831101D01*
X105260392Y-114049608D01*
X105478899Y-114228932D01*
X105728192Y-114362182D01*
X105998691Y-114444236D01*
X106174001Y-114461503D01*
X106174000Y-117152289D01*
X106130063Y-117196226D01*
X106016795Y-117365744D01*
X105938774Y-117554102D01*
X105899000Y-117754061D01*
X105899000Y-117957939D01*
X105938774Y-118157898D01*
X106016795Y-118346256D01*
X106130063Y-118515774D01*
X106274226Y-118659937D01*
X106443744Y-118773205D01*
X106632102Y-118851226D01*
X106832061Y-118891000D01*
X107035939Y-118891000D01*
X107235898Y-118851226D01*
X107424256Y-118773205D01*
X107582513Y-118667461D01*
X107528939Y-118747641D01*
X107428304Y-118990595D01*
X107377000Y-119248514D01*
X107377000Y-119511486D01*
X107428304Y-119769405D01*
X107528939Y-120012359D01*
X107675038Y-120231013D01*
X107860987Y-120416962D01*
X108079641Y-120563061D01*
X108289530Y-120650000D01*
X108079641Y-120736939D01*
X107860987Y-120883038D01*
X107675038Y-121068987D01*
X107528939Y-121287641D01*
X107428304Y-121530595D01*
X107377000Y-121788514D01*
X107377000Y-122051486D01*
X107428304Y-122309405D01*
X107528939Y-122552359D01*
X107675038Y-122771013D01*
X107860987Y-122956962D01*
X108079641Y-123103061D01*
X108289530Y-123190000D01*
X108079641Y-123276939D01*
X107860987Y-123423038D01*
X107675038Y-123608987D01*
X107528939Y-123827641D01*
X107428304Y-124070595D01*
X107377000Y-124328514D01*
X107377000Y-124591486D01*
X107428304Y-124849405D01*
X107528939Y-125092359D01*
X107675038Y-125311013D01*
X107860987Y-125496962D01*
X108079641Y-125643061D01*
X108289530Y-125730000D01*
X108079641Y-125816939D01*
X107860987Y-125963038D01*
X107675038Y-126148987D01*
X107528939Y-126367641D01*
X107428304Y-126610595D01*
X107377000Y-126868514D01*
X107377000Y-127131486D01*
X107428304Y-127389405D01*
X107528939Y-127632359D01*
X107675038Y-127851013D01*
X107860987Y-128036962D01*
X108079641Y-128183061D01*
X108289530Y-128270000D01*
X108079641Y-128356939D01*
X107860987Y-128503038D01*
X107675038Y-128688987D01*
X107528939Y-128907641D01*
X107428304Y-129150595D01*
X107377000Y-129408514D01*
X107377000Y-129671486D01*
X107428304Y-129929405D01*
X107528939Y-130172359D01*
X107675038Y-130391013D01*
X107860987Y-130576962D01*
X108079641Y-130723061D01*
X108289530Y-130810000D01*
X108079641Y-130896939D01*
X107860987Y-131043038D01*
X107675038Y-131228987D01*
X107528939Y-131447641D01*
X107428304Y-131690595D01*
X107377000Y-131948514D01*
X107377000Y-132211486D01*
X107428304Y-132469405D01*
X107528939Y-132712359D01*
X107675038Y-132931013D01*
X107860987Y-133116962D01*
X108079641Y-133263061D01*
X108289530Y-133350000D01*
X108079641Y-133436939D01*
X107860987Y-133583038D01*
X107675038Y-133768987D01*
X107528939Y-133987641D01*
X107428304Y-134230595D01*
X107377000Y-134488514D01*
X107377000Y-134751486D01*
X107403558Y-134885001D01*
X102406683Y-134885001D01*
X102407683Y-134881706D01*
X102433459Y-134620000D01*
X102407683Y-134358294D01*
X102331347Y-134106646D01*
X102207382Y-133874725D01*
X102040555Y-133671445D01*
X101837275Y-133504618D01*
X101605354Y-133380653D01*
X101504304Y-133350000D01*
X101605354Y-133319347D01*
X101837275Y-133195382D01*
X102040555Y-133028555D01*
X102207382Y-132825275D01*
X102331347Y-132593354D01*
X102407683Y-132341706D01*
X102433459Y-132080000D01*
X102407683Y-131818294D01*
X102331347Y-131566646D01*
X102207382Y-131334725D01*
X102040555Y-131131445D01*
X101837275Y-130964618D01*
X101605354Y-130840653D01*
X101495106Y-130807210D01*
X101671123Y-130742853D01*
X101894660Y-130606759D01*
X102087351Y-130429670D01*
X102241792Y-130218392D01*
X102352047Y-129981044D01*
X102384716Y-129873329D01*
X102261374Y-129667000D01*
X101219000Y-129667000D01*
X101219000Y-129687000D01*
X100965000Y-129687000D01*
X100965000Y-129667000D01*
X100945000Y-129667000D01*
X100945000Y-129413000D01*
X100965000Y-129413000D01*
X100965000Y-128369799D01*
X100796935Y-128270000D01*
X100965000Y-128170201D01*
X100965000Y-127127000D01*
X101219000Y-127127000D01*
X101219000Y-128170201D01*
X101387065Y-128270000D01*
X101219000Y-128369799D01*
X101219000Y-129413000D01*
X102261374Y-129413000D01*
X102384716Y-129206671D01*
X102352047Y-129098956D01*
X102241792Y-128861608D01*
X102087351Y-128650330D01*
X101894660Y-128473241D01*
X101671123Y-128337147D01*
X101487475Y-128270000D01*
X101671123Y-128202853D01*
X101894660Y-128066759D01*
X102087351Y-127889670D01*
X102241792Y-127678392D01*
X102352047Y-127441044D01*
X102384716Y-127333329D01*
X102261374Y-127127000D01*
X101219000Y-127127000D01*
X100965000Y-127127000D01*
X100945000Y-127127000D01*
X100945000Y-126873000D01*
X100965000Y-126873000D01*
X100965000Y-125829799D01*
X100796935Y-125730000D01*
X100965000Y-125630201D01*
X100965000Y-124587000D01*
X101219000Y-124587000D01*
X101219000Y-125630201D01*
X101387065Y-125730000D01*
X101219000Y-125829799D01*
X101219000Y-126873000D01*
X102261374Y-126873000D01*
X102384716Y-126666671D01*
X102352047Y-126558956D01*
X102241792Y-126321608D01*
X102087351Y-126110330D01*
X101894660Y-125933241D01*
X101671123Y-125797147D01*
X101487475Y-125730000D01*
X101671123Y-125662853D01*
X101894660Y-125526759D01*
X102087351Y-125349670D01*
X102241792Y-125138392D01*
X102352047Y-124901044D01*
X102384716Y-124793329D01*
X102261374Y-124587000D01*
X101219000Y-124587000D01*
X100965000Y-124587000D01*
X100945000Y-124587000D01*
X100945000Y-124333000D01*
X100965000Y-124333000D01*
X100965000Y-124313000D01*
X101219000Y-124313000D01*
X101219000Y-124333000D01*
X102261374Y-124333000D01*
X102384716Y-124126671D01*
X102352047Y-124018956D01*
X102241792Y-123781608D01*
X102087351Y-123570330D01*
X101894660Y-123393241D01*
X101671123Y-123257147D01*
X101495106Y-123192790D01*
X101605354Y-123159347D01*
X101837275Y-123035382D01*
X102040555Y-122868555D01*
X102207382Y-122665275D01*
X102331347Y-122433354D01*
X102407683Y-122181706D01*
X102433459Y-121920000D01*
X102407683Y-121658294D01*
X102331347Y-121406646D01*
X102207382Y-121174725D01*
X102040555Y-120971445D01*
X101837275Y-120804618D01*
X101605354Y-120680653D01*
X101504304Y-120650000D01*
X101605354Y-120619347D01*
X101837275Y-120495382D01*
X102040555Y-120328555D01*
X102207382Y-120125275D01*
X102331347Y-119893354D01*
X102407683Y-119641706D01*
X102433459Y-119380000D01*
X102409550Y-119137252D01*
X103127008Y-118419795D01*
X103156001Y-118396001D01*
X103179795Y-118367008D01*
X103179799Y-118367004D01*
X103250973Y-118280277D01*
X103250974Y-118280276D01*
X103321546Y-118148247D01*
X103365003Y-118004986D01*
X103376000Y-117893333D01*
X103376000Y-117893324D01*
X103379676Y-117856001D01*
X103376000Y-117818678D01*
X103376000Y-103258801D01*
X105274014Y-101360788D01*
X105478899Y-101528932D01*
X105478899Y-101528932D01*
G37*
X105478899Y-101528932D02*
X105611858Y-101600000D01*
X105478899Y-101671068D01*
X105260392Y-101850392D01*
X105081068Y-102068899D01*
X104947818Y-102318192D01*
X104865764Y-102588691D01*
X104838057Y-102870000D01*
X104865764Y-103151309D01*
X104947818Y-103421808D01*
X105081068Y-103671101D01*
X105260392Y-103889608D01*
X105478899Y-104068932D01*
X105611858Y-104140000D01*
X105478899Y-104211068D01*
X105260392Y-104390392D01*
X105081068Y-104608899D01*
X104947818Y-104858192D01*
X104865764Y-105128691D01*
X104838057Y-105410000D01*
X104865764Y-105691309D01*
X104947818Y-105961808D01*
X105081068Y-106211101D01*
X105260392Y-106429608D01*
X105478899Y-106608932D01*
X105611858Y-106680000D01*
X105478899Y-106751068D01*
X105260392Y-106930392D01*
X105081068Y-107148899D01*
X104947818Y-107398192D01*
X104865764Y-107668691D01*
X104838057Y-107950000D01*
X104865764Y-108231309D01*
X104947818Y-108501808D01*
X105081068Y-108751101D01*
X105260392Y-108969608D01*
X105478899Y-109148932D01*
X105611858Y-109220000D01*
X105478899Y-109291068D01*
X105260392Y-109470392D01*
X105081068Y-109688899D01*
X104947818Y-109938192D01*
X104865764Y-110208691D01*
X104838057Y-110490000D01*
X104865764Y-110771309D01*
X104947818Y-111041808D01*
X105081068Y-111291101D01*
X105260392Y-111509608D01*
X105478899Y-111688932D01*
X105611858Y-111760000D01*
X105478899Y-111831068D01*
X105260392Y-112010392D01*
X105081068Y-112228899D01*
X104947818Y-112478192D01*
X104865764Y-112748691D01*
X104838057Y-113030000D01*
X104865764Y-113311309D01*
X104947818Y-113581808D01*
X105081068Y-113831101D01*
X105260392Y-114049608D01*
X105478899Y-114228932D01*
X105728192Y-114362182D01*
X105998691Y-114444236D01*
X106174001Y-114461503D01*
X106174000Y-117152289D01*
X106130063Y-117196226D01*
X106016795Y-117365744D01*
X105938774Y-117554102D01*
X105899000Y-117754061D01*
X105899000Y-117957939D01*
X105938774Y-118157898D01*
X106016795Y-118346256D01*
X106130063Y-118515774D01*
X106274226Y-118659937D01*
X106443744Y-118773205D01*
X106632102Y-118851226D01*
X106832061Y-118891000D01*
X107035939Y-118891000D01*
X107235898Y-118851226D01*
X107424256Y-118773205D01*
X107582513Y-118667461D01*
X107528939Y-118747641D01*
X107428304Y-118990595D01*
X107377000Y-119248514D01*
X107377000Y-119511486D01*
X107428304Y-119769405D01*
X107528939Y-120012359D01*
X107675038Y-120231013D01*
X107860987Y-120416962D01*
X108079641Y-120563061D01*
X108289530Y-120650000D01*
X108079641Y-120736939D01*
X107860987Y-120883038D01*
X107675038Y-121068987D01*
X107528939Y-121287641D01*
X107428304Y-121530595D01*
X107377000Y-121788514D01*
X107377000Y-122051486D01*
X107428304Y-122309405D01*
X107528939Y-122552359D01*
X107675038Y-122771013D01*
X107860987Y-122956962D01*
X108079641Y-123103061D01*
X108289530Y-123190000D01*
X108079641Y-123276939D01*
X107860987Y-123423038D01*
X107675038Y-123608987D01*
X107528939Y-123827641D01*
X107428304Y-124070595D01*
X107377000Y-124328514D01*
X107377000Y-124591486D01*
X107428304Y-124849405D01*
X107528939Y-125092359D01*
X107675038Y-125311013D01*
X107860987Y-125496962D01*
X108079641Y-125643061D01*
X108289530Y-125730000D01*
X108079641Y-125816939D01*
X107860987Y-125963038D01*
X107675038Y-126148987D01*
X107528939Y-126367641D01*
X107428304Y-126610595D01*
X107377000Y-126868514D01*
X107377000Y-127131486D01*
X107428304Y-127389405D01*
X107528939Y-127632359D01*
X107675038Y-127851013D01*
X107860987Y-128036962D01*
X108079641Y-128183061D01*
X108289530Y-128270000D01*
X108079641Y-128356939D01*
X107860987Y-128503038D01*
X107675038Y-128688987D01*
X107528939Y-128907641D01*
X107428304Y-129150595D01*
X107377000Y-129408514D01*
X107377000Y-129671486D01*
X107428304Y-129929405D01*
X107528939Y-130172359D01*
X107675038Y-130391013D01*
X107860987Y-130576962D01*
X108079641Y-130723061D01*
X108289530Y-130810000D01*
X108079641Y-130896939D01*
X107860987Y-131043038D01*
X107675038Y-131228987D01*
X107528939Y-131447641D01*
X107428304Y-131690595D01*
X107377000Y-131948514D01*
X107377000Y-132211486D01*
X107428304Y-132469405D01*
X107528939Y-132712359D01*
X107675038Y-132931013D01*
X107860987Y-133116962D01*
X108079641Y-133263061D01*
X108289530Y-133350000D01*
X108079641Y-133436939D01*
X107860987Y-133583038D01*
X107675038Y-133768987D01*
X107528939Y-133987641D01*
X107428304Y-134230595D01*
X107377000Y-134488514D01*
X107377000Y-134751486D01*
X107403558Y-134885001D01*
X102406683Y-134885001D01*
X102407683Y-134881706D01*
X102433459Y-134620000D01*
X102407683Y-134358294D01*
X102331347Y-134106646D01*
X102207382Y-133874725D01*
X102040555Y-133671445D01*
X101837275Y-133504618D01*
X101605354Y-133380653D01*
X101504304Y-133350000D01*
X101605354Y-133319347D01*
X101837275Y-133195382D01*
X102040555Y-133028555D01*
X102207382Y-132825275D01*
X102331347Y-132593354D01*
X102407683Y-132341706D01*
X102433459Y-132080000D01*
X102407683Y-131818294D01*
X102331347Y-131566646D01*
X102207382Y-131334725D01*
X102040555Y-131131445D01*
X101837275Y-130964618D01*
X101605354Y-130840653D01*
X101495106Y-130807210D01*
X101671123Y-130742853D01*
X101894660Y-130606759D01*
X102087351Y-130429670D01*
X102241792Y-130218392D01*
X102352047Y-129981044D01*
X102384716Y-129873329D01*
X102261374Y-129667000D01*
X101219000Y-129667000D01*
X101219000Y-129687000D01*
X100965000Y-129687000D01*
X100965000Y-129667000D01*
X100945000Y-129667000D01*
X100945000Y-129413000D01*
X100965000Y-129413000D01*
X100965000Y-128369799D01*
X100796935Y-128270000D01*
X100965000Y-128170201D01*
X100965000Y-127127000D01*
X101219000Y-127127000D01*
X101219000Y-128170201D01*
X101387065Y-128270000D01*
X101219000Y-128369799D01*
X101219000Y-129413000D01*
X102261374Y-129413000D01*
X102384716Y-129206671D01*
X102352047Y-129098956D01*
X102241792Y-128861608D01*
X102087351Y-128650330D01*
X101894660Y-128473241D01*
X101671123Y-128337147D01*
X101487475Y-128270000D01*
X101671123Y-128202853D01*
X101894660Y-128066759D01*
X102087351Y-127889670D01*
X102241792Y-127678392D01*
X102352047Y-127441044D01*
X102384716Y-127333329D01*
X102261374Y-127127000D01*
X101219000Y-127127000D01*
X100965000Y-127127000D01*
X100945000Y-127127000D01*
X100945000Y-126873000D01*
X100965000Y-126873000D01*
X100965000Y-125829799D01*
X100796935Y-125730000D01*
X100965000Y-125630201D01*
X100965000Y-124587000D01*
X101219000Y-124587000D01*
X101219000Y-125630201D01*
X101387065Y-125730000D01*
X101219000Y-125829799D01*
X101219000Y-126873000D01*
X102261374Y-126873000D01*
X102384716Y-126666671D01*
X102352047Y-126558956D01*
X102241792Y-126321608D01*
X102087351Y-126110330D01*
X101894660Y-125933241D01*
X101671123Y-125797147D01*
X101487475Y-125730000D01*
X101671123Y-125662853D01*
X101894660Y-125526759D01*
X102087351Y-125349670D01*
X102241792Y-125138392D01*
X102352047Y-124901044D01*
X102384716Y-124793329D01*
X102261374Y-124587000D01*
X101219000Y-124587000D01*
X100965000Y-124587000D01*
X100945000Y-124587000D01*
X100945000Y-124333000D01*
X100965000Y-124333000D01*
X100965000Y-124313000D01*
X101219000Y-124313000D01*
X101219000Y-124333000D01*
X102261374Y-124333000D01*
X102384716Y-124126671D01*
X102352047Y-124018956D01*
X102241792Y-123781608D01*
X102087351Y-123570330D01*
X101894660Y-123393241D01*
X101671123Y-123257147D01*
X101495106Y-123192790D01*
X101605354Y-123159347D01*
X101837275Y-123035382D01*
X102040555Y-122868555D01*
X102207382Y-122665275D01*
X102331347Y-122433354D01*
X102407683Y-122181706D01*
X102433459Y-121920000D01*
X102407683Y-121658294D01*
X102331347Y-121406646D01*
X102207382Y-121174725D01*
X102040555Y-120971445D01*
X101837275Y-120804618D01*
X101605354Y-120680653D01*
X101504304Y-120650000D01*
X101605354Y-120619347D01*
X101837275Y-120495382D01*
X102040555Y-120328555D01*
X102207382Y-120125275D01*
X102331347Y-119893354D01*
X102407683Y-119641706D01*
X102433459Y-119380000D01*
X102409550Y-119137252D01*
X103127008Y-118419795D01*
X103156001Y-118396001D01*
X103179795Y-118367008D01*
X103179799Y-118367004D01*
X103250973Y-118280277D01*
X103250974Y-118280276D01*
X103321546Y-118148247D01*
X103365003Y-118004986D01*
X103376000Y-117893333D01*
X103376000Y-117893324D01*
X103379676Y-117856001D01*
X103376000Y-117818678D01*
X103376000Y-103258801D01*
X105274014Y-101360788D01*
X105478899Y-101528932D01*
G36*
X133381995Y-97181727D02*
G01*
X133534880Y-97410535D01*
X133729465Y-97605120D01*
X133958273Y-97758005D01*
X134212510Y-97863314D01*
X134482408Y-97917000D01*
X134757592Y-97917000D01*
X135027490Y-97863314D01*
X135130000Y-97820853D01*
X135130001Y-109540197D01*
X131770906Y-112899292D01*
X131726309Y-112885764D01*
X131515492Y-112865000D01*
X131374508Y-112865000D01*
X131163691Y-112885764D01*
X130893192Y-112967818D01*
X130643899Y-113101068D01*
X130425392Y-113280392D01*
X130246068Y-113498899D01*
X130112818Y-113748192D01*
X130030764Y-114018691D01*
X130003057Y-114300000D01*
X130030764Y-114581309D01*
X130112818Y-114851808D01*
X130246068Y-115101101D01*
X130425392Y-115319608D01*
X130643899Y-115498932D01*
X130781682Y-115572579D01*
X130589869Y-115687615D01*
X130381481Y-115876586D01*
X130213963Y-116102580D01*
X130093754Y-116356913D01*
X130053096Y-116490961D01*
X130175085Y-116713000D01*
X131318000Y-116713000D01*
X131318000Y-116693000D01*
X131572000Y-116693000D01*
X131572000Y-116713000D01*
X132714915Y-116713000D01*
X132836904Y-116490961D01*
X132796246Y-116356913D01*
X132676037Y-116102580D01*
X132508519Y-115876586D01*
X132300131Y-115687615D01*
X132108318Y-115572579D01*
X132246101Y-115498932D01*
X132464608Y-115319608D01*
X132643932Y-115101101D01*
X132777182Y-114851808D01*
X132859236Y-114581309D01*
X132886943Y-114300000D01*
X132859236Y-114018691D01*
X132845708Y-113974094D01*
X135826500Y-110993302D01*
X139696997Y-114863799D01*
X139697003Y-114863804D01*
X148658198Y-123825000D01*
X148402374Y-123825000D01*
X148034332Y-123898209D01*
X147891976Y-123957175D01*
X147883805Y-123949004D01*
X147860002Y-123920000D01*
X147744277Y-123825027D01*
X147612248Y-123754455D01*
X147468987Y-123710998D01*
X147357334Y-123700001D01*
X147357323Y-123700001D01*
X147320001Y-123696325D01*
X147282679Y-123700001D01*
X144840803Y-123700001D01*
X142549804Y-121409003D01*
X142526001Y-121379999D01*
X142410276Y-121285026D01*
X142278247Y-121214454D01*
X142134986Y-121170997D01*
X142023333Y-121160000D01*
X142023322Y-121160000D01*
X141986000Y-121156324D01*
X141948678Y-121160000D01*
X132665901Y-121160000D01*
X132643932Y-121118899D01*
X132464608Y-120900392D01*
X132246101Y-120721068D01*
X132113142Y-120650000D01*
X132246101Y-120578932D01*
X132464608Y-120399608D01*
X132643932Y-120181101D01*
X132777182Y-119931808D01*
X132859236Y-119661309D01*
X132886943Y-119380000D01*
X132859236Y-119098691D01*
X132777182Y-118828192D01*
X132643932Y-118578899D01*
X132464608Y-118360392D01*
X132246101Y-118181068D01*
X132108318Y-118107421D01*
X132300131Y-117992385D01*
X132508519Y-117803414D01*
X132676037Y-117577420D01*
X132796246Y-117323087D01*
X132836904Y-117189039D01*
X132714915Y-116967000D01*
X131572000Y-116967000D01*
X131572000Y-116987000D01*
X131318000Y-116987000D01*
X131318000Y-116967000D01*
X130175085Y-116967000D01*
X130053096Y-117189039D01*
X130093754Y-117323087D01*
X130213963Y-117577420D01*
X130381481Y-117803414D01*
X130589869Y-117992385D01*
X130781682Y-118107421D01*
X130643899Y-118181068D01*
X130425392Y-118360392D01*
X130246068Y-118578899D01*
X130112818Y-118828192D01*
X130030764Y-119098691D01*
X130003057Y-119380000D01*
X130030764Y-119661309D01*
X130100136Y-119890000D01*
X117549864Y-119890000D01*
X117619236Y-119661309D01*
X117646943Y-119380000D01*
X117619236Y-119098691D01*
X117537182Y-118828192D01*
X117403932Y-118578899D01*
X117224608Y-118360392D01*
X117006101Y-118181068D01*
X116873142Y-118110000D01*
X117006101Y-118038932D01*
X117224608Y-117859608D01*
X117403932Y-117641101D01*
X117537182Y-117391808D01*
X117619236Y-117121309D01*
X117646943Y-116840000D01*
X117619236Y-116558691D01*
X117537182Y-116288192D01*
X117403932Y-116038899D01*
X117224608Y-115820392D01*
X117111518Y-115727581D01*
X117129482Y-115725812D01*
X117249180Y-115689502D01*
X117359494Y-115630537D01*
X117456185Y-115551185D01*
X117535537Y-115454494D01*
X117594502Y-115344180D01*
X117630812Y-115224482D01*
X117643072Y-115100000D01*
X117643072Y-113500000D01*
X117630812Y-113375518D01*
X117594502Y-113255820D01*
X117535537Y-113145506D01*
X117456185Y-113048815D01*
X117359494Y-112969463D01*
X117249180Y-112910498D01*
X117129482Y-112874188D01*
X117005000Y-112861928D01*
X115405000Y-112861928D01*
X115280518Y-112874188D01*
X115160820Y-112910498D01*
X115050506Y-112969463D01*
X114953815Y-113048815D01*
X114874463Y-113145506D01*
X114815498Y-113255820D01*
X114779188Y-113375518D01*
X114766928Y-113500000D01*
X114766928Y-115100000D01*
X114779188Y-115224482D01*
X114815498Y-115344180D01*
X114874463Y-115454494D01*
X114953815Y-115551185D01*
X115050506Y-115630537D01*
X115160820Y-115689502D01*
X115280518Y-115725812D01*
X115298482Y-115727581D01*
X115185392Y-115820392D01*
X115006068Y-116038899D01*
X114872818Y-116288192D01*
X114790764Y-116558691D01*
X114763057Y-116840000D01*
X114790764Y-117121309D01*
X114872818Y-117391808D01*
X115006068Y-117641101D01*
X115185392Y-117859608D01*
X115403899Y-118038932D01*
X115536858Y-118110000D01*
X115403899Y-118181068D01*
X115185392Y-118360392D01*
X115006068Y-118578899D01*
X114872818Y-118828192D01*
X114790764Y-119098691D01*
X114763057Y-119380000D01*
X114790764Y-119661309D01*
X114860136Y-119890000D01*
X110296802Y-119890000D01*
X110025645Y-119618843D01*
X110047000Y-119511486D01*
X110047000Y-119248514D01*
X109995696Y-118990595D01*
X109895061Y-118747641D01*
X109748962Y-118528987D01*
X109563013Y-118343038D01*
X109472000Y-118282225D01*
X109472000Y-100898801D01*
X110021802Y-100349000D01*
X110083939Y-100349000D01*
X110283898Y-100309226D01*
X110472256Y-100231205D01*
X110641774Y-100117937D01*
X110785937Y-99973774D01*
X110899205Y-99804256D01*
X110977226Y-99615898D01*
X111017000Y-99415939D01*
X111017000Y-99212061D01*
X110977226Y-99012102D01*
X110899205Y-98823744D01*
X110785937Y-98654226D01*
X110641774Y-98510063D01*
X110472256Y-98396795D01*
X110283898Y-98318774D01*
X110083939Y-98279000D01*
X109880061Y-98279000D01*
X109680102Y-98318774D01*
X109491744Y-98396795D01*
X109322226Y-98510063D01*
X109178063Y-98654226D01*
X109064795Y-98823744D01*
X108986774Y-99012102D01*
X108947000Y-99212061D01*
X108947000Y-99274198D01*
X108419356Y-99801843D01*
X108412182Y-99778192D01*
X108278932Y-99528899D01*
X108156315Y-99379490D01*
X109805796Y-97730010D01*
X116721209Y-97730010D01*
X117109201Y-98118003D01*
X117133000Y-98147002D01*
X117248725Y-98241975D01*
X117380754Y-98312547D01*
X117524015Y-98356004D01*
X117635668Y-98367001D01*
X117635677Y-98367001D01*
X117673000Y-98370677D01*
X117710323Y-98367001D01*
X128415677Y-98367001D01*
X128452999Y-98370677D01*
X128490321Y-98367001D01*
X128490332Y-98367001D01*
X128601985Y-98356004D01*
X128745246Y-98312547D01*
X128877275Y-98241975D01*
X128993000Y-98147002D01*
X129016803Y-98117999D01*
X129248429Y-97886372D01*
X129402408Y-97917000D01*
X129677592Y-97917000D01*
X129947490Y-97863314D01*
X130201727Y-97758005D01*
X130430535Y-97605120D01*
X130625120Y-97410535D01*
X130778005Y-97181727D01*
X130810000Y-97104485D01*
X130841995Y-97181727D01*
X130994880Y-97410535D01*
X131189465Y-97605120D01*
X131418273Y-97758005D01*
X131672510Y-97863314D01*
X131942408Y-97917000D01*
X132217592Y-97917000D01*
X132487490Y-97863314D01*
X132741727Y-97758005D01*
X132970535Y-97605120D01*
X133165120Y-97410535D01*
X133318005Y-97181727D01*
X133350000Y-97104485D01*
X133381995Y-97181727D01*
X133381995Y-97181727D01*
G37*
X133381995Y-97181727D02*
X133534880Y-97410535D01*
X133729465Y-97605120D01*
X133958273Y-97758005D01*
X134212510Y-97863314D01*
X134482408Y-97917000D01*
X134757592Y-97917000D01*
X135027490Y-97863314D01*
X135130000Y-97820853D01*
X135130001Y-109540197D01*
X131770906Y-112899292D01*
X131726309Y-112885764D01*
X131515492Y-112865000D01*
X131374508Y-112865000D01*
X131163691Y-112885764D01*
X130893192Y-112967818D01*
X130643899Y-113101068D01*
X130425392Y-113280392D01*
X130246068Y-113498899D01*
X130112818Y-113748192D01*
X130030764Y-114018691D01*
X130003057Y-114300000D01*
X130030764Y-114581309D01*
X130112818Y-114851808D01*
X130246068Y-115101101D01*
X130425392Y-115319608D01*
X130643899Y-115498932D01*
X130781682Y-115572579D01*
X130589869Y-115687615D01*
X130381481Y-115876586D01*
X130213963Y-116102580D01*
X130093754Y-116356913D01*
X130053096Y-116490961D01*
X130175085Y-116713000D01*
X131318000Y-116713000D01*
X131318000Y-116693000D01*
X131572000Y-116693000D01*
X131572000Y-116713000D01*
X132714915Y-116713000D01*
X132836904Y-116490961D01*
X132796246Y-116356913D01*
X132676037Y-116102580D01*
X132508519Y-115876586D01*
X132300131Y-115687615D01*
X132108318Y-115572579D01*
X132246101Y-115498932D01*
X132464608Y-115319608D01*
X132643932Y-115101101D01*
X132777182Y-114851808D01*
X132859236Y-114581309D01*
X132886943Y-114300000D01*
X132859236Y-114018691D01*
X132845708Y-113974094D01*
X135826500Y-110993302D01*
X139696997Y-114863799D01*
X139697003Y-114863804D01*
X148658198Y-123825000D01*
X148402374Y-123825000D01*
X148034332Y-123898209D01*
X147891976Y-123957175D01*
X147883805Y-123949004D01*
X147860002Y-123920000D01*
X147744277Y-123825027D01*
X147612248Y-123754455D01*
X147468987Y-123710998D01*
X147357334Y-123700001D01*
X147357323Y-123700001D01*
X147320001Y-123696325D01*
X147282679Y-123700001D01*
X144840803Y-123700001D01*
X142549804Y-121409003D01*
X142526001Y-121379999D01*
X142410276Y-121285026D01*
X142278247Y-121214454D01*
X142134986Y-121170997D01*
X142023333Y-121160000D01*
X142023322Y-121160000D01*
X141986000Y-121156324D01*
X141948678Y-121160000D01*
X132665901Y-121160000D01*
X132643932Y-121118899D01*
X132464608Y-120900392D01*
X132246101Y-120721068D01*
X132113142Y-120650000D01*
X132246101Y-120578932D01*
X132464608Y-120399608D01*
X132643932Y-120181101D01*
X132777182Y-119931808D01*
X132859236Y-119661309D01*
X132886943Y-119380000D01*
X132859236Y-119098691D01*
X132777182Y-118828192D01*
X132643932Y-118578899D01*
X132464608Y-118360392D01*
X132246101Y-118181068D01*
X132108318Y-118107421D01*
X132300131Y-117992385D01*
X132508519Y-117803414D01*
X132676037Y-117577420D01*
X132796246Y-117323087D01*
X132836904Y-117189039D01*
X132714915Y-116967000D01*
X131572000Y-116967000D01*
X131572000Y-116987000D01*
X131318000Y-116987000D01*
X131318000Y-116967000D01*
X130175085Y-116967000D01*
X130053096Y-117189039D01*
X130093754Y-117323087D01*
X130213963Y-117577420D01*
X130381481Y-117803414D01*
X130589869Y-117992385D01*
X130781682Y-118107421D01*
X130643899Y-118181068D01*
X130425392Y-118360392D01*
X130246068Y-118578899D01*
X130112818Y-118828192D01*
X130030764Y-119098691D01*
X130003057Y-119380000D01*
X130030764Y-119661309D01*
X130100136Y-119890000D01*
X117549864Y-119890000D01*
X117619236Y-119661309D01*
X117646943Y-119380000D01*
X117619236Y-119098691D01*
X117537182Y-118828192D01*
X117403932Y-118578899D01*
X117224608Y-118360392D01*
X117006101Y-118181068D01*
X116873142Y-118110000D01*
X117006101Y-118038932D01*
X117224608Y-117859608D01*
X117403932Y-117641101D01*
X117537182Y-117391808D01*
X117619236Y-117121309D01*
X117646943Y-116840000D01*
X117619236Y-116558691D01*
X117537182Y-116288192D01*
X117403932Y-116038899D01*
X117224608Y-115820392D01*
X117111518Y-115727581D01*
X117129482Y-115725812D01*
X117249180Y-115689502D01*
X117359494Y-115630537D01*
X117456185Y-115551185D01*
X117535537Y-115454494D01*
X117594502Y-115344180D01*
X117630812Y-115224482D01*
X117643072Y-115100000D01*
X117643072Y-113500000D01*
X117630812Y-113375518D01*
X117594502Y-113255820D01*
X117535537Y-113145506D01*
X117456185Y-113048815D01*
X117359494Y-112969463D01*
X117249180Y-112910498D01*
X117129482Y-112874188D01*
X117005000Y-112861928D01*
X115405000Y-112861928D01*
X115280518Y-112874188D01*
X115160820Y-112910498D01*
X115050506Y-112969463D01*
X114953815Y-113048815D01*
X114874463Y-113145506D01*
X114815498Y-113255820D01*
X114779188Y-113375518D01*
X114766928Y-113500000D01*
X114766928Y-115100000D01*
X114779188Y-115224482D01*
X114815498Y-115344180D01*
X114874463Y-115454494D01*
X114953815Y-115551185D01*
X115050506Y-115630537D01*
X115160820Y-115689502D01*
X115280518Y-115725812D01*
X115298482Y-115727581D01*
X115185392Y-115820392D01*
X115006068Y-116038899D01*
X114872818Y-116288192D01*
X114790764Y-116558691D01*
X114763057Y-116840000D01*
X114790764Y-117121309D01*
X114872818Y-117391808D01*
X115006068Y-117641101D01*
X115185392Y-117859608D01*
X115403899Y-118038932D01*
X115536858Y-118110000D01*
X115403899Y-118181068D01*
X115185392Y-118360392D01*
X115006068Y-118578899D01*
X114872818Y-118828192D01*
X114790764Y-119098691D01*
X114763057Y-119380000D01*
X114790764Y-119661309D01*
X114860136Y-119890000D01*
X110296802Y-119890000D01*
X110025645Y-119618843D01*
X110047000Y-119511486D01*
X110047000Y-119248514D01*
X109995696Y-118990595D01*
X109895061Y-118747641D01*
X109748962Y-118528987D01*
X109563013Y-118343038D01*
X109472000Y-118282225D01*
X109472000Y-100898801D01*
X110021802Y-100349000D01*
X110083939Y-100349000D01*
X110283898Y-100309226D01*
X110472256Y-100231205D01*
X110641774Y-100117937D01*
X110785937Y-99973774D01*
X110899205Y-99804256D01*
X110977226Y-99615898D01*
X111017000Y-99415939D01*
X111017000Y-99212061D01*
X110977226Y-99012102D01*
X110899205Y-98823744D01*
X110785937Y-98654226D01*
X110641774Y-98510063D01*
X110472256Y-98396795D01*
X110283898Y-98318774D01*
X110083939Y-98279000D01*
X109880061Y-98279000D01*
X109680102Y-98318774D01*
X109491744Y-98396795D01*
X109322226Y-98510063D01*
X109178063Y-98654226D01*
X109064795Y-98823744D01*
X108986774Y-99012102D01*
X108947000Y-99212061D01*
X108947000Y-99274198D01*
X108419356Y-99801843D01*
X108412182Y-99778192D01*
X108278932Y-99528899D01*
X108156315Y-99379490D01*
X109805796Y-97730010D01*
X116721209Y-97730010D01*
X117109201Y-98118003D01*
X117133000Y-98147002D01*
X117248725Y-98241975D01*
X117380754Y-98312547D01*
X117524015Y-98356004D01*
X117635668Y-98367001D01*
X117635677Y-98367001D01*
X117673000Y-98370677D01*
X117710323Y-98367001D01*
X128415677Y-98367001D01*
X128452999Y-98370677D01*
X128490321Y-98367001D01*
X128490332Y-98367001D01*
X128601985Y-98356004D01*
X128745246Y-98312547D01*
X128877275Y-98241975D01*
X128993000Y-98147002D01*
X129016803Y-98117999D01*
X129248429Y-97886372D01*
X129402408Y-97917000D01*
X129677592Y-97917000D01*
X129947490Y-97863314D01*
X130201727Y-97758005D01*
X130430535Y-97605120D01*
X130625120Y-97410535D01*
X130778005Y-97181727D01*
X130810000Y-97104485D01*
X130841995Y-97181727D01*
X130994880Y-97410535D01*
X131189465Y-97605120D01*
X131418273Y-97758005D01*
X131672510Y-97863314D01*
X131942408Y-97917000D01*
X132217592Y-97917000D01*
X132487490Y-97863314D01*
X132741727Y-97758005D01*
X132970535Y-97605120D01*
X133165120Y-97410535D01*
X133318005Y-97181727D01*
X133350000Y-97104485D01*
X133381995Y-97181727D01*
G36*
X99187000Y-105283000D02*
G01*
X99207000Y-105283000D01*
X99207000Y-105537000D01*
X99187000Y-105537000D01*
X99187000Y-105557000D01*
X98933000Y-105557000D01*
X98933000Y-105537000D01*
X98913000Y-105537000D01*
X98913000Y-105283000D01*
X98933000Y-105283000D01*
X98933000Y-105263000D01*
X99187000Y-105263000D01*
X99187000Y-105283000D01*
X99187000Y-105283000D01*
G37*
X99187000Y-105283000D02*
X99207000Y-105283000D01*
X99207000Y-105537000D01*
X99187000Y-105537000D01*
X99187000Y-105557000D01*
X98933000Y-105557000D01*
X98933000Y-105537000D01*
X98913000Y-105537000D01*
X98913000Y-105283000D01*
X98933000Y-105283000D01*
X98933000Y-105263000D01*
X99187000Y-105263000D01*
X99187000Y-105283000D01*
G36*
X99187000Y-92583000D02*
G01*
X99207000Y-92583000D01*
X99207000Y-92837000D01*
X99187000Y-92837000D01*
X99187000Y-92857000D01*
X98933000Y-92857000D01*
X98933000Y-92837000D01*
X98913000Y-92837000D01*
X98913000Y-92583000D01*
X98933000Y-92583000D01*
X98933000Y-92563000D01*
X99187000Y-92563000D01*
X99187000Y-92583000D01*
X99187000Y-92583000D01*
G37*
X99187000Y-92583000D02*
X99207000Y-92583000D01*
X99207000Y-92837000D01*
X99187000Y-92837000D01*
X99187000Y-92857000D01*
X98933000Y-92857000D01*
X98933000Y-92837000D01*
X98913000Y-92837000D01*
X98913000Y-92583000D01*
X98933000Y-92583000D01*
X98933000Y-92563000D01*
X99187000Y-92563000D01*
X99187000Y-92583000D01*
M02*
