G04 #@! TF.GenerationSoftware,KiCad,Pcbnew,(5.1.0)-1*
G04 #@! TF.CreationDate,2019-08-13T11:23:49+02:00*
G04 #@! TF.ProjectId,AirSensorModule,41697253-656e-4736-9f72-4d6f64756c65,rev?*
G04 #@! TF.SameCoordinates,Original*
G04 #@! TF.FileFunction,Legend,Top*
G04 #@! TF.FilePolarity,Positive*
%FSLAX46Y46*%
G04 Gerber Fmt 4.6, Leading zero omitted, Abs format (unit mm)*
G04 Created by KiCad (PCBNEW (5.1.0)-1) date 2019-08-13 11:23:49*
%MOMM*%
%LPD*%
G04 APERTURE LIST*
%ADD10C,0.150000*%
%ADD11C,0.200000*%
%ADD12C,0.120000*%
G04 APERTURE END LIST*
D10*
X129802380Y-71969761D02*
X129945238Y-72017380D01*
X130183333Y-72017380D01*
X130278571Y-71969761D01*
X130326190Y-71922142D01*
X130373809Y-71826904D01*
X130373809Y-71731666D01*
X130326190Y-71636428D01*
X130278571Y-71588809D01*
X130183333Y-71541190D01*
X129992857Y-71493571D01*
X129897619Y-71445952D01*
X129850000Y-71398333D01*
X129802380Y-71303095D01*
X129802380Y-71207857D01*
X129850000Y-71112619D01*
X129897619Y-71065000D01*
X129992857Y-71017380D01*
X130230952Y-71017380D01*
X130373809Y-71065000D01*
X130802380Y-72017380D02*
X130802380Y-71017380D01*
X130802380Y-71493571D02*
X131373809Y-71493571D01*
X131373809Y-72017380D02*
X131373809Y-71017380D01*
X132040476Y-71017380D02*
X132230952Y-71017380D01*
X132326190Y-71065000D01*
X132421428Y-71160238D01*
X132469047Y-71350714D01*
X132469047Y-71684047D01*
X132421428Y-71874523D01*
X132326190Y-71969761D01*
X132230952Y-72017380D01*
X132040476Y-72017380D01*
X131945238Y-71969761D01*
X131850000Y-71874523D01*
X131802380Y-71684047D01*
X131802380Y-71350714D01*
X131850000Y-71160238D01*
X131945238Y-71065000D01*
X132040476Y-71017380D01*
X132802380Y-71017380D02*
X133040476Y-72017380D01*
X133230952Y-71303095D01*
X133421428Y-72017380D01*
X133659523Y-71017380D01*
X134040476Y-72017380D02*
X134040476Y-71017380D01*
X134516666Y-72017380D02*
X134516666Y-71017380D01*
X135088095Y-72017380D01*
X135088095Y-71017380D01*
X136088095Y-71065000D02*
X135992857Y-71017380D01*
X135850000Y-71017380D01*
X135707142Y-71065000D01*
X135611904Y-71160238D01*
X135564285Y-71255476D01*
X135516666Y-71445952D01*
X135516666Y-71588809D01*
X135564285Y-71779285D01*
X135611904Y-71874523D01*
X135707142Y-71969761D01*
X135850000Y-72017380D01*
X135945238Y-72017380D01*
X136088095Y-71969761D01*
X136135714Y-71922142D01*
X136135714Y-71588809D01*
X135945238Y-71588809D01*
X130064285Y-73619761D02*
X130207142Y-73667380D01*
X130445238Y-73667380D01*
X130540476Y-73619761D01*
X130588095Y-73572142D01*
X130635714Y-73476904D01*
X130635714Y-73381666D01*
X130588095Y-73286428D01*
X130540476Y-73238809D01*
X130445238Y-73191190D01*
X130254761Y-73143571D01*
X130159523Y-73095952D01*
X130111904Y-73048333D01*
X130064285Y-72953095D01*
X130064285Y-72857857D01*
X130111904Y-72762619D01*
X130159523Y-72715000D01*
X130254761Y-72667380D01*
X130492857Y-72667380D01*
X130635714Y-72715000D01*
X131064285Y-73143571D02*
X131397619Y-73143571D01*
X131540476Y-73667380D02*
X131064285Y-73667380D01*
X131064285Y-72667380D01*
X131540476Y-72667380D01*
X131826190Y-72667380D02*
X132397619Y-72667380D01*
X132111904Y-73667380D02*
X132111904Y-72667380D01*
X132730952Y-73667380D02*
X132730952Y-72667380D01*
X133111904Y-72667380D01*
X133207142Y-72715000D01*
X133254761Y-72762619D01*
X133302380Y-72857857D01*
X133302380Y-73000714D01*
X133254761Y-73095952D01*
X133207142Y-73143571D01*
X133111904Y-73191190D01*
X132730952Y-73191190D01*
X133921428Y-72667380D02*
X134111904Y-72667380D01*
X134207142Y-72715000D01*
X134302380Y-72810238D01*
X134350000Y-73000714D01*
X134350000Y-73334047D01*
X134302380Y-73524523D01*
X134207142Y-73619761D01*
X134111904Y-73667380D01*
X133921428Y-73667380D01*
X133826190Y-73619761D01*
X133730952Y-73524523D01*
X133683333Y-73334047D01*
X133683333Y-73000714D01*
X133730952Y-72810238D01*
X133826190Y-72715000D01*
X133921428Y-72667380D01*
X134778571Y-73667380D02*
X134778571Y-72667380D01*
X135254761Y-73667380D02*
X135254761Y-72667380D01*
X135826190Y-73667380D01*
X135826190Y-72667380D01*
X136159523Y-72667380D02*
X136730952Y-72667380D01*
X136445238Y-73667380D02*
X136445238Y-72667380D01*
X125103619Y-65921380D02*
X124770285Y-65445190D01*
X124532190Y-65921380D02*
X124532190Y-64921380D01*
X124913142Y-64921380D01*
X125008380Y-64969000D01*
X125056000Y-65016619D01*
X125103619Y-65111857D01*
X125103619Y-65254714D01*
X125056000Y-65349952D01*
X125008380Y-65397571D01*
X124913142Y-65445190D01*
X124532190Y-65445190D01*
X125532190Y-65397571D02*
X125865523Y-65397571D01*
X126008380Y-65921380D02*
X125532190Y-65921380D01*
X125532190Y-64921380D01*
X126008380Y-64921380D01*
X127103619Y-66016619D02*
X127008380Y-65969000D01*
X126913142Y-65873761D01*
X126770285Y-65730904D01*
X126675047Y-65683285D01*
X126579809Y-65683285D01*
X126627428Y-65921380D02*
X126532190Y-65873761D01*
X126436952Y-65778523D01*
X126389333Y-65588047D01*
X126389333Y-65254714D01*
X126436952Y-65064238D01*
X126532190Y-64969000D01*
X126627428Y-64921380D01*
X126817904Y-64921380D01*
X126913142Y-64969000D01*
X127008380Y-65064238D01*
X127056000Y-65254714D01*
X127056000Y-65588047D01*
X127008380Y-65778523D01*
X126913142Y-65873761D01*
X126817904Y-65921380D01*
X126627428Y-65921380D01*
X128579809Y-65397571D02*
X128246476Y-65397571D01*
X128246476Y-65921380D02*
X128246476Y-64921380D01*
X128722666Y-64921380D01*
X129579809Y-65921380D02*
X129103619Y-65921380D01*
X129103619Y-64921380D01*
X129913142Y-64921380D02*
X129913142Y-65730904D01*
X129960761Y-65826142D01*
X130008380Y-65873761D01*
X130103619Y-65921380D01*
X130294095Y-65921380D01*
X130389333Y-65873761D01*
X130436952Y-65826142D01*
X130484571Y-65730904D01*
X130484571Y-64921380D01*
X130960761Y-65921380D02*
X130960761Y-64921380D01*
X131436952Y-65921380D02*
X131436952Y-64921380D01*
X131675047Y-64921380D01*
X131817904Y-64969000D01*
X131913142Y-65064238D01*
X131960761Y-65159476D01*
X132008380Y-65349952D01*
X132008380Y-65492809D01*
X131960761Y-65683285D01*
X131913142Y-65778523D01*
X131817904Y-65873761D01*
X131675047Y-65921380D01*
X131436952Y-65921380D01*
X133532190Y-65397571D02*
X133198857Y-65397571D01*
X133198857Y-65921380D02*
X133198857Y-64921380D01*
X133675047Y-64921380D01*
X134532190Y-65921380D02*
X134056000Y-65921380D01*
X134056000Y-64921380D01*
X135056000Y-64921380D02*
X135246476Y-64921380D01*
X135341714Y-64969000D01*
X135436952Y-65064238D01*
X135484571Y-65254714D01*
X135484571Y-65588047D01*
X135436952Y-65778523D01*
X135341714Y-65873761D01*
X135246476Y-65921380D01*
X135056000Y-65921380D01*
X134960761Y-65873761D01*
X134865523Y-65778523D01*
X134817904Y-65588047D01*
X134817904Y-65254714D01*
X134865523Y-65064238D01*
X134960761Y-64969000D01*
X135056000Y-64921380D01*
X135817904Y-64921380D02*
X136056000Y-65921380D01*
X136246476Y-65207095D01*
X136436952Y-65921380D01*
X136675047Y-64921380D01*
X124365523Y-67952333D02*
X124317904Y-67904714D01*
X124222666Y-67761857D01*
X124175047Y-67666619D01*
X124127428Y-67523761D01*
X124079809Y-67285666D01*
X124079809Y-67095190D01*
X124127428Y-66857095D01*
X124175047Y-66714238D01*
X124222666Y-66619000D01*
X124317904Y-66476142D01*
X124365523Y-66428523D01*
X125175047Y-66904714D02*
X125175047Y-67714238D01*
X125127428Y-67809476D01*
X125079809Y-67857095D01*
X124984571Y-67904714D01*
X124841714Y-67904714D01*
X124746476Y-67857095D01*
X125175047Y-67523761D02*
X125079809Y-67571380D01*
X124889333Y-67571380D01*
X124794095Y-67523761D01*
X124746476Y-67476142D01*
X124698857Y-67380904D01*
X124698857Y-67095190D01*
X124746476Y-66999952D01*
X124794095Y-66952333D01*
X124889333Y-66904714D01*
X125079809Y-66904714D01*
X125175047Y-66952333D01*
X126365523Y-66523761D02*
X125508380Y-67809476D01*
X126698857Y-67571380D02*
X126698857Y-66571380D01*
X127127428Y-67571380D02*
X127127428Y-67047571D01*
X127079809Y-66952333D01*
X126984571Y-66904714D01*
X126841714Y-66904714D01*
X126746476Y-66952333D01*
X126698857Y-66999952D01*
X128365523Y-66904714D02*
X128365523Y-67904714D01*
X128365523Y-66952333D02*
X128460761Y-66904714D01*
X128651238Y-66904714D01*
X128746476Y-66952333D01*
X128794095Y-66999952D01*
X128841714Y-67095190D01*
X128841714Y-67380904D01*
X128794095Y-67476142D01*
X128746476Y-67523761D01*
X128651238Y-67571380D01*
X128460761Y-67571380D01*
X128365523Y-67523761D01*
X129651238Y-67523761D02*
X129556000Y-67571380D01*
X129365523Y-67571380D01*
X129270285Y-67523761D01*
X129222666Y-67428523D01*
X129222666Y-67047571D01*
X129270285Y-66952333D01*
X129365523Y-66904714D01*
X129556000Y-66904714D01*
X129651238Y-66952333D01*
X129698857Y-67047571D01*
X129698857Y-67142809D01*
X129222666Y-67238047D01*
X130127428Y-67571380D02*
X130127428Y-66904714D01*
X130127428Y-67095190D02*
X130175047Y-66999952D01*
X130222666Y-66952333D01*
X130317904Y-66904714D01*
X130413142Y-66904714D01*
X132032190Y-67571380D02*
X131460761Y-67571380D01*
X131746476Y-67571380D02*
X131746476Y-66571380D01*
X131651238Y-66714238D01*
X131556000Y-66809476D01*
X131460761Y-66857095D01*
X132651238Y-66571380D02*
X132746476Y-66571380D01*
X132841714Y-66619000D01*
X132889333Y-66666619D01*
X132936952Y-66761857D01*
X132984571Y-66952333D01*
X132984571Y-67190428D01*
X132936952Y-67380904D01*
X132889333Y-67476142D01*
X132841714Y-67523761D01*
X132746476Y-67571380D01*
X132651238Y-67571380D01*
X132556000Y-67523761D01*
X132508380Y-67476142D01*
X132460761Y-67380904D01*
X132413142Y-67190428D01*
X132413142Y-66952333D01*
X132460761Y-66761857D01*
X132508380Y-66666619D01*
X132556000Y-66619000D01*
X132651238Y-66571380D01*
X133603619Y-66571380D02*
X133698857Y-66571380D01*
X133794095Y-66619000D01*
X133841714Y-66666619D01*
X133889333Y-66761857D01*
X133936952Y-66952333D01*
X133936952Y-67190428D01*
X133889333Y-67380904D01*
X133841714Y-67476142D01*
X133794095Y-67523761D01*
X133698857Y-67571380D01*
X133603619Y-67571380D01*
X133508380Y-67523761D01*
X133460761Y-67476142D01*
X133413142Y-67380904D01*
X133365523Y-67190428D01*
X133365523Y-66952333D01*
X133413142Y-66761857D01*
X133460761Y-66666619D01*
X133508380Y-66619000D01*
X133603619Y-66571380D01*
X134508380Y-67571380D02*
X134413142Y-67523761D01*
X134365523Y-67428523D01*
X134365523Y-66571380D01*
X135603619Y-66523761D02*
X134746476Y-67809476D01*
X135936952Y-67571380D02*
X135936952Y-66571380D01*
X136365523Y-67571380D02*
X136365523Y-67047571D01*
X136317904Y-66952333D01*
X136222666Y-66904714D01*
X136079809Y-66904714D01*
X135984571Y-66952333D01*
X135936952Y-66999952D01*
X136746476Y-67952333D02*
X136794095Y-67904714D01*
X136889333Y-67761857D01*
X136936952Y-67666619D01*
X136984571Y-67523761D01*
X137032190Y-67285666D01*
X137032190Y-67095190D01*
X136984571Y-66857095D01*
X136936952Y-66714238D01*
X136889333Y-66619000D01*
X136794095Y-66476142D01*
X136746476Y-66428523D01*
X130437333Y-79398761D02*
X130580190Y-79446380D01*
X130818285Y-79446380D01*
X130913523Y-79398761D01*
X130961142Y-79351142D01*
X131008761Y-79255904D01*
X131008761Y-79160666D01*
X130961142Y-79065428D01*
X130913523Y-79017809D01*
X130818285Y-78970190D01*
X130627809Y-78922571D01*
X130532571Y-78874952D01*
X130484952Y-78827333D01*
X130437333Y-78732095D01*
X130437333Y-78636857D01*
X130484952Y-78541619D01*
X130532571Y-78494000D01*
X130627809Y-78446380D01*
X130865904Y-78446380D01*
X131008761Y-78494000D01*
X131437333Y-78922571D02*
X131770666Y-78922571D01*
X131913523Y-79446380D02*
X131437333Y-79446380D01*
X131437333Y-78446380D01*
X131913523Y-78446380D01*
X132199238Y-78446380D02*
X132770666Y-78446380D01*
X132484952Y-79446380D02*
X132484952Y-78446380D01*
X132961142Y-78446380D02*
X133532571Y-78446380D01*
X133246857Y-79446380D02*
X133246857Y-78446380D01*
X134342095Y-79446380D02*
X133865904Y-79446380D01*
X133865904Y-78446380D01*
X134675428Y-79446380D02*
X134675428Y-78446380D01*
X135151619Y-79446380D02*
X135151619Y-78446380D01*
X135723047Y-79446380D01*
X135723047Y-78446380D01*
X136723047Y-78494000D02*
X136627809Y-78446380D01*
X136484952Y-78446380D01*
X136342095Y-78494000D01*
X136246857Y-78589238D01*
X136199238Y-78684476D01*
X136151619Y-78874952D01*
X136151619Y-79017809D01*
X136199238Y-79208285D01*
X136246857Y-79303523D01*
X136342095Y-79398761D01*
X136484952Y-79446380D01*
X136580190Y-79446380D01*
X136723047Y-79398761D01*
X136770666Y-79351142D01*
X136770666Y-79017809D01*
X136580190Y-79017809D01*
X116451428Y-78272142D02*
X116403809Y-78319761D01*
X116260952Y-78367380D01*
X116165714Y-78367380D01*
X116022857Y-78319761D01*
X115927619Y-78224523D01*
X115880000Y-78129285D01*
X115832380Y-77938809D01*
X115832380Y-77795952D01*
X115880000Y-77605476D01*
X115927619Y-77510238D01*
X116022857Y-77415000D01*
X116165714Y-77367380D01*
X116260952Y-77367380D01*
X116403809Y-77415000D01*
X116451428Y-77462619D01*
X116880000Y-78367380D02*
X116880000Y-77367380D01*
X116880000Y-77843571D02*
X117451428Y-77843571D01*
X117451428Y-78367380D02*
X117451428Y-77367380D01*
X117880000Y-78081666D02*
X118356190Y-78081666D01*
X117784761Y-78367380D02*
X118118095Y-77367380D01*
X118451428Y-78367380D01*
X118784761Y-78367380D02*
X118784761Y-77367380D01*
X119356190Y-78367380D01*
X119356190Y-77367380D01*
X120356190Y-77415000D02*
X120260952Y-77367380D01*
X120118095Y-77367380D01*
X119975238Y-77415000D01*
X119880000Y-77510238D01*
X119832380Y-77605476D01*
X119784761Y-77795952D01*
X119784761Y-77938809D01*
X119832380Y-78129285D01*
X119880000Y-78224523D01*
X119975238Y-78319761D01*
X120118095Y-78367380D01*
X120213333Y-78367380D01*
X120356190Y-78319761D01*
X120403809Y-78272142D01*
X120403809Y-77938809D01*
X120213333Y-77938809D01*
X120832380Y-78367380D02*
X120832380Y-77367380D01*
X121308571Y-78367380D02*
X121308571Y-77367380D01*
X121880000Y-78367380D01*
X121880000Y-77367380D01*
X122880000Y-77415000D02*
X122784761Y-77367380D01*
X122641904Y-77367380D01*
X122499047Y-77415000D01*
X122403809Y-77510238D01*
X122356190Y-77605476D01*
X122308571Y-77795952D01*
X122308571Y-77938809D01*
X122356190Y-78129285D01*
X122403809Y-78224523D01*
X122499047Y-78319761D01*
X122641904Y-78367380D01*
X122737142Y-78367380D01*
X122880000Y-78319761D01*
X122927619Y-78272142D01*
X122927619Y-77938809D01*
X122737142Y-77938809D01*
X116094285Y-79969761D02*
X116237142Y-80017380D01*
X116475238Y-80017380D01*
X116570476Y-79969761D01*
X116618095Y-79922142D01*
X116665714Y-79826904D01*
X116665714Y-79731666D01*
X116618095Y-79636428D01*
X116570476Y-79588809D01*
X116475238Y-79541190D01*
X116284761Y-79493571D01*
X116189523Y-79445952D01*
X116141904Y-79398333D01*
X116094285Y-79303095D01*
X116094285Y-79207857D01*
X116141904Y-79112619D01*
X116189523Y-79065000D01*
X116284761Y-79017380D01*
X116522857Y-79017380D01*
X116665714Y-79065000D01*
X117094285Y-79493571D02*
X117427619Y-79493571D01*
X117570476Y-80017380D02*
X117094285Y-80017380D01*
X117094285Y-79017380D01*
X117570476Y-79017380D01*
X117856190Y-79017380D02*
X118427619Y-79017380D01*
X118141904Y-80017380D02*
X118141904Y-79017380D01*
X118760952Y-80017380D02*
X118760952Y-79017380D01*
X119141904Y-79017380D01*
X119237142Y-79065000D01*
X119284761Y-79112619D01*
X119332380Y-79207857D01*
X119332380Y-79350714D01*
X119284761Y-79445952D01*
X119237142Y-79493571D01*
X119141904Y-79541190D01*
X118760952Y-79541190D01*
X119951428Y-79017380D02*
X120141904Y-79017380D01*
X120237142Y-79065000D01*
X120332380Y-79160238D01*
X120380000Y-79350714D01*
X120380000Y-79684047D01*
X120332380Y-79874523D01*
X120237142Y-79969761D01*
X120141904Y-80017380D01*
X119951428Y-80017380D01*
X119856190Y-79969761D01*
X119760952Y-79874523D01*
X119713333Y-79684047D01*
X119713333Y-79350714D01*
X119760952Y-79160238D01*
X119856190Y-79065000D01*
X119951428Y-79017380D01*
X120808571Y-80017380D02*
X120808571Y-79017380D01*
X121284761Y-80017380D02*
X121284761Y-79017380D01*
X121856190Y-80017380D01*
X121856190Y-79017380D01*
X122189523Y-79017380D02*
X122760952Y-79017380D01*
X122475238Y-80017380D02*
X122475238Y-79017380D01*
X116364095Y-71969761D02*
X116506952Y-72017380D01*
X116745047Y-72017380D01*
X116840285Y-71969761D01*
X116887904Y-71922142D01*
X116935523Y-71826904D01*
X116935523Y-71731666D01*
X116887904Y-71636428D01*
X116840285Y-71588809D01*
X116745047Y-71541190D01*
X116554571Y-71493571D01*
X116459333Y-71445952D01*
X116411714Y-71398333D01*
X116364095Y-71303095D01*
X116364095Y-71207857D01*
X116411714Y-71112619D01*
X116459333Y-71065000D01*
X116554571Y-71017380D01*
X116792666Y-71017380D01*
X116935523Y-71065000D01*
X117364095Y-71493571D02*
X117697428Y-71493571D01*
X117840285Y-72017380D02*
X117364095Y-72017380D01*
X117364095Y-71017380D01*
X117840285Y-71017380D01*
X118268857Y-72017380D02*
X118268857Y-71017380D01*
X118840285Y-72017380D01*
X118840285Y-71017380D01*
X119268857Y-71969761D02*
X119411714Y-72017380D01*
X119649809Y-72017380D01*
X119745047Y-71969761D01*
X119792666Y-71922142D01*
X119840285Y-71826904D01*
X119840285Y-71731666D01*
X119792666Y-71636428D01*
X119745047Y-71588809D01*
X119649809Y-71541190D01*
X119459333Y-71493571D01*
X119364095Y-71445952D01*
X119316476Y-71398333D01*
X119268857Y-71303095D01*
X119268857Y-71207857D01*
X119316476Y-71112619D01*
X119364095Y-71065000D01*
X119459333Y-71017380D01*
X119697428Y-71017380D01*
X119840285Y-71065000D01*
X120459333Y-71017380D02*
X120649809Y-71017380D01*
X120745047Y-71065000D01*
X120840285Y-71160238D01*
X120887904Y-71350714D01*
X120887904Y-71684047D01*
X120840285Y-71874523D01*
X120745047Y-71969761D01*
X120649809Y-72017380D01*
X120459333Y-72017380D01*
X120364095Y-71969761D01*
X120268857Y-71874523D01*
X120221238Y-71684047D01*
X120221238Y-71350714D01*
X120268857Y-71160238D01*
X120364095Y-71065000D01*
X120459333Y-71017380D01*
X121887904Y-72017380D02*
X121554571Y-71541190D01*
X121316476Y-72017380D02*
X121316476Y-71017380D01*
X121697428Y-71017380D01*
X121792666Y-71065000D01*
X121840285Y-71112619D01*
X121887904Y-71207857D01*
X121887904Y-71350714D01*
X121840285Y-71445952D01*
X121792666Y-71493571D01*
X121697428Y-71541190D01*
X121316476Y-71541190D01*
X115745047Y-73667380D02*
X115745047Y-72667380D01*
X115983142Y-72667380D01*
X116126000Y-72715000D01*
X116221238Y-72810238D01*
X116268857Y-72905476D01*
X116316476Y-73095952D01*
X116316476Y-73238809D01*
X116268857Y-73429285D01*
X116221238Y-73524523D01*
X116126000Y-73619761D01*
X115983142Y-73667380D01*
X115745047Y-73667380D01*
X116745047Y-73143571D02*
X117078380Y-73143571D01*
X117221238Y-73667380D02*
X116745047Y-73667380D01*
X116745047Y-72667380D01*
X117221238Y-72667380D01*
X117506952Y-72667380D02*
X118078380Y-72667380D01*
X117792666Y-73667380D02*
X117792666Y-72667380D01*
X118411714Y-73143571D02*
X118745047Y-73143571D01*
X118887904Y-73667380D02*
X118411714Y-73667380D01*
X118411714Y-72667380D01*
X118887904Y-72667380D01*
X119887904Y-73572142D02*
X119840285Y-73619761D01*
X119697428Y-73667380D01*
X119602190Y-73667380D01*
X119459333Y-73619761D01*
X119364095Y-73524523D01*
X119316476Y-73429285D01*
X119268857Y-73238809D01*
X119268857Y-73095952D01*
X119316476Y-72905476D01*
X119364095Y-72810238D01*
X119459333Y-72715000D01*
X119602190Y-72667380D01*
X119697428Y-72667380D01*
X119840285Y-72715000D01*
X119887904Y-72762619D01*
X120173619Y-72667380D02*
X120745047Y-72667380D01*
X120459333Y-73667380D02*
X120459333Y-72667380D01*
X121078380Y-73143571D02*
X121411714Y-73143571D01*
X121554571Y-73667380D02*
X121078380Y-73667380D01*
X121078380Y-72667380D01*
X121554571Y-72667380D01*
X121983142Y-73667380D02*
X121983142Y-72667380D01*
X122221238Y-72667380D01*
X122364095Y-72715000D01*
X122459333Y-72810238D01*
X122506952Y-72905476D01*
X122554571Y-73095952D01*
X122554571Y-73238809D01*
X122506952Y-73429285D01*
X122459333Y-73524523D01*
X122364095Y-73619761D01*
X122221238Y-73667380D01*
X121983142Y-73667380D01*
D11*
X116205333Y-66944761D02*
X116205333Y-64944761D01*
X116967238Y-64944761D01*
X117157714Y-65040000D01*
X117252952Y-65135238D01*
X117348190Y-65325714D01*
X117348190Y-65611428D01*
X117252952Y-65801904D01*
X117157714Y-65897142D01*
X116967238Y-65992380D01*
X116205333Y-65992380D01*
X118014857Y-64944761D02*
X118491047Y-66944761D01*
X118872000Y-65516190D01*
X119252952Y-66944761D01*
X119729142Y-64944761D01*
X121633904Y-66944761D02*
X120967238Y-65992380D01*
X120491047Y-66944761D02*
X120491047Y-64944761D01*
X121252952Y-64944761D01*
X121443428Y-65040000D01*
X121538666Y-65135238D01*
X121633904Y-65325714D01*
X121633904Y-65611428D01*
X121538666Y-65801904D01*
X121443428Y-65897142D01*
X121252952Y-65992380D01*
X120491047Y-65992380D01*
D12*
X117475000Y-115570000D02*
X117475000Y-113030000D01*
X117475000Y-113030000D02*
X114805000Y-113030000D01*
X114805000Y-115570000D02*
X114805000Y-153800000D01*
X114805000Y-110360000D02*
X114805000Y-113030000D01*
X130175000Y-113030000D02*
X132845000Y-113030000D01*
X130175000Y-113030000D02*
X130175000Y-151130000D01*
X130175000Y-151130000D02*
X132845000Y-151130000D01*
X117475000Y-115570000D02*
X114805000Y-115570000D01*
X117475000Y-115570000D02*
X117475000Y-151130000D01*
X117475000Y-151130000D02*
X114805000Y-151130000D01*
X114805000Y-153800000D02*
X132845000Y-153800000D01*
X132845000Y-153800000D02*
X132845000Y-110360000D01*
X132845000Y-110360000D02*
X114805000Y-110360000D01*
X193404000Y-61170000D02*
X145404000Y-61170000D01*
X145404000Y-61170000D02*
X145404000Y-119170000D01*
X145404000Y-119170000D02*
X193404000Y-119170000D01*
X193404000Y-119170000D02*
X193404000Y-61170000D01*
X182904000Y-66420000D02*
X182904000Y-64420000D01*
X181904000Y-65420000D02*
X183904000Y-65420000D01*
X171154000Y-65670000D02*
X169404000Y-65670000D01*
X141372335Y-64961392D02*
G75*
G03X138140000Y-64804484I-1672335J-1078608D01*
G01*
X141372335Y-67118608D02*
G75*
G02X138140000Y-67275516I-1672335J1078608D01*
G01*
X140741130Y-64960163D02*
G75*
G03X138659039Y-64960000I-1041130J-1079837D01*
G01*
X140741130Y-67119837D02*
G75*
G02X138659039Y-67120000I-1041130J1079837D01*
G01*
X138140000Y-64804000D02*
X138140000Y-64960000D01*
X138140000Y-67120000D02*
X138140000Y-67276000D01*
X138140000Y-73470000D02*
X138140000Y-73626000D01*
X138140000Y-71154000D02*
X138140000Y-71310000D01*
X140741130Y-73469837D02*
G75*
G02X138659039Y-73470000I-1041130J1079837D01*
G01*
X140741130Y-71310163D02*
G75*
G03X138659039Y-71310000I-1041130J-1079837D01*
G01*
X141372335Y-73468608D02*
G75*
G02X138140000Y-73625516I-1672335J1078608D01*
G01*
X141372335Y-71311392D02*
G75*
G03X138140000Y-71154484I-1672335J-1078608D01*
G01*
X141372335Y-77915392D02*
G75*
G03X138140000Y-77758484I-1672335J-1078608D01*
G01*
X141372335Y-80072608D02*
G75*
G02X138140000Y-80229516I-1672335J1078608D01*
G01*
X140741130Y-77914163D02*
G75*
G03X138659039Y-77914000I-1041130J-1079837D01*
G01*
X140741130Y-80073837D02*
G75*
G02X138659039Y-80074000I-1041130J1079837D01*
G01*
X138140000Y-77758000D02*
X138140000Y-77914000D01*
X138140000Y-80074000D02*
X138140000Y-80230000D01*
X111470000Y-67120000D02*
X111470000Y-67276000D01*
X111470000Y-64804000D02*
X111470000Y-64960000D01*
X114071130Y-67119837D02*
G75*
G02X111989039Y-67120000I-1041130J1079837D01*
G01*
X114071130Y-64960163D02*
G75*
G03X111989039Y-64960000I-1041130J-1079837D01*
G01*
X114702335Y-67118608D02*
G75*
G02X111470000Y-67275516I-1672335J1078608D01*
G01*
X114702335Y-64961392D02*
G75*
G03X111470000Y-64804484I-1672335J-1078608D01*
G01*
X114702335Y-71311392D02*
G75*
G03X111470000Y-71154484I-1672335J-1078608D01*
G01*
X114702335Y-73468608D02*
G75*
G02X111470000Y-73625516I-1672335J1078608D01*
G01*
X114071130Y-71310163D02*
G75*
G03X111989039Y-71310000I-1041130J-1079837D01*
G01*
X114071130Y-73469837D02*
G75*
G02X111989039Y-73470000I-1041130J1079837D01*
G01*
X111470000Y-71154000D02*
X111470000Y-71310000D01*
X111470000Y-73470000D02*
X111470000Y-73626000D01*
X111470000Y-79820000D02*
X111470000Y-79976000D01*
X111470000Y-77504000D02*
X111470000Y-77660000D01*
X114071130Y-79819837D02*
G75*
G02X111989039Y-79820000I-1041130J1079837D01*
G01*
X114071130Y-77660163D02*
G75*
G03X111989039Y-77660000I-1041130J-1079837D01*
G01*
X114702335Y-79818608D02*
G75*
G02X111470000Y-79975516I-1672335J1078608D01*
G01*
X114702335Y-77661392D02*
G75*
G03X111470000Y-77504484I-1672335J-1078608D01*
G01*
X119380000Y-99060000D02*
X142240000Y-99060000D01*
X142240000Y-99060000D02*
X142240000Y-83820000D01*
X142240000Y-83820000D02*
X109220000Y-83820000D01*
X109220000Y-83820000D02*
X109220000Y-99060000D01*
X109220000Y-99060000D02*
X119380000Y-99060000D01*
X122504905Y-90424000D02*
G75*
G03X122504905Y-90424000I-457905J0D01*
G01*
X122504905Y-93091000D02*
G75*
G03X122504905Y-93091000I-457905J0D01*
G01*
X121361905Y-95123000D02*
G75*
G03X121361905Y-95123000I-457905J0D01*
G01*
X128600905Y-94996000D02*
G75*
G03X128600905Y-94996000I-457905J0D01*
G01*
X130576609Y-88138000D02*
G75*
G03X130576609Y-88138000I-401609J0D01*
G01*
X137490905Y-94996000D02*
G75*
G03X137490905Y-94996000I-457905J0D01*
G01*
X116840000Y-89027000D02*
X115697000Y-95250000D01*
X115697000Y-95250000D02*
X118618000Y-95250000D01*
X118618000Y-95250000D02*
X119761000Y-88900000D01*
X119761000Y-88900000D02*
X116840000Y-89027000D01*
X116332000Y-91694000D02*
X119253000Y-91694000D01*
X124460000Y-88646000D02*
X122936000Y-94615000D01*
X122936000Y-94615000D02*
X125984000Y-94742000D01*
X125984000Y-94742000D02*
X127762000Y-88900000D01*
X127762000Y-88900000D02*
X124333000Y-88646000D01*
X124333000Y-88646000D02*
X123698000Y-91567000D01*
X123698000Y-91567000D02*
X127000000Y-91440000D01*
X131953000Y-89027000D02*
X131064000Y-94234000D01*
X131064000Y-94234000D02*
X134366000Y-94361000D01*
X134366000Y-94361000D02*
X136017000Y-88392000D01*
X136017000Y-88392000D02*
X131953000Y-88392000D01*
X131953000Y-88392000D02*
X131953000Y-88900000D01*
X131953000Y-88900000D02*
X131572000Y-91059000D01*
X131572000Y-91059000D02*
X135255000Y-91186000D01*
X163125000Y-160000000D02*
X163125000Y-145460000D01*
X163125000Y-145460000D02*
X194095000Y-145460000D01*
X194095000Y-145460000D02*
X194095000Y-160000000D01*
X183900000Y-144565662D02*
X184400000Y-144565662D01*
X184400000Y-144565662D02*
X184150000Y-144998675D01*
X184150000Y-144998675D02*
X183900000Y-144565662D01*
X106822000Y-120300000D02*
X106822000Y-118460000D01*
X106822000Y-118460000D02*
X102982000Y-118460000D01*
X102982000Y-118460000D02*
X102982000Y-120300000D01*
X102982000Y-120300000D02*
X106822000Y-120300000D01*
X107772000Y-119380000D02*
X106822000Y-119380000D01*
X102032000Y-119380000D02*
X102982000Y-119380000D01*
X106822000Y-125380000D02*
X106822000Y-123540000D01*
X106822000Y-123540000D02*
X102982000Y-123540000D01*
X102982000Y-123540000D02*
X102982000Y-125380000D01*
X102982000Y-125380000D02*
X106822000Y-125380000D01*
X107772000Y-124460000D02*
X106822000Y-124460000D01*
X102032000Y-124460000D02*
X102982000Y-124460000D01*
X102032000Y-127000000D02*
X102982000Y-127000000D01*
X107772000Y-127000000D02*
X106822000Y-127000000D01*
X102982000Y-127920000D02*
X106822000Y-127920000D01*
X102982000Y-126080000D02*
X102982000Y-127920000D01*
X106822000Y-126080000D02*
X102982000Y-126080000D01*
X106822000Y-127920000D02*
X106822000Y-126080000D01*
X106822000Y-130460000D02*
X106822000Y-128620000D01*
X106822000Y-128620000D02*
X102982000Y-128620000D01*
X102982000Y-128620000D02*
X102982000Y-130460000D01*
X102982000Y-130460000D02*
X106822000Y-130460000D01*
X107772000Y-129540000D02*
X106822000Y-129540000D01*
X102032000Y-129540000D02*
X102982000Y-129540000D01*
X102032000Y-137160000D02*
X102982000Y-137160000D01*
X107772000Y-137160000D02*
X106822000Y-137160000D01*
X102982000Y-138080000D02*
X106822000Y-138080000D01*
X102982000Y-136240000D02*
X102982000Y-138080000D01*
X106822000Y-136240000D02*
X102982000Y-136240000D01*
X106822000Y-138080000D02*
X106822000Y-136240000D01*
X106822000Y-140620000D02*
X106822000Y-138780000D01*
X106822000Y-138780000D02*
X102982000Y-138780000D01*
X102982000Y-138780000D02*
X102982000Y-140620000D01*
X102982000Y-140620000D02*
X106822000Y-140620000D01*
X107772000Y-139700000D02*
X106822000Y-139700000D01*
X102032000Y-139700000D02*
X102982000Y-139700000D01*
X102032000Y-142240000D02*
X102982000Y-142240000D01*
X107772000Y-142240000D02*
X106822000Y-142240000D01*
X102982000Y-143160000D02*
X106822000Y-143160000D01*
X102982000Y-141320000D02*
X102982000Y-143160000D01*
X106822000Y-141320000D02*
X102982000Y-141320000D01*
X106822000Y-143160000D02*
X106822000Y-141320000D01*
X102032000Y-121920000D02*
X102982000Y-121920000D01*
X107772000Y-121920000D02*
X106822000Y-121920000D01*
X102982000Y-122840000D02*
X106822000Y-122840000D01*
X102982000Y-121000000D02*
X102982000Y-122840000D01*
X106822000Y-121000000D02*
X102982000Y-121000000D01*
X106822000Y-122840000D02*
X106822000Y-121000000D01*
X106822000Y-133000000D02*
X106822000Y-131160000D01*
X106822000Y-131160000D02*
X102982000Y-131160000D01*
X102982000Y-131160000D02*
X102982000Y-133000000D01*
X102982000Y-133000000D02*
X106822000Y-133000000D01*
X107772000Y-132080000D02*
X106822000Y-132080000D01*
X102032000Y-132080000D02*
X102982000Y-132080000D01*
X102032000Y-134620000D02*
X102982000Y-134620000D01*
X107772000Y-134620000D02*
X106822000Y-134620000D01*
X102982000Y-135540000D02*
X106822000Y-135540000D01*
X102982000Y-133700000D02*
X102982000Y-135540000D01*
X106822000Y-133700000D02*
X102982000Y-133700000D01*
X106822000Y-135540000D02*
X106822000Y-133700000D01*
X194437000Y-123063000D02*
X178943000Y-123063000D01*
X178943000Y-123063000D02*
X178943000Y-138557000D01*
X178943000Y-138557000D02*
X194437000Y-138557000D01*
X194437000Y-138557000D02*
X194437000Y-123063000D01*
X153797000Y-138557000D02*
X153797000Y-123063000D01*
X138303000Y-138557000D02*
X153797000Y-138557000D01*
X138303000Y-123063000D02*
X138303000Y-138557000D01*
X153797000Y-123063000D02*
X138303000Y-123063000D01*
X174117000Y-123063000D02*
X158623000Y-123063000D01*
X158623000Y-123063000D02*
X158623000Y-138557000D01*
X158623000Y-138557000D02*
X174117000Y-138557000D01*
X174117000Y-138557000D02*
X174117000Y-123063000D01*
X105410000Y-72390000D02*
X105410000Y-62230000D01*
X97790000Y-62230000D02*
X105410000Y-62230000D01*
X97790000Y-62230000D02*
X97790000Y-72390000D01*
X97790000Y-72390000D02*
X105410000Y-72390000D01*
X103600000Y-67310000D02*
G75*
G03X103600000Y-67310000I-2000000J0D01*
G01*
X103870000Y-83760000D02*
G75*
G02X101870000Y-83760000I-1000000J0D01*
G01*
X101870000Y-83760000D02*
X100620000Y-83760000D01*
X100620000Y-83760000D02*
X100620000Y-114360000D01*
X100620000Y-114360000D02*
X105120000Y-114360000D01*
X105120000Y-114360000D02*
X105120000Y-83760000D01*
X105120000Y-83760000D02*
X103870000Y-83760000D01*
D10*
X123110714Y-109386666D02*
X123586904Y-109386666D01*
X123015476Y-109672380D02*
X123348809Y-108672380D01*
X123682142Y-109672380D01*
X124539285Y-109672380D02*
X123967857Y-109672380D01*
X124253571Y-109672380D02*
X124253571Y-108672380D01*
X124158333Y-108815238D01*
X124063095Y-108910476D01*
X123967857Y-108958095D01*
X167618285Y-85848571D02*
X167761142Y-85896190D01*
X167808761Y-85943809D01*
X167856380Y-86039047D01*
X167856380Y-86181904D01*
X167808761Y-86277142D01*
X167761142Y-86324761D01*
X167665904Y-86372380D01*
X167284952Y-86372380D01*
X167284952Y-85372380D01*
X167618285Y-85372380D01*
X167713523Y-85420000D01*
X167761142Y-85467619D01*
X167808761Y-85562857D01*
X167808761Y-85658095D01*
X167761142Y-85753333D01*
X167713523Y-85800952D01*
X167618285Y-85848571D01*
X167284952Y-85848571D01*
X168142095Y-85372380D02*
X168713523Y-85372380D01*
X168427809Y-86372380D02*
X168427809Y-85372380D01*
X169570666Y-86372380D02*
X168999238Y-86372380D01*
X169284952Y-86372380D02*
X169284952Y-85372380D01*
X169189714Y-85515238D01*
X169094476Y-85610476D01*
X168999238Y-85658095D01*
X138961904Y-63532380D02*
X138961904Y-62532380D01*
X139200000Y-62532380D01*
X139342857Y-62580000D01*
X139438095Y-62675238D01*
X139485714Y-62770476D01*
X139533333Y-62960952D01*
X139533333Y-63103809D01*
X139485714Y-63294285D01*
X139438095Y-63389523D01*
X139342857Y-63484761D01*
X139200000Y-63532380D01*
X138961904Y-63532380D01*
X140485714Y-63532380D02*
X139914285Y-63532380D01*
X140200000Y-63532380D02*
X140200000Y-62532380D01*
X140104761Y-62675238D01*
X140009523Y-62770476D01*
X139914285Y-62818095D01*
X138961904Y-69882380D02*
X138961904Y-68882380D01*
X139200000Y-68882380D01*
X139342857Y-68930000D01*
X139438095Y-69025238D01*
X139485714Y-69120476D01*
X139533333Y-69310952D01*
X139533333Y-69453809D01*
X139485714Y-69644285D01*
X139438095Y-69739523D01*
X139342857Y-69834761D01*
X139200000Y-69882380D01*
X138961904Y-69882380D01*
X139914285Y-68977619D02*
X139961904Y-68930000D01*
X140057142Y-68882380D01*
X140295238Y-68882380D01*
X140390476Y-68930000D01*
X140438095Y-68977619D01*
X140485714Y-69072857D01*
X140485714Y-69168095D01*
X140438095Y-69310952D01*
X139866666Y-69882380D01*
X140485714Y-69882380D01*
X138961904Y-76486380D02*
X138961904Y-75486380D01*
X139200000Y-75486380D01*
X139342857Y-75534000D01*
X139438095Y-75629238D01*
X139485714Y-75724476D01*
X139533333Y-75914952D01*
X139533333Y-76057809D01*
X139485714Y-76248285D01*
X139438095Y-76343523D01*
X139342857Y-76438761D01*
X139200000Y-76486380D01*
X138961904Y-76486380D01*
X139866666Y-75486380D02*
X140485714Y-75486380D01*
X140152380Y-75867333D01*
X140295238Y-75867333D01*
X140390476Y-75914952D01*
X140438095Y-75962571D01*
X140485714Y-76057809D01*
X140485714Y-76295904D01*
X140438095Y-76391142D01*
X140390476Y-76438761D01*
X140295238Y-76486380D01*
X140009523Y-76486380D01*
X139914285Y-76438761D01*
X139866666Y-76391142D01*
X112291904Y-63532380D02*
X112291904Y-62532380D01*
X112530000Y-62532380D01*
X112672857Y-62580000D01*
X112768095Y-62675238D01*
X112815714Y-62770476D01*
X112863333Y-62960952D01*
X112863333Y-63103809D01*
X112815714Y-63294285D01*
X112768095Y-63389523D01*
X112672857Y-63484761D01*
X112530000Y-63532380D01*
X112291904Y-63532380D01*
X113720476Y-62865714D02*
X113720476Y-63532380D01*
X113482380Y-62484761D02*
X113244285Y-63199047D01*
X113863333Y-63199047D01*
X112291904Y-69882380D02*
X112291904Y-68882380D01*
X112530000Y-68882380D01*
X112672857Y-68930000D01*
X112768095Y-69025238D01*
X112815714Y-69120476D01*
X112863333Y-69310952D01*
X112863333Y-69453809D01*
X112815714Y-69644285D01*
X112768095Y-69739523D01*
X112672857Y-69834761D01*
X112530000Y-69882380D01*
X112291904Y-69882380D01*
X113768095Y-68882380D02*
X113291904Y-68882380D01*
X113244285Y-69358571D01*
X113291904Y-69310952D01*
X113387142Y-69263333D01*
X113625238Y-69263333D01*
X113720476Y-69310952D01*
X113768095Y-69358571D01*
X113815714Y-69453809D01*
X113815714Y-69691904D01*
X113768095Y-69787142D01*
X113720476Y-69834761D01*
X113625238Y-69882380D01*
X113387142Y-69882380D01*
X113291904Y-69834761D01*
X113244285Y-69787142D01*
X112291904Y-76232380D02*
X112291904Y-75232380D01*
X112530000Y-75232380D01*
X112672857Y-75280000D01*
X112768095Y-75375238D01*
X112815714Y-75470476D01*
X112863333Y-75660952D01*
X112863333Y-75803809D01*
X112815714Y-75994285D01*
X112768095Y-76089523D01*
X112672857Y-76184761D01*
X112530000Y-76232380D01*
X112291904Y-76232380D01*
X113720476Y-75232380D02*
X113530000Y-75232380D01*
X113434761Y-75280000D01*
X113387142Y-75327619D01*
X113291904Y-75470476D01*
X113244285Y-75660952D01*
X113244285Y-76041904D01*
X113291904Y-76137142D01*
X113339523Y-76184761D01*
X113434761Y-76232380D01*
X113625238Y-76232380D01*
X113720476Y-76184761D01*
X113768095Y-76137142D01*
X113815714Y-76041904D01*
X113815714Y-75803809D01*
X113768095Y-75708571D01*
X113720476Y-75660952D01*
X113625238Y-75613333D01*
X113434761Y-75613333D01*
X113339523Y-75660952D01*
X113291904Y-75708571D01*
X113244285Y-75803809D01*
X118403809Y-84272380D02*
X118403809Y-83272380D01*
X118641904Y-83272380D01*
X118784761Y-83320000D01*
X118880000Y-83415238D01*
X118927619Y-83510476D01*
X118975238Y-83700952D01*
X118975238Y-83843809D01*
X118927619Y-84034285D01*
X118880000Y-84129523D01*
X118784761Y-84224761D01*
X118641904Y-84272380D01*
X118403809Y-84272380D01*
X119403809Y-84272380D02*
X119403809Y-83605714D01*
X119403809Y-83272380D02*
X119356190Y-83320000D01*
X119403809Y-83367619D01*
X119451428Y-83320000D01*
X119403809Y-83272380D01*
X119403809Y-83367619D01*
X120403809Y-84272380D02*
X119832380Y-84272380D01*
X120118095Y-84272380D02*
X120118095Y-83272380D01*
X120022857Y-83415238D01*
X119927619Y-83510476D01*
X119832380Y-83558095D01*
X178276666Y-143972380D02*
X178276666Y-144686666D01*
X178229047Y-144829523D01*
X178133809Y-144924761D01*
X177990952Y-144972380D01*
X177895714Y-144972380D01*
X179276666Y-144972380D02*
X178705238Y-144972380D01*
X178990952Y-144972380D02*
X178990952Y-143972380D01*
X178895714Y-144115238D01*
X178800476Y-144210476D01*
X178705238Y-144258095D01*
X104735333Y-121752380D02*
X104402000Y-121276190D01*
X104163904Y-121752380D02*
X104163904Y-120752380D01*
X104544857Y-120752380D01*
X104640095Y-120800000D01*
X104687714Y-120847619D01*
X104735333Y-120942857D01*
X104735333Y-121085714D01*
X104687714Y-121180952D01*
X104640095Y-121228571D01*
X104544857Y-121276190D01*
X104163904Y-121276190D01*
X105687714Y-121752380D02*
X105116285Y-121752380D01*
X105402000Y-121752380D02*
X105402000Y-120752380D01*
X105306761Y-120895238D01*
X105211523Y-120990476D01*
X105116285Y-121038095D01*
X104735333Y-126832380D02*
X104402000Y-126356190D01*
X104163904Y-126832380D02*
X104163904Y-125832380D01*
X104544857Y-125832380D01*
X104640095Y-125880000D01*
X104687714Y-125927619D01*
X104735333Y-126022857D01*
X104735333Y-126165714D01*
X104687714Y-126260952D01*
X104640095Y-126308571D01*
X104544857Y-126356190D01*
X104163904Y-126356190D01*
X105116285Y-125927619D02*
X105163904Y-125880000D01*
X105259142Y-125832380D01*
X105497238Y-125832380D01*
X105592476Y-125880000D01*
X105640095Y-125927619D01*
X105687714Y-126022857D01*
X105687714Y-126118095D01*
X105640095Y-126260952D01*
X105068666Y-126832380D01*
X105687714Y-126832380D01*
X104735333Y-129372380D02*
X104402000Y-128896190D01*
X104163904Y-129372380D02*
X104163904Y-128372380D01*
X104544857Y-128372380D01*
X104640095Y-128420000D01*
X104687714Y-128467619D01*
X104735333Y-128562857D01*
X104735333Y-128705714D01*
X104687714Y-128800952D01*
X104640095Y-128848571D01*
X104544857Y-128896190D01*
X104163904Y-128896190D01*
X105068666Y-128372380D02*
X105687714Y-128372380D01*
X105354380Y-128753333D01*
X105497238Y-128753333D01*
X105592476Y-128800952D01*
X105640095Y-128848571D01*
X105687714Y-128943809D01*
X105687714Y-129181904D01*
X105640095Y-129277142D01*
X105592476Y-129324761D01*
X105497238Y-129372380D01*
X105211523Y-129372380D01*
X105116285Y-129324761D01*
X105068666Y-129277142D01*
X104735333Y-131912380D02*
X104402000Y-131436190D01*
X104163904Y-131912380D02*
X104163904Y-130912380D01*
X104544857Y-130912380D01*
X104640095Y-130960000D01*
X104687714Y-131007619D01*
X104735333Y-131102857D01*
X104735333Y-131245714D01*
X104687714Y-131340952D01*
X104640095Y-131388571D01*
X104544857Y-131436190D01*
X104163904Y-131436190D01*
X105592476Y-131245714D02*
X105592476Y-131912380D01*
X105354380Y-130864761D02*
X105116285Y-131579047D01*
X105735333Y-131579047D01*
X104735333Y-139532380D02*
X104402000Y-139056190D01*
X104163904Y-139532380D02*
X104163904Y-138532380D01*
X104544857Y-138532380D01*
X104640095Y-138580000D01*
X104687714Y-138627619D01*
X104735333Y-138722857D01*
X104735333Y-138865714D01*
X104687714Y-138960952D01*
X104640095Y-139008571D01*
X104544857Y-139056190D01*
X104163904Y-139056190D01*
X105640095Y-138532380D02*
X105163904Y-138532380D01*
X105116285Y-139008571D01*
X105163904Y-138960952D01*
X105259142Y-138913333D01*
X105497238Y-138913333D01*
X105592476Y-138960952D01*
X105640095Y-139008571D01*
X105687714Y-139103809D01*
X105687714Y-139341904D01*
X105640095Y-139437142D01*
X105592476Y-139484761D01*
X105497238Y-139532380D01*
X105259142Y-139532380D01*
X105163904Y-139484761D01*
X105116285Y-139437142D01*
X104735333Y-142072380D02*
X104402000Y-141596190D01*
X104163904Y-142072380D02*
X104163904Y-141072380D01*
X104544857Y-141072380D01*
X104640095Y-141120000D01*
X104687714Y-141167619D01*
X104735333Y-141262857D01*
X104735333Y-141405714D01*
X104687714Y-141500952D01*
X104640095Y-141548571D01*
X104544857Y-141596190D01*
X104163904Y-141596190D01*
X105592476Y-141072380D02*
X105402000Y-141072380D01*
X105306761Y-141120000D01*
X105259142Y-141167619D01*
X105163904Y-141310476D01*
X105116285Y-141500952D01*
X105116285Y-141881904D01*
X105163904Y-141977142D01*
X105211523Y-142024761D01*
X105306761Y-142072380D01*
X105497238Y-142072380D01*
X105592476Y-142024761D01*
X105640095Y-141977142D01*
X105687714Y-141881904D01*
X105687714Y-141643809D01*
X105640095Y-141548571D01*
X105592476Y-141500952D01*
X105497238Y-141453333D01*
X105306761Y-141453333D01*
X105211523Y-141500952D01*
X105163904Y-141548571D01*
X105116285Y-141643809D01*
X104735333Y-144612380D02*
X104402000Y-144136190D01*
X104163904Y-144612380D02*
X104163904Y-143612380D01*
X104544857Y-143612380D01*
X104640095Y-143660000D01*
X104687714Y-143707619D01*
X104735333Y-143802857D01*
X104735333Y-143945714D01*
X104687714Y-144040952D01*
X104640095Y-144088571D01*
X104544857Y-144136190D01*
X104163904Y-144136190D01*
X105068666Y-143612380D02*
X105735333Y-143612380D01*
X105306761Y-144612380D01*
X104735333Y-124292380D02*
X104402000Y-123816190D01*
X104163904Y-124292380D02*
X104163904Y-123292380D01*
X104544857Y-123292380D01*
X104640095Y-123340000D01*
X104687714Y-123387619D01*
X104735333Y-123482857D01*
X104735333Y-123625714D01*
X104687714Y-123720952D01*
X104640095Y-123768571D01*
X104544857Y-123816190D01*
X104163904Y-123816190D01*
X105306761Y-123720952D02*
X105211523Y-123673333D01*
X105163904Y-123625714D01*
X105116285Y-123530476D01*
X105116285Y-123482857D01*
X105163904Y-123387619D01*
X105211523Y-123340000D01*
X105306761Y-123292380D01*
X105497238Y-123292380D01*
X105592476Y-123340000D01*
X105640095Y-123387619D01*
X105687714Y-123482857D01*
X105687714Y-123530476D01*
X105640095Y-123625714D01*
X105592476Y-123673333D01*
X105497238Y-123720952D01*
X105306761Y-123720952D01*
X105211523Y-123768571D01*
X105163904Y-123816190D01*
X105116285Y-123911428D01*
X105116285Y-124101904D01*
X105163904Y-124197142D01*
X105211523Y-124244761D01*
X105306761Y-124292380D01*
X105497238Y-124292380D01*
X105592476Y-124244761D01*
X105640095Y-124197142D01*
X105687714Y-124101904D01*
X105687714Y-123911428D01*
X105640095Y-123816190D01*
X105592476Y-123768571D01*
X105497238Y-123720952D01*
X104735333Y-134452380D02*
X104402000Y-133976190D01*
X104163904Y-134452380D02*
X104163904Y-133452380D01*
X104544857Y-133452380D01*
X104640095Y-133500000D01*
X104687714Y-133547619D01*
X104735333Y-133642857D01*
X104735333Y-133785714D01*
X104687714Y-133880952D01*
X104640095Y-133928571D01*
X104544857Y-133976190D01*
X104163904Y-133976190D01*
X105211523Y-134452380D02*
X105402000Y-134452380D01*
X105497238Y-134404761D01*
X105544857Y-134357142D01*
X105640095Y-134214285D01*
X105687714Y-134023809D01*
X105687714Y-133642857D01*
X105640095Y-133547619D01*
X105592476Y-133500000D01*
X105497238Y-133452380D01*
X105306761Y-133452380D01*
X105211523Y-133500000D01*
X105163904Y-133547619D01*
X105116285Y-133642857D01*
X105116285Y-133880952D01*
X105163904Y-133976190D01*
X105211523Y-134023809D01*
X105306761Y-134071428D01*
X105497238Y-134071428D01*
X105592476Y-134023809D01*
X105640095Y-133976190D01*
X105687714Y-133880952D01*
X104259142Y-136992380D02*
X103925809Y-136516190D01*
X103687714Y-136992380D02*
X103687714Y-135992380D01*
X104068666Y-135992380D01*
X104163904Y-136040000D01*
X104211523Y-136087619D01*
X104259142Y-136182857D01*
X104259142Y-136325714D01*
X104211523Y-136420952D01*
X104163904Y-136468571D01*
X104068666Y-136516190D01*
X103687714Y-136516190D01*
X105211523Y-136992380D02*
X104640095Y-136992380D01*
X104925809Y-136992380D02*
X104925809Y-135992380D01*
X104830571Y-136135238D01*
X104735333Y-136230476D01*
X104640095Y-136278095D01*
X105830571Y-135992380D02*
X105925809Y-135992380D01*
X106021047Y-136040000D01*
X106068666Y-136087619D01*
X106116285Y-136182857D01*
X106163904Y-136373333D01*
X106163904Y-136611428D01*
X106116285Y-136801904D01*
X106068666Y-136897142D01*
X106021047Y-136944761D01*
X105925809Y-136992380D01*
X105830571Y-136992380D01*
X105735333Y-136944761D01*
X105687714Y-136897142D01*
X105640095Y-136801904D01*
X105592476Y-136611428D01*
X105592476Y-136373333D01*
X105640095Y-136182857D01*
X105687714Y-136087619D01*
X105735333Y-136040000D01*
X105830571Y-135992380D01*
X183606666Y-136714761D02*
X183749523Y-136762380D01*
X183987619Y-136762380D01*
X184082857Y-136714761D01*
X184130476Y-136667142D01*
X184178095Y-136571904D01*
X184178095Y-136476666D01*
X184130476Y-136381428D01*
X184082857Y-136333809D01*
X183987619Y-136286190D01*
X183797142Y-136238571D01*
X183701904Y-136190952D01*
X183654285Y-136143333D01*
X183606666Y-136048095D01*
X183606666Y-135952857D01*
X183654285Y-135857619D01*
X183701904Y-135810000D01*
X183797142Y-135762380D01*
X184035238Y-135762380D01*
X184178095Y-135810000D01*
X184511428Y-135762380D02*
X184749523Y-136762380D01*
X184940000Y-136048095D01*
X185130476Y-136762380D01*
X185368571Y-135762380D01*
X186273333Y-136762380D02*
X185701904Y-136762380D01*
X185987619Y-136762380D02*
X185987619Y-135762380D01*
X185892380Y-135905238D01*
X185797142Y-136000476D01*
X185701904Y-136048095D01*
X142966666Y-136714761D02*
X143109523Y-136762380D01*
X143347619Y-136762380D01*
X143442857Y-136714761D01*
X143490476Y-136667142D01*
X143538095Y-136571904D01*
X143538095Y-136476666D01*
X143490476Y-136381428D01*
X143442857Y-136333809D01*
X143347619Y-136286190D01*
X143157142Y-136238571D01*
X143061904Y-136190952D01*
X143014285Y-136143333D01*
X142966666Y-136048095D01*
X142966666Y-135952857D01*
X143014285Y-135857619D01*
X143061904Y-135810000D01*
X143157142Y-135762380D01*
X143395238Y-135762380D01*
X143538095Y-135810000D01*
X143871428Y-135762380D02*
X144109523Y-136762380D01*
X144300000Y-136048095D01*
X144490476Y-136762380D01*
X144728571Y-135762380D01*
X145061904Y-135857619D02*
X145109523Y-135810000D01*
X145204761Y-135762380D01*
X145442857Y-135762380D01*
X145538095Y-135810000D01*
X145585714Y-135857619D01*
X145633333Y-135952857D01*
X145633333Y-136048095D01*
X145585714Y-136190952D01*
X145014285Y-136762380D01*
X145633333Y-136762380D01*
X163286666Y-136714761D02*
X163429523Y-136762380D01*
X163667619Y-136762380D01*
X163762857Y-136714761D01*
X163810476Y-136667142D01*
X163858095Y-136571904D01*
X163858095Y-136476666D01*
X163810476Y-136381428D01*
X163762857Y-136333809D01*
X163667619Y-136286190D01*
X163477142Y-136238571D01*
X163381904Y-136190952D01*
X163334285Y-136143333D01*
X163286666Y-136048095D01*
X163286666Y-135952857D01*
X163334285Y-135857619D01*
X163381904Y-135810000D01*
X163477142Y-135762380D01*
X163715238Y-135762380D01*
X163858095Y-135810000D01*
X164191428Y-135762380D02*
X164429523Y-136762380D01*
X164620000Y-136048095D01*
X164810476Y-136762380D01*
X165048571Y-135762380D01*
X165334285Y-135762380D02*
X165953333Y-135762380D01*
X165620000Y-136143333D01*
X165762857Y-136143333D01*
X165858095Y-136190952D01*
X165905714Y-136238571D01*
X165953333Y-136333809D01*
X165953333Y-136571904D01*
X165905714Y-136667142D01*
X165858095Y-136714761D01*
X165762857Y-136762380D01*
X165477142Y-136762380D01*
X165381904Y-136714761D01*
X165334285Y-136667142D01*
X100266666Y-61904761D02*
X100409523Y-61952380D01*
X100647619Y-61952380D01*
X100742857Y-61904761D01*
X100790476Y-61857142D01*
X100838095Y-61761904D01*
X100838095Y-61666666D01*
X100790476Y-61571428D01*
X100742857Y-61523809D01*
X100647619Y-61476190D01*
X100457142Y-61428571D01*
X100361904Y-61380952D01*
X100314285Y-61333333D01*
X100266666Y-61238095D01*
X100266666Y-61142857D01*
X100314285Y-61047619D01*
X100361904Y-61000000D01*
X100457142Y-60952380D01*
X100695238Y-60952380D01*
X100838095Y-61000000D01*
X101171428Y-60952380D02*
X101409523Y-61952380D01*
X101600000Y-61238095D01*
X101790476Y-61952380D01*
X102028571Y-60952380D01*
X102838095Y-61285714D02*
X102838095Y-61952380D01*
X102600000Y-60904761D02*
X102361904Y-61619047D01*
X102980952Y-61619047D01*
X102108095Y-82212380D02*
X102108095Y-83021904D01*
X102155714Y-83117142D01*
X102203333Y-83164761D01*
X102298571Y-83212380D01*
X102489047Y-83212380D01*
X102584285Y-83164761D01*
X102631904Y-83117142D01*
X102679523Y-83021904D01*
X102679523Y-82212380D01*
X103679523Y-83212380D02*
X103108095Y-83212380D01*
X103393809Y-83212380D02*
X103393809Y-82212380D01*
X103298571Y-82355238D01*
X103203333Y-82450476D01*
X103108095Y-82498095D01*
M02*
