M48
; DRILL file {KiCad (5.1.0)-1} date 13-Aug-19 11:23:54 AM
; FORMAT={-:-/ absolute / metric / decimal}
; #@! TF.CreationDate,2019-08-13T11:23:54+02:00
; #@! TF.GenerationSoftware,Kicad,Pcbnew,(5.1.0)-1
; #@! TF.FileFunction,Plated,1,2,PTH
FMAT,2
METRIC
T1C0.400
T2C0.700
T3C0.762
T4C0.800
T5C0.900
T6C1.000
T7C1.143
T8C1.200
T9C1.524
T10C3.200
T11C4.100
%
G90
G05
T1
X106.934Y-117.856
X109.982Y-99.314
X155.702Y-129.794
T2
X101.092Y-124.46
X108.712Y-124.46
X101.092Y-129.54
X108.712Y-129.54
X101.092Y-121.92
X108.712Y-121.92
X101.092Y-119.38
X108.712Y-119.38
X101.092Y-142.24
X108.712Y-142.24
X101.092Y-139.7
X108.712Y-139.7
X101.092Y-127.0
X108.712Y-127.0
X101.092Y-137.16
X108.712Y-137.16
X101.092Y-132.08
X108.712Y-132.08
X101.092Y-134.62
X108.712Y-134.62
T3
X116.84Y-86.36
X119.38Y-86.36
X119.38Y-96.52
X121.92Y-86.36
X121.92Y-96.52
X124.46Y-86.36
X124.46Y-96.52
X127.0Y-86.36
X127.0Y-96.52
X129.54Y-86.36
X129.54Y-96.52
X132.08Y-86.36
X132.08Y-96.52
X134.62Y-86.36
X134.62Y-96.52
T4
X116.205Y-114.3
X116.205Y-116.84
X116.205Y-119.38
X116.205Y-121.92
X116.205Y-124.46
X116.205Y-127.0
X116.205Y-129.54
X116.205Y-132.08
X116.205Y-134.62
X116.205Y-137.16
X116.205Y-139.7
X116.205Y-142.24
X116.205Y-144.78
X116.205Y-147.32
X116.205Y-149.86
X131.445Y-114.3
X131.445Y-116.84
X131.445Y-119.38
X131.445Y-121.92
X131.445Y-124.46
X131.445Y-127.0
X131.445Y-129.54
X131.445Y-132.08
X131.445Y-134.62
X131.445Y-137.16
X131.445Y-139.7
X131.445Y-142.24
X131.445Y-144.78
X131.445Y-147.32
X131.445Y-149.86
X99.06Y-85.09
X99.06Y-87.63
X99.06Y-90.17
X99.06Y-92.71
X99.06Y-95.25
X99.06Y-97.79
X99.06Y-100.33
X99.06Y-102.87
X99.06Y-105.41
X99.06Y-107.95
X99.06Y-110.49
X99.06Y-113.03
X106.68Y-85.09
X106.68Y-87.63
X106.68Y-90.17
X106.68Y-92.71
X106.68Y-95.25
X106.68Y-97.79
X106.68Y-100.33
X106.68Y-102.87
X106.68Y-105.41
X106.68Y-107.95
X106.68Y-110.49
X106.68Y-113.03
T5
X111.76Y-72.39
X114.3Y-72.39
X111.76Y-66.04
X114.3Y-66.04
X111.76Y-78.74
X114.3Y-78.74
X138.43Y-72.39
X140.97Y-72.39
X138.43Y-78.994
X140.97Y-78.994
X138.43Y-66.04
X140.97Y-66.04
T6
X173.07Y-147.32
X174.455Y-150.16
X175.84Y-147.32
X177.225Y-150.16
X178.61Y-147.32
X179.995Y-150.16
X181.38Y-147.32
X182.765Y-150.16
X184.15Y-147.32
T7
X99.06Y-63.5
X99.06Y-71.12
X101.6Y-71.12
X104.14Y-63.5
X104.14Y-71.12
T8
X171.604Y-63.47
X184.404Y-63.47
T9
X182.88Y-127.0
X189.23Y-125.73
X142.24Y-127.0
X148.59Y-125.73
X162.56Y-127.0
X168.91Y-125.73
T10
X166.11Y-148.74
X191.11Y-148.74
T11
X102.87Y-153.162
X150.622Y-149.606
T0
M30
