G04 #@! TF.GenerationSoftware,KiCad,Pcbnew,(5.1.0)-1*
G04 #@! TF.CreationDate,2019-07-24T14:01:51+02:00*
G04 #@! TF.ProjectId,AirSensorModule,41697253-656e-4736-9f72-4d6f64756c65,rev?*
G04 #@! TF.SameCoordinates,Original*
G04 #@! TF.FileFunction,Soldermask,Bot*
G04 #@! TF.FilePolarity,Negative*
%FSLAX46Y46*%
G04 Gerber Fmt 4.6, Leading zero omitted, Abs format (unit mm)*
G04 Created by KiCad (PCBNEW (5.1.0)-1) date 2019-07-24 14:01:51*
%MOMM*%
%LPD*%
G04 APERTURE LIST*
%ADD10C,0.100000*%
G04 APERTURE END LIST*
D10*
G36*
X212219059Y-121277860D02*
G01*
X212355732Y-121334472D01*
X212478735Y-121416660D01*
X212583340Y-121521265D01*
X212665528Y-121644268D01*
X212722140Y-121780941D01*
X212751000Y-121926033D01*
X212751000Y-122073967D01*
X212722140Y-122219059D01*
X212665528Y-122355732D01*
X212583340Y-122478735D01*
X212478735Y-122583340D01*
X212355732Y-122665528D01*
X212355731Y-122665529D01*
X212355730Y-122665529D01*
X212219059Y-122722140D01*
X212073968Y-122751000D01*
X211926032Y-122751000D01*
X211780941Y-122722140D01*
X211644270Y-122665529D01*
X211644269Y-122665529D01*
X211644268Y-122665528D01*
X211521265Y-122583340D01*
X211416660Y-122478735D01*
X211334472Y-122355732D01*
X211277860Y-122219059D01*
X211249000Y-122073967D01*
X211249000Y-121926033D01*
X211277860Y-121780941D01*
X211334472Y-121644268D01*
X211416660Y-121521265D01*
X211521265Y-121416660D01*
X211644268Y-121334472D01*
X211780941Y-121277860D01*
X211926032Y-121249000D01*
X212073968Y-121249000D01*
X212219059Y-121277860D01*
X212219059Y-121277860D01*
G37*
G36*
X218219059Y-121277860D02*
G01*
X218355732Y-121334472D01*
X218478735Y-121416660D01*
X218583340Y-121521265D01*
X218665528Y-121644268D01*
X218722140Y-121780941D01*
X218751000Y-121926033D01*
X218751000Y-122073967D01*
X218722140Y-122219059D01*
X218665528Y-122355732D01*
X218583340Y-122478735D01*
X218478735Y-122583340D01*
X218355732Y-122665528D01*
X218355731Y-122665529D01*
X218355730Y-122665529D01*
X218219059Y-122722140D01*
X218073968Y-122751000D01*
X217926032Y-122751000D01*
X217780941Y-122722140D01*
X217644270Y-122665529D01*
X217644269Y-122665529D01*
X217644268Y-122665528D01*
X217521265Y-122583340D01*
X217416660Y-122478735D01*
X217334472Y-122355732D01*
X217277860Y-122219059D01*
X217249000Y-122073967D01*
X217249000Y-121926033D01*
X217277860Y-121780941D01*
X217334472Y-121644268D01*
X217416660Y-121521265D01*
X217521265Y-121416660D01*
X217644268Y-121334472D01*
X217780941Y-121277860D01*
X217926032Y-121249000D01*
X218073968Y-121249000D01*
X218219059Y-121277860D01*
X218219059Y-121277860D01*
G37*
G36*
X215219059Y-121277860D02*
G01*
X215355732Y-121334472D01*
X215478735Y-121416660D01*
X215583340Y-121521265D01*
X215665528Y-121644268D01*
X215722140Y-121780941D01*
X215751000Y-121926033D01*
X215751000Y-122073967D01*
X215722140Y-122219059D01*
X215665528Y-122355732D01*
X215583340Y-122478735D01*
X215478735Y-122583340D01*
X215355732Y-122665528D01*
X215355731Y-122665529D01*
X215355730Y-122665529D01*
X215219059Y-122722140D01*
X215073968Y-122751000D01*
X214926032Y-122751000D01*
X214780941Y-122722140D01*
X214644270Y-122665529D01*
X214644269Y-122665529D01*
X214644268Y-122665528D01*
X214521265Y-122583340D01*
X214416660Y-122478735D01*
X214334472Y-122355732D01*
X214277860Y-122219059D01*
X214249000Y-122073967D01*
X214249000Y-121926033D01*
X214277860Y-121780941D01*
X214334472Y-121644268D01*
X214416660Y-121521265D01*
X214521265Y-121416660D01*
X214644268Y-121334472D01*
X214780941Y-121277860D01*
X214926032Y-121249000D01*
X215073968Y-121249000D01*
X215219059Y-121277860D01*
X215219059Y-121277860D01*
G37*
G36*
X151219059Y-118277860D02*
G01*
X151279294Y-118302810D01*
X151355732Y-118334472D01*
X151478735Y-118416660D01*
X151583340Y-118521265D01*
X151665528Y-118644268D01*
X151722140Y-118780941D01*
X151751000Y-118926033D01*
X151751000Y-119073967D01*
X151722140Y-119219059D01*
X151665528Y-119355732D01*
X151583340Y-119478735D01*
X151478735Y-119583340D01*
X151355732Y-119665528D01*
X151355731Y-119665529D01*
X151355730Y-119665529D01*
X151219059Y-119722140D01*
X151073968Y-119751000D01*
X150926032Y-119751000D01*
X150780941Y-119722140D01*
X150644270Y-119665529D01*
X150644269Y-119665529D01*
X150644268Y-119665528D01*
X150521265Y-119583340D01*
X150416660Y-119478735D01*
X150334472Y-119355732D01*
X150277860Y-119219059D01*
X150249000Y-119073967D01*
X150249000Y-118926033D01*
X150277860Y-118780941D01*
X150334472Y-118644268D01*
X150416660Y-118521265D01*
X150521265Y-118416660D01*
X150644268Y-118334472D01*
X150720707Y-118302810D01*
X150780941Y-118277860D01*
X150926032Y-118249000D01*
X151073968Y-118249000D01*
X151219059Y-118277860D01*
X151219059Y-118277860D01*
G37*
G36*
X145993665Y-118252622D02*
G01*
X146067222Y-118259867D01*
X146208786Y-118302810D01*
X146339252Y-118372546D01*
X146369040Y-118396992D01*
X146453607Y-118466393D01*
X146523008Y-118550960D01*
X146547454Y-118580748D01*
X146617190Y-118711214D01*
X146660133Y-118852778D01*
X146674633Y-119000000D01*
X146660133Y-119147222D01*
X146617190Y-119288786D01*
X146547454Y-119419252D01*
X146523008Y-119449040D01*
X146453607Y-119533607D01*
X146393004Y-119583341D01*
X146339252Y-119627454D01*
X146208786Y-119697190D01*
X146067222Y-119740133D01*
X145993665Y-119747378D01*
X145956888Y-119751000D01*
X145883112Y-119751000D01*
X145846335Y-119747378D01*
X145772778Y-119740133D01*
X145631214Y-119697190D01*
X145500748Y-119627454D01*
X145446996Y-119583341D01*
X145386393Y-119533607D01*
X145316992Y-119449040D01*
X145292546Y-119419252D01*
X145222810Y-119288786D01*
X145179867Y-119147222D01*
X145165367Y-119000000D01*
X145179867Y-118852778D01*
X145222810Y-118711214D01*
X145292546Y-118580748D01*
X145316992Y-118550960D01*
X145386393Y-118466393D01*
X145470960Y-118396992D01*
X145500748Y-118372546D01*
X145631214Y-118302810D01*
X145772778Y-118259867D01*
X145846335Y-118252622D01*
X145883112Y-118249000D01*
X145956888Y-118249000D01*
X145993665Y-118252622D01*
X145993665Y-118252622D01*
G37*
G36*
X215073665Y-116172622D02*
G01*
X215147222Y-116179867D01*
X215288786Y-116222810D01*
X215419252Y-116292546D01*
X215440549Y-116310024D01*
X215533607Y-116386393D01*
X215603008Y-116470960D01*
X215627454Y-116500748D01*
X215697190Y-116631214D01*
X215740133Y-116772778D01*
X215754633Y-116920000D01*
X215740133Y-117067222D01*
X215697190Y-117208786D01*
X215697189Y-117208788D01*
X215662322Y-117274019D01*
X215627454Y-117339252D01*
X215603008Y-117369040D01*
X215533607Y-117453607D01*
X215449040Y-117523008D01*
X215419252Y-117547454D01*
X215288786Y-117617190D01*
X215147222Y-117660133D01*
X215073665Y-117667378D01*
X215036888Y-117671000D01*
X214963112Y-117671000D01*
X214926335Y-117667378D01*
X214852778Y-117660133D01*
X214711214Y-117617190D01*
X214580748Y-117547454D01*
X214550960Y-117523008D01*
X214466393Y-117453607D01*
X214396992Y-117369040D01*
X214372546Y-117339252D01*
X214337678Y-117274019D01*
X214302811Y-117208788D01*
X214302810Y-117208786D01*
X214259867Y-117067222D01*
X214245367Y-116920000D01*
X214259867Y-116772778D01*
X214302810Y-116631214D01*
X214372546Y-116500748D01*
X214396992Y-116470960D01*
X214466393Y-116386393D01*
X214559451Y-116310024D01*
X214580748Y-116292546D01*
X214711214Y-116222810D01*
X214852778Y-116179867D01*
X214926335Y-116172622D01*
X214963112Y-116169000D01*
X215036888Y-116169000D01*
X215073665Y-116172622D01*
X215073665Y-116172622D01*
G37*
G36*
X218073665Y-116172622D02*
G01*
X218147222Y-116179867D01*
X218288786Y-116222810D01*
X218419252Y-116292546D01*
X218440549Y-116310024D01*
X218533607Y-116386393D01*
X218603008Y-116470960D01*
X218627454Y-116500748D01*
X218697190Y-116631214D01*
X218740133Y-116772778D01*
X218754633Y-116920000D01*
X218740133Y-117067222D01*
X218697190Y-117208786D01*
X218697189Y-117208788D01*
X218662322Y-117274019D01*
X218627454Y-117339252D01*
X218603008Y-117369040D01*
X218533607Y-117453607D01*
X218449040Y-117523008D01*
X218419252Y-117547454D01*
X218288786Y-117617190D01*
X218147222Y-117660133D01*
X218073665Y-117667378D01*
X218036888Y-117671000D01*
X217963112Y-117671000D01*
X217926335Y-117667378D01*
X217852778Y-117660133D01*
X217711214Y-117617190D01*
X217580748Y-117547454D01*
X217550960Y-117523008D01*
X217466393Y-117453607D01*
X217396992Y-117369040D01*
X217372546Y-117339252D01*
X217337678Y-117274019D01*
X217302811Y-117208788D01*
X217302810Y-117208786D01*
X217259867Y-117067222D01*
X217245367Y-116920000D01*
X217259867Y-116772778D01*
X217302810Y-116631214D01*
X217372546Y-116500748D01*
X217396992Y-116470960D01*
X217466393Y-116386393D01*
X217559451Y-116310024D01*
X217580748Y-116292546D01*
X217711214Y-116222810D01*
X217852778Y-116179867D01*
X217926335Y-116172622D01*
X217963112Y-116169000D01*
X218036888Y-116169000D01*
X218073665Y-116172622D01*
X218073665Y-116172622D01*
G37*
G36*
X212073665Y-116172622D02*
G01*
X212147222Y-116179867D01*
X212288786Y-116222810D01*
X212419252Y-116292546D01*
X212440549Y-116310024D01*
X212533607Y-116386393D01*
X212603008Y-116470960D01*
X212627454Y-116500748D01*
X212697190Y-116631214D01*
X212740133Y-116772778D01*
X212754633Y-116920000D01*
X212740133Y-117067222D01*
X212697190Y-117208786D01*
X212697189Y-117208788D01*
X212662322Y-117274019D01*
X212627454Y-117339252D01*
X212603008Y-117369040D01*
X212533607Y-117453607D01*
X212449040Y-117523008D01*
X212419252Y-117547454D01*
X212288786Y-117617190D01*
X212147222Y-117660133D01*
X212073665Y-117667378D01*
X212036888Y-117671000D01*
X211963112Y-117671000D01*
X211926335Y-117667378D01*
X211852778Y-117660133D01*
X211711214Y-117617190D01*
X211580748Y-117547454D01*
X211550960Y-117523008D01*
X211466393Y-117453607D01*
X211396992Y-117369040D01*
X211372546Y-117339252D01*
X211337678Y-117274019D01*
X211302811Y-117208788D01*
X211302810Y-117208786D01*
X211259867Y-117067222D01*
X211245367Y-116920000D01*
X211259867Y-116772778D01*
X211302810Y-116631214D01*
X211372546Y-116500748D01*
X211396992Y-116470960D01*
X211466393Y-116386393D01*
X211559451Y-116310024D01*
X211580748Y-116292546D01*
X211711214Y-116222810D01*
X211852778Y-116179867D01*
X211926335Y-116172622D01*
X211963112Y-116169000D01*
X212036888Y-116169000D01*
X212073665Y-116172622D01*
X212073665Y-116172622D01*
G37*
G36*
X191477142Y-115818242D02*
G01*
X191625101Y-115879529D01*
X191758255Y-115968499D01*
X191871501Y-116081745D01*
X191960471Y-116214899D01*
X192021758Y-116362858D01*
X192053000Y-116519925D01*
X192053000Y-116680075D01*
X192021758Y-116837142D01*
X191960471Y-116985101D01*
X191871501Y-117118255D01*
X191758255Y-117231501D01*
X191625101Y-117320471D01*
X191477142Y-117381758D01*
X191320075Y-117413000D01*
X191159925Y-117413000D01*
X191002858Y-117381758D01*
X190854899Y-117320471D01*
X190721745Y-117231501D01*
X190608499Y-117118255D01*
X190519529Y-116985101D01*
X190458242Y-116837142D01*
X190427000Y-116680075D01*
X190427000Y-116519925D01*
X190458242Y-116362858D01*
X190519529Y-116214899D01*
X190608499Y-116081745D01*
X190721745Y-115968499D01*
X190854899Y-115879529D01*
X191002858Y-115818242D01*
X191159925Y-115787000D01*
X191320075Y-115787000D01*
X191477142Y-115818242D01*
X191477142Y-115818242D01*
G37*
G36*
X181317142Y-115818242D02*
G01*
X181465101Y-115879529D01*
X181598255Y-115968499D01*
X181711501Y-116081745D01*
X181800471Y-116214899D01*
X181861758Y-116362858D01*
X181893000Y-116519925D01*
X181893000Y-116680075D01*
X181861758Y-116837142D01*
X181800471Y-116985101D01*
X181711501Y-117118255D01*
X181598255Y-117231501D01*
X181465101Y-117320471D01*
X181317142Y-117381758D01*
X181160075Y-117413000D01*
X180999925Y-117413000D01*
X180842858Y-117381758D01*
X180694899Y-117320471D01*
X180561745Y-117231501D01*
X180448499Y-117118255D01*
X180359529Y-116985101D01*
X180298242Y-116837142D01*
X180267000Y-116680075D01*
X180267000Y-116519925D01*
X180298242Y-116362858D01*
X180359529Y-116214899D01*
X180448499Y-116081745D01*
X180561745Y-115968499D01*
X180694899Y-115879529D01*
X180842858Y-115818242D01*
X180999925Y-115787000D01*
X181160075Y-115787000D01*
X181317142Y-115818242D01*
X181317142Y-115818242D01*
G37*
G36*
X183857142Y-115818242D02*
G01*
X184005101Y-115879529D01*
X184138255Y-115968499D01*
X184251501Y-116081745D01*
X184340471Y-116214899D01*
X184401758Y-116362858D01*
X184433000Y-116519925D01*
X184433000Y-116680075D01*
X184401758Y-116837142D01*
X184340471Y-116985101D01*
X184251501Y-117118255D01*
X184138255Y-117231501D01*
X184005101Y-117320471D01*
X183857142Y-117381758D01*
X183700075Y-117413000D01*
X183539925Y-117413000D01*
X183382858Y-117381758D01*
X183234899Y-117320471D01*
X183101745Y-117231501D01*
X182988499Y-117118255D01*
X182899529Y-116985101D01*
X182838242Y-116837142D01*
X182807000Y-116680075D01*
X182807000Y-116519925D01*
X182838242Y-116362858D01*
X182899529Y-116214899D01*
X182988499Y-116081745D01*
X183101745Y-115968499D01*
X183234899Y-115879529D01*
X183382858Y-115818242D01*
X183539925Y-115787000D01*
X183700075Y-115787000D01*
X183857142Y-115818242D01*
X183857142Y-115818242D01*
G37*
G36*
X186397142Y-115818242D02*
G01*
X186545101Y-115879529D01*
X186678255Y-115968499D01*
X186791501Y-116081745D01*
X186880471Y-116214899D01*
X186941758Y-116362858D01*
X186973000Y-116519925D01*
X186973000Y-116680075D01*
X186941758Y-116837142D01*
X186880471Y-116985101D01*
X186791501Y-117118255D01*
X186678255Y-117231501D01*
X186545101Y-117320471D01*
X186397142Y-117381758D01*
X186240075Y-117413000D01*
X186079925Y-117413000D01*
X185922858Y-117381758D01*
X185774899Y-117320471D01*
X185641745Y-117231501D01*
X185528499Y-117118255D01*
X185439529Y-116985101D01*
X185378242Y-116837142D01*
X185347000Y-116680075D01*
X185347000Y-116519925D01*
X185378242Y-116362858D01*
X185439529Y-116214899D01*
X185528499Y-116081745D01*
X185641745Y-115968499D01*
X185774899Y-115879529D01*
X185922858Y-115818242D01*
X186079925Y-115787000D01*
X186240075Y-115787000D01*
X186397142Y-115818242D01*
X186397142Y-115818242D01*
G37*
G36*
X188937142Y-115818242D02*
G01*
X189085101Y-115879529D01*
X189218255Y-115968499D01*
X189331501Y-116081745D01*
X189420471Y-116214899D01*
X189481758Y-116362858D01*
X189513000Y-116519925D01*
X189513000Y-116680075D01*
X189481758Y-116837142D01*
X189420471Y-116985101D01*
X189331501Y-117118255D01*
X189218255Y-117231501D01*
X189085101Y-117320471D01*
X188937142Y-117381758D01*
X188780075Y-117413000D01*
X188619925Y-117413000D01*
X188462858Y-117381758D01*
X188314899Y-117320471D01*
X188181745Y-117231501D01*
X188068499Y-117118255D01*
X187979529Y-116985101D01*
X187918242Y-116837142D01*
X187887000Y-116680075D01*
X187887000Y-116519925D01*
X187918242Y-116362858D01*
X187979529Y-116214899D01*
X188068499Y-116081745D01*
X188181745Y-115968499D01*
X188314899Y-115879529D01*
X188462858Y-115818242D01*
X188619925Y-115787000D01*
X188780075Y-115787000D01*
X188937142Y-115818242D01*
X188937142Y-115818242D01*
G37*
G36*
X194017142Y-115818242D02*
G01*
X194165101Y-115879529D01*
X194298255Y-115968499D01*
X194411501Y-116081745D01*
X194500471Y-116214899D01*
X194561758Y-116362858D01*
X194593000Y-116519925D01*
X194593000Y-116680075D01*
X194561758Y-116837142D01*
X194500471Y-116985101D01*
X194411501Y-117118255D01*
X194298255Y-117231501D01*
X194165101Y-117320471D01*
X194017142Y-117381758D01*
X193860075Y-117413000D01*
X193699925Y-117413000D01*
X193542858Y-117381758D01*
X193394899Y-117320471D01*
X193261745Y-117231501D01*
X193148499Y-117118255D01*
X193059529Y-116985101D01*
X192998242Y-116837142D01*
X192967000Y-116680075D01*
X192967000Y-116519925D01*
X192998242Y-116362858D01*
X193059529Y-116214899D01*
X193148499Y-116081745D01*
X193261745Y-115968499D01*
X193394899Y-115879529D01*
X193542858Y-115818242D01*
X193699925Y-115787000D01*
X193860075Y-115787000D01*
X194017142Y-115818242D01*
X194017142Y-115818242D01*
G37*
G36*
X178777142Y-115818242D02*
G01*
X178925101Y-115879529D01*
X179058255Y-115968499D01*
X179171501Y-116081745D01*
X179260471Y-116214899D01*
X179321758Y-116362858D01*
X179353000Y-116519925D01*
X179353000Y-116680075D01*
X179321758Y-116837142D01*
X179260471Y-116985101D01*
X179171501Y-117118255D01*
X179058255Y-117231501D01*
X178925101Y-117320471D01*
X178777142Y-117381758D01*
X178620075Y-117413000D01*
X178459925Y-117413000D01*
X178302858Y-117381758D01*
X178154899Y-117320471D01*
X178021745Y-117231501D01*
X177908499Y-117118255D01*
X177819529Y-116985101D01*
X177758242Y-116837142D01*
X177727000Y-116680075D01*
X177727000Y-116519925D01*
X177758242Y-116362858D01*
X177819529Y-116214899D01*
X177908499Y-116081745D01*
X178021745Y-115968499D01*
X178154899Y-115879529D01*
X178302858Y-115818242D01*
X178459925Y-115787000D01*
X178620075Y-115787000D01*
X178777142Y-115818242D01*
X178777142Y-115818242D01*
G37*
G36*
X142346823Y-113881313D02*
G01*
X142507242Y-113929976D01*
X142639906Y-114000886D01*
X142655078Y-114008996D01*
X142784659Y-114115341D01*
X142891004Y-114244922D01*
X142891005Y-114244924D01*
X142970024Y-114392758D01*
X143018687Y-114553178D01*
X143031000Y-114678197D01*
X143031000Y-115561804D01*
X143018687Y-115686823D01*
X142970024Y-115847242D01*
X142952766Y-115879529D01*
X142891004Y-115995078D01*
X142819879Y-116081743D01*
X142784659Y-116124659D01*
X142655077Y-116231005D01*
X142507241Y-116310024D01*
X142346822Y-116358687D01*
X142180000Y-116375117D01*
X142013177Y-116358687D01*
X141852758Y-116310024D01*
X141704924Y-116231005D01*
X141704922Y-116231004D01*
X141575341Y-116124659D01*
X141540122Y-116081745D01*
X141468995Y-115995077D01*
X141389976Y-115847241D01*
X141341313Y-115686822D01*
X141329000Y-115561803D01*
X141329000Y-114678197D01*
X141341314Y-114553177D01*
X141389977Y-114392758D01*
X141468996Y-114244924D01*
X141468997Y-114244922D01*
X141575342Y-114115341D01*
X141704923Y-114008996D01*
X141720095Y-114000886D01*
X141852759Y-113929976D01*
X142013178Y-113881313D01*
X142180000Y-113864883D01*
X142346823Y-113881313D01*
X142346823Y-113881313D01*
G37*
G36*
X144886823Y-113881313D02*
G01*
X145047242Y-113929976D01*
X145179906Y-114000886D01*
X145195078Y-114008996D01*
X145324659Y-114115341D01*
X145431004Y-114244922D01*
X145431005Y-114244924D01*
X145510024Y-114392758D01*
X145558687Y-114553178D01*
X145571000Y-114678197D01*
X145571000Y-115561804D01*
X145558687Y-115686823D01*
X145510024Y-115847242D01*
X145492766Y-115879529D01*
X145431004Y-115995078D01*
X145359879Y-116081743D01*
X145324659Y-116124659D01*
X145195077Y-116231005D01*
X145047241Y-116310024D01*
X144886822Y-116358687D01*
X144720000Y-116375117D01*
X144553177Y-116358687D01*
X144392758Y-116310024D01*
X144244924Y-116231005D01*
X144244922Y-116231004D01*
X144115341Y-116124659D01*
X144080122Y-116081745D01*
X144008995Y-115995077D01*
X143929976Y-115847241D01*
X143881313Y-115686822D01*
X143869000Y-115561803D01*
X143869000Y-114678197D01*
X143881314Y-114553177D01*
X143929977Y-114392758D01*
X144008996Y-114244924D01*
X144008997Y-114244922D01*
X144115342Y-114115341D01*
X144244923Y-114008996D01*
X144260095Y-114000886D01*
X144392759Y-113929976D01*
X144553178Y-113881313D01*
X144720000Y-113864883D01*
X144886823Y-113881313D01*
X144886823Y-113881313D01*
G37*
G36*
X139806823Y-113881313D02*
G01*
X139967242Y-113929976D01*
X140099906Y-114000886D01*
X140115078Y-114008996D01*
X140244659Y-114115341D01*
X140351004Y-114244922D01*
X140351005Y-114244924D01*
X140430024Y-114392758D01*
X140478687Y-114553178D01*
X140491000Y-114678197D01*
X140491000Y-115561804D01*
X140478687Y-115686823D01*
X140430024Y-115847242D01*
X140412766Y-115879529D01*
X140351004Y-115995078D01*
X140279879Y-116081743D01*
X140244659Y-116124659D01*
X140115077Y-116231005D01*
X139967241Y-116310024D01*
X139806822Y-116358687D01*
X139640000Y-116375117D01*
X139473177Y-116358687D01*
X139312758Y-116310024D01*
X139164924Y-116231005D01*
X139164922Y-116231004D01*
X139035341Y-116124659D01*
X139000122Y-116081745D01*
X138928995Y-115995077D01*
X138849976Y-115847241D01*
X138801313Y-115686822D01*
X138789000Y-115561803D01*
X138789000Y-114678197D01*
X138801314Y-114553177D01*
X138849977Y-114392758D01*
X138928996Y-114244924D01*
X138928997Y-114244922D01*
X139035342Y-114115341D01*
X139164923Y-114008996D01*
X139180095Y-114000886D01*
X139312759Y-113929976D01*
X139473178Y-113881313D01*
X139640000Y-113864883D01*
X139806823Y-113881313D01*
X139806823Y-113881313D01*
G37*
G36*
X137266823Y-113881313D02*
G01*
X137427242Y-113929976D01*
X137559906Y-114000886D01*
X137575078Y-114008996D01*
X137704659Y-114115341D01*
X137811004Y-114244922D01*
X137811005Y-114244924D01*
X137890024Y-114392758D01*
X137938687Y-114553178D01*
X137951000Y-114678197D01*
X137951000Y-115561804D01*
X137938687Y-115686823D01*
X137890024Y-115847242D01*
X137872766Y-115879529D01*
X137811004Y-115995078D01*
X137739879Y-116081743D01*
X137704659Y-116124659D01*
X137575077Y-116231005D01*
X137427241Y-116310024D01*
X137266822Y-116358687D01*
X137100000Y-116375117D01*
X136933177Y-116358687D01*
X136772758Y-116310024D01*
X136624924Y-116231005D01*
X136624922Y-116231004D01*
X136495341Y-116124659D01*
X136460122Y-116081745D01*
X136388995Y-115995077D01*
X136309976Y-115847241D01*
X136261313Y-115686822D01*
X136249000Y-115561803D01*
X136249000Y-114678197D01*
X136261314Y-114553177D01*
X136309977Y-114392758D01*
X136388996Y-114244924D01*
X136388997Y-114244922D01*
X136495342Y-114115341D01*
X136624923Y-114008996D01*
X136640095Y-114000886D01*
X136772759Y-113929976D01*
X136933178Y-113881313D01*
X137100000Y-113864883D01*
X137266823Y-113881313D01*
X137266823Y-113881313D01*
G37*
G36*
X134726823Y-113881313D02*
G01*
X134887242Y-113929976D01*
X135019906Y-114000886D01*
X135035078Y-114008996D01*
X135164659Y-114115341D01*
X135271004Y-114244922D01*
X135271005Y-114244924D01*
X135350024Y-114392758D01*
X135398687Y-114553178D01*
X135411000Y-114678197D01*
X135411000Y-115561804D01*
X135398687Y-115686823D01*
X135350024Y-115847242D01*
X135332766Y-115879529D01*
X135271004Y-115995078D01*
X135199879Y-116081743D01*
X135164659Y-116124659D01*
X135035077Y-116231005D01*
X134887241Y-116310024D01*
X134726822Y-116358687D01*
X134560000Y-116375117D01*
X134393177Y-116358687D01*
X134232758Y-116310024D01*
X134084924Y-116231005D01*
X134084922Y-116231004D01*
X133955341Y-116124659D01*
X133920122Y-116081745D01*
X133848995Y-115995077D01*
X133769976Y-115847241D01*
X133721313Y-115686822D01*
X133709000Y-115561803D01*
X133709000Y-114678197D01*
X133721314Y-114553177D01*
X133769977Y-114392758D01*
X133848996Y-114244924D01*
X133848997Y-114244922D01*
X133955342Y-114115341D01*
X134084923Y-114008996D01*
X134100095Y-114000886D01*
X134232759Y-113929976D01*
X134393178Y-113881313D01*
X134560000Y-113864883D01*
X134726823Y-113881313D01*
X134726823Y-113881313D01*
G37*
G36*
X149966823Y-113881313D02*
G01*
X150127242Y-113929976D01*
X150259906Y-114000886D01*
X150275078Y-114008996D01*
X150404659Y-114115341D01*
X150511004Y-114244922D01*
X150511005Y-114244924D01*
X150590024Y-114392758D01*
X150638687Y-114553178D01*
X150651000Y-114678197D01*
X150651000Y-115561804D01*
X150638687Y-115686823D01*
X150590024Y-115847242D01*
X150572766Y-115879529D01*
X150511004Y-115995078D01*
X150439879Y-116081743D01*
X150404659Y-116124659D01*
X150275077Y-116231005D01*
X150127241Y-116310024D01*
X149966822Y-116358687D01*
X149800000Y-116375117D01*
X149633177Y-116358687D01*
X149472758Y-116310024D01*
X149324924Y-116231005D01*
X149324922Y-116231004D01*
X149195341Y-116124659D01*
X149160122Y-116081745D01*
X149088995Y-115995077D01*
X149009976Y-115847241D01*
X148961313Y-115686822D01*
X148949000Y-115561803D01*
X148949000Y-114678197D01*
X148961314Y-114553177D01*
X149009977Y-114392758D01*
X149088996Y-114244924D01*
X149088997Y-114244922D01*
X149195342Y-114115341D01*
X149324923Y-114008996D01*
X149340095Y-114000886D01*
X149472759Y-113929976D01*
X149633178Y-113881313D01*
X149800000Y-113864883D01*
X149966823Y-113881313D01*
X149966823Y-113881313D01*
G37*
G36*
X160126823Y-113881313D02*
G01*
X160287242Y-113929976D01*
X160419906Y-114000886D01*
X160435078Y-114008996D01*
X160564659Y-114115341D01*
X160671004Y-114244922D01*
X160671005Y-114244924D01*
X160750024Y-114392758D01*
X160798687Y-114553178D01*
X160811000Y-114678197D01*
X160811000Y-115561804D01*
X160798687Y-115686823D01*
X160750024Y-115847242D01*
X160732766Y-115879529D01*
X160671004Y-115995078D01*
X160599879Y-116081743D01*
X160564659Y-116124659D01*
X160435077Y-116231005D01*
X160287241Y-116310024D01*
X160126822Y-116358687D01*
X159960000Y-116375117D01*
X159793177Y-116358687D01*
X159632758Y-116310024D01*
X159484924Y-116231005D01*
X159484922Y-116231004D01*
X159355341Y-116124659D01*
X159320122Y-116081745D01*
X159248995Y-115995077D01*
X159169976Y-115847241D01*
X159121313Y-115686822D01*
X159109000Y-115561803D01*
X159109000Y-114678197D01*
X159121314Y-114553177D01*
X159169977Y-114392758D01*
X159248996Y-114244924D01*
X159248997Y-114244922D01*
X159355342Y-114115341D01*
X159484923Y-114008996D01*
X159500095Y-114000886D01*
X159632759Y-113929976D01*
X159793178Y-113881313D01*
X159960000Y-113864883D01*
X160126823Y-113881313D01*
X160126823Y-113881313D01*
G37*
G36*
X157586823Y-113881313D02*
G01*
X157747242Y-113929976D01*
X157879906Y-114000886D01*
X157895078Y-114008996D01*
X158024659Y-114115341D01*
X158131004Y-114244922D01*
X158131005Y-114244924D01*
X158210024Y-114392758D01*
X158258687Y-114553178D01*
X158271000Y-114678197D01*
X158271000Y-115561804D01*
X158258687Y-115686823D01*
X158210024Y-115847242D01*
X158192766Y-115879529D01*
X158131004Y-115995078D01*
X158059879Y-116081743D01*
X158024659Y-116124659D01*
X157895077Y-116231005D01*
X157747241Y-116310024D01*
X157586822Y-116358687D01*
X157420000Y-116375117D01*
X157253177Y-116358687D01*
X157092758Y-116310024D01*
X156944924Y-116231005D01*
X156944922Y-116231004D01*
X156815341Y-116124659D01*
X156780122Y-116081745D01*
X156708995Y-115995077D01*
X156629976Y-115847241D01*
X156581313Y-115686822D01*
X156569000Y-115561803D01*
X156569000Y-114678197D01*
X156581314Y-114553177D01*
X156629977Y-114392758D01*
X156708996Y-114244924D01*
X156708997Y-114244922D01*
X156815342Y-114115341D01*
X156944923Y-114008996D01*
X156960095Y-114000886D01*
X157092759Y-113929976D01*
X157253178Y-113881313D01*
X157420000Y-113864883D01*
X157586823Y-113881313D01*
X157586823Y-113881313D01*
G37*
G36*
X152506823Y-113881313D02*
G01*
X152667242Y-113929976D01*
X152799906Y-114000886D01*
X152815078Y-114008996D01*
X152944659Y-114115341D01*
X153051004Y-114244922D01*
X153051005Y-114244924D01*
X153130024Y-114392758D01*
X153178687Y-114553178D01*
X153191000Y-114678197D01*
X153191000Y-115561804D01*
X153178687Y-115686823D01*
X153130024Y-115847242D01*
X153112766Y-115879529D01*
X153051004Y-115995078D01*
X152979879Y-116081743D01*
X152944659Y-116124659D01*
X152815077Y-116231005D01*
X152667241Y-116310024D01*
X152506822Y-116358687D01*
X152340000Y-116375117D01*
X152173177Y-116358687D01*
X152012758Y-116310024D01*
X151864924Y-116231005D01*
X151864922Y-116231004D01*
X151735341Y-116124659D01*
X151700122Y-116081745D01*
X151628995Y-115995077D01*
X151549976Y-115847241D01*
X151501313Y-115686822D01*
X151489000Y-115561803D01*
X151489000Y-114678197D01*
X151501314Y-114553177D01*
X151549977Y-114392758D01*
X151628996Y-114244924D01*
X151628997Y-114244922D01*
X151735342Y-114115341D01*
X151864923Y-114008996D01*
X151880095Y-114000886D01*
X152012759Y-113929976D01*
X152173178Y-113881313D01*
X152340000Y-113864883D01*
X152506823Y-113881313D01*
X152506823Y-113881313D01*
G37*
G36*
X147426823Y-113881313D02*
G01*
X147587242Y-113929976D01*
X147719906Y-114000886D01*
X147735078Y-114008996D01*
X147864659Y-114115341D01*
X147971004Y-114244922D01*
X147971005Y-114244924D01*
X148050024Y-114392758D01*
X148098687Y-114553178D01*
X148111000Y-114678197D01*
X148111000Y-115561804D01*
X148098687Y-115686823D01*
X148050024Y-115847242D01*
X148032766Y-115879529D01*
X147971004Y-115995078D01*
X147899879Y-116081743D01*
X147864659Y-116124659D01*
X147735077Y-116231005D01*
X147587241Y-116310024D01*
X147426822Y-116358687D01*
X147260000Y-116375117D01*
X147093177Y-116358687D01*
X146932758Y-116310024D01*
X146784924Y-116231005D01*
X146784922Y-116231004D01*
X146655341Y-116124659D01*
X146620122Y-116081745D01*
X146548995Y-115995077D01*
X146469976Y-115847241D01*
X146421313Y-115686822D01*
X146409000Y-115561803D01*
X146409000Y-114678197D01*
X146421314Y-114553177D01*
X146469977Y-114392758D01*
X146548996Y-114244924D01*
X146548997Y-114244922D01*
X146655342Y-114115341D01*
X146784923Y-114008996D01*
X146800095Y-114000886D01*
X146932759Y-113929976D01*
X147093178Y-113881313D01*
X147260000Y-113864883D01*
X147426823Y-113881313D01*
X147426823Y-113881313D01*
G37*
G36*
X155046823Y-113881313D02*
G01*
X155207242Y-113929976D01*
X155339906Y-114000886D01*
X155355078Y-114008996D01*
X155484659Y-114115341D01*
X155591004Y-114244922D01*
X155591005Y-114244924D01*
X155670024Y-114392758D01*
X155718687Y-114553178D01*
X155731000Y-114678197D01*
X155731000Y-115561804D01*
X155718687Y-115686823D01*
X155670024Y-115847242D01*
X155652766Y-115879529D01*
X155591004Y-115995078D01*
X155519879Y-116081743D01*
X155484659Y-116124659D01*
X155355077Y-116231005D01*
X155207241Y-116310024D01*
X155046822Y-116358687D01*
X154880000Y-116375117D01*
X154713177Y-116358687D01*
X154552758Y-116310024D01*
X154404924Y-116231005D01*
X154404922Y-116231004D01*
X154275341Y-116124659D01*
X154240122Y-116081745D01*
X154168995Y-115995077D01*
X154089976Y-115847241D01*
X154041313Y-115686822D01*
X154029000Y-115561803D01*
X154029000Y-114678197D01*
X154041314Y-114553177D01*
X154089977Y-114392758D01*
X154168996Y-114244924D01*
X154168997Y-114244922D01*
X154275342Y-114115341D01*
X154404923Y-114008996D01*
X154420095Y-114000886D01*
X154552759Y-113929976D01*
X154713178Y-113881313D01*
X154880000Y-113864883D01*
X155046823Y-113881313D01*
X155046823Y-113881313D01*
G37*
G36*
X162666823Y-113881313D02*
G01*
X162827242Y-113929976D01*
X162959906Y-114000886D01*
X162975078Y-114008996D01*
X163104659Y-114115341D01*
X163211004Y-114244922D01*
X163211005Y-114244924D01*
X163290024Y-114392758D01*
X163338687Y-114553178D01*
X163351000Y-114678197D01*
X163351000Y-115561804D01*
X163338687Y-115686823D01*
X163290024Y-115847242D01*
X163272766Y-115879529D01*
X163211004Y-115995078D01*
X163139879Y-116081743D01*
X163104659Y-116124659D01*
X162975077Y-116231005D01*
X162827241Y-116310024D01*
X162666822Y-116358687D01*
X162500000Y-116375117D01*
X162333177Y-116358687D01*
X162172758Y-116310024D01*
X162024924Y-116231005D01*
X162024922Y-116231004D01*
X161895341Y-116124659D01*
X161860122Y-116081745D01*
X161788995Y-115995077D01*
X161709976Y-115847241D01*
X161661313Y-115686822D01*
X161649000Y-115561803D01*
X161649000Y-114678197D01*
X161661314Y-114553177D01*
X161709977Y-114392758D01*
X161788996Y-114244924D01*
X161788997Y-114244922D01*
X161895342Y-114115341D01*
X162024923Y-114008996D01*
X162040095Y-114000886D01*
X162172759Y-113929976D01*
X162333178Y-113881313D01*
X162500000Y-113864883D01*
X162666823Y-113881313D01*
X162666823Y-113881313D01*
G37*
G36*
X128316000Y-115416000D02*
G01*
X126184000Y-115416000D01*
X126184000Y-113584000D01*
X128316000Y-113584000D01*
X128316000Y-115416000D01*
X128316000Y-115416000D01*
G37*
G36*
X225316000Y-114916000D02*
G01*
X223184000Y-114916000D01*
X223184000Y-113084000D01*
X225316000Y-113084000D01*
X225316000Y-114916000D01*
X225316000Y-114916000D01*
G37*
G36*
X127560343Y-111055361D02*
G01*
X127579568Y-111057254D01*
X127752234Y-111109632D01*
X127911365Y-111194689D01*
X128050844Y-111309156D01*
X128165311Y-111448635D01*
X128250368Y-111607766D01*
X128302746Y-111780433D01*
X128320432Y-111960000D01*
X128302746Y-112139567D01*
X128250368Y-112312234D01*
X128165311Y-112471365D01*
X128050844Y-112610844D01*
X127911365Y-112725311D01*
X127752234Y-112810368D01*
X127579568Y-112862746D01*
X127560343Y-112864639D01*
X127444998Y-112876000D01*
X127055002Y-112876000D01*
X126939657Y-112864639D01*
X126920432Y-112862746D01*
X126747766Y-112810368D01*
X126588635Y-112725311D01*
X126449156Y-112610844D01*
X126334689Y-112471365D01*
X126249632Y-112312234D01*
X126197254Y-112139567D01*
X126179568Y-111960000D01*
X126197254Y-111780433D01*
X126249632Y-111607766D01*
X126334689Y-111448635D01*
X126449156Y-111309156D01*
X126588635Y-111194689D01*
X126747766Y-111109632D01*
X126920432Y-111057254D01*
X126939657Y-111055361D01*
X127055002Y-111044000D01*
X127444998Y-111044000D01*
X127560343Y-111055361D01*
X127560343Y-111055361D01*
G37*
G36*
X224560343Y-110555361D02*
G01*
X224579568Y-110557254D01*
X224665900Y-110583443D01*
X224752234Y-110609632D01*
X224911365Y-110694689D01*
X225050844Y-110809156D01*
X225165311Y-110948635D01*
X225250368Y-111107766D01*
X225302746Y-111280433D01*
X225320432Y-111460000D01*
X225302746Y-111639567D01*
X225250368Y-111812234D01*
X225165311Y-111971365D01*
X225050844Y-112110844D01*
X224911365Y-112225311D01*
X224752234Y-112310368D01*
X224665900Y-112336557D01*
X224579568Y-112362746D01*
X224560343Y-112364639D01*
X224444998Y-112376000D01*
X224055002Y-112376000D01*
X223939657Y-112364639D01*
X223920432Y-112362746D01*
X223834100Y-112336557D01*
X223747766Y-112310368D01*
X223588635Y-112225311D01*
X223449156Y-112110844D01*
X223334689Y-111971365D01*
X223249632Y-111812234D01*
X223197254Y-111639567D01*
X223179568Y-111460000D01*
X223197254Y-111280433D01*
X223249632Y-111107766D01*
X223334689Y-110948635D01*
X223449156Y-110809156D01*
X223588635Y-110694689D01*
X223747766Y-110609632D01*
X223834100Y-110583443D01*
X223920432Y-110557254D01*
X223939657Y-110555361D01*
X224055002Y-110544000D01*
X224444998Y-110544000D01*
X224560343Y-110555361D01*
X224560343Y-110555361D01*
G37*
G36*
X127560343Y-108515361D02*
G01*
X127579568Y-108517254D01*
X127644282Y-108536885D01*
X127752234Y-108569632D01*
X127911365Y-108654689D01*
X128050844Y-108769156D01*
X128165311Y-108908635D01*
X128250368Y-109067766D01*
X128258722Y-109095305D01*
X128291901Y-109204680D01*
X128302746Y-109240433D01*
X128320432Y-109420000D01*
X128302746Y-109599567D01*
X128250368Y-109772234D01*
X128165311Y-109931365D01*
X128050844Y-110070844D01*
X127911365Y-110185311D01*
X127752234Y-110270368D01*
X127665900Y-110296557D01*
X127579568Y-110322746D01*
X127560343Y-110324639D01*
X127444998Y-110336000D01*
X127055002Y-110336000D01*
X126939657Y-110324639D01*
X126920432Y-110322746D01*
X126834100Y-110296557D01*
X126747766Y-110270368D01*
X126588635Y-110185311D01*
X126449156Y-110070844D01*
X126334689Y-109931365D01*
X126249632Y-109772234D01*
X126197254Y-109599567D01*
X126179568Y-109420000D01*
X126197254Y-109240433D01*
X126208100Y-109204680D01*
X126241278Y-109095305D01*
X126249632Y-109067766D01*
X126334689Y-108908635D01*
X126449156Y-108769156D01*
X126588635Y-108654689D01*
X126747766Y-108569632D01*
X126855718Y-108536885D01*
X126920432Y-108517254D01*
X126939657Y-108515361D01*
X127055002Y-108504000D01*
X127444998Y-108504000D01*
X127560343Y-108515361D01*
X127560343Y-108515361D01*
G37*
G36*
X224560343Y-108015361D02*
G01*
X224579568Y-108017254D01*
X224752234Y-108069632D01*
X224911365Y-108154689D01*
X225050844Y-108269156D01*
X225165311Y-108408635D01*
X225250368Y-108567766D01*
X225250368Y-108567767D01*
X225302217Y-108738687D01*
X225302746Y-108740433D01*
X225320432Y-108920000D01*
X225302746Y-109099567D01*
X225250368Y-109272234D01*
X225165311Y-109431365D01*
X225050844Y-109570844D01*
X224911365Y-109685311D01*
X224752234Y-109770368D01*
X224665900Y-109796557D01*
X224579568Y-109822746D01*
X224560343Y-109824639D01*
X224444998Y-109836000D01*
X224055002Y-109836000D01*
X223939657Y-109824639D01*
X223920432Y-109822746D01*
X223747766Y-109770368D01*
X223588635Y-109685311D01*
X223449156Y-109570844D01*
X223334689Y-109431365D01*
X223249632Y-109272234D01*
X223197254Y-109099567D01*
X223179568Y-108920000D01*
X223197254Y-108740433D01*
X223197784Y-108738687D01*
X223249632Y-108567767D01*
X223249632Y-108567766D01*
X223334689Y-108408635D01*
X223449156Y-108269156D01*
X223588635Y-108154689D01*
X223747766Y-108069632D01*
X223834100Y-108043443D01*
X223920432Y-108017254D01*
X223939657Y-108015361D01*
X224055002Y-108004000D01*
X224444998Y-108004000D01*
X224560343Y-108015361D01*
X224560343Y-108015361D01*
G37*
G36*
X226546601Y-108334397D02*
G01*
X226585305Y-108342096D01*
X226617340Y-108355365D01*
X226694680Y-108387400D01*
X226793115Y-108453173D01*
X226876827Y-108536885D01*
X226942600Y-108635320D01*
X226965259Y-108690025D01*
X226987904Y-108744695D01*
X227011000Y-108860807D01*
X227011000Y-108979193D01*
X226987904Y-109095305D01*
X226986138Y-109099568D01*
X226942600Y-109204680D01*
X226876827Y-109303115D01*
X226793115Y-109386827D01*
X226694680Y-109452600D01*
X226617340Y-109484635D01*
X226585305Y-109497904D01*
X226546601Y-109505603D01*
X226469195Y-109521000D01*
X226350805Y-109521000D01*
X226273399Y-109505603D01*
X226234695Y-109497904D01*
X226202660Y-109484635D01*
X226125320Y-109452600D01*
X226026885Y-109386827D01*
X225943173Y-109303115D01*
X225877400Y-109204680D01*
X225833862Y-109099568D01*
X225832096Y-109095305D01*
X225809000Y-108979193D01*
X225809000Y-108860807D01*
X225832096Y-108744695D01*
X225854741Y-108690025D01*
X225877400Y-108635320D01*
X225943173Y-108536885D01*
X226026885Y-108453173D01*
X226125320Y-108387400D01*
X226202660Y-108355365D01*
X226234695Y-108342096D01*
X226273399Y-108334397D01*
X226350805Y-108319000D01*
X226469195Y-108319000D01*
X226546601Y-108334397D01*
X226546601Y-108334397D01*
G37*
G36*
X134726823Y-106261313D02*
G01*
X134887242Y-106309976D01*
X135018248Y-106380000D01*
X135035078Y-106388996D01*
X135164659Y-106495341D01*
X135271004Y-106624922D01*
X135271005Y-106624924D01*
X135350024Y-106772758D01*
X135398687Y-106933178D01*
X135411000Y-107058197D01*
X135411000Y-107941804D01*
X135398687Y-108066823D01*
X135350024Y-108227242D01*
X135327620Y-108269156D01*
X135271004Y-108375078D01*
X135165200Y-108504000D01*
X135164659Y-108504659D01*
X135035077Y-108611005D01*
X134887241Y-108690024D01*
X134726822Y-108738687D01*
X134560000Y-108755117D01*
X134393177Y-108738687D01*
X134232758Y-108690024D01*
X134084924Y-108611005D01*
X134084922Y-108611004D01*
X133955341Y-108504659D01*
X133954800Y-108504000D01*
X133848995Y-108375077D01*
X133769976Y-108227241D01*
X133721313Y-108066822D01*
X133709000Y-107941803D01*
X133709000Y-107058197D01*
X133721314Y-106933177D01*
X133769977Y-106772758D01*
X133848996Y-106624924D01*
X133848997Y-106624922D01*
X133955342Y-106495341D01*
X134084923Y-106388996D01*
X134101753Y-106380000D01*
X134232759Y-106309976D01*
X134393178Y-106261313D01*
X134560000Y-106244883D01*
X134726823Y-106261313D01*
X134726823Y-106261313D01*
G37*
G36*
X137266823Y-106261313D02*
G01*
X137427242Y-106309976D01*
X137558248Y-106380000D01*
X137575078Y-106388996D01*
X137704659Y-106495341D01*
X137811004Y-106624922D01*
X137811005Y-106624924D01*
X137890024Y-106772758D01*
X137938687Y-106933178D01*
X137951000Y-107058197D01*
X137951000Y-107941804D01*
X137938687Y-108066823D01*
X137890024Y-108227242D01*
X137867620Y-108269156D01*
X137811004Y-108375078D01*
X137705200Y-108504000D01*
X137704659Y-108504659D01*
X137575077Y-108611005D01*
X137427241Y-108690024D01*
X137266822Y-108738687D01*
X137100000Y-108755117D01*
X136933177Y-108738687D01*
X136772758Y-108690024D01*
X136624924Y-108611005D01*
X136624922Y-108611004D01*
X136495341Y-108504659D01*
X136494800Y-108504000D01*
X136388995Y-108375077D01*
X136309976Y-108227241D01*
X136261313Y-108066822D01*
X136249000Y-107941803D01*
X136249000Y-107058197D01*
X136261314Y-106933177D01*
X136309977Y-106772758D01*
X136388996Y-106624924D01*
X136388997Y-106624922D01*
X136495342Y-106495341D01*
X136624923Y-106388996D01*
X136641753Y-106380000D01*
X136772759Y-106309976D01*
X136933178Y-106261313D01*
X137100000Y-106244883D01*
X137266823Y-106261313D01*
X137266823Y-106261313D01*
G37*
G36*
X155046823Y-106261313D02*
G01*
X155207242Y-106309976D01*
X155338248Y-106380000D01*
X155355078Y-106388996D01*
X155484659Y-106495341D01*
X155591004Y-106624922D01*
X155591005Y-106624924D01*
X155670024Y-106772758D01*
X155718687Y-106933178D01*
X155731000Y-107058197D01*
X155731000Y-107941804D01*
X155718687Y-108066823D01*
X155670024Y-108227242D01*
X155647620Y-108269156D01*
X155591004Y-108375078D01*
X155485200Y-108504000D01*
X155484659Y-108504659D01*
X155355077Y-108611005D01*
X155207241Y-108690024D01*
X155046822Y-108738687D01*
X154880000Y-108755117D01*
X154713177Y-108738687D01*
X154552758Y-108690024D01*
X154404924Y-108611005D01*
X154404922Y-108611004D01*
X154275341Y-108504659D01*
X154274800Y-108504000D01*
X154168995Y-108375077D01*
X154089976Y-108227241D01*
X154041313Y-108066822D01*
X154029000Y-107941803D01*
X154029000Y-107058197D01*
X154041314Y-106933177D01*
X154089977Y-106772758D01*
X154168996Y-106624924D01*
X154168997Y-106624922D01*
X154275342Y-106495341D01*
X154404923Y-106388996D01*
X154421753Y-106380000D01*
X154552759Y-106309976D01*
X154713178Y-106261313D01*
X154880000Y-106244883D01*
X155046823Y-106261313D01*
X155046823Y-106261313D01*
G37*
G36*
X139806823Y-106261313D02*
G01*
X139967242Y-106309976D01*
X140098248Y-106380000D01*
X140115078Y-106388996D01*
X140244659Y-106495341D01*
X140351004Y-106624922D01*
X140351005Y-106624924D01*
X140430024Y-106772758D01*
X140478687Y-106933178D01*
X140491000Y-107058197D01*
X140491000Y-107941804D01*
X140478687Y-108066823D01*
X140430024Y-108227242D01*
X140407620Y-108269156D01*
X140351004Y-108375078D01*
X140245200Y-108504000D01*
X140244659Y-108504659D01*
X140115077Y-108611005D01*
X139967241Y-108690024D01*
X139806822Y-108738687D01*
X139640000Y-108755117D01*
X139473177Y-108738687D01*
X139312758Y-108690024D01*
X139164924Y-108611005D01*
X139164922Y-108611004D01*
X139035341Y-108504659D01*
X139034800Y-108504000D01*
X138928995Y-108375077D01*
X138849976Y-108227241D01*
X138801313Y-108066822D01*
X138789000Y-107941803D01*
X138789000Y-107058197D01*
X138801314Y-106933177D01*
X138849977Y-106772758D01*
X138928996Y-106624924D01*
X138928997Y-106624922D01*
X139035342Y-106495341D01*
X139164923Y-106388996D01*
X139181753Y-106380000D01*
X139312759Y-106309976D01*
X139473178Y-106261313D01*
X139640000Y-106244883D01*
X139806823Y-106261313D01*
X139806823Y-106261313D01*
G37*
G36*
X142346823Y-106261313D02*
G01*
X142507242Y-106309976D01*
X142638248Y-106380000D01*
X142655078Y-106388996D01*
X142784659Y-106495341D01*
X142891004Y-106624922D01*
X142891005Y-106624924D01*
X142970024Y-106772758D01*
X143018687Y-106933178D01*
X143031000Y-107058197D01*
X143031000Y-107941804D01*
X143018687Y-108066823D01*
X142970024Y-108227242D01*
X142947620Y-108269156D01*
X142891004Y-108375078D01*
X142785200Y-108504000D01*
X142784659Y-108504659D01*
X142655077Y-108611005D01*
X142507241Y-108690024D01*
X142346822Y-108738687D01*
X142180000Y-108755117D01*
X142013177Y-108738687D01*
X141852758Y-108690024D01*
X141704924Y-108611005D01*
X141704922Y-108611004D01*
X141575341Y-108504659D01*
X141574800Y-108504000D01*
X141468995Y-108375077D01*
X141389976Y-108227241D01*
X141341313Y-108066822D01*
X141329000Y-107941803D01*
X141329000Y-107058197D01*
X141341314Y-106933177D01*
X141389977Y-106772758D01*
X141468996Y-106624924D01*
X141468997Y-106624922D01*
X141575342Y-106495341D01*
X141704923Y-106388996D01*
X141721753Y-106380000D01*
X141852759Y-106309976D01*
X142013178Y-106261313D01*
X142180000Y-106244883D01*
X142346823Y-106261313D01*
X142346823Y-106261313D01*
G37*
G36*
X144886823Y-106261313D02*
G01*
X145047242Y-106309976D01*
X145178248Y-106380000D01*
X145195078Y-106388996D01*
X145324659Y-106495341D01*
X145431004Y-106624922D01*
X145431005Y-106624924D01*
X145510024Y-106772758D01*
X145558687Y-106933178D01*
X145571000Y-107058197D01*
X145571000Y-107941804D01*
X145558687Y-108066823D01*
X145510024Y-108227242D01*
X145487620Y-108269156D01*
X145431004Y-108375078D01*
X145325200Y-108504000D01*
X145324659Y-108504659D01*
X145195077Y-108611005D01*
X145047241Y-108690024D01*
X144886822Y-108738687D01*
X144720000Y-108755117D01*
X144553177Y-108738687D01*
X144392758Y-108690024D01*
X144244924Y-108611005D01*
X144244922Y-108611004D01*
X144115341Y-108504659D01*
X144114800Y-108504000D01*
X144008995Y-108375077D01*
X143929976Y-108227241D01*
X143881313Y-108066822D01*
X143869000Y-107941803D01*
X143869000Y-107058197D01*
X143881314Y-106933177D01*
X143929977Y-106772758D01*
X144008996Y-106624924D01*
X144008997Y-106624922D01*
X144115342Y-106495341D01*
X144244923Y-106388996D01*
X144261753Y-106380000D01*
X144392759Y-106309976D01*
X144553178Y-106261313D01*
X144720000Y-106244883D01*
X144886823Y-106261313D01*
X144886823Y-106261313D01*
G37*
G36*
X147426823Y-106261313D02*
G01*
X147587242Y-106309976D01*
X147718248Y-106380000D01*
X147735078Y-106388996D01*
X147864659Y-106495341D01*
X147971004Y-106624922D01*
X147971005Y-106624924D01*
X148050024Y-106772758D01*
X148098687Y-106933178D01*
X148111000Y-107058197D01*
X148111000Y-107941804D01*
X148098687Y-108066823D01*
X148050024Y-108227242D01*
X148027620Y-108269156D01*
X147971004Y-108375078D01*
X147865200Y-108504000D01*
X147864659Y-108504659D01*
X147735077Y-108611005D01*
X147587241Y-108690024D01*
X147426822Y-108738687D01*
X147260000Y-108755117D01*
X147093177Y-108738687D01*
X146932758Y-108690024D01*
X146784924Y-108611005D01*
X146784922Y-108611004D01*
X146655341Y-108504659D01*
X146654800Y-108504000D01*
X146548995Y-108375077D01*
X146469976Y-108227241D01*
X146421313Y-108066822D01*
X146409000Y-107941803D01*
X146409000Y-107058197D01*
X146421314Y-106933177D01*
X146469977Y-106772758D01*
X146548996Y-106624924D01*
X146548997Y-106624922D01*
X146655342Y-106495341D01*
X146784923Y-106388996D01*
X146801753Y-106380000D01*
X146932759Y-106309976D01*
X147093178Y-106261313D01*
X147260000Y-106244883D01*
X147426823Y-106261313D01*
X147426823Y-106261313D01*
G37*
G36*
X149966823Y-106261313D02*
G01*
X150127242Y-106309976D01*
X150258248Y-106380000D01*
X150275078Y-106388996D01*
X150404659Y-106495341D01*
X150511004Y-106624922D01*
X150511005Y-106624924D01*
X150590024Y-106772758D01*
X150638687Y-106933178D01*
X150651000Y-107058197D01*
X150651000Y-107941804D01*
X150638687Y-108066823D01*
X150590024Y-108227242D01*
X150567620Y-108269156D01*
X150511004Y-108375078D01*
X150405200Y-108504000D01*
X150404659Y-108504659D01*
X150275077Y-108611005D01*
X150127241Y-108690024D01*
X149966822Y-108738687D01*
X149800000Y-108755117D01*
X149633177Y-108738687D01*
X149472758Y-108690024D01*
X149324924Y-108611005D01*
X149324922Y-108611004D01*
X149195341Y-108504659D01*
X149194800Y-108504000D01*
X149088995Y-108375077D01*
X149009976Y-108227241D01*
X148961313Y-108066822D01*
X148949000Y-107941803D01*
X148949000Y-107058197D01*
X148961314Y-106933177D01*
X149009977Y-106772758D01*
X149088996Y-106624924D01*
X149088997Y-106624922D01*
X149195342Y-106495341D01*
X149324923Y-106388996D01*
X149341753Y-106380000D01*
X149472759Y-106309976D01*
X149633178Y-106261313D01*
X149800000Y-106244883D01*
X149966823Y-106261313D01*
X149966823Y-106261313D01*
G37*
G36*
X152506823Y-106261313D02*
G01*
X152667242Y-106309976D01*
X152798248Y-106380000D01*
X152815078Y-106388996D01*
X152944659Y-106495341D01*
X153051004Y-106624922D01*
X153051005Y-106624924D01*
X153130024Y-106772758D01*
X153178687Y-106933178D01*
X153191000Y-107058197D01*
X153191000Y-107941804D01*
X153178687Y-108066823D01*
X153130024Y-108227242D01*
X153107620Y-108269156D01*
X153051004Y-108375078D01*
X152945200Y-108504000D01*
X152944659Y-108504659D01*
X152815077Y-108611005D01*
X152667241Y-108690024D01*
X152506822Y-108738687D01*
X152340000Y-108755117D01*
X152173177Y-108738687D01*
X152012758Y-108690024D01*
X151864924Y-108611005D01*
X151864922Y-108611004D01*
X151735341Y-108504659D01*
X151734800Y-108504000D01*
X151628995Y-108375077D01*
X151549976Y-108227241D01*
X151501313Y-108066822D01*
X151489000Y-107941803D01*
X151489000Y-107058197D01*
X151501314Y-106933177D01*
X151549977Y-106772758D01*
X151628996Y-106624924D01*
X151628997Y-106624922D01*
X151735342Y-106495341D01*
X151864923Y-106388996D01*
X151881753Y-106380000D01*
X152012759Y-106309976D01*
X152173178Y-106261313D01*
X152340000Y-106244883D01*
X152506823Y-106261313D01*
X152506823Y-106261313D01*
G37*
G36*
X157586823Y-106261313D02*
G01*
X157747242Y-106309976D01*
X157878248Y-106380000D01*
X157895078Y-106388996D01*
X158024659Y-106495341D01*
X158131004Y-106624922D01*
X158131005Y-106624924D01*
X158210024Y-106772758D01*
X158258687Y-106933178D01*
X158271000Y-107058197D01*
X158271000Y-107941804D01*
X158258687Y-108066823D01*
X158210024Y-108227242D01*
X158187620Y-108269156D01*
X158131004Y-108375078D01*
X158025200Y-108504000D01*
X158024659Y-108504659D01*
X157895077Y-108611005D01*
X157747241Y-108690024D01*
X157586822Y-108738687D01*
X157420000Y-108755117D01*
X157253177Y-108738687D01*
X157092758Y-108690024D01*
X156944924Y-108611005D01*
X156944922Y-108611004D01*
X156815341Y-108504659D01*
X156814800Y-108504000D01*
X156708995Y-108375077D01*
X156629976Y-108227241D01*
X156581313Y-108066822D01*
X156569000Y-107941803D01*
X156569000Y-107058197D01*
X156581314Y-106933177D01*
X156629977Y-106772758D01*
X156708996Y-106624924D01*
X156708997Y-106624922D01*
X156815342Y-106495341D01*
X156944923Y-106388996D01*
X156961753Y-106380000D01*
X157092759Y-106309976D01*
X157253178Y-106261313D01*
X157420000Y-106244883D01*
X157586823Y-106261313D01*
X157586823Y-106261313D01*
G37*
G36*
X160126823Y-106261313D02*
G01*
X160287242Y-106309976D01*
X160418248Y-106380000D01*
X160435078Y-106388996D01*
X160564659Y-106495341D01*
X160671004Y-106624922D01*
X160671005Y-106624924D01*
X160750024Y-106772758D01*
X160798687Y-106933178D01*
X160811000Y-107058197D01*
X160811000Y-107941804D01*
X160798687Y-108066823D01*
X160750024Y-108227242D01*
X160727620Y-108269156D01*
X160671004Y-108375078D01*
X160565200Y-108504000D01*
X160564659Y-108504659D01*
X160435077Y-108611005D01*
X160287241Y-108690024D01*
X160126822Y-108738687D01*
X159960000Y-108755117D01*
X159793177Y-108738687D01*
X159632758Y-108690024D01*
X159484924Y-108611005D01*
X159484922Y-108611004D01*
X159355341Y-108504659D01*
X159354800Y-108504000D01*
X159248995Y-108375077D01*
X159169976Y-108227241D01*
X159121313Y-108066822D01*
X159109000Y-107941803D01*
X159109000Y-107058197D01*
X159121314Y-106933177D01*
X159169977Y-106772758D01*
X159248996Y-106624924D01*
X159248997Y-106624922D01*
X159355342Y-106495341D01*
X159484923Y-106388996D01*
X159501753Y-106380000D01*
X159632759Y-106309976D01*
X159793178Y-106261313D01*
X159960000Y-106244883D01*
X160126823Y-106261313D01*
X160126823Y-106261313D01*
G37*
G36*
X163351000Y-108751000D02*
G01*
X161649000Y-108751000D01*
X161649000Y-106249000D01*
X163351000Y-106249000D01*
X163351000Y-108751000D01*
X163351000Y-108751000D01*
G37*
G36*
X224560343Y-105475361D02*
G01*
X224579568Y-105477254D01*
X224752234Y-105529632D01*
X224911365Y-105614689D01*
X225050844Y-105729156D01*
X225165311Y-105868635D01*
X225250368Y-106027766D01*
X225302746Y-106200433D01*
X225320432Y-106380000D01*
X225302746Y-106559567D01*
X225250368Y-106732234D01*
X225165311Y-106891365D01*
X225050844Y-107030844D01*
X224911365Y-107145311D01*
X224752234Y-107230368D01*
X224677626Y-107253000D01*
X224579568Y-107282746D01*
X224560343Y-107284639D01*
X224444998Y-107296000D01*
X224055002Y-107296000D01*
X223939657Y-107284639D01*
X223920432Y-107282746D01*
X223822374Y-107253000D01*
X223747766Y-107230368D01*
X223588635Y-107145311D01*
X223449156Y-107030844D01*
X223334689Y-106891365D01*
X223249632Y-106732234D01*
X223197254Y-106559567D01*
X223179568Y-106380000D01*
X223197254Y-106200433D01*
X223249632Y-106027766D01*
X223334689Y-105868635D01*
X223449156Y-105729156D01*
X223588635Y-105614689D01*
X223747766Y-105529632D01*
X223920432Y-105477254D01*
X223939657Y-105475361D01*
X224055002Y-105464000D01*
X224444998Y-105464000D01*
X224560343Y-105475361D01*
X224560343Y-105475361D01*
G37*
G36*
X191477142Y-105658242D02*
G01*
X191625101Y-105719529D01*
X191758255Y-105808499D01*
X191871501Y-105921745D01*
X191960471Y-106054899D01*
X192021758Y-106202858D01*
X192053000Y-106359925D01*
X192053000Y-106520075D01*
X192021758Y-106677142D01*
X191960471Y-106825101D01*
X191871501Y-106958255D01*
X191758255Y-107071501D01*
X191625101Y-107160471D01*
X191477142Y-107221758D01*
X191320075Y-107253000D01*
X191159925Y-107253000D01*
X191002858Y-107221758D01*
X190854899Y-107160471D01*
X190721745Y-107071501D01*
X190608499Y-106958255D01*
X190519529Y-106825101D01*
X190458242Y-106677142D01*
X190427000Y-106520075D01*
X190427000Y-106359925D01*
X190458242Y-106202858D01*
X190519529Y-106054899D01*
X190608499Y-105921745D01*
X190721745Y-105808499D01*
X190854899Y-105719529D01*
X191002858Y-105658242D01*
X191159925Y-105627000D01*
X191320075Y-105627000D01*
X191477142Y-105658242D01*
X191477142Y-105658242D01*
G37*
G36*
X176237142Y-105658242D02*
G01*
X176385101Y-105719529D01*
X176518255Y-105808499D01*
X176631501Y-105921745D01*
X176720471Y-106054899D01*
X176781758Y-106202858D01*
X176813000Y-106359925D01*
X176813000Y-106520075D01*
X176781758Y-106677142D01*
X176720471Y-106825101D01*
X176631501Y-106958255D01*
X176518255Y-107071501D01*
X176385101Y-107160471D01*
X176237142Y-107221758D01*
X176080075Y-107253000D01*
X175919925Y-107253000D01*
X175762858Y-107221758D01*
X175614899Y-107160471D01*
X175481745Y-107071501D01*
X175368499Y-106958255D01*
X175279529Y-106825101D01*
X175218242Y-106677142D01*
X175187000Y-106520075D01*
X175187000Y-106359925D01*
X175218242Y-106202858D01*
X175279529Y-106054899D01*
X175368499Y-105921745D01*
X175481745Y-105808499D01*
X175614899Y-105719529D01*
X175762858Y-105658242D01*
X175919925Y-105627000D01*
X176080075Y-105627000D01*
X176237142Y-105658242D01*
X176237142Y-105658242D01*
G37*
G36*
X178777142Y-105658242D02*
G01*
X178925101Y-105719529D01*
X179058255Y-105808499D01*
X179171501Y-105921745D01*
X179260471Y-106054899D01*
X179321758Y-106202858D01*
X179353000Y-106359925D01*
X179353000Y-106520075D01*
X179321758Y-106677142D01*
X179260471Y-106825101D01*
X179171501Y-106958255D01*
X179058255Y-107071501D01*
X178925101Y-107160471D01*
X178777142Y-107221758D01*
X178620075Y-107253000D01*
X178459925Y-107253000D01*
X178302858Y-107221758D01*
X178154899Y-107160471D01*
X178021745Y-107071501D01*
X177908499Y-106958255D01*
X177819529Y-106825101D01*
X177758242Y-106677142D01*
X177727000Y-106520075D01*
X177727000Y-106359925D01*
X177758242Y-106202858D01*
X177819529Y-106054899D01*
X177908499Y-105921745D01*
X178021745Y-105808499D01*
X178154899Y-105719529D01*
X178302858Y-105658242D01*
X178459925Y-105627000D01*
X178620075Y-105627000D01*
X178777142Y-105658242D01*
X178777142Y-105658242D01*
G37*
G36*
X181317142Y-105658242D02*
G01*
X181465101Y-105719529D01*
X181598255Y-105808499D01*
X181711501Y-105921745D01*
X181800471Y-106054899D01*
X181861758Y-106202858D01*
X181893000Y-106359925D01*
X181893000Y-106520075D01*
X181861758Y-106677142D01*
X181800471Y-106825101D01*
X181711501Y-106958255D01*
X181598255Y-107071501D01*
X181465101Y-107160471D01*
X181317142Y-107221758D01*
X181160075Y-107253000D01*
X180999925Y-107253000D01*
X180842858Y-107221758D01*
X180694899Y-107160471D01*
X180561745Y-107071501D01*
X180448499Y-106958255D01*
X180359529Y-106825101D01*
X180298242Y-106677142D01*
X180267000Y-106520075D01*
X180267000Y-106359925D01*
X180298242Y-106202858D01*
X180359529Y-106054899D01*
X180448499Y-105921745D01*
X180561745Y-105808499D01*
X180694899Y-105719529D01*
X180842858Y-105658242D01*
X180999925Y-105627000D01*
X181160075Y-105627000D01*
X181317142Y-105658242D01*
X181317142Y-105658242D01*
G37*
G36*
X186397142Y-105658242D02*
G01*
X186545101Y-105719529D01*
X186678255Y-105808499D01*
X186791501Y-105921745D01*
X186880471Y-106054899D01*
X186941758Y-106202858D01*
X186973000Y-106359925D01*
X186973000Y-106520075D01*
X186941758Y-106677142D01*
X186880471Y-106825101D01*
X186791501Y-106958255D01*
X186678255Y-107071501D01*
X186545101Y-107160471D01*
X186397142Y-107221758D01*
X186240075Y-107253000D01*
X186079925Y-107253000D01*
X185922858Y-107221758D01*
X185774899Y-107160471D01*
X185641745Y-107071501D01*
X185528499Y-106958255D01*
X185439529Y-106825101D01*
X185378242Y-106677142D01*
X185347000Y-106520075D01*
X185347000Y-106359925D01*
X185378242Y-106202858D01*
X185439529Y-106054899D01*
X185528499Y-105921745D01*
X185641745Y-105808499D01*
X185774899Y-105719529D01*
X185922858Y-105658242D01*
X186079925Y-105627000D01*
X186240075Y-105627000D01*
X186397142Y-105658242D01*
X186397142Y-105658242D01*
G37*
G36*
X183857142Y-105658242D02*
G01*
X184005101Y-105719529D01*
X184138255Y-105808499D01*
X184251501Y-105921745D01*
X184340471Y-106054899D01*
X184401758Y-106202858D01*
X184433000Y-106359925D01*
X184433000Y-106520075D01*
X184401758Y-106677142D01*
X184340471Y-106825101D01*
X184251501Y-106958255D01*
X184138255Y-107071501D01*
X184005101Y-107160471D01*
X183857142Y-107221758D01*
X183700075Y-107253000D01*
X183539925Y-107253000D01*
X183382858Y-107221758D01*
X183234899Y-107160471D01*
X183101745Y-107071501D01*
X182988499Y-106958255D01*
X182899529Y-106825101D01*
X182838242Y-106677142D01*
X182807000Y-106520075D01*
X182807000Y-106359925D01*
X182838242Y-106202858D01*
X182899529Y-106054899D01*
X182988499Y-105921745D01*
X183101745Y-105808499D01*
X183234899Y-105719529D01*
X183382858Y-105658242D01*
X183539925Y-105627000D01*
X183700075Y-105627000D01*
X183857142Y-105658242D01*
X183857142Y-105658242D01*
G37*
G36*
X194017142Y-105658242D02*
G01*
X194165101Y-105719529D01*
X194298255Y-105808499D01*
X194411501Y-105921745D01*
X194500471Y-106054899D01*
X194561758Y-106202858D01*
X194593000Y-106359925D01*
X194593000Y-106520075D01*
X194561758Y-106677142D01*
X194500471Y-106825101D01*
X194411501Y-106958255D01*
X194298255Y-107071501D01*
X194165101Y-107160471D01*
X194017142Y-107221758D01*
X193860075Y-107253000D01*
X193699925Y-107253000D01*
X193542858Y-107221758D01*
X193394899Y-107160471D01*
X193261745Y-107071501D01*
X193148499Y-106958255D01*
X193059529Y-106825101D01*
X192998242Y-106677142D01*
X192967000Y-106520075D01*
X192967000Y-106359925D01*
X192998242Y-106202858D01*
X193059529Y-106054899D01*
X193148499Y-105921745D01*
X193261745Y-105808499D01*
X193394899Y-105719529D01*
X193542858Y-105658242D01*
X193699925Y-105627000D01*
X193860075Y-105627000D01*
X194017142Y-105658242D01*
X194017142Y-105658242D01*
G37*
G36*
X188937142Y-105658242D02*
G01*
X189085101Y-105719529D01*
X189218255Y-105808499D01*
X189331501Y-105921745D01*
X189420471Y-106054899D01*
X189481758Y-106202858D01*
X189513000Y-106359925D01*
X189513000Y-106520075D01*
X189481758Y-106677142D01*
X189420471Y-106825101D01*
X189331501Y-106958255D01*
X189218255Y-107071501D01*
X189085101Y-107160471D01*
X188937142Y-107221758D01*
X188780075Y-107253000D01*
X188619925Y-107253000D01*
X188462858Y-107221758D01*
X188314899Y-107160471D01*
X188181745Y-107071501D01*
X188068499Y-106958255D01*
X187979529Y-106825101D01*
X187918242Y-106677142D01*
X187887000Y-106520075D01*
X187887000Y-106359925D01*
X187918242Y-106202858D01*
X187979529Y-106054899D01*
X188068499Y-105921745D01*
X188181745Y-105808499D01*
X188314899Y-105719529D01*
X188462858Y-105658242D01*
X188619925Y-105627000D01*
X188780075Y-105627000D01*
X188937142Y-105658242D01*
X188937142Y-105658242D01*
G37*
G36*
X164726823Y-95161313D02*
G01*
X164887242Y-95209976D01*
X165019906Y-95280886D01*
X165035078Y-95288996D01*
X165164659Y-95395341D01*
X165271004Y-95524922D01*
X165271005Y-95524924D01*
X165350024Y-95672758D01*
X165398687Y-95833177D01*
X165415117Y-96000000D01*
X165398687Y-96166823D01*
X165350024Y-96327242D01*
X165279114Y-96459906D01*
X165271004Y-96475078D01*
X165164659Y-96604659D01*
X165035078Y-96711004D01*
X165035076Y-96711005D01*
X164887242Y-96790024D01*
X164726823Y-96838687D01*
X164601804Y-96851000D01*
X164518196Y-96851000D01*
X164393177Y-96838687D01*
X164232758Y-96790024D01*
X164084924Y-96711005D01*
X164084922Y-96711004D01*
X163955341Y-96604659D01*
X163848996Y-96475078D01*
X163840886Y-96459906D01*
X163769976Y-96327242D01*
X163721313Y-96166823D01*
X163704883Y-96000000D01*
X163721313Y-95833177D01*
X163769976Y-95672758D01*
X163848995Y-95524924D01*
X163848996Y-95524922D01*
X163955341Y-95395341D01*
X164084922Y-95288996D01*
X164100094Y-95280886D01*
X164232758Y-95209976D01*
X164393177Y-95161313D01*
X164518196Y-95149000D01*
X164601804Y-95149000D01*
X164726823Y-95161313D01*
X164726823Y-95161313D01*
G37*
G36*
X169806823Y-95161313D02*
G01*
X169967242Y-95209976D01*
X170099906Y-95280886D01*
X170115078Y-95288996D01*
X170244659Y-95395341D01*
X170351004Y-95524922D01*
X170351005Y-95524924D01*
X170430024Y-95672758D01*
X170478687Y-95833177D01*
X170495117Y-96000000D01*
X170478687Y-96166823D01*
X170430024Y-96327242D01*
X170359114Y-96459906D01*
X170351004Y-96475078D01*
X170244659Y-96604659D01*
X170115078Y-96711004D01*
X170115076Y-96711005D01*
X169967242Y-96790024D01*
X169806823Y-96838687D01*
X169681804Y-96851000D01*
X169598196Y-96851000D01*
X169473177Y-96838687D01*
X169312758Y-96790024D01*
X169164924Y-96711005D01*
X169164922Y-96711004D01*
X169035341Y-96604659D01*
X168928996Y-96475078D01*
X168920886Y-96459906D01*
X168849976Y-96327242D01*
X168801313Y-96166823D01*
X168784883Y-96000000D01*
X168801313Y-95833177D01*
X168849976Y-95672758D01*
X168928995Y-95524924D01*
X168928996Y-95524922D01*
X169035341Y-95395341D01*
X169164922Y-95288996D01*
X169180094Y-95280886D01*
X169312758Y-95209976D01*
X169473177Y-95161313D01*
X169598196Y-95149000D01*
X169681804Y-95149000D01*
X169806823Y-95161313D01*
X169806823Y-95161313D01*
G37*
G36*
X172346823Y-95161313D02*
G01*
X172507242Y-95209976D01*
X172639906Y-95280886D01*
X172655078Y-95288996D01*
X172784659Y-95395341D01*
X172891004Y-95524922D01*
X172891005Y-95524924D01*
X172970024Y-95672758D01*
X173018687Y-95833177D01*
X173035117Y-96000000D01*
X173018687Y-96166823D01*
X172970024Y-96327242D01*
X172899114Y-96459906D01*
X172891004Y-96475078D01*
X172784659Y-96604659D01*
X172655078Y-96711004D01*
X172655076Y-96711005D01*
X172507242Y-96790024D01*
X172346823Y-96838687D01*
X172221804Y-96851000D01*
X172138196Y-96851000D01*
X172013177Y-96838687D01*
X171852758Y-96790024D01*
X171704924Y-96711005D01*
X171704922Y-96711004D01*
X171575341Y-96604659D01*
X171468996Y-96475078D01*
X171460886Y-96459906D01*
X171389976Y-96327242D01*
X171341313Y-96166823D01*
X171324883Y-96000000D01*
X171341313Y-95833177D01*
X171389976Y-95672758D01*
X171468995Y-95524924D01*
X171468996Y-95524922D01*
X171575341Y-95395341D01*
X171704922Y-95288996D01*
X171720094Y-95280886D01*
X171852758Y-95209976D01*
X172013177Y-95161313D01*
X172138196Y-95149000D01*
X172221804Y-95149000D01*
X172346823Y-95161313D01*
X172346823Y-95161313D01*
G37*
G36*
X167266823Y-95161313D02*
G01*
X167427242Y-95209976D01*
X167559906Y-95280886D01*
X167575078Y-95288996D01*
X167704659Y-95395341D01*
X167811004Y-95524922D01*
X167811005Y-95524924D01*
X167890024Y-95672758D01*
X167938687Y-95833177D01*
X167955117Y-96000000D01*
X167938687Y-96166823D01*
X167890024Y-96327242D01*
X167819114Y-96459906D01*
X167811004Y-96475078D01*
X167704659Y-96604659D01*
X167575078Y-96711004D01*
X167575076Y-96711005D01*
X167427242Y-96790024D01*
X167266823Y-96838687D01*
X167141804Y-96851000D01*
X167058196Y-96851000D01*
X166933177Y-96838687D01*
X166772758Y-96790024D01*
X166624924Y-96711005D01*
X166624922Y-96711004D01*
X166495341Y-96604659D01*
X166388996Y-96475078D01*
X166380886Y-96459906D01*
X166309976Y-96327242D01*
X166261313Y-96166823D01*
X166244883Y-96000000D01*
X166261313Y-95833177D01*
X166309976Y-95672758D01*
X166388995Y-95524924D01*
X166388996Y-95524922D01*
X166495341Y-95395341D01*
X166624922Y-95288996D01*
X166640094Y-95280886D01*
X166772758Y-95209976D01*
X166933177Y-95161313D01*
X167058196Y-95149000D01*
X167141804Y-95149000D01*
X167266823Y-95161313D01*
X167266823Y-95161313D01*
G37*
G36*
X162186823Y-95161313D02*
G01*
X162347242Y-95209976D01*
X162479906Y-95280886D01*
X162495078Y-95288996D01*
X162624659Y-95395341D01*
X162731004Y-95524922D01*
X162731005Y-95524924D01*
X162810024Y-95672758D01*
X162858687Y-95833177D01*
X162875117Y-96000000D01*
X162858687Y-96166823D01*
X162810024Y-96327242D01*
X162739114Y-96459906D01*
X162731004Y-96475078D01*
X162624659Y-96604659D01*
X162495078Y-96711004D01*
X162495076Y-96711005D01*
X162347242Y-96790024D01*
X162186823Y-96838687D01*
X162061804Y-96851000D01*
X161978196Y-96851000D01*
X161853177Y-96838687D01*
X161692758Y-96790024D01*
X161544924Y-96711005D01*
X161544922Y-96711004D01*
X161415341Y-96604659D01*
X161308996Y-96475078D01*
X161300886Y-96459906D01*
X161229976Y-96327242D01*
X161181313Y-96166823D01*
X161164883Y-96000000D01*
X161181313Y-95833177D01*
X161229976Y-95672758D01*
X161308995Y-95524924D01*
X161308996Y-95524922D01*
X161415341Y-95395341D01*
X161544922Y-95288996D01*
X161560094Y-95280886D01*
X161692758Y-95209976D01*
X161853177Y-95161313D01*
X161978196Y-95149000D01*
X162061804Y-95149000D01*
X162186823Y-95161313D01*
X162186823Y-95161313D01*
G37*
G36*
X193351000Y-96851000D02*
G01*
X191649000Y-96851000D01*
X191649000Y-95149000D01*
X193351000Y-95149000D01*
X193351000Y-96851000D01*
X193351000Y-96851000D01*
G37*
G36*
X190126823Y-95161313D02*
G01*
X190287242Y-95209976D01*
X190419906Y-95280886D01*
X190435078Y-95288996D01*
X190564659Y-95395341D01*
X190671004Y-95524922D01*
X190671005Y-95524924D01*
X190750024Y-95672758D01*
X190798687Y-95833177D01*
X190815117Y-96000000D01*
X190798687Y-96166823D01*
X190750024Y-96327242D01*
X190679114Y-96459906D01*
X190671004Y-96475078D01*
X190564659Y-96604659D01*
X190435078Y-96711004D01*
X190435076Y-96711005D01*
X190287242Y-96790024D01*
X190126823Y-96838687D01*
X190001804Y-96851000D01*
X189918196Y-96851000D01*
X189793177Y-96838687D01*
X189632758Y-96790024D01*
X189484924Y-96711005D01*
X189484922Y-96711004D01*
X189355341Y-96604659D01*
X189248996Y-96475078D01*
X189240886Y-96459906D01*
X189169976Y-96327242D01*
X189121313Y-96166823D01*
X189104883Y-96000000D01*
X189121313Y-95833177D01*
X189169976Y-95672758D01*
X189248995Y-95524924D01*
X189248996Y-95524922D01*
X189355341Y-95395341D01*
X189484922Y-95288996D01*
X189500094Y-95280886D01*
X189632758Y-95209976D01*
X189793177Y-95161313D01*
X189918196Y-95149000D01*
X190001804Y-95149000D01*
X190126823Y-95161313D01*
X190126823Y-95161313D01*
G37*
G36*
X187586823Y-95161313D02*
G01*
X187747242Y-95209976D01*
X187879906Y-95280886D01*
X187895078Y-95288996D01*
X188024659Y-95395341D01*
X188131004Y-95524922D01*
X188131005Y-95524924D01*
X188210024Y-95672758D01*
X188258687Y-95833177D01*
X188275117Y-96000000D01*
X188258687Y-96166823D01*
X188210024Y-96327242D01*
X188139114Y-96459906D01*
X188131004Y-96475078D01*
X188024659Y-96604659D01*
X187895078Y-96711004D01*
X187895076Y-96711005D01*
X187747242Y-96790024D01*
X187586823Y-96838687D01*
X187461804Y-96851000D01*
X187378196Y-96851000D01*
X187253177Y-96838687D01*
X187092758Y-96790024D01*
X186944924Y-96711005D01*
X186944922Y-96711004D01*
X186815341Y-96604659D01*
X186708996Y-96475078D01*
X186700886Y-96459906D01*
X186629976Y-96327242D01*
X186581313Y-96166823D01*
X186564883Y-96000000D01*
X186581313Y-95833177D01*
X186629976Y-95672758D01*
X186708995Y-95524924D01*
X186708996Y-95524922D01*
X186815341Y-95395341D01*
X186944922Y-95288996D01*
X186960094Y-95280886D01*
X187092758Y-95209976D01*
X187253177Y-95161313D01*
X187378196Y-95149000D01*
X187461804Y-95149000D01*
X187586823Y-95161313D01*
X187586823Y-95161313D01*
G37*
G36*
X185046823Y-95161313D02*
G01*
X185207242Y-95209976D01*
X185339906Y-95280886D01*
X185355078Y-95288996D01*
X185484659Y-95395341D01*
X185591004Y-95524922D01*
X185591005Y-95524924D01*
X185670024Y-95672758D01*
X185718687Y-95833177D01*
X185735117Y-96000000D01*
X185718687Y-96166823D01*
X185670024Y-96327242D01*
X185599114Y-96459906D01*
X185591004Y-96475078D01*
X185484659Y-96604659D01*
X185355078Y-96711004D01*
X185355076Y-96711005D01*
X185207242Y-96790024D01*
X185046823Y-96838687D01*
X184921804Y-96851000D01*
X184838196Y-96851000D01*
X184713177Y-96838687D01*
X184552758Y-96790024D01*
X184404924Y-96711005D01*
X184404922Y-96711004D01*
X184275341Y-96604659D01*
X184168996Y-96475078D01*
X184160886Y-96459906D01*
X184089976Y-96327242D01*
X184041313Y-96166823D01*
X184024883Y-96000000D01*
X184041313Y-95833177D01*
X184089976Y-95672758D01*
X184168995Y-95524924D01*
X184168996Y-95524922D01*
X184275341Y-95395341D01*
X184404922Y-95288996D01*
X184420094Y-95280886D01*
X184552758Y-95209976D01*
X184713177Y-95161313D01*
X184838196Y-95149000D01*
X184921804Y-95149000D01*
X185046823Y-95161313D01*
X185046823Y-95161313D01*
G37*
G36*
X182506823Y-95161313D02*
G01*
X182667242Y-95209976D01*
X182799906Y-95280886D01*
X182815078Y-95288996D01*
X182944659Y-95395341D01*
X183051004Y-95524922D01*
X183051005Y-95524924D01*
X183130024Y-95672758D01*
X183178687Y-95833177D01*
X183195117Y-96000000D01*
X183178687Y-96166823D01*
X183130024Y-96327242D01*
X183059114Y-96459906D01*
X183051004Y-96475078D01*
X182944659Y-96604659D01*
X182815078Y-96711004D01*
X182815076Y-96711005D01*
X182667242Y-96790024D01*
X182506823Y-96838687D01*
X182381804Y-96851000D01*
X182298196Y-96851000D01*
X182173177Y-96838687D01*
X182012758Y-96790024D01*
X181864924Y-96711005D01*
X181864922Y-96711004D01*
X181735341Y-96604659D01*
X181628996Y-96475078D01*
X181620886Y-96459906D01*
X181549976Y-96327242D01*
X181501313Y-96166823D01*
X181484883Y-96000000D01*
X181501313Y-95833177D01*
X181549976Y-95672758D01*
X181628995Y-95524924D01*
X181628996Y-95524922D01*
X181735341Y-95395341D01*
X181864922Y-95288996D01*
X181880094Y-95280886D01*
X182012758Y-95209976D01*
X182173177Y-95161313D01*
X182298196Y-95149000D01*
X182381804Y-95149000D01*
X182506823Y-95161313D01*
X182506823Y-95161313D01*
G37*
G36*
X179966823Y-95161313D02*
G01*
X180127242Y-95209976D01*
X180259906Y-95280886D01*
X180275078Y-95288996D01*
X180404659Y-95395341D01*
X180511004Y-95524922D01*
X180511005Y-95524924D01*
X180590024Y-95672758D01*
X180638687Y-95833177D01*
X180655117Y-96000000D01*
X180638687Y-96166823D01*
X180590024Y-96327242D01*
X180519114Y-96459906D01*
X180511004Y-96475078D01*
X180404659Y-96604659D01*
X180275078Y-96711004D01*
X180275076Y-96711005D01*
X180127242Y-96790024D01*
X179966823Y-96838687D01*
X179841804Y-96851000D01*
X179758196Y-96851000D01*
X179633177Y-96838687D01*
X179472758Y-96790024D01*
X179324924Y-96711005D01*
X179324922Y-96711004D01*
X179195341Y-96604659D01*
X179088996Y-96475078D01*
X179080886Y-96459906D01*
X179009976Y-96327242D01*
X178961313Y-96166823D01*
X178944883Y-96000000D01*
X178961313Y-95833177D01*
X179009976Y-95672758D01*
X179088995Y-95524924D01*
X179088996Y-95524922D01*
X179195341Y-95395341D01*
X179324922Y-95288996D01*
X179340094Y-95280886D01*
X179472758Y-95209976D01*
X179633177Y-95161313D01*
X179758196Y-95149000D01*
X179841804Y-95149000D01*
X179966823Y-95161313D01*
X179966823Y-95161313D01*
G37*
G36*
X177426823Y-95161313D02*
G01*
X177587242Y-95209976D01*
X177719906Y-95280886D01*
X177735078Y-95288996D01*
X177864659Y-95395341D01*
X177971004Y-95524922D01*
X177971005Y-95524924D01*
X178050024Y-95672758D01*
X178098687Y-95833177D01*
X178115117Y-96000000D01*
X178098687Y-96166823D01*
X178050024Y-96327242D01*
X177979114Y-96459906D01*
X177971004Y-96475078D01*
X177864659Y-96604659D01*
X177735078Y-96711004D01*
X177735076Y-96711005D01*
X177587242Y-96790024D01*
X177426823Y-96838687D01*
X177301804Y-96851000D01*
X177218196Y-96851000D01*
X177093177Y-96838687D01*
X176932758Y-96790024D01*
X176784924Y-96711005D01*
X176784922Y-96711004D01*
X176655341Y-96604659D01*
X176548996Y-96475078D01*
X176540886Y-96459906D01*
X176469976Y-96327242D01*
X176421313Y-96166823D01*
X176404883Y-96000000D01*
X176421313Y-95833177D01*
X176469976Y-95672758D01*
X176548995Y-95524924D01*
X176548996Y-95524922D01*
X176655341Y-95395341D01*
X176784922Y-95288996D01*
X176800094Y-95280886D01*
X176932758Y-95209976D01*
X177093177Y-95161313D01*
X177218196Y-95149000D01*
X177301804Y-95149000D01*
X177426823Y-95161313D01*
X177426823Y-95161313D01*
G37*
G36*
X157106823Y-95161313D02*
G01*
X157267242Y-95209976D01*
X157399906Y-95280886D01*
X157415078Y-95288996D01*
X157544659Y-95395341D01*
X157651004Y-95524922D01*
X157651005Y-95524924D01*
X157730024Y-95672758D01*
X157778687Y-95833177D01*
X157795117Y-96000000D01*
X157778687Y-96166823D01*
X157730024Y-96327242D01*
X157659114Y-96459906D01*
X157651004Y-96475078D01*
X157544659Y-96604659D01*
X157415078Y-96711004D01*
X157415076Y-96711005D01*
X157267242Y-96790024D01*
X157106823Y-96838687D01*
X156981804Y-96851000D01*
X156898196Y-96851000D01*
X156773177Y-96838687D01*
X156612758Y-96790024D01*
X156464924Y-96711005D01*
X156464922Y-96711004D01*
X156335341Y-96604659D01*
X156228996Y-96475078D01*
X156220886Y-96459906D01*
X156149976Y-96327242D01*
X156101313Y-96166823D01*
X156084883Y-96000000D01*
X156101313Y-95833177D01*
X156149976Y-95672758D01*
X156228995Y-95524924D01*
X156228996Y-95524922D01*
X156335341Y-95395341D01*
X156464922Y-95288996D01*
X156480094Y-95280886D01*
X156612758Y-95209976D01*
X156773177Y-95161313D01*
X156898196Y-95149000D01*
X156981804Y-95149000D01*
X157106823Y-95161313D01*
X157106823Y-95161313D01*
G37*
G36*
X159646823Y-95161313D02*
G01*
X159807242Y-95209976D01*
X159939906Y-95280886D01*
X159955078Y-95288996D01*
X160084659Y-95395341D01*
X160191004Y-95524922D01*
X160191005Y-95524924D01*
X160270024Y-95672758D01*
X160318687Y-95833177D01*
X160335117Y-96000000D01*
X160318687Y-96166823D01*
X160270024Y-96327242D01*
X160199114Y-96459906D01*
X160191004Y-96475078D01*
X160084659Y-96604659D01*
X159955078Y-96711004D01*
X159955076Y-96711005D01*
X159807242Y-96790024D01*
X159646823Y-96838687D01*
X159521804Y-96851000D01*
X159438196Y-96851000D01*
X159313177Y-96838687D01*
X159152758Y-96790024D01*
X159004924Y-96711005D01*
X159004922Y-96711004D01*
X158875341Y-96604659D01*
X158768996Y-96475078D01*
X158760886Y-96459906D01*
X158689976Y-96327242D01*
X158641313Y-96166823D01*
X158624883Y-96000000D01*
X158641313Y-95833177D01*
X158689976Y-95672758D01*
X158768995Y-95524924D01*
X158768996Y-95524922D01*
X158875341Y-95395341D01*
X159004922Y-95288996D01*
X159020094Y-95280886D01*
X159152758Y-95209976D01*
X159313177Y-95161313D01*
X159438196Y-95149000D01*
X159521804Y-95149000D01*
X159646823Y-95161313D01*
X159646823Y-95161313D01*
G37*
G36*
X174886823Y-95161313D02*
G01*
X175047242Y-95209976D01*
X175179906Y-95280886D01*
X175195078Y-95288996D01*
X175324659Y-95395341D01*
X175431004Y-95524922D01*
X175431005Y-95524924D01*
X175510024Y-95672758D01*
X175558687Y-95833177D01*
X175575117Y-96000000D01*
X175558687Y-96166823D01*
X175510024Y-96327242D01*
X175439114Y-96459906D01*
X175431004Y-96475078D01*
X175324659Y-96604659D01*
X175195078Y-96711004D01*
X175195076Y-96711005D01*
X175047242Y-96790024D01*
X174886823Y-96838687D01*
X174761804Y-96851000D01*
X174678196Y-96851000D01*
X174553177Y-96838687D01*
X174392758Y-96790024D01*
X174244924Y-96711005D01*
X174244922Y-96711004D01*
X174115341Y-96604659D01*
X174008996Y-96475078D01*
X174000886Y-96459906D01*
X173929976Y-96327242D01*
X173881313Y-96166823D01*
X173864883Y-96000000D01*
X173881313Y-95833177D01*
X173929976Y-95672758D01*
X174008995Y-95524924D01*
X174008996Y-95524922D01*
X174115341Y-95395341D01*
X174244922Y-95288996D01*
X174260094Y-95280886D01*
X174392758Y-95209976D01*
X174553177Y-95161313D01*
X174678196Y-95149000D01*
X174761804Y-95149000D01*
X174886823Y-95161313D01*
X174886823Y-95161313D01*
G37*
G36*
X214201000Y-93838500D02*
G01*
X212799000Y-93838500D01*
X212799000Y-91361500D01*
X214201000Y-91361500D01*
X214201000Y-93838500D01*
X214201000Y-93838500D01*
G37*
G36*
X209201000Y-93838500D02*
G01*
X207799000Y-93838500D01*
X207799000Y-91361500D01*
X209201000Y-91361500D01*
X209201000Y-93838500D01*
X209201000Y-93838500D01*
G37*
G36*
X211701000Y-93838500D02*
G01*
X210299000Y-93838500D01*
X210299000Y-91361500D01*
X211701000Y-91361500D01*
X211701000Y-93838500D01*
X211701000Y-93838500D01*
G37*
G36*
X209890721Y-88720174D02*
G01*
X209990995Y-88761709D01*
X209990996Y-88761710D01*
X210081242Y-88822010D01*
X210157990Y-88898758D01*
X210157991Y-88898760D01*
X210218291Y-88989005D01*
X210259826Y-89089279D01*
X210281000Y-89195730D01*
X210281000Y-89304270D01*
X210259826Y-89410721D01*
X210218291Y-89510995D01*
X210218290Y-89510996D01*
X210157990Y-89601242D01*
X210081242Y-89677990D01*
X210035812Y-89708345D01*
X209990995Y-89738291D01*
X209890721Y-89779826D01*
X209784270Y-89801000D01*
X209675730Y-89801000D01*
X209569279Y-89779826D01*
X209469005Y-89738291D01*
X209424188Y-89708345D01*
X209378758Y-89677990D01*
X209302010Y-89601242D01*
X209241710Y-89510996D01*
X209241709Y-89510995D01*
X209200174Y-89410721D01*
X209179000Y-89304270D01*
X209179000Y-89195730D01*
X209200174Y-89089279D01*
X209241709Y-88989005D01*
X209302009Y-88898760D01*
X209302010Y-88898758D01*
X209378758Y-88822010D01*
X209469004Y-88761710D01*
X209469005Y-88761709D01*
X209569279Y-88720174D01*
X209675730Y-88699000D01*
X209784270Y-88699000D01*
X209890721Y-88720174D01*
X209890721Y-88720174D01*
G37*
G36*
X211701000Y-88138500D02*
G01*
X210299000Y-88138500D01*
X210299000Y-85661500D01*
X211701000Y-85661500D01*
X211701000Y-88138500D01*
X211701000Y-88138500D01*
G37*
G36*
X214201000Y-88138500D02*
G01*
X212799000Y-88138500D01*
X212799000Y-85661500D01*
X214201000Y-85661500D01*
X214201000Y-88138500D01*
X214201000Y-88138500D01*
G37*
G36*
X209201000Y-88138500D02*
G01*
X207799000Y-88138500D01*
X207799000Y-85661500D01*
X209201000Y-85661500D01*
X209201000Y-88138500D01*
X209201000Y-88138500D01*
G37*
G36*
X204601000Y-83601000D02*
G01*
X202899000Y-83601000D01*
X202899000Y-81899000D01*
X204601000Y-81899000D01*
X204601000Y-83601000D01*
X204601000Y-83601000D01*
G37*
G36*
X201498228Y-81931703D02*
G01*
X201653100Y-81995853D01*
X201792481Y-82088985D01*
X201911015Y-82207519D01*
X202004147Y-82346900D01*
X202068297Y-82501772D01*
X202101000Y-82666184D01*
X202101000Y-82833816D01*
X202068297Y-82998228D01*
X202004147Y-83153100D01*
X201911015Y-83292481D01*
X201792481Y-83411015D01*
X201653100Y-83504147D01*
X201498228Y-83568297D01*
X201333816Y-83601000D01*
X201166184Y-83601000D01*
X201001772Y-83568297D01*
X200846900Y-83504147D01*
X200707519Y-83411015D01*
X200588985Y-83292481D01*
X200495853Y-83153100D01*
X200431703Y-82998228D01*
X200399000Y-82833816D01*
X200399000Y-82666184D01*
X200431703Y-82501772D01*
X200495853Y-82346900D01*
X200588985Y-82207519D01*
X200707519Y-82088985D01*
X200846900Y-81995853D01*
X201001772Y-81931703D01*
X201166184Y-81899000D01*
X201333816Y-81899000D01*
X201498228Y-81931703D01*
X201498228Y-81931703D01*
G37*
G36*
X174886823Y-79921313D02*
G01*
X175047242Y-79969976D01*
X175179906Y-80040886D01*
X175195078Y-80048996D01*
X175324659Y-80155341D01*
X175431004Y-80284922D01*
X175431005Y-80284924D01*
X175510024Y-80432758D01*
X175558687Y-80593177D01*
X175575117Y-80760000D01*
X175558687Y-80926823D01*
X175510024Y-81087242D01*
X175439114Y-81219906D01*
X175431004Y-81235078D01*
X175324659Y-81364659D01*
X175195078Y-81471004D01*
X175195076Y-81471005D01*
X175047242Y-81550024D01*
X174886823Y-81598687D01*
X174761804Y-81611000D01*
X174678196Y-81611000D01*
X174553177Y-81598687D01*
X174392758Y-81550024D01*
X174244924Y-81471005D01*
X174244922Y-81471004D01*
X174115341Y-81364659D01*
X174008996Y-81235078D01*
X174000886Y-81219906D01*
X173929976Y-81087242D01*
X173881313Y-80926823D01*
X173864883Y-80760000D01*
X173881313Y-80593177D01*
X173929976Y-80432758D01*
X174008995Y-80284924D01*
X174008996Y-80284922D01*
X174115341Y-80155341D01*
X174244922Y-80048996D01*
X174260094Y-80040886D01*
X174392758Y-79969976D01*
X174553177Y-79921313D01*
X174678196Y-79909000D01*
X174761804Y-79909000D01*
X174886823Y-79921313D01*
X174886823Y-79921313D01*
G37*
G36*
X157106823Y-79921313D02*
G01*
X157267242Y-79969976D01*
X157399906Y-80040886D01*
X157415078Y-80048996D01*
X157544659Y-80155341D01*
X157651004Y-80284922D01*
X157651005Y-80284924D01*
X157730024Y-80432758D01*
X157778687Y-80593177D01*
X157795117Y-80760000D01*
X157778687Y-80926823D01*
X157730024Y-81087242D01*
X157659114Y-81219906D01*
X157651004Y-81235078D01*
X157544659Y-81364659D01*
X157415078Y-81471004D01*
X157415076Y-81471005D01*
X157267242Y-81550024D01*
X157106823Y-81598687D01*
X156981804Y-81611000D01*
X156898196Y-81611000D01*
X156773177Y-81598687D01*
X156612758Y-81550024D01*
X156464924Y-81471005D01*
X156464922Y-81471004D01*
X156335341Y-81364659D01*
X156228996Y-81235078D01*
X156220886Y-81219906D01*
X156149976Y-81087242D01*
X156101313Y-80926823D01*
X156084883Y-80760000D01*
X156101313Y-80593177D01*
X156149976Y-80432758D01*
X156228995Y-80284924D01*
X156228996Y-80284922D01*
X156335341Y-80155341D01*
X156464922Y-80048996D01*
X156480094Y-80040886D01*
X156612758Y-79969976D01*
X156773177Y-79921313D01*
X156898196Y-79909000D01*
X156981804Y-79909000D01*
X157106823Y-79921313D01*
X157106823Y-79921313D01*
G37*
G36*
X162186823Y-79921313D02*
G01*
X162347242Y-79969976D01*
X162479906Y-80040886D01*
X162495078Y-80048996D01*
X162624659Y-80155341D01*
X162731004Y-80284922D01*
X162731005Y-80284924D01*
X162810024Y-80432758D01*
X162858687Y-80593177D01*
X162875117Y-80760000D01*
X162858687Y-80926823D01*
X162810024Y-81087242D01*
X162739114Y-81219906D01*
X162731004Y-81235078D01*
X162624659Y-81364659D01*
X162495078Y-81471004D01*
X162495076Y-81471005D01*
X162347242Y-81550024D01*
X162186823Y-81598687D01*
X162061804Y-81611000D01*
X161978196Y-81611000D01*
X161853177Y-81598687D01*
X161692758Y-81550024D01*
X161544924Y-81471005D01*
X161544922Y-81471004D01*
X161415341Y-81364659D01*
X161308996Y-81235078D01*
X161300886Y-81219906D01*
X161229976Y-81087242D01*
X161181313Y-80926823D01*
X161164883Y-80760000D01*
X161181313Y-80593177D01*
X161229976Y-80432758D01*
X161308995Y-80284924D01*
X161308996Y-80284922D01*
X161415341Y-80155341D01*
X161544922Y-80048996D01*
X161560094Y-80040886D01*
X161692758Y-79969976D01*
X161853177Y-79921313D01*
X161978196Y-79909000D01*
X162061804Y-79909000D01*
X162186823Y-79921313D01*
X162186823Y-79921313D01*
G37*
G36*
X164726823Y-79921313D02*
G01*
X164887242Y-79969976D01*
X165019906Y-80040886D01*
X165035078Y-80048996D01*
X165164659Y-80155341D01*
X165271004Y-80284922D01*
X165271005Y-80284924D01*
X165350024Y-80432758D01*
X165398687Y-80593177D01*
X165415117Y-80760000D01*
X165398687Y-80926823D01*
X165350024Y-81087242D01*
X165279114Y-81219906D01*
X165271004Y-81235078D01*
X165164659Y-81364659D01*
X165035078Y-81471004D01*
X165035076Y-81471005D01*
X164887242Y-81550024D01*
X164726823Y-81598687D01*
X164601804Y-81611000D01*
X164518196Y-81611000D01*
X164393177Y-81598687D01*
X164232758Y-81550024D01*
X164084924Y-81471005D01*
X164084922Y-81471004D01*
X163955341Y-81364659D01*
X163848996Y-81235078D01*
X163840886Y-81219906D01*
X163769976Y-81087242D01*
X163721313Y-80926823D01*
X163704883Y-80760000D01*
X163721313Y-80593177D01*
X163769976Y-80432758D01*
X163848995Y-80284924D01*
X163848996Y-80284922D01*
X163955341Y-80155341D01*
X164084922Y-80048996D01*
X164100094Y-80040886D01*
X164232758Y-79969976D01*
X164393177Y-79921313D01*
X164518196Y-79909000D01*
X164601804Y-79909000D01*
X164726823Y-79921313D01*
X164726823Y-79921313D01*
G37*
G36*
X167266823Y-79921313D02*
G01*
X167427242Y-79969976D01*
X167559906Y-80040886D01*
X167575078Y-80048996D01*
X167704659Y-80155341D01*
X167811004Y-80284922D01*
X167811005Y-80284924D01*
X167890024Y-80432758D01*
X167938687Y-80593177D01*
X167955117Y-80760000D01*
X167938687Y-80926823D01*
X167890024Y-81087242D01*
X167819114Y-81219906D01*
X167811004Y-81235078D01*
X167704659Y-81364659D01*
X167575078Y-81471004D01*
X167575076Y-81471005D01*
X167427242Y-81550024D01*
X167266823Y-81598687D01*
X167141804Y-81611000D01*
X167058196Y-81611000D01*
X166933177Y-81598687D01*
X166772758Y-81550024D01*
X166624924Y-81471005D01*
X166624922Y-81471004D01*
X166495341Y-81364659D01*
X166388996Y-81235078D01*
X166380886Y-81219906D01*
X166309976Y-81087242D01*
X166261313Y-80926823D01*
X166244883Y-80760000D01*
X166261313Y-80593177D01*
X166309976Y-80432758D01*
X166388995Y-80284924D01*
X166388996Y-80284922D01*
X166495341Y-80155341D01*
X166624922Y-80048996D01*
X166640094Y-80040886D01*
X166772758Y-79969976D01*
X166933177Y-79921313D01*
X167058196Y-79909000D01*
X167141804Y-79909000D01*
X167266823Y-79921313D01*
X167266823Y-79921313D01*
G37*
G36*
X177426823Y-79921313D02*
G01*
X177587242Y-79969976D01*
X177719906Y-80040886D01*
X177735078Y-80048996D01*
X177864659Y-80155341D01*
X177971004Y-80284922D01*
X177971005Y-80284924D01*
X178050024Y-80432758D01*
X178098687Y-80593177D01*
X178115117Y-80760000D01*
X178098687Y-80926823D01*
X178050024Y-81087242D01*
X177979114Y-81219906D01*
X177971004Y-81235078D01*
X177864659Y-81364659D01*
X177735078Y-81471004D01*
X177735076Y-81471005D01*
X177587242Y-81550024D01*
X177426823Y-81598687D01*
X177301804Y-81611000D01*
X177218196Y-81611000D01*
X177093177Y-81598687D01*
X176932758Y-81550024D01*
X176784924Y-81471005D01*
X176784922Y-81471004D01*
X176655341Y-81364659D01*
X176548996Y-81235078D01*
X176540886Y-81219906D01*
X176469976Y-81087242D01*
X176421313Y-80926823D01*
X176404883Y-80760000D01*
X176421313Y-80593177D01*
X176469976Y-80432758D01*
X176548995Y-80284924D01*
X176548996Y-80284922D01*
X176655341Y-80155341D01*
X176784922Y-80048996D01*
X176800094Y-80040886D01*
X176932758Y-79969976D01*
X177093177Y-79921313D01*
X177218196Y-79909000D01*
X177301804Y-79909000D01*
X177426823Y-79921313D01*
X177426823Y-79921313D01*
G37*
G36*
X172346823Y-79921313D02*
G01*
X172507242Y-79969976D01*
X172639906Y-80040886D01*
X172655078Y-80048996D01*
X172784659Y-80155341D01*
X172891004Y-80284922D01*
X172891005Y-80284924D01*
X172970024Y-80432758D01*
X173018687Y-80593177D01*
X173035117Y-80760000D01*
X173018687Y-80926823D01*
X172970024Y-81087242D01*
X172899114Y-81219906D01*
X172891004Y-81235078D01*
X172784659Y-81364659D01*
X172655078Y-81471004D01*
X172655076Y-81471005D01*
X172507242Y-81550024D01*
X172346823Y-81598687D01*
X172221804Y-81611000D01*
X172138196Y-81611000D01*
X172013177Y-81598687D01*
X171852758Y-81550024D01*
X171704924Y-81471005D01*
X171704922Y-81471004D01*
X171575341Y-81364659D01*
X171468996Y-81235078D01*
X171460886Y-81219906D01*
X171389976Y-81087242D01*
X171341313Y-80926823D01*
X171324883Y-80760000D01*
X171341313Y-80593177D01*
X171389976Y-80432758D01*
X171468995Y-80284924D01*
X171468996Y-80284922D01*
X171575341Y-80155341D01*
X171704922Y-80048996D01*
X171720094Y-80040886D01*
X171852758Y-79969976D01*
X172013177Y-79921313D01*
X172138196Y-79909000D01*
X172221804Y-79909000D01*
X172346823Y-79921313D01*
X172346823Y-79921313D01*
G37*
G36*
X159646823Y-79921313D02*
G01*
X159807242Y-79969976D01*
X159939906Y-80040886D01*
X159955078Y-80048996D01*
X160084659Y-80155341D01*
X160191004Y-80284922D01*
X160191005Y-80284924D01*
X160270024Y-80432758D01*
X160318687Y-80593177D01*
X160335117Y-80760000D01*
X160318687Y-80926823D01*
X160270024Y-81087242D01*
X160199114Y-81219906D01*
X160191004Y-81235078D01*
X160084659Y-81364659D01*
X159955078Y-81471004D01*
X159955076Y-81471005D01*
X159807242Y-81550024D01*
X159646823Y-81598687D01*
X159521804Y-81611000D01*
X159438196Y-81611000D01*
X159313177Y-81598687D01*
X159152758Y-81550024D01*
X159004924Y-81471005D01*
X159004922Y-81471004D01*
X158875341Y-81364659D01*
X158768996Y-81235078D01*
X158760886Y-81219906D01*
X158689976Y-81087242D01*
X158641313Y-80926823D01*
X158624883Y-80760000D01*
X158641313Y-80593177D01*
X158689976Y-80432758D01*
X158768995Y-80284924D01*
X158768996Y-80284922D01*
X158875341Y-80155341D01*
X159004922Y-80048996D01*
X159020094Y-80040886D01*
X159152758Y-79969976D01*
X159313177Y-79921313D01*
X159438196Y-79909000D01*
X159521804Y-79909000D01*
X159646823Y-79921313D01*
X159646823Y-79921313D01*
G37*
G36*
X185046823Y-79921313D02*
G01*
X185207242Y-79969976D01*
X185339906Y-80040886D01*
X185355078Y-80048996D01*
X185484659Y-80155341D01*
X185591004Y-80284922D01*
X185591005Y-80284924D01*
X185670024Y-80432758D01*
X185718687Y-80593177D01*
X185735117Y-80760000D01*
X185718687Y-80926823D01*
X185670024Y-81087242D01*
X185599114Y-81219906D01*
X185591004Y-81235078D01*
X185484659Y-81364659D01*
X185355078Y-81471004D01*
X185355076Y-81471005D01*
X185207242Y-81550024D01*
X185046823Y-81598687D01*
X184921804Y-81611000D01*
X184838196Y-81611000D01*
X184713177Y-81598687D01*
X184552758Y-81550024D01*
X184404924Y-81471005D01*
X184404922Y-81471004D01*
X184275341Y-81364659D01*
X184168996Y-81235078D01*
X184160886Y-81219906D01*
X184089976Y-81087242D01*
X184041313Y-80926823D01*
X184024883Y-80760000D01*
X184041313Y-80593177D01*
X184089976Y-80432758D01*
X184168995Y-80284924D01*
X184168996Y-80284922D01*
X184275341Y-80155341D01*
X184404922Y-80048996D01*
X184420094Y-80040886D01*
X184552758Y-79969976D01*
X184713177Y-79921313D01*
X184838196Y-79909000D01*
X184921804Y-79909000D01*
X185046823Y-79921313D01*
X185046823Y-79921313D01*
G37*
G36*
X182506823Y-79921313D02*
G01*
X182667242Y-79969976D01*
X182799906Y-80040886D01*
X182815078Y-80048996D01*
X182944659Y-80155341D01*
X183051004Y-80284922D01*
X183051005Y-80284924D01*
X183130024Y-80432758D01*
X183178687Y-80593177D01*
X183195117Y-80760000D01*
X183178687Y-80926823D01*
X183130024Y-81087242D01*
X183059114Y-81219906D01*
X183051004Y-81235078D01*
X182944659Y-81364659D01*
X182815078Y-81471004D01*
X182815076Y-81471005D01*
X182667242Y-81550024D01*
X182506823Y-81598687D01*
X182381804Y-81611000D01*
X182298196Y-81611000D01*
X182173177Y-81598687D01*
X182012758Y-81550024D01*
X181864924Y-81471005D01*
X181864922Y-81471004D01*
X181735341Y-81364659D01*
X181628996Y-81235078D01*
X181620886Y-81219906D01*
X181549976Y-81087242D01*
X181501313Y-80926823D01*
X181484883Y-80760000D01*
X181501313Y-80593177D01*
X181549976Y-80432758D01*
X181628995Y-80284924D01*
X181628996Y-80284922D01*
X181735341Y-80155341D01*
X181864922Y-80048996D01*
X181880094Y-80040886D01*
X182012758Y-79969976D01*
X182173177Y-79921313D01*
X182298196Y-79909000D01*
X182381804Y-79909000D01*
X182506823Y-79921313D01*
X182506823Y-79921313D01*
G37*
G36*
X179966823Y-79921313D02*
G01*
X180127242Y-79969976D01*
X180259906Y-80040886D01*
X180275078Y-80048996D01*
X180404659Y-80155341D01*
X180511004Y-80284922D01*
X180511005Y-80284924D01*
X180590024Y-80432758D01*
X180638687Y-80593177D01*
X180655117Y-80760000D01*
X180638687Y-80926823D01*
X180590024Y-81087242D01*
X180519114Y-81219906D01*
X180511004Y-81235078D01*
X180404659Y-81364659D01*
X180275078Y-81471004D01*
X180275076Y-81471005D01*
X180127242Y-81550024D01*
X179966823Y-81598687D01*
X179841804Y-81611000D01*
X179758196Y-81611000D01*
X179633177Y-81598687D01*
X179472758Y-81550024D01*
X179324924Y-81471005D01*
X179324922Y-81471004D01*
X179195341Y-81364659D01*
X179088996Y-81235078D01*
X179080886Y-81219906D01*
X179009976Y-81087242D01*
X178961313Y-80926823D01*
X178944883Y-80760000D01*
X178961313Y-80593177D01*
X179009976Y-80432758D01*
X179088995Y-80284924D01*
X179088996Y-80284922D01*
X179195341Y-80155341D01*
X179324922Y-80048996D01*
X179340094Y-80040886D01*
X179472758Y-79969976D01*
X179633177Y-79921313D01*
X179758196Y-79909000D01*
X179841804Y-79909000D01*
X179966823Y-79921313D01*
X179966823Y-79921313D01*
G37*
G36*
X187586823Y-79921313D02*
G01*
X187747242Y-79969976D01*
X187879906Y-80040886D01*
X187895078Y-80048996D01*
X188024659Y-80155341D01*
X188131004Y-80284922D01*
X188131005Y-80284924D01*
X188210024Y-80432758D01*
X188258687Y-80593177D01*
X188275117Y-80760000D01*
X188258687Y-80926823D01*
X188210024Y-81087242D01*
X188139114Y-81219906D01*
X188131004Y-81235078D01*
X188024659Y-81364659D01*
X187895078Y-81471004D01*
X187895076Y-81471005D01*
X187747242Y-81550024D01*
X187586823Y-81598687D01*
X187461804Y-81611000D01*
X187378196Y-81611000D01*
X187253177Y-81598687D01*
X187092758Y-81550024D01*
X186944924Y-81471005D01*
X186944922Y-81471004D01*
X186815341Y-81364659D01*
X186708996Y-81235078D01*
X186700886Y-81219906D01*
X186629976Y-81087242D01*
X186581313Y-80926823D01*
X186564883Y-80760000D01*
X186581313Y-80593177D01*
X186629976Y-80432758D01*
X186708995Y-80284924D01*
X186708996Y-80284922D01*
X186815341Y-80155341D01*
X186944922Y-80048996D01*
X186960094Y-80040886D01*
X187092758Y-79969976D01*
X187253177Y-79921313D01*
X187378196Y-79909000D01*
X187461804Y-79909000D01*
X187586823Y-79921313D01*
X187586823Y-79921313D01*
G37*
G36*
X169806823Y-79921313D02*
G01*
X169967242Y-79969976D01*
X170099906Y-80040886D01*
X170115078Y-80048996D01*
X170244659Y-80155341D01*
X170351004Y-80284922D01*
X170351005Y-80284924D01*
X170430024Y-80432758D01*
X170478687Y-80593177D01*
X170495117Y-80760000D01*
X170478687Y-80926823D01*
X170430024Y-81087242D01*
X170359114Y-81219906D01*
X170351004Y-81235078D01*
X170244659Y-81364659D01*
X170115078Y-81471004D01*
X170115076Y-81471005D01*
X169967242Y-81550024D01*
X169806823Y-81598687D01*
X169681804Y-81611000D01*
X169598196Y-81611000D01*
X169473177Y-81598687D01*
X169312758Y-81550024D01*
X169164924Y-81471005D01*
X169164922Y-81471004D01*
X169035341Y-81364659D01*
X168928996Y-81235078D01*
X168920886Y-81219906D01*
X168849976Y-81087242D01*
X168801313Y-80926823D01*
X168784883Y-80760000D01*
X168801313Y-80593177D01*
X168849976Y-80432758D01*
X168928995Y-80284924D01*
X168928996Y-80284922D01*
X169035341Y-80155341D01*
X169164922Y-80048996D01*
X169180094Y-80040886D01*
X169312758Y-79969976D01*
X169473177Y-79921313D01*
X169598196Y-79909000D01*
X169681804Y-79909000D01*
X169806823Y-79921313D01*
X169806823Y-79921313D01*
G37*
G36*
X190126823Y-79921313D02*
G01*
X190287242Y-79969976D01*
X190419906Y-80040886D01*
X190435078Y-80048996D01*
X190564659Y-80155341D01*
X190671004Y-80284922D01*
X190671005Y-80284924D01*
X190750024Y-80432758D01*
X190798687Y-80593177D01*
X190815117Y-80760000D01*
X190798687Y-80926823D01*
X190750024Y-81087242D01*
X190679114Y-81219906D01*
X190671004Y-81235078D01*
X190564659Y-81364659D01*
X190435078Y-81471004D01*
X190435076Y-81471005D01*
X190287242Y-81550024D01*
X190126823Y-81598687D01*
X190001804Y-81611000D01*
X189918196Y-81611000D01*
X189793177Y-81598687D01*
X189632758Y-81550024D01*
X189484924Y-81471005D01*
X189484922Y-81471004D01*
X189355341Y-81364659D01*
X189248996Y-81235078D01*
X189240886Y-81219906D01*
X189169976Y-81087242D01*
X189121313Y-80926823D01*
X189104883Y-80760000D01*
X189121313Y-80593177D01*
X189169976Y-80432758D01*
X189248995Y-80284924D01*
X189248996Y-80284922D01*
X189355341Y-80155341D01*
X189484922Y-80048996D01*
X189500094Y-80040886D01*
X189632758Y-79969976D01*
X189793177Y-79921313D01*
X189918196Y-79909000D01*
X190001804Y-79909000D01*
X190126823Y-79921313D01*
X190126823Y-79921313D01*
G37*
G36*
X192666823Y-79921313D02*
G01*
X192827242Y-79969976D01*
X192959906Y-80040886D01*
X192975078Y-80048996D01*
X193104659Y-80155341D01*
X193211004Y-80284922D01*
X193211005Y-80284924D01*
X193290024Y-80432758D01*
X193338687Y-80593177D01*
X193355117Y-80760000D01*
X193338687Y-80926823D01*
X193290024Y-81087242D01*
X193219114Y-81219906D01*
X193211004Y-81235078D01*
X193104659Y-81364659D01*
X192975078Y-81471004D01*
X192975076Y-81471005D01*
X192827242Y-81550024D01*
X192666823Y-81598687D01*
X192541804Y-81611000D01*
X192458196Y-81611000D01*
X192333177Y-81598687D01*
X192172758Y-81550024D01*
X192024924Y-81471005D01*
X192024922Y-81471004D01*
X191895341Y-81364659D01*
X191788996Y-81235078D01*
X191780886Y-81219906D01*
X191709976Y-81087242D01*
X191661313Y-80926823D01*
X191644883Y-80760000D01*
X191661313Y-80593177D01*
X191709976Y-80432758D01*
X191788995Y-80284924D01*
X191788996Y-80284922D01*
X191895341Y-80155341D01*
X192024922Y-80048996D01*
X192040094Y-80040886D01*
X192172758Y-79969976D01*
X192333177Y-79921313D01*
X192458196Y-79909000D01*
X192541804Y-79909000D01*
X192666823Y-79921313D01*
X192666823Y-79921313D01*
G37*
M02*
