G04 #@! TF.GenerationSoftware,KiCad,Pcbnew,(5.1.0)-1*
G04 #@! TF.CreationDate,2019-07-24T14:01:50+02:00*
G04 #@! TF.ProjectId,AirSensorModule,41697253-656e-4736-9f72-4d6f64756c65,rev?*
G04 #@! TF.SameCoordinates,Original*
G04 #@! TF.FileFunction,Copper,L2,Bot*
G04 #@! TF.FilePolarity,Positive*
%FSLAX46Y46*%
G04 Gerber Fmt 4.6, Leading zero omitted, Abs format (unit mm)*
G04 Created by KiCad (PCBNEW (5.1.0)-1) date 2019-07-24 14:01:50*
%MOMM*%
%LPD*%
G04 APERTURE LIST*
%ADD10C,0.150000*%
%ADD11C,1.000000*%
%ADD12R,1.300000X2.375000*%
%ADD13R,1.600000X1.600000*%
%ADD14O,1.600000X1.600000*%
%ADD15C,1.600000*%
%ADD16C,1.524000*%
%ADD17R,2.030000X1.730000*%
%ADD18O,2.030000X1.730000*%
%ADD19C,1.400000*%
%ADD20O,1.400000X1.400000*%
%ADD21R,1.600000X2.400000*%
%ADD22O,1.600000X2.400000*%
%ADD23C,6.000000*%
%ADD24C,0.800000*%
%ADD25C,0.250000*%
%ADD26C,0.254000*%
G04 APERTURE END LIST*
D10*
X221880952Y-75202380D02*
X221880952Y-74202380D01*
X221642857Y-74202380D01*
X221500000Y-74250000D01*
X221404761Y-74345238D01*
X221357142Y-74440476D01*
X221309523Y-74630952D01*
X221309523Y-74773809D01*
X221357142Y-74964285D01*
X221404761Y-75059523D01*
X221500000Y-75154761D01*
X221642857Y-75202380D01*
X221880952Y-75202380D01*
X220690476Y-74202380D02*
X220500000Y-74202380D01*
X220404761Y-74250000D01*
X220309523Y-74345238D01*
X220261904Y-74535714D01*
X220261904Y-74869047D01*
X220309523Y-75059523D01*
X220404761Y-75154761D01*
X220500000Y-75202380D01*
X220690476Y-75202380D01*
X220785714Y-75154761D01*
X220880952Y-75059523D01*
X220928571Y-74869047D01*
X220928571Y-74535714D01*
X220880952Y-74345238D01*
X220785714Y-74250000D01*
X220690476Y-74202380D01*
X219928571Y-74202380D02*
X219690476Y-75202380D01*
X219500000Y-74488095D01*
X219309523Y-75202380D01*
X219071428Y-74202380D01*
X218690476Y-75202380D02*
X218690476Y-74202380D01*
X218119047Y-75202380D01*
X218119047Y-74202380D01*
D11*
X209730000Y-89250000D03*
D12*
X208500000Y-92600000D03*
X211000000Y-92600000D03*
X213500000Y-92600000D03*
X213500000Y-86900000D03*
X211000000Y-86900000D03*
X208500000Y-86900000D03*
D13*
X192500000Y-96000000D03*
D14*
X159480000Y-80760000D03*
X189960000Y-96000000D03*
X162020000Y-80760000D03*
X187420000Y-96000000D03*
X164560000Y-80760000D03*
X184880000Y-96000000D03*
X167100000Y-80760000D03*
X182340000Y-96000000D03*
X169640000Y-80760000D03*
X179800000Y-96000000D03*
X172180000Y-80760000D03*
X177260000Y-96000000D03*
X174720000Y-80760000D03*
X174720000Y-96000000D03*
X177260000Y-80760000D03*
X172180000Y-96000000D03*
X179800000Y-80760000D03*
X169640000Y-96000000D03*
X182340000Y-80760000D03*
X167100000Y-96000000D03*
X184880000Y-80760000D03*
X164560000Y-96000000D03*
X187420000Y-80760000D03*
X162020000Y-96000000D03*
X189960000Y-80760000D03*
X159480000Y-96000000D03*
X192500000Y-80760000D03*
X156940000Y-96000000D03*
X156940000Y-80760000D03*
D13*
X203750000Y-82750000D03*
D15*
X201250000Y-82750000D03*
D16*
X178540000Y-116600000D03*
X181080000Y-116600000D03*
X183620000Y-116600000D03*
X186160000Y-116600000D03*
X188700000Y-116600000D03*
X191240000Y-116600000D03*
X193780000Y-116600000D03*
X193780000Y-106440000D03*
X191240000Y-106440000D03*
X188700000Y-106440000D03*
X186160000Y-106440000D03*
X183620000Y-106440000D03*
X181080000Y-106440000D03*
X178540000Y-106440000D03*
X176000000Y-106440000D03*
D17*
X224250000Y-114000000D03*
D18*
X224250000Y-111460000D03*
X224250000Y-108920000D03*
X224250000Y-106380000D03*
D17*
X127250000Y-114500000D03*
D18*
X127250000Y-111960000D03*
X127250000Y-109420000D03*
D19*
X151000000Y-119000000D03*
D20*
X145920000Y-119000000D03*
D21*
X162500000Y-107500000D03*
D22*
X134560000Y-115120000D03*
X159960000Y-107500000D03*
X137100000Y-115120000D03*
X157420000Y-107500000D03*
X139640000Y-115120000D03*
X154880000Y-107500000D03*
X142180000Y-115120000D03*
X152340000Y-107500000D03*
X144720000Y-115120000D03*
X149800000Y-107500000D03*
X147260000Y-115120000D03*
X147260000Y-107500000D03*
X149800000Y-115120000D03*
X144720000Y-107500000D03*
X152340000Y-115120000D03*
X142180000Y-107500000D03*
X154880000Y-115120000D03*
X139640000Y-107500000D03*
X157420000Y-115120000D03*
X137100000Y-107500000D03*
X159960000Y-115120000D03*
X134560000Y-107500000D03*
X162500000Y-115120000D03*
D19*
X212000000Y-122000000D03*
D20*
X212000000Y-116920000D03*
X218000000Y-116920000D03*
D19*
X218000000Y-122000000D03*
X215000000Y-122000000D03*
D20*
X215000000Y-116920000D03*
D23*
X212400000Y-78800000D03*
X133600000Y-78800000D03*
X133600000Y-101200000D03*
X212400000Y-101200000D03*
D24*
X199250000Y-89500000D03*
X204750000Y-87500000D03*
X206500000Y-82250000D03*
D25*
X224250000Y-105265000D02*
X224250000Y-106380000D01*
X224250000Y-100927498D02*
X224250000Y-105265000D01*
X211747501Y-88424999D02*
X224250000Y-100927498D01*
X207602497Y-88424999D02*
X211747501Y-88424999D01*
X205952497Y-86774999D02*
X207602497Y-88424999D01*
X204401999Y-86774999D02*
X205952497Y-86774999D01*
X201676998Y-89500000D02*
X204401999Y-86774999D01*
X199250000Y-89500000D02*
X201676998Y-89500000D01*
X207325001Y-90075001D02*
X204750000Y-87500000D01*
X210897503Y-90075001D02*
X207325001Y-90075001D01*
X213500000Y-93250000D02*
X213500000Y-92677498D01*
X213500000Y-92677498D02*
X210897503Y-90075001D01*
X213500000Y-93250000D02*
X215936092Y-93250000D01*
X215936092Y-93250000D02*
X222750000Y-100063908D01*
X224100000Y-108920000D02*
X224250000Y-108920000D01*
X222750000Y-107570000D02*
X224100000Y-108920000D01*
X222750000Y-100063908D02*
X222750000Y-107570000D01*
X151000000Y-119000000D02*
X150000000Y-119000000D01*
X149800000Y-118800000D02*
X149800000Y-115120000D01*
X150000000Y-119000000D02*
X149800000Y-118800000D01*
X208500000Y-84250000D02*
X208500000Y-86250000D01*
X206500000Y-82250000D02*
X208500000Y-84250000D01*
X149800000Y-113670000D02*
X149800000Y-115120000D01*
X148330010Y-112200010D02*
X149800000Y-113670000D01*
X184880000Y-80760000D02*
X181320010Y-77200010D01*
X128750000Y-105750000D02*
X135200010Y-112200010D01*
X181320010Y-77200010D02*
X145436400Y-77200010D01*
X145436400Y-77200010D02*
X128750000Y-93886410D01*
X128750000Y-93886410D02*
X128750000Y-105750000D01*
X135200010Y-112200010D02*
X148330010Y-112200010D01*
X188490000Y-76750000D02*
X192500000Y-80760000D01*
X145250000Y-76750000D02*
X188490000Y-76750000D01*
X127250000Y-109420000D02*
X127250000Y-94750000D01*
X127250000Y-94750000D02*
X145250000Y-76750000D01*
X149800000Y-108950000D02*
X152100000Y-111250000D01*
X149800000Y-107500000D02*
X149800000Y-108950000D01*
X173190000Y-111250000D02*
X178540000Y-116600000D01*
X152100000Y-111250000D02*
X173190000Y-111250000D01*
X137100000Y-107900000D02*
X140950000Y-111750000D01*
X137100000Y-107500000D02*
X137100000Y-107900000D01*
X172081238Y-111750000D02*
X178018239Y-117687001D01*
X140950000Y-111750000D02*
X172081238Y-111750000D01*
X187612999Y-117687001D02*
X188700000Y-116600000D01*
X178018239Y-117687001D02*
X187612999Y-117687001D01*
X193018001Y-115838001D02*
X193780000Y-116600000D01*
X159960000Y-107500000D02*
X159960000Y-107900000D01*
X178262999Y-115512999D02*
X192692999Y-115512999D01*
X159960000Y-107900000D02*
X162859990Y-110799990D01*
X162859990Y-110799990D02*
X173549991Y-110799991D01*
X173549991Y-110799991D02*
X178262999Y-115512999D01*
X192692999Y-115512999D02*
X193018001Y-115838001D01*
X147260000Y-117660000D02*
X147260000Y-115120000D01*
X145920000Y-119000000D02*
X147260000Y-117660000D01*
D26*
G36*
X217170953Y-76277500D02*
G01*
X222340000Y-76277500D01*
X222340001Y-82167571D01*
X222336807Y-82200000D01*
X222349550Y-82329383D01*
X222387290Y-82453793D01*
X222448575Y-82568450D01*
X222531052Y-82668948D01*
X222631550Y-82751425D01*
X222746207Y-82812710D01*
X222870617Y-82850450D01*
X222967581Y-82860000D01*
X223000000Y-82863193D01*
X223032419Y-82860000D01*
X228340000Y-82860000D01*
X228340001Y-117540000D01*
X223032419Y-117540000D01*
X223000000Y-117536807D01*
X222967581Y-117540000D01*
X222870617Y-117549550D01*
X222746207Y-117587290D01*
X222631550Y-117648575D01*
X222531052Y-117731052D01*
X222448575Y-117831550D01*
X222387290Y-117946207D01*
X222349550Y-118070617D01*
X222336807Y-118200000D01*
X222340000Y-118232418D01*
X222340001Y-123540000D01*
X127660000Y-123540000D01*
X127660000Y-121868514D01*
X210665000Y-121868514D01*
X210665000Y-122131486D01*
X210716304Y-122389405D01*
X210816939Y-122632359D01*
X210963038Y-122851013D01*
X211148987Y-123036962D01*
X211367641Y-123183061D01*
X211610595Y-123283696D01*
X211868514Y-123335000D01*
X212131486Y-123335000D01*
X212389405Y-123283696D01*
X212632359Y-123183061D01*
X212851013Y-123036962D01*
X213036962Y-122851013D01*
X213183061Y-122632359D01*
X213283696Y-122389405D01*
X213335000Y-122131486D01*
X213335000Y-121868514D01*
X213665000Y-121868514D01*
X213665000Y-122131486D01*
X213716304Y-122389405D01*
X213816939Y-122632359D01*
X213963038Y-122851013D01*
X214148987Y-123036962D01*
X214367641Y-123183061D01*
X214610595Y-123283696D01*
X214868514Y-123335000D01*
X215131486Y-123335000D01*
X215389405Y-123283696D01*
X215632359Y-123183061D01*
X215851013Y-123036962D01*
X216036962Y-122851013D01*
X216183061Y-122632359D01*
X216283696Y-122389405D01*
X216335000Y-122131486D01*
X216335000Y-121868514D01*
X216665000Y-121868514D01*
X216665000Y-122131486D01*
X216716304Y-122389405D01*
X216816939Y-122632359D01*
X216963038Y-122851013D01*
X217148987Y-123036962D01*
X217367641Y-123183061D01*
X217610595Y-123283696D01*
X217868514Y-123335000D01*
X218131486Y-123335000D01*
X218389405Y-123283696D01*
X218632359Y-123183061D01*
X218851013Y-123036962D01*
X219036962Y-122851013D01*
X219183061Y-122632359D01*
X219283696Y-122389405D01*
X219335000Y-122131486D01*
X219335000Y-121868514D01*
X219283696Y-121610595D01*
X219183061Y-121367641D01*
X219036962Y-121148987D01*
X218851013Y-120963038D01*
X218632359Y-120816939D01*
X218389405Y-120716304D01*
X218131486Y-120665000D01*
X217868514Y-120665000D01*
X217610595Y-120716304D01*
X217367641Y-120816939D01*
X217148987Y-120963038D01*
X216963038Y-121148987D01*
X216816939Y-121367641D01*
X216716304Y-121610595D01*
X216665000Y-121868514D01*
X216335000Y-121868514D01*
X216283696Y-121610595D01*
X216183061Y-121367641D01*
X216036962Y-121148987D01*
X215851013Y-120963038D01*
X215632359Y-120816939D01*
X215389405Y-120716304D01*
X215131486Y-120665000D01*
X214868514Y-120665000D01*
X214610595Y-120716304D01*
X214367641Y-120816939D01*
X214148987Y-120963038D01*
X213963038Y-121148987D01*
X213816939Y-121367641D01*
X213716304Y-121610595D01*
X213665000Y-121868514D01*
X213335000Y-121868514D01*
X213283696Y-121610595D01*
X213183061Y-121367641D01*
X213036962Y-121148987D01*
X212851013Y-120963038D01*
X212632359Y-120816939D01*
X212389405Y-120716304D01*
X212131486Y-120665000D01*
X211868514Y-120665000D01*
X211610595Y-120716304D01*
X211367641Y-120816939D01*
X211148987Y-120963038D01*
X210963038Y-121148987D01*
X210816939Y-121367641D01*
X210716304Y-121610595D01*
X210665000Y-121868514D01*
X127660000Y-121868514D01*
X127660000Y-118232418D01*
X127663193Y-118200000D01*
X127650450Y-118070617D01*
X127612710Y-117946207D01*
X127551425Y-117831550D01*
X127468948Y-117731052D01*
X127368450Y-117648575D01*
X127253793Y-117587290D01*
X127129383Y-117549550D01*
X127032419Y-117540000D01*
X127000000Y-117536807D01*
X126967581Y-117540000D01*
X121660000Y-117540000D01*
X121660000Y-113635000D01*
X125596928Y-113635000D01*
X125596928Y-115365000D01*
X125609188Y-115489482D01*
X125645498Y-115609180D01*
X125704463Y-115719494D01*
X125783815Y-115816185D01*
X125880506Y-115895537D01*
X125990820Y-115954502D01*
X126110518Y-115990812D01*
X126235000Y-116003072D01*
X128265000Y-116003072D01*
X128389482Y-115990812D01*
X128509180Y-115954502D01*
X128619494Y-115895537D01*
X128716185Y-115816185D01*
X128795537Y-115719494D01*
X128854502Y-115609180D01*
X128890812Y-115489482D01*
X128903072Y-115365000D01*
X128903072Y-113635000D01*
X128890812Y-113510518D01*
X128854502Y-113390820D01*
X128795537Y-113280506D01*
X128716185Y-113183815D01*
X128619494Y-113104463D01*
X128509180Y-113045498D01*
X128448463Y-113027080D01*
X128600793Y-112860857D01*
X128753469Y-112609284D01*
X128854131Y-112332759D01*
X128856346Y-112319246D01*
X128735224Y-112087000D01*
X127377000Y-112087000D01*
X127377000Y-112107000D01*
X127123000Y-112107000D01*
X127123000Y-112087000D01*
X125764776Y-112087000D01*
X125643654Y-112319246D01*
X125645869Y-112332759D01*
X125746531Y-112609284D01*
X125899207Y-112860857D01*
X126051537Y-113027080D01*
X125990820Y-113045498D01*
X125880506Y-113104463D01*
X125783815Y-113183815D01*
X125704463Y-113280506D01*
X125645498Y-113390820D01*
X125609188Y-113510518D01*
X125596928Y-113635000D01*
X121660000Y-113635000D01*
X121660000Y-109420000D01*
X125592743Y-109420000D01*
X125621705Y-109714051D01*
X125707476Y-109996802D01*
X125846762Y-110257387D01*
X126034208Y-110485792D01*
X126262613Y-110673238D01*
X126300703Y-110693598D01*
X126098028Y-110842190D01*
X125899207Y-111059143D01*
X125746531Y-111310716D01*
X125645869Y-111587241D01*
X125643654Y-111600754D01*
X125764776Y-111833000D01*
X127123000Y-111833000D01*
X127123000Y-111813000D01*
X127377000Y-111813000D01*
X127377000Y-111833000D01*
X128735224Y-111833000D01*
X128856346Y-111600754D01*
X128854131Y-111587241D01*
X128753469Y-111310716D01*
X128600793Y-111059143D01*
X128401972Y-110842190D01*
X128199297Y-110693598D01*
X128237387Y-110673238D01*
X128465792Y-110485792D01*
X128653238Y-110257387D01*
X128792524Y-109996802D01*
X128878295Y-109714051D01*
X128907257Y-109420000D01*
X128878295Y-109125949D01*
X128792524Y-108843198D01*
X128653238Y-108582613D01*
X128465792Y-108354208D01*
X128237387Y-108166762D01*
X128010000Y-108045221D01*
X128010000Y-105928662D01*
X128044454Y-106042246D01*
X128115026Y-106174276D01*
X128186201Y-106261002D01*
X128210000Y-106290001D01*
X128238998Y-106313799D01*
X134636210Y-112711012D01*
X134660009Y-112740011D01*
X134775734Y-112834984D01*
X134907763Y-112905556D01*
X135051024Y-112949013D01*
X135162576Y-112960000D01*
X135200010Y-112963687D01*
X135237343Y-112960010D01*
X148015209Y-112960010D01*
X148769213Y-113714015D01*
X148601068Y-113918899D01*
X148530000Y-114051858D01*
X148458932Y-113918899D01*
X148279608Y-113700392D01*
X148061101Y-113521068D01*
X147811808Y-113387818D01*
X147541309Y-113305764D01*
X147260000Y-113278057D01*
X146978692Y-113305764D01*
X146708193Y-113387818D01*
X146458900Y-113521068D01*
X146240393Y-113700392D01*
X146061068Y-113918899D01*
X145990000Y-114051858D01*
X145918932Y-113918899D01*
X145739608Y-113700392D01*
X145521101Y-113521068D01*
X145271808Y-113387818D01*
X145001309Y-113305764D01*
X144720000Y-113278057D01*
X144438692Y-113305764D01*
X144168193Y-113387818D01*
X143918900Y-113521068D01*
X143700393Y-113700392D01*
X143521068Y-113918899D01*
X143450000Y-114051858D01*
X143378932Y-113918899D01*
X143199608Y-113700392D01*
X142981101Y-113521068D01*
X142731808Y-113387818D01*
X142461309Y-113305764D01*
X142180000Y-113278057D01*
X141898692Y-113305764D01*
X141628193Y-113387818D01*
X141378900Y-113521068D01*
X141160393Y-113700392D01*
X140981068Y-113918899D01*
X140910000Y-114051858D01*
X140838932Y-113918899D01*
X140659608Y-113700392D01*
X140441101Y-113521068D01*
X140191808Y-113387818D01*
X139921309Y-113305764D01*
X139640000Y-113278057D01*
X139358692Y-113305764D01*
X139088193Y-113387818D01*
X138838900Y-113521068D01*
X138620393Y-113700392D01*
X138441068Y-113918899D01*
X138370000Y-114051858D01*
X138298932Y-113918899D01*
X138119608Y-113700392D01*
X137901101Y-113521068D01*
X137651808Y-113387818D01*
X137381309Y-113305764D01*
X137100000Y-113278057D01*
X136818692Y-113305764D01*
X136548193Y-113387818D01*
X136298900Y-113521068D01*
X136080393Y-113700392D01*
X135901068Y-113918899D01*
X135830000Y-114051858D01*
X135758932Y-113918899D01*
X135579608Y-113700392D01*
X135361101Y-113521068D01*
X135111808Y-113387818D01*
X134841309Y-113305764D01*
X134560000Y-113278057D01*
X134278692Y-113305764D01*
X134008193Y-113387818D01*
X133758900Y-113521068D01*
X133540393Y-113700392D01*
X133361068Y-113918899D01*
X133227818Y-114168192D01*
X133145764Y-114438691D01*
X133125000Y-114649508D01*
X133125000Y-115590491D01*
X133145764Y-115801308D01*
X133227818Y-116071807D01*
X133361068Y-116321100D01*
X133540392Y-116539607D01*
X133758899Y-116718932D01*
X134008192Y-116852182D01*
X134278691Y-116934236D01*
X134560000Y-116961943D01*
X134841308Y-116934236D01*
X135111807Y-116852182D01*
X135361100Y-116718932D01*
X135579607Y-116539608D01*
X135758932Y-116321101D01*
X135830000Y-116188142D01*
X135901068Y-116321100D01*
X136080392Y-116539607D01*
X136298899Y-116718932D01*
X136548192Y-116852182D01*
X136818691Y-116934236D01*
X137100000Y-116961943D01*
X137381308Y-116934236D01*
X137651807Y-116852182D01*
X137901100Y-116718932D01*
X138119607Y-116539608D01*
X138298932Y-116321101D01*
X138370000Y-116188142D01*
X138441068Y-116321100D01*
X138620392Y-116539607D01*
X138838899Y-116718932D01*
X139088192Y-116852182D01*
X139358691Y-116934236D01*
X139640000Y-116961943D01*
X139921308Y-116934236D01*
X140191807Y-116852182D01*
X140441100Y-116718932D01*
X140659607Y-116539608D01*
X140838932Y-116321101D01*
X140910000Y-116188142D01*
X140981068Y-116321100D01*
X141160392Y-116539607D01*
X141378899Y-116718932D01*
X141628192Y-116852182D01*
X141898691Y-116934236D01*
X142180000Y-116961943D01*
X142461308Y-116934236D01*
X142731807Y-116852182D01*
X142981100Y-116718932D01*
X143199607Y-116539608D01*
X143378932Y-116321101D01*
X143450000Y-116188142D01*
X143521068Y-116321100D01*
X143700392Y-116539607D01*
X143918899Y-116718932D01*
X144168192Y-116852182D01*
X144438691Y-116934236D01*
X144720000Y-116961943D01*
X145001308Y-116934236D01*
X145271807Y-116852182D01*
X145521100Y-116718932D01*
X145739607Y-116539608D01*
X145918932Y-116321101D01*
X145990000Y-116188142D01*
X146061068Y-116321100D01*
X146240392Y-116539607D01*
X146458899Y-116718932D01*
X146500000Y-116740901D01*
X146500000Y-117345198D01*
X146162749Y-117682450D01*
X145985579Y-117665000D01*
X145854421Y-117665000D01*
X145658294Y-117684317D01*
X145406646Y-117760653D01*
X145174725Y-117884618D01*
X144971445Y-118051445D01*
X144804618Y-118254725D01*
X144680653Y-118486646D01*
X144604317Y-118738294D01*
X144578541Y-119000000D01*
X144604317Y-119261706D01*
X144680653Y-119513354D01*
X144804618Y-119745275D01*
X144971445Y-119948555D01*
X145174725Y-120115382D01*
X145406646Y-120239347D01*
X145658294Y-120315683D01*
X145854421Y-120335000D01*
X145985579Y-120335000D01*
X146181706Y-120315683D01*
X146433354Y-120239347D01*
X146665275Y-120115382D01*
X146868555Y-119948555D01*
X147035382Y-119745275D01*
X147159347Y-119513354D01*
X147235683Y-119261706D01*
X147261459Y-119000000D01*
X147237550Y-118757251D01*
X147771004Y-118223798D01*
X147800001Y-118200001D01*
X147894974Y-118084276D01*
X147965546Y-117952247D01*
X148009003Y-117808986D01*
X148020000Y-117697333D01*
X148020000Y-117697324D01*
X148023676Y-117660001D01*
X148020000Y-117622678D01*
X148020000Y-116740900D01*
X148061100Y-116718932D01*
X148279607Y-116539608D01*
X148458932Y-116321101D01*
X148530000Y-116188142D01*
X148601068Y-116321100D01*
X148780392Y-116539607D01*
X148998899Y-116718932D01*
X149040001Y-116740901D01*
X149040000Y-118762677D01*
X149036324Y-118800000D01*
X149040000Y-118837322D01*
X149040000Y-118837332D01*
X149050997Y-118948985D01*
X149094454Y-119092246D01*
X149165026Y-119224276D01*
X149204871Y-119272826D01*
X149259999Y-119340001D01*
X149289003Y-119363804D01*
X149436196Y-119510997D01*
X149459999Y-119540001D01*
X149575724Y-119634974D01*
X149707753Y-119705546D01*
X149851014Y-119749003D01*
X149897968Y-119753628D01*
X149963038Y-119851013D01*
X150148987Y-120036962D01*
X150367641Y-120183061D01*
X150610595Y-120283696D01*
X150868514Y-120335000D01*
X151131486Y-120335000D01*
X151389405Y-120283696D01*
X151632359Y-120183061D01*
X151851013Y-120036962D01*
X152036962Y-119851013D01*
X152183061Y-119632359D01*
X152283696Y-119389405D01*
X152335000Y-119131486D01*
X152335000Y-118868514D01*
X152283696Y-118610595D01*
X152183061Y-118367641D01*
X152036962Y-118148987D01*
X151851013Y-117963038D01*
X151632359Y-117816939D01*
X151389405Y-117716304D01*
X151131486Y-117665000D01*
X150868514Y-117665000D01*
X150610595Y-117716304D01*
X150560000Y-117737261D01*
X150560000Y-116740900D01*
X150601100Y-116718932D01*
X150819607Y-116539608D01*
X150998932Y-116321101D01*
X151070000Y-116188142D01*
X151141068Y-116321100D01*
X151320392Y-116539607D01*
X151538899Y-116718932D01*
X151788192Y-116852182D01*
X152058691Y-116934236D01*
X152340000Y-116961943D01*
X152621308Y-116934236D01*
X152891807Y-116852182D01*
X153141100Y-116718932D01*
X153359607Y-116539608D01*
X153538932Y-116321101D01*
X153610000Y-116188142D01*
X153681068Y-116321100D01*
X153860392Y-116539607D01*
X154078899Y-116718932D01*
X154328192Y-116852182D01*
X154598691Y-116934236D01*
X154880000Y-116961943D01*
X155161308Y-116934236D01*
X155431807Y-116852182D01*
X155681100Y-116718932D01*
X155899607Y-116539608D01*
X156078932Y-116321101D01*
X156150000Y-116188142D01*
X156221068Y-116321100D01*
X156400392Y-116539607D01*
X156618899Y-116718932D01*
X156868192Y-116852182D01*
X157138691Y-116934236D01*
X157420000Y-116961943D01*
X157701308Y-116934236D01*
X157971807Y-116852182D01*
X158221100Y-116718932D01*
X158439607Y-116539608D01*
X158618932Y-116321101D01*
X158690000Y-116188142D01*
X158761068Y-116321100D01*
X158940392Y-116539607D01*
X159158899Y-116718932D01*
X159408192Y-116852182D01*
X159678691Y-116934236D01*
X159960000Y-116961943D01*
X160241308Y-116934236D01*
X160511807Y-116852182D01*
X160761100Y-116718932D01*
X160979607Y-116539608D01*
X161158932Y-116321101D01*
X161230000Y-116188142D01*
X161301068Y-116321100D01*
X161480392Y-116539607D01*
X161698899Y-116718932D01*
X161948192Y-116852182D01*
X162218691Y-116934236D01*
X162500000Y-116961943D01*
X162781308Y-116934236D01*
X163051807Y-116852182D01*
X163301100Y-116718932D01*
X163519607Y-116539608D01*
X163698932Y-116321101D01*
X163832182Y-116071808D01*
X163914236Y-115801309D01*
X163935000Y-115590492D01*
X163935000Y-114649509D01*
X163914236Y-114438691D01*
X163832182Y-114168192D01*
X163698932Y-113918899D01*
X163519608Y-113700392D01*
X163301101Y-113521068D01*
X163051808Y-113387818D01*
X162781309Y-113305764D01*
X162500000Y-113278057D01*
X162218692Y-113305764D01*
X161948193Y-113387818D01*
X161698900Y-113521068D01*
X161480393Y-113700392D01*
X161301068Y-113918899D01*
X161230000Y-114051858D01*
X161158932Y-113918899D01*
X160979608Y-113700392D01*
X160761101Y-113521068D01*
X160511808Y-113387818D01*
X160241309Y-113305764D01*
X159960000Y-113278057D01*
X159678692Y-113305764D01*
X159408193Y-113387818D01*
X159158900Y-113521068D01*
X158940393Y-113700392D01*
X158761068Y-113918899D01*
X158690000Y-114051858D01*
X158618932Y-113918899D01*
X158439608Y-113700392D01*
X158221101Y-113521068D01*
X157971808Y-113387818D01*
X157701309Y-113305764D01*
X157420000Y-113278057D01*
X157138692Y-113305764D01*
X156868193Y-113387818D01*
X156618900Y-113521068D01*
X156400393Y-113700392D01*
X156221068Y-113918899D01*
X156150000Y-114051858D01*
X156078932Y-113918899D01*
X155899608Y-113700392D01*
X155681101Y-113521068D01*
X155431808Y-113387818D01*
X155161309Y-113305764D01*
X154880000Y-113278057D01*
X154598692Y-113305764D01*
X154328193Y-113387818D01*
X154078900Y-113521068D01*
X153860393Y-113700392D01*
X153681068Y-113918899D01*
X153610000Y-114051858D01*
X153538932Y-113918899D01*
X153359608Y-113700392D01*
X153141101Y-113521068D01*
X152891808Y-113387818D01*
X152621309Y-113305764D01*
X152340000Y-113278057D01*
X152058692Y-113305764D01*
X151788193Y-113387818D01*
X151538900Y-113521068D01*
X151320393Y-113700392D01*
X151141068Y-113918899D01*
X151070000Y-114051858D01*
X150998932Y-113918899D01*
X150819608Y-113700392D01*
X150601101Y-113521068D01*
X150538941Y-113487843D01*
X150505546Y-113377753D01*
X150434974Y-113245724D01*
X150340001Y-113129999D01*
X150311004Y-113106202D01*
X149714802Y-112510000D01*
X171766437Y-112510000D01*
X177454440Y-118198004D01*
X177478238Y-118227002D01*
X177593963Y-118321975D01*
X177725992Y-118392547D01*
X177869253Y-118436004D01*
X177980906Y-118447001D01*
X177980915Y-118447001D01*
X178018238Y-118450677D01*
X178055561Y-118447001D01*
X187575677Y-118447001D01*
X187612999Y-118450677D01*
X187650321Y-118447001D01*
X187650332Y-118447001D01*
X187761985Y-118436004D01*
X187905246Y-118392547D01*
X188037275Y-118321975D01*
X188153000Y-118227002D01*
X188176803Y-118197999D01*
X188408429Y-117966372D01*
X188562408Y-117997000D01*
X188837592Y-117997000D01*
X189107490Y-117943314D01*
X189361727Y-117838005D01*
X189590535Y-117685120D01*
X189785120Y-117490535D01*
X189938005Y-117261727D01*
X189970000Y-117184485D01*
X190001995Y-117261727D01*
X190154880Y-117490535D01*
X190349465Y-117685120D01*
X190578273Y-117838005D01*
X190832510Y-117943314D01*
X191102408Y-117997000D01*
X191377592Y-117997000D01*
X191647490Y-117943314D01*
X191901727Y-117838005D01*
X192130535Y-117685120D01*
X192325120Y-117490535D01*
X192478005Y-117261727D01*
X192510000Y-117184485D01*
X192541995Y-117261727D01*
X192694880Y-117490535D01*
X192889465Y-117685120D01*
X193118273Y-117838005D01*
X193372510Y-117943314D01*
X193642408Y-117997000D01*
X193917592Y-117997000D01*
X194187490Y-117943314D01*
X194441727Y-117838005D01*
X194670535Y-117685120D01*
X194865120Y-117490535D01*
X195018005Y-117261727D01*
X195123314Y-117007490D01*
X195140716Y-116920000D01*
X210658541Y-116920000D01*
X210684317Y-117181706D01*
X210760653Y-117433354D01*
X210884618Y-117665275D01*
X211051445Y-117868555D01*
X211254725Y-118035382D01*
X211486646Y-118159347D01*
X211738294Y-118235683D01*
X211934421Y-118255000D01*
X212065579Y-118255000D01*
X212261706Y-118235683D01*
X212513354Y-118159347D01*
X212745275Y-118035382D01*
X212948555Y-117868555D01*
X213115382Y-117665275D01*
X213239347Y-117433354D01*
X213315683Y-117181706D01*
X213341459Y-116920000D01*
X213658541Y-116920000D01*
X213684317Y-117181706D01*
X213760653Y-117433354D01*
X213884618Y-117665275D01*
X214051445Y-117868555D01*
X214254725Y-118035382D01*
X214486646Y-118159347D01*
X214738294Y-118235683D01*
X214934421Y-118255000D01*
X215065579Y-118255000D01*
X215261706Y-118235683D01*
X215513354Y-118159347D01*
X215745275Y-118035382D01*
X215948555Y-117868555D01*
X216115382Y-117665275D01*
X216239347Y-117433354D01*
X216315683Y-117181706D01*
X216341459Y-116920000D01*
X216658541Y-116920000D01*
X216684317Y-117181706D01*
X216760653Y-117433354D01*
X216884618Y-117665275D01*
X217051445Y-117868555D01*
X217254725Y-118035382D01*
X217486646Y-118159347D01*
X217738294Y-118235683D01*
X217934421Y-118255000D01*
X218065579Y-118255000D01*
X218261706Y-118235683D01*
X218513354Y-118159347D01*
X218745275Y-118035382D01*
X218948555Y-117868555D01*
X219115382Y-117665275D01*
X219239347Y-117433354D01*
X219315683Y-117181706D01*
X219341459Y-116920000D01*
X219315683Y-116658294D01*
X219239347Y-116406646D01*
X219115382Y-116174725D01*
X218948555Y-115971445D01*
X218745275Y-115804618D01*
X218513354Y-115680653D01*
X218261706Y-115604317D01*
X218065579Y-115585000D01*
X217934421Y-115585000D01*
X217738294Y-115604317D01*
X217486646Y-115680653D01*
X217254725Y-115804618D01*
X217051445Y-115971445D01*
X216884618Y-116174725D01*
X216760653Y-116406646D01*
X216684317Y-116658294D01*
X216658541Y-116920000D01*
X216341459Y-116920000D01*
X216315683Y-116658294D01*
X216239347Y-116406646D01*
X216115382Y-116174725D01*
X215948555Y-115971445D01*
X215745275Y-115804618D01*
X215513354Y-115680653D01*
X215261706Y-115604317D01*
X215065579Y-115585000D01*
X214934421Y-115585000D01*
X214738294Y-115604317D01*
X214486646Y-115680653D01*
X214254725Y-115804618D01*
X214051445Y-115971445D01*
X213884618Y-116174725D01*
X213760653Y-116406646D01*
X213684317Y-116658294D01*
X213658541Y-116920000D01*
X213341459Y-116920000D01*
X213315683Y-116658294D01*
X213239347Y-116406646D01*
X213115382Y-116174725D01*
X212948555Y-115971445D01*
X212745275Y-115804618D01*
X212513354Y-115680653D01*
X212261706Y-115604317D01*
X212065579Y-115585000D01*
X211934421Y-115585000D01*
X211738294Y-115604317D01*
X211486646Y-115680653D01*
X211254725Y-115804618D01*
X211051445Y-115971445D01*
X210884618Y-116174725D01*
X210760653Y-116406646D01*
X210684317Y-116658294D01*
X210658541Y-116920000D01*
X195140716Y-116920000D01*
X195177000Y-116737592D01*
X195177000Y-116462408D01*
X195123314Y-116192510D01*
X195018005Y-115938273D01*
X194865120Y-115709465D01*
X194670535Y-115514880D01*
X194441727Y-115361995D01*
X194187490Y-115256686D01*
X193917592Y-115203000D01*
X193642408Y-115203000D01*
X193488429Y-115233628D01*
X193256803Y-115002002D01*
X193233000Y-114972998D01*
X193117275Y-114878025D01*
X193092908Y-114865000D01*
X222596928Y-114865000D01*
X222609188Y-114989482D01*
X222645498Y-115109180D01*
X222704463Y-115219494D01*
X222783815Y-115316185D01*
X222880506Y-115395537D01*
X222990820Y-115454502D01*
X223110518Y-115490812D01*
X223235000Y-115503072D01*
X223964250Y-115500000D01*
X224123000Y-115341250D01*
X224123000Y-114127000D01*
X224377000Y-114127000D01*
X224377000Y-115341250D01*
X224535750Y-115500000D01*
X225265000Y-115503072D01*
X225389482Y-115490812D01*
X225509180Y-115454502D01*
X225619494Y-115395537D01*
X225716185Y-115316185D01*
X225795537Y-115219494D01*
X225854502Y-115109180D01*
X225890812Y-114989482D01*
X225903072Y-114865000D01*
X225900000Y-114285750D01*
X225741250Y-114127000D01*
X224377000Y-114127000D01*
X224123000Y-114127000D01*
X222758750Y-114127000D01*
X222600000Y-114285750D01*
X222596928Y-114865000D01*
X193092908Y-114865000D01*
X192985246Y-114807453D01*
X192841985Y-114763996D01*
X192730332Y-114752999D01*
X192730321Y-114752999D01*
X192692999Y-114749323D01*
X192655677Y-114752999D01*
X178577801Y-114752999D01*
X174113788Y-110288987D01*
X174089992Y-110259991D01*
X174060993Y-110236192D01*
X173974267Y-110165017D01*
X173842237Y-110094445D01*
X173726906Y-110059461D01*
X173698977Y-110050989D01*
X173587324Y-110039992D01*
X173549991Y-110036315D01*
X173512659Y-110039992D01*
X163174792Y-110039990D01*
X162472874Y-109338072D01*
X163300000Y-109338072D01*
X163424482Y-109325812D01*
X163544180Y-109289502D01*
X163654494Y-109230537D01*
X163751185Y-109151185D01*
X163830537Y-109054494D01*
X163889502Y-108944180D01*
X163925812Y-108824482D01*
X163938072Y-108700000D01*
X163938072Y-106302408D01*
X174603000Y-106302408D01*
X174603000Y-106577592D01*
X174656686Y-106847490D01*
X174761995Y-107101727D01*
X174914880Y-107330535D01*
X175109465Y-107525120D01*
X175338273Y-107678005D01*
X175592510Y-107783314D01*
X175862408Y-107837000D01*
X176137592Y-107837000D01*
X176407490Y-107783314D01*
X176661727Y-107678005D01*
X176890535Y-107525120D01*
X177085120Y-107330535D01*
X177238005Y-107101727D01*
X177270000Y-107024485D01*
X177301995Y-107101727D01*
X177454880Y-107330535D01*
X177649465Y-107525120D01*
X177878273Y-107678005D01*
X178132510Y-107783314D01*
X178402408Y-107837000D01*
X178677592Y-107837000D01*
X178947490Y-107783314D01*
X179201727Y-107678005D01*
X179430535Y-107525120D01*
X179625120Y-107330535D01*
X179778005Y-107101727D01*
X179810000Y-107024485D01*
X179841995Y-107101727D01*
X179994880Y-107330535D01*
X180189465Y-107525120D01*
X180418273Y-107678005D01*
X180672510Y-107783314D01*
X180942408Y-107837000D01*
X181217592Y-107837000D01*
X181487490Y-107783314D01*
X181741727Y-107678005D01*
X181970535Y-107525120D01*
X182165120Y-107330535D01*
X182318005Y-107101727D01*
X182350000Y-107024485D01*
X182381995Y-107101727D01*
X182534880Y-107330535D01*
X182729465Y-107525120D01*
X182958273Y-107678005D01*
X183212510Y-107783314D01*
X183482408Y-107837000D01*
X183757592Y-107837000D01*
X184027490Y-107783314D01*
X184281727Y-107678005D01*
X184510535Y-107525120D01*
X184705120Y-107330535D01*
X184858005Y-107101727D01*
X184890000Y-107024485D01*
X184921995Y-107101727D01*
X185074880Y-107330535D01*
X185269465Y-107525120D01*
X185498273Y-107678005D01*
X185752510Y-107783314D01*
X186022408Y-107837000D01*
X186297592Y-107837000D01*
X186567490Y-107783314D01*
X186821727Y-107678005D01*
X187050535Y-107525120D01*
X187245120Y-107330535D01*
X187398005Y-107101727D01*
X187430000Y-107024485D01*
X187461995Y-107101727D01*
X187614880Y-107330535D01*
X187809465Y-107525120D01*
X188038273Y-107678005D01*
X188292510Y-107783314D01*
X188562408Y-107837000D01*
X188837592Y-107837000D01*
X189107490Y-107783314D01*
X189361727Y-107678005D01*
X189590535Y-107525120D01*
X189785120Y-107330535D01*
X189938005Y-107101727D01*
X189970000Y-107024485D01*
X190001995Y-107101727D01*
X190154880Y-107330535D01*
X190349465Y-107525120D01*
X190578273Y-107678005D01*
X190832510Y-107783314D01*
X191102408Y-107837000D01*
X191377592Y-107837000D01*
X191647490Y-107783314D01*
X191901727Y-107678005D01*
X192130535Y-107525120D01*
X192325120Y-107330535D01*
X192478005Y-107101727D01*
X192510000Y-107024485D01*
X192541995Y-107101727D01*
X192694880Y-107330535D01*
X192889465Y-107525120D01*
X193118273Y-107678005D01*
X193372510Y-107783314D01*
X193642408Y-107837000D01*
X193917592Y-107837000D01*
X194187490Y-107783314D01*
X194441727Y-107678005D01*
X194670535Y-107525120D01*
X194865120Y-107330535D01*
X195018005Y-107101727D01*
X195123314Y-106847490D01*
X195177000Y-106577592D01*
X195177000Y-106302408D01*
X195123314Y-106032510D01*
X195018005Y-105778273D01*
X194865120Y-105549465D01*
X194670535Y-105354880D01*
X194441727Y-105201995D01*
X194187490Y-105096686D01*
X193917592Y-105043000D01*
X193642408Y-105043000D01*
X193372510Y-105096686D01*
X193118273Y-105201995D01*
X192889465Y-105354880D01*
X192694880Y-105549465D01*
X192541995Y-105778273D01*
X192510000Y-105855515D01*
X192478005Y-105778273D01*
X192325120Y-105549465D01*
X192130535Y-105354880D01*
X191901727Y-105201995D01*
X191647490Y-105096686D01*
X191377592Y-105043000D01*
X191102408Y-105043000D01*
X190832510Y-105096686D01*
X190578273Y-105201995D01*
X190349465Y-105354880D01*
X190154880Y-105549465D01*
X190001995Y-105778273D01*
X189970000Y-105855515D01*
X189938005Y-105778273D01*
X189785120Y-105549465D01*
X189590535Y-105354880D01*
X189361727Y-105201995D01*
X189107490Y-105096686D01*
X188837592Y-105043000D01*
X188562408Y-105043000D01*
X188292510Y-105096686D01*
X188038273Y-105201995D01*
X187809465Y-105354880D01*
X187614880Y-105549465D01*
X187461995Y-105778273D01*
X187430000Y-105855515D01*
X187398005Y-105778273D01*
X187245120Y-105549465D01*
X187050535Y-105354880D01*
X186821727Y-105201995D01*
X186567490Y-105096686D01*
X186297592Y-105043000D01*
X186022408Y-105043000D01*
X185752510Y-105096686D01*
X185498273Y-105201995D01*
X185269465Y-105354880D01*
X185074880Y-105549465D01*
X184921995Y-105778273D01*
X184890000Y-105855515D01*
X184858005Y-105778273D01*
X184705120Y-105549465D01*
X184510535Y-105354880D01*
X184281727Y-105201995D01*
X184027490Y-105096686D01*
X183757592Y-105043000D01*
X183482408Y-105043000D01*
X183212510Y-105096686D01*
X182958273Y-105201995D01*
X182729465Y-105354880D01*
X182534880Y-105549465D01*
X182381995Y-105778273D01*
X182350000Y-105855515D01*
X182318005Y-105778273D01*
X182165120Y-105549465D01*
X181970535Y-105354880D01*
X181741727Y-105201995D01*
X181487490Y-105096686D01*
X181217592Y-105043000D01*
X180942408Y-105043000D01*
X180672510Y-105096686D01*
X180418273Y-105201995D01*
X180189465Y-105354880D01*
X179994880Y-105549465D01*
X179841995Y-105778273D01*
X179810000Y-105855515D01*
X179778005Y-105778273D01*
X179625120Y-105549465D01*
X179430535Y-105354880D01*
X179201727Y-105201995D01*
X178947490Y-105096686D01*
X178677592Y-105043000D01*
X178402408Y-105043000D01*
X178132510Y-105096686D01*
X177878273Y-105201995D01*
X177649465Y-105354880D01*
X177454880Y-105549465D01*
X177301995Y-105778273D01*
X177270000Y-105855515D01*
X177238005Y-105778273D01*
X177085120Y-105549465D01*
X176890535Y-105354880D01*
X176661727Y-105201995D01*
X176407490Y-105096686D01*
X176137592Y-105043000D01*
X175862408Y-105043000D01*
X175592510Y-105096686D01*
X175338273Y-105201995D01*
X175109465Y-105354880D01*
X174914880Y-105549465D01*
X174761995Y-105778273D01*
X174656686Y-106032510D01*
X174603000Y-106302408D01*
X163938072Y-106302408D01*
X163938072Y-106300000D01*
X163925812Y-106175518D01*
X163889502Y-106055820D01*
X163830537Y-105945506D01*
X163751185Y-105848815D01*
X163654494Y-105769463D01*
X163544180Y-105710498D01*
X163424482Y-105674188D01*
X163300000Y-105661928D01*
X161700000Y-105661928D01*
X161575518Y-105674188D01*
X161455820Y-105710498D01*
X161345506Y-105769463D01*
X161248815Y-105848815D01*
X161169463Y-105945506D01*
X161110498Y-106055820D01*
X161074188Y-106175518D01*
X161072419Y-106193482D01*
X160979608Y-106080392D01*
X160761101Y-105901068D01*
X160511808Y-105767818D01*
X160241309Y-105685764D01*
X159960000Y-105658057D01*
X159678692Y-105685764D01*
X159408193Y-105767818D01*
X159158900Y-105901068D01*
X158940393Y-106080392D01*
X158761068Y-106298899D01*
X158690000Y-106431858D01*
X158618932Y-106298899D01*
X158439608Y-106080392D01*
X158221101Y-105901068D01*
X157971808Y-105767818D01*
X157701309Y-105685764D01*
X157420000Y-105658057D01*
X157138692Y-105685764D01*
X156868193Y-105767818D01*
X156618900Y-105901068D01*
X156400393Y-106080392D01*
X156221068Y-106298899D01*
X156152735Y-106426741D01*
X156002601Y-106197161D01*
X155804895Y-105995500D01*
X155571646Y-105836285D01*
X155311818Y-105725633D01*
X155229039Y-105708096D01*
X155007000Y-105830085D01*
X155007000Y-107373000D01*
X155027000Y-107373000D01*
X155027000Y-107627000D01*
X155007000Y-107627000D01*
X155007000Y-109169915D01*
X155229039Y-109291904D01*
X155311818Y-109274367D01*
X155571646Y-109163715D01*
X155804895Y-109004500D01*
X156002601Y-108802839D01*
X156152735Y-108573258D01*
X156221068Y-108701100D01*
X156400392Y-108919607D01*
X156618899Y-109098932D01*
X156868192Y-109232182D01*
X157138691Y-109314236D01*
X157420000Y-109341943D01*
X157701308Y-109314236D01*
X157971807Y-109232182D01*
X158221100Y-109098932D01*
X158439607Y-108919608D01*
X158618932Y-108701101D01*
X158690000Y-108568142D01*
X158761068Y-108701100D01*
X158940392Y-108919607D01*
X159158899Y-109098932D01*
X159408192Y-109232182D01*
X159678691Y-109314236D01*
X159960000Y-109341943D01*
X160241308Y-109314236D01*
X160285906Y-109300707D01*
X161475198Y-110490000D01*
X152414802Y-110490000D01*
X150830787Y-108905986D01*
X150998932Y-108701101D01*
X151070000Y-108568142D01*
X151141068Y-108701100D01*
X151320392Y-108919607D01*
X151538899Y-109098932D01*
X151788192Y-109232182D01*
X152058691Y-109314236D01*
X152340000Y-109341943D01*
X152621308Y-109314236D01*
X152891807Y-109232182D01*
X153141100Y-109098932D01*
X153359607Y-108919608D01*
X153538932Y-108701101D01*
X153607265Y-108573259D01*
X153757399Y-108802839D01*
X153955105Y-109004500D01*
X154188354Y-109163715D01*
X154448182Y-109274367D01*
X154530961Y-109291904D01*
X154753000Y-109169915D01*
X154753000Y-107627000D01*
X154733000Y-107627000D01*
X154733000Y-107373000D01*
X154753000Y-107373000D01*
X154753000Y-105830085D01*
X154530961Y-105708096D01*
X154448182Y-105725633D01*
X154188354Y-105836285D01*
X153955105Y-105995500D01*
X153757399Y-106197161D01*
X153607265Y-106426741D01*
X153538932Y-106298899D01*
X153359608Y-106080392D01*
X153141101Y-105901068D01*
X152891808Y-105767818D01*
X152621309Y-105685764D01*
X152340000Y-105658057D01*
X152058692Y-105685764D01*
X151788193Y-105767818D01*
X151538900Y-105901068D01*
X151320393Y-106080392D01*
X151141068Y-106298899D01*
X151070000Y-106431858D01*
X150998932Y-106298899D01*
X150819608Y-106080392D01*
X150601101Y-105901068D01*
X150351808Y-105767818D01*
X150081309Y-105685764D01*
X149800000Y-105658057D01*
X149518692Y-105685764D01*
X149248193Y-105767818D01*
X148998900Y-105901068D01*
X148780393Y-106080392D01*
X148601068Y-106298899D01*
X148530000Y-106431858D01*
X148458932Y-106298899D01*
X148279608Y-106080392D01*
X148061101Y-105901068D01*
X147811808Y-105767818D01*
X147541309Y-105685764D01*
X147260000Y-105658057D01*
X146978692Y-105685764D01*
X146708193Y-105767818D01*
X146458900Y-105901068D01*
X146240393Y-106080392D01*
X146061068Y-106298899D01*
X145990000Y-106431858D01*
X145918932Y-106298899D01*
X145739608Y-106080392D01*
X145521101Y-105901068D01*
X145271808Y-105767818D01*
X145001309Y-105685764D01*
X144720000Y-105658057D01*
X144438692Y-105685764D01*
X144168193Y-105767818D01*
X143918900Y-105901068D01*
X143700393Y-106080392D01*
X143521068Y-106298899D01*
X143452735Y-106426741D01*
X143302601Y-106197161D01*
X143104895Y-105995500D01*
X142871646Y-105836285D01*
X142611818Y-105725633D01*
X142529039Y-105708096D01*
X142307000Y-105830085D01*
X142307000Y-107373000D01*
X142327000Y-107373000D01*
X142327000Y-107627000D01*
X142307000Y-107627000D01*
X142307000Y-109169915D01*
X142529039Y-109291904D01*
X142611818Y-109274367D01*
X142871646Y-109163715D01*
X143104895Y-109004500D01*
X143302601Y-108802839D01*
X143452735Y-108573258D01*
X143521068Y-108701100D01*
X143700392Y-108919607D01*
X143918899Y-109098932D01*
X144168192Y-109232182D01*
X144438691Y-109314236D01*
X144720000Y-109341943D01*
X145001308Y-109314236D01*
X145271807Y-109232182D01*
X145521100Y-109098932D01*
X145739607Y-108919608D01*
X145918932Y-108701101D01*
X145990000Y-108568142D01*
X146061068Y-108701100D01*
X146240392Y-108919607D01*
X146458899Y-109098932D01*
X146708192Y-109232182D01*
X146978691Y-109314236D01*
X147260000Y-109341943D01*
X147541308Y-109314236D01*
X147811807Y-109232182D01*
X148061100Y-109098932D01*
X148279607Y-108919608D01*
X148458932Y-108701101D01*
X148530000Y-108568142D01*
X148601068Y-108701100D01*
X148780392Y-108919607D01*
X148998899Y-109098932D01*
X149061061Y-109132158D01*
X149094454Y-109242246D01*
X149165026Y-109374276D01*
X149236201Y-109461002D01*
X149260000Y-109490001D01*
X149288998Y-109513799D01*
X150765198Y-110990000D01*
X141264802Y-110990000D01*
X139614204Y-109339402D01*
X139640000Y-109341943D01*
X139921308Y-109314236D01*
X140191807Y-109232182D01*
X140441100Y-109098932D01*
X140659607Y-108919608D01*
X140838932Y-108701101D01*
X140907265Y-108573259D01*
X141057399Y-108802839D01*
X141255105Y-109004500D01*
X141488354Y-109163715D01*
X141748182Y-109274367D01*
X141830961Y-109291904D01*
X142053000Y-109169915D01*
X142053000Y-107627000D01*
X142033000Y-107627000D01*
X142033000Y-107373000D01*
X142053000Y-107373000D01*
X142053000Y-105830085D01*
X141830961Y-105708096D01*
X141748182Y-105725633D01*
X141488354Y-105836285D01*
X141255105Y-105995500D01*
X141057399Y-106197161D01*
X140907265Y-106426741D01*
X140838932Y-106298899D01*
X140659608Y-106080392D01*
X140441101Y-105901068D01*
X140191808Y-105767818D01*
X139921309Y-105685764D01*
X139640000Y-105658057D01*
X139358692Y-105685764D01*
X139088193Y-105767818D01*
X138838900Y-105901068D01*
X138620393Y-106080392D01*
X138441068Y-106298899D01*
X138370000Y-106431858D01*
X138298932Y-106298899D01*
X138119608Y-106080392D01*
X137901101Y-105901068D01*
X137651808Y-105767818D01*
X137381309Y-105685764D01*
X137100000Y-105658057D01*
X136818692Y-105685764D01*
X136548193Y-105767818D01*
X136298900Y-105901068D01*
X136080393Y-106080392D01*
X135901068Y-106298899D01*
X135830000Y-106431858D01*
X135758932Y-106298899D01*
X135579608Y-106080392D01*
X135361101Y-105901068D01*
X135111808Y-105767818D01*
X134841309Y-105685764D01*
X134560000Y-105658057D01*
X134278692Y-105685764D01*
X134008193Y-105767818D01*
X133758900Y-105901068D01*
X133540393Y-106080392D01*
X133361068Y-106298899D01*
X133227818Y-106548192D01*
X133145764Y-106818691D01*
X133125000Y-107029508D01*
X133125000Y-107970491D01*
X133145764Y-108181308D01*
X133227818Y-108451807D01*
X133361068Y-108701100D01*
X133540392Y-108919607D01*
X133758899Y-109098932D01*
X134008192Y-109232182D01*
X134278691Y-109314236D01*
X134560000Y-109341943D01*
X134841308Y-109314236D01*
X135111807Y-109232182D01*
X135361100Y-109098932D01*
X135579607Y-108919608D01*
X135758932Y-108701101D01*
X135830000Y-108568142D01*
X135901068Y-108701100D01*
X136080392Y-108919607D01*
X136298899Y-109098932D01*
X136548192Y-109232182D01*
X136818691Y-109314236D01*
X137100000Y-109341943D01*
X137381308Y-109314236D01*
X137425906Y-109300707D01*
X139565208Y-111440010D01*
X135514812Y-111440010D01*
X129510000Y-105435199D01*
X129510000Y-100841984D01*
X129965000Y-100841984D01*
X129965000Y-101558016D01*
X130104691Y-102260290D01*
X130378705Y-102921818D01*
X130776511Y-103517177D01*
X131282823Y-104023489D01*
X131878182Y-104421295D01*
X132539710Y-104695309D01*
X133241984Y-104835000D01*
X133958016Y-104835000D01*
X134660290Y-104695309D01*
X135321818Y-104421295D01*
X135917177Y-104023489D01*
X136423489Y-103517177D01*
X136821295Y-102921818D01*
X137095309Y-102260290D01*
X137235000Y-101558016D01*
X137235000Y-100841984D01*
X208765000Y-100841984D01*
X208765000Y-101558016D01*
X208904691Y-102260290D01*
X209178705Y-102921818D01*
X209576511Y-103517177D01*
X210082823Y-104023489D01*
X210678182Y-104421295D01*
X211339710Y-104695309D01*
X212041984Y-104835000D01*
X212758016Y-104835000D01*
X213460290Y-104695309D01*
X214121818Y-104421295D01*
X214717177Y-104023489D01*
X215223489Y-103517177D01*
X215621295Y-102921818D01*
X215895309Y-102260290D01*
X216035000Y-101558016D01*
X216035000Y-100841984D01*
X215895309Y-100139710D01*
X215621295Y-99478182D01*
X215223489Y-98882823D01*
X214717177Y-98376511D01*
X214121818Y-97978705D01*
X213460290Y-97704691D01*
X212758016Y-97565000D01*
X212041984Y-97565000D01*
X211339710Y-97704691D01*
X210678182Y-97978705D01*
X210082823Y-98376511D01*
X209576511Y-98882823D01*
X209178705Y-99478182D01*
X208904691Y-100139710D01*
X208765000Y-100841984D01*
X137235000Y-100841984D01*
X137095309Y-100139710D01*
X136821295Y-99478182D01*
X136423489Y-98882823D01*
X135917177Y-98376511D01*
X135321818Y-97978705D01*
X134660290Y-97704691D01*
X133958016Y-97565000D01*
X133241984Y-97565000D01*
X132539710Y-97704691D01*
X131878182Y-97978705D01*
X131282823Y-98376511D01*
X130776511Y-98882823D01*
X130378705Y-99478182D01*
X130104691Y-100139710D01*
X129965000Y-100841984D01*
X129510000Y-100841984D01*
X129510000Y-96000000D01*
X155498057Y-96000000D01*
X155525764Y-96281309D01*
X155607818Y-96551808D01*
X155741068Y-96801101D01*
X155920392Y-97019608D01*
X156138899Y-97198932D01*
X156388192Y-97332182D01*
X156658691Y-97414236D01*
X156869508Y-97435000D01*
X157010492Y-97435000D01*
X157221309Y-97414236D01*
X157491808Y-97332182D01*
X157741101Y-97198932D01*
X157959608Y-97019608D01*
X158138932Y-96801101D01*
X158210000Y-96668142D01*
X158281068Y-96801101D01*
X158460392Y-97019608D01*
X158678899Y-97198932D01*
X158928192Y-97332182D01*
X159198691Y-97414236D01*
X159409508Y-97435000D01*
X159550492Y-97435000D01*
X159761309Y-97414236D01*
X160031808Y-97332182D01*
X160281101Y-97198932D01*
X160499608Y-97019608D01*
X160678932Y-96801101D01*
X160750000Y-96668142D01*
X160821068Y-96801101D01*
X161000392Y-97019608D01*
X161218899Y-97198932D01*
X161468192Y-97332182D01*
X161738691Y-97414236D01*
X161949508Y-97435000D01*
X162090492Y-97435000D01*
X162301309Y-97414236D01*
X162571808Y-97332182D01*
X162821101Y-97198932D01*
X163039608Y-97019608D01*
X163218932Y-96801101D01*
X163290000Y-96668142D01*
X163361068Y-96801101D01*
X163540392Y-97019608D01*
X163758899Y-97198932D01*
X164008192Y-97332182D01*
X164278691Y-97414236D01*
X164489508Y-97435000D01*
X164630492Y-97435000D01*
X164841309Y-97414236D01*
X165111808Y-97332182D01*
X165361101Y-97198932D01*
X165579608Y-97019608D01*
X165758932Y-96801101D01*
X165830000Y-96668142D01*
X165901068Y-96801101D01*
X166080392Y-97019608D01*
X166298899Y-97198932D01*
X166548192Y-97332182D01*
X166818691Y-97414236D01*
X167029508Y-97435000D01*
X167170492Y-97435000D01*
X167381309Y-97414236D01*
X167651808Y-97332182D01*
X167901101Y-97198932D01*
X168119608Y-97019608D01*
X168298932Y-96801101D01*
X168370000Y-96668142D01*
X168441068Y-96801101D01*
X168620392Y-97019608D01*
X168838899Y-97198932D01*
X169088192Y-97332182D01*
X169358691Y-97414236D01*
X169569508Y-97435000D01*
X169710492Y-97435000D01*
X169921309Y-97414236D01*
X170191808Y-97332182D01*
X170441101Y-97198932D01*
X170659608Y-97019608D01*
X170838932Y-96801101D01*
X170910000Y-96668142D01*
X170981068Y-96801101D01*
X171160392Y-97019608D01*
X171378899Y-97198932D01*
X171628192Y-97332182D01*
X171898691Y-97414236D01*
X172109508Y-97435000D01*
X172250492Y-97435000D01*
X172461309Y-97414236D01*
X172731808Y-97332182D01*
X172981101Y-97198932D01*
X173199608Y-97019608D01*
X173378932Y-96801101D01*
X173450000Y-96668142D01*
X173521068Y-96801101D01*
X173700392Y-97019608D01*
X173918899Y-97198932D01*
X174168192Y-97332182D01*
X174438691Y-97414236D01*
X174649508Y-97435000D01*
X174790492Y-97435000D01*
X175001309Y-97414236D01*
X175271808Y-97332182D01*
X175521101Y-97198932D01*
X175739608Y-97019608D01*
X175918932Y-96801101D01*
X175990000Y-96668142D01*
X176061068Y-96801101D01*
X176240392Y-97019608D01*
X176458899Y-97198932D01*
X176708192Y-97332182D01*
X176978691Y-97414236D01*
X177189508Y-97435000D01*
X177330492Y-97435000D01*
X177541309Y-97414236D01*
X177811808Y-97332182D01*
X178061101Y-97198932D01*
X178279608Y-97019608D01*
X178458932Y-96801101D01*
X178530000Y-96668142D01*
X178601068Y-96801101D01*
X178780392Y-97019608D01*
X178998899Y-97198932D01*
X179248192Y-97332182D01*
X179518691Y-97414236D01*
X179729508Y-97435000D01*
X179870492Y-97435000D01*
X180081309Y-97414236D01*
X180351808Y-97332182D01*
X180601101Y-97198932D01*
X180819608Y-97019608D01*
X180998932Y-96801101D01*
X181070000Y-96668142D01*
X181141068Y-96801101D01*
X181320392Y-97019608D01*
X181538899Y-97198932D01*
X181788192Y-97332182D01*
X182058691Y-97414236D01*
X182269508Y-97435000D01*
X182410492Y-97435000D01*
X182621309Y-97414236D01*
X182891808Y-97332182D01*
X183141101Y-97198932D01*
X183359608Y-97019608D01*
X183538932Y-96801101D01*
X183612579Y-96663318D01*
X183727615Y-96855131D01*
X183916586Y-97063519D01*
X184142580Y-97231037D01*
X184396913Y-97351246D01*
X184530961Y-97391904D01*
X184753000Y-97269915D01*
X184753000Y-96127000D01*
X184733000Y-96127000D01*
X184733000Y-95873000D01*
X184753000Y-95873000D01*
X184753000Y-94730085D01*
X185007000Y-94730085D01*
X185007000Y-95873000D01*
X185027000Y-95873000D01*
X185027000Y-96127000D01*
X185007000Y-96127000D01*
X185007000Y-97269915D01*
X185229039Y-97391904D01*
X185363087Y-97351246D01*
X185617420Y-97231037D01*
X185843414Y-97063519D01*
X186032385Y-96855131D01*
X186147421Y-96663318D01*
X186221068Y-96801101D01*
X186400392Y-97019608D01*
X186618899Y-97198932D01*
X186868192Y-97332182D01*
X187138691Y-97414236D01*
X187349508Y-97435000D01*
X187490492Y-97435000D01*
X187701309Y-97414236D01*
X187971808Y-97332182D01*
X188221101Y-97198932D01*
X188439608Y-97019608D01*
X188618932Y-96801101D01*
X188690000Y-96668142D01*
X188761068Y-96801101D01*
X188940392Y-97019608D01*
X189158899Y-97198932D01*
X189408192Y-97332182D01*
X189678691Y-97414236D01*
X189889508Y-97435000D01*
X190030492Y-97435000D01*
X190241309Y-97414236D01*
X190511808Y-97332182D01*
X190761101Y-97198932D01*
X190979608Y-97019608D01*
X191072419Y-96906518D01*
X191074188Y-96924482D01*
X191110498Y-97044180D01*
X191169463Y-97154494D01*
X191248815Y-97251185D01*
X191345506Y-97330537D01*
X191455820Y-97389502D01*
X191575518Y-97425812D01*
X191700000Y-97438072D01*
X193300000Y-97438072D01*
X193424482Y-97425812D01*
X193544180Y-97389502D01*
X193654494Y-97330537D01*
X193751185Y-97251185D01*
X193830537Y-97154494D01*
X193889502Y-97044180D01*
X193925812Y-96924482D01*
X193938072Y-96800000D01*
X193938072Y-95200000D01*
X193925812Y-95075518D01*
X193889502Y-94955820D01*
X193830537Y-94845506D01*
X193751185Y-94748815D01*
X193654494Y-94669463D01*
X193544180Y-94610498D01*
X193424482Y-94574188D01*
X193300000Y-94561928D01*
X191700000Y-94561928D01*
X191575518Y-94574188D01*
X191455820Y-94610498D01*
X191345506Y-94669463D01*
X191248815Y-94748815D01*
X191169463Y-94845506D01*
X191110498Y-94955820D01*
X191074188Y-95075518D01*
X191072419Y-95093482D01*
X190979608Y-94980392D01*
X190761101Y-94801068D01*
X190511808Y-94667818D01*
X190241309Y-94585764D01*
X190030492Y-94565000D01*
X189889508Y-94565000D01*
X189678691Y-94585764D01*
X189408192Y-94667818D01*
X189158899Y-94801068D01*
X188940392Y-94980392D01*
X188761068Y-95198899D01*
X188690000Y-95331858D01*
X188618932Y-95198899D01*
X188439608Y-94980392D01*
X188221101Y-94801068D01*
X187971808Y-94667818D01*
X187701309Y-94585764D01*
X187490492Y-94565000D01*
X187349508Y-94565000D01*
X187138691Y-94585764D01*
X186868192Y-94667818D01*
X186618899Y-94801068D01*
X186400392Y-94980392D01*
X186221068Y-95198899D01*
X186147421Y-95336682D01*
X186032385Y-95144869D01*
X185843414Y-94936481D01*
X185617420Y-94768963D01*
X185363087Y-94648754D01*
X185229039Y-94608096D01*
X185007000Y-94730085D01*
X184753000Y-94730085D01*
X184530961Y-94608096D01*
X184396913Y-94648754D01*
X184142580Y-94768963D01*
X183916586Y-94936481D01*
X183727615Y-95144869D01*
X183612579Y-95336682D01*
X183538932Y-95198899D01*
X183359608Y-94980392D01*
X183141101Y-94801068D01*
X182891808Y-94667818D01*
X182621309Y-94585764D01*
X182410492Y-94565000D01*
X182269508Y-94565000D01*
X182058691Y-94585764D01*
X181788192Y-94667818D01*
X181538899Y-94801068D01*
X181320392Y-94980392D01*
X181141068Y-95198899D01*
X181070000Y-95331858D01*
X180998932Y-95198899D01*
X180819608Y-94980392D01*
X180601101Y-94801068D01*
X180351808Y-94667818D01*
X180081309Y-94585764D01*
X179870492Y-94565000D01*
X179729508Y-94565000D01*
X179518691Y-94585764D01*
X179248192Y-94667818D01*
X178998899Y-94801068D01*
X178780392Y-94980392D01*
X178601068Y-95198899D01*
X178530000Y-95331858D01*
X178458932Y-95198899D01*
X178279608Y-94980392D01*
X178061101Y-94801068D01*
X177811808Y-94667818D01*
X177541309Y-94585764D01*
X177330492Y-94565000D01*
X177189508Y-94565000D01*
X176978691Y-94585764D01*
X176708192Y-94667818D01*
X176458899Y-94801068D01*
X176240392Y-94980392D01*
X176061068Y-95198899D01*
X175990000Y-95331858D01*
X175918932Y-95198899D01*
X175739608Y-94980392D01*
X175521101Y-94801068D01*
X175271808Y-94667818D01*
X175001309Y-94585764D01*
X174790492Y-94565000D01*
X174649508Y-94565000D01*
X174438691Y-94585764D01*
X174168192Y-94667818D01*
X173918899Y-94801068D01*
X173700392Y-94980392D01*
X173521068Y-95198899D01*
X173450000Y-95331858D01*
X173378932Y-95198899D01*
X173199608Y-94980392D01*
X172981101Y-94801068D01*
X172731808Y-94667818D01*
X172461309Y-94585764D01*
X172250492Y-94565000D01*
X172109508Y-94565000D01*
X171898691Y-94585764D01*
X171628192Y-94667818D01*
X171378899Y-94801068D01*
X171160392Y-94980392D01*
X170981068Y-95198899D01*
X170910000Y-95331858D01*
X170838932Y-95198899D01*
X170659608Y-94980392D01*
X170441101Y-94801068D01*
X170191808Y-94667818D01*
X169921309Y-94585764D01*
X169710492Y-94565000D01*
X169569508Y-94565000D01*
X169358691Y-94585764D01*
X169088192Y-94667818D01*
X168838899Y-94801068D01*
X168620392Y-94980392D01*
X168441068Y-95198899D01*
X168370000Y-95331858D01*
X168298932Y-95198899D01*
X168119608Y-94980392D01*
X167901101Y-94801068D01*
X167651808Y-94667818D01*
X167381309Y-94585764D01*
X167170492Y-94565000D01*
X167029508Y-94565000D01*
X166818691Y-94585764D01*
X166548192Y-94667818D01*
X166298899Y-94801068D01*
X166080392Y-94980392D01*
X165901068Y-95198899D01*
X165830000Y-95331858D01*
X165758932Y-95198899D01*
X165579608Y-94980392D01*
X165361101Y-94801068D01*
X165111808Y-94667818D01*
X164841309Y-94585764D01*
X164630492Y-94565000D01*
X164489508Y-94565000D01*
X164278691Y-94585764D01*
X164008192Y-94667818D01*
X163758899Y-94801068D01*
X163540392Y-94980392D01*
X163361068Y-95198899D01*
X163290000Y-95331858D01*
X163218932Y-95198899D01*
X163039608Y-94980392D01*
X162821101Y-94801068D01*
X162571808Y-94667818D01*
X162301309Y-94585764D01*
X162090492Y-94565000D01*
X161949508Y-94565000D01*
X161738691Y-94585764D01*
X161468192Y-94667818D01*
X161218899Y-94801068D01*
X161000392Y-94980392D01*
X160821068Y-95198899D01*
X160750000Y-95331858D01*
X160678932Y-95198899D01*
X160499608Y-94980392D01*
X160281101Y-94801068D01*
X160031808Y-94667818D01*
X159761309Y-94585764D01*
X159550492Y-94565000D01*
X159409508Y-94565000D01*
X159198691Y-94585764D01*
X158928192Y-94667818D01*
X158678899Y-94801068D01*
X158460392Y-94980392D01*
X158281068Y-95198899D01*
X158210000Y-95331858D01*
X158138932Y-95198899D01*
X157959608Y-94980392D01*
X157741101Y-94801068D01*
X157491808Y-94667818D01*
X157221309Y-94585764D01*
X157010492Y-94565000D01*
X156869508Y-94565000D01*
X156658691Y-94585764D01*
X156388192Y-94667818D01*
X156138899Y-94801068D01*
X155920392Y-94980392D01*
X155741068Y-95198899D01*
X155607818Y-95448192D01*
X155525764Y-95718691D01*
X155498057Y-96000000D01*
X129510000Y-96000000D01*
X129510000Y-94201211D01*
X129923711Y-93787500D01*
X207211928Y-93787500D01*
X207224188Y-93911982D01*
X207260498Y-94031680D01*
X207319463Y-94141994D01*
X207398815Y-94238685D01*
X207495506Y-94318037D01*
X207605820Y-94377002D01*
X207725518Y-94413312D01*
X207850000Y-94425572D01*
X208214250Y-94422500D01*
X208373000Y-94263750D01*
X208373000Y-92727000D01*
X207373750Y-92727000D01*
X207215000Y-92885750D01*
X207211928Y-93787500D01*
X129923711Y-93787500D01*
X134313150Y-89398061D01*
X198215000Y-89398061D01*
X198215000Y-89601939D01*
X198254774Y-89801898D01*
X198332795Y-89990256D01*
X198446063Y-90159774D01*
X198590226Y-90303937D01*
X198759744Y-90417205D01*
X198948102Y-90495226D01*
X199148061Y-90535000D01*
X199351939Y-90535000D01*
X199551898Y-90495226D01*
X199740256Y-90417205D01*
X199909774Y-90303937D01*
X199953711Y-90260000D01*
X201639676Y-90260000D01*
X201676998Y-90263676D01*
X201714320Y-90260000D01*
X201714331Y-90260000D01*
X201825984Y-90249003D01*
X201969245Y-90205546D01*
X202101274Y-90134974D01*
X202216999Y-90040001D01*
X202240802Y-90010997D01*
X204019044Y-88232755D01*
X204090226Y-88303937D01*
X204259744Y-88417205D01*
X204448102Y-88495226D01*
X204648061Y-88535000D01*
X204710199Y-88535000D01*
X206761201Y-90586003D01*
X206785000Y-90615002D01*
X206900725Y-90709975D01*
X207032754Y-90780547D01*
X207176015Y-90824004D01*
X207287668Y-90835001D01*
X207287677Y-90835001D01*
X207325000Y-90838677D01*
X207362323Y-90835001D01*
X207583364Y-90835001D01*
X207495506Y-90881963D01*
X207398815Y-90961315D01*
X207319463Y-91058006D01*
X207260498Y-91168320D01*
X207224188Y-91288018D01*
X207211928Y-91412500D01*
X207215000Y-92314250D01*
X207373750Y-92473000D01*
X208373000Y-92473000D01*
X208373000Y-92453000D01*
X208627000Y-92453000D01*
X208627000Y-92473000D01*
X208647000Y-92473000D01*
X208647000Y-92727000D01*
X208627000Y-92727000D01*
X208627000Y-94263750D01*
X208785750Y-94422500D01*
X209150000Y-94425572D01*
X209274482Y-94413312D01*
X209394180Y-94377002D01*
X209504494Y-94318037D01*
X209601185Y-94238685D01*
X209680537Y-94141994D01*
X209739502Y-94031680D01*
X209750000Y-93997073D01*
X209760498Y-94031680D01*
X209819463Y-94141994D01*
X209898815Y-94238685D01*
X209995506Y-94318037D01*
X210105820Y-94377002D01*
X210225518Y-94413312D01*
X210350000Y-94425572D01*
X211650000Y-94425572D01*
X211774482Y-94413312D01*
X211894180Y-94377002D01*
X212004494Y-94318037D01*
X212101185Y-94238685D01*
X212180537Y-94141994D01*
X212239502Y-94031680D01*
X212250000Y-93997073D01*
X212260498Y-94031680D01*
X212319463Y-94141994D01*
X212398815Y-94238685D01*
X212495506Y-94318037D01*
X212605820Y-94377002D01*
X212725518Y-94413312D01*
X212850000Y-94425572D01*
X214150000Y-94425572D01*
X214274482Y-94413312D01*
X214394180Y-94377002D01*
X214504494Y-94318037D01*
X214601185Y-94238685D01*
X214680537Y-94141994D01*
X214739502Y-94031680D01*
X214746079Y-94010000D01*
X215621291Y-94010000D01*
X221990000Y-100378710D01*
X221990001Y-107532668D01*
X221986324Y-107570000D01*
X221990001Y-107607333D01*
X221992553Y-107633238D01*
X222000998Y-107718985D01*
X222044454Y-107862246D01*
X222115026Y-107994276D01*
X222159925Y-108048985D01*
X222210000Y-108110001D01*
X222238998Y-108133799D01*
X222647177Y-108541978D01*
X222621705Y-108625949D01*
X222592743Y-108920000D01*
X222621705Y-109214051D01*
X222707476Y-109496802D01*
X222846762Y-109757387D01*
X223034208Y-109985792D01*
X223262613Y-110173238D01*
X223293972Y-110190000D01*
X223262613Y-110206762D01*
X223034208Y-110394208D01*
X222846762Y-110622613D01*
X222707476Y-110883198D01*
X222621705Y-111165949D01*
X222592743Y-111460000D01*
X222621705Y-111754051D01*
X222707476Y-112036802D01*
X222846762Y-112297387D01*
X223034208Y-112525792D01*
X223040030Y-112530570D01*
X222990820Y-112545498D01*
X222880506Y-112604463D01*
X222783815Y-112683815D01*
X222704463Y-112780506D01*
X222645498Y-112890820D01*
X222609188Y-113010518D01*
X222596928Y-113135000D01*
X222600000Y-113714250D01*
X222758750Y-113873000D01*
X224123000Y-113873000D01*
X224123000Y-113853000D01*
X224377000Y-113853000D01*
X224377000Y-113873000D01*
X225741250Y-113873000D01*
X225900000Y-113714250D01*
X225903072Y-113135000D01*
X225890812Y-113010518D01*
X225854502Y-112890820D01*
X225795537Y-112780506D01*
X225716185Y-112683815D01*
X225619494Y-112604463D01*
X225509180Y-112545498D01*
X225459970Y-112530570D01*
X225465792Y-112525792D01*
X225653238Y-112297387D01*
X225792524Y-112036802D01*
X225878295Y-111754051D01*
X225907257Y-111460000D01*
X225878295Y-111165949D01*
X225792524Y-110883198D01*
X225653238Y-110622613D01*
X225465792Y-110394208D01*
X225237387Y-110206762D01*
X225206028Y-110190000D01*
X225237387Y-110173238D01*
X225465792Y-109985792D01*
X225616414Y-109802258D01*
X225654606Y-109840450D01*
X225848692Y-109970134D01*
X226064348Y-110059461D01*
X226293288Y-110105000D01*
X226526712Y-110105000D01*
X226755652Y-110059461D01*
X226971308Y-109970134D01*
X227165394Y-109840450D01*
X227330450Y-109675394D01*
X227460134Y-109481308D01*
X227549461Y-109265652D01*
X227595000Y-109036712D01*
X227595000Y-108803288D01*
X227549461Y-108574348D01*
X227460134Y-108358692D01*
X227330450Y-108164606D01*
X227165394Y-107999550D01*
X226971308Y-107869866D01*
X226755652Y-107780539D01*
X226526712Y-107735000D01*
X226293288Y-107735000D01*
X226064348Y-107780539D01*
X225848692Y-107869866D01*
X225654606Y-107999550D01*
X225616414Y-108037742D01*
X225465792Y-107854208D01*
X225237387Y-107666762D01*
X225206028Y-107650000D01*
X225237387Y-107633238D01*
X225465792Y-107445792D01*
X225653238Y-107217387D01*
X225792524Y-106956802D01*
X225878295Y-106674051D01*
X225907257Y-106380000D01*
X225878295Y-106085949D01*
X225792524Y-105803198D01*
X225653238Y-105542613D01*
X225465792Y-105314208D01*
X225237387Y-105126762D01*
X225010000Y-105005221D01*
X225010000Y-100964823D01*
X225013676Y-100927498D01*
X225010000Y-100890173D01*
X225010000Y-100890165D01*
X224999003Y-100778512D01*
X224955546Y-100635251D01*
X224884974Y-100503222D01*
X224790001Y-100387497D01*
X224761004Y-100363700D01*
X213122875Y-88725572D01*
X214150000Y-88725572D01*
X214274482Y-88713312D01*
X214394180Y-88677002D01*
X214504494Y-88618037D01*
X214601185Y-88538685D01*
X214680537Y-88441994D01*
X214739502Y-88331680D01*
X214775812Y-88211982D01*
X214788072Y-88087500D01*
X214788072Y-85712500D01*
X214775812Y-85588018D01*
X214739502Y-85468320D01*
X214680537Y-85358006D01*
X214601185Y-85261315D01*
X214504494Y-85181963D01*
X214394180Y-85122998D01*
X214274482Y-85086688D01*
X214150000Y-85074428D01*
X212850000Y-85074428D01*
X212725518Y-85086688D01*
X212605820Y-85122998D01*
X212495506Y-85181963D01*
X212398815Y-85261315D01*
X212319463Y-85358006D01*
X212260498Y-85468320D01*
X212250000Y-85502927D01*
X212239502Y-85468320D01*
X212180537Y-85358006D01*
X212101185Y-85261315D01*
X212004494Y-85181963D01*
X211894180Y-85122998D01*
X211774482Y-85086688D01*
X211650000Y-85074428D01*
X210350000Y-85074428D01*
X210225518Y-85086688D01*
X210105820Y-85122998D01*
X209995506Y-85181963D01*
X209898815Y-85261315D01*
X209819463Y-85358006D01*
X209760498Y-85468320D01*
X209750000Y-85502927D01*
X209739502Y-85468320D01*
X209680537Y-85358006D01*
X209601185Y-85261315D01*
X209504494Y-85181963D01*
X209394180Y-85122998D01*
X209274482Y-85086688D01*
X209260000Y-85085262D01*
X209260000Y-84287322D01*
X209263676Y-84249999D01*
X209260000Y-84212676D01*
X209260000Y-84212667D01*
X209249003Y-84101014D01*
X209205546Y-83957753D01*
X209134975Y-83825725D01*
X209134974Y-83825723D01*
X209063799Y-83738997D01*
X209040001Y-83709999D01*
X209011004Y-83686202D01*
X207535000Y-82210199D01*
X207535000Y-82148061D01*
X207495226Y-81948102D01*
X207417205Y-81759744D01*
X207303937Y-81590226D01*
X207159774Y-81446063D01*
X206990256Y-81332795D01*
X206801898Y-81254774D01*
X206601939Y-81215000D01*
X206398061Y-81215000D01*
X206198102Y-81254774D01*
X206009744Y-81332795D01*
X205840226Y-81446063D01*
X205696063Y-81590226D01*
X205582795Y-81759744D01*
X205504774Y-81948102D01*
X205465000Y-82148061D01*
X205465000Y-82351939D01*
X205504774Y-82551898D01*
X205582795Y-82740256D01*
X205696063Y-82909774D01*
X205840226Y-83053937D01*
X206009744Y-83167205D01*
X206198102Y-83245226D01*
X206398061Y-83285000D01*
X206460199Y-83285000D01*
X207740000Y-84564802D01*
X207740000Y-85085262D01*
X207725518Y-85086688D01*
X207605820Y-85122998D01*
X207495506Y-85181963D01*
X207398815Y-85261315D01*
X207319463Y-85358006D01*
X207260498Y-85468320D01*
X207224188Y-85588018D01*
X207211928Y-85712500D01*
X207211928Y-86959628D01*
X206516300Y-86264001D01*
X206492498Y-86234998D01*
X206376773Y-86140025D01*
X206244744Y-86069453D01*
X206101483Y-86025996D01*
X205989830Y-86014999D01*
X205989819Y-86014999D01*
X205952497Y-86011323D01*
X205915175Y-86014999D01*
X204439321Y-86014999D01*
X204401998Y-86011323D01*
X204364675Y-86014999D01*
X204364666Y-86014999D01*
X204253013Y-86025996D01*
X204109752Y-86069453D01*
X203977723Y-86140025D01*
X203861998Y-86234998D01*
X203838200Y-86263996D01*
X201362197Y-88740000D01*
X199953711Y-88740000D01*
X199909774Y-88696063D01*
X199740256Y-88582795D01*
X199551898Y-88504774D01*
X199351939Y-88465000D01*
X199148061Y-88465000D01*
X198948102Y-88504774D01*
X198759744Y-88582795D01*
X198590226Y-88696063D01*
X198446063Y-88840226D01*
X198332795Y-89009744D01*
X198254774Y-89198102D01*
X198215000Y-89398061D01*
X134313150Y-89398061D01*
X139968509Y-83742702D01*
X200436903Y-83742702D01*
X200508486Y-83986671D01*
X200763996Y-84107571D01*
X201038184Y-84176300D01*
X201320512Y-84190217D01*
X201600130Y-84148787D01*
X201866292Y-84053603D01*
X201991514Y-83986671D01*
X202063097Y-83742702D01*
X201250000Y-82929605D01*
X200436903Y-83742702D01*
X139968509Y-83742702D01*
X140890699Y-82820512D01*
X199809783Y-82820512D01*
X199851213Y-83100130D01*
X199946397Y-83366292D01*
X200013329Y-83491514D01*
X200257298Y-83563097D01*
X201070395Y-82750000D01*
X201429605Y-82750000D01*
X202242702Y-83563097D01*
X202311928Y-83542785D01*
X202311928Y-83550000D01*
X202324188Y-83674482D01*
X202360498Y-83794180D01*
X202419463Y-83904494D01*
X202498815Y-84001185D01*
X202595506Y-84080537D01*
X202705820Y-84139502D01*
X202825518Y-84175812D01*
X202950000Y-84188072D01*
X204550000Y-84188072D01*
X204674482Y-84175812D01*
X204794180Y-84139502D01*
X204904494Y-84080537D01*
X205001185Y-84001185D01*
X205080537Y-83904494D01*
X205139502Y-83794180D01*
X205175812Y-83674482D01*
X205188072Y-83550000D01*
X205188072Y-81950000D01*
X205175812Y-81825518D01*
X205139502Y-81705820D01*
X205080537Y-81595506D01*
X205001185Y-81498815D01*
X204904494Y-81419463D01*
X204794180Y-81360498D01*
X204674482Y-81324188D01*
X204550000Y-81311928D01*
X202950000Y-81311928D01*
X202825518Y-81324188D01*
X202705820Y-81360498D01*
X202595506Y-81419463D01*
X202498815Y-81498815D01*
X202419463Y-81595506D01*
X202360498Y-81705820D01*
X202324188Y-81825518D01*
X202311928Y-81950000D01*
X202311928Y-81957215D01*
X202242702Y-81936903D01*
X201429605Y-82750000D01*
X201070395Y-82750000D01*
X200257298Y-81936903D01*
X200013329Y-82008486D01*
X199892429Y-82263996D01*
X199823700Y-82538184D01*
X199809783Y-82820512D01*
X140890699Y-82820512D01*
X145751202Y-77960010D01*
X181005209Y-77960010D01*
X182370199Y-79325000D01*
X182269508Y-79325000D01*
X182058691Y-79345764D01*
X181788192Y-79427818D01*
X181538899Y-79561068D01*
X181320392Y-79740392D01*
X181141068Y-79958899D01*
X181070000Y-80091858D01*
X180998932Y-79958899D01*
X180819608Y-79740392D01*
X180601101Y-79561068D01*
X180351808Y-79427818D01*
X180081309Y-79345764D01*
X179870492Y-79325000D01*
X179729508Y-79325000D01*
X179518691Y-79345764D01*
X179248192Y-79427818D01*
X178998899Y-79561068D01*
X178780392Y-79740392D01*
X178601068Y-79958899D01*
X178530000Y-80091858D01*
X178458932Y-79958899D01*
X178279608Y-79740392D01*
X178061101Y-79561068D01*
X177811808Y-79427818D01*
X177541309Y-79345764D01*
X177330492Y-79325000D01*
X177189508Y-79325000D01*
X176978691Y-79345764D01*
X176708192Y-79427818D01*
X176458899Y-79561068D01*
X176240392Y-79740392D01*
X176061068Y-79958899D01*
X175990000Y-80091858D01*
X175918932Y-79958899D01*
X175739608Y-79740392D01*
X175521101Y-79561068D01*
X175271808Y-79427818D01*
X175001309Y-79345764D01*
X174790492Y-79325000D01*
X174649508Y-79325000D01*
X174438691Y-79345764D01*
X174168192Y-79427818D01*
X173918899Y-79561068D01*
X173700392Y-79740392D01*
X173521068Y-79958899D01*
X173450000Y-80091858D01*
X173378932Y-79958899D01*
X173199608Y-79740392D01*
X172981101Y-79561068D01*
X172731808Y-79427818D01*
X172461309Y-79345764D01*
X172250492Y-79325000D01*
X172109508Y-79325000D01*
X171898691Y-79345764D01*
X171628192Y-79427818D01*
X171378899Y-79561068D01*
X171160392Y-79740392D01*
X170981068Y-79958899D01*
X170910000Y-80091858D01*
X170838932Y-79958899D01*
X170659608Y-79740392D01*
X170441101Y-79561068D01*
X170191808Y-79427818D01*
X169921309Y-79345764D01*
X169710492Y-79325000D01*
X169569508Y-79325000D01*
X169358691Y-79345764D01*
X169088192Y-79427818D01*
X168838899Y-79561068D01*
X168620392Y-79740392D01*
X168441068Y-79958899D01*
X168370000Y-80091858D01*
X168298932Y-79958899D01*
X168119608Y-79740392D01*
X167901101Y-79561068D01*
X167651808Y-79427818D01*
X167381309Y-79345764D01*
X167170492Y-79325000D01*
X167029508Y-79325000D01*
X166818691Y-79345764D01*
X166548192Y-79427818D01*
X166298899Y-79561068D01*
X166080392Y-79740392D01*
X165901068Y-79958899D01*
X165830000Y-80091858D01*
X165758932Y-79958899D01*
X165579608Y-79740392D01*
X165361101Y-79561068D01*
X165111808Y-79427818D01*
X164841309Y-79345764D01*
X164630492Y-79325000D01*
X164489508Y-79325000D01*
X164278691Y-79345764D01*
X164008192Y-79427818D01*
X163758899Y-79561068D01*
X163540392Y-79740392D01*
X163361068Y-79958899D01*
X163290000Y-80091858D01*
X163218932Y-79958899D01*
X163039608Y-79740392D01*
X162821101Y-79561068D01*
X162571808Y-79427818D01*
X162301309Y-79345764D01*
X162090492Y-79325000D01*
X161949508Y-79325000D01*
X161738691Y-79345764D01*
X161468192Y-79427818D01*
X161218899Y-79561068D01*
X161000392Y-79740392D01*
X160821068Y-79958899D01*
X160750000Y-80091858D01*
X160678932Y-79958899D01*
X160499608Y-79740392D01*
X160281101Y-79561068D01*
X160031808Y-79427818D01*
X159761309Y-79345764D01*
X159550492Y-79325000D01*
X159409508Y-79325000D01*
X159198691Y-79345764D01*
X158928192Y-79427818D01*
X158678899Y-79561068D01*
X158460392Y-79740392D01*
X158281068Y-79958899D01*
X158210000Y-80091858D01*
X158138932Y-79958899D01*
X157959608Y-79740392D01*
X157741101Y-79561068D01*
X157491808Y-79427818D01*
X157221309Y-79345764D01*
X157010492Y-79325000D01*
X156869508Y-79325000D01*
X156658691Y-79345764D01*
X156388192Y-79427818D01*
X156138899Y-79561068D01*
X155920392Y-79740392D01*
X155741068Y-79958899D01*
X155607818Y-80208192D01*
X155525764Y-80478691D01*
X155498057Y-80760000D01*
X155525764Y-81041309D01*
X155607818Y-81311808D01*
X155741068Y-81561101D01*
X155920392Y-81779608D01*
X156138899Y-81958932D01*
X156388192Y-82092182D01*
X156658691Y-82174236D01*
X156869508Y-82195000D01*
X157010492Y-82195000D01*
X157221309Y-82174236D01*
X157491808Y-82092182D01*
X157741101Y-81958932D01*
X157959608Y-81779608D01*
X158138932Y-81561101D01*
X158210000Y-81428142D01*
X158281068Y-81561101D01*
X158460392Y-81779608D01*
X158678899Y-81958932D01*
X158928192Y-82092182D01*
X159198691Y-82174236D01*
X159409508Y-82195000D01*
X159550492Y-82195000D01*
X159761309Y-82174236D01*
X160031808Y-82092182D01*
X160281101Y-81958932D01*
X160499608Y-81779608D01*
X160678932Y-81561101D01*
X160750000Y-81428142D01*
X160821068Y-81561101D01*
X161000392Y-81779608D01*
X161218899Y-81958932D01*
X161468192Y-82092182D01*
X161738691Y-82174236D01*
X161949508Y-82195000D01*
X162090492Y-82195000D01*
X162301309Y-82174236D01*
X162571808Y-82092182D01*
X162821101Y-81958932D01*
X163039608Y-81779608D01*
X163218932Y-81561101D01*
X163290000Y-81428142D01*
X163361068Y-81561101D01*
X163540392Y-81779608D01*
X163758899Y-81958932D01*
X164008192Y-82092182D01*
X164278691Y-82174236D01*
X164489508Y-82195000D01*
X164630492Y-82195000D01*
X164841309Y-82174236D01*
X165111808Y-82092182D01*
X165361101Y-81958932D01*
X165579608Y-81779608D01*
X165758932Y-81561101D01*
X165830000Y-81428142D01*
X165901068Y-81561101D01*
X166080392Y-81779608D01*
X166298899Y-81958932D01*
X166548192Y-82092182D01*
X166818691Y-82174236D01*
X167029508Y-82195000D01*
X167170492Y-82195000D01*
X167381309Y-82174236D01*
X167651808Y-82092182D01*
X167901101Y-81958932D01*
X168119608Y-81779608D01*
X168298932Y-81561101D01*
X168370000Y-81428142D01*
X168441068Y-81561101D01*
X168620392Y-81779608D01*
X168838899Y-81958932D01*
X169088192Y-82092182D01*
X169358691Y-82174236D01*
X169569508Y-82195000D01*
X169710492Y-82195000D01*
X169921309Y-82174236D01*
X170191808Y-82092182D01*
X170441101Y-81958932D01*
X170659608Y-81779608D01*
X170838932Y-81561101D01*
X170910000Y-81428142D01*
X170981068Y-81561101D01*
X171160392Y-81779608D01*
X171378899Y-81958932D01*
X171628192Y-82092182D01*
X171898691Y-82174236D01*
X172109508Y-82195000D01*
X172250492Y-82195000D01*
X172461309Y-82174236D01*
X172731808Y-82092182D01*
X172981101Y-81958932D01*
X173199608Y-81779608D01*
X173378932Y-81561101D01*
X173450000Y-81428142D01*
X173521068Y-81561101D01*
X173700392Y-81779608D01*
X173918899Y-81958932D01*
X174168192Y-82092182D01*
X174438691Y-82174236D01*
X174649508Y-82195000D01*
X174790492Y-82195000D01*
X175001309Y-82174236D01*
X175271808Y-82092182D01*
X175521101Y-81958932D01*
X175739608Y-81779608D01*
X175918932Y-81561101D01*
X175990000Y-81428142D01*
X176061068Y-81561101D01*
X176240392Y-81779608D01*
X176458899Y-81958932D01*
X176708192Y-82092182D01*
X176978691Y-82174236D01*
X177189508Y-82195000D01*
X177330492Y-82195000D01*
X177541309Y-82174236D01*
X177811808Y-82092182D01*
X178061101Y-81958932D01*
X178279608Y-81779608D01*
X178458932Y-81561101D01*
X178530000Y-81428142D01*
X178601068Y-81561101D01*
X178780392Y-81779608D01*
X178998899Y-81958932D01*
X179248192Y-82092182D01*
X179518691Y-82174236D01*
X179729508Y-82195000D01*
X179870492Y-82195000D01*
X180081309Y-82174236D01*
X180351808Y-82092182D01*
X180601101Y-81958932D01*
X180819608Y-81779608D01*
X180998932Y-81561101D01*
X181070000Y-81428142D01*
X181141068Y-81561101D01*
X181320392Y-81779608D01*
X181538899Y-81958932D01*
X181788192Y-82092182D01*
X182058691Y-82174236D01*
X182269508Y-82195000D01*
X182410492Y-82195000D01*
X182621309Y-82174236D01*
X182891808Y-82092182D01*
X183141101Y-81958932D01*
X183359608Y-81779608D01*
X183538932Y-81561101D01*
X183610000Y-81428142D01*
X183681068Y-81561101D01*
X183860392Y-81779608D01*
X184078899Y-81958932D01*
X184328192Y-82092182D01*
X184598691Y-82174236D01*
X184809508Y-82195000D01*
X184950492Y-82195000D01*
X185161309Y-82174236D01*
X185431808Y-82092182D01*
X185681101Y-81958932D01*
X185899608Y-81779608D01*
X186078932Y-81561101D01*
X186150000Y-81428142D01*
X186221068Y-81561101D01*
X186400392Y-81779608D01*
X186618899Y-81958932D01*
X186868192Y-82092182D01*
X187138691Y-82174236D01*
X187349508Y-82195000D01*
X187490492Y-82195000D01*
X187701309Y-82174236D01*
X187971808Y-82092182D01*
X188221101Y-81958932D01*
X188439608Y-81779608D01*
X188618932Y-81561101D01*
X188692579Y-81423318D01*
X188807615Y-81615131D01*
X188996586Y-81823519D01*
X189222580Y-81991037D01*
X189476913Y-82111246D01*
X189610961Y-82151904D01*
X189833000Y-82029915D01*
X189833000Y-80887000D01*
X189813000Y-80887000D01*
X189813000Y-80633000D01*
X189833000Y-80633000D01*
X189833000Y-79490085D01*
X189610961Y-79368096D01*
X189476913Y-79408754D01*
X189222580Y-79528963D01*
X188996586Y-79696481D01*
X188807615Y-79904869D01*
X188692579Y-80096682D01*
X188618932Y-79958899D01*
X188439608Y-79740392D01*
X188221101Y-79561068D01*
X187971808Y-79427818D01*
X187701309Y-79345764D01*
X187490492Y-79325000D01*
X187349508Y-79325000D01*
X187138691Y-79345764D01*
X186868192Y-79427818D01*
X186618899Y-79561068D01*
X186400392Y-79740392D01*
X186221068Y-79958899D01*
X186150000Y-80091858D01*
X186078932Y-79958899D01*
X185899608Y-79740392D01*
X185681101Y-79561068D01*
X185431808Y-79427818D01*
X185161309Y-79345764D01*
X184950492Y-79325000D01*
X184809508Y-79325000D01*
X184598691Y-79345764D01*
X184554094Y-79359292D01*
X182704801Y-77510000D01*
X188175199Y-77510000D01*
X190131070Y-79465873D01*
X190087000Y-79490085D01*
X190087000Y-80633000D01*
X190107000Y-80633000D01*
X190107000Y-80887000D01*
X190087000Y-80887000D01*
X190087000Y-82029915D01*
X190309039Y-82151904D01*
X190443087Y-82111246D01*
X190697420Y-81991037D01*
X190923414Y-81823519D01*
X191112385Y-81615131D01*
X191227421Y-81423318D01*
X191301068Y-81561101D01*
X191480392Y-81779608D01*
X191698899Y-81958932D01*
X191948192Y-82092182D01*
X192218691Y-82174236D01*
X192429508Y-82195000D01*
X192570492Y-82195000D01*
X192781309Y-82174236D01*
X193051808Y-82092182D01*
X193301101Y-81958932D01*
X193519608Y-81779608D01*
X193537917Y-81757298D01*
X200436903Y-81757298D01*
X201250000Y-82570395D01*
X202063097Y-81757298D01*
X201991514Y-81513329D01*
X201736004Y-81392429D01*
X201461816Y-81323700D01*
X201179488Y-81309783D01*
X200899870Y-81351213D01*
X200633708Y-81446397D01*
X200508486Y-81513329D01*
X200436903Y-81757298D01*
X193537917Y-81757298D01*
X193698932Y-81561101D01*
X193832182Y-81311808D01*
X193914236Y-81041309D01*
X193941943Y-80760000D01*
X193914236Y-80478691D01*
X193832182Y-80208192D01*
X193698932Y-79958899D01*
X193519608Y-79740392D01*
X193301101Y-79561068D01*
X193051808Y-79427818D01*
X192781309Y-79345764D01*
X192570492Y-79325000D01*
X192429508Y-79325000D01*
X192218691Y-79345764D01*
X192174095Y-79359292D01*
X191256787Y-78441984D01*
X208765000Y-78441984D01*
X208765000Y-79158016D01*
X208904691Y-79860290D01*
X209178705Y-80521818D01*
X209576511Y-81117177D01*
X210082823Y-81623489D01*
X210678182Y-82021295D01*
X211339710Y-82295309D01*
X212041984Y-82435000D01*
X212758016Y-82435000D01*
X213460290Y-82295309D01*
X214121818Y-82021295D01*
X214717177Y-81623489D01*
X215223489Y-81117177D01*
X215621295Y-80521818D01*
X215895309Y-79860290D01*
X216035000Y-79158016D01*
X216035000Y-78441984D01*
X215895309Y-77739710D01*
X215621295Y-77078182D01*
X215223489Y-76482823D01*
X214717177Y-75976511D01*
X214121818Y-75578705D01*
X213460290Y-75304691D01*
X212758016Y-75165000D01*
X212041984Y-75165000D01*
X211339710Y-75304691D01*
X210678182Y-75578705D01*
X210082823Y-75976511D01*
X209576511Y-76482823D01*
X209178705Y-77078182D01*
X208904691Y-77739710D01*
X208765000Y-78441984D01*
X191256787Y-78441984D01*
X189053804Y-76239003D01*
X189030001Y-76209999D01*
X188914276Y-76115026D01*
X188782247Y-76044454D01*
X188638986Y-76000997D01*
X188527333Y-75990000D01*
X188527322Y-75990000D01*
X188490000Y-75986324D01*
X188452678Y-75990000D01*
X145287322Y-75990000D01*
X145249999Y-75986324D01*
X145212676Y-75990000D01*
X145212667Y-75990000D01*
X145101014Y-76000997D01*
X144957753Y-76044454D01*
X144825723Y-76115026D01*
X144742083Y-76183668D01*
X144709999Y-76209999D01*
X144686201Y-76238997D01*
X126738998Y-94186201D01*
X126710000Y-94209999D01*
X126686202Y-94238997D01*
X126686201Y-94238998D01*
X126615026Y-94325724D01*
X126544454Y-94457754D01*
X126525153Y-94521384D01*
X126500998Y-94601014D01*
X126500064Y-94610498D01*
X126486324Y-94750000D01*
X126490001Y-94787332D01*
X126490000Y-108045221D01*
X126262613Y-108166762D01*
X126034208Y-108354208D01*
X125846762Y-108582613D01*
X125707476Y-108843198D01*
X125621705Y-109125949D01*
X125592743Y-109420000D01*
X121660000Y-109420000D01*
X121660000Y-82860000D01*
X126967581Y-82860000D01*
X127000000Y-82863193D01*
X127032419Y-82860000D01*
X127129383Y-82850450D01*
X127253793Y-82812710D01*
X127368450Y-82751425D01*
X127468948Y-82668948D01*
X127551425Y-82568450D01*
X127612710Y-82453793D01*
X127650450Y-82329383D01*
X127663193Y-82200000D01*
X127660000Y-82167581D01*
X127660000Y-78441984D01*
X129965000Y-78441984D01*
X129965000Y-79158016D01*
X130104691Y-79860290D01*
X130378705Y-80521818D01*
X130776511Y-81117177D01*
X131282823Y-81623489D01*
X131878182Y-82021295D01*
X132539710Y-82295309D01*
X133241984Y-82435000D01*
X133958016Y-82435000D01*
X134660290Y-82295309D01*
X135321818Y-82021295D01*
X135917177Y-81623489D01*
X136423489Y-81117177D01*
X136821295Y-80521818D01*
X137095309Y-79860290D01*
X137235000Y-79158016D01*
X137235000Y-78441984D01*
X137095309Y-77739710D01*
X136821295Y-77078182D01*
X136423489Y-76482823D01*
X135917177Y-75976511D01*
X135321818Y-75578705D01*
X134660290Y-75304691D01*
X133958016Y-75165000D01*
X133241984Y-75165000D01*
X132539710Y-75304691D01*
X131878182Y-75578705D01*
X131282823Y-75976511D01*
X130776511Y-76482823D01*
X130378705Y-77078182D01*
X130104691Y-77739710D01*
X129965000Y-78441984D01*
X127660000Y-78441984D01*
X127660000Y-73860000D01*
X217170953Y-73860000D01*
X217170953Y-76277500D01*
X217170953Y-76277500D01*
G37*
X217170953Y-76277500D02*
X222340000Y-76277500D01*
X222340001Y-82167571D01*
X222336807Y-82200000D01*
X222349550Y-82329383D01*
X222387290Y-82453793D01*
X222448575Y-82568450D01*
X222531052Y-82668948D01*
X222631550Y-82751425D01*
X222746207Y-82812710D01*
X222870617Y-82850450D01*
X222967581Y-82860000D01*
X223000000Y-82863193D01*
X223032419Y-82860000D01*
X228340000Y-82860000D01*
X228340001Y-117540000D01*
X223032419Y-117540000D01*
X223000000Y-117536807D01*
X222967581Y-117540000D01*
X222870617Y-117549550D01*
X222746207Y-117587290D01*
X222631550Y-117648575D01*
X222531052Y-117731052D01*
X222448575Y-117831550D01*
X222387290Y-117946207D01*
X222349550Y-118070617D01*
X222336807Y-118200000D01*
X222340000Y-118232418D01*
X222340001Y-123540000D01*
X127660000Y-123540000D01*
X127660000Y-121868514D01*
X210665000Y-121868514D01*
X210665000Y-122131486D01*
X210716304Y-122389405D01*
X210816939Y-122632359D01*
X210963038Y-122851013D01*
X211148987Y-123036962D01*
X211367641Y-123183061D01*
X211610595Y-123283696D01*
X211868514Y-123335000D01*
X212131486Y-123335000D01*
X212389405Y-123283696D01*
X212632359Y-123183061D01*
X212851013Y-123036962D01*
X213036962Y-122851013D01*
X213183061Y-122632359D01*
X213283696Y-122389405D01*
X213335000Y-122131486D01*
X213335000Y-121868514D01*
X213665000Y-121868514D01*
X213665000Y-122131486D01*
X213716304Y-122389405D01*
X213816939Y-122632359D01*
X213963038Y-122851013D01*
X214148987Y-123036962D01*
X214367641Y-123183061D01*
X214610595Y-123283696D01*
X214868514Y-123335000D01*
X215131486Y-123335000D01*
X215389405Y-123283696D01*
X215632359Y-123183061D01*
X215851013Y-123036962D01*
X216036962Y-122851013D01*
X216183061Y-122632359D01*
X216283696Y-122389405D01*
X216335000Y-122131486D01*
X216335000Y-121868514D01*
X216665000Y-121868514D01*
X216665000Y-122131486D01*
X216716304Y-122389405D01*
X216816939Y-122632359D01*
X216963038Y-122851013D01*
X217148987Y-123036962D01*
X217367641Y-123183061D01*
X217610595Y-123283696D01*
X217868514Y-123335000D01*
X218131486Y-123335000D01*
X218389405Y-123283696D01*
X218632359Y-123183061D01*
X218851013Y-123036962D01*
X219036962Y-122851013D01*
X219183061Y-122632359D01*
X219283696Y-122389405D01*
X219335000Y-122131486D01*
X219335000Y-121868514D01*
X219283696Y-121610595D01*
X219183061Y-121367641D01*
X219036962Y-121148987D01*
X218851013Y-120963038D01*
X218632359Y-120816939D01*
X218389405Y-120716304D01*
X218131486Y-120665000D01*
X217868514Y-120665000D01*
X217610595Y-120716304D01*
X217367641Y-120816939D01*
X217148987Y-120963038D01*
X216963038Y-121148987D01*
X216816939Y-121367641D01*
X216716304Y-121610595D01*
X216665000Y-121868514D01*
X216335000Y-121868514D01*
X216283696Y-121610595D01*
X216183061Y-121367641D01*
X216036962Y-121148987D01*
X215851013Y-120963038D01*
X215632359Y-120816939D01*
X215389405Y-120716304D01*
X215131486Y-120665000D01*
X214868514Y-120665000D01*
X214610595Y-120716304D01*
X214367641Y-120816939D01*
X214148987Y-120963038D01*
X213963038Y-121148987D01*
X213816939Y-121367641D01*
X213716304Y-121610595D01*
X213665000Y-121868514D01*
X213335000Y-121868514D01*
X213283696Y-121610595D01*
X213183061Y-121367641D01*
X213036962Y-121148987D01*
X212851013Y-120963038D01*
X212632359Y-120816939D01*
X212389405Y-120716304D01*
X212131486Y-120665000D01*
X211868514Y-120665000D01*
X211610595Y-120716304D01*
X211367641Y-120816939D01*
X211148987Y-120963038D01*
X210963038Y-121148987D01*
X210816939Y-121367641D01*
X210716304Y-121610595D01*
X210665000Y-121868514D01*
X127660000Y-121868514D01*
X127660000Y-118232418D01*
X127663193Y-118200000D01*
X127650450Y-118070617D01*
X127612710Y-117946207D01*
X127551425Y-117831550D01*
X127468948Y-117731052D01*
X127368450Y-117648575D01*
X127253793Y-117587290D01*
X127129383Y-117549550D01*
X127032419Y-117540000D01*
X127000000Y-117536807D01*
X126967581Y-117540000D01*
X121660000Y-117540000D01*
X121660000Y-113635000D01*
X125596928Y-113635000D01*
X125596928Y-115365000D01*
X125609188Y-115489482D01*
X125645498Y-115609180D01*
X125704463Y-115719494D01*
X125783815Y-115816185D01*
X125880506Y-115895537D01*
X125990820Y-115954502D01*
X126110518Y-115990812D01*
X126235000Y-116003072D01*
X128265000Y-116003072D01*
X128389482Y-115990812D01*
X128509180Y-115954502D01*
X128619494Y-115895537D01*
X128716185Y-115816185D01*
X128795537Y-115719494D01*
X128854502Y-115609180D01*
X128890812Y-115489482D01*
X128903072Y-115365000D01*
X128903072Y-113635000D01*
X128890812Y-113510518D01*
X128854502Y-113390820D01*
X128795537Y-113280506D01*
X128716185Y-113183815D01*
X128619494Y-113104463D01*
X128509180Y-113045498D01*
X128448463Y-113027080D01*
X128600793Y-112860857D01*
X128753469Y-112609284D01*
X128854131Y-112332759D01*
X128856346Y-112319246D01*
X128735224Y-112087000D01*
X127377000Y-112087000D01*
X127377000Y-112107000D01*
X127123000Y-112107000D01*
X127123000Y-112087000D01*
X125764776Y-112087000D01*
X125643654Y-112319246D01*
X125645869Y-112332759D01*
X125746531Y-112609284D01*
X125899207Y-112860857D01*
X126051537Y-113027080D01*
X125990820Y-113045498D01*
X125880506Y-113104463D01*
X125783815Y-113183815D01*
X125704463Y-113280506D01*
X125645498Y-113390820D01*
X125609188Y-113510518D01*
X125596928Y-113635000D01*
X121660000Y-113635000D01*
X121660000Y-109420000D01*
X125592743Y-109420000D01*
X125621705Y-109714051D01*
X125707476Y-109996802D01*
X125846762Y-110257387D01*
X126034208Y-110485792D01*
X126262613Y-110673238D01*
X126300703Y-110693598D01*
X126098028Y-110842190D01*
X125899207Y-111059143D01*
X125746531Y-111310716D01*
X125645869Y-111587241D01*
X125643654Y-111600754D01*
X125764776Y-111833000D01*
X127123000Y-111833000D01*
X127123000Y-111813000D01*
X127377000Y-111813000D01*
X127377000Y-111833000D01*
X128735224Y-111833000D01*
X128856346Y-111600754D01*
X128854131Y-111587241D01*
X128753469Y-111310716D01*
X128600793Y-111059143D01*
X128401972Y-110842190D01*
X128199297Y-110693598D01*
X128237387Y-110673238D01*
X128465792Y-110485792D01*
X128653238Y-110257387D01*
X128792524Y-109996802D01*
X128878295Y-109714051D01*
X128907257Y-109420000D01*
X128878295Y-109125949D01*
X128792524Y-108843198D01*
X128653238Y-108582613D01*
X128465792Y-108354208D01*
X128237387Y-108166762D01*
X128010000Y-108045221D01*
X128010000Y-105928662D01*
X128044454Y-106042246D01*
X128115026Y-106174276D01*
X128186201Y-106261002D01*
X128210000Y-106290001D01*
X128238998Y-106313799D01*
X134636210Y-112711012D01*
X134660009Y-112740011D01*
X134775734Y-112834984D01*
X134907763Y-112905556D01*
X135051024Y-112949013D01*
X135162576Y-112960000D01*
X135200010Y-112963687D01*
X135237343Y-112960010D01*
X148015209Y-112960010D01*
X148769213Y-113714015D01*
X148601068Y-113918899D01*
X148530000Y-114051858D01*
X148458932Y-113918899D01*
X148279608Y-113700392D01*
X148061101Y-113521068D01*
X147811808Y-113387818D01*
X147541309Y-113305764D01*
X147260000Y-113278057D01*
X146978692Y-113305764D01*
X146708193Y-113387818D01*
X146458900Y-113521068D01*
X146240393Y-113700392D01*
X146061068Y-113918899D01*
X145990000Y-114051858D01*
X145918932Y-113918899D01*
X145739608Y-113700392D01*
X145521101Y-113521068D01*
X145271808Y-113387818D01*
X145001309Y-113305764D01*
X144720000Y-113278057D01*
X144438692Y-113305764D01*
X144168193Y-113387818D01*
X143918900Y-113521068D01*
X143700393Y-113700392D01*
X143521068Y-113918899D01*
X143450000Y-114051858D01*
X143378932Y-113918899D01*
X143199608Y-113700392D01*
X142981101Y-113521068D01*
X142731808Y-113387818D01*
X142461309Y-113305764D01*
X142180000Y-113278057D01*
X141898692Y-113305764D01*
X141628193Y-113387818D01*
X141378900Y-113521068D01*
X141160393Y-113700392D01*
X140981068Y-113918899D01*
X140910000Y-114051858D01*
X140838932Y-113918899D01*
X140659608Y-113700392D01*
X140441101Y-113521068D01*
X140191808Y-113387818D01*
X139921309Y-113305764D01*
X139640000Y-113278057D01*
X139358692Y-113305764D01*
X139088193Y-113387818D01*
X138838900Y-113521068D01*
X138620393Y-113700392D01*
X138441068Y-113918899D01*
X138370000Y-114051858D01*
X138298932Y-113918899D01*
X138119608Y-113700392D01*
X137901101Y-113521068D01*
X137651808Y-113387818D01*
X137381309Y-113305764D01*
X137100000Y-113278057D01*
X136818692Y-113305764D01*
X136548193Y-113387818D01*
X136298900Y-113521068D01*
X136080393Y-113700392D01*
X135901068Y-113918899D01*
X135830000Y-114051858D01*
X135758932Y-113918899D01*
X135579608Y-113700392D01*
X135361101Y-113521068D01*
X135111808Y-113387818D01*
X134841309Y-113305764D01*
X134560000Y-113278057D01*
X134278692Y-113305764D01*
X134008193Y-113387818D01*
X133758900Y-113521068D01*
X133540393Y-113700392D01*
X133361068Y-113918899D01*
X133227818Y-114168192D01*
X133145764Y-114438691D01*
X133125000Y-114649508D01*
X133125000Y-115590491D01*
X133145764Y-115801308D01*
X133227818Y-116071807D01*
X133361068Y-116321100D01*
X133540392Y-116539607D01*
X133758899Y-116718932D01*
X134008192Y-116852182D01*
X134278691Y-116934236D01*
X134560000Y-116961943D01*
X134841308Y-116934236D01*
X135111807Y-116852182D01*
X135361100Y-116718932D01*
X135579607Y-116539608D01*
X135758932Y-116321101D01*
X135830000Y-116188142D01*
X135901068Y-116321100D01*
X136080392Y-116539607D01*
X136298899Y-116718932D01*
X136548192Y-116852182D01*
X136818691Y-116934236D01*
X137100000Y-116961943D01*
X137381308Y-116934236D01*
X137651807Y-116852182D01*
X137901100Y-116718932D01*
X138119607Y-116539608D01*
X138298932Y-116321101D01*
X138370000Y-116188142D01*
X138441068Y-116321100D01*
X138620392Y-116539607D01*
X138838899Y-116718932D01*
X139088192Y-116852182D01*
X139358691Y-116934236D01*
X139640000Y-116961943D01*
X139921308Y-116934236D01*
X140191807Y-116852182D01*
X140441100Y-116718932D01*
X140659607Y-116539608D01*
X140838932Y-116321101D01*
X140910000Y-116188142D01*
X140981068Y-116321100D01*
X141160392Y-116539607D01*
X141378899Y-116718932D01*
X141628192Y-116852182D01*
X141898691Y-116934236D01*
X142180000Y-116961943D01*
X142461308Y-116934236D01*
X142731807Y-116852182D01*
X142981100Y-116718932D01*
X143199607Y-116539608D01*
X143378932Y-116321101D01*
X143450000Y-116188142D01*
X143521068Y-116321100D01*
X143700392Y-116539607D01*
X143918899Y-116718932D01*
X144168192Y-116852182D01*
X144438691Y-116934236D01*
X144720000Y-116961943D01*
X145001308Y-116934236D01*
X145271807Y-116852182D01*
X145521100Y-116718932D01*
X145739607Y-116539608D01*
X145918932Y-116321101D01*
X145990000Y-116188142D01*
X146061068Y-116321100D01*
X146240392Y-116539607D01*
X146458899Y-116718932D01*
X146500000Y-116740901D01*
X146500000Y-117345198D01*
X146162749Y-117682450D01*
X145985579Y-117665000D01*
X145854421Y-117665000D01*
X145658294Y-117684317D01*
X145406646Y-117760653D01*
X145174725Y-117884618D01*
X144971445Y-118051445D01*
X144804618Y-118254725D01*
X144680653Y-118486646D01*
X144604317Y-118738294D01*
X144578541Y-119000000D01*
X144604317Y-119261706D01*
X144680653Y-119513354D01*
X144804618Y-119745275D01*
X144971445Y-119948555D01*
X145174725Y-120115382D01*
X145406646Y-120239347D01*
X145658294Y-120315683D01*
X145854421Y-120335000D01*
X145985579Y-120335000D01*
X146181706Y-120315683D01*
X146433354Y-120239347D01*
X146665275Y-120115382D01*
X146868555Y-119948555D01*
X147035382Y-119745275D01*
X147159347Y-119513354D01*
X147235683Y-119261706D01*
X147261459Y-119000000D01*
X147237550Y-118757251D01*
X147771004Y-118223798D01*
X147800001Y-118200001D01*
X147894974Y-118084276D01*
X147965546Y-117952247D01*
X148009003Y-117808986D01*
X148020000Y-117697333D01*
X148020000Y-117697324D01*
X148023676Y-117660001D01*
X148020000Y-117622678D01*
X148020000Y-116740900D01*
X148061100Y-116718932D01*
X148279607Y-116539608D01*
X148458932Y-116321101D01*
X148530000Y-116188142D01*
X148601068Y-116321100D01*
X148780392Y-116539607D01*
X148998899Y-116718932D01*
X149040001Y-116740901D01*
X149040000Y-118762677D01*
X149036324Y-118800000D01*
X149040000Y-118837322D01*
X149040000Y-118837332D01*
X149050997Y-118948985D01*
X149094454Y-119092246D01*
X149165026Y-119224276D01*
X149204871Y-119272826D01*
X149259999Y-119340001D01*
X149289003Y-119363804D01*
X149436196Y-119510997D01*
X149459999Y-119540001D01*
X149575724Y-119634974D01*
X149707753Y-119705546D01*
X149851014Y-119749003D01*
X149897968Y-119753628D01*
X149963038Y-119851013D01*
X150148987Y-120036962D01*
X150367641Y-120183061D01*
X150610595Y-120283696D01*
X150868514Y-120335000D01*
X151131486Y-120335000D01*
X151389405Y-120283696D01*
X151632359Y-120183061D01*
X151851013Y-120036962D01*
X152036962Y-119851013D01*
X152183061Y-119632359D01*
X152283696Y-119389405D01*
X152335000Y-119131486D01*
X152335000Y-118868514D01*
X152283696Y-118610595D01*
X152183061Y-118367641D01*
X152036962Y-118148987D01*
X151851013Y-117963038D01*
X151632359Y-117816939D01*
X151389405Y-117716304D01*
X151131486Y-117665000D01*
X150868514Y-117665000D01*
X150610595Y-117716304D01*
X150560000Y-117737261D01*
X150560000Y-116740900D01*
X150601100Y-116718932D01*
X150819607Y-116539608D01*
X150998932Y-116321101D01*
X151070000Y-116188142D01*
X151141068Y-116321100D01*
X151320392Y-116539607D01*
X151538899Y-116718932D01*
X151788192Y-116852182D01*
X152058691Y-116934236D01*
X152340000Y-116961943D01*
X152621308Y-116934236D01*
X152891807Y-116852182D01*
X153141100Y-116718932D01*
X153359607Y-116539608D01*
X153538932Y-116321101D01*
X153610000Y-116188142D01*
X153681068Y-116321100D01*
X153860392Y-116539607D01*
X154078899Y-116718932D01*
X154328192Y-116852182D01*
X154598691Y-116934236D01*
X154880000Y-116961943D01*
X155161308Y-116934236D01*
X155431807Y-116852182D01*
X155681100Y-116718932D01*
X155899607Y-116539608D01*
X156078932Y-116321101D01*
X156150000Y-116188142D01*
X156221068Y-116321100D01*
X156400392Y-116539607D01*
X156618899Y-116718932D01*
X156868192Y-116852182D01*
X157138691Y-116934236D01*
X157420000Y-116961943D01*
X157701308Y-116934236D01*
X157971807Y-116852182D01*
X158221100Y-116718932D01*
X158439607Y-116539608D01*
X158618932Y-116321101D01*
X158690000Y-116188142D01*
X158761068Y-116321100D01*
X158940392Y-116539607D01*
X159158899Y-116718932D01*
X159408192Y-116852182D01*
X159678691Y-116934236D01*
X159960000Y-116961943D01*
X160241308Y-116934236D01*
X160511807Y-116852182D01*
X160761100Y-116718932D01*
X160979607Y-116539608D01*
X161158932Y-116321101D01*
X161230000Y-116188142D01*
X161301068Y-116321100D01*
X161480392Y-116539607D01*
X161698899Y-116718932D01*
X161948192Y-116852182D01*
X162218691Y-116934236D01*
X162500000Y-116961943D01*
X162781308Y-116934236D01*
X163051807Y-116852182D01*
X163301100Y-116718932D01*
X163519607Y-116539608D01*
X163698932Y-116321101D01*
X163832182Y-116071808D01*
X163914236Y-115801309D01*
X163935000Y-115590492D01*
X163935000Y-114649509D01*
X163914236Y-114438691D01*
X163832182Y-114168192D01*
X163698932Y-113918899D01*
X163519608Y-113700392D01*
X163301101Y-113521068D01*
X163051808Y-113387818D01*
X162781309Y-113305764D01*
X162500000Y-113278057D01*
X162218692Y-113305764D01*
X161948193Y-113387818D01*
X161698900Y-113521068D01*
X161480393Y-113700392D01*
X161301068Y-113918899D01*
X161230000Y-114051858D01*
X161158932Y-113918899D01*
X160979608Y-113700392D01*
X160761101Y-113521068D01*
X160511808Y-113387818D01*
X160241309Y-113305764D01*
X159960000Y-113278057D01*
X159678692Y-113305764D01*
X159408193Y-113387818D01*
X159158900Y-113521068D01*
X158940393Y-113700392D01*
X158761068Y-113918899D01*
X158690000Y-114051858D01*
X158618932Y-113918899D01*
X158439608Y-113700392D01*
X158221101Y-113521068D01*
X157971808Y-113387818D01*
X157701309Y-113305764D01*
X157420000Y-113278057D01*
X157138692Y-113305764D01*
X156868193Y-113387818D01*
X156618900Y-113521068D01*
X156400393Y-113700392D01*
X156221068Y-113918899D01*
X156150000Y-114051858D01*
X156078932Y-113918899D01*
X155899608Y-113700392D01*
X155681101Y-113521068D01*
X155431808Y-113387818D01*
X155161309Y-113305764D01*
X154880000Y-113278057D01*
X154598692Y-113305764D01*
X154328193Y-113387818D01*
X154078900Y-113521068D01*
X153860393Y-113700392D01*
X153681068Y-113918899D01*
X153610000Y-114051858D01*
X153538932Y-113918899D01*
X153359608Y-113700392D01*
X153141101Y-113521068D01*
X152891808Y-113387818D01*
X152621309Y-113305764D01*
X152340000Y-113278057D01*
X152058692Y-113305764D01*
X151788193Y-113387818D01*
X151538900Y-113521068D01*
X151320393Y-113700392D01*
X151141068Y-113918899D01*
X151070000Y-114051858D01*
X150998932Y-113918899D01*
X150819608Y-113700392D01*
X150601101Y-113521068D01*
X150538941Y-113487843D01*
X150505546Y-113377753D01*
X150434974Y-113245724D01*
X150340001Y-113129999D01*
X150311004Y-113106202D01*
X149714802Y-112510000D01*
X171766437Y-112510000D01*
X177454440Y-118198004D01*
X177478238Y-118227002D01*
X177593963Y-118321975D01*
X177725992Y-118392547D01*
X177869253Y-118436004D01*
X177980906Y-118447001D01*
X177980915Y-118447001D01*
X178018238Y-118450677D01*
X178055561Y-118447001D01*
X187575677Y-118447001D01*
X187612999Y-118450677D01*
X187650321Y-118447001D01*
X187650332Y-118447001D01*
X187761985Y-118436004D01*
X187905246Y-118392547D01*
X188037275Y-118321975D01*
X188153000Y-118227002D01*
X188176803Y-118197999D01*
X188408429Y-117966372D01*
X188562408Y-117997000D01*
X188837592Y-117997000D01*
X189107490Y-117943314D01*
X189361727Y-117838005D01*
X189590535Y-117685120D01*
X189785120Y-117490535D01*
X189938005Y-117261727D01*
X189970000Y-117184485D01*
X190001995Y-117261727D01*
X190154880Y-117490535D01*
X190349465Y-117685120D01*
X190578273Y-117838005D01*
X190832510Y-117943314D01*
X191102408Y-117997000D01*
X191377592Y-117997000D01*
X191647490Y-117943314D01*
X191901727Y-117838005D01*
X192130535Y-117685120D01*
X192325120Y-117490535D01*
X192478005Y-117261727D01*
X192510000Y-117184485D01*
X192541995Y-117261727D01*
X192694880Y-117490535D01*
X192889465Y-117685120D01*
X193118273Y-117838005D01*
X193372510Y-117943314D01*
X193642408Y-117997000D01*
X193917592Y-117997000D01*
X194187490Y-117943314D01*
X194441727Y-117838005D01*
X194670535Y-117685120D01*
X194865120Y-117490535D01*
X195018005Y-117261727D01*
X195123314Y-117007490D01*
X195140716Y-116920000D01*
X210658541Y-116920000D01*
X210684317Y-117181706D01*
X210760653Y-117433354D01*
X210884618Y-117665275D01*
X211051445Y-117868555D01*
X211254725Y-118035382D01*
X211486646Y-118159347D01*
X211738294Y-118235683D01*
X211934421Y-118255000D01*
X212065579Y-118255000D01*
X212261706Y-118235683D01*
X212513354Y-118159347D01*
X212745275Y-118035382D01*
X212948555Y-117868555D01*
X213115382Y-117665275D01*
X213239347Y-117433354D01*
X213315683Y-117181706D01*
X213341459Y-116920000D01*
X213658541Y-116920000D01*
X213684317Y-117181706D01*
X213760653Y-117433354D01*
X213884618Y-117665275D01*
X214051445Y-117868555D01*
X214254725Y-118035382D01*
X214486646Y-118159347D01*
X214738294Y-118235683D01*
X214934421Y-118255000D01*
X215065579Y-118255000D01*
X215261706Y-118235683D01*
X215513354Y-118159347D01*
X215745275Y-118035382D01*
X215948555Y-117868555D01*
X216115382Y-117665275D01*
X216239347Y-117433354D01*
X216315683Y-117181706D01*
X216341459Y-116920000D01*
X216658541Y-116920000D01*
X216684317Y-117181706D01*
X216760653Y-117433354D01*
X216884618Y-117665275D01*
X217051445Y-117868555D01*
X217254725Y-118035382D01*
X217486646Y-118159347D01*
X217738294Y-118235683D01*
X217934421Y-118255000D01*
X218065579Y-118255000D01*
X218261706Y-118235683D01*
X218513354Y-118159347D01*
X218745275Y-118035382D01*
X218948555Y-117868555D01*
X219115382Y-117665275D01*
X219239347Y-117433354D01*
X219315683Y-117181706D01*
X219341459Y-116920000D01*
X219315683Y-116658294D01*
X219239347Y-116406646D01*
X219115382Y-116174725D01*
X218948555Y-115971445D01*
X218745275Y-115804618D01*
X218513354Y-115680653D01*
X218261706Y-115604317D01*
X218065579Y-115585000D01*
X217934421Y-115585000D01*
X217738294Y-115604317D01*
X217486646Y-115680653D01*
X217254725Y-115804618D01*
X217051445Y-115971445D01*
X216884618Y-116174725D01*
X216760653Y-116406646D01*
X216684317Y-116658294D01*
X216658541Y-116920000D01*
X216341459Y-116920000D01*
X216315683Y-116658294D01*
X216239347Y-116406646D01*
X216115382Y-116174725D01*
X215948555Y-115971445D01*
X215745275Y-115804618D01*
X215513354Y-115680653D01*
X215261706Y-115604317D01*
X215065579Y-115585000D01*
X214934421Y-115585000D01*
X214738294Y-115604317D01*
X214486646Y-115680653D01*
X214254725Y-115804618D01*
X214051445Y-115971445D01*
X213884618Y-116174725D01*
X213760653Y-116406646D01*
X213684317Y-116658294D01*
X213658541Y-116920000D01*
X213341459Y-116920000D01*
X213315683Y-116658294D01*
X213239347Y-116406646D01*
X213115382Y-116174725D01*
X212948555Y-115971445D01*
X212745275Y-115804618D01*
X212513354Y-115680653D01*
X212261706Y-115604317D01*
X212065579Y-115585000D01*
X211934421Y-115585000D01*
X211738294Y-115604317D01*
X211486646Y-115680653D01*
X211254725Y-115804618D01*
X211051445Y-115971445D01*
X210884618Y-116174725D01*
X210760653Y-116406646D01*
X210684317Y-116658294D01*
X210658541Y-116920000D01*
X195140716Y-116920000D01*
X195177000Y-116737592D01*
X195177000Y-116462408D01*
X195123314Y-116192510D01*
X195018005Y-115938273D01*
X194865120Y-115709465D01*
X194670535Y-115514880D01*
X194441727Y-115361995D01*
X194187490Y-115256686D01*
X193917592Y-115203000D01*
X193642408Y-115203000D01*
X193488429Y-115233628D01*
X193256803Y-115002002D01*
X193233000Y-114972998D01*
X193117275Y-114878025D01*
X193092908Y-114865000D01*
X222596928Y-114865000D01*
X222609188Y-114989482D01*
X222645498Y-115109180D01*
X222704463Y-115219494D01*
X222783815Y-115316185D01*
X222880506Y-115395537D01*
X222990820Y-115454502D01*
X223110518Y-115490812D01*
X223235000Y-115503072D01*
X223964250Y-115500000D01*
X224123000Y-115341250D01*
X224123000Y-114127000D01*
X224377000Y-114127000D01*
X224377000Y-115341250D01*
X224535750Y-115500000D01*
X225265000Y-115503072D01*
X225389482Y-115490812D01*
X225509180Y-115454502D01*
X225619494Y-115395537D01*
X225716185Y-115316185D01*
X225795537Y-115219494D01*
X225854502Y-115109180D01*
X225890812Y-114989482D01*
X225903072Y-114865000D01*
X225900000Y-114285750D01*
X225741250Y-114127000D01*
X224377000Y-114127000D01*
X224123000Y-114127000D01*
X222758750Y-114127000D01*
X222600000Y-114285750D01*
X222596928Y-114865000D01*
X193092908Y-114865000D01*
X192985246Y-114807453D01*
X192841985Y-114763996D01*
X192730332Y-114752999D01*
X192730321Y-114752999D01*
X192692999Y-114749323D01*
X192655677Y-114752999D01*
X178577801Y-114752999D01*
X174113788Y-110288987D01*
X174089992Y-110259991D01*
X174060993Y-110236192D01*
X173974267Y-110165017D01*
X173842237Y-110094445D01*
X173726906Y-110059461D01*
X173698977Y-110050989D01*
X173587324Y-110039992D01*
X173549991Y-110036315D01*
X173512659Y-110039992D01*
X163174792Y-110039990D01*
X162472874Y-109338072D01*
X163300000Y-109338072D01*
X163424482Y-109325812D01*
X163544180Y-109289502D01*
X163654494Y-109230537D01*
X163751185Y-109151185D01*
X163830537Y-109054494D01*
X163889502Y-108944180D01*
X163925812Y-108824482D01*
X163938072Y-108700000D01*
X163938072Y-106302408D01*
X174603000Y-106302408D01*
X174603000Y-106577592D01*
X174656686Y-106847490D01*
X174761995Y-107101727D01*
X174914880Y-107330535D01*
X175109465Y-107525120D01*
X175338273Y-107678005D01*
X175592510Y-107783314D01*
X175862408Y-107837000D01*
X176137592Y-107837000D01*
X176407490Y-107783314D01*
X176661727Y-107678005D01*
X176890535Y-107525120D01*
X177085120Y-107330535D01*
X177238005Y-107101727D01*
X177270000Y-107024485D01*
X177301995Y-107101727D01*
X177454880Y-107330535D01*
X177649465Y-107525120D01*
X177878273Y-107678005D01*
X178132510Y-107783314D01*
X178402408Y-107837000D01*
X178677592Y-107837000D01*
X178947490Y-107783314D01*
X179201727Y-107678005D01*
X179430535Y-107525120D01*
X179625120Y-107330535D01*
X179778005Y-107101727D01*
X179810000Y-107024485D01*
X179841995Y-107101727D01*
X179994880Y-107330535D01*
X180189465Y-107525120D01*
X180418273Y-107678005D01*
X180672510Y-107783314D01*
X180942408Y-107837000D01*
X181217592Y-107837000D01*
X181487490Y-107783314D01*
X181741727Y-107678005D01*
X181970535Y-107525120D01*
X182165120Y-107330535D01*
X182318005Y-107101727D01*
X182350000Y-107024485D01*
X182381995Y-107101727D01*
X182534880Y-107330535D01*
X182729465Y-107525120D01*
X182958273Y-107678005D01*
X183212510Y-107783314D01*
X183482408Y-107837000D01*
X183757592Y-107837000D01*
X184027490Y-107783314D01*
X184281727Y-107678005D01*
X184510535Y-107525120D01*
X184705120Y-107330535D01*
X184858005Y-107101727D01*
X184890000Y-107024485D01*
X184921995Y-107101727D01*
X185074880Y-107330535D01*
X185269465Y-107525120D01*
X185498273Y-107678005D01*
X185752510Y-107783314D01*
X186022408Y-107837000D01*
X186297592Y-107837000D01*
X186567490Y-107783314D01*
X186821727Y-107678005D01*
X187050535Y-107525120D01*
X187245120Y-107330535D01*
X187398005Y-107101727D01*
X187430000Y-107024485D01*
X187461995Y-107101727D01*
X187614880Y-107330535D01*
X187809465Y-107525120D01*
X188038273Y-107678005D01*
X188292510Y-107783314D01*
X188562408Y-107837000D01*
X188837592Y-107837000D01*
X189107490Y-107783314D01*
X189361727Y-107678005D01*
X189590535Y-107525120D01*
X189785120Y-107330535D01*
X189938005Y-107101727D01*
X189970000Y-107024485D01*
X190001995Y-107101727D01*
X190154880Y-107330535D01*
X190349465Y-107525120D01*
X190578273Y-107678005D01*
X190832510Y-107783314D01*
X191102408Y-107837000D01*
X191377592Y-107837000D01*
X191647490Y-107783314D01*
X191901727Y-107678005D01*
X192130535Y-107525120D01*
X192325120Y-107330535D01*
X192478005Y-107101727D01*
X192510000Y-107024485D01*
X192541995Y-107101727D01*
X192694880Y-107330535D01*
X192889465Y-107525120D01*
X193118273Y-107678005D01*
X193372510Y-107783314D01*
X193642408Y-107837000D01*
X193917592Y-107837000D01*
X194187490Y-107783314D01*
X194441727Y-107678005D01*
X194670535Y-107525120D01*
X194865120Y-107330535D01*
X195018005Y-107101727D01*
X195123314Y-106847490D01*
X195177000Y-106577592D01*
X195177000Y-106302408D01*
X195123314Y-106032510D01*
X195018005Y-105778273D01*
X194865120Y-105549465D01*
X194670535Y-105354880D01*
X194441727Y-105201995D01*
X194187490Y-105096686D01*
X193917592Y-105043000D01*
X193642408Y-105043000D01*
X193372510Y-105096686D01*
X193118273Y-105201995D01*
X192889465Y-105354880D01*
X192694880Y-105549465D01*
X192541995Y-105778273D01*
X192510000Y-105855515D01*
X192478005Y-105778273D01*
X192325120Y-105549465D01*
X192130535Y-105354880D01*
X191901727Y-105201995D01*
X191647490Y-105096686D01*
X191377592Y-105043000D01*
X191102408Y-105043000D01*
X190832510Y-105096686D01*
X190578273Y-105201995D01*
X190349465Y-105354880D01*
X190154880Y-105549465D01*
X190001995Y-105778273D01*
X189970000Y-105855515D01*
X189938005Y-105778273D01*
X189785120Y-105549465D01*
X189590535Y-105354880D01*
X189361727Y-105201995D01*
X189107490Y-105096686D01*
X188837592Y-105043000D01*
X188562408Y-105043000D01*
X188292510Y-105096686D01*
X188038273Y-105201995D01*
X187809465Y-105354880D01*
X187614880Y-105549465D01*
X187461995Y-105778273D01*
X187430000Y-105855515D01*
X187398005Y-105778273D01*
X187245120Y-105549465D01*
X187050535Y-105354880D01*
X186821727Y-105201995D01*
X186567490Y-105096686D01*
X186297592Y-105043000D01*
X186022408Y-105043000D01*
X185752510Y-105096686D01*
X185498273Y-105201995D01*
X185269465Y-105354880D01*
X185074880Y-105549465D01*
X184921995Y-105778273D01*
X184890000Y-105855515D01*
X184858005Y-105778273D01*
X184705120Y-105549465D01*
X184510535Y-105354880D01*
X184281727Y-105201995D01*
X184027490Y-105096686D01*
X183757592Y-105043000D01*
X183482408Y-105043000D01*
X183212510Y-105096686D01*
X182958273Y-105201995D01*
X182729465Y-105354880D01*
X182534880Y-105549465D01*
X182381995Y-105778273D01*
X182350000Y-105855515D01*
X182318005Y-105778273D01*
X182165120Y-105549465D01*
X181970535Y-105354880D01*
X181741727Y-105201995D01*
X181487490Y-105096686D01*
X181217592Y-105043000D01*
X180942408Y-105043000D01*
X180672510Y-105096686D01*
X180418273Y-105201995D01*
X180189465Y-105354880D01*
X179994880Y-105549465D01*
X179841995Y-105778273D01*
X179810000Y-105855515D01*
X179778005Y-105778273D01*
X179625120Y-105549465D01*
X179430535Y-105354880D01*
X179201727Y-105201995D01*
X178947490Y-105096686D01*
X178677592Y-105043000D01*
X178402408Y-105043000D01*
X178132510Y-105096686D01*
X177878273Y-105201995D01*
X177649465Y-105354880D01*
X177454880Y-105549465D01*
X177301995Y-105778273D01*
X177270000Y-105855515D01*
X177238005Y-105778273D01*
X177085120Y-105549465D01*
X176890535Y-105354880D01*
X176661727Y-105201995D01*
X176407490Y-105096686D01*
X176137592Y-105043000D01*
X175862408Y-105043000D01*
X175592510Y-105096686D01*
X175338273Y-105201995D01*
X175109465Y-105354880D01*
X174914880Y-105549465D01*
X174761995Y-105778273D01*
X174656686Y-106032510D01*
X174603000Y-106302408D01*
X163938072Y-106302408D01*
X163938072Y-106300000D01*
X163925812Y-106175518D01*
X163889502Y-106055820D01*
X163830537Y-105945506D01*
X163751185Y-105848815D01*
X163654494Y-105769463D01*
X163544180Y-105710498D01*
X163424482Y-105674188D01*
X163300000Y-105661928D01*
X161700000Y-105661928D01*
X161575518Y-105674188D01*
X161455820Y-105710498D01*
X161345506Y-105769463D01*
X161248815Y-105848815D01*
X161169463Y-105945506D01*
X161110498Y-106055820D01*
X161074188Y-106175518D01*
X161072419Y-106193482D01*
X160979608Y-106080392D01*
X160761101Y-105901068D01*
X160511808Y-105767818D01*
X160241309Y-105685764D01*
X159960000Y-105658057D01*
X159678692Y-105685764D01*
X159408193Y-105767818D01*
X159158900Y-105901068D01*
X158940393Y-106080392D01*
X158761068Y-106298899D01*
X158690000Y-106431858D01*
X158618932Y-106298899D01*
X158439608Y-106080392D01*
X158221101Y-105901068D01*
X157971808Y-105767818D01*
X157701309Y-105685764D01*
X157420000Y-105658057D01*
X157138692Y-105685764D01*
X156868193Y-105767818D01*
X156618900Y-105901068D01*
X156400393Y-106080392D01*
X156221068Y-106298899D01*
X156152735Y-106426741D01*
X156002601Y-106197161D01*
X155804895Y-105995500D01*
X155571646Y-105836285D01*
X155311818Y-105725633D01*
X155229039Y-105708096D01*
X155007000Y-105830085D01*
X155007000Y-107373000D01*
X155027000Y-107373000D01*
X155027000Y-107627000D01*
X155007000Y-107627000D01*
X155007000Y-109169915D01*
X155229039Y-109291904D01*
X155311818Y-109274367D01*
X155571646Y-109163715D01*
X155804895Y-109004500D01*
X156002601Y-108802839D01*
X156152735Y-108573258D01*
X156221068Y-108701100D01*
X156400392Y-108919607D01*
X156618899Y-109098932D01*
X156868192Y-109232182D01*
X157138691Y-109314236D01*
X157420000Y-109341943D01*
X157701308Y-109314236D01*
X157971807Y-109232182D01*
X158221100Y-109098932D01*
X158439607Y-108919608D01*
X158618932Y-108701101D01*
X158690000Y-108568142D01*
X158761068Y-108701100D01*
X158940392Y-108919607D01*
X159158899Y-109098932D01*
X159408192Y-109232182D01*
X159678691Y-109314236D01*
X159960000Y-109341943D01*
X160241308Y-109314236D01*
X160285906Y-109300707D01*
X161475198Y-110490000D01*
X152414802Y-110490000D01*
X150830787Y-108905986D01*
X150998932Y-108701101D01*
X151070000Y-108568142D01*
X151141068Y-108701100D01*
X151320392Y-108919607D01*
X151538899Y-109098932D01*
X151788192Y-109232182D01*
X152058691Y-109314236D01*
X152340000Y-109341943D01*
X152621308Y-109314236D01*
X152891807Y-109232182D01*
X153141100Y-109098932D01*
X153359607Y-108919608D01*
X153538932Y-108701101D01*
X153607265Y-108573259D01*
X153757399Y-108802839D01*
X153955105Y-109004500D01*
X154188354Y-109163715D01*
X154448182Y-109274367D01*
X154530961Y-109291904D01*
X154753000Y-109169915D01*
X154753000Y-107627000D01*
X154733000Y-107627000D01*
X154733000Y-107373000D01*
X154753000Y-107373000D01*
X154753000Y-105830085D01*
X154530961Y-105708096D01*
X154448182Y-105725633D01*
X154188354Y-105836285D01*
X153955105Y-105995500D01*
X153757399Y-106197161D01*
X153607265Y-106426741D01*
X153538932Y-106298899D01*
X153359608Y-106080392D01*
X153141101Y-105901068D01*
X152891808Y-105767818D01*
X152621309Y-105685764D01*
X152340000Y-105658057D01*
X152058692Y-105685764D01*
X151788193Y-105767818D01*
X151538900Y-105901068D01*
X151320393Y-106080392D01*
X151141068Y-106298899D01*
X151070000Y-106431858D01*
X150998932Y-106298899D01*
X150819608Y-106080392D01*
X150601101Y-105901068D01*
X150351808Y-105767818D01*
X150081309Y-105685764D01*
X149800000Y-105658057D01*
X149518692Y-105685764D01*
X149248193Y-105767818D01*
X148998900Y-105901068D01*
X148780393Y-106080392D01*
X148601068Y-106298899D01*
X148530000Y-106431858D01*
X148458932Y-106298899D01*
X148279608Y-106080392D01*
X148061101Y-105901068D01*
X147811808Y-105767818D01*
X147541309Y-105685764D01*
X147260000Y-105658057D01*
X146978692Y-105685764D01*
X146708193Y-105767818D01*
X146458900Y-105901068D01*
X146240393Y-106080392D01*
X146061068Y-106298899D01*
X145990000Y-106431858D01*
X145918932Y-106298899D01*
X145739608Y-106080392D01*
X145521101Y-105901068D01*
X145271808Y-105767818D01*
X145001309Y-105685764D01*
X144720000Y-105658057D01*
X144438692Y-105685764D01*
X144168193Y-105767818D01*
X143918900Y-105901068D01*
X143700393Y-106080392D01*
X143521068Y-106298899D01*
X143452735Y-106426741D01*
X143302601Y-106197161D01*
X143104895Y-105995500D01*
X142871646Y-105836285D01*
X142611818Y-105725633D01*
X142529039Y-105708096D01*
X142307000Y-105830085D01*
X142307000Y-107373000D01*
X142327000Y-107373000D01*
X142327000Y-107627000D01*
X142307000Y-107627000D01*
X142307000Y-109169915D01*
X142529039Y-109291904D01*
X142611818Y-109274367D01*
X142871646Y-109163715D01*
X143104895Y-109004500D01*
X143302601Y-108802839D01*
X143452735Y-108573258D01*
X143521068Y-108701100D01*
X143700392Y-108919607D01*
X143918899Y-109098932D01*
X144168192Y-109232182D01*
X144438691Y-109314236D01*
X144720000Y-109341943D01*
X145001308Y-109314236D01*
X145271807Y-109232182D01*
X145521100Y-109098932D01*
X145739607Y-108919608D01*
X145918932Y-108701101D01*
X145990000Y-108568142D01*
X146061068Y-108701100D01*
X146240392Y-108919607D01*
X146458899Y-109098932D01*
X146708192Y-109232182D01*
X146978691Y-109314236D01*
X147260000Y-109341943D01*
X147541308Y-109314236D01*
X147811807Y-109232182D01*
X148061100Y-109098932D01*
X148279607Y-108919608D01*
X148458932Y-108701101D01*
X148530000Y-108568142D01*
X148601068Y-108701100D01*
X148780392Y-108919607D01*
X148998899Y-109098932D01*
X149061061Y-109132158D01*
X149094454Y-109242246D01*
X149165026Y-109374276D01*
X149236201Y-109461002D01*
X149260000Y-109490001D01*
X149288998Y-109513799D01*
X150765198Y-110990000D01*
X141264802Y-110990000D01*
X139614204Y-109339402D01*
X139640000Y-109341943D01*
X139921308Y-109314236D01*
X140191807Y-109232182D01*
X140441100Y-109098932D01*
X140659607Y-108919608D01*
X140838932Y-108701101D01*
X140907265Y-108573259D01*
X141057399Y-108802839D01*
X141255105Y-109004500D01*
X141488354Y-109163715D01*
X141748182Y-109274367D01*
X141830961Y-109291904D01*
X142053000Y-109169915D01*
X142053000Y-107627000D01*
X142033000Y-107627000D01*
X142033000Y-107373000D01*
X142053000Y-107373000D01*
X142053000Y-105830085D01*
X141830961Y-105708096D01*
X141748182Y-105725633D01*
X141488354Y-105836285D01*
X141255105Y-105995500D01*
X141057399Y-106197161D01*
X140907265Y-106426741D01*
X140838932Y-106298899D01*
X140659608Y-106080392D01*
X140441101Y-105901068D01*
X140191808Y-105767818D01*
X139921309Y-105685764D01*
X139640000Y-105658057D01*
X139358692Y-105685764D01*
X139088193Y-105767818D01*
X138838900Y-105901068D01*
X138620393Y-106080392D01*
X138441068Y-106298899D01*
X138370000Y-106431858D01*
X138298932Y-106298899D01*
X138119608Y-106080392D01*
X137901101Y-105901068D01*
X137651808Y-105767818D01*
X137381309Y-105685764D01*
X137100000Y-105658057D01*
X136818692Y-105685764D01*
X136548193Y-105767818D01*
X136298900Y-105901068D01*
X136080393Y-106080392D01*
X135901068Y-106298899D01*
X135830000Y-106431858D01*
X135758932Y-106298899D01*
X135579608Y-106080392D01*
X135361101Y-105901068D01*
X135111808Y-105767818D01*
X134841309Y-105685764D01*
X134560000Y-105658057D01*
X134278692Y-105685764D01*
X134008193Y-105767818D01*
X133758900Y-105901068D01*
X133540393Y-106080392D01*
X133361068Y-106298899D01*
X133227818Y-106548192D01*
X133145764Y-106818691D01*
X133125000Y-107029508D01*
X133125000Y-107970491D01*
X133145764Y-108181308D01*
X133227818Y-108451807D01*
X133361068Y-108701100D01*
X133540392Y-108919607D01*
X133758899Y-109098932D01*
X134008192Y-109232182D01*
X134278691Y-109314236D01*
X134560000Y-109341943D01*
X134841308Y-109314236D01*
X135111807Y-109232182D01*
X135361100Y-109098932D01*
X135579607Y-108919608D01*
X135758932Y-108701101D01*
X135830000Y-108568142D01*
X135901068Y-108701100D01*
X136080392Y-108919607D01*
X136298899Y-109098932D01*
X136548192Y-109232182D01*
X136818691Y-109314236D01*
X137100000Y-109341943D01*
X137381308Y-109314236D01*
X137425906Y-109300707D01*
X139565208Y-111440010D01*
X135514812Y-111440010D01*
X129510000Y-105435199D01*
X129510000Y-100841984D01*
X129965000Y-100841984D01*
X129965000Y-101558016D01*
X130104691Y-102260290D01*
X130378705Y-102921818D01*
X130776511Y-103517177D01*
X131282823Y-104023489D01*
X131878182Y-104421295D01*
X132539710Y-104695309D01*
X133241984Y-104835000D01*
X133958016Y-104835000D01*
X134660290Y-104695309D01*
X135321818Y-104421295D01*
X135917177Y-104023489D01*
X136423489Y-103517177D01*
X136821295Y-102921818D01*
X137095309Y-102260290D01*
X137235000Y-101558016D01*
X137235000Y-100841984D01*
X208765000Y-100841984D01*
X208765000Y-101558016D01*
X208904691Y-102260290D01*
X209178705Y-102921818D01*
X209576511Y-103517177D01*
X210082823Y-104023489D01*
X210678182Y-104421295D01*
X211339710Y-104695309D01*
X212041984Y-104835000D01*
X212758016Y-104835000D01*
X213460290Y-104695309D01*
X214121818Y-104421295D01*
X214717177Y-104023489D01*
X215223489Y-103517177D01*
X215621295Y-102921818D01*
X215895309Y-102260290D01*
X216035000Y-101558016D01*
X216035000Y-100841984D01*
X215895309Y-100139710D01*
X215621295Y-99478182D01*
X215223489Y-98882823D01*
X214717177Y-98376511D01*
X214121818Y-97978705D01*
X213460290Y-97704691D01*
X212758016Y-97565000D01*
X212041984Y-97565000D01*
X211339710Y-97704691D01*
X210678182Y-97978705D01*
X210082823Y-98376511D01*
X209576511Y-98882823D01*
X209178705Y-99478182D01*
X208904691Y-100139710D01*
X208765000Y-100841984D01*
X137235000Y-100841984D01*
X137095309Y-100139710D01*
X136821295Y-99478182D01*
X136423489Y-98882823D01*
X135917177Y-98376511D01*
X135321818Y-97978705D01*
X134660290Y-97704691D01*
X133958016Y-97565000D01*
X133241984Y-97565000D01*
X132539710Y-97704691D01*
X131878182Y-97978705D01*
X131282823Y-98376511D01*
X130776511Y-98882823D01*
X130378705Y-99478182D01*
X130104691Y-100139710D01*
X129965000Y-100841984D01*
X129510000Y-100841984D01*
X129510000Y-96000000D01*
X155498057Y-96000000D01*
X155525764Y-96281309D01*
X155607818Y-96551808D01*
X155741068Y-96801101D01*
X155920392Y-97019608D01*
X156138899Y-97198932D01*
X156388192Y-97332182D01*
X156658691Y-97414236D01*
X156869508Y-97435000D01*
X157010492Y-97435000D01*
X157221309Y-97414236D01*
X157491808Y-97332182D01*
X157741101Y-97198932D01*
X157959608Y-97019608D01*
X158138932Y-96801101D01*
X158210000Y-96668142D01*
X158281068Y-96801101D01*
X158460392Y-97019608D01*
X158678899Y-97198932D01*
X158928192Y-97332182D01*
X159198691Y-97414236D01*
X159409508Y-97435000D01*
X159550492Y-97435000D01*
X159761309Y-97414236D01*
X160031808Y-97332182D01*
X160281101Y-97198932D01*
X160499608Y-97019608D01*
X160678932Y-96801101D01*
X160750000Y-96668142D01*
X160821068Y-96801101D01*
X161000392Y-97019608D01*
X161218899Y-97198932D01*
X161468192Y-97332182D01*
X161738691Y-97414236D01*
X161949508Y-97435000D01*
X162090492Y-97435000D01*
X162301309Y-97414236D01*
X162571808Y-97332182D01*
X162821101Y-97198932D01*
X163039608Y-97019608D01*
X163218932Y-96801101D01*
X163290000Y-96668142D01*
X163361068Y-96801101D01*
X163540392Y-97019608D01*
X163758899Y-97198932D01*
X164008192Y-97332182D01*
X164278691Y-97414236D01*
X164489508Y-97435000D01*
X164630492Y-97435000D01*
X164841309Y-97414236D01*
X165111808Y-97332182D01*
X165361101Y-97198932D01*
X165579608Y-97019608D01*
X165758932Y-96801101D01*
X165830000Y-96668142D01*
X165901068Y-96801101D01*
X166080392Y-97019608D01*
X166298899Y-97198932D01*
X166548192Y-97332182D01*
X166818691Y-97414236D01*
X167029508Y-97435000D01*
X167170492Y-97435000D01*
X167381309Y-97414236D01*
X167651808Y-97332182D01*
X167901101Y-97198932D01*
X168119608Y-97019608D01*
X168298932Y-96801101D01*
X168370000Y-96668142D01*
X168441068Y-96801101D01*
X168620392Y-97019608D01*
X168838899Y-97198932D01*
X169088192Y-97332182D01*
X169358691Y-97414236D01*
X169569508Y-97435000D01*
X169710492Y-97435000D01*
X169921309Y-97414236D01*
X170191808Y-97332182D01*
X170441101Y-97198932D01*
X170659608Y-97019608D01*
X170838932Y-96801101D01*
X170910000Y-96668142D01*
X170981068Y-96801101D01*
X171160392Y-97019608D01*
X171378899Y-97198932D01*
X171628192Y-97332182D01*
X171898691Y-97414236D01*
X172109508Y-97435000D01*
X172250492Y-97435000D01*
X172461309Y-97414236D01*
X172731808Y-97332182D01*
X172981101Y-97198932D01*
X173199608Y-97019608D01*
X173378932Y-96801101D01*
X173450000Y-96668142D01*
X173521068Y-96801101D01*
X173700392Y-97019608D01*
X173918899Y-97198932D01*
X174168192Y-97332182D01*
X174438691Y-97414236D01*
X174649508Y-97435000D01*
X174790492Y-97435000D01*
X175001309Y-97414236D01*
X175271808Y-97332182D01*
X175521101Y-97198932D01*
X175739608Y-97019608D01*
X175918932Y-96801101D01*
X175990000Y-96668142D01*
X176061068Y-96801101D01*
X176240392Y-97019608D01*
X176458899Y-97198932D01*
X176708192Y-97332182D01*
X176978691Y-97414236D01*
X177189508Y-97435000D01*
X177330492Y-97435000D01*
X177541309Y-97414236D01*
X177811808Y-97332182D01*
X178061101Y-97198932D01*
X178279608Y-97019608D01*
X178458932Y-96801101D01*
X178530000Y-96668142D01*
X178601068Y-96801101D01*
X178780392Y-97019608D01*
X178998899Y-97198932D01*
X179248192Y-97332182D01*
X179518691Y-97414236D01*
X179729508Y-97435000D01*
X179870492Y-97435000D01*
X180081309Y-97414236D01*
X180351808Y-97332182D01*
X180601101Y-97198932D01*
X180819608Y-97019608D01*
X180998932Y-96801101D01*
X181070000Y-96668142D01*
X181141068Y-96801101D01*
X181320392Y-97019608D01*
X181538899Y-97198932D01*
X181788192Y-97332182D01*
X182058691Y-97414236D01*
X182269508Y-97435000D01*
X182410492Y-97435000D01*
X182621309Y-97414236D01*
X182891808Y-97332182D01*
X183141101Y-97198932D01*
X183359608Y-97019608D01*
X183538932Y-96801101D01*
X183612579Y-96663318D01*
X183727615Y-96855131D01*
X183916586Y-97063519D01*
X184142580Y-97231037D01*
X184396913Y-97351246D01*
X184530961Y-97391904D01*
X184753000Y-97269915D01*
X184753000Y-96127000D01*
X184733000Y-96127000D01*
X184733000Y-95873000D01*
X184753000Y-95873000D01*
X184753000Y-94730085D01*
X185007000Y-94730085D01*
X185007000Y-95873000D01*
X185027000Y-95873000D01*
X185027000Y-96127000D01*
X185007000Y-96127000D01*
X185007000Y-97269915D01*
X185229039Y-97391904D01*
X185363087Y-97351246D01*
X185617420Y-97231037D01*
X185843414Y-97063519D01*
X186032385Y-96855131D01*
X186147421Y-96663318D01*
X186221068Y-96801101D01*
X186400392Y-97019608D01*
X186618899Y-97198932D01*
X186868192Y-97332182D01*
X187138691Y-97414236D01*
X187349508Y-97435000D01*
X187490492Y-97435000D01*
X187701309Y-97414236D01*
X187971808Y-97332182D01*
X188221101Y-97198932D01*
X188439608Y-97019608D01*
X188618932Y-96801101D01*
X188690000Y-96668142D01*
X188761068Y-96801101D01*
X188940392Y-97019608D01*
X189158899Y-97198932D01*
X189408192Y-97332182D01*
X189678691Y-97414236D01*
X189889508Y-97435000D01*
X190030492Y-97435000D01*
X190241309Y-97414236D01*
X190511808Y-97332182D01*
X190761101Y-97198932D01*
X190979608Y-97019608D01*
X191072419Y-96906518D01*
X191074188Y-96924482D01*
X191110498Y-97044180D01*
X191169463Y-97154494D01*
X191248815Y-97251185D01*
X191345506Y-97330537D01*
X191455820Y-97389502D01*
X191575518Y-97425812D01*
X191700000Y-97438072D01*
X193300000Y-97438072D01*
X193424482Y-97425812D01*
X193544180Y-97389502D01*
X193654494Y-97330537D01*
X193751185Y-97251185D01*
X193830537Y-97154494D01*
X193889502Y-97044180D01*
X193925812Y-96924482D01*
X193938072Y-96800000D01*
X193938072Y-95200000D01*
X193925812Y-95075518D01*
X193889502Y-94955820D01*
X193830537Y-94845506D01*
X193751185Y-94748815D01*
X193654494Y-94669463D01*
X193544180Y-94610498D01*
X193424482Y-94574188D01*
X193300000Y-94561928D01*
X191700000Y-94561928D01*
X191575518Y-94574188D01*
X191455820Y-94610498D01*
X191345506Y-94669463D01*
X191248815Y-94748815D01*
X191169463Y-94845506D01*
X191110498Y-94955820D01*
X191074188Y-95075518D01*
X191072419Y-95093482D01*
X190979608Y-94980392D01*
X190761101Y-94801068D01*
X190511808Y-94667818D01*
X190241309Y-94585764D01*
X190030492Y-94565000D01*
X189889508Y-94565000D01*
X189678691Y-94585764D01*
X189408192Y-94667818D01*
X189158899Y-94801068D01*
X188940392Y-94980392D01*
X188761068Y-95198899D01*
X188690000Y-95331858D01*
X188618932Y-95198899D01*
X188439608Y-94980392D01*
X188221101Y-94801068D01*
X187971808Y-94667818D01*
X187701309Y-94585764D01*
X187490492Y-94565000D01*
X187349508Y-94565000D01*
X187138691Y-94585764D01*
X186868192Y-94667818D01*
X186618899Y-94801068D01*
X186400392Y-94980392D01*
X186221068Y-95198899D01*
X186147421Y-95336682D01*
X186032385Y-95144869D01*
X185843414Y-94936481D01*
X185617420Y-94768963D01*
X185363087Y-94648754D01*
X185229039Y-94608096D01*
X185007000Y-94730085D01*
X184753000Y-94730085D01*
X184530961Y-94608096D01*
X184396913Y-94648754D01*
X184142580Y-94768963D01*
X183916586Y-94936481D01*
X183727615Y-95144869D01*
X183612579Y-95336682D01*
X183538932Y-95198899D01*
X183359608Y-94980392D01*
X183141101Y-94801068D01*
X182891808Y-94667818D01*
X182621309Y-94585764D01*
X182410492Y-94565000D01*
X182269508Y-94565000D01*
X182058691Y-94585764D01*
X181788192Y-94667818D01*
X181538899Y-94801068D01*
X181320392Y-94980392D01*
X181141068Y-95198899D01*
X181070000Y-95331858D01*
X180998932Y-95198899D01*
X180819608Y-94980392D01*
X180601101Y-94801068D01*
X180351808Y-94667818D01*
X180081309Y-94585764D01*
X179870492Y-94565000D01*
X179729508Y-94565000D01*
X179518691Y-94585764D01*
X179248192Y-94667818D01*
X178998899Y-94801068D01*
X178780392Y-94980392D01*
X178601068Y-95198899D01*
X178530000Y-95331858D01*
X178458932Y-95198899D01*
X178279608Y-94980392D01*
X178061101Y-94801068D01*
X177811808Y-94667818D01*
X177541309Y-94585764D01*
X177330492Y-94565000D01*
X177189508Y-94565000D01*
X176978691Y-94585764D01*
X176708192Y-94667818D01*
X176458899Y-94801068D01*
X176240392Y-94980392D01*
X176061068Y-95198899D01*
X175990000Y-95331858D01*
X175918932Y-95198899D01*
X175739608Y-94980392D01*
X175521101Y-94801068D01*
X175271808Y-94667818D01*
X175001309Y-94585764D01*
X174790492Y-94565000D01*
X174649508Y-94565000D01*
X174438691Y-94585764D01*
X174168192Y-94667818D01*
X173918899Y-94801068D01*
X173700392Y-94980392D01*
X173521068Y-95198899D01*
X173450000Y-95331858D01*
X173378932Y-95198899D01*
X173199608Y-94980392D01*
X172981101Y-94801068D01*
X172731808Y-94667818D01*
X172461309Y-94585764D01*
X172250492Y-94565000D01*
X172109508Y-94565000D01*
X171898691Y-94585764D01*
X171628192Y-94667818D01*
X171378899Y-94801068D01*
X171160392Y-94980392D01*
X170981068Y-95198899D01*
X170910000Y-95331858D01*
X170838932Y-95198899D01*
X170659608Y-94980392D01*
X170441101Y-94801068D01*
X170191808Y-94667818D01*
X169921309Y-94585764D01*
X169710492Y-94565000D01*
X169569508Y-94565000D01*
X169358691Y-94585764D01*
X169088192Y-94667818D01*
X168838899Y-94801068D01*
X168620392Y-94980392D01*
X168441068Y-95198899D01*
X168370000Y-95331858D01*
X168298932Y-95198899D01*
X168119608Y-94980392D01*
X167901101Y-94801068D01*
X167651808Y-94667818D01*
X167381309Y-94585764D01*
X167170492Y-94565000D01*
X167029508Y-94565000D01*
X166818691Y-94585764D01*
X166548192Y-94667818D01*
X166298899Y-94801068D01*
X166080392Y-94980392D01*
X165901068Y-95198899D01*
X165830000Y-95331858D01*
X165758932Y-95198899D01*
X165579608Y-94980392D01*
X165361101Y-94801068D01*
X165111808Y-94667818D01*
X164841309Y-94585764D01*
X164630492Y-94565000D01*
X164489508Y-94565000D01*
X164278691Y-94585764D01*
X164008192Y-94667818D01*
X163758899Y-94801068D01*
X163540392Y-94980392D01*
X163361068Y-95198899D01*
X163290000Y-95331858D01*
X163218932Y-95198899D01*
X163039608Y-94980392D01*
X162821101Y-94801068D01*
X162571808Y-94667818D01*
X162301309Y-94585764D01*
X162090492Y-94565000D01*
X161949508Y-94565000D01*
X161738691Y-94585764D01*
X161468192Y-94667818D01*
X161218899Y-94801068D01*
X161000392Y-94980392D01*
X160821068Y-95198899D01*
X160750000Y-95331858D01*
X160678932Y-95198899D01*
X160499608Y-94980392D01*
X160281101Y-94801068D01*
X160031808Y-94667818D01*
X159761309Y-94585764D01*
X159550492Y-94565000D01*
X159409508Y-94565000D01*
X159198691Y-94585764D01*
X158928192Y-94667818D01*
X158678899Y-94801068D01*
X158460392Y-94980392D01*
X158281068Y-95198899D01*
X158210000Y-95331858D01*
X158138932Y-95198899D01*
X157959608Y-94980392D01*
X157741101Y-94801068D01*
X157491808Y-94667818D01*
X157221309Y-94585764D01*
X157010492Y-94565000D01*
X156869508Y-94565000D01*
X156658691Y-94585764D01*
X156388192Y-94667818D01*
X156138899Y-94801068D01*
X155920392Y-94980392D01*
X155741068Y-95198899D01*
X155607818Y-95448192D01*
X155525764Y-95718691D01*
X155498057Y-96000000D01*
X129510000Y-96000000D01*
X129510000Y-94201211D01*
X129923711Y-93787500D01*
X207211928Y-93787500D01*
X207224188Y-93911982D01*
X207260498Y-94031680D01*
X207319463Y-94141994D01*
X207398815Y-94238685D01*
X207495506Y-94318037D01*
X207605820Y-94377002D01*
X207725518Y-94413312D01*
X207850000Y-94425572D01*
X208214250Y-94422500D01*
X208373000Y-94263750D01*
X208373000Y-92727000D01*
X207373750Y-92727000D01*
X207215000Y-92885750D01*
X207211928Y-93787500D01*
X129923711Y-93787500D01*
X134313150Y-89398061D01*
X198215000Y-89398061D01*
X198215000Y-89601939D01*
X198254774Y-89801898D01*
X198332795Y-89990256D01*
X198446063Y-90159774D01*
X198590226Y-90303937D01*
X198759744Y-90417205D01*
X198948102Y-90495226D01*
X199148061Y-90535000D01*
X199351939Y-90535000D01*
X199551898Y-90495226D01*
X199740256Y-90417205D01*
X199909774Y-90303937D01*
X199953711Y-90260000D01*
X201639676Y-90260000D01*
X201676998Y-90263676D01*
X201714320Y-90260000D01*
X201714331Y-90260000D01*
X201825984Y-90249003D01*
X201969245Y-90205546D01*
X202101274Y-90134974D01*
X202216999Y-90040001D01*
X202240802Y-90010997D01*
X204019044Y-88232755D01*
X204090226Y-88303937D01*
X204259744Y-88417205D01*
X204448102Y-88495226D01*
X204648061Y-88535000D01*
X204710199Y-88535000D01*
X206761201Y-90586003D01*
X206785000Y-90615002D01*
X206900725Y-90709975D01*
X207032754Y-90780547D01*
X207176015Y-90824004D01*
X207287668Y-90835001D01*
X207287677Y-90835001D01*
X207325000Y-90838677D01*
X207362323Y-90835001D01*
X207583364Y-90835001D01*
X207495506Y-90881963D01*
X207398815Y-90961315D01*
X207319463Y-91058006D01*
X207260498Y-91168320D01*
X207224188Y-91288018D01*
X207211928Y-91412500D01*
X207215000Y-92314250D01*
X207373750Y-92473000D01*
X208373000Y-92473000D01*
X208373000Y-92453000D01*
X208627000Y-92453000D01*
X208627000Y-92473000D01*
X208647000Y-92473000D01*
X208647000Y-92727000D01*
X208627000Y-92727000D01*
X208627000Y-94263750D01*
X208785750Y-94422500D01*
X209150000Y-94425572D01*
X209274482Y-94413312D01*
X209394180Y-94377002D01*
X209504494Y-94318037D01*
X209601185Y-94238685D01*
X209680537Y-94141994D01*
X209739502Y-94031680D01*
X209750000Y-93997073D01*
X209760498Y-94031680D01*
X209819463Y-94141994D01*
X209898815Y-94238685D01*
X209995506Y-94318037D01*
X210105820Y-94377002D01*
X210225518Y-94413312D01*
X210350000Y-94425572D01*
X211650000Y-94425572D01*
X211774482Y-94413312D01*
X211894180Y-94377002D01*
X212004494Y-94318037D01*
X212101185Y-94238685D01*
X212180537Y-94141994D01*
X212239502Y-94031680D01*
X212250000Y-93997073D01*
X212260498Y-94031680D01*
X212319463Y-94141994D01*
X212398815Y-94238685D01*
X212495506Y-94318037D01*
X212605820Y-94377002D01*
X212725518Y-94413312D01*
X212850000Y-94425572D01*
X214150000Y-94425572D01*
X214274482Y-94413312D01*
X214394180Y-94377002D01*
X214504494Y-94318037D01*
X214601185Y-94238685D01*
X214680537Y-94141994D01*
X214739502Y-94031680D01*
X214746079Y-94010000D01*
X215621291Y-94010000D01*
X221990000Y-100378710D01*
X221990001Y-107532668D01*
X221986324Y-107570000D01*
X221990001Y-107607333D01*
X221992553Y-107633238D01*
X222000998Y-107718985D01*
X222044454Y-107862246D01*
X222115026Y-107994276D01*
X222159925Y-108048985D01*
X222210000Y-108110001D01*
X222238998Y-108133799D01*
X222647177Y-108541978D01*
X222621705Y-108625949D01*
X222592743Y-108920000D01*
X222621705Y-109214051D01*
X222707476Y-109496802D01*
X222846762Y-109757387D01*
X223034208Y-109985792D01*
X223262613Y-110173238D01*
X223293972Y-110190000D01*
X223262613Y-110206762D01*
X223034208Y-110394208D01*
X222846762Y-110622613D01*
X222707476Y-110883198D01*
X222621705Y-111165949D01*
X222592743Y-111460000D01*
X222621705Y-111754051D01*
X222707476Y-112036802D01*
X222846762Y-112297387D01*
X223034208Y-112525792D01*
X223040030Y-112530570D01*
X222990820Y-112545498D01*
X222880506Y-112604463D01*
X222783815Y-112683815D01*
X222704463Y-112780506D01*
X222645498Y-112890820D01*
X222609188Y-113010518D01*
X222596928Y-113135000D01*
X222600000Y-113714250D01*
X222758750Y-113873000D01*
X224123000Y-113873000D01*
X224123000Y-113853000D01*
X224377000Y-113853000D01*
X224377000Y-113873000D01*
X225741250Y-113873000D01*
X225900000Y-113714250D01*
X225903072Y-113135000D01*
X225890812Y-113010518D01*
X225854502Y-112890820D01*
X225795537Y-112780506D01*
X225716185Y-112683815D01*
X225619494Y-112604463D01*
X225509180Y-112545498D01*
X225459970Y-112530570D01*
X225465792Y-112525792D01*
X225653238Y-112297387D01*
X225792524Y-112036802D01*
X225878295Y-111754051D01*
X225907257Y-111460000D01*
X225878295Y-111165949D01*
X225792524Y-110883198D01*
X225653238Y-110622613D01*
X225465792Y-110394208D01*
X225237387Y-110206762D01*
X225206028Y-110190000D01*
X225237387Y-110173238D01*
X225465792Y-109985792D01*
X225616414Y-109802258D01*
X225654606Y-109840450D01*
X225848692Y-109970134D01*
X226064348Y-110059461D01*
X226293288Y-110105000D01*
X226526712Y-110105000D01*
X226755652Y-110059461D01*
X226971308Y-109970134D01*
X227165394Y-109840450D01*
X227330450Y-109675394D01*
X227460134Y-109481308D01*
X227549461Y-109265652D01*
X227595000Y-109036712D01*
X227595000Y-108803288D01*
X227549461Y-108574348D01*
X227460134Y-108358692D01*
X227330450Y-108164606D01*
X227165394Y-107999550D01*
X226971308Y-107869866D01*
X226755652Y-107780539D01*
X226526712Y-107735000D01*
X226293288Y-107735000D01*
X226064348Y-107780539D01*
X225848692Y-107869866D01*
X225654606Y-107999550D01*
X225616414Y-108037742D01*
X225465792Y-107854208D01*
X225237387Y-107666762D01*
X225206028Y-107650000D01*
X225237387Y-107633238D01*
X225465792Y-107445792D01*
X225653238Y-107217387D01*
X225792524Y-106956802D01*
X225878295Y-106674051D01*
X225907257Y-106380000D01*
X225878295Y-106085949D01*
X225792524Y-105803198D01*
X225653238Y-105542613D01*
X225465792Y-105314208D01*
X225237387Y-105126762D01*
X225010000Y-105005221D01*
X225010000Y-100964823D01*
X225013676Y-100927498D01*
X225010000Y-100890173D01*
X225010000Y-100890165D01*
X224999003Y-100778512D01*
X224955546Y-100635251D01*
X224884974Y-100503222D01*
X224790001Y-100387497D01*
X224761004Y-100363700D01*
X213122875Y-88725572D01*
X214150000Y-88725572D01*
X214274482Y-88713312D01*
X214394180Y-88677002D01*
X214504494Y-88618037D01*
X214601185Y-88538685D01*
X214680537Y-88441994D01*
X214739502Y-88331680D01*
X214775812Y-88211982D01*
X214788072Y-88087500D01*
X214788072Y-85712500D01*
X214775812Y-85588018D01*
X214739502Y-85468320D01*
X214680537Y-85358006D01*
X214601185Y-85261315D01*
X214504494Y-85181963D01*
X214394180Y-85122998D01*
X214274482Y-85086688D01*
X214150000Y-85074428D01*
X212850000Y-85074428D01*
X212725518Y-85086688D01*
X212605820Y-85122998D01*
X212495506Y-85181963D01*
X212398815Y-85261315D01*
X212319463Y-85358006D01*
X212260498Y-85468320D01*
X212250000Y-85502927D01*
X212239502Y-85468320D01*
X212180537Y-85358006D01*
X212101185Y-85261315D01*
X212004494Y-85181963D01*
X211894180Y-85122998D01*
X211774482Y-85086688D01*
X211650000Y-85074428D01*
X210350000Y-85074428D01*
X210225518Y-85086688D01*
X210105820Y-85122998D01*
X209995506Y-85181963D01*
X209898815Y-85261315D01*
X209819463Y-85358006D01*
X209760498Y-85468320D01*
X209750000Y-85502927D01*
X209739502Y-85468320D01*
X209680537Y-85358006D01*
X209601185Y-85261315D01*
X209504494Y-85181963D01*
X209394180Y-85122998D01*
X209274482Y-85086688D01*
X209260000Y-85085262D01*
X209260000Y-84287322D01*
X209263676Y-84249999D01*
X209260000Y-84212676D01*
X209260000Y-84212667D01*
X209249003Y-84101014D01*
X209205546Y-83957753D01*
X209134975Y-83825725D01*
X209134974Y-83825723D01*
X209063799Y-83738997D01*
X209040001Y-83709999D01*
X209011004Y-83686202D01*
X207535000Y-82210199D01*
X207535000Y-82148061D01*
X207495226Y-81948102D01*
X207417205Y-81759744D01*
X207303937Y-81590226D01*
X207159774Y-81446063D01*
X206990256Y-81332795D01*
X206801898Y-81254774D01*
X206601939Y-81215000D01*
X206398061Y-81215000D01*
X206198102Y-81254774D01*
X206009744Y-81332795D01*
X205840226Y-81446063D01*
X205696063Y-81590226D01*
X205582795Y-81759744D01*
X205504774Y-81948102D01*
X205465000Y-82148061D01*
X205465000Y-82351939D01*
X205504774Y-82551898D01*
X205582795Y-82740256D01*
X205696063Y-82909774D01*
X205840226Y-83053937D01*
X206009744Y-83167205D01*
X206198102Y-83245226D01*
X206398061Y-83285000D01*
X206460199Y-83285000D01*
X207740000Y-84564802D01*
X207740000Y-85085262D01*
X207725518Y-85086688D01*
X207605820Y-85122998D01*
X207495506Y-85181963D01*
X207398815Y-85261315D01*
X207319463Y-85358006D01*
X207260498Y-85468320D01*
X207224188Y-85588018D01*
X207211928Y-85712500D01*
X207211928Y-86959628D01*
X206516300Y-86264001D01*
X206492498Y-86234998D01*
X206376773Y-86140025D01*
X206244744Y-86069453D01*
X206101483Y-86025996D01*
X205989830Y-86014999D01*
X205989819Y-86014999D01*
X205952497Y-86011323D01*
X205915175Y-86014999D01*
X204439321Y-86014999D01*
X204401998Y-86011323D01*
X204364675Y-86014999D01*
X204364666Y-86014999D01*
X204253013Y-86025996D01*
X204109752Y-86069453D01*
X203977723Y-86140025D01*
X203861998Y-86234998D01*
X203838200Y-86263996D01*
X201362197Y-88740000D01*
X199953711Y-88740000D01*
X199909774Y-88696063D01*
X199740256Y-88582795D01*
X199551898Y-88504774D01*
X199351939Y-88465000D01*
X199148061Y-88465000D01*
X198948102Y-88504774D01*
X198759744Y-88582795D01*
X198590226Y-88696063D01*
X198446063Y-88840226D01*
X198332795Y-89009744D01*
X198254774Y-89198102D01*
X198215000Y-89398061D01*
X134313150Y-89398061D01*
X139968509Y-83742702D01*
X200436903Y-83742702D01*
X200508486Y-83986671D01*
X200763996Y-84107571D01*
X201038184Y-84176300D01*
X201320512Y-84190217D01*
X201600130Y-84148787D01*
X201866292Y-84053603D01*
X201991514Y-83986671D01*
X202063097Y-83742702D01*
X201250000Y-82929605D01*
X200436903Y-83742702D01*
X139968509Y-83742702D01*
X140890699Y-82820512D01*
X199809783Y-82820512D01*
X199851213Y-83100130D01*
X199946397Y-83366292D01*
X200013329Y-83491514D01*
X200257298Y-83563097D01*
X201070395Y-82750000D01*
X201429605Y-82750000D01*
X202242702Y-83563097D01*
X202311928Y-83542785D01*
X202311928Y-83550000D01*
X202324188Y-83674482D01*
X202360498Y-83794180D01*
X202419463Y-83904494D01*
X202498815Y-84001185D01*
X202595506Y-84080537D01*
X202705820Y-84139502D01*
X202825518Y-84175812D01*
X202950000Y-84188072D01*
X204550000Y-84188072D01*
X204674482Y-84175812D01*
X204794180Y-84139502D01*
X204904494Y-84080537D01*
X205001185Y-84001185D01*
X205080537Y-83904494D01*
X205139502Y-83794180D01*
X205175812Y-83674482D01*
X205188072Y-83550000D01*
X205188072Y-81950000D01*
X205175812Y-81825518D01*
X205139502Y-81705820D01*
X205080537Y-81595506D01*
X205001185Y-81498815D01*
X204904494Y-81419463D01*
X204794180Y-81360498D01*
X204674482Y-81324188D01*
X204550000Y-81311928D01*
X202950000Y-81311928D01*
X202825518Y-81324188D01*
X202705820Y-81360498D01*
X202595506Y-81419463D01*
X202498815Y-81498815D01*
X202419463Y-81595506D01*
X202360498Y-81705820D01*
X202324188Y-81825518D01*
X202311928Y-81950000D01*
X202311928Y-81957215D01*
X202242702Y-81936903D01*
X201429605Y-82750000D01*
X201070395Y-82750000D01*
X200257298Y-81936903D01*
X200013329Y-82008486D01*
X199892429Y-82263996D01*
X199823700Y-82538184D01*
X199809783Y-82820512D01*
X140890699Y-82820512D01*
X145751202Y-77960010D01*
X181005209Y-77960010D01*
X182370199Y-79325000D01*
X182269508Y-79325000D01*
X182058691Y-79345764D01*
X181788192Y-79427818D01*
X181538899Y-79561068D01*
X181320392Y-79740392D01*
X181141068Y-79958899D01*
X181070000Y-80091858D01*
X180998932Y-79958899D01*
X180819608Y-79740392D01*
X180601101Y-79561068D01*
X180351808Y-79427818D01*
X180081309Y-79345764D01*
X179870492Y-79325000D01*
X179729508Y-79325000D01*
X179518691Y-79345764D01*
X179248192Y-79427818D01*
X178998899Y-79561068D01*
X178780392Y-79740392D01*
X178601068Y-79958899D01*
X178530000Y-80091858D01*
X178458932Y-79958899D01*
X178279608Y-79740392D01*
X178061101Y-79561068D01*
X177811808Y-79427818D01*
X177541309Y-79345764D01*
X177330492Y-79325000D01*
X177189508Y-79325000D01*
X176978691Y-79345764D01*
X176708192Y-79427818D01*
X176458899Y-79561068D01*
X176240392Y-79740392D01*
X176061068Y-79958899D01*
X175990000Y-80091858D01*
X175918932Y-79958899D01*
X175739608Y-79740392D01*
X175521101Y-79561068D01*
X175271808Y-79427818D01*
X175001309Y-79345764D01*
X174790492Y-79325000D01*
X174649508Y-79325000D01*
X174438691Y-79345764D01*
X174168192Y-79427818D01*
X173918899Y-79561068D01*
X173700392Y-79740392D01*
X173521068Y-79958899D01*
X173450000Y-80091858D01*
X173378932Y-79958899D01*
X173199608Y-79740392D01*
X172981101Y-79561068D01*
X172731808Y-79427818D01*
X172461309Y-79345764D01*
X172250492Y-79325000D01*
X172109508Y-79325000D01*
X171898691Y-79345764D01*
X171628192Y-79427818D01*
X171378899Y-79561068D01*
X171160392Y-79740392D01*
X170981068Y-79958899D01*
X170910000Y-80091858D01*
X170838932Y-79958899D01*
X170659608Y-79740392D01*
X170441101Y-79561068D01*
X170191808Y-79427818D01*
X169921309Y-79345764D01*
X169710492Y-79325000D01*
X169569508Y-79325000D01*
X169358691Y-79345764D01*
X169088192Y-79427818D01*
X168838899Y-79561068D01*
X168620392Y-79740392D01*
X168441068Y-79958899D01*
X168370000Y-80091858D01*
X168298932Y-79958899D01*
X168119608Y-79740392D01*
X167901101Y-79561068D01*
X167651808Y-79427818D01*
X167381309Y-79345764D01*
X167170492Y-79325000D01*
X167029508Y-79325000D01*
X166818691Y-79345764D01*
X166548192Y-79427818D01*
X166298899Y-79561068D01*
X166080392Y-79740392D01*
X165901068Y-79958899D01*
X165830000Y-80091858D01*
X165758932Y-79958899D01*
X165579608Y-79740392D01*
X165361101Y-79561068D01*
X165111808Y-79427818D01*
X164841309Y-79345764D01*
X164630492Y-79325000D01*
X164489508Y-79325000D01*
X164278691Y-79345764D01*
X164008192Y-79427818D01*
X163758899Y-79561068D01*
X163540392Y-79740392D01*
X163361068Y-79958899D01*
X163290000Y-80091858D01*
X163218932Y-79958899D01*
X163039608Y-79740392D01*
X162821101Y-79561068D01*
X162571808Y-79427818D01*
X162301309Y-79345764D01*
X162090492Y-79325000D01*
X161949508Y-79325000D01*
X161738691Y-79345764D01*
X161468192Y-79427818D01*
X161218899Y-79561068D01*
X161000392Y-79740392D01*
X160821068Y-79958899D01*
X160750000Y-80091858D01*
X160678932Y-79958899D01*
X160499608Y-79740392D01*
X160281101Y-79561068D01*
X160031808Y-79427818D01*
X159761309Y-79345764D01*
X159550492Y-79325000D01*
X159409508Y-79325000D01*
X159198691Y-79345764D01*
X158928192Y-79427818D01*
X158678899Y-79561068D01*
X158460392Y-79740392D01*
X158281068Y-79958899D01*
X158210000Y-80091858D01*
X158138932Y-79958899D01*
X157959608Y-79740392D01*
X157741101Y-79561068D01*
X157491808Y-79427818D01*
X157221309Y-79345764D01*
X157010492Y-79325000D01*
X156869508Y-79325000D01*
X156658691Y-79345764D01*
X156388192Y-79427818D01*
X156138899Y-79561068D01*
X155920392Y-79740392D01*
X155741068Y-79958899D01*
X155607818Y-80208192D01*
X155525764Y-80478691D01*
X155498057Y-80760000D01*
X155525764Y-81041309D01*
X155607818Y-81311808D01*
X155741068Y-81561101D01*
X155920392Y-81779608D01*
X156138899Y-81958932D01*
X156388192Y-82092182D01*
X156658691Y-82174236D01*
X156869508Y-82195000D01*
X157010492Y-82195000D01*
X157221309Y-82174236D01*
X157491808Y-82092182D01*
X157741101Y-81958932D01*
X157959608Y-81779608D01*
X158138932Y-81561101D01*
X158210000Y-81428142D01*
X158281068Y-81561101D01*
X158460392Y-81779608D01*
X158678899Y-81958932D01*
X158928192Y-82092182D01*
X159198691Y-82174236D01*
X159409508Y-82195000D01*
X159550492Y-82195000D01*
X159761309Y-82174236D01*
X160031808Y-82092182D01*
X160281101Y-81958932D01*
X160499608Y-81779608D01*
X160678932Y-81561101D01*
X160750000Y-81428142D01*
X160821068Y-81561101D01*
X161000392Y-81779608D01*
X161218899Y-81958932D01*
X161468192Y-82092182D01*
X161738691Y-82174236D01*
X161949508Y-82195000D01*
X162090492Y-82195000D01*
X162301309Y-82174236D01*
X162571808Y-82092182D01*
X162821101Y-81958932D01*
X163039608Y-81779608D01*
X163218932Y-81561101D01*
X163290000Y-81428142D01*
X163361068Y-81561101D01*
X163540392Y-81779608D01*
X163758899Y-81958932D01*
X164008192Y-82092182D01*
X164278691Y-82174236D01*
X164489508Y-82195000D01*
X164630492Y-82195000D01*
X164841309Y-82174236D01*
X165111808Y-82092182D01*
X165361101Y-81958932D01*
X165579608Y-81779608D01*
X165758932Y-81561101D01*
X165830000Y-81428142D01*
X165901068Y-81561101D01*
X166080392Y-81779608D01*
X166298899Y-81958932D01*
X166548192Y-82092182D01*
X166818691Y-82174236D01*
X167029508Y-82195000D01*
X167170492Y-82195000D01*
X167381309Y-82174236D01*
X167651808Y-82092182D01*
X167901101Y-81958932D01*
X168119608Y-81779608D01*
X168298932Y-81561101D01*
X168370000Y-81428142D01*
X168441068Y-81561101D01*
X168620392Y-81779608D01*
X168838899Y-81958932D01*
X169088192Y-82092182D01*
X169358691Y-82174236D01*
X169569508Y-82195000D01*
X169710492Y-82195000D01*
X169921309Y-82174236D01*
X170191808Y-82092182D01*
X170441101Y-81958932D01*
X170659608Y-81779608D01*
X170838932Y-81561101D01*
X170910000Y-81428142D01*
X170981068Y-81561101D01*
X171160392Y-81779608D01*
X171378899Y-81958932D01*
X171628192Y-82092182D01*
X171898691Y-82174236D01*
X172109508Y-82195000D01*
X172250492Y-82195000D01*
X172461309Y-82174236D01*
X172731808Y-82092182D01*
X172981101Y-81958932D01*
X173199608Y-81779608D01*
X173378932Y-81561101D01*
X173450000Y-81428142D01*
X173521068Y-81561101D01*
X173700392Y-81779608D01*
X173918899Y-81958932D01*
X174168192Y-82092182D01*
X174438691Y-82174236D01*
X174649508Y-82195000D01*
X174790492Y-82195000D01*
X175001309Y-82174236D01*
X175271808Y-82092182D01*
X175521101Y-81958932D01*
X175739608Y-81779608D01*
X175918932Y-81561101D01*
X175990000Y-81428142D01*
X176061068Y-81561101D01*
X176240392Y-81779608D01*
X176458899Y-81958932D01*
X176708192Y-82092182D01*
X176978691Y-82174236D01*
X177189508Y-82195000D01*
X177330492Y-82195000D01*
X177541309Y-82174236D01*
X177811808Y-82092182D01*
X178061101Y-81958932D01*
X178279608Y-81779608D01*
X178458932Y-81561101D01*
X178530000Y-81428142D01*
X178601068Y-81561101D01*
X178780392Y-81779608D01*
X178998899Y-81958932D01*
X179248192Y-82092182D01*
X179518691Y-82174236D01*
X179729508Y-82195000D01*
X179870492Y-82195000D01*
X180081309Y-82174236D01*
X180351808Y-82092182D01*
X180601101Y-81958932D01*
X180819608Y-81779608D01*
X180998932Y-81561101D01*
X181070000Y-81428142D01*
X181141068Y-81561101D01*
X181320392Y-81779608D01*
X181538899Y-81958932D01*
X181788192Y-82092182D01*
X182058691Y-82174236D01*
X182269508Y-82195000D01*
X182410492Y-82195000D01*
X182621309Y-82174236D01*
X182891808Y-82092182D01*
X183141101Y-81958932D01*
X183359608Y-81779608D01*
X183538932Y-81561101D01*
X183610000Y-81428142D01*
X183681068Y-81561101D01*
X183860392Y-81779608D01*
X184078899Y-81958932D01*
X184328192Y-82092182D01*
X184598691Y-82174236D01*
X184809508Y-82195000D01*
X184950492Y-82195000D01*
X185161309Y-82174236D01*
X185431808Y-82092182D01*
X185681101Y-81958932D01*
X185899608Y-81779608D01*
X186078932Y-81561101D01*
X186150000Y-81428142D01*
X186221068Y-81561101D01*
X186400392Y-81779608D01*
X186618899Y-81958932D01*
X186868192Y-82092182D01*
X187138691Y-82174236D01*
X187349508Y-82195000D01*
X187490492Y-82195000D01*
X187701309Y-82174236D01*
X187971808Y-82092182D01*
X188221101Y-81958932D01*
X188439608Y-81779608D01*
X188618932Y-81561101D01*
X188692579Y-81423318D01*
X188807615Y-81615131D01*
X188996586Y-81823519D01*
X189222580Y-81991037D01*
X189476913Y-82111246D01*
X189610961Y-82151904D01*
X189833000Y-82029915D01*
X189833000Y-80887000D01*
X189813000Y-80887000D01*
X189813000Y-80633000D01*
X189833000Y-80633000D01*
X189833000Y-79490085D01*
X189610961Y-79368096D01*
X189476913Y-79408754D01*
X189222580Y-79528963D01*
X188996586Y-79696481D01*
X188807615Y-79904869D01*
X188692579Y-80096682D01*
X188618932Y-79958899D01*
X188439608Y-79740392D01*
X188221101Y-79561068D01*
X187971808Y-79427818D01*
X187701309Y-79345764D01*
X187490492Y-79325000D01*
X187349508Y-79325000D01*
X187138691Y-79345764D01*
X186868192Y-79427818D01*
X186618899Y-79561068D01*
X186400392Y-79740392D01*
X186221068Y-79958899D01*
X186150000Y-80091858D01*
X186078932Y-79958899D01*
X185899608Y-79740392D01*
X185681101Y-79561068D01*
X185431808Y-79427818D01*
X185161309Y-79345764D01*
X184950492Y-79325000D01*
X184809508Y-79325000D01*
X184598691Y-79345764D01*
X184554094Y-79359292D01*
X182704801Y-77510000D01*
X188175199Y-77510000D01*
X190131070Y-79465873D01*
X190087000Y-79490085D01*
X190087000Y-80633000D01*
X190107000Y-80633000D01*
X190107000Y-80887000D01*
X190087000Y-80887000D01*
X190087000Y-82029915D01*
X190309039Y-82151904D01*
X190443087Y-82111246D01*
X190697420Y-81991037D01*
X190923414Y-81823519D01*
X191112385Y-81615131D01*
X191227421Y-81423318D01*
X191301068Y-81561101D01*
X191480392Y-81779608D01*
X191698899Y-81958932D01*
X191948192Y-82092182D01*
X192218691Y-82174236D01*
X192429508Y-82195000D01*
X192570492Y-82195000D01*
X192781309Y-82174236D01*
X193051808Y-82092182D01*
X193301101Y-81958932D01*
X193519608Y-81779608D01*
X193537917Y-81757298D01*
X200436903Y-81757298D01*
X201250000Y-82570395D01*
X202063097Y-81757298D01*
X201991514Y-81513329D01*
X201736004Y-81392429D01*
X201461816Y-81323700D01*
X201179488Y-81309783D01*
X200899870Y-81351213D01*
X200633708Y-81446397D01*
X200508486Y-81513329D01*
X200436903Y-81757298D01*
X193537917Y-81757298D01*
X193698932Y-81561101D01*
X193832182Y-81311808D01*
X193914236Y-81041309D01*
X193941943Y-80760000D01*
X193914236Y-80478691D01*
X193832182Y-80208192D01*
X193698932Y-79958899D01*
X193519608Y-79740392D01*
X193301101Y-79561068D01*
X193051808Y-79427818D01*
X192781309Y-79345764D01*
X192570492Y-79325000D01*
X192429508Y-79325000D01*
X192218691Y-79345764D01*
X192174095Y-79359292D01*
X191256787Y-78441984D01*
X208765000Y-78441984D01*
X208765000Y-79158016D01*
X208904691Y-79860290D01*
X209178705Y-80521818D01*
X209576511Y-81117177D01*
X210082823Y-81623489D01*
X210678182Y-82021295D01*
X211339710Y-82295309D01*
X212041984Y-82435000D01*
X212758016Y-82435000D01*
X213460290Y-82295309D01*
X214121818Y-82021295D01*
X214717177Y-81623489D01*
X215223489Y-81117177D01*
X215621295Y-80521818D01*
X215895309Y-79860290D01*
X216035000Y-79158016D01*
X216035000Y-78441984D01*
X215895309Y-77739710D01*
X215621295Y-77078182D01*
X215223489Y-76482823D01*
X214717177Y-75976511D01*
X214121818Y-75578705D01*
X213460290Y-75304691D01*
X212758016Y-75165000D01*
X212041984Y-75165000D01*
X211339710Y-75304691D01*
X210678182Y-75578705D01*
X210082823Y-75976511D01*
X209576511Y-76482823D01*
X209178705Y-77078182D01*
X208904691Y-77739710D01*
X208765000Y-78441984D01*
X191256787Y-78441984D01*
X189053804Y-76239003D01*
X189030001Y-76209999D01*
X188914276Y-76115026D01*
X188782247Y-76044454D01*
X188638986Y-76000997D01*
X188527333Y-75990000D01*
X188527322Y-75990000D01*
X188490000Y-75986324D01*
X188452678Y-75990000D01*
X145287322Y-75990000D01*
X145249999Y-75986324D01*
X145212676Y-75990000D01*
X145212667Y-75990000D01*
X145101014Y-76000997D01*
X144957753Y-76044454D01*
X144825723Y-76115026D01*
X144742083Y-76183668D01*
X144709999Y-76209999D01*
X144686201Y-76238997D01*
X126738998Y-94186201D01*
X126710000Y-94209999D01*
X126686202Y-94238997D01*
X126686201Y-94238998D01*
X126615026Y-94325724D01*
X126544454Y-94457754D01*
X126525153Y-94521384D01*
X126500998Y-94601014D01*
X126500064Y-94610498D01*
X126486324Y-94750000D01*
X126490001Y-94787332D01*
X126490000Y-108045221D01*
X126262613Y-108166762D01*
X126034208Y-108354208D01*
X125846762Y-108582613D01*
X125707476Y-108843198D01*
X125621705Y-109125949D01*
X125592743Y-109420000D01*
X121660000Y-109420000D01*
X121660000Y-82860000D01*
X126967581Y-82860000D01*
X127000000Y-82863193D01*
X127032419Y-82860000D01*
X127129383Y-82850450D01*
X127253793Y-82812710D01*
X127368450Y-82751425D01*
X127468948Y-82668948D01*
X127551425Y-82568450D01*
X127612710Y-82453793D01*
X127650450Y-82329383D01*
X127663193Y-82200000D01*
X127660000Y-82167581D01*
X127660000Y-78441984D01*
X129965000Y-78441984D01*
X129965000Y-79158016D01*
X130104691Y-79860290D01*
X130378705Y-80521818D01*
X130776511Y-81117177D01*
X131282823Y-81623489D01*
X131878182Y-82021295D01*
X132539710Y-82295309D01*
X133241984Y-82435000D01*
X133958016Y-82435000D01*
X134660290Y-82295309D01*
X135321818Y-82021295D01*
X135917177Y-81623489D01*
X136423489Y-81117177D01*
X136821295Y-80521818D01*
X137095309Y-79860290D01*
X137235000Y-79158016D01*
X137235000Y-78441984D01*
X137095309Y-77739710D01*
X136821295Y-77078182D01*
X136423489Y-76482823D01*
X135917177Y-75976511D01*
X135321818Y-75578705D01*
X134660290Y-75304691D01*
X133958016Y-75165000D01*
X133241984Y-75165000D01*
X132539710Y-75304691D01*
X131878182Y-75578705D01*
X131282823Y-75976511D01*
X130776511Y-76482823D01*
X130378705Y-77078182D01*
X130104691Y-77739710D01*
X129965000Y-78441984D01*
X127660000Y-78441984D01*
X127660000Y-73860000D01*
X217170953Y-73860000D01*
X217170953Y-76277500D01*
M02*
