G04 #@! TF.GenerationSoftware,KiCad,Pcbnew,(5.1.0)-1*
G04 #@! TF.CreationDate,2019-07-24T14:01:51+02:00*
G04 #@! TF.ProjectId,AirSensorModule,41697253-656e-4736-9f72-4d6f64756c65,rev?*
G04 #@! TF.SameCoordinates,Original*
G04 #@! TF.FileFunction,Legend,Top*
G04 #@! TF.FilePolarity,Positive*
%FSLAX46Y46*%
G04 Gerber Fmt 4.6, Leading zero omitted, Abs format (unit mm)*
G04 Created by KiCad (PCBNEW (5.1.0)-1) date 2019-07-24 14:01:51*
%MOMM*%
%LPD*%
G04 APERTURE LIST*
%ADD10C,0.150000*%
%ADD11C,0.120000*%
G04 APERTURE END LIST*
D10*
X167287976Y-89429761D02*
X167430833Y-89477380D01*
X167668928Y-89477380D01*
X167764166Y-89429761D01*
X167811785Y-89382142D01*
X167859404Y-89286904D01*
X167859404Y-89191666D01*
X167811785Y-89096428D01*
X167764166Y-89048809D01*
X167668928Y-89001190D01*
X167478452Y-88953571D01*
X167383214Y-88905952D01*
X167335595Y-88858333D01*
X167287976Y-88763095D01*
X167287976Y-88667857D01*
X167335595Y-88572619D01*
X167383214Y-88525000D01*
X167478452Y-88477380D01*
X167716547Y-88477380D01*
X167859404Y-88525000D01*
X168287976Y-88953571D02*
X168621309Y-88953571D01*
X168764166Y-89477380D02*
X168287976Y-89477380D01*
X168287976Y-88477380D01*
X168764166Y-88477380D01*
X169192738Y-89477380D02*
X169192738Y-88477380D01*
X169764166Y-89477380D01*
X169764166Y-88477380D01*
X170192738Y-89429761D02*
X170335595Y-89477380D01*
X170573690Y-89477380D01*
X170668928Y-89429761D01*
X170716547Y-89382142D01*
X170764166Y-89286904D01*
X170764166Y-89191666D01*
X170716547Y-89096428D01*
X170668928Y-89048809D01*
X170573690Y-89001190D01*
X170383214Y-88953571D01*
X170287976Y-88905952D01*
X170240357Y-88858333D01*
X170192738Y-88763095D01*
X170192738Y-88667857D01*
X170240357Y-88572619D01*
X170287976Y-88525000D01*
X170383214Y-88477380D01*
X170621309Y-88477380D01*
X170764166Y-88525000D01*
X171192738Y-88953571D02*
X171526071Y-88953571D01*
X171668928Y-89477380D02*
X171192738Y-89477380D01*
X171192738Y-88477380D01*
X171668928Y-88477380D01*
X173335595Y-89477380D02*
X172859404Y-89477380D01*
X172859404Y-88477380D01*
X173668928Y-89477380D02*
X173668928Y-88477380D01*
X174145119Y-89477380D02*
X174145119Y-88477380D01*
X174716547Y-89477380D01*
X174716547Y-88477380D01*
X175192738Y-88953571D02*
X175526071Y-88953571D01*
X175668928Y-89477380D02*
X175192738Y-89477380D01*
X175192738Y-88477380D01*
X175668928Y-88477380D01*
X176049880Y-89429761D02*
X176192738Y-89477380D01*
X176430833Y-89477380D01*
X176526071Y-89429761D01*
X176573690Y-89382142D01*
X176621309Y-89286904D01*
X176621309Y-89191666D01*
X176573690Y-89096428D01*
X176526071Y-89048809D01*
X176430833Y-89001190D01*
X176240357Y-88953571D01*
X176145119Y-88905952D01*
X176097500Y-88858333D01*
X176049880Y-88763095D01*
X176049880Y-88667857D01*
X176097500Y-88572619D01*
X176145119Y-88525000D01*
X176240357Y-88477380D01*
X176478452Y-88477380D01*
X176621309Y-88525000D01*
X167859404Y-91127380D02*
X167287976Y-91127380D01*
X167573690Y-91127380D02*
X167573690Y-90127380D01*
X167478452Y-90270238D01*
X167383214Y-90365476D01*
X167287976Y-90413095D01*
X169049880Y-90746428D02*
X169811785Y-90746428D01*
X171049880Y-91127380D02*
X171049880Y-90127380D01*
X171049880Y-90603571D02*
X171621309Y-90603571D01*
X171621309Y-91127380D02*
X171621309Y-90127380D01*
X172097500Y-90127380D02*
X172097500Y-90936904D01*
X172145119Y-91032142D01*
X172192738Y-91079761D01*
X172287976Y-91127380D01*
X172478452Y-91127380D01*
X172573690Y-91079761D01*
X172621309Y-91032142D01*
X172668928Y-90936904D01*
X172668928Y-90127380D01*
X173145119Y-91127380D02*
X173145119Y-90127380D01*
X173478452Y-90841666D01*
X173811785Y-90127380D01*
X173811785Y-91127380D01*
X175478452Y-91127380D02*
X175478452Y-90603571D01*
X175430833Y-90508333D01*
X175335595Y-90460714D01*
X175145119Y-90460714D01*
X175049880Y-90508333D01*
X175478452Y-91079761D02*
X175383214Y-91127380D01*
X175145119Y-91127380D01*
X175049880Y-91079761D01*
X175002261Y-90984523D01*
X175002261Y-90889285D01*
X175049880Y-90794047D01*
X175145119Y-90746428D01*
X175383214Y-90746428D01*
X175478452Y-90698809D01*
X175954642Y-90460714D02*
X175954642Y-91127380D01*
X175954642Y-90555952D02*
X176002261Y-90508333D01*
X176097500Y-90460714D01*
X176240357Y-90460714D01*
X176335595Y-90508333D01*
X176383214Y-90603571D01*
X176383214Y-91127380D01*
X177287976Y-91127380D02*
X177287976Y-90127380D01*
X177287976Y-91079761D02*
X177192738Y-91127380D01*
X177002261Y-91127380D01*
X176907023Y-91079761D01*
X176859404Y-91032142D01*
X176811785Y-90936904D01*
X176811785Y-90651190D01*
X176859404Y-90555952D01*
X176907023Y-90508333D01*
X177002261Y-90460714D01*
X177192738Y-90460714D01*
X177287976Y-90508333D01*
X178383214Y-90127380D02*
X178954642Y-90127380D01*
X178668928Y-91127380D02*
X178668928Y-90127380D01*
X179287976Y-90603571D02*
X179621309Y-90603571D01*
X179764166Y-91127380D02*
X179287976Y-91127380D01*
X179287976Y-90127380D01*
X179764166Y-90127380D01*
X180192738Y-91127380D02*
X180192738Y-90127380D01*
X180526071Y-90841666D01*
X180859404Y-90127380D01*
X180859404Y-91127380D01*
X181335595Y-91127380D02*
X181335595Y-90127380D01*
X181716547Y-90127380D01*
X181811785Y-90175000D01*
X181859404Y-90222619D01*
X181907023Y-90317857D01*
X181907023Y-90460714D01*
X181859404Y-90555952D01*
X181811785Y-90603571D01*
X181716547Y-90651190D01*
X181335595Y-90651190D01*
X167383214Y-92777380D02*
X167573690Y-92777380D01*
X167668928Y-92729761D01*
X167716547Y-92682142D01*
X167811785Y-92539285D01*
X167859404Y-92348809D01*
X167859404Y-91967857D01*
X167811785Y-91872619D01*
X167764166Y-91825000D01*
X167668928Y-91777380D01*
X167478452Y-91777380D01*
X167383214Y-91825000D01*
X167335595Y-91872619D01*
X167287976Y-91967857D01*
X167287976Y-92205952D01*
X167335595Y-92301190D01*
X167383214Y-92348809D01*
X167478452Y-92396428D01*
X167668928Y-92396428D01*
X167764166Y-92348809D01*
X167811785Y-92301190D01*
X167859404Y-92205952D01*
X169049880Y-92396428D02*
X169811785Y-92396428D01*
X171002261Y-92729761D02*
X171145119Y-92777380D01*
X171383214Y-92777380D01*
X171478452Y-92729761D01*
X171526071Y-92682142D01*
X171573690Y-92586904D01*
X171573690Y-92491666D01*
X171526071Y-92396428D01*
X171478452Y-92348809D01*
X171383214Y-92301190D01*
X171192738Y-92253571D01*
X171097500Y-92205952D01*
X171049880Y-92158333D01*
X171002261Y-92063095D01*
X171002261Y-91967857D01*
X171049880Y-91872619D01*
X171097500Y-91825000D01*
X171192738Y-91777380D01*
X171430833Y-91777380D01*
X171573690Y-91825000D01*
X172383214Y-92729761D02*
X172287976Y-92777380D01*
X172097500Y-92777380D01*
X172002261Y-92729761D01*
X171954642Y-92634523D01*
X171954642Y-92253571D01*
X172002261Y-92158333D01*
X172097500Y-92110714D01*
X172287976Y-92110714D01*
X172383214Y-92158333D01*
X172430833Y-92253571D01*
X172430833Y-92348809D01*
X171954642Y-92444047D01*
X173002261Y-92777380D02*
X172907023Y-92729761D01*
X172859404Y-92634523D01*
X172859404Y-91777380D01*
X173764166Y-92729761D02*
X173668928Y-92777380D01*
X173478452Y-92777380D01*
X173383214Y-92729761D01*
X173335595Y-92634523D01*
X173335595Y-92253571D01*
X173383214Y-92158333D01*
X173478452Y-92110714D01*
X173668928Y-92110714D01*
X173764166Y-92158333D01*
X173811785Y-92253571D01*
X173811785Y-92348809D01*
X173335595Y-92444047D01*
X174668928Y-92729761D02*
X174573690Y-92777380D01*
X174383214Y-92777380D01*
X174287976Y-92729761D01*
X174240357Y-92682142D01*
X174192738Y-92586904D01*
X174192738Y-92301190D01*
X174240357Y-92205952D01*
X174287976Y-92158333D01*
X174383214Y-92110714D01*
X174573690Y-92110714D01*
X174668928Y-92158333D01*
X174954642Y-92110714D02*
X175335595Y-92110714D01*
X175097500Y-91777380D02*
X175097500Y-92634523D01*
X175145119Y-92729761D01*
X175240357Y-92777380D01*
X175335595Y-92777380D01*
X176430833Y-92777380D02*
X176430833Y-91777380D01*
X176430833Y-92253571D02*
X177002261Y-92253571D01*
X177002261Y-92777380D02*
X177002261Y-91777380D01*
X177478452Y-91777380D02*
X177478452Y-92586904D01*
X177526071Y-92682142D01*
X177573690Y-92729761D01*
X177668928Y-92777380D01*
X177859404Y-92777380D01*
X177954642Y-92729761D01*
X178002261Y-92682142D01*
X178049880Y-92586904D01*
X178049880Y-91777380D01*
X178526071Y-92777380D02*
X178526071Y-91777380D01*
X178859404Y-92491666D01*
X179192738Y-91777380D01*
X179192738Y-92777380D01*
X180716547Y-93158333D02*
X180668928Y-93110714D01*
X180573690Y-92967857D01*
X180526071Y-92872619D01*
X180478452Y-92729761D01*
X180430833Y-92491666D01*
X180430833Y-92301190D01*
X180478452Y-92063095D01*
X180526071Y-91920238D01*
X180573690Y-91825000D01*
X180668928Y-91682142D01*
X180716547Y-91634523D01*
X180859404Y-91410000D02*
X181811785Y-91410000D01*
X181145119Y-92777380D02*
X181335595Y-92777380D01*
X181430833Y-92729761D01*
X181478452Y-92682142D01*
X181573690Y-92539285D01*
X181621309Y-92348809D01*
X181621309Y-91967857D01*
X181573690Y-91872619D01*
X181526071Y-91825000D01*
X181430833Y-91777380D01*
X181240357Y-91777380D01*
X181145119Y-91825000D01*
X181097500Y-91872619D01*
X181049880Y-91967857D01*
X181049880Y-92205952D01*
X181097500Y-92301190D01*
X181145119Y-92348809D01*
X181240357Y-92396428D01*
X181430833Y-92396428D01*
X181526071Y-92348809D01*
X181573690Y-92301190D01*
X181621309Y-92205952D01*
X181954642Y-93158333D02*
X182002261Y-93110714D01*
X182097500Y-92967857D01*
X182145119Y-92872619D01*
X182192738Y-92729761D01*
X182240357Y-92491666D01*
X182240357Y-92301190D01*
X182192738Y-92063095D01*
X182145119Y-91920238D01*
X182097500Y-91825000D01*
X182002261Y-91682142D01*
X181954642Y-91634523D01*
X184383214Y-92777380D02*
X184287976Y-92729761D01*
X184240357Y-92682142D01*
X184192738Y-92586904D01*
X184192738Y-92301190D01*
X184240357Y-92205952D01*
X184287976Y-92158333D01*
X184383214Y-92110714D01*
X184526071Y-92110714D01*
X184621309Y-92158333D01*
X184668928Y-92205952D01*
X184716547Y-92301190D01*
X184716547Y-92586904D01*
X184668928Y-92682142D01*
X184621309Y-92729761D01*
X184526071Y-92777380D01*
X184383214Y-92777380D01*
X185145119Y-92777380D02*
X185145119Y-92110714D01*
X185145119Y-92301190D02*
X185192738Y-92205952D01*
X185240357Y-92158333D01*
X185335595Y-92110714D01*
X185430833Y-92110714D01*
X186383214Y-91777380D02*
X186954642Y-91777380D01*
X186668928Y-92777380D02*
X186668928Y-91777380D01*
X187287976Y-92253571D02*
X187621309Y-92253571D01*
X187764166Y-92777380D02*
X187287976Y-92777380D01*
X187287976Y-91777380D01*
X187764166Y-91777380D01*
X188192738Y-92777380D02*
X188192738Y-91777380D01*
X188526071Y-92491666D01*
X188859404Y-91777380D01*
X188859404Y-92777380D01*
X189335595Y-92777380D02*
X189335595Y-91777380D01*
X189716547Y-91777380D01*
X189811785Y-91825000D01*
X189859404Y-91872619D01*
X189907023Y-91967857D01*
X189907023Y-92110714D01*
X189859404Y-92205952D01*
X189811785Y-92253571D01*
X189716547Y-92301190D01*
X189335595Y-92301190D01*
X167287976Y-93522619D02*
X167335595Y-93475000D01*
X167430833Y-93427380D01*
X167668928Y-93427380D01*
X167764166Y-93475000D01*
X167811785Y-93522619D01*
X167859404Y-93617857D01*
X167859404Y-93713095D01*
X167811785Y-93855952D01*
X167240357Y-94427380D01*
X167859404Y-94427380D01*
X169049880Y-94046428D02*
X169811785Y-94046428D01*
X171049880Y-94427380D02*
X171049880Y-93427380D01*
X171430833Y-93427380D01*
X171526071Y-93475000D01*
X171573690Y-93522619D01*
X171621309Y-93617857D01*
X171621309Y-93760714D01*
X171573690Y-93855952D01*
X171526071Y-93903571D01*
X171430833Y-93951190D01*
X171049880Y-93951190D01*
X172049880Y-94427380D02*
X172049880Y-93760714D01*
X172049880Y-93951190D02*
X172097500Y-93855952D01*
X172145119Y-93808333D01*
X172240357Y-93760714D01*
X172335595Y-93760714D01*
X173049880Y-94379761D02*
X172954642Y-94427380D01*
X172764166Y-94427380D01*
X172668928Y-94379761D01*
X172621309Y-94284523D01*
X172621309Y-93903571D01*
X172668928Y-93808333D01*
X172764166Y-93760714D01*
X172954642Y-93760714D01*
X173049880Y-93808333D01*
X173097500Y-93903571D01*
X173097500Y-93998809D01*
X172621309Y-94094047D01*
X173478452Y-94379761D02*
X173573690Y-94427380D01*
X173764166Y-94427380D01*
X173859404Y-94379761D01*
X173907023Y-94284523D01*
X173907023Y-94236904D01*
X173859404Y-94141666D01*
X173764166Y-94094047D01*
X173621309Y-94094047D01*
X173526071Y-94046428D01*
X173478452Y-93951190D01*
X173478452Y-93903571D01*
X173526071Y-93808333D01*
X173621309Y-93760714D01*
X173764166Y-93760714D01*
X173859404Y-93808333D01*
X174287976Y-94379761D02*
X174383214Y-94427380D01*
X174573690Y-94427380D01*
X174668928Y-94379761D01*
X174716547Y-94284523D01*
X174716547Y-94236904D01*
X174668928Y-94141666D01*
X174573690Y-94094047D01*
X174430833Y-94094047D01*
X174335595Y-94046428D01*
X174287976Y-93951190D01*
X174287976Y-93903571D01*
X174335595Y-93808333D01*
X174430833Y-93760714D01*
X174573690Y-93760714D01*
X174668928Y-93808333D01*
X175573690Y-93760714D02*
X175573690Y-94427380D01*
X175145119Y-93760714D02*
X175145119Y-94284523D01*
X175192738Y-94379761D01*
X175287976Y-94427380D01*
X175430833Y-94427380D01*
X175526071Y-94379761D01*
X175573690Y-94332142D01*
X176049880Y-94427380D02*
X176049880Y-93760714D01*
X176049880Y-93951190D02*
X176097500Y-93855952D01*
X176145119Y-93808333D01*
X176240357Y-93760714D01*
X176335595Y-93760714D01*
X177049880Y-94379761D02*
X176954642Y-94427380D01*
X176764166Y-94427380D01*
X176668928Y-94379761D01*
X176621309Y-94284523D01*
X176621309Y-93903571D01*
X176668928Y-93808333D01*
X176764166Y-93760714D01*
X176954642Y-93760714D01*
X177049880Y-93808333D01*
X177097500Y-93903571D01*
X177097500Y-93998809D01*
X176621309Y-94094047D01*
X226142857Y-106428571D02*
X226285714Y-106476190D01*
X226333333Y-106523809D01*
X226380952Y-106619047D01*
X226380952Y-106761904D01*
X226333333Y-106857142D01*
X226285714Y-106904761D01*
X226190476Y-106952380D01*
X225809523Y-106952380D01*
X225809523Y-105952380D01*
X226142857Y-105952380D01*
X226238095Y-106000000D01*
X226285714Y-106047619D01*
X226333333Y-106142857D01*
X226333333Y-106238095D01*
X226285714Y-106333333D01*
X226238095Y-106380952D01*
X226142857Y-106428571D01*
X225809523Y-106428571D01*
X227285714Y-106952380D02*
X226809523Y-106952380D01*
X226809523Y-105952380D01*
X227619047Y-105952380D02*
X227619047Y-106761904D01*
X227666666Y-106857142D01*
X227714285Y-106904761D01*
X227809523Y-106952380D01*
X228000000Y-106952380D01*
X228095238Y-106904761D01*
X228142857Y-106857142D01*
X228190476Y-106761904D01*
X228190476Y-105952380D01*
X226023809Y-111476190D02*
X226023809Y-111952380D01*
X225690476Y-110952380D02*
X226023809Y-111476190D01*
X226357142Y-110952380D01*
X227166666Y-111952380D02*
X226690476Y-111952380D01*
X226690476Y-110952380D01*
X227404761Y-110952380D02*
X227642857Y-111952380D01*
X227833333Y-111238095D01*
X228023809Y-111952380D01*
X228261904Y-110952380D01*
X226166666Y-114178571D02*
X226309523Y-114226190D01*
X226357142Y-114273809D01*
X226404761Y-114369047D01*
X226404761Y-114511904D01*
X226357142Y-114607142D01*
X226309523Y-114654761D01*
X226214285Y-114702380D01*
X225833333Y-114702380D01*
X225833333Y-113702380D01*
X226166666Y-113702380D01*
X226261904Y-113750000D01*
X226309523Y-113797619D01*
X226357142Y-113892857D01*
X226357142Y-113988095D01*
X226309523Y-114083333D01*
X226261904Y-114130952D01*
X226166666Y-114178571D01*
X225833333Y-114178571D01*
X227309523Y-114702380D02*
X226833333Y-114702380D01*
X226833333Y-113702380D01*
X227642857Y-114702380D02*
X227642857Y-113702380D01*
X228214285Y-114702380D02*
X227785714Y-114130952D01*
X228214285Y-113702380D02*
X227642857Y-114273809D01*
X129238095Y-114000000D02*
X129142857Y-113952380D01*
X129000000Y-113952380D01*
X128857142Y-114000000D01*
X128761904Y-114095238D01*
X128714285Y-114190476D01*
X128666666Y-114380952D01*
X128666666Y-114523809D01*
X128714285Y-114714285D01*
X128761904Y-114809523D01*
X128857142Y-114904761D01*
X129000000Y-114952380D01*
X129095238Y-114952380D01*
X129238095Y-114904761D01*
X129285714Y-114857142D01*
X129285714Y-114523809D01*
X129095238Y-114523809D01*
X130285714Y-114952380D02*
X129952380Y-114476190D01*
X129714285Y-114952380D02*
X129714285Y-113952380D01*
X130095238Y-113952380D01*
X130190476Y-114000000D01*
X130238095Y-114047619D01*
X130285714Y-114142857D01*
X130285714Y-114285714D01*
X130238095Y-114380952D01*
X130190476Y-114428571D01*
X130095238Y-114476190D01*
X129714285Y-114476190D01*
X130714285Y-114952380D02*
X130714285Y-113952380D01*
X131285714Y-114952380D01*
X131285714Y-113952380D01*
X129166666Y-111928571D02*
X129309523Y-111976190D01*
X129357142Y-112023809D01*
X129404761Y-112119047D01*
X129404761Y-112261904D01*
X129357142Y-112357142D01*
X129309523Y-112404761D01*
X129214285Y-112452380D01*
X128833333Y-112452380D01*
X128833333Y-111452380D01*
X129166666Y-111452380D01*
X129261904Y-111500000D01*
X129309523Y-111547619D01*
X129357142Y-111642857D01*
X129357142Y-111738095D01*
X129309523Y-111833333D01*
X129261904Y-111880952D01*
X129166666Y-111928571D01*
X128833333Y-111928571D01*
X130309523Y-112452380D02*
X129833333Y-112452380D01*
X129833333Y-111452380D01*
X130642857Y-112452380D02*
X130642857Y-111452380D01*
X131214285Y-112452380D02*
X130785714Y-111880952D01*
X131214285Y-111452380D02*
X130642857Y-112023809D01*
X129357142Y-109952380D02*
X129023809Y-109476190D01*
X128785714Y-109952380D02*
X128785714Y-108952380D01*
X129166666Y-108952380D01*
X129261904Y-109000000D01*
X129309523Y-109047619D01*
X129357142Y-109142857D01*
X129357142Y-109285714D01*
X129309523Y-109380952D01*
X129261904Y-109428571D01*
X129166666Y-109476190D01*
X128785714Y-109476190D01*
X129785714Y-109428571D02*
X130119047Y-109428571D01*
X130261904Y-109952380D02*
X129785714Y-109952380D01*
X129785714Y-108952380D01*
X130261904Y-108952380D01*
X130690476Y-109952380D02*
X130690476Y-108952380D01*
X130928571Y-108952380D01*
X131071428Y-109000000D01*
X131166666Y-109095238D01*
X131214285Y-109190476D01*
X131261904Y-109380952D01*
X131261904Y-109523809D01*
X131214285Y-109714285D01*
X131166666Y-109809523D01*
X131071428Y-109904761D01*
X130928571Y-109952380D01*
X130690476Y-109952380D01*
X167335595Y-83552380D02*
X167335595Y-82552380D01*
X167716547Y-82552380D01*
X167811785Y-82600000D01*
X167859404Y-82647619D01*
X167907023Y-82742857D01*
X167907023Y-82885714D01*
X167859404Y-82980952D01*
X167811785Y-83028571D01*
X167716547Y-83076190D01*
X167335595Y-83076190D01*
X168526071Y-82552380D02*
X168716547Y-82552380D01*
X168811785Y-82600000D01*
X168907023Y-82695238D01*
X168954642Y-82885714D01*
X168954642Y-83219047D01*
X168907023Y-83409523D01*
X168811785Y-83504761D01*
X168716547Y-83552380D01*
X168526071Y-83552380D01*
X168430833Y-83504761D01*
X168335595Y-83409523D01*
X168287976Y-83219047D01*
X168287976Y-82885714D01*
X168335595Y-82695238D01*
X168430833Y-82600000D01*
X168526071Y-82552380D01*
X169287976Y-82552380D02*
X169526071Y-83552380D01*
X169716547Y-82838095D01*
X169907023Y-83552380D01*
X170145119Y-82552380D01*
X170526071Y-83028571D02*
X170859404Y-83028571D01*
X171002261Y-83552380D02*
X170526071Y-83552380D01*
X170526071Y-82552380D01*
X171002261Y-82552380D01*
X172002261Y-83552380D02*
X171668928Y-83076190D01*
X171430833Y-83552380D02*
X171430833Y-82552380D01*
X171811785Y-82552380D01*
X171907023Y-82600000D01*
X171954642Y-82647619D01*
X172002261Y-82742857D01*
X172002261Y-82885714D01*
X171954642Y-82980952D01*
X171907023Y-83028571D01*
X171811785Y-83076190D01*
X171430833Y-83076190D01*
X172430833Y-83457142D02*
X172478452Y-83504761D01*
X172430833Y-83552380D01*
X172383214Y-83504761D01*
X172430833Y-83457142D01*
X172430833Y-83552380D01*
X172430833Y-82933333D02*
X172478452Y-82980952D01*
X172430833Y-83028571D01*
X172383214Y-82980952D01*
X172430833Y-82933333D01*
X172430833Y-83028571D01*
X167240357Y-84202380D02*
X167907023Y-84202380D01*
X167478452Y-85202380D01*
X169049880Y-84821428D02*
X169811785Y-84821428D01*
X171049880Y-85202380D02*
X171049880Y-84202380D01*
X171430833Y-84202380D01*
X171526071Y-84250000D01*
X171573690Y-84297619D01*
X171621309Y-84392857D01*
X171621309Y-84535714D01*
X171573690Y-84630952D01*
X171526071Y-84678571D01*
X171430833Y-84726190D01*
X171049880Y-84726190D01*
X172240357Y-84202380D02*
X172430833Y-84202380D01*
X172526071Y-84250000D01*
X172621309Y-84345238D01*
X172668928Y-84535714D01*
X172668928Y-84869047D01*
X172621309Y-85059523D01*
X172526071Y-85154761D01*
X172430833Y-85202380D01*
X172240357Y-85202380D01*
X172145119Y-85154761D01*
X172049880Y-85059523D01*
X172002261Y-84869047D01*
X172002261Y-84535714D01*
X172049880Y-84345238D01*
X172145119Y-84250000D01*
X172240357Y-84202380D01*
X173002261Y-84202380D02*
X173240357Y-85202380D01*
X173430833Y-84488095D01*
X173621309Y-85202380D01*
X173859404Y-84202380D01*
X174240357Y-84678571D02*
X174573690Y-84678571D01*
X174716547Y-85202380D02*
X174240357Y-85202380D01*
X174240357Y-84202380D01*
X174716547Y-84202380D01*
X175716547Y-85202380D02*
X175383214Y-84726190D01*
X175145119Y-85202380D02*
X175145119Y-84202380D01*
X175526071Y-84202380D01*
X175621309Y-84250000D01*
X175668928Y-84297619D01*
X175716547Y-84392857D01*
X175716547Y-84535714D01*
X175668928Y-84630952D01*
X175621309Y-84678571D01*
X175526071Y-84726190D01*
X175145119Y-84726190D01*
X177192738Y-85583333D02*
X177145119Y-85535714D01*
X177049880Y-85392857D01*
X177002261Y-85297619D01*
X176954642Y-85154761D01*
X176907023Y-84916666D01*
X176907023Y-84726190D01*
X176954642Y-84488095D01*
X177002261Y-84345238D01*
X177049880Y-84250000D01*
X177145119Y-84107142D01*
X177192738Y-84059523D01*
X177478452Y-84202380D02*
X178145119Y-84202380D01*
X177716547Y-85202380D01*
X178430833Y-84535714D02*
X178668928Y-85202380D01*
X178907023Y-84535714D01*
X179287976Y-84821428D02*
X180049880Y-84821428D01*
X180478452Y-84297619D02*
X180526071Y-84250000D01*
X180621309Y-84202380D01*
X180859404Y-84202380D01*
X180954642Y-84250000D01*
X181002261Y-84297619D01*
X181049880Y-84392857D01*
X181049880Y-84488095D01*
X181002261Y-84630952D01*
X180430833Y-85202380D01*
X181049880Y-85202380D01*
X181668928Y-84202380D02*
X181764166Y-84202380D01*
X181859404Y-84250000D01*
X181907023Y-84297619D01*
X181954642Y-84392857D01*
X182002261Y-84583333D01*
X182002261Y-84821428D01*
X181954642Y-85011904D01*
X181907023Y-85107142D01*
X181859404Y-85154761D01*
X181764166Y-85202380D01*
X181668928Y-85202380D01*
X181573690Y-85154761D01*
X181526071Y-85107142D01*
X181478452Y-85011904D01*
X181430833Y-84821428D01*
X181430833Y-84583333D01*
X181478452Y-84392857D01*
X181526071Y-84297619D01*
X181573690Y-84250000D01*
X181668928Y-84202380D01*
X182335595Y-84535714D02*
X182573690Y-85202380D01*
X182811785Y-84535714D01*
X183097500Y-85583333D02*
X183145119Y-85535714D01*
X183240357Y-85392857D01*
X183287976Y-85297619D01*
X183335595Y-85154761D01*
X183383214Y-84916666D01*
X183383214Y-84726190D01*
X183335595Y-84488095D01*
X183287976Y-84345238D01*
X183240357Y-84250000D01*
X183145119Y-84107142D01*
X183097500Y-84059523D01*
X167764166Y-86185714D02*
X167764166Y-86852380D01*
X167526071Y-85804761D02*
X167287976Y-86519047D01*
X167907023Y-86519047D01*
X168335595Y-86804761D02*
X168335595Y-86852380D01*
X168287976Y-86947619D01*
X168240357Y-86995238D01*
X169668928Y-86280952D02*
X169573690Y-86233333D01*
X169526071Y-86185714D01*
X169478452Y-86090476D01*
X169478452Y-86042857D01*
X169526071Y-85947619D01*
X169573690Y-85900000D01*
X169668928Y-85852380D01*
X169859404Y-85852380D01*
X169954642Y-85900000D01*
X170002261Y-85947619D01*
X170049880Y-86042857D01*
X170049880Y-86090476D01*
X170002261Y-86185714D01*
X169954642Y-86233333D01*
X169859404Y-86280952D01*
X169668928Y-86280952D01*
X169573690Y-86328571D01*
X169526071Y-86376190D01*
X169478452Y-86471428D01*
X169478452Y-86661904D01*
X169526071Y-86757142D01*
X169573690Y-86804761D01*
X169668928Y-86852380D01*
X169859404Y-86852380D01*
X169954642Y-86804761D01*
X170002261Y-86757142D01*
X170049880Y-86661904D01*
X170049880Y-86471428D01*
X170002261Y-86376190D01*
X169954642Y-86328571D01*
X169859404Y-86280952D01*
X171240357Y-86471428D02*
X172002261Y-86471428D01*
X173764166Y-85900000D02*
X173668928Y-85852380D01*
X173526071Y-85852380D01*
X173383214Y-85900000D01*
X173287976Y-85995238D01*
X173240357Y-86090476D01*
X173192738Y-86280952D01*
X173192738Y-86423809D01*
X173240357Y-86614285D01*
X173287976Y-86709523D01*
X173383214Y-86804761D01*
X173526071Y-86852380D01*
X173621309Y-86852380D01*
X173764166Y-86804761D01*
X173811785Y-86757142D01*
X173811785Y-86423809D01*
X173621309Y-86423809D01*
X174240357Y-86852380D02*
X174240357Y-85852380D01*
X174811785Y-86852380D01*
X174811785Y-85852380D01*
X175287976Y-86852380D02*
X175287976Y-85852380D01*
X175526071Y-85852380D01*
X175668928Y-85900000D01*
X175764166Y-85995238D01*
X175811785Y-86090476D01*
X175859404Y-86280952D01*
X175859404Y-86423809D01*
X175811785Y-86614285D01*
X175764166Y-86709523D01*
X175668928Y-86804761D01*
X175526071Y-86852380D01*
X175287976Y-86852380D01*
X166202380Y-90690476D02*
X165202380Y-90690476D01*
X165202380Y-90309523D01*
X165250000Y-90214285D01*
X165297619Y-90166666D01*
X165392857Y-90119047D01*
X165535714Y-90119047D01*
X165630952Y-90166666D01*
X165678571Y-90214285D01*
X165726190Y-90309523D01*
X165726190Y-90690476D01*
X166202380Y-89690476D02*
X165202380Y-89690476D01*
X166202380Y-89214285D02*
X165202380Y-89214285D01*
X166202380Y-88642857D01*
X165202380Y-88642857D01*
X165202380Y-87976190D02*
X165202380Y-87785714D01*
X165250000Y-87690476D01*
X165345238Y-87595238D01*
X165535714Y-87547619D01*
X165869047Y-87547619D01*
X166059523Y-87595238D01*
X166154761Y-87690476D01*
X166202380Y-87785714D01*
X166202380Y-87976190D01*
X166154761Y-88071428D01*
X166059523Y-88166666D01*
X165869047Y-88214285D01*
X165535714Y-88214285D01*
X165345238Y-88166666D01*
X165250000Y-88071428D01*
X165202380Y-87976190D01*
X165202380Y-87119047D02*
X166011904Y-87119047D01*
X166107142Y-87071428D01*
X166154761Y-87023809D01*
X166202380Y-86928571D01*
X166202380Y-86738095D01*
X166154761Y-86642857D01*
X166107142Y-86595238D01*
X166011904Y-86547619D01*
X165202380Y-86547619D01*
X165202380Y-86214285D02*
X165202380Y-85642857D01*
X166202380Y-85928571D02*
X165202380Y-85928571D01*
X166107142Y-85309523D02*
X166154761Y-85261904D01*
X166202380Y-85309523D01*
X166154761Y-85357142D01*
X166107142Y-85309523D01*
X166202380Y-85309523D01*
X165583333Y-85309523D02*
X165630952Y-85261904D01*
X165678571Y-85309523D01*
X165630952Y-85357142D01*
X165583333Y-85309523D01*
X165678571Y-85309523D01*
X218059523Y-91202380D02*
X218392857Y-92202380D01*
X218726190Y-91202380D01*
X219583333Y-92202380D02*
X219011904Y-92202380D01*
X219297619Y-92202380D02*
X219297619Y-91202380D01*
X219202380Y-91345238D01*
X219107142Y-91440476D01*
X219011904Y-91488095D01*
X220011904Y-92107142D02*
X220059523Y-92154761D01*
X220011904Y-92202380D01*
X219964285Y-92154761D01*
X220011904Y-92107142D01*
X220011904Y-92202380D01*
X220678571Y-91202380D02*
X220773809Y-91202380D01*
X220869047Y-91250000D01*
X220916666Y-91297619D01*
X220964285Y-91392857D01*
X221011904Y-91583333D01*
X221011904Y-91821428D01*
X220964285Y-92011904D01*
X220916666Y-92107142D01*
X220869047Y-92154761D01*
X220773809Y-92202380D01*
X220678571Y-92202380D01*
X220583333Y-92154761D01*
X220535714Y-92107142D01*
X220488095Y-92011904D01*
X220440476Y-91821428D01*
X220440476Y-91583333D01*
X220488095Y-91392857D01*
X220535714Y-91297619D01*
X220583333Y-91250000D01*
X220678571Y-91202380D01*
X222202380Y-91821428D02*
X222964285Y-91821428D01*
X224202380Y-92202380D02*
X224202380Y-91202380D01*
X224678571Y-92202380D02*
X224678571Y-91202380D01*
X225011904Y-91916666D01*
X225345238Y-91202380D01*
X225345238Y-92202380D01*
X225773809Y-92154761D02*
X225916666Y-92202380D01*
X226154761Y-92202380D01*
X226250000Y-92154761D01*
X226297619Y-92107142D01*
X226345238Y-92011904D01*
X226345238Y-91916666D01*
X226297619Y-91821428D01*
X226250000Y-91773809D01*
X226154761Y-91726190D01*
X225964285Y-91678571D01*
X225869047Y-91630952D01*
X225821428Y-91583333D01*
X225773809Y-91488095D01*
X225773809Y-91392857D01*
X225821428Y-91297619D01*
X225869047Y-91250000D01*
X225964285Y-91202380D01*
X226202380Y-91202380D01*
X226345238Y-91250000D01*
X206952380Y-113452380D02*
X207523809Y-113452380D01*
X207238095Y-114452380D02*
X207238095Y-113452380D01*
X208238095Y-114404761D02*
X208142857Y-114452380D01*
X207952380Y-114452380D01*
X207857142Y-114404761D01*
X207809523Y-114309523D01*
X207809523Y-113928571D01*
X207857142Y-113833333D01*
X207952380Y-113785714D01*
X208142857Y-113785714D01*
X208238095Y-113833333D01*
X208285714Y-113928571D01*
X208285714Y-114023809D01*
X207809523Y-114119047D01*
X208714285Y-114452380D02*
X208714285Y-113785714D01*
X208714285Y-113880952D02*
X208761904Y-113833333D01*
X208857142Y-113785714D01*
X209000000Y-113785714D01*
X209095238Y-113833333D01*
X209142857Y-113928571D01*
X209142857Y-114452380D01*
X209142857Y-113928571D02*
X209190476Y-113833333D01*
X209285714Y-113785714D01*
X209428571Y-113785714D01*
X209523809Y-113833333D01*
X209571428Y-113928571D01*
X209571428Y-114452380D01*
X210047619Y-113785714D02*
X210047619Y-114785714D01*
X210047619Y-113833333D02*
X210142857Y-113785714D01*
X210333333Y-113785714D01*
X210428571Y-113833333D01*
X210476190Y-113880952D01*
X210523809Y-113976190D01*
X210523809Y-114261904D01*
X210476190Y-114357142D01*
X210428571Y-114404761D01*
X210333333Y-114452380D01*
X210142857Y-114452380D01*
X210047619Y-114404761D01*
X211333333Y-114404761D02*
X211238095Y-114452380D01*
X211047619Y-114452380D01*
X210952380Y-114404761D01*
X210904761Y-114309523D01*
X210904761Y-113928571D01*
X210952380Y-113833333D01*
X211047619Y-113785714D01*
X211238095Y-113785714D01*
X211333333Y-113833333D01*
X211380952Y-113928571D01*
X211380952Y-114023809D01*
X210904761Y-114119047D01*
X211809523Y-114452380D02*
X211809523Y-113785714D01*
X211809523Y-113976190D02*
X211857142Y-113880952D01*
X211904761Y-113833333D01*
X212000000Y-113785714D01*
X212095238Y-113785714D01*
X212857142Y-114452380D02*
X212857142Y-113928571D01*
X212809523Y-113833333D01*
X212714285Y-113785714D01*
X212523809Y-113785714D01*
X212428571Y-113833333D01*
X212857142Y-114404761D02*
X212761904Y-114452380D01*
X212523809Y-114452380D01*
X212428571Y-114404761D01*
X212380952Y-114309523D01*
X212380952Y-114214285D01*
X212428571Y-114119047D01*
X212523809Y-114071428D01*
X212761904Y-114071428D01*
X212857142Y-114023809D01*
X213190476Y-113785714D02*
X213571428Y-113785714D01*
X213333333Y-113452380D02*
X213333333Y-114309523D01*
X213380952Y-114404761D01*
X213476190Y-114452380D01*
X213571428Y-114452380D01*
X214333333Y-113785714D02*
X214333333Y-114452380D01*
X213904761Y-113785714D02*
X213904761Y-114309523D01*
X213952380Y-114404761D01*
X214047619Y-114452380D01*
X214190476Y-114452380D01*
X214285714Y-114404761D01*
X214333333Y-114357142D01*
X214809523Y-114452380D02*
X214809523Y-113785714D01*
X214809523Y-113976190D02*
X214857142Y-113880952D01*
X214904761Y-113833333D01*
X215000000Y-113785714D01*
X215095238Y-113785714D01*
X215809523Y-114404761D02*
X215714285Y-114452380D01*
X215523809Y-114452380D01*
X215428571Y-114404761D01*
X215380952Y-114309523D01*
X215380952Y-113928571D01*
X215428571Y-113833333D01*
X215523809Y-113785714D01*
X215714285Y-113785714D01*
X215809523Y-113833333D01*
X215857142Y-113928571D01*
X215857142Y-114023809D01*
X215380952Y-114119047D01*
X217333333Y-114833333D02*
X217285714Y-114785714D01*
X217190476Y-114642857D01*
X217142857Y-114547619D01*
X217095238Y-114404761D01*
X217047619Y-114166666D01*
X217047619Y-113976190D01*
X217095238Y-113738095D01*
X217142857Y-113595238D01*
X217190476Y-113500000D01*
X217285714Y-113357142D01*
X217333333Y-113309523D01*
X218285714Y-114357142D02*
X218238095Y-114404761D01*
X218095238Y-114452380D01*
X218000000Y-114452380D01*
X217857142Y-114404761D01*
X217761904Y-114309523D01*
X217714285Y-114214285D01*
X217666666Y-114023809D01*
X217666666Y-113880952D01*
X217714285Y-113690476D01*
X217761904Y-113595238D01*
X217857142Y-113500000D01*
X218000000Y-113452380D01*
X218095238Y-113452380D01*
X218238095Y-113500000D01*
X218285714Y-113547619D01*
X218619047Y-114833333D02*
X218666666Y-114785714D01*
X218761904Y-114642857D01*
X218809523Y-114547619D01*
X218857142Y-114404761D01*
X218904761Y-114166666D01*
X218904761Y-113976190D01*
X218857142Y-113738095D01*
X218809523Y-113595238D01*
X218761904Y-113500000D01*
X218666666Y-113357142D01*
X218619047Y-113309523D01*
X207107142Y-111452380D02*
X207107142Y-110452380D01*
X207107142Y-110928571D02*
X207678571Y-110928571D01*
X207678571Y-111452380D02*
X207678571Y-110452380D01*
X208583333Y-110785714D02*
X208583333Y-111452380D01*
X208154761Y-110785714D02*
X208154761Y-111309523D01*
X208202380Y-111404761D01*
X208297619Y-111452380D01*
X208440476Y-111452380D01*
X208535714Y-111404761D01*
X208583333Y-111357142D01*
X209059523Y-111452380D02*
X209059523Y-110785714D01*
X209059523Y-110880952D02*
X209107142Y-110833333D01*
X209202380Y-110785714D01*
X209345238Y-110785714D01*
X209440476Y-110833333D01*
X209488095Y-110928571D01*
X209488095Y-111452380D01*
X209488095Y-110928571D02*
X209535714Y-110833333D01*
X209630952Y-110785714D01*
X209773809Y-110785714D01*
X209869047Y-110833333D01*
X209916666Y-110928571D01*
X209916666Y-111452380D01*
X210392857Y-111452380D02*
X210392857Y-110785714D01*
X210392857Y-110452380D02*
X210345238Y-110500000D01*
X210392857Y-110547619D01*
X210440476Y-110500000D01*
X210392857Y-110452380D01*
X210392857Y-110547619D01*
X211297619Y-111452380D02*
X211297619Y-110452380D01*
X211297619Y-111404761D02*
X211202380Y-111452380D01*
X211011904Y-111452380D01*
X210916666Y-111404761D01*
X210869047Y-111357142D01*
X210821428Y-111261904D01*
X210821428Y-110976190D01*
X210869047Y-110880952D01*
X210916666Y-110833333D01*
X211011904Y-110785714D01*
X211202380Y-110785714D01*
X211297619Y-110833333D01*
X211773809Y-111452380D02*
X211773809Y-110785714D01*
X211773809Y-110452380D02*
X211726190Y-110500000D01*
X211773809Y-110547619D01*
X211821428Y-110500000D01*
X211773809Y-110452380D01*
X211773809Y-110547619D01*
X212107142Y-110785714D02*
X212488095Y-110785714D01*
X212250000Y-110452380D02*
X212250000Y-111309523D01*
X212297619Y-111404761D01*
X212392857Y-111452380D01*
X212488095Y-111452380D01*
X212726190Y-110785714D02*
X212964285Y-111452380D01*
X213202380Y-110785714D02*
X212964285Y-111452380D01*
X212869047Y-111690476D01*
X212821428Y-111738095D01*
X212726190Y-111785714D01*
X214630952Y-111833333D02*
X214583333Y-111785714D01*
X214488095Y-111642857D01*
X214440476Y-111547619D01*
X214392857Y-111404761D01*
X214345238Y-111166666D01*
X214345238Y-110976190D01*
X214392857Y-110738095D01*
X214440476Y-110595238D01*
X214488095Y-110500000D01*
X214583333Y-110357142D01*
X214630952Y-110309523D01*
X215583333Y-111452380D02*
X215250000Y-110976190D01*
X215011904Y-111452380D02*
X215011904Y-110452380D01*
X215392857Y-110452380D01*
X215488095Y-110500000D01*
X215535714Y-110547619D01*
X215583333Y-110642857D01*
X215583333Y-110785714D01*
X215535714Y-110880952D01*
X215488095Y-110928571D01*
X215392857Y-110976190D01*
X215011904Y-110976190D01*
X216011904Y-111452380D02*
X216011904Y-110452380D01*
X216011904Y-110928571D02*
X216583333Y-110928571D01*
X216583333Y-111452380D02*
X216583333Y-110452380D01*
X217011904Y-111452380D02*
X217773809Y-110452380D01*
X217154761Y-110452380D02*
X217250000Y-110500000D01*
X217297619Y-110595238D01*
X217250000Y-110690476D01*
X217154761Y-110738095D01*
X217059523Y-110690476D01*
X217011904Y-110595238D01*
X217059523Y-110500000D01*
X217154761Y-110452380D01*
X217726190Y-111404761D02*
X217773809Y-111309523D01*
X217726190Y-111214285D01*
X217630952Y-111166666D01*
X217535714Y-111214285D01*
X217488095Y-111309523D01*
X217535714Y-111404761D01*
X217630952Y-111452380D01*
X217726190Y-111404761D01*
X218107142Y-111833333D02*
X218154761Y-111785714D01*
X218250000Y-111642857D01*
X218297619Y-111547619D01*
X218345238Y-111404761D01*
X218392857Y-111166666D01*
X218392857Y-110976190D01*
X218345238Y-110738095D01*
X218297619Y-110595238D01*
X218250000Y-110500000D01*
X218154761Y-110357142D01*
X218107142Y-110309523D01*
X207190476Y-108452380D02*
X207190476Y-107452380D01*
X207571428Y-107452380D01*
X207666666Y-107500000D01*
X207714285Y-107547619D01*
X207761904Y-107642857D01*
X207761904Y-107785714D01*
X207714285Y-107880952D01*
X207666666Y-107928571D01*
X207571428Y-107976190D01*
X207190476Y-107976190D01*
X208190476Y-108452380D02*
X208190476Y-107785714D01*
X208190476Y-107976190D02*
X208238095Y-107880952D01*
X208285714Y-107833333D01*
X208380952Y-107785714D01*
X208476190Y-107785714D01*
X209190476Y-108404761D02*
X209095238Y-108452380D01*
X208904761Y-108452380D01*
X208809523Y-108404761D01*
X208761904Y-108309523D01*
X208761904Y-107928571D01*
X208809523Y-107833333D01*
X208904761Y-107785714D01*
X209095238Y-107785714D01*
X209190476Y-107833333D01*
X209238095Y-107928571D01*
X209238095Y-108023809D01*
X208761904Y-108119047D01*
X209619047Y-108404761D02*
X209714285Y-108452380D01*
X209904761Y-108452380D01*
X210000000Y-108404761D01*
X210047619Y-108309523D01*
X210047619Y-108261904D01*
X210000000Y-108166666D01*
X209904761Y-108119047D01*
X209761904Y-108119047D01*
X209666666Y-108071428D01*
X209619047Y-107976190D01*
X209619047Y-107928571D01*
X209666666Y-107833333D01*
X209761904Y-107785714D01*
X209904761Y-107785714D01*
X210000000Y-107833333D01*
X210428571Y-108404761D02*
X210523809Y-108452380D01*
X210714285Y-108452380D01*
X210809523Y-108404761D01*
X210857142Y-108309523D01*
X210857142Y-108261904D01*
X210809523Y-108166666D01*
X210714285Y-108119047D01*
X210571428Y-108119047D01*
X210476190Y-108071428D01*
X210428571Y-107976190D01*
X210428571Y-107928571D01*
X210476190Y-107833333D01*
X210571428Y-107785714D01*
X210714285Y-107785714D01*
X210809523Y-107833333D01*
X211714285Y-107785714D02*
X211714285Y-108452380D01*
X211285714Y-107785714D02*
X211285714Y-108309523D01*
X211333333Y-108404761D01*
X211428571Y-108452380D01*
X211571428Y-108452380D01*
X211666666Y-108404761D01*
X211714285Y-108357142D01*
X212190476Y-108452380D02*
X212190476Y-107785714D01*
X212190476Y-107976190D02*
X212238095Y-107880952D01*
X212285714Y-107833333D01*
X212380952Y-107785714D01*
X212476190Y-107785714D01*
X213190476Y-108404761D02*
X213095238Y-108452380D01*
X212904761Y-108452380D01*
X212809523Y-108404761D01*
X212761904Y-108309523D01*
X212761904Y-107928571D01*
X212809523Y-107833333D01*
X212904761Y-107785714D01*
X213095238Y-107785714D01*
X213190476Y-107833333D01*
X213238095Y-107928571D01*
X213238095Y-108023809D01*
X212761904Y-108119047D01*
X214714285Y-108833333D02*
X214666666Y-108785714D01*
X214571428Y-108642857D01*
X214523809Y-108547619D01*
X214476190Y-108404761D01*
X214428571Y-108166666D01*
X214428571Y-107976190D01*
X214476190Y-107738095D01*
X214523809Y-107595238D01*
X214571428Y-107500000D01*
X214666666Y-107357142D01*
X214714285Y-107309523D01*
X215428571Y-107928571D02*
X215571428Y-107976190D01*
X215619047Y-108023809D01*
X215666666Y-108119047D01*
X215666666Y-108261904D01*
X215619047Y-108357142D01*
X215571428Y-108404761D01*
X215476190Y-108452380D01*
X215095238Y-108452380D01*
X215095238Y-107452380D01*
X215428571Y-107452380D01*
X215523809Y-107500000D01*
X215571428Y-107547619D01*
X215619047Y-107642857D01*
X215619047Y-107738095D01*
X215571428Y-107833333D01*
X215523809Y-107880952D01*
X215428571Y-107928571D01*
X215095238Y-107928571D01*
X216523809Y-108452380D02*
X216523809Y-107928571D01*
X216476190Y-107833333D01*
X216380952Y-107785714D01*
X216190476Y-107785714D01*
X216095238Y-107833333D01*
X216523809Y-108404761D02*
X216428571Y-108452380D01*
X216190476Y-108452380D01*
X216095238Y-108404761D01*
X216047619Y-108309523D01*
X216047619Y-108214285D01*
X216095238Y-108119047D01*
X216190476Y-108071428D01*
X216428571Y-108071428D01*
X216523809Y-108023809D01*
X217000000Y-108452380D02*
X217000000Y-107785714D01*
X217000000Y-107976190D02*
X217047619Y-107880952D01*
X217095238Y-107833333D01*
X217190476Y-107785714D01*
X217285714Y-107785714D01*
X217523809Y-108833333D02*
X217571428Y-108785714D01*
X217666666Y-108642857D01*
X217714285Y-108547619D01*
X217761904Y-108404761D01*
X217809523Y-108166666D01*
X217809523Y-107976190D01*
X217761904Y-107738095D01*
X217714285Y-107595238D01*
X217666666Y-107500000D01*
X217571428Y-107357142D01*
X217523809Y-107309523D01*
X141428571Y-88500000D02*
X141333333Y-88452380D01*
X141190476Y-88452380D01*
X141047619Y-88500000D01*
X140952380Y-88595238D01*
X140904761Y-88690476D01*
X140857142Y-88880952D01*
X140857142Y-89023809D01*
X140904761Y-89214285D01*
X140952380Y-89309523D01*
X141047619Y-89404761D01*
X141190476Y-89452380D01*
X141285714Y-89452380D01*
X141428571Y-89404761D01*
X141476190Y-89357142D01*
X141476190Y-89023809D01*
X141285714Y-89023809D01*
X141857142Y-89166666D02*
X142333333Y-89166666D01*
X141761904Y-89452380D02*
X142095238Y-88452380D01*
X142428571Y-89452380D01*
X142714285Y-89404761D02*
X142857142Y-89452380D01*
X143095238Y-89452380D01*
X143190476Y-89404761D01*
X143238095Y-89357142D01*
X143285714Y-89261904D01*
X143285714Y-89166666D01*
X143238095Y-89071428D01*
X143190476Y-89023809D01*
X143095238Y-88976190D01*
X142904761Y-88928571D01*
X142809523Y-88880952D01*
X142761904Y-88833333D01*
X142714285Y-88738095D01*
X142714285Y-88642857D01*
X142761904Y-88547619D01*
X142809523Y-88500000D01*
X142904761Y-88452380D01*
X143142857Y-88452380D01*
X143285714Y-88500000D01*
X144047619Y-88928571D02*
X143714285Y-88928571D01*
X143714285Y-89452380D02*
X143714285Y-88452380D01*
X144190476Y-88452380D01*
X145047619Y-89452380D02*
X144571428Y-89452380D01*
X144571428Y-88452380D01*
X145571428Y-88452380D02*
X145761904Y-88452380D01*
X145857142Y-88500000D01*
X145952380Y-88595238D01*
X146000000Y-88785714D01*
X146000000Y-89119047D01*
X145952380Y-89309523D01*
X145857142Y-89404761D01*
X145761904Y-89452380D01*
X145571428Y-89452380D01*
X145476190Y-89404761D01*
X145380952Y-89309523D01*
X145333333Y-89119047D01*
X145333333Y-88785714D01*
X145380952Y-88595238D01*
X145476190Y-88500000D01*
X145571428Y-88452380D01*
X146333333Y-88452380D02*
X146571428Y-89452380D01*
X146761904Y-88738095D01*
X146952380Y-89452380D01*
X147190476Y-88452380D01*
D11*
X148000000Y-87000000D02*
X139000000Y-87000000D01*
X148000000Y-84000000D02*
X148000000Y-87000000D01*
X154000000Y-89000000D02*
X148000000Y-84000000D01*
X148000000Y-94000000D02*
X154000000Y-89000000D01*
X148000000Y-91000000D02*
X148000000Y-94000000D01*
X139000000Y-91000000D02*
X148000000Y-91000000D01*
X139000000Y-87000000D02*
X139000000Y-91000000D01*
X208400000Y-98200000D02*
X137200000Y-98200000D01*
X137200000Y-102000000D02*
X208400000Y-102000000D01*
X137000000Y-75000000D02*
X207000000Y-75000000D01*
X137000000Y-78800000D02*
X207000000Y-78800000D01*
X178540000Y-119140000D02*
X201400000Y-119140000D01*
X201400000Y-119140000D02*
X201400000Y-103900000D01*
X201400000Y-103900000D02*
X168380000Y-103900000D01*
X168380000Y-103900000D02*
X168380000Y-119140000D01*
X168380000Y-119140000D02*
X178540000Y-119140000D01*
X181664905Y-110504000D02*
G75*
G03X181664905Y-110504000I-457905J0D01*
G01*
X181664905Y-113171000D02*
G75*
G03X181664905Y-113171000I-457905J0D01*
G01*
X180521905Y-115203000D02*
G75*
G03X180521905Y-115203000I-457905J0D01*
G01*
X187760905Y-115076000D02*
G75*
G03X187760905Y-115076000I-457905J0D01*
G01*
X189736609Y-108218000D02*
G75*
G03X189736609Y-108218000I-401609J0D01*
G01*
X196650905Y-115076000D02*
G75*
G03X196650905Y-115076000I-457905J0D01*
G01*
X176000000Y-109107000D02*
X174857000Y-115330000D01*
X174857000Y-115330000D02*
X177778000Y-115330000D01*
X177778000Y-115330000D02*
X178921000Y-108980000D01*
X178921000Y-108980000D02*
X176000000Y-109107000D01*
X175492000Y-111774000D02*
X178413000Y-111774000D01*
X183620000Y-108726000D02*
X182096000Y-114695000D01*
X182096000Y-114695000D02*
X185144000Y-114822000D01*
X185144000Y-114822000D02*
X186922000Y-108980000D01*
X186922000Y-108980000D02*
X183493000Y-108726000D01*
X183493000Y-108726000D02*
X182858000Y-111647000D01*
X182858000Y-111647000D02*
X186160000Y-111520000D01*
X191113000Y-109107000D02*
X190224000Y-114314000D01*
X190224000Y-114314000D02*
X193526000Y-114441000D01*
X193526000Y-114441000D02*
X195177000Y-108472000D01*
X195177000Y-108472000D02*
X191113000Y-108472000D01*
X191113000Y-108472000D02*
X191113000Y-108980000D01*
X191113000Y-108980000D02*
X190732000Y-111139000D01*
X190732000Y-111139000D02*
X194415000Y-111266000D01*
X150380000Y-119920000D02*
X146540000Y-119920000D01*
X150380000Y-118080000D02*
X146540000Y-118080000D01*
X203500000Y-88140000D02*
X205000000Y-88140000D01*
X202000000Y-91360000D02*
X205000000Y-91360000D01*
X163830000Y-112310000D02*
G75*
G02X163830000Y-110310000I0J1000000D01*
G01*
X163830000Y-110310000D02*
X163830000Y-109060000D01*
X163830000Y-109060000D02*
X133230000Y-109060000D01*
X133230000Y-109060000D02*
X133230000Y-113560000D01*
X133230000Y-113560000D02*
X163830000Y-113560000D01*
X163830000Y-113560000D02*
X163830000Y-112310000D01*
X205800000Y-113265000D02*
X203515000Y-113265000D01*
X203515000Y-113265000D02*
X203515000Y-114735000D01*
X203515000Y-114735000D02*
X205800000Y-114735000D01*
X203515000Y-108735000D02*
X205800000Y-108735000D01*
X203515000Y-107265000D02*
X203515000Y-108735000D01*
X205800000Y-107265000D02*
X203515000Y-107265000D01*
X205800000Y-110265000D02*
X203515000Y-110265000D01*
X203515000Y-110265000D02*
X203515000Y-111735000D01*
X203515000Y-111735000D02*
X205800000Y-111735000D01*
X211080000Y-121380000D02*
X211080000Y-117540000D01*
X212920000Y-121380000D02*
X212920000Y-117540000D01*
X218920000Y-121380000D02*
X218920000Y-117540000D01*
X217080000Y-121380000D02*
X217080000Y-117540000D01*
X214080000Y-121380000D02*
X214080000Y-117540000D01*
X215920000Y-121380000D02*
X215920000Y-117540000D01*
D10*
X177563809Y-104352380D02*
X177563809Y-103352380D01*
X177801904Y-103352380D01*
X177944761Y-103400000D01*
X178040000Y-103495238D01*
X178087619Y-103590476D01*
X178135238Y-103780952D01*
X178135238Y-103923809D01*
X178087619Y-104114285D01*
X178040000Y-104209523D01*
X177944761Y-104304761D01*
X177801904Y-104352380D01*
X177563809Y-104352380D01*
X178563809Y-104352380D02*
X178563809Y-103685714D01*
X178563809Y-103352380D02*
X178516190Y-103400000D01*
X178563809Y-103447619D01*
X178611428Y-103400000D01*
X178563809Y-103352380D01*
X178563809Y-103447619D01*
X179563809Y-104352380D02*
X178992380Y-104352380D01*
X179278095Y-104352380D02*
X179278095Y-103352380D01*
X179182857Y-103495238D01*
X179087619Y-103590476D01*
X178992380Y-103638095D01*
X148293333Y-121372380D02*
X147960000Y-120896190D01*
X147721904Y-121372380D02*
X147721904Y-120372380D01*
X148102857Y-120372380D01*
X148198095Y-120420000D01*
X148245714Y-120467619D01*
X148293333Y-120562857D01*
X148293333Y-120705714D01*
X148245714Y-120800952D01*
X148198095Y-120848571D01*
X148102857Y-120896190D01*
X147721904Y-120896190D01*
X149245714Y-121372380D02*
X148674285Y-121372380D01*
X148960000Y-121372380D02*
X148960000Y-120372380D01*
X148864761Y-120515238D01*
X148769523Y-120610476D01*
X148674285Y-120658095D01*
X202738095Y-87704761D02*
X202880952Y-87752380D01*
X203119047Y-87752380D01*
X203214285Y-87704761D01*
X203261904Y-87657142D01*
X203309523Y-87561904D01*
X203309523Y-87466666D01*
X203261904Y-87371428D01*
X203214285Y-87323809D01*
X203119047Y-87276190D01*
X202928571Y-87228571D01*
X202833333Y-87180952D01*
X202785714Y-87133333D01*
X202738095Y-87038095D01*
X202738095Y-86942857D01*
X202785714Y-86847619D01*
X202833333Y-86800000D01*
X202928571Y-86752380D01*
X203166666Y-86752380D01*
X203309523Y-86800000D01*
X204261904Y-87752380D02*
X203690476Y-87752380D01*
X203976190Y-87752380D02*
X203976190Y-86752380D01*
X203880952Y-86895238D01*
X203785714Y-86990476D01*
X203690476Y-87038095D01*
X164282380Y-112071904D02*
X165091904Y-112071904D01*
X165187142Y-112024285D01*
X165234761Y-111976666D01*
X165282380Y-111881428D01*
X165282380Y-111690952D01*
X165234761Y-111595714D01*
X165187142Y-111548095D01*
X165091904Y-111500476D01*
X164282380Y-111500476D01*
X165282380Y-110500476D02*
X165282380Y-111071904D01*
X165282380Y-110786190D02*
X164282380Y-110786190D01*
X164425238Y-110881428D01*
X164520476Y-110976666D01*
X164568095Y-111071904D01*
X204261904Y-113022380D02*
X204261904Y-112022380D01*
X204500000Y-112022380D01*
X204642857Y-112070000D01*
X204738095Y-112165238D01*
X204785714Y-112260476D01*
X204833333Y-112450952D01*
X204833333Y-112593809D01*
X204785714Y-112784285D01*
X204738095Y-112879523D01*
X204642857Y-112974761D01*
X204500000Y-113022380D01*
X204261904Y-113022380D01*
X205785714Y-113022380D02*
X205214285Y-113022380D01*
X205500000Y-113022380D02*
X205500000Y-112022380D01*
X205404761Y-112165238D01*
X205309523Y-112260476D01*
X205214285Y-112308095D01*
X204261904Y-107022380D02*
X204261904Y-106022380D01*
X204500000Y-106022380D01*
X204642857Y-106070000D01*
X204738095Y-106165238D01*
X204785714Y-106260476D01*
X204833333Y-106450952D01*
X204833333Y-106593809D01*
X204785714Y-106784285D01*
X204738095Y-106879523D01*
X204642857Y-106974761D01*
X204500000Y-107022380D01*
X204261904Y-107022380D01*
X205214285Y-106117619D02*
X205261904Y-106070000D01*
X205357142Y-106022380D01*
X205595238Y-106022380D01*
X205690476Y-106070000D01*
X205738095Y-106117619D01*
X205785714Y-106212857D01*
X205785714Y-106308095D01*
X205738095Y-106450952D01*
X205166666Y-107022380D01*
X205785714Y-107022380D01*
X204261904Y-110022380D02*
X204261904Y-109022380D01*
X204500000Y-109022380D01*
X204642857Y-109070000D01*
X204738095Y-109165238D01*
X204785714Y-109260476D01*
X204833333Y-109450952D01*
X204833333Y-109593809D01*
X204785714Y-109784285D01*
X204738095Y-109879523D01*
X204642857Y-109974761D01*
X204500000Y-110022380D01*
X204261904Y-110022380D01*
X205166666Y-109022380D02*
X205785714Y-109022380D01*
X205452380Y-109403333D01*
X205595238Y-109403333D01*
X205690476Y-109450952D01*
X205738095Y-109498571D01*
X205785714Y-109593809D01*
X205785714Y-109831904D01*
X205738095Y-109927142D01*
X205690476Y-109974761D01*
X205595238Y-110022380D01*
X205309523Y-110022380D01*
X205214285Y-109974761D01*
X205166666Y-109927142D01*
X210532380Y-119626666D02*
X210056190Y-119960000D01*
X210532380Y-120198095D02*
X209532380Y-120198095D01*
X209532380Y-119817142D01*
X209580000Y-119721904D01*
X209627619Y-119674285D01*
X209722857Y-119626666D01*
X209865714Y-119626666D01*
X209960952Y-119674285D01*
X210008571Y-119721904D01*
X210056190Y-119817142D01*
X210056190Y-120198095D01*
X209627619Y-119245714D02*
X209580000Y-119198095D01*
X209532380Y-119102857D01*
X209532380Y-118864761D01*
X209580000Y-118769523D01*
X209627619Y-118721904D01*
X209722857Y-118674285D01*
X209818095Y-118674285D01*
X209960952Y-118721904D01*
X210532380Y-119293333D01*
X210532380Y-118674285D01*
X216532380Y-119626666D02*
X216056190Y-119960000D01*
X216532380Y-120198095D02*
X215532380Y-120198095D01*
X215532380Y-119817142D01*
X215580000Y-119721904D01*
X215627619Y-119674285D01*
X215722857Y-119626666D01*
X215865714Y-119626666D01*
X215960952Y-119674285D01*
X216008571Y-119721904D01*
X216056190Y-119817142D01*
X216056190Y-120198095D01*
X215532380Y-119293333D02*
X215532380Y-118674285D01*
X215913333Y-119007619D01*
X215913333Y-118864761D01*
X215960952Y-118769523D01*
X216008571Y-118721904D01*
X216103809Y-118674285D01*
X216341904Y-118674285D01*
X216437142Y-118721904D01*
X216484761Y-118769523D01*
X216532380Y-118864761D01*
X216532380Y-119150476D01*
X216484761Y-119245714D01*
X216437142Y-119293333D01*
X213532380Y-119626666D02*
X213056190Y-119960000D01*
X213532380Y-120198095D02*
X212532380Y-120198095D01*
X212532380Y-119817142D01*
X212580000Y-119721904D01*
X212627619Y-119674285D01*
X212722857Y-119626666D01*
X212865714Y-119626666D01*
X212960952Y-119674285D01*
X213008571Y-119721904D01*
X213056190Y-119817142D01*
X213056190Y-120198095D01*
X212865714Y-118769523D02*
X213532380Y-118769523D01*
X212484761Y-119007619D02*
X213199047Y-119245714D01*
X213199047Y-118626666D01*
M02*
