M48
; DRILL file {KiCad (5.1.0)-1} date 24-Jul-19 2:01:54 PM
; FORMAT={-:-/ absolute / metric / decimal}
; #@! TF.CreationDate,2019-07-24T14:01:54+02:00
; #@! TF.GenerationSoftware,Kicad,Pcbnew,(5.1.0)-1
; #@! TF.FileFunction,Plated,1,2,PTH
FMAT,2
METRIC
T1C0.400
T2C0.700
T3C0.762
T4C0.800
T5C1.020
T6C5.000
%
G90
G05
T1
X199.25Y-89.5
X204.75Y-87.5
X206.5Y-82.25
T2
X212.0Y-116.92
X212.0Y-122.0
X218.0Y-116.92
X218.0Y-122.0
X215.0Y-116.92
X215.0Y-122.0
X145.92Y-119.0
X151.0Y-119.0
T3
X176.0Y-106.44
X178.54Y-106.44
X178.54Y-116.6
X181.08Y-106.44
X181.08Y-116.6
X183.62Y-106.44
X183.62Y-116.6
X186.16Y-106.44
X186.16Y-116.6
X188.7Y-106.44
X188.7Y-116.6
X191.24Y-106.44
X191.24Y-116.6
X193.78Y-106.44
X193.78Y-116.6
T4
X201.25Y-82.75
X203.75Y-82.75
X134.56Y-107.5
X134.56Y-115.12
X137.1Y-107.5
X137.1Y-115.12
X139.64Y-107.5
X139.64Y-115.12
X142.18Y-107.5
X142.18Y-115.12
X144.72Y-107.5
X144.72Y-115.12
X147.26Y-107.5
X147.26Y-115.12
X149.8Y-107.5
X149.8Y-115.12
X152.34Y-107.5
X152.34Y-115.12
X154.88Y-107.5
X154.88Y-115.12
X157.42Y-107.5
X157.42Y-115.12
X159.96Y-107.5
X159.96Y-115.12
X162.5Y-107.5
X162.5Y-115.12
X156.94Y-80.76
X156.94Y-96.0
X159.48Y-80.76
X159.48Y-96.0
X162.02Y-80.76
X162.02Y-96.0
X164.56Y-80.76
X164.56Y-96.0
X167.1Y-80.76
X167.1Y-96.0
X169.64Y-80.76
X169.64Y-96.0
X172.18Y-80.76
X172.18Y-96.0
X174.72Y-80.76
X174.72Y-96.0
X177.26Y-80.76
X177.26Y-96.0
X179.8Y-80.76
X179.8Y-96.0
X182.34Y-80.76
X182.34Y-96.0
X184.88Y-80.76
X184.88Y-96.0
X187.42Y-80.76
X187.42Y-96.0
X189.96Y-80.76
X189.96Y-96.0
X192.5Y-80.76
X192.5Y-96.0
X209.73Y-89.25
T5
X224.25Y-106.38
X224.25Y-108.92
X224.25Y-111.46
X224.25Y-114.0
X127.25Y-109.42
X127.25Y-111.96
X127.25Y-114.5
T6
X133.6Y-78.8
X133.6Y-101.2
X212.4Y-78.8
X212.4Y-101.2
T0
M30
