G04 #@! TF.GenerationSoftware,KiCad,Pcbnew,(5.1.0)-1*
G04 #@! TF.CreationDate,2019-07-24T14:01:51+02:00*
G04 #@! TF.ProjectId,AirSensorModule,41697253-656e-4736-9f72-4d6f64756c65,rev?*
G04 #@! TF.SameCoordinates,Original*
G04 #@! TF.FileFunction,Legend,Bot*
G04 #@! TF.FilePolarity,Positive*
%FSLAX46Y46*%
G04 Gerber Fmt 4.6, Leading zero omitted, Abs format (unit mm)*
G04 Created by KiCad (PCBNEW (5.1.0)-1) date 2019-07-24 14:01:51*
%MOMM*%
%LPD*%
G04 APERTURE LIST*
%ADD10C,0.120000*%
%ADD11C,0.150000*%
G04 APERTURE END LIST*
D10*
X207000000Y-93250000D02*
X207000000Y-86250000D01*
X207000000Y-86250000D02*
X215000000Y-86250000D01*
X215000000Y-86250000D02*
X215000000Y-93250000D01*
X215000000Y-93250000D02*
X207000000Y-93250000D01*
X207000000Y-92750000D02*
X207500000Y-93250000D01*
X191230000Y-94730000D02*
X193770000Y-94730000D01*
X193770000Y-94730000D02*
X193770000Y-97400000D01*
X191230000Y-97400000D02*
X153000000Y-97400000D01*
X196440000Y-97400000D02*
X193770000Y-97400000D01*
X193770000Y-82030000D02*
X193770000Y-79360000D01*
X193770000Y-82030000D02*
X155670000Y-82030000D01*
X155670000Y-82030000D02*
X155670000Y-79360000D01*
X191230000Y-94730000D02*
X191230000Y-97400000D01*
X191230000Y-94730000D02*
X155670000Y-94730000D01*
X155670000Y-94730000D02*
X155670000Y-97400000D01*
X153000000Y-97400000D02*
X153000000Y-79360000D01*
X153000000Y-79360000D02*
X196440000Y-79360000D01*
X196440000Y-79360000D02*
X196440000Y-97400000D01*
X206120000Y-82750000D02*
G75*
G03X206120000Y-82750000I-3620000J0D01*
G01*
X206374723Y-80715000D02*
X205674723Y-80715000D01*
X206024723Y-80365000D02*
X206024723Y-81065000D01*
X226850000Y-115350000D02*
X226850000Y-109600000D01*
X226800000Y-108250000D02*
X226800000Y-105050000D01*
X226800000Y-105050000D02*
X220850000Y-105050000D01*
X220850000Y-105050000D02*
X220850000Y-115350000D01*
X220850000Y-115350000D02*
X226850000Y-115350000D01*
X220950000Y-114000000D02*
X221960000Y-114000000D01*
X221960000Y-114000000D02*
X221960000Y-108920000D01*
X221960000Y-108920000D02*
X220950000Y-108920000D01*
X123850000Y-115850000D02*
X129900000Y-115850000D01*
X129900000Y-115850000D02*
X129900000Y-108050000D01*
X129900000Y-108050000D02*
X123850000Y-108050000D01*
X123850000Y-108050000D02*
X123850000Y-115850000D01*
X123950000Y-114500000D02*
X124960000Y-114500000D01*
X124960000Y-114500000D02*
X124960000Y-109420000D01*
X124960000Y-109420000D02*
X123950000Y-109420000D01*
D11*
X208396904Y-99750761D02*
X208254047Y-99798380D01*
X208015952Y-99798380D01*
X207920714Y-99750761D01*
X207873095Y-99703142D01*
X207825476Y-99607904D01*
X207825476Y-99512666D01*
X207873095Y-99417428D01*
X207920714Y-99369809D01*
X208015952Y-99322190D01*
X208206428Y-99274571D01*
X208301666Y-99226952D01*
X208349285Y-99179333D01*
X208396904Y-99084095D01*
X208396904Y-98988857D01*
X208349285Y-98893619D01*
X208301666Y-98846000D01*
X208206428Y-98798380D01*
X207968333Y-98798380D01*
X207825476Y-98846000D01*
X207444523Y-98893619D02*
X207396904Y-98846000D01*
X207301666Y-98798380D01*
X207063571Y-98798380D01*
X206968333Y-98846000D01*
X206920714Y-98893619D01*
X206873095Y-98988857D01*
X206873095Y-99084095D01*
X206920714Y-99226952D01*
X207492142Y-99798380D01*
X206873095Y-99798380D01*
X208214285Y-91202380D02*
X208785714Y-91202380D01*
X208500000Y-91202380D02*
X208500000Y-90202380D01*
X208595238Y-90345238D01*
X208690476Y-90440476D01*
X208785714Y-90488095D01*
X213940476Y-90702380D02*
X213940476Y-89702380D01*
X213702380Y-89702380D01*
X213559523Y-89750000D01*
X213464285Y-89845238D01*
X213416666Y-89940476D01*
X213369047Y-90130952D01*
X213369047Y-90273809D01*
X213416666Y-90464285D01*
X213464285Y-90559523D01*
X213559523Y-90654761D01*
X213702380Y-90702380D01*
X213940476Y-90702380D01*
X212797619Y-90702380D02*
X212892857Y-90654761D01*
X212940476Y-90607142D01*
X212988095Y-90511904D01*
X212988095Y-90226190D01*
X212940476Y-90130952D01*
X212892857Y-90083333D01*
X212797619Y-90035714D01*
X212654761Y-90035714D01*
X212559523Y-90083333D01*
X212511904Y-90130952D01*
X212464285Y-90226190D01*
X212464285Y-90511904D01*
X212511904Y-90607142D01*
X212559523Y-90654761D01*
X212654761Y-90702380D01*
X212797619Y-90702380D01*
X212035714Y-90035714D02*
X212035714Y-90702380D01*
X212035714Y-90130952D02*
X211988095Y-90083333D01*
X211892857Y-90035714D01*
X211750000Y-90035714D01*
X211654761Y-90083333D01*
X211607142Y-90178571D01*
X211607142Y-90702380D01*
X211083333Y-89702380D02*
X211178571Y-89892857D01*
X210797619Y-90035714D02*
X210416666Y-90035714D01*
X210654761Y-89702380D02*
X210654761Y-90559523D01*
X210607142Y-90654761D01*
X210511904Y-90702380D01*
X210416666Y-90702380D01*
X213428571Y-89452380D02*
X213428571Y-88452380D01*
X213047619Y-88452380D01*
X212952380Y-88500000D01*
X212904761Y-88547619D01*
X212857142Y-88642857D01*
X212857142Y-88785714D01*
X212904761Y-88880952D01*
X212952380Y-88928571D01*
X213047619Y-88976190D01*
X213428571Y-88976190D01*
X212285714Y-89452380D02*
X212380952Y-89404761D01*
X212428571Y-89309523D01*
X212428571Y-88452380D01*
X211476190Y-88785714D02*
X211476190Y-89452380D01*
X211904761Y-88785714D02*
X211904761Y-89309523D01*
X211857142Y-89404761D01*
X211761904Y-89452380D01*
X211619047Y-89452380D01*
X211523809Y-89404761D01*
X211476190Y-89357142D01*
X210571428Y-88785714D02*
X210571428Y-89595238D01*
X210619047Y-89690476D01*
X210666666Y-89738095D01*
X210761904Y-89785714D01*
X210904761Y-89785714D01*
X211000000Y-89738095D01*
X210571428Y-89404761D02*
X210666666Y-89452380D01*
X210857142Y-89452380D01*
X210952380Y-89404761D01*
X211000000Y-89357142D01*
X211047619Y-89261904D01*
X211047619Y-88976190D01*
X211000000Y-88880952D01*
X210952380Y-88833333D01*
X210857142Y-88785714D01*
X210666666Y-88785714D01*
X210571428Y-88833333D01*
X197746666Y-87665714D02*
X197746666Y-88141904D01*
X198032380Y-87570476D02*
X197032380Y-87903809D01*
X198032380Y-88237142D01*
X198032380Y-89094285D02*
X198032380Y-88522857D01*
X198032380Y-88808571D02*
X197032380Y-88808571D01*
X197175238Y-88713333D01*
X197270476Y-88618095D01*
X197318095Y-88522857D01*
X202666666Y-80607142D02*
X202714285Y-80654761D01*
X202857142Y-80702380D01*
X202952380Y-80702380D01*
X203095238Y-80654761D01*
X203190476Y-80559523D01*
X203238095Y-80464285D01*
X203285714Y-80273809D01*
X203285714Y-80130952D01*
X203238095Y-79940476D01*
X203190476Y-79845238D01*
X203095238Y-79750000D01*
X202952380Y-79702380D01*
X202857142Y-79702380D01*
X202714285Y-79750000D01*
X202666666Y-79797619D01*
X201714285Y-80702380D02*
X202285714Y-80702380D01*
X202000000Y-80702380D02*
X202000000Y-79702380D01*
X202095238Y-79845238D01*
X202190476Y-79940476D01*
X202285714Y-79988095D01*
X227252380Y-109666666D02*
X227966666Y-109666666D01*
X228109523Y-109619047D01*
X228204761Y-109523809D01*
X228252380Y-109380952D01*
X228252380Y-109285714D01*
X228252380Y-110666666D02*
X228252380Y-110095238D01*
X228252380Y-110380952D02*
X227252380Y-110380952D01*
X227395238Y-110285714D01*
X227490476Y-110190476D01*
X227538095Y-110095238D01*
X130102380Y-111666666D02*
X130816666Y-111666666D01*
X130959523Y-111619047D01*
X131054761Y-111523809D01*
X131102380Y-111380952D01*
X131102380Y-111285714D01*
X130197619Y-112095238D02*
X130150000Y-112142857D01*
X130102380Y-112238095D01*
X130102380Y-112476190D01*
X130150000Y-112571428D01*
X130197619Y-112619047D01*
X130292857Y-112666666D01*
X130388095Y-112666666D01*
X130530952Y-112619047D01*
X131102380Y-112047619D01*
X131102380Y-112666666D01*
M02*
